G04 #@! TF.GenerationSoftware,KiCad,Pcbnew,5.1.5+dfsg1-2build2*
G04 #@! TF.CreationDate,2021-12-16T07:29:40-05:00*
G04 #@! TF.ProjectId,schematics,73636865-6d61-4746-9963-732e6b696361,rev?*
G04 #@! TF.SameCoordinates,Original*
G04 #@! TF.FileFunction,Soldermask,Top*
G04 #@! TF.FilePolarity,Negative*
%FSLAX46Y46*%
G04 Gerber Fmt 4.6, Leading zero omitted, Abs format (unit mm)*
G04 Created by KiCad (PCBNEW 5.1.5+dfsg1-2build2) date 2021-12-16 07:29:40*
%MOMM*%
%LPD*%
G04 APERTURE LIST*
%ADD10C,0.100000*%
G04 APERTURE END LIST*
D10*
G36*
X111011562Y-182120681D02*
G01*
X111046481Y-182131274D01*
X111078663Y-182148476D01*
X111106873Y-182171627D01*
X111130024Y-182199837D01*
X111147226Y-182232019D01*
X111157819Y-182266938D01*
X111162000Y-182309395D01*
X111162000Y-183450605D01*
X111157819Y-183493062D01*
X111147226Y-183527981D01*
X111130024Y-183560163D01*
X111106873Y-183588373D01*
X111078663Y-183611524D01*
X111046481Y-183628726D01*
X111011562Y-183639319D01*
X110969105Y-183643500D01*
X109502895Y-183643500D01*
X109460438Y-183639319D01*
X109425519Y-183628726D01*
X109393337Y-183611524D01*
X109365127Y-183588373D01*
X109341976Y-183560163D01*
X109324774Y-183527981D01*
X109314181Y-183493062D01*
X109310000Y-183450605D01*
X109310000Y-182309395D01*
X109314181Y-182266938D01*
X109324774Y-182232019D01*
X109341976Y-182199837D01*
X109365127Y-182171627D01*
X109393337Y-182148476D01*
X109425519Y-182131274D01*
X109460438Y-182120681D01*
X109502895Y-182116500D01*
X110969105Y-182116500D01*
X111011562Y-182120681D01*
G37*
G36*
X105931562Y-182120681D02*
G01*
X105966481Y-182131274D01*
X105998663Y-182148476D01*
X106026873Y-182171627D01*
X106050024Y-182199837D01*
X106067226Y-182232019D01*
X106077819Y-182266938D01*
X106082000Y-182309395D01*
X106082000Y-183450605D01*
X106077819Y-183493062D01*
X106067226Y-183527981D01*
X106050024Y-183560163D01*
X106026873Y-183588373D01*
X105998663Y-183611524D01*
X105966481Y-183628726D01*
X105931562Y-183639319D01*
X105889105Y-183643500D01*
X104422895Y-183643500D01*
X104380438Y-183639319D01*
X104345519Y-183628726D01*
X104313337Y-183611524D01*
X104285127Y-183588373D01*
X104261976Y-183560163D01*
X104244774Y-183527981D01*
X104234181Y-183493062D01*
X104230000Y-183450605D01*
X104230000Y-182309395D01*
X104234181Y-182266938D01*
X104244774Y-182232019D01*
X104261976Y-182199837D01*
X104285127Y-182171627D01*
X104313337Y-182148476D01*
X104345519Y-182131274D01*
X104380438Y-182120681D01*
X104422895Y-182116500D01*
X105889105Y-182116500D01*
X105931562Y-182120681D01*
G37*
G36*
X87932585Y-179834802D02*
G01*
X88082410Y-179864604D01*
X88364674Y-179981521D01*
X88618705Y-180151259D01*
X88834741Y-180367295D01*
X89004479Y-180621326D01*
X89121396Y-180903590D01*
X89131179Y-180952774D01*
X89158165Y-181088438D01*
X89181000Y-181203240D01*
X89181000Y-181508760D01*
X89121396Y-181808410D01*
X89004479Y-182090674D01*
X88834741Y-182344705D01*
X88618705Y-182560741D01*
X88364674Y-182730479D01*
X88082410Y-182847396D01*
X87932585Y-182877198D01*
X87782761Y-182907000D01*
X87477239Y-182907000D01*
X87327415Y-182877198D01*
X87177590Y-182847396D01*
X86895326Y-182730479D01*
X86641295Y-182560741D01*
X86425259Y-182344705D01*
X86255521Y-182090674D01*
X86138604Y-181808410D01*
X86079000Y-181508760D01*
X86079000Y-181203240D01*
X86101836Y-181088438D01*
X86128821Y-180952774D01*
X86138604Y-180903590D01*
X86255521Y-180621326D01*
X86425259Y-180367295D01*
X86641295Y-180151259D01*
X86895326Y-179981521D01*
X87177590Y-179864604D01*
X87327415Y-179834802D01*
X87477239Y-179805000D01*
X87782761Y-179805000D01*
X87932585Y-179834802D01*
G37*
G36*
X150416585Y-179834802D02*
G01*
X150566410Y-179864604D01*
X150848674Y-179981521D01*
X151102705Y-180151259D01*
X151318741Y-180367295D01*
X151488479Y-180621326D01*
X151605396Y-180903590D01*
X151615179Y-180952774D01*
X151642165Y-181088438D01*
X151665000Y-181203240D01*
X151665000Y-181508760D01*
X151605396Y-181808410D01*
X151488479Y-182090674D01*
X151318741Y-182344705D01*
X151102705Y-182560741D01*
X150848674Y-182730479D01*
X150566410Y-182847396D01*
X150416585Y-182877198D01*
X150266761Y-182907000D01*
X149961239Y-182907000D01*
X149811415Y-182877198D01*
X149661590Y-182847396D01*
X149379326Y-182730479D01*
X149125295Y-182560741D01*
X148909259Y-182344705D01*
X148739521Y-182090674D01*
X148622604Y-181808410D01*
X148563000Y-181508760D01*
X148563000Y-181203240D01*
X148585836Y-181088438D01*
X148612821Y-180952774D01*
X148622604Y-180903590D01*
X148739521Y-180621326D01*
X148909259Y-180367295D01*
X149125295Y-180151259D01*
X149379326Y-179981521D01*
X149661590Y-179864604D01*
X149811415Y-179834802D01*
X149961239Y-179805000D01*
X150266761Y-179805000D01*
X150416585Y-179834802D01*
G37*
G36*
X119993062Y-180942181D02*
G01*
X120027981Y-180952774D01*
X120060163Y-180969976D01*
X120088373Y-180993127D01*
X120111524Y-181021337D01*
X120128726Y-181053519D01*
X120139319Y-181088438D01*
X120143500Y-181130895D01*
X120143500Y-182597105D01*
X120139319Y-182639562D01*
X120128726Y-182674481D01*
X120111524Y-182706663D01*
X120088373Y-182734873D01*
X120060163Y-182758024D01*
X120027981Y-182775226D01*
X119993062Y-182785819D01*
X119950605Y-182790000D01*
X118809395Y-182790000D01*
X118766938Y-182785819D01*
X118732019Y-182775226D01*
X118699837Y-182758024D01*
X118671627Y-182734873D01*
X118648476Y-182706663D01*
X118631274Y-182674481D01*
X118620681Y-182639562D01*
X118616500Y-182597105D01*
X118616500Y-181130895D01*
X118620681Y-181088438D01*
X118631274Y-181053519D01*
X118648476Y-181021337D01*
X118671627Y-180993127D01*
X118699837Y-180969976D01*
X118732019Y-180952774D01*
X118766938Y-180942181D01*
X118809395Y-180938000D01*
X119950605Y-180938000D01*
X119993062Y-180942181D01*
G37*
G36*
X122968062Y-180942181D02*
G01*
X123002981Y-180952774D01*
X123035163Y-180969976D01*
X123063373Y-180993127D01*
X123086524Y-181021337D01*
X123103726Y-181053519D01*
X123114319Y-181088438D01*
X123118500Y-181130895D01*
X123118500Y-182597105D01*
X123114319Y-182639562D01*
X123103726Y-182674481D01*
X123086524Y-182706663D01*
X123063373Y-182734873D01*
X123035163Y-182758024D01*
X123002981Y-182775226D01*
X122968062Y-182785819D01*
X122925605Y-182790000D01*
X121784395Y-182790000D01*
X121741938Y-182785819D01*
X121707019Y-182775226D01*
X121674837Y-182758024D01*
X121646627Y-182734873D01*
X121623476Y-182706663D01*
X121606274Y-182674481D01*
X121595681Y-182639562D01*
X121591500Y-182597105D01*
X121591500Y-181130895D01*
X121595681Y-181088438D01*
X121606274Y-181053519D01*
X121623476Y-181021337D01*
X121646627Y-180993127D01*
X121674837Y-180969976D01*
X121707019Y-180952774D01*
X121741938Y-180942181D01*
X121784395Y-180938000D01*
X122925605Y-180938000D01*
X122968062Y-180942181D01*
G37*
G36*
X95771562Y-180850681D02*
G01*
X95806481Y-180861274D01*
X95838663Y-180878476D01*
X95866873Y-180901627D01*
X95890024Y-180929837D01*
X95907226Y-180962019D01*
X95917819Y-180996938D01*
X95922000Y-181039395D01*
X95922000Y-182180605D01*
X95917819Y-182223062D01*
X95907226Y-182257981D01*
X95890024Y-182290163D01*
X95866873Y-182318373D01*
X95838663Y-182341524D01*
X95806481Y-182358726D01*
X95771562Y-182369319D01*
X95729105Y-182373500D01*
X94262895Y-182373500D01*
X94220438Y-182369319D01*
X94185519Y-182358726D01*
X94153337Y-182341524D01*
X94125127Y-182318373D01*
X94101976Y-182290163D01*
X94084774Y-182257981D01*
X94074181Y-182223062D01*
X94070000Y-182180605D01*
X94070000Y-181039395D01*
X94074181Y-180996938D01*
X94084774Y-180962019D01*
X94101976Y-180929837D01*
X94125127Y-180901627D01*
X94153337Y-180878476D01*
X94185519Y-180861274D01*
X94220438Y-180850681D01*
X94262895Y-180846500D01*
X95729105Y-180846500D01*
X95771562Y-180850681D01*
G37*
G36*
X130914000Y-182141000D02*
G01*
X128762000Y-182141000D01*
X128762000Y-178539000D01*
X130914000Y-178539000D01*
X130914000Y-182141000D01*
G37*
G36*
X133664000Y-182141000D02*
G01*
X131512000Y-182141000D01*
X131512000Y-178539000D01*
X133664000Y-178539000D01*
X133664000Y-182141000D01*
G37*
G36*
X101968763Y-180690906D02*
G01*
X101971707Y-180691800D01*
X101974420Y-180693249D01*
X101976798Y-180695202D01*
X101978751Y-180697580D01*
X101980200Y-180700293D01*
X101981094Y-180703237D01*
X101982000Y-180712440D01*
X101982000Y-181359560D01*
X101981094Y-181368763D01*
X101980200Y-181371707D01*
X101978751Y-181374420D01*
X101976798Y-181376798D01*
X101974420Y-181378751D01*
X101971707Y-181380200D01*
X101968763Y-181381094D01*
X101959560Y-181382000D01*
X100532440Y-181382000D01*
X100523237Y-181381094D01*
X100520293Y-181380200D01*
X100517580Y-181378751D01*
X100515202Y-181376798D01*
X100513249Y-181374420D01*
X100511800Y-181371707D01*
X100510906Y-181368763D01*
X100510000Y-181359560D01*
X100510000Y-180712440D01*
X100510906Y-180703237D01*
X100511800Y-180700293D01*
X100513249Y-180697580D01*
X100515202Y-180695202D01*
X100517580Y-180693249D01*
X100520293Y-180691800D01*
X100523237Y-180690906D01*
X100532440Y-180690000D01*
X101959560Y-180690000D01*
X101968763Y-180690906D01*
G37*
G36*
X99628763Y-180690906D02*
G01*
X99631707Y-180691800D01*
X99634420Y-180693249D01*
X99636798Y-180695202D01*
X99638751Y-180697580D01*
X99640200Y-180700293D01*
X99641094Y-180703237D01*
X99642000Y-180712440D01*
X99642000Y-181359560D01*
X99641094Y-181368763D01*
X99640200Y-181371707D01*
X99638751Y-181374420D01*
X99636798Y-181376798D01*
X99634420Y-181378751D01*
X99631707Y-181380200D01*
X99628763Y-181381094D01*
X99619560Y-181382000D01*
X98192440Y-181382000D01*
X98183237Y-181381094D01*
X98180293Y-181380200D01*
X98177580Y-181378751D01*
X98175202Y-181376798D01*
X98173249Y-181374420D01*
X98171800Y-181371707D01*
X98170906Y-181368763D01*
X98170000Y-181359560D01*
X98170000Y-180712440D01*
X98170906Y-180703237D01*
X98171800Y-180700293D01*
X98173249Y-180697580D01*
X98175202Y-180695202D01*
X98177580Y-180693249D01*
X98180293Y-180691800D01*
X98183237Y-180690906D01*
X98192440Y-180690000D01*
X99619560Y-180690000D01*
X99628763Y-180690906D01*
G37*
G36*
X111011562Y-179145681D02*
G01*
X111046481Y-179156274D01*
X111078663Y-179173476D01*
X111106873Y-179196627D01*
X111130024Y-179224837D01*
X111147226Y-179257019D01*
X111157819Y-179291938D01*
X111162000Y-179334395D01*
X111162000Y-180475605D01*
X111157819Y-180518062D01*
X111147226Y-180552981D01*
X111130024Y-180585163D01*
X111106873Y-180613373D01*
X111078663Y-180636524D01*
X111046481Y-180653726D01*
X111011562Y-180664319D01*
X110969105Y-180668500D01*
X109502895Y-180668500D01*
X109460438Y-180664319D01*
X109425519Y-180653726D01*
X109393337Y-180636524D01*
X109365127Y-180613373D01*
X109341976Y-180585163D01*
X109324774Y-180552981D01*
X109314181Y-180518062D01*
X109310000Y-180475605D01*
X109310000Y-179334395D01*
X109314181Y-179291938D01*
X109324774Y-179257019D01*
X109341976Y-179224837D01*
X109365127Y-179196627D01*
X109393337Y-179173476D01*
X109425519Y-179156274D01*
X109460438Y-179145681D01*
X109502895Y-179141500D01*
X110969105Y-179141500D01*
X111011562Y-179145681D01*
G37*
G36*
X105931562Y-179145681D02*
G01*
X105966481Y-179156274D01*
X105998663Y-179173476D01*
X106026873Y-179196627D01*
X106050024Y-179224837D01*
X106067226Y-179257019D01*
X106077819Y-179291938D01*
X106082000Y-179334395D01*
X106082000Y-180475605D01*
X106077819Y-180518062D01*
X106067226Y-180552981D01*
X106050024Y-180585163D01*
X106026873Y-180613373D01*
X105998663Y-180636524D01*
X105966481Y-180653726D01*
X105931562Y-180664319D01*
X105889105Y-180668500D01*
X104422895Y-180668500D01*
X104380438Y-180664319D01*
X104345519Y-180653726D01*
X104313337Y-180636524D01*
X104285127Y-180613373D01*
X104261976Y-180585163D01*
X104244774Y-180552981D01*
X104234181Y-180518062D01*
X104230000Y-180475605D01*
X104230000Y-179334395D01*
X104234181Y-179291938D01*
X104244774Y-179257019D01*
X104261976Y-179224837D01*
X104285127Y-179196627D01*
X104313337Y-179173476D01*
X104345519Y-179156274D01*
X104380438Y-179145681D01*
X104422895Y-179141500D01*
X105889105Y-179141500D01*
X105931562Y-179145681D01*
G37*
G36*
X101968763Y-179740906D02*
G01*
X101971707Y-179741800D01*
X101974420Y-179743249D01*
X101976798Y-179745202D01*
X101978751Y-179747580D01*
X101980200Y-179750293D01*
X101981094Y-179753237D01*
X101982000Y-179762440D01*
X101982000Y-180409560D01*
X101981094Y-180418763D01*
X101980200Y-180421707D01*
X101978751Y-180424420D01*
X101976798Y-180426798D01*
X101974420Y-180428751D01*
X101971707Y-180430200D01*
X101968763Y-180431094D01*
X101959560Y-180432000D01*
X100532440Y-180432000D01*
X100523237Y-180431094D01*
X100520293Y-180430200D01*
X100517580Y-180428751D01*
X100515202Y-180426798D01*
X100513249Y-180424420D01*
X100511800Y-180421707D01*
X100510906Y-180418763D01*
X100510000Y-180409560D01*
X100510000Y-179762440D01*
X100510906Y-179753237D01*
X100511800Y-179750293D01*
X100513249Y-179747580D01*
X100515202Y-179745202D01*
X100517580Y-179743249D01*
X100520293Y-179741800D01*
X100523237Y-179740906D01*
X100532440Y-179740000D01*
X101959560Y-179740000D01*
X101968763Y-179740906D01*
G37*
G36*
X99628763Y-179740906D02*
G01*
X99631707Y-179741800D01*
X99634420Y-179743249D01*
X99636798Y-179745202D01*
X99638751Y-179747580D01*
X99640200Y-179750293D01*
X99641094Y-179753237D01*
X99642000Y-179762440D01*
X99642000Y-180409560D01*
X99641094Y-180418763D01*
X99640200Y-180421707D01*
X99638751Y-180424420D01*
X99636798Y-180426798D01*
X99634420Y-180428751D01*
X99631707Y-180430200D01*
X99628763Y-180431094D01*
X99619560Y-180432000D01*
X98192440Y-180432000D01*
X98183237Y-180431094D01*
X98180293Y-180430200D01*
X98177580Y-180428751D01*
X98175202Y-180426798D01*
X98173249Y-180424420D01*
X98171800Y-180421707D01*
X98170906Y-180418763D01*
X98170000Y-180409560D01*
X98170000Y-179762440D01*
X98170906Y-179753237D01*
X98171800Y-179750293D01*
X98173249Y-179747580D01*
X98175202Y-179745202D01*
X98177580Y-179743249D01*
X98180293Y-179741800D01*
X98183237Y-179740906D01*
X98192440Y-179740000D01*
X99619560Y-179740000D01*
X99628763Y-179740906D01*
G37*
G36*
X114996499Y-179310445D02*
G01*
X115033995Y-179321820D01*
X115068554Y-179340292D01*
X115098847Y-179365153D01*
X115123708Y-179395446D01*
X115142180Y-179430005D01*
X115153555Y-179467501D01*
X115158000Y-179512638D01*
X115158000Y-180151362D01*
X115153555Y-180196499D01*
X115142180Y-180233995D01*
X115123708Y-180268554D01*
X115098847Y-180298847D01*
X115068554Y-180323708D01*
X115033995Y-180342180D01*
X114996499Y-180353555D01*
X114951362Y-180358000D01*
X114212638Y-180358000D01*
X114167501Y-180353555D01*
X114130005Y-180342180D01*
X114095446Y-180323708D01*
X114065153Y-180298847D01*
X114040292Y-180268554D01*
X114021820Y-180233995D01*
X114010445Y-180196499D01*
X114006000Y-180151362D01*
X114006000Y-179512638D01*
X114010445Y-179467501D01*
X114021820Y-179430005D01*
X114040292Y-179395446D01*
X114065153Y-179365153D01*
X114095446Y-179340292D01*
X114130005Y-179321820D01*
X114167501Y-179310445D01*
X114212638Y-179306000D01*
X114951362Y-179306000D01*
X114996499Y-179310445D01*
G37*
G36*
X116746499Y-179310445D02*
G01*
X116783995Y-179321820D01*
X116818554Y-179340292D01*
X116848847Y-179365153D01*
X116873708Y-179395446D01*
X116892180Y-179430005D01*
X116903555Y-179467501D01*
X116908000Y-179512638D01*
X116908000Y-180151362D01*
X116903555Y-180196499D01*
X116892180Y-180233995D01*
X116873708Y-180268554D01*
X116848847Y-180298847D01*
X116818554Y-180323708D01*
X116783995Y-180342180D01*
X116746499Y-180353555D01*
X116701362Y-180358000D01*
X115962638Y-180358000D01*
X115917501Y-180353555D01*
X115880005Y-180342180D01*
X115845446Y-180323708D01*
X115815153Y-180298847D01*
X115790292Y-180268554D01*
X115771820Y-180233995D01*
X115760445Y-180196499D01*
X115756000Y-180151362D01*
X115756000Y-179512638D01*
X115760445Y-179467501D01*
X115771820Y-179430005D01*
X115790292Y-179395446D01*
X115815153Y-179365153D01*
X115845446Y-179340292D01*
X115880005Y-179321820D01*
X115917501Y-179310445D01*
X115962638Y-179306000D01*
X116701362Y-179306000D01*
X116746499Y-179310445D01*
G37*
G36*
X144165766Y-178879899D02*
G01*
X144297888Y-178934626D01*
X144297890Y-178934627D01*
X144416798Y-179014079D01*
X144517921Y-179115202D01*
X144591177Y-179224837D01*
X144597374Y-179234112D01*
X144652101Y-179366234D01*
X144680000Y-179506494D01*
X144680000Y-179649506D01*
X144652101Y-179789766D01*
X144597374Y-179921888D01*
X144597373Y-179921890D01*
X144517921Y-180040798D01*
X144416798Y-180141921D01*
X144297890Y-180221373D01*
X144297889Y-180221374D01*
X144297888Y-180221374D01*
X144165766Y-180276101D01*
X144025506Y-180304000D01*
X143882494Y-180304000D01*
X143742234Y-180276101D01*
X143610112Y-180221374D01*
X143610111Y-180221374D01*
X143610110Y-180221373D01*
X143491202Y-180141921D01*
X143390079Y-180040798D01*
X143310627Y-179921890D01*
X143310626Y-179921888D01*
X143255899Y-179789766D01*
X143228000Y-179649506D01*
X143228000Y-179506494D01*
X143255899Y-179366234D01*
X143310626Y-179234112D01*
X143316823Y-179224837D01*
X143390079Y-179115202D01*
X143491202Y-179014079D01*
X143610110Y-178934627D01*
X143610112Y-178934626D01*
X143742234Y-178879899D01*
X143882494Y-178852000D01*
X144025506Y-178852000D01*
X144165766Y-178879899D01*
G37*
G36*
X140680000Y-180304000D02*
G01*
X139228000Y-180304000D01*
X139228000Y-178852000D01*
X140680000Y-178852000D01*
X140680000Y-180304000D01*
G37*
G36*
X142165766Y-178879899D02*
G01*
X142297888Y-178934626D01*
X142297890Y-178934627D01*
X142416798Y-179014079D01*
X142517921Y-179115202D01*
X142591177Y-179224837D01*
X142597374Y-179234112D01*
X142652101Y-179366234D01*
X142680000Y-179506494D01*
X142680000Y-179649506D01*
X142652101Y-179789766D01*
X142597374Y-179921888D01*
X142597373Y-179921890D01*
X142517921Y-180040798D01*
X142416798Y-180141921D01*
X142297890Y-180221373D01*
X142297889Y-180221374D01*
X142297888Y-180221374D01*
X142165766Y-180276101D01*
X142025506Y-180304000D01*
X141882494Y-180304000D01*
X141742234Y-180276101D01*
X141610112Y-180221374D01*
X141610111Y-180221374D01*
X141610110Y-180221373D01*
X141491202Y-180141921D01*
X141390079Y-180040798D01*
X141310627Y-179921890D01*
X141310626Y-179921888D01*
X141255899Y-179789766D01*
X141228000Y-179649506D01*
X141228000Y-179506494D01*
X141255899Y-179366234D01*
X141310626Y-179234112D01*
X141316823Y-179224837D01*
X141390079Y-179115202D01*
X141491202Y-179014079D01*
X141610110Y-178934627D01*
X141610112Y-178934626D01*
X141742234Y-178879899D01*
X141882494Y-178852000D01*
X142025506Y-178852000D01*
X142165766Y-178879899D01*
G37*
G36*
X101968763Y-178790906D02*
G01*
X101971707Y-178791800D01*
X101974420Y-178793249D01*
X101976798Y-178795202D01*
X101978751Y-178797580D01*
X101980200Y-178800293D01*
X101981094Y-178803237D01*
X101982000Y-178812440D01*
X101982000Y-179459560D01*
X101981094Y-179468763D01*
X101980200Y-179471707D01*
X101978751Y-179474420D01*
X101976798Y-179476798D01*
X101974420Y-179478751D01*
X101971707Y-179480200D01*
X101968763Y-179481094D01*
X101959560Y-179482000D01*
X100532440Y-179482000D01*
X100523237Y-179481094D01*
X100520293Y-179480200D01*
X100517580Y-179478751D01*
X100515202Y-179476798D01*
X100513249Y-179474420D01*
X100511800Y-179471707D01*
X100510906Y-179468763D01*
X100510000Y-179459560D01*
X100510000Y-178812440D01*
X100510906Y-178803237D01*
X100511800Y-178800293D01*
X100513249Y-178797580D01*
X100515202Y-178795202D01*
X100517580Y-178793249D01*
X100520293Y-178791800D01*
X100523237Y-178790906D01*
X100532440Y-178790000D01*
X101959560Y-178790000D01*
X101968763Y-178790906D01*
G37*
G36*
X99628763Y-178790906D02*
G01*
X99631707Y-178791800D01*
X99634420Y-178793249D01*
X99636798Y-178795202D01*
X99638751Y-178797580D01*
X99640200Y-178800293D01*
X99641094Y-178803237D01*
X99642000Y-178812440D01*
X99642000Y-179459560D01*
X99641094Y-179468763D01*
X99640200Y-179471707D01*
X99638751Y-179474420D01*
X99636798Y-179476798D01*
X99634420Y-179478751D01*
X99631707Y-179480200D01*
X99628763Y-179481094D01*
X99619560Y-179482000D01*
X98192440Y-179482000D01*
X98183237Y-179481094D01*
X98180293Y-179480200D01*
X98177580Y-179478751D01*
X98175202Y-179476798D01*
X98173249Y-179474420D01*
X98171800Y-179471707D01*
X98170906Y-179468763D01*
X98170000Y-179459560D01*
X98170000Y-178812440D01*
X98170906Y-178803237D01*
X98171800Y-178800293D01*
X98173249Y-178797580D01*
X98175202Y-178795202D01*
X98177580Y-178793249D01*
X98180293Y-178791800D01*
X98183237Y-178790906D01*
X98192440Y-178790000D01*
X99619560Y-178790000D01*
X99628763Y-178790906D01*
G37*
G36*
X95771562Y-177875681D02*
G01*
X95806481Y-177886274D01*
X95838663Y-177903476D01*
X95866873Y-177926627D01*
X95890024Y-177954837D01*
X95907226Y-177987019D01*
X95917819Y-178021938D01*
X95922000Y-178064395D01*
X95922000Y-179205605D01*
X95917819Y-179248062D01*
X95907226Y-179282981D01*
X95890024Y-179315163D01*
X95866873Y-179343373D01*
X95838663Y-179366524D01*
X95806481Y-179383726D01*
X95771562Y-179394319D01*
X95729105Y-179398500D01*
X94262895Y-179398500D01*
X94220438Y-179394319D01*
X94185519Y-179383726D01*
X94153337Y-179366524D01*
X94125127Y-179343373D01*
X94101976Y-179315163D01*
X94084774Y-179282981D01*
X94074181Y-179248062D01*
X94070000Y-179205605D01*
X94070000Y-178064395D01*
X94074181Y-178021938D01*
X94084774Y-177987019D01*
X94101976Y-177954837D01*
X94125127Y-177926627D01*
X94153337Y-177903476D01*
X94185519Y-177886274D01*
X94220438Y-177875681D01*
X94262895Y-177871500D01*
X95729105Y-177871500D01*
X95771562Y-177875681D01*
G37*
G36*
X109098499Y-177278445D02*
G01*
X109135995Y-177289820D01*
X109170554Y-177308292D01*
X109200847Y-177333153D01*
X109225708Y-177363446D01*
X109244180Y-177398005D01*
X109255555Y-177435501D01*
X109260000Y-177480638D01*
X109260000Y-178119362D01*
X109255555Y-178164499D01*
X109244180Y-178201995D01*
X109225708Y-178236554D01*
X109200847Y-178266847D01*
X109170554Y-178291708D01*
X109135995Y-178310180D01*
X109098499Y-178321555D01*
X109053362Y-178326000D01*
X108314638Y-178326000D01*
X108269501Y-178321555D01*
X108232005Y-178310180D01*
X108197446Y-178291708D01*
X108167153Y-178266847D01*
X108142292Y-178236554D01*
X108123820Y-178201995D01*
X108112445Y-178164499D01*
X108108000Y-178119362D01*
X108108000Y-177480638D01*
X108112445Y-177435501D01*
X108123820Y-177398005D01*
X108142292Y-177363446D01*
X108167153Y-177333153D01*
X108197446Y-177308292D01*
X108232005Y-177289820D01*
X108269501Y-177278445D01*
X108314638Y-177274000D01*
X109053362Y-177274000D01*
X109098499Y-177278445D01*
G37*
G36*
X107348499Y-177278445D02*
G01*
X107385995Y-177289820D01*
X107420554Y-177308292D01*
X107450847Y-177333153D01*
X107475708Y-177363446D01*
X107494180Y-177398005D01*
X107505555Y-177435501D01*
X107510000Y-177480638D01*
X107510000Y-178119362D01*
X107505555Y-178164499D01*
X107494180Y-178201995D01*
X107475708Y-178236554D01*
X107450847Y-178266847D01*
X107420554Y-178291708D01*
X107385995Y-178310180D01*
X107348499Y-178321555D01*
X107303362Y-178326000D01*
X106564638Y-178326000D01*
X106519501Y-178321555D01*
X106482005Y-178310180D01*
X106447446Y-178291708D01*
X106417153Y-178266847D01*
X106392292Y-178236554D01*
X106373820Y-178201995D01*
X106362445Y-178164499D01*
X106358000Y-178119362D01*
X106358000Y-177480638D01*
X106362445Y-177435501D01*
X106373820Y-177398005D01*
X106392292Y-177363446D01*
X106417153Y-177333153D01*
X106447446Y-177308292D01*
X106482005Y-177289820D01*
X106519501Y-177278445D01*
X106564638Y-177274000D01*
X107303362Y-177274000D01*
X107348499Y-177278445D01*
G37*
G36*
X114410499Y-176579445D02*
G01*
X114447995Y-176590820D01*
X114482554Y-176609292D01*
X114512847Y-176634153D01*
X114537708Y-176664446D01*
X114556180Y-176699005D01*
X114567555Y-176736501D01*
X114572000Y-176781638D01*
X114572000Y-177520362D01*
X114567555Y-177565499D01*
X114556180Y-177602995D01*
X114537708Y-177637554D01*
X114512847Y-177667847D01*
X114482554Y-177692708D01*
X114447995Y-177711180D01*
X114410499Y-177722555D01*
X114365362Y-177727000D01*
X113726638Y-177727000D01*
X113681501Y-177722555D01*
X113644005Y-177711180D01*
X113609446Y-177692708D01*
X113579153Y-177667847D01*
X113554292Y-177637554D01*
X113535820Y-177602995D01*
X113524445Y-177565499D01*
X113520000Y-177520362D01*
X113520000Y-176781638D01*
X113524445Y-176736501D01*
X113535820Y-176699005D01*
X113554292Y-176664446D01*
X113579153Y-176634153D01*
X113609446Y-176609292D01*
X113644005Y-176590820D01*
X113681501Y-176579445D01*
X113726638Y-176575000D01*
X114365362Y-176575000D01*
X114410499Y-176579445D01*
G37*
G36*
X118805000Y-177345000D02*
G01*
X116703000Y-177345000D01*
X116703000Y-175743000D01*
X118805000Y-175743000D01*
X118805000Y-177345000D01*
G37*
G36*
X134822564Y-174431389D02*
G01*
X135013833Y-174510615D01*
X135013835Y-174510616D01*
X135185973Y-174625635D01*
X135332365Y-174772027D01*
X135445861Y-174941885D01*
X135447385Y-174944167D01*
X135526611Y-175135436D01*
X135567000Y-175338484D01*
X135567000Y-175545516D01*
X135526611Y-175748564D01*
X135463897Y-175899969D01*
X135447384Y-175939835D01*
X135332365Y-176111973D01*
X135185973Y-176258365D01*
X135013835Y-176373384D01*
X135013834Y-176373385D01*
X135013833Y-176373385D01*
X134822564Y-176452611D01*
X134619516Y-176493000D01*
X134412484Y-176493000D01*
X134209436Y-176452611D01*
X134018167Y-176373385D01*
X134018166Y-176373385D01*
X134018165Y-176373384D01*
X133846027Y-176258365D01*
X133699635Y-176111973D01*
X133584616Y-175939835D01*
X133568103Y-175899969D01*
X133505389Y-175748564D01*
X133465000Y-175545516D01*
X133465000Y-175338484D01*
X133505389Y-175135436D01*
X133584615Y-174944167D01*
X133586140Y-174941885D01*
X133699635Y-174772027D01*
X133846027Y-174625635D01*
X134018165Y-174510616D01*
X134018167Y-174510615D01*
X134209436Y-174431389D01*
X134412484Y-174391000D01*
X134619516Y-174391000D01*
X134822564Y-174431389D01*
G37*
G36*
X128322564Y-174431389D02*
G01*
X128513833Y-174510615D01*
X128513835Y-174510616D01*
X128685973Y-174625635D01*
X128832365Y-174772027D01*
X128945861Y-174941885D01*
X128947385Y-174944167D01*
X129026611Y-175135436D01*
X129067000Y-175338484D01*
X129067000Y-175545516D01*
X129026611Y-175748564D01*
X128963897Y-175899969D01*
X128947384Y-175939835D01*
X128832365Y-176111973D01*
X128685973Y-176258365D01*
X128513835Y-176373384D01*
X128513834Y-176373385D01*
X128513833Y-176373385D01*
X128322564Y-176452611D01*
X128119516Y-176493000D01*
X127912484Y-176493000D01*
X127709436Y-176452611D01*
X127518167Y-176373385D01*
X127518166Y-176373385D01*
X127518165Y-176373384D01*
X127346027Y-176258365D01*
X127199635Y-176111973D01*
X127084616Y-175939835D01*
X127068103Y-175899969D01*
X127005389Y-175748564D01*
X126965000Y-175545516D01*
X126965000Y-175338484D01*
X127005389Y-175135436D01*
X127084615Y-174944167D01*
X127086140Y-174941885D01*
X127199635Y-174772027D01*
X127346027Y-174625635D01*
X127518165Y-174510616D01*
X127518167Y-174510615D01*
X127709436Y-174431389D01*
X127912484Y-174391000D01*
X128119516Y-174391000D01*
X128322564Y-174431389D01*
G37*
G36*
X125105000Y-176195000D02*
G01*
X123003000Y-176195000D01*
X123003000Y-172293000D01*
X125105000Y-172293000D01*
X125105000Y-176195000D01*
G37*
G36*
X114410499Y-174829445D02*
G01*
X114447995Y-174840820D01*
X114482554Y-174859292D01*
X114512847Y-174884153D01*
X114537708Y-174914446D01*
X114556180Y-174949005D01*
X114567555Y-174986501D01*
X114572000Y-175031638D01*
X114572000Y-175770362D01*
X114567555Y-175815499D01*
X114556180Y-175852995D01*
X114537708Y-175887554D01*
X114512847Y-175917847D01*
X114482554Y-175942708D01*
X114447995Y-175961180D01*
X114410499Y-175972555D01*
X114365362Y-175977000D01*
X113726638Y-175977000D01*
X113681501Y-175972555D01*
X113644005Y-175961180D01*
X113609446Y-175942708D01*
X113579153Y-175917847D01*
X113554292Y-175887554D01*
X113535820Y-175852995D01*
X113524445Y-175815499D01*
X113520000Y-175770362D01*
X113520000Y-175031638D01*
X113524445Y-174986501D01*
X113535820Y-174949005D01*
X113554292Y-174914446D01*
X113579153Y-174884153D01*
X113609446Y-174859292D01*
X113644005Y-174840820D01*
X113681501Y-174829445D01*
X113726638Y-174825000D01*
X114365362Y-174825000D01*
X114410499Y-174829445D01*
G37*
G36*
X118805000Y-175045000D02*
G01*
X116703000Y-175045000D01*
X116703000Y-173443000D01*
X118805000Y-173443000D01*
X118805000Y-175045000D01*
G37*
G36*
X114410499Y-172515445D02*
G01*
X114447995Y-172526820D01*
X114482554Y-172545292D01*
X114512847Y-172570153D01*
X114537708Y-172600446D01*
X114556180Y-172635005D01*
X114567555Y-172672501D01*
X114572000Y-172717638D01*
X114572000Y-173456362D01*
X114567555Y-173501499D01*
X114556180Y-173538995D01*
X114537708Y-173573554D01*
X114512847Y-173603847D01*
X114482554Y-173628708D01*
X114447995Y-173647180D01*
X114410499Y-173658555D01*
X114365362Y-173663000D01*
X113726638Y-173663000D01*
X113681501Y-173658555D01*
X113644005Y-173647180D01*
X113609446Y-173628708D01*
X113579153Y-173603847D01*
X113554292Y-173573554D01*
X113535820Y-173538995D01*
X113524445Y-173501499D01*
X113520000Y-173456362D01*
X113520000Y-172717638D01*
X113524445Y-172672501D01*
X113535820Y-172635005D01*
X113554292Y-172600446D01*
X113579153Y-172570153D01*
X113609446Y-172545292D01*
X113644005Y-172526820D01*
X113681501Y-172515445D01*
X113726638Y-172511000D01*
X114365362Y-172511000D01*
X114410499Y-172515445D01*
G37*
G36*
X88538600Y-171822989D02*
G01*
X88571652Y-171833015D01*
X88602103Y-171849292D01*
X88628799Y-171871201D01*
X88650708Y-171897897D01*
X88666985Y-171928348D01*
X88677011Y-171961400D01*
X88681000Y-172001903D01*
X88681000Y-173438097D01*
X88677011Y-173478600D01*
X88666985Y-173511652D01*
X88650708Y-173542103D01*
X88628799Y-173568799D01*
X88602103Y-173590708D01*
X88571652Y-173606985D01*
X88538600Y-173617011D01*
X88498097Y-173621000D01*
X86761903Y-173621000D01*
X86721400Y-173617011D01*
X86688348Y-173606985D01*
X86657897Y-173590708D01*
X86631201Y-173568799D01*
X86609292Y-173542103D01*
X86593015Y-173511652D01*
X86582989Y-173478600D01*
X86579000Y-173438097D01*
X86579000Y-172001903D01*
X86582989Y-171961400D01*
X86593015Y-171928348D01*
X86609292Y-171897897D01*
X86631201Y-171871201D01*
X86657897Y-171849292D01*
X86688348Y-171833015D01*
X86721400Y-171822989D01*
X86761903Y-171819000D01*
X88498097Y-171819000D01*
X88538600Y-171822989D01*
G37*
G36*
X143392626Y-171428037D02*
G01*
X143562465Y-171479557D01*
X143562467Y-171479558D01*
X143718989Y-171563221D01*
X143856186Y-171675814D01*
X143917598Y-171750646D01*
X143968778Y-171813009D01*
X144052443Y-171969534D01*
X144103963Y-172139373D01*
X144117000Y-172271742D01*
X144117000Y-172660257D01*
X144103963Y-172792626D01*
X144052443Y-172962466D01*
X143968778Y-173118991D01*
X143952570Y-173138740D01*
X143856186Y-173256186D01*
X143761250Y-173334097D01*
X143718991Y-173368778D01*
X143718989Y-173368779D01*
X143580133Y-173443000D01*
X143562466Y-173452443D01*
X143392627Y-173503963D01*
X143216000Y-173521359D01*
X143039374Y-173503963D01*
X142869535Y-173452443D01*
X142851869Y-173443000D01*
X142713012Y-173368779D01*
X142713010Y-173368778D01*
X142575815Y-173256185D01*
X142463222Y-173118991D01*
X142379557Y-172962466D01*
X142328037Y-172792627D01*
X142315000Y-172660258D01*
X142315000Y-172271743D01*
X142328037Y-172139374D01*
X142379557Y-171969535D01*
X142412477Y-171907947D01*
X142463221Y-171813011D01*
X142575814Y-171675814D01*
X142685822Y-171585534D01*
X142713009Y-171563222D01*
X142865729Y-171481591D01*
X142869532Y-171479558D01*
X142869534Y-171479557D01*
X143039373Y-171428037D01*
X143216000Y-171410641D01*
X143392626Y-171428037D01*
G37*
G36*
X141474600Y-171418989D02*
G01*
X141507652Y-171429015D01*
X141538103Y-171445292D01*
X141564799Y-171467201D01*
X141586708Y-171493897D01*
X141602985Y-171524348D01*
X141613011Y-171557400D01*
X141617000Y-171597903D01*
X141617000Y-173334097D01*
X141613011Y-173374600D01*
X141602985Y-173407652D01*
X141586708Y-173438103D01*
X141564799Y-173464799D01*
X141538103Y-173486708D01*
X141507652Y-173502985D01*
X141474600Y-173513011D01*
X141434097Y-173517000D01*
X139997903Y-173517000D01*
X139957400Y-173513011D01*
X139924348Y-173502985D01*
X139893897Y-173486708D01*
X139867201Y-173464799D01*
X139845292Y-173438103D01*
X139829015Y-173407652D01*
X139818989Y-173374600D01*
X139815000Y-173334097D01*
X139815000Y-171597903D01*
X139818989Y-171557400D01*
X139829015Y-171524348D01*
X139845292Y-171493897D01*
X139867201Y-171467201D01*
X139893897Y-171445292D01*
X139924348Y-171429015D01*
X139957400Y-171418989D01*
X139997903Y-171415000D01*
X141434097Y-171415000D01*
X141474600Y-171418989D01*
G37*
G36*
X107293043Y-170392604D02*
G01*
X107544410Y-170442604D01*
X107826674Y-170559521D01*
X108080705Y-170729259D01*
X108296741Y-170945295D01*
X108466479Y-171199326D01*
X108583396Y-171481590D01*
X108602690Y-171578589D01*
X108643000Y-171781239D01*
X108643000Y-172086761D01*
X108632534Y-172139375D01*
X108583396Y-172386410D01*
X108466479Y-172668674D01*
X108296741Y-172922705D01*
X108080705Y-173138741D01*
X107826674Y-173308479D01*
X107544410Y-173425396D01*
X107414136Y-173451309D01*
X107244761Y-173485000D01*
X106939239Y-173485000D01*
X106769864Y-173451309D01*
X106639590Y-173425396D01*
X106357326Y-173308479D01*
X106103295Y-173138741D01*
X105887259Y-172922705D01*
X105717521Y-172668674D01*
X105600604Y-172386410D01*
X105551466Y-172139375D01*
X105541000Y-172086761D01*
X105541000Y-171781239D01*
X105581310Y-171578589D01*
X105600604Y-171481590D01*
X105717521Y-171199326D01*
X105887259Y-170945295D01*
X106103295Y-170729259D01*
X106357326Y-170559521D01*
X106639590Y-170442604D01*
X106890957Y-170392604D01*
X106939239Y-170383000D01*
X107244761Y-170383000D01*
X107293043Y-170392604D01*
G37*
G36*
X95344585Y-170362802D02*
G01*
X95494410Y-170392604D01*
X95776674Y-170509521D01*
X96030705Y-170679259D01*
X96246741Y-170895295D01*
X96416479Y-171149326D01*
X96533396Y-171431590D01*
X96551847Y-171524348D01*
X96593000Y-171731239D01*
X96593000Y-172036761D01*
X96563198Y-172186585D01*
X96533396Y-172336410D01*
X96416479Y-172618674D01*
X96246741Y-172872705D01*
X96030705Y-173088741D01*
X95776674Y-173258479D01*
X95494410Y-173375396D01*
X95374608Y-173399226D01*
X95194761Y-173435000D01*
X94889239Y-173435000D01*
X94709392Y-173399226D01*
X94589590Y-173375396D01*
X94307326Y-173258479D01*
X94053295Y-173088741D01*
X93837259Y-172872705D01*
X93667521Y-172618674D01*
X93550604Y-172336410D01*
X93520802Y-172186585D01*
X93491000Y-172036761D01*
X93491000Y-171731239D01*
X93532153Y-171524348D01*
X93550604Y-171431590D01*
X93667521Y-171149326D01*
X93837259Y-170895295D01*
X94053295Y-170679259D01*
X94307326Y-170509521D01*
X94589590Y-170392604D01*
X94739415Y-170362802D01*
X94889239Y-170333000D01*
X95194761Y-170333000D01*
X95344585Y-170362802D01*
G37*
G36*
X150603443Y-171037519D02*
G01*
X150669627Y-171044037D01*
X150839466Y-171095557D01*
X150995991Y-171179222D01*
X151020490Y-171199328D01*
X151133186Y-171291814D01*
X151216448Y-171393271D01*
X151245778Y-171429009D01*
X151329443Y-171585534D01*
X151380963Y-171755373D01*
X151398359Y-171932000D01*
X151380963Y-172108627D01*
X151329443Y-172278466D01*
X151245778Y-172434991D01*
X151216448Y-172470729D01*
X151133186Y-172572186D01*
X151031729Y-172655448D01*
X150995991Y-172684778D01*
X150839466Y-172768443D01*
X150669627Y-172819963D01*
X150603443Y-172826481D01*
X150537260Y-172833000D01*
X150198740Y-172833000D01*
X150132557Y-172826481D01*
X150066373Y-172819963D01*
X149896534Y-172768443D01*
X149740009Y-172684778D01*
X149704271Y-172655448D01*
X149602814Y-172572186D01*
X149519552Y-172470729D01*
X149490222Y-172434991D01*
X149406557Y-172278466D01*
X149355037Y-172108627D01*
X149337641Y-171932000D01*
X149355037Y-171755373D01*
X149406557Y-171585534D01*
X149490222Y-171429009D01*
X149519552Y-171393271D01*
X149602814Y-171291814D01*
X149715510Y-171199328D01*
X149740009Y-171179222D01*
X149896534Y-171095557D01*
X150066373Y-171044037D01*
X150132557Y-171037519D01*
X150198740Y-171031000D01*
X150537260Y-171031000D01*
X150603443Y-171037519D01*
G37*
G36*
X118805000Y-172745000D02*
G01*
X116703000Y-172745000D01*
X116703000Y-171143000D01*
X118805000Y-171143000D01*
X118805000Y-172745000D01*
G37*
G36*
X128322564Y-169931389D02*
G01*
X128513833Y-170010615D01*
X128513835Y-170010616D01*
X128562859Y-170043373D01*
X128685973Y-170125635D01*
X128832365Y-170272027D01*
X128947385Y-170444167D01*
X129026611Y-170635436D01*
X129067000Y-170838484D01*
X129067000Y-171045516D01*
X129026611Y-171248564D01*
X128947385Y-171439833D01*
X128947384Y-171439835D01*
X128832365Y-171611973D01*
X128685973Y-171758365D01*
X128513835Y-171873384D01*
X128513834Y-171873385D01*
X128513833Y-171873385D01*
X128322564Y-171952611D01*
X128119516Y-171993000D01*
X127912484Y-171993000D01*
X127709436Y-171952611D01*
X127518167Y-171873385D01*
X127518166Y-171873385D01*
X127518165Y-171873384D01*
X127346027Y-171758365D01*
X127199635Y-171611973D01*
X127084616Y-171439835D01*
X127084615Y-171439833D01*
X127005389Y-171248564D01*
X126965000Y-171045516D01*
X126965000Y-170838484D01*
X127005389Y-170635436D01*
X127084615Y-170444167D01*
X127199635Y-170272027D01*
X127346027Y-170125635D01*
X127469141Y-170043373D01*
X127518165Y-170010616D01*
X127518167Y-170010615D01*
X127709436Y-169931389D01*
X127912484Y-169891000D01*
X128119516Y-169891000D01*
X128322564Y-169931389D01*
G37*
G36*
X134822564Y-169931389D02*
G01*
X135013833Y-170010615D01*
X135013835Y-170010616D01*
X135062859Y-170043373D01*
X135185973Y-170125635D01*
X135332365Y-170272027D01*
X135447385Y-170444167D01*
X135526611Y-170635436D01*
X135567000Y-170838484D01*
X135567000Y-171045516D01*
X135526611Y-171248564D01*
X135447385Y-171439833D01*
X135447384Y-171439835D01*
X135332365Y-171611973D01*
X135185973Y-171758365D01*
X135013835Y-171873384D01*
X135013834Y-171873385D01*
X135013833Y-171873385D01*
X134822564Y-171952611D01*
X134619516Y-171993000D01*
X134412484Y-171993000D01*
X134209436Y-171952611D01*
X134018167Y-171873385D01*
X134018166Y-171873385D01*
X134018165Y-171873384D01*
X133846027Y-171758365D01*
X133699635Y-171611973D01*
X133584616Y-171439835D01*
X133584615Y-171439833D01*
X133505389Y-171248564D01*
X133465000Y-171045516D01*
X133465000Y-170838484D01*
X133505389Y-170635436D01*
X133584615Y-170444167D01*
X133699635Y-170272027D01*
X133846027Y-170125635D01*
X133969141Y-170043373D01*
X134018165Y-170010616D01*
X134018167Y-170010615D01*
X134209436Y-169931389D01*
X134412484Y-169891000D01*
X134619516Y-169891000D01*
X134822564Y-169931389D01*
G37*
G36*
X114410499Y-170765445D02*
G01*
X114447995Y-170776820D01*
X114482554Y-170795292D01*
X114512847Y-170820153D01*
X114537708Y-170850446D01*
X114556180Y-170885005D01*
X114567555Y-170922501D01*
X114572000Y-170967638D01*
X114572000Y-171706362D01*
X114567555Y-171751499D01*
X114556180Y-171788995D01*
X114537708Y-171823554D01*
X114512847Y-171853847D01*
X114482554Y-171878708D01*
X114447995Y-171897180D01*
X114410499Y-171908555D01*
X114365362Y-171913000D01*
X113726638Y-171913000D01*
X113681501Y-171908555D01*
X113644005Y-171897180D01*
X113609446Y-171878708D01*
X113579153Y-171853847D01*
X113554292Y-171823554D01*
X113535820Y-171788995D01*
X113524445Y-171751499D01*
X113520000Y-171706362D01*
X113520000Y-170967638D01*
X113524445Y-170922501D01*
X113535820Y-170885005D01*
X113554292Y-170850446D01*
X113579153Y-170820153D01*
X113609446Y-170795292D01*
X113644005Y-170776820D01*
X113681501Y-170765445D01*
X113726638Y-170761000D01*
X114365362Y-170761000D01*
X114410499Y-170765445D01*
G37*
G36*
X87890442Y-169325518D02*
G01*
X87956627Y-169332037D01*
X88126466Y-169383557D01*
X88282991Y-169467222D01*
X88318729Y-169496552D01*
X88420186Y-169579814D01*
X88503448Y-169681271D01*
X88532778Y-169717009D01*
X88616443Y-169873534D01*
X88667963Y-170043373D01*
X88685359Y-170220000D01*
X88667963Y-170396627D01*
X88616443Y-170566466D01*
X88532778Y-170722991D01*
X88527633Y-170729260D01*
X88420186Y-170860186D01*
X88343214Y-170923354D01*
X88282991Y-170972778D01*
X88126466Y-171056443D01*
X87956627Y-171107963D01*
X87890443Y-171114481D01*
X87824260Y-171121000D01*
X87435740Y-171121000D01*
X87369557Y-171114481D01*
X87303373Y-171107963D01*
X87133534Y-171056443D01*
X86977009Y-170972778D01*
X86916786Y-170923354D01*
X86839814Y-170860186D01*
X86732367Y-170729260D01*
X86727222Y-170722991D01*
X86643557Y-170566466D01*
X86592037Y-170396627D01*
X86574641Y-170220000D01*
X86592037Y-170043373D01*
X86643557Y-169873534D01*
X86727222Y-169717009D01*
X86756552Y-169681271D01*
X86839814Y-169579814D01*
X86941271Y-169496552D01*
X86977009Y-169467222D01*
X87133534Y-169383557D01*
X87303373Y-169332037D01*
X87369558Y-169325518D01*
X87435740Y-169319000D01*
X87824260Y-169319000D01*
X87890442Y-169325518D01*
G37*
G36*
X150603442Y-168537518D02*
G01*
X150669627Y-168544037D01*
X150839466Y-168595557D01*
X150995991Y-168679222D01*
X151031729Y-168708552D01*
X151133186Y-168791814D01*
X151216448Y-168893271D01*
X151245778Y-168929009D01*
X151329443Y-169085534D01*
X151380963Y-169255373D01*
X151398359Y-169432000D01*
X151380963Y-169608627D01*
X151329443Y-169778466D01*
X151245778Y-169934991D01*
X151216448Y-169970729D01*
X151133186Y-170072186D01*
X151031729Y-170155448D01*
X150995991Y-170184778D01*
X150839466Y-170268443D01*
X150669627Y-170319963D01*
X150603443Y-170326481D01*
X150537260Y-170333000D01*
X150198740Y-170333000D01*
X150132557Y-170326481D01*
X150066373Y-170319963D01*
X149896534Y-170268443D01*
X149740009Y-170184778D01*
X149704271Y-170155448D01*
X149602814Y-170072186D01*
X149519552Y-169970729D01*
X149490222Y-169934991D01*
X149406557Y-169778466D01*
X149355037Y-169608627D01*
X149337641Y-169432000D01*
X149355037Y-169255373D01*
X149406557Y-169085534D01*
X149490222Y-168929009D01*
X149519552Y-168893271D01*
X149602814Y-168791814D01*
X149704271Y-168708552D01*
X149740009Y-168679222D01*
X149896534Y-168595557D01*
X150066373Y-168544037D01*
X150132558Y-168537518D01*
X150198740Y-168531000D01*
X150537260Y-168531000D01*
X150603442Y-168537518D01*
G37*
G36*
X124727562Y-167134681D02*
G01*
X124762481Y-167145274D01*
X124794663Y-167162476D01*
X124822873Y-167185627D01*
X124846024Y-167213837D01*
X124863226Y-167246019D01*
X124873819Y-167280938D01*
X124878000Y-167323395D01*
X124878000Y-168464605D01*
X124873819Y-168507062D01*
X124863226Y-168541981D01*
X124846024Y-168574163D01*
X124822873Y-168602373D01*
X124794663Y-168625524D01*
X124762481Y-168642726D01*
X124727562Y-168653319D01*
X124685105Y-168657500D01*
X123218895Y-168657500D01*
X123176438Y-168653319D01*
X123141519Y-168642726D01*
X123109337Y-168625524D01*
X123081127Y-168602373D01*
X123057976Y-168574163D01*
X123040774Y-168541981D01*
X123030181Y-168507062D01*
X123026000Y-168464605D01*
X123026000Y-167323395D01*
X123030181Y-167280938D01*
X123040774Y-167246019D01*
X123057976Y-167213837D01*
X123081127Y-167185627D01*
X123109337Y-167162476D01*
X123141519Y-167145274D01*
X123176438Y-167134681D01*
X123218895Y-167130500D01*
X124685105Y-167130500D01*
X124727562Y-167134681D01*
G37*
G36*
X119647562Y-167098181D02*
G01*
X119682481Y-167108774D01*
X119714663Y-167125976D01*
X119742873Y-167149127D01*
X119766024Y-167177337D01*
X119783226Y-167209519D01*
X119793819Y-167244438D01*
X119798000Y-167286895D01*
X119798000Y-168428105D01*
X119793819Y-168470562D01*
X119783226Y-168505481D01*
X119766024Y-168537663D01*
X119742873Y-168565873D01*
X119714663Y-168589024D01*
X119682481Y-168606226D01*
X119647562Y-168616819D01*
X119605105Y-168621000D01*
X118138895Y-168621000D01*
X118096438Y-168616819D01*
X118061519Y-168606226D01*
X118029337Y-168589024D01*
X118001127Y-168565873D01*
X117977976Y-168537663D01*
X117960774Y-168505481D01*
X117950181Y-168470562D01*
X117946000Y-168428105D01*
X117946000Y-167286895D01*
X117950181Y-167244438D01*
X117960774Y-167209519D01*
X117977976Y-167177337D01*
X118001127Y-167149127D01*
X118029337Y-167125976D01*
X118061519Y-167108774D01*
X118096438Y-167098181D01*
X118138895Y-167094000D01*
X119605105Y-167094000D01*
X119647562Y-167098181D01*
G37*
G36*
X114567562Y-167061681D02*
G01*
X114602481Y-167072274D01*
X114634663Y-167089476D01*
X114662873Y-167112627D01*
X114686024Y-167140837D01*
X114703226Y-167173019D01*
X114713819Y-167207938D01*
X114718000Y-167250395D01*
X114718000Y-168391605D01*
X114713819Y-168434062D01*
X114703226Y-168468981D01*
X114686024Y-168501163D01*
X114662873Y-168529373D01*
X114634663Y-168552524D01*
X114602481Y-168569726D01*
X114567562Y-168580319D01*
X114525105Y-168584500D01*
X113058895Y-168584500D01*
X113016438Y-168580319D01*
X112981519Y-168569726D01*
X112949337Y-168552524D01*
X112921127Y-168529373D01*
X112897976Y-168501163D01*
X112880774Y-168468981D01*
X112870181Y-168434062D01*
X112866000Y-168391605D01*
X112866000Y-167250395D01*
X112870181Y-167207938D01*
X112880774Y-167173019D01*
X112897976Y-167140837D01*
X112921127Y-167112627D01*
X112949337Y-167089476D01*
X112981519Y-167072274D01*
X113016438Y-167061681D01*
X113058895Y-167057500D01*
X114525105Y-167057500D01*
X114567562Y-167061681D01*
G37*
G36*
X150603443Y-166037519D02*
G01*
X150669627Y-166044037D01*
X150839466Y-166095557D01*
X150995991Y-166179222D01*
X151031729Y-166208552D01*
X151133186Y-166291814D01*
X151216448Y-166393271D01*
X151245778Y-166429009D01*
X151329443Y-166585534D01*
X151380963Y-166755373D01*
X151398359Y-166932000D01*
X151380963Y-167108627D01*
X151329443Y-167278466D01*
X151245778Y-167434991D01*
X151216448Y-167470729D01*
X151133186Y-167572186D01*
X151031729Y-167655448D01*
X150995991Y-167684778D01*
X150839466Y-167768443D01*
X150669627Y-167819963D01*
X150603442Y-167826482D01*
X150537260Y-167833000D01*
X150198740Y-167833000D01*
X150132558Y-167826482D01*
X150066373Y-167819963D01*
X149896534Y-167768443D01*
X149740009Y-167684778D01*
X149704271Y-167655448D01*
X149602814Y-167572186D01*
X149519552Y-167470729D01*
X149490222Y-167434991D01*
X149406557Y-167278466D01*
X149355037Y-167108627D01*
X149337641Y-166932000D01*
X149355037Y-166755373D01*
X149406557Y-166585534D01*
X149490222Y-166429009D01*
X149519552Y-166393271D01*
X149602814Y-166291814D01*
X149704271Y-166208552D01*
X149740009Y-166179222D01*
X149896534Y-166095557D01*
X150066373Y-166044037D01*
X150132557Y-166037519D01*
X150198740Y-166031000D01*
X150537260Y-166031000D01*
X150603443Y-166037519D01*
G37*
G36*
X145781118Y-142200377D02*
G01*
X145812872Y-142210009D01*
X145842134Y-142225650D01*
X145867782Y-142246698D01*
X145888830Y-142272346D01*
X145904471Y-142301608D01*
X145914103Y-142333362D01*
X145917960Y-142372521D01*
X145917960Y-143052519D01*
X145914103Y-143091678D01*
X145904471Y-143123432D01*
X145888830Y-143152694D01*
X145867782Y-143178342D01*
X145842134Y-143199390D01*
X145812872Y-143215031D01*
X145770437Y-143227903D01*
X145747798Y-143237280D01*
X145727424Y-143250894D01*
X145710097Y-143268221D01*
X145696483Y-143288595D01*
X145687106Y-143311234D01*
X145682325Y-143335267D01*
X145682325Y-143359772D01*
X145687105Y-143383805D01*
X145696482Y-143406444D01*
X145710096Y-143426818D01*
X145727423Y-143444145D01*
X145747797Y-143457759D01*
X145770437Y-143467137D01*
X145812872Y-143480009D01*
X145842134Y-143495650D01*
X145867782Y-143516698D01*
X145888830Y-143542346D01*
X145904471Y-143571608D01*
X145914103Y-143603362D01*
X145917960Y-143642521D01*
X145917960Y-144322519D01*
X145914103Y-144361678D01*
X145904471Y-144393432D01*
X145888830Y-144422694D01*
X145867782Y-144448342D01*
X145842134Y-144469390D01*
X145812872Y-144485031D01*
X145770437Y-144497903D01*
X145747798Y-144507280D01*
X145727424Y-144520894D01*
X145710097Y-144538221D01*
X145696483Y-144558595D01*
X145687106Y-144581234D01*
X145682325Y-144605267D01*
X145682325Y-144629772D01*
X145687105Y-144653805D01*
X145696482Y-144676444D01*
X145710096Y-144696818D01*
X145727423Y-144714145D01*
X145747797Y-144727759D01*
X145770437Y-144737137D01*
X145812872Y-144750009D01*
X145842134Y-144765650D01*
X145867782Y-144786698D01*
X145888830Y-144812346D01*
X145904471Y-144841608D01*
X145914103Y-144873362D01*
X145917960Y-144912521D01*
X145917960Y-145592519D01*
X145914103Y-145631678D01*
X145904471Y-145663432D01*
X145888830Y-145692694D01*
X145867782Y-145718342D01*
X145842134Y-145739390D01*
X145812872Y-145755031D01*
X145770437Y-145767903D01*
X145747798Y-145777280D01*
X145727424Y-145790894D01*
X145710097Y-145808221D01*
X145696483Y-145828595D01*
X145687106Y-145851234D01*
X145682325Y-145875267D01*
X145682325Y-145899772D01*
X145687105Y-145923805D01*
X145696482Y-145946444D01*
X145710096Y-145966818D01*
X145727423Y-145984145D01*
X145747797Y-145997759D01*
X145770437Y-146007137D01*
X145812872Y-146020009D01*
X145842134Y-146035650D01*
X145867782Y-146056698D01*
X145888830Y-146082346D01*
X145904471Y-146111608D01*
X145914103Y-146143362D01*
X145917960Y-146182521D01*
X145917960Y-146862519D01*
X145914103Y-146901678D01*
X145904471Y-146933432D01*
X145888830Y-146962694D01*
X145867782Y-146988342D01*
X145842134Y-147009390D01*
X145812872Y-147025031D01*
X145770437Y-147037903D01*
X145747798Y-147047280D01*
X145727424Y-147060894D01*
X145710097Y-147078221D01*
X145696483Y-147098595D01*
X145687106Y-147121234D01*
X145682325Y-147145267D01*
X145682325Y-147169772D01*
X145687105Y-147193805D01*
X145696482Y-147216444D01*
X145710096Y-147236818D01*
X145727423Y-147254145D01*
X145747797Y-147267759D01*
X145770437Y-147277137D01*
X145812872Y-147290009D01*
X145842134Y-147305650D01*
X145867782Y-147326698D01*
X145888830Y-147352346D01*
X145904471Y-147381608D01*
X145914103Y-147413362D01*
X145917960Y-147452521D01*
X145917960Y-148132519D01*
X145914103Y-148171678D01*
X145904471Y-148203432D01*
X145888830Y-148232694D01*
X145867782Y-148258342D01*
X145842134Y-148279390D01*
X145812872Y-148295031D01*
X145770437Y-148307903D01*
X145747798Y-148317280D01*
X145727424Y-148330894D01*
X145710097Y-148348221D01*
X145696483Y-148368595D01*
X145687106Y-148391234D01*
X145682325Y-148415267D01*
X145682325Y-148439772D01*
X145687105Y-148463805D01*
X145696482Y-148486444D01*
X145710096Y-148506818D01*
X145727423Y-148524145D01*
X145747797Y-148537759D01*
X145770437Y-148547137D01*
X145812872Y-148560009D01*
X145842134Y-148575650D01*
X145867782Y-148596698D01*
X145888830Y-148622346D01*
X145904471Y-148651608D01*
X145914103Y-148683362D01*
X145917960Y-148722521D01*
X145917960Y-149402519D01*
X145914103Y-149441678D01*
X145904471Y-149473432D01*
X145888830Y-149502694D01*
X145867782Y-149528342D01*
X145842134Y-149549390D01*
X145812872Y-149565031D01*
X145770437Y-149577903D01*
X145747798Y-149587280D01*
X145727424Y-149600894D01*
X145710097Y-149618221D01*
X145696483Y-149638595D01*
X145687106Y-149661234D01*
X145682325Y-149685267D01*
X145682325Y-149709772D01*
X145687105Y-149733805D01*
X145696482Y-149756444D01*
X145710096Y-149776818D01*
X145727423Y-149794145D01*
X145747797Y-149807759D01*
X145770437Y-149817137D01*
X145812872Y-149830009D01*
X145842134Y-149845650D01*
X145867782Y-149866698D01*
X145888830Y-149892346D01*
X145904471Y-149921608D01*
X145914103Y-149953362D01*
X145917960Y-149992521D01*
X145917960Y-150672519D01*
X145914103Y-150711678D01*
X145904471Y-150743432D01*
X145888830Y-150772694D01*
X145867782Y-150798342D01*
X145842134Y-150819390D01*
X145812872Y-150835031D01*
X145770437Y-150847903D01*
X145747798Y-150857280D01*
X145727424Y-150870894D01*
X145710097Y-150888221D01*
X145696483Y-150908595D01*
X145687106Y-150931234D01*
X145682325Y-150955267D01*
X145682325Y-150979772D01*
X145687105Y-151003805D01*
X145696482Y-151026444D01*
X145710096Y-151046818D01*
X145727423Y-151064145D01*
X145747797Y-151077759D01*
X145770437Y-151087137D01*
X145812872Y-151100009D01*
X145842134Y-151115650D01*
X145867782Y-151136698D01*
X145888830Y-151162346D01*
X145904471Y-151191608D01*
X145914103Y-151223362D01*
X145917960Y-151262521D01*
X145917960Y-151942519D01*
X145914103Y-151981678D01*
X145904471Y-152013432D01*
X145888830Y-152042694D01*
X145867782Y-152068342D01*
X145842134Y-152089390D01*
X145812872Y-152105031D01*
X145770437Y-152117903D01*
X145747798Y-152127280D01*
X145727424Y-152140894D01*
X145710097Y-152158221D01*
X145696483Y-152178595D01*
X145687106Y-152201234D01*
X145682325Y-152225267D01*
X145682325Y-152249772D01*
X145687105Y-152273805D01*
X145696482Y-152296444D01*
X145710096Y-152316818D01*
X145727423Y-152334145D01*
X145747797Y-152347759D01*
X145770437Y-152357137D01*
X145812872Y-152370009D01*
X145842134Y-152385650D01*
X145867782Y-152406698D01*
X145888830Y-152432346D01*
X145904471Y-152461608D01*
X145914103Y-152493362D01*
X145917960Y-152532521D01*
X145917960Y-153212519D01*
X145914103Y-153251678D01*
X145904471Y-153283432D01*
X145888830Y-153312694D01*
X145867782Y-153338342D01*
X145842134Y-153359390D01*
X145812872Y-153375031D01*
X145770437Y-153387903D01*
X145747798Y-153397280D01*
X145727424Y-153410894D01*
X145710097Y-153428221D01*
X145696483Y-153448595D01*
X145687106Y-153471234D01*
X145682325Y-153495267D01*
X145682325Y-153519772D01*
X145687105Y-153543805D01*
X145696482Y-153566444D01*
X145710096Y-153586818D01*
X145727423Y-153604145D01*
X145747797Y-153617759D01*
X145770437Y-153627137D01*
X145812872Y-153640009D01*
X145842134Y-153655650D01*
X145867782Y-153676698D01*
X145888830Y-153702346D01*
X145904471Y-153731608D01*
X145914103Y-153763362D01*
X145917960Y-153802521D01*
X145917960Y-154482519D01*
X145914103Y-154521678D01*
X145904471Y-154553432D01*
X145888830Y-154582694D01*
X145867782Y-154608342D01*
X145842134Y-154629390D01*
X145812872Y-154645031D01*
X145770437Y-154657903D01*
X145747798Y-154667280D01*
X145727424Y-154680894D01*
X145710097Y-154698221D01*
X145696483Y-154718595D01*
X145687106Y-154741234D01*
X145682325Y-154765267D01*
X145682325Y-154789772D01*
X145687105Y-154813805D01*
X145696482Y-154836444D01*
X145710096Y-154856818D01*
X145727423Y-154874145D01*
X145747797Y-154887759D01*
X145770437Y-154897137D01*
X145812872Y-154910009D01*
X145842134Y-154925650D01*
X145867782Y-154946698D01*
X145888830Y-154972346D01*
X145904471Y-155001608D01*
X145914103Y-155033362D01*
X145917960Y-155072521D01*
X145917960Y-155752519D01*
X145914103Y-155791678D01*
X145904471Y-155823432D01*
X145888830Y-155852694D01*
X145867782Y-155878342D01*
X145842134Y-155899390D01*
X145812872Y-155915031D01*
X145770437Y-155927903D01*
X145747798Y-155937280D01*
X145727424Y-155950894D01*
X145710097Y-155968221D01*
X145696483Y-155988595D01*
X145687106Y-156011234D01*
X145682325Y-156035267D01*
X145682325Y-156059772D01*
X145687105Y-156083805D01*
X145696482Y-156106444D01*
X145710096Y-156126818D01*
X145727423Y-156144145D01*
X145747797Y-156157759D01*
X145770437Y-156167137D01*
X145812872Y-156180009D01*
X145842134Y-156195650D01*
X145867782Y-156216698D01*
X145888830Y-156242346D01*
X145904471Y-156271608D01*
X145914103Y-156303362D01*
X145917960Y-156342521D01*
X145917960Y-157022519D01*
X145914103Y-157061678D01*
X145904471Y-157093432D01*
X145888830Y-157122694D01*
X145867782Y-157148342D01*
X145842134Y-157169390D01*
X145812872Y-157185031D01*
X145770437Y-157197903D01*
X145747798Y-157207280D01*
X145727424Y-157220894D01*
X145710097Y-157238221D01*
X145696483Y-157258595D01*
X145687106Y-157281234D01*
X145682325Y-157305267D01*
X145682325Y-157329772D01*
X145687105Y-157353805D01*
X145696482Y-157376444D01*
X145710096Y-157396818D01*
X145727423Y-157414145D01*
X145747797Y-157427759D01*
X145770437Y-157437137D01*
X145812872Y-157450009D01*
X145842134Y-157465650D01*
X145867782Y-157486698D01*
X145888830Y-157512346D01*
X145904471Y-157541608D01*
X145914103Y-157573362D01*
X145917960Y-157612521D01*
X145917960Y-158292519D01*
X145914103Y-158331678D01*
X145904471Y-158363432D01*
X145888830Y-158392694D01*
X145867782Y-158418342D01*
X145842134Y-158439390D01*
X145812872Y-158455031D01*
X145770437Y-158467903D01*
X145747798Y-158477280D01*
X145727424Y-158490894D01*
X145710097Y-158508221D01*
X145696483Y-158528595D01*
X145687106Y-158551234D01*
X145682325Y-158575267D01*
X145682325Y-158599772D01*
X145687105Y-158623805D01*
X145696482Y-158646444D01*
X145710096Y-158666818D01*
X145727423Y-158684145D01*
X145747797Y-158697759D01*
X145770437Y-158707137D01*
X145812872Y-158720009D01*
X145842134Y-158735650D01*
X145867782Y-158756698D01*
X145888830Y-158782346D01*
X145904471Y-158811608D01*
X145914103Y-158843362D01*
X145917960Y-158882521D01*
X145917960Y-159562519D01*
X145914103Y-159601678D01*
X145904471Y-159633432D01*
X145888830Y-159662694D01*
X145867782Y-159688342D01*
X145842134Y-159709390D01*
X145812872Y-159725031D01*
X145770437Y-159737903D01*
X145747798Y-159747280D01*
X145727424Y-159760894D01*
X145710097Y-159778221D01*
X145696483Y-159798595D01*
X145687106Y-159821234D01*
X145682325Y-159845267D01*
X145682325Y-159869772D01*
X145687105Y-159893805D01*
X145696482Y-159916444D01*
X145710096Y-159936818D01*
X145727423Y-159954145D01*
X145747797Y-159967759D01*
X145770437Y-159977137D01*
X145812872Y-159990009D01*
X145842134Y-160005650D01*
X145867782Y-160026698D01*
X145888830Y-160052346D01*
X145904471Y-160081608D01*
X145914103Y-160113362D01*
X145917960Y-160152521D01*
X145917960Y-160832519D01*
X145914103Y-160871678D01*
X145904471Y-160903432D01*
X145888830Y-160932694D01*
X145867782Y-160958342D01*
X145842134Y-160979390D01*
X145812872Y-160995031D01*
X145770437Y-161007903D01*
X145747798Y-161017280D01*
X145727424Y-161030894D01*
X145710097Y-161048221D01*
X145696483Y-161068595D01*
X145687106Y-161091234D01*
X145682325Y-161115267D01*
X145682325Y-161139772D01*
X145687105Y-161163805D01*
X145696482Y-161186444D01*
X145710096Y-161206818D01*
X145727423Y-161224145D01*
X145747797Y-161237759D01*
X145770437Y-161247137D01*
X145812872Y-161260009D01*
X145842134Y-161275650D01*
X145867782Y-161296698D01*
X145888830Y-161322346D01*
X145904471Y-161351608D01*
X145914103Y-161383362D01*
X145917960Y-161422521D01*
X145917960Y-162102519D01*
X145914103Y-162141678D01*
X145904471Y-162173432D01*
X145888830Y-162202694D01*
X145867782Y-162228342D01*
X145842134Y-162249390D01*
X145812872Y-162265031D01*
X145770437Y-162277903D01*
X145747798Y-162287280D01*
X145727424Y-162300894D01*
X145710097Y-162318221D01*
X145696483Y-162338595D01*
X145687106Y-162361234D01*
X145682325Y-162385267D01*
X145682325Y-162409772D01*
X145687105Y-162433805D01*
X145696482Y-162456444D01*
X145710096Y-162476818D01*
X145727423Y-162494145D01*
X145747797Y-162507759D01*
X145770437Y-162517137D01*
X145812872Y-162530009D01*
X145842134Y-162545650D01*
X145867782Y-162566698D01*
X145888830Y-162592346D01*
X145904471Y-162621608D01*
X145914103Y-162653362D01*
X145917960Y-162692521D01*
X145917960Y-163372519D01*
X145914103Y-163411678D01*
X145904471Y-163443432D01*
X145888830Y-163472694D01*
X145867782Y-163498342D01*
X145842134Y-163519390D01*
X145812872Y-163535031D01*
X145770437Y-163547903D01*
X145747798Y-163557280D01*
X145727424Y-163570894D01*
X145710097Y-163588221D01*
X145696483Y-163608595D01*
X145687106Y-163631234D01*
X145682325Y-163655267D01*
X145682325Y-163679772D01*
X145687105Y-163703805D01*
X145696482Y-163726444D01*
X145710096Y-163746818D01*
X145727423Y-163764145D01*
X145747797Y-163777759D01*
X145770437Y-163787137D01*
X145812872Y-163800009D01*
X145842134Y-163815650D01*
X145867782Y-163836698D01*
X145888830Y-163862346D01*
X145904471Y-163891608D01*
X145914103Y-163923362D01*
X145917960Y-163962521D01*
X145917960Y-164642519D01*
X145914103Y-164681678D01*
X145904471Y-164713432D01*
X145888830Y-164742694D01*
X145867782Y-164768342D01*
X145842134Y-164789390D01*
X145812872Y-164805031D01*
X145770437Y-164817903D01*
X145747798Y-164827280D01*
X145727424Y-164840894D01*
X145710097Y-164858221D01*
X145696483Y-164878595D01*
X145687106Y-164901234D01*
X145682325Y-164925267D01*
X145682325Y-164949772D01*
X145687105Y-164973805D01*
X145696482Y-164996444D01*
X145710096Y-165016818D01*
X145727423Y-165034145D01*
X145747797Y-165047759D01*
X145770437Y-165057137D01*
X145812872Y-165070009D01*
X145842134Y-165085650D01*
X145867782Y-165106698D01*
X145888830Y-165132346D01*
X145904471Y-165161608D01*
X145914103Y-165193362D01*
X145917960Y-165232521D01*
X145917960Y-165912519D01*
X145914103Y-165951678D01*
X145904471Y-165983432D01*
X145888830Y-166012694D01*
X145867782Y-166038342D01*
X145842134Y-166059390D01*
X145812872Y-166075031D01*
X145781118Y-166084663D01*
X145741959Y-166088520D01*
X144541961Y-166088520D01*
X144502802Y-166084663D01*
X144471048Y-166075031D01*
X144441786Y-166059390D01*
X144416138Y-166038342D01*
X144395090Y-166012694D01*
X144379449Y-165983432D01*
X144369817Y-165951678D01*
X144365960Y-165912519D01*
X144365960Y-165232521D01*
X144369817Y-165193362D01*
X144379449Y-165161608D01*
X144395090Y-165132346D01*
X144416138Y-165106698D01*
X144441786Y-165085650D01*
X144471048Y-165070009D01*
X144513483Y-165057137D01*
X144536122Y-165047760D01*
X144556496Y-165034146D01*
X144573823Y-165016819D01*
X144587437Y-164996445D01*
X144596814Y-164973806D01*
X144601595Y-164949773D01*
X144601595Y-164925268D01*
X144596815Y-164901235D01*
X144587438Y-164878596D01*
X144573824Y-164858222D01*
X144556497Y-164840895D01*
X144536123Y-164827281D01*
X144513483Y-164817903D01*
X144471048Y-164805031D01*
X144441786Y-164789390D01*
X144416138Y-164768342D01*
X144395090Y-164742694D01*
X144379449Y-164713432D01*
X144369817Y-164681678D01*
X144365960Y-164642519D01*
X144365960Y-163962521D01*
X144369817Y-163923362D01*
X144379449Y-163891608D01*
X144395090Y-163862346D01*
X144416138Y-163836698D01*
X144441786Y-163815650D01*
X144471048Y-163800009D01*
X144513483Y-163787137D01*
X144536122Y-163777760D01*
X144556496Y-163764146D01*
X144573823Y-163746819D01*
X144587437Y-163726445D01*
X144596814Y-163703806D01*
X144601595Y-163679773D01*
X144601595Y-163655268D01*
X144596815Y-163631235D01*
X144587438Y-163608596D01*
X144573824Y-163588222D01*
X144556497Y-163570895D01*
X144536123Y-163557281D01*
X144513483Y-163547903D01*
X144471048Y-163535031D01*
X144441786Y-163519390D01*
X144416138Y-163498342D01*
X144395090Y-163472694D01*
X144379449Y-163443432D01*
X144369817Y-163411678D01*
X144365960Y-163372519D01*
X144365960Y-162692521D01*
X144369817Y-162653362D01*
X144379449Y-162621608D01*
X144395090Y-162592346D01*
X144416138Y-162566698D01*
X144441786Y-162545650D01*
X144471048Y-162530009D01*
X144513483Y-162517137D01*
X144536122Y-162507760D01*
X144556496Y-162494146D01*
X144573823Y-162476819D01*
X144587437Y-162456445D01*
X144596814Y-162433806D01*
X144601595Y-162409773D01*
X144601595Y-162385268D01*
X144596815Y-162361235D01*
X144587438Y-162338596D01*
X144573824Y-162318222D01*
X144556497Y-162300895D01*
X144536123Y-162287281D01*
X144513483Y-162277903D01*
X144471048Y-162265031D01*
X144441786Y-162249390D01*
X144416138Y-162228342D01*
X144395090Y-162202694D01*
X144379449Y-162173432D01*
X144369817Y-162141678D01*
X144365960Y-162102519D01*
X144365960Y-161422521D01*
X144369817Y-161383362D01*
X144379449Y-161351608D01*
X144395090Y-161322346D01*
X144416138Y-161296698D01*
X144441786Y-161275650D01*
X144471048Y-161260009D01*
X144513483Y-161247137D01*
X144536122Y-161237760D01*
X144556496Y-161224146D01*
X144573823Y-161206819D01*
X144587437Y-161186445D01*
X144596814Y-161163806D01*
X144601595Y-161139773D01*
X144601595Y-161115268D01*
X144596815Y-161091235D01*
X144587438Y-161068596D01*
X144573824Y-161048222D01*
X144556497Y-161030895D01*
X144536123Y-161017281D01*
X144513483Y-161007903D01*
X144471048Y-160995031D01*
X144441786Y-160979390D01*
X144416138Y-160958342D01*
X144395090Y-160932694D01*
X144379449Y-160903432D01*
X144369817Y-160871678D01*
X144365960Y-160832519D01*
X144365960Y-160152521D01*
X144369817Y-160113362D01*
X144379449Y-160081608D01*
X144395090Y-160052346D01*
X144416138Y-160026698D01*
X144441786Y-160005650D01*
X144471048Y-159990009D01*
X144513483Y-159977137D01*
X144536122Y-159967760D01*
X144556496Y-159954146D01*
X144573823Y-159936819D01*
X144587437Y-159916445D01*
X144596814Y-159893806D01*
X144601595Y-159869773D01*
X144601595Y-159845268D01*
X144596815Y-159821235D01*
X144587438Y-159798596D01*
X144573824Y-159778222D01*
X144556497Y-159760895D01*
X144536123Y-159747281D01*
X144513483Y-159737903D01*
X144471048Y-159725031D01*
X144441786Y-159709390D01*
X144416138Y-159688342D01*
X144395090Y-159662694D01*
X144379449Y-159633432D01*
X144369817Y-159601678D01*
X144365960Y-159562519D01*
X144365960Y-158882521D01*
X144369817Y-158843362D01*
X144379449Y-158811608D01*
X144395090Y-158782346D01*
X144416138Y-158756698D01*
X144441786Y-158735650D01*
X144471048Y-158720009D01*
X144513483Y-158707137D01*
X144536122Y-158697760D01*
X144556496Y-158684146D01*
X144573823Y-158666819D01*
X144587437Y-158646445D01*
X144596814Y-158623806D01*
X144601595Y-158599773D01*
X144601595Y-158575268D01*
X144596815Y-158551235D01*
X144587438Y-158528596D01*
X144573824Y-158508222D01*
X144556497Y-158490895D01*
X144536123Y-158477281D01*
X144513483Y-158467903D01*
X144471048Y-158455031D01*
X144441786Y-158439390D01*
X144416138Y-158418342D01*
X144395090Y-158392694D01*
X144379449Y-158363432D01*
X144369817Y-158331678D01*
X144365960Y-158292519D01*
X144365960Y-157612521D01*
X144369817Y-157573362D01*
X144379449Y-157541608D01*
X144395090Y-157512346D01*
X144416138Y-157486698D01*
X144441786Y-157465650D01*
X144471048Y-157450009D01*
X144513483Y-157437137D01*
X144536122Y-157427760D01*
X144556496Y-157414146D01*
X144573823Y-157396819D01*
X144587437Y-157376445D01*
X144596814Y-157353806D01*
X144601595Y-157329773D01*
X144601595Y-157305268D01*
X144596815Y-157281235D01*
X144587438Y-157258596D01*
X144573824Y-157238222D01*
X144556497Y-157220895D01*
X144536123Y-157207281D01*
X144513483Y-157197903D01*
X144471048Y-157185031D01*
X144441786Y-157169390D01*
X144416138Y-157148342D01*
X144395090Y-157122694D01*
X144379449Y-157093432D01*
X144369817Y-157061678D01*
X144365960Y-157022519D01*
X144365960Y-156342521D01*
X144369817Y-156303362D01*
X144379449Y-156271608D01*
X144395090Y-156242346D01*
X144416138Y-156216698D01*
X144441786Y-156195650D01*
X144471048Y-156180009D01*
X144513483Y-156167137D01*
X144536122Y-156157760D01*
X144556496Y-156144146D01*
X144573823Y-156126819D01*
X144587437Y-156106445D01*
X144596814Y-156083806D01*
X144601595Y-156059773D01*
X144601595Y-156035268D01*
X144596815Y-156011235D01*
X144587438Y-155988596D01*
X144573824Y-155968222D01*
X144556497Y-155950895D01*
X144536123Y-155937281D01*
X144513483Y-155927903D01*
X144471048Y-155915031D01*
X144441786Y-155899390D01*
X144416138Y-155878342D01*
X144395090Y-155852694D01*
X144379449Y-155823432D01*
X144369817Y-155791678D01*
X144365960Y-155752519D01*
X144365960Y-155072521D01*
X144369817Y-155033362D01*
X144379449Y-155001608D01*
X144395090Y-154972346D01*
X144416138Y-154946698D01*
X144441786Y-154925650D01*
X144471048Y-154910009D01*
X144513483Y-154897137D01*
X144536122Y-154887760D01*
X144556496Y-154874146D01*
X144573823Y-154856819D01*
X144587437Y-154836445D01*
X144596814Y-154813806D01*
X144601595Y-154789773D01*
X144601595Y-154765268D01*
X144596815Y-154741235D01*
X144587438Y-154718596D01*
X144573824Y-154698222D01*
X144556497Y-154680895D01*
X144536123Y-154667281D01*
X144513483Y-154657903D01*
X144471048Y-154645031D01*
X144441786Y-154629390D01*
X144416138Y-154608342D01*
X144395090Y-154582694D01*
X144379449Y-154553432D01*
X144369817Y-154521678D01*
X144365960Y-154482519D01*
X144365960Y-153802521D01*
X144369817Y-153763362D01*
X144379449Y-153731608D01*
X144395090Y-153702346D01*
X144416138Y-153676698D01*
X144441786Y-153655650D01*
X144471048Y-153640009D01*
X144513483Y-153627137D01*
X144536122Y-153617760D01*
X144556496Y-153604146D01*
X144573823Y-153586819D01*
X144587437Y-153566445D01*
X144596814Y-153543806D01*
X144601595Y-153519773D01*
X144601595Y-153495268D01*
X144596815Y-153471235D01*
X144587438Y-153448596D01*
X144573824Y-153428222D01*
X144556497Y-153410895D01*
X144536123Y-153397281D01*
X144513483Y-153387903D01*
X144471048Y-153375031D01*
X144441786Y-153359390D01*
X144416138Y-153338342D01*
X144395090Y-153312694D01*
X144379449Y-153283432D01*
X144369817Y-153251678D01*
X144365960Y-153212519D01*
X144365960Y-152532521D01*
X144369817Y-152493362D01*
X144379449Y-152461608D01*
X144395090Y-152432346D01*
X144416138Y-152406698D01*
X144441786Y-152385650D01*
X144471048Y-152370009D01*
X144513483Y-152357137D01*
X144536122Y-152347760D01*
X144556496Y-152334146D01*
X144573823Y-152316819D01*
X144587437Y-152296445D01*
X144596814Y-152273806D01*
X144601595Y-152249773D01*
X144601595Y-152225268D01*
X144596815Y-152201235D01*
X144587438Y-152178596D01*
X144573824Y-152158222D01*
X144556497Y-152140895D01*
X144536123Y-152127281D01*
X144513483Y-152117903D01*
X144471048Y-152105031D01*
X144441786Y-152089390D01*
X144416138Y-152068342D01*
X144395090Y-152042694D01*
X144379449Y-152013432D01*
X144369817Y-151981678D01*
X144365960Y-151942519D01*
X144365960Y-151262521D01*
X144369817Y-151223362D01*
X144379449Y-151191608D01*
X144395090Y-151162346D01*
X144416138Y-151136698D01*
X144441786Y-151115650D01*
X144471048Y-151100009D01*
X144513483Y-151087137D01*
X144536122Y-151077760D01*
X144556496Y-151064146D01*
X144573823Y-151046819D01*
X144587437Y-151026445D01*
X144596814Y-151003806D01*
X144601595Y-150979773D01*
X144601595Y-150955268D01*
X144596815Y-150931235D01*
X144587438Y-150908596D01*
X144573824Y-150888222D01*
X144556497Y-150870895D01*
X144536123Y-150857281D01*
X144513483Y-150847903D01*
X144471048Y-150835031D01*
X144441786Y-150819390D01*
X144416138Y-150798342D01*
X144395090Y-150772694D01*
X144379449Y-150743432D01*
X144369817Y-150711678D01*
X144365960Y-150672519D01*
X144365960Y-149992521D01*
X144369817Y-149953362D01*
X144379449Y-149921608D01*
X144395090Y-149892346D01*
X144416138Y-149866698D01*
X144441786Y-149845650D01*
X144471048Y-149830009D01*
X144513483Y-149817137D01*
X144536122Y-149807760D01*
X144556496Y-149794146D01*
X144573823Y-149776819D01*
X144587437Y-149756445D01*
X144596814Y-149733806D01*
X144601595Y-149709773D01*
X144601595Y-149685268D01*
X144596815Y-149661235D01*
X144587438Y-149638596D01*
X144573824Y-149618222D01*
X144556497Y-149600895D01*
X144536123Y-149587281D01*
X144513483Y-149577903D01*
X144471048Y-149565031D01*
X144441786Y-149549390D01*
X144416138Y-149528342D01*
X144395090Y-149502694D01*
X144379449Y-149473432D01*
X144369817Y-149441678D01*
X144365960Y-149402519D01*
X144365960Y-148722521D01*
X144369817Y-148683362D01*
X144379449Y-148651608D01*
X144395090Y-148622346D01*
X144416138Y-148596698D01*
X144441786Y-148575650D01*
X144471048Y-148560009D01*
X144513483Y-148547137D01*
X144536122Y-148537760D01*
X144556496Y-148524146D01*
X144573823Y-148506819D01*
X144587437Y-148486445D01*
X144596814Y-148463806D01*
X144601595Y-148439773D01*
X144601595Y-148415268D01*
X144596815Y-148391235D01*
X144587438Y-148368596D01*
X144573824Y-148348222D01*
X144556497Y-148330895D01*
X144536123Y-148317281D01*
X144513483Y-148307903D01*
X144471048Y-148295031D01*
X144441786Y-148279390D01*
X144416138Y-148258342D01*
X144395090Y-148232694D01*
X144379449Y-148203432D01*
X144369817Y-148171678D01*
X144365960Y-148132519D01*
X144365960Y-147452521D01*
X144369817Y-147413362D01*
X144379449Y-147381608D01*
X144395090Y-147352346D01*
X144416138Y-147326698D01*
X144441786Y-147305650D01*
X144471048Y-147290009D01*
X144513483Y-147277137D01*
X144536122Y-147267760D01*
X144556496Y-147254146D01*
X144573823Y-147236819D01*
X144587437Y-147216445D01*
X144596814Y-147193806D01*
X144601595Y-147169773D01*
X144601595Y-147145268D01*
X144596815Y-147121235D01*
X144587438Y-147098596D01*
X144573824Y-147078222D01*
X144556497Y-147060895D01*
X144536123Y-147047281D01*
X144513483Y-147037903D01*
X144471048Y-147025031D01*
X144441786Y-147009390D01*
X144416138Y-146988342D01*
X144395090Y-146962694D01*
X144379449Y-146933432D01*
X144369817Y-146901678D01*
X144365960Y-146862519D01*
X144365960Y-146182521D01*
X144369817Y-146143362D01*
X144379449Y-146111608D01*
X144395090Y-146082346D01*
X144416138Y-146056698D01*
X144441786Y-146035650D01*
X144471048Y-146020009D01*
X144513483Y-146007137D01*
X144536122Y-145997760D01*
X144556496Y-145984146D01*
X144573823Y-145966819D01*
X144587437Y-145946445D01*
X144596814Y-145923806D01*
X144601595Y-145899773D01*
X144601595Y-145875268D01*
X144596815Y-145851235D01*
X144587438Y-145828596D01*
X144573824Y-145808222D01*
X144556497Y-145790895D01*
X144536123Y-145777281D01*
X144513483Y-145767903D01*
X144471048Y-145755031D01*
X144441786Y-145739390D01*
X144416138Y-145718342D01*
X144395090Y-145692694D01*
X144379449Y-145663432D01*
X144369817Y-145631678D01*
X144365960Y-145592519D01*
X144365960Y-144912521D01*
X144369817Y-144873362D01*
X144379449Y-144841608D01*
X144395090Y-144812346D01*
X144416138Y-144786698D01*
X144441786Y-144765650D01*
X144471048Y-144750009D01*
X144513483Y-144737137D01*
X144536122Y-144727760D01*
X144556496Y-144714146D01*
X144573823Y-144696819D01*
X144587437Y-144676445D01*
X144596814Y-144653806D01*
X144601595Y-144629773D01*
X144601595Y-144605268D01*
X144596815Y-144581235D01*
X144587438Y-144558596D01*
X144573824Y-144538222D01*
X144556497Y-144520895D01*
X144536123Y-144507281D01*
X144513483Y-144497903D01*
X144471048Y-144485031D01*
X144441786Y-144469390D01*
X144416138Y-144448342D01*
X144395090Y-144422694D01*
X144379449Y-144393432D01*
X144369817Y-144361678D01*
X144365960Y-144322519D01*
X144365960Y-143642521D01*
X144369817Y-143603362D01*
X144379449Y-143571608D01*
X144395090Y-143542346D01*
X144416138Y-143516698D01*
X144441786Y-143495650D01*
X144471048Y-143480009D01*
X144513483Y-143467137D01*
X144536122Y-143457760D01*
X144556496Y-143444146D01*
X144573823Y-143426819D01*
X144587437Y-143406445D01*
X144596814Y-143383806D01*
X144601595Y-143359773D01*
X144601595Y-143335268D01*
X144596815Y-143311235D01*
X144587438Y-143288596D01*
X144573824Y-143268222D01*
X144556497Y-143250895D01*
X144536123Y-143237281D01*
X144513483Y-143227903D01*
X144471048Y-143215031D01*
X144441786Y-143199390D01*
X144416138Y-143178342D01*
X144395090Y-143152694D01*
X144379449Y-143123432D01*
X144369817Y-143091678D01*
X144365960Y-143052519D01*
X144365960Y-142372521D01*
X144369817Y-142333362D01*
X144379449Y-142301608D01*
X144395090Y-142272346D01*
X144416138Y-142246698D01*
X144441786Y-142225650D01*
X144471048Y-142210009D01*
X144502802Y-142200377D01*
X144541961Y-142196520D01*
X145741959Y-142196520D01*
X145781118Y-142200377D01*
G37*
G36*
X128161118Y-142200377D02*
G01*
X128192872Y-142210009D01*
X128222134Y-142225650D01*
X128247782Y-142246698D01*
X128268830Y-142272346D01*
X128284471Y-142301608D01*
X128294103Y-142333362D01*
X128297960Y-142372521D01*
X128297960Y-143052519D01*
X128294103Y-143091678D01*
X128284471Y-143123432D01*
X128268830Y-143152694D01*
X128247782Y-143178342D01*
X128222134Y-143199390D01*
X128192872Y-143215031D01*
X128150437Y-143227903D01*
X128127798Y-143237280D01*
X128107424Y-143250894D01*
X128090097Y-143268221D01*
X128076483Y-143288595D01*
X128067106Y-143311234D01*
X128062325Y-143335267D01*
X128062325Y-143359772D01*
X128067105Y-143383805D01*
X128076482Y-143406444D01*
X128090096Y-143426818D01*
X128107423Y-143444145D01*
X128127797Y-143457759D01*
X128150437Y-143467137D01*
X128192872Y-143480009D01*
X128222134Y-143495650D01*
X128247782Y-143516698D01*
X128268830Y-143542346D01*
X128284471Y-143571608D01*
X128294103Y-143603362D01*
X128297960Y-143642521D01*
X128297960Y-144322519D01*
X128294103Y-144361678D01*
X128284471Y-144393432D01*
X128268830Y-144422694D01*
X128247782Y-144448342D01*
X128222134Y-144469390D01*
X128192872Y-144485031D01*
X128150437Y-144497903D01*
X128127798Y-144507280D01*
X128107424Y-144520894D01*
X128090097Y-144538221D01*
X128076483Y-144558595D01*
X128067106Y-144581234D01*
X128062325Y-144605267D01*
X128062325Y-144629772D01*
X128067105Y-144653805D01*
X128076482Y-144676444D01*
X128090096Y-144696818D01*
X128107423Y-144714145D01*
X128127797Y-144727759D01*
X128150437Y-144737137D01*
X128192872Y-144750009D01*
X128222134Y-144765650D01*
X128247782Y-144786698D01*
X128268830Y-144812346D01*
X128284471Y-144841608D01*
X128294103Y-144873362D01*
X128297960Y-144912521D01*
X128297960Y-145592519D01*
X128294103Y-145631678D01*
X128284471Y-145663432D01*
X128268830Y-145692694D01*
X128247782Y-145718342D01*
X128222134Y-145739390D01*
X128192872Y-145755031D01*
X128150437Y-145767903D01*
X128127798Y-145777280D01*
X128107424Y-145790894D01*
X128090097Y-145808221D01*
X128076483Y-145828595D01*
X128067106Y-145851234D01*
X128062325Y-145875267D01*
X128062325Y-145899772D01*
X128067105Y-145923805D01*
X128076482Y-145946444D01*
X128090096Y-145966818D01*
X128107423Y-145984145D01*
X128127797Y-145997759D01*
X128150437Y-146007137D01*
X128192872Y-146020009D01*
X128222134Y-146035650D01*
X128247782Y-146056698D01*
X128268830Y-146082346D01*
X128284471Y-146111608D01*
X128294103Y-146143362D01*
X128297960Y-146182521D01*
X128297960Y-146862519D01*
X128294103Y-146901678D01*
X128284471Y-146933432D01*
X128268830Y-146962694D01*
X128247782Y-146988342D01*
X128222134Y-147009390D01*
X128192872Y-147025031D01*
X128150437Y-147037903D01*
X128127798Y-147047280D01*
X128107424Y-147060894D01*
X128090097Y-147078221D01*
X128076483Y-147098595D01*
X128067106Y-147121234D01*
X128062325Y-147145267D01*
X128062325Y-147169772D01*
X128067105Y-147193805D01*
X128076482Y-147216444D01*
X128090096Y-147236818D01*
X128107423Y-147254145D01*
X128127797Y-147267759D01*
X128150437Y-147277137D01*
X128192872Y-147290009D01*
X128222134Y-147305650D01*
X128247782Y-147326698D01*
X128268830Y-147352346D01*
X128284471Y-147381608D01*
X128294103Y-147413362D01*
X128297960Y-147452521D01*
X128297960Y-148132519D01*
X128294103Y-148171678D01*
X128284471Y-148203432D01*
X128268830Y-148232694D01*
X128247782Y-148258342D01*
X128222134Y-148279390D01*
X128192872Y-148295031D01*
X128150437Y-148307903D01*
X128127798Y-148317280D01*
X128107424Y-148330894D01*
X128090097Y-148348221D01*
X128076483Y-148368595D01*
X128067106Y-148391234D01*
X128062325Y-148415267D01*
X128062325Y-148439772D01*
X128067105Y-148463805D01*
X128076482Y-148486444D01*
X128090096Y-148506818D01*
X128107423Y-148524145D01*
X128127797Y-148537759D01*
X128150437Y-148547137D01*
X128192872Y-148560009D01*
X128222134Y-148575650D01*
X128247782Y-148596698D01*
X128268830Y-148622346D01*
X128284471Y-148651608D01*
X128294103Y-148683362D01*
X128297960Y-148722521D01*
X128297960Y-149402519D01*
X128294103Y-149441678D01*
X128284471Y-149473432D01*
X128268830Y-149502694D01*
X128247782Y-149528342D01*
X128222134Y-149549390D01*
X128192872Y-149565031D01*
X128150437Y-149577903D01*
X128127798Y-149587280D01*
X128107424Y-149600894D01*
X128090097Y-149618221D01*
X128076483Y-149638595D01*
X128067106Y-149661234D01*
X128062325Y-149685267D01*
X128062325Y-149709772D01*
X128067105Y-149733805D01*
X128076482Y-149756444D01*
X128090096Y-149776818D01*
X128107423Y-149794145D01*
X128127797Y-149807759D01*
X128150437Y-149817137D01*
X128192872Y-149830009D01*
X128222134Y-149845650D01*
X128247782Y-149866698D01*
X128268830Y-149892346D01*
X128284471Y-149921608D01*
X128294103Y-149953362D01*
X128297960Y-149992521D01*
X128297960Y-150672519D01*
X128294103Y-150711678D01*
X128284471Y-150743432D01*
X128268830Y-150772694D01*
X128247782Y-150798342D01*
X128222134Y-150819390D01*
X128192872Y-150835031D01*
X128150437Y-150847903D01*
X128127798Y-150857280D01*
X128107424Y-150870894D01*
X128090097Y-150888221D01*
X128076483Y-150908595D01*
X128067106Y-150931234D01*
X128062325Y-150955267D01*
X128062325Y-150979772D01*
X128067105Y-151003805D01*
X128076482Y-151026444D01*
X128090096Y-151046818D01*
X128107423Y-151064145D01*
X128127797Y-151077759D01*
X128150437Y-151087137D01*
X128192872Y-151100009D01*
X128222134Y-151115650D01*
X128247782Y-151136698D01*
X128268830Y-151162346D01*
X128284471Y-151191608D01*
X128294103Y-151223362D01*
X128297960Y-151262521D01*
X128297960Y-151942519D01*
X128294103Y-151981678D01*
X128284471Y-152013432D01*
X128268830Y-152042694D01*
X128247782Y-152068342D01*
X128222134Y-152089390D01*
X128192872Y-152105031D01*
X128150437Y-152117903D01*
X128127798Y-152127280D01*
X128107424Y-152140894D01*
X128090097Y-152158221D01*
X128076483Y-152178595D01*
X128067106Y-152201234D01*
X128062325Y-152225267D01*
X128062325Y-152249772D01*
X128067105Y-152273805D01*
X128076482Y-152296444D01*
X128090096Y-152316818D01*
X128107423Y-152334145D01*
X128127797Y-152347759D01*
X128150437Y-152357137D01*
X128192872Y-152370009D01*
X128222134Y-152385650D01*
X128247782Y-152406698D01*
X128268830Y-152432346D01*
X128284471Y-152461608D01*
X128294103Y-152493362D01*
X128297960Y-152532521D01*
X128297960Y-153212519D01*
X128294103Y-153251678D01*
X128284471Y-153283432D01*
X128268830Y-153312694D01*
X128247782Y-153338342D01*
X128222134Y-153359390D01*
X128192872Y-153375031D01*
X128150437Y-153387903D01*
X128127798Y-153397280D01*
X128107424Y-153410894D01*
X128090097Y-153428221D01*
X128076483Y-153448595D01*
X128067106Y-153471234D01*
X128062325Y-153495267D01*
X128062325Y-153519772D01*
X128067105Y-153543805D01*
X128076482Y-153566444D01*
X128090096Y-153586818D01*
X128107423Y-153604145D01*
X128127797Y-153617759D01*
X128150437Y-153627137D01*
X128192872Y-153640009D01*
X128222134Y-153655650D01*
X128247782Y-153676698D01*
X128268830Y-153702346D01*
X128284471Y-153731608D01*
X128294103Y-153763362D01*
X128297960Y-153802521D01*
X128297960Y-154482519D01*
X128294103Y-154521678D01*
X128284471Y-154553432D01*
X128268830Y-154582694D01*
X128247782Y-154608342D01*
X128222134Y-154629390D01*
X128192872Y-154645031D01*
X128150437Y-154657903D01*
X128127798Y-154667280D01*
X128107424Y-154680894D01*
X128090097Y-154698221D01*
X128076483Y-154718595D01*
X128067106Y-154741234D01*
X128062325Y-154765267D01*
X128062325Y-154789772D01*
X128067105Y-154813805D01*
X128076482Y-154836444D01*
X128090096Y-154856818D01*
X128107423Y-154874145D01*
X128127797Y-154887759D01*
X128150437Y-154897137D01*
X128192872Y-154910009D01*
X128222134Y-154925650D01*
X128247782Y-154946698D01*
X128268830Y-154972346D01*
X128284471Y-155001608D01*
X128294103Y-155033362D01*
X128297960Y-155072521D01*
X128297960Y-155752519D01*
X128294103Y-155791678D01*
X128284471Y-155823432D01*
X128268830Y-155852694D01*
X128247782Y-155878342D01*
X128222134Y-155899390D01*
X128192872Y-155915031D01*
X128150437Y-155927903D01*
X128127798Y-155937280D01*
X128107424Y-155950894D01*
X128090097Y-155968221D01*
X128076483Y-155988595D01*
X128067106Y-156011234D01*
X128062325Y-156035267D01*
X128062325Y-156059772D01*
X128067105Y-156083805D01*
X128076482Y-156106444D01*
X128090096Y-156126818D01*
X128107423Y-156144145D01*
X128127797Y-156157759D01*
X128150437Y-156167137D01*
X128192872Y-156180009D01*
X128222134Y-156195650D01*
X128247782Y-156216698D01*
X128268830Y-156242346D01*
X128284471Y-156271608D01*
X128294103Y-156303362D01*
X128297960Y-156342521D01*
X128297960Y-157022519D01*
X128294103Y-157061678D01*
X128284471Y-157093432D01*
X128268830Y-157122694D01*
X128247782Y-157148342D01*
X128222134Y-157169390D01*
X128192872Y-157185031D01*
X128150437Y-157197903D01*
X128127798Y-157207280D01*
X128107424Y-157220894D01*
X128090097Y-157238221D01*
X128076483Y-157258595D01*
X128067106Y-157281234D01*
X128062325Y-157305267D01*
X128062325Y-157329772D01*
X128067105Y-157353805D01*
X128076482Y-157376444D01*
X128090096Y-157396818D01*
X128107423Y-157414145D01*
X128127797Y-157427759D01*
X128150437Y-157437137D01*
X128192872Y-157450009D01*
X128222134Y-157465650D01*
X128247782Y-157486698D01*
X128268830Y-157512346D01*
X128284471Y-157541608D01*
X128294103Y-157573362D01*
X128297960Y-157612521D01*
X128297960Y-158292519D01*
X128294103Y-158331678D01*
X128284471Y-158363432D01*
X128268830Y-158392694D01*
X128247782Y-158418342D01*
X128222134Y-158439390D01*
X128192872Y-158455031D01*
X128150437Y-158467903D01*
X128127798Y-158477280D01*
X128107424Y-158490894D01*
X128090097Y-158508221D01*
X128076483Y-158528595D01*
X128067106Y-158551234D01*
X128062325Y-158575267D01*
X128062325Y-158599772D01*
X128067105Y-158623805D01*
X128076482Y-158646444D01*
X128090096Y-158666818D01*
X128107423Y-158684145D01*
X128127797Y-158697759D01*
X128150437Y-158707137D01*
X128192872Y-158720009D01*
X128222134Y-158735650D01*
X128247782Y-158756698D01*
X128268830Y-158782346D01*
X128284471Y-158811608D01*
X128294103Y-158843362D01*
X128297960Y-158882521D01*
X128297960Y-159562519D01*
X128294103Y-159601678D01*
X128284471Y-159633432D01*
X128268830Y-159662694D01*
X128247782Y-159688342D01*
X128222134Y-159709390D01*
X128192872Y-159725031D01*
X128150437Y-159737903D01*
X128127798Y-159747280D01*
X128107424Y-159760894D01*
X128090097Y-159778221D01*
X128076483Y-159798595D01*
X128067106Y-159821234D01*
X128062325Y-159845267D01*
X128062325Y-159869772D01*
X128067105Y-159893805D01*
X128076482Y-159916444D01*
X128090096Y-159936818D01*
X128107423Y-159954145D01*
X128127797Y-159967759D01*
X128150437Y-159977137D01*
X128192872Y-159990009D01*
X128222134Y-160005650D01*
X128247782Y-160026698D01*
X128268830Y-160052346D01*
X128284471Y-160081608D01*
X128294103Y-160113362D01*
X128297960Y-160152521D01*
X128297960Y-160832519D01*
X128294103Y-160871678D01*
X128284471Y-160903432D01*
X128268830Y-160932694D01*
X128247782Y-160958342D01*
X128222134Y-160979390D01*
X128192872Y-160995031D01*
X128150437Y-161007903D01*
X128127798Y-161017280D01*
X128107424Y-161030894D01*
X128090097Y-161048221D01*
X128076483Y-161068595D01*
X128067106Y-161091234D01*
X128062325Y-161115267D01*
X128062325Y-161139772D01*
X128067105Y-161163805D01*
X128076482Y-161186444D01*
X128090096Y-161206818D01*
X128107423Y-161224145D01*
X128127797Y-161237759D01*
X128150437Y-161247137D01*
X128192872Y-161260009D01*
X128222134Y-161275650D01*
X128247782Y-161296698D01*
X128268830Y-161322346D01*
X128284471Y-161351608D01*
X128294103Y-161383362D01*
X128297960Y-161422521D01*
X128297960Y-162102519D01*
X128294103Y-162141678D01*
X128284471Y-162173432D01*
X128268830Y-162202694D01*
X128247782Y-162228342D01*
X128222134Y-162249390D01*
X128192872Y-162265031D01*
X128150437Y-162277903D01*
X128127798Y-162287280D01*
X128107424Y-162300894D01*
X128090097Y-162318221D01*
X128076483Y-162338595D01*
X128067106Y-162361234D01*
X128062325Y-162385267D01*
X128062325Y-162409772D01*
X128067105Y-162433805D01*
X128076482Y-162456444D01*
X128090096Y-162476818D01*
X128107423Y-162494145D01*
X128127797Y-162507759D01*
X128150437Y-162517137D01*
X128192872Y-162530009D01*
X128222134Y-162545650D01*
X128247782Y-162566698D01*
X128268830Y-162592346D01*
X128284471Y-162621608D01*
X128294103Y-162653362D01*
X128297960Y-162692521D01*
X128297960Y-163372519D01*
X128294103Y-163411678D01*
X128284471Y-163443432D01*
X128268830Y-163472694D01*
X128247782Y-163498342D01*
X128222134Y-163519390D01*
X128192872Y-163535031D01*
X128150437Y-163547903D01*
X128127798Y-163557280D01*
X128107424Y-163570894D01*
X128090097Y-163588221D01*
X128076483Y-163608595D01*
X128067106Y-163631234D01*
X128062325Y-163655267D01*
X128062325Y-163679772D01*
X128067105Y-163703805D01*
X128076482Y-163726444D01*
X128090096Y-163746818D01*
X128107423Y-163764145D01*
X128127797Y-163777759D01*
X128150437Y-163787137D01*
X128192872Y-163800009D01*
X128222134Y-163815650D01*
X128247782Y-163836698D01*
X128268830Y-163862346D01*
X128284471Y-163891608D01*
X128294103Y-163923362D01*
X128297960Y-163962521D01*
X128297960Y-164642519D01*
X128294103Y-164681678D01*
X128284471Y-164713432D01*
X128268830Y-164742694D01*
X128247782Y-164768342D01*
X128222134Y-164789390D01*
X128192872Y-164805031D01*
X128150437Y-164817903D01*
X128127798Y-164827280D01*
X128107424Y-164840894D01*
X128090097Y-164858221D01*
X128076483Y-164878595D01*
X128067106Y-164901234D01*
X128062325Y-164925267D01*
X128062325Y-164949772D01*
X128067105Y-164973805D01*
X128076482Y-164996444D01*
X128090096Y-165016818D01*
X128107423Y-165034145D01*
X128127797Y-165047759D01*
X128150437Y-165057137D01*
X128192872Y-165070009D01*
X128222134Y-165085650D01*
X128247782Y-165106698D01*
X128268830Y-165132346D01*
X128284471Y-165161608D01*
X128294103Y-165193362D01*
X128297960Y-165232521D01*
X128297960Y-165912519D01*
X128294103Y-165951678D01*
X128284471Y-165983432D01*
X128268830Y-166012694D01*
X128247782Y-166038342D01*
X128222134Y-166059390D01*
X128192872Y-166075031D01*
X128161118Y-166084663D01*
X128121959Y-166088520D01*
X126921961Y-166088520D01*
X126882802Y-166084663D01*
X126851048Y-166075031D01*
X126821786Y-166059390D01*
X126796138Y-166038342D01*
X126775090Y-166012694D01*
X126759449Y-165983432D01*
X126749817Y-165951678D01*
X126745960Y-165912519D01*
X126745960Y-165232521D01*
X126749817Y-165193362D01*
X126759449Y-165161608D01*
X126775090Y-165132346D01*
X126796138Y-165106698D01*
X126821786Y-165085650D01*
X126851048Y-165070009D01*
X126893483Y-165057137D01*
X126916122Y-165047760D01*
X126936496Y-165034146D01*
X126953823Y-165016819D01*
X126967437Y-164996445D01*
X126976814Y-164973806D01*
X126981595Y-164949773D01*
X126981595Y-164925268D01*
X126976815Y-164901235D01*
X126967438Y-164878596D01*
X126953824Y-164858222D01*
X126936497Y-164840895D01*
X126916123Y-164827281D01*
X126893483Y-164817903D01*
X126851048Y-164805031D01*
X126821786Y-164789390D01*
X126796138Y-164768342D01*
X126775090Y-164742694D01*
X126759449Y-164713432D01*
X126749817Y-164681678D01*
X126745960Y-164642519D01*
X126745960Y-163962521D01*
X126749817Y-163923362D01*
X126759449Y-163891608D01*
X126775090Y-163862346D01*
X126796138Y-163836698D01*
X126821786Y-163815650D01*
X126851048Y-163800009D01*
X126893483Y-163787137D01*
X126916122Y-163777760D01*
X126936496Y-163764146D01*
X126953823Y-163746819D01*
X126967437Y-163726445D01*
X126976814Y-163703806D01*
X126981595Y-163679773D01*
X126981595Y-163655268D01*
X126976815Y-163631235D01*
X126967438Y-163608596D01*
X126953824Y-163588222D01*
X126936497Y-163570895D01*
X126916123Y-163557281D01*
X126893483Y-163547903D01*
X126851048Y-163535031D01*
X126821786Y-163519390D01*
X126796138Y-163498342D01*
X126775090Y-163472694D01*
X126759449Y-163443432D01*
X126749817Y-163411678D01*
X126745960Y-163372519D01*
X126745960Y-162692521D01*
X126749817Y-162653362D01*
X126759449Y-162621608D01*
X126775090Y-162592346D01*
X126796138Y-162566698D01*
X126821786Y-162545650D01*
X126851048Y-162530009D01*
X126893483Y-162517137D01*
X126916122Y-162507760D01*
X126936496Y-162494146D01*
X126953823Y-162476819D01*
X126967437Y-162456445D01*
X126976814Y-162433806D01*
X126981595Y-162409773D01*
X126981595Y-162385268D01*
X126976815Y-162361235D01*
X126967438Y-162338596D01*
X126953824Y-162318222D01*
X126936497Y-162300895D01*
X126916123Y-162287281D01*
X126893483Y-162277903D01*
X126851048Y-162265031D01*
X126821786Y-162249390D01*
X126796138Y-162228342D01*
X126775090Y-162202694D01*
X126759449Y-162173432D01*
X126749817Y-162141678D01*
X126745960Y-162102519D01*
X126745960Y-161422521D01*
X126749817Y-161383362D01*
X126759449Y-161351608D01*
X126775090Y-161322346D01*
X126796138Y-161296698D01*
X126821786Y-161275650D01*
X126851048Y-161260009D01*
X126893483Y-161247137D01*
X126916122Y-161237760D01*
X126936496Y-161224146D01*
X126953823Y-161206819D01*
X126967437Y-161186445D01*
X126976814Y-161163806D01*
X126981595Y-161139773D01*
X126981595Y-161115268D01*
X126976815Y-161091235D01*
X126967438Y-161068596D01*
X126953824Y-161048222D01*
X126936497Y-161030895D01*
X126916123Y-161017281D01*
X126893483Y-161007903D01*
X126851048Y-160995031D01*
X126821786Y-160979390D01*
X126796138Y-160958342D01*
X126775090Y-160932694D01*
X126759449Y-160903432D01*
X126749817Y-160871678D01*
X126745960Y-160832519D01*
X126745960Y-160152521D01*
X126749817Y-160113362D01*
X126759449Y-160081608D01*
X126775090Y-160052346D01*
X126796138Y-160026698D01*
X126821786Y-160005650D01*
X126851048Y-159990009D01*
X126893483Y-159977137D01*
X126916122Y-159967760D01*
X126936496Y-159954146D01*
X126953823Y-159936819D01*
X126967437Y-159916445D01*
X126976814Y-159893806D01*
X126981595Y-159869773D01*
X126981595Y-159845268D01*
X126976815Y-159821235D01*
X126967438Y-159798596D01*
X126953824Y-159778222D01*
X126936497Y-159760895D01*
X126916123Y-159747281D01*
X126893483Y-159737903D01*
X126851048Y-159725031D01*
X126821786Y-159709390D01*
X126796138Y-159688342D01*
X126775090Y-159662694D01*
X126759449Y-159633432D01*
X126749817Y-159601678D01*
X126745960Y-159562519D01*
X126745960Y-158882521D01*
X126749817Y-158843362D01*
X126759449Y-158811608D01*
X126775090Y-158782346D01*
X126796138Y-158756698D01*
X126821786Y-158735650D01*
X126851048Y-158720009D01*
X126893483Y-158707137D01*
X126916122Y-158697760D01*
X126936496Y-158684146D01*
X126953823Y-158666819D01*
X126967437Y-158646445D01*
X126976814Y-158623806D01*
X126981595Y-158599773D01*
X126981595Y-158575268D01*
X126976815Y-158551235D01*
X126967438Y-158528596D01*
X126953824Y-158508222D01*
X126936497Y-158490895D01*
X126916123Y-158477281D01*
X126893483Y-158467903D01*
X126851048Y-158455031D01*
X126821786Y-158439390D01*
X126796138Y-158418342D01*
X126775090Y-158392694D01*
X126759449Y-158363432D01*
X126749817Y-158331678D01*
X126745960Y-158292519D01*
X126745960Y-157612521D01*
X126749817Y-157573362D01*
X126759449Y-157541608D01*
X126775090Y-157512346D01*
X126796138Y-157486698D01*
X126821786Y-157465650D01*
X126851048Y-157450009D01*
X126893483Y-157437137D01*
X126916122Y-157427760D01*
X126936496Y-157414146D01*
X126953823Y-157396819D01*
X126967437Y-157376445D01*
X126976814Y-157353806D01*
X126981595Y-157329773D01*
X126981595Y-157305268D01*
X126976815Y-157281235D01*
X126967438Y-157258596D01*
X126953824Y-157238222D01*
X126936497Y-157220895D01*
X126916123Y-157207281D01*
X126893483Y-157197903D01*
X126851048Y-157185031D01*
X126821786Y-157169390D01*
X126796138Y-157148342D01*
X126775090Y-157122694D01*
X126759449Y-157093432D01*
X126749817Y-157061678D01*
X126745960Y-157022519D01*
X126745960Y-156342521D01*
X126749817Y-156303362D01*
X126759449Y-156271608D01*
X126775090Y-156242346D01*
X126796138Y-156216698D01*
X126821786Y-156195650D01*
X126851048Y-156180009D01*
X126893483Y-156167137D01*
X126916122Y-156157760D01*
X126936496Y-156144146D01*
X126953823Y-156126819D01*
X126967437Y-156106445D01*
X126976814Y-156083806D01*
X126981595Y-156059773D01*
X126981595Y-156035268D01*
X126976815Y-156011235D01*
X126967438Y-155988596D01*
X126953824Y-155968222D01*
X126936497Y-155950895D01*
X126916123Y-155937281D01*
X126893483Y-155927903D01*
X126851048Y-155915031D01*
X126821786Y-155899390D01*
X126796138Y-155878342D01*
X126775090Y-155852694D01*
X126759449Y-155823432D01*
X126749817Y-155791678D01*
X126745960Y-155752519D01*
X126745960Y-155072521D01*
X126749817Y-155033362D01*
X126759449Y-155001608D01*
X126775090Y-154972346D01*
X126796138Y-154946698D01*
X126821786Y-154925650D01*
X126851048Y-154910009D01*
X126893483Y-154897137D01*
X126916122Y-154887760D01*
X126936496Y-154874146D01*
X126953823Y-154856819D01*
X126967437Y-154836445D01*
X126976814Y-154813806D01*
X126981595Y-154789773D01*
X126981595Y-154765268D01*
X126976815Y-154741235D01*
X126967438Y-154718596D01*
X126953824Y-154698222D01*
X126936497Y-154680895D01*
X126916123Y-154667281D01*
X126893483Y-154657903D01*
X126851048Y-154645031D01*
X126821786Y-154629390D01*
X126796138Y-154608342D01*
X126775090Y-154582694D01*
X126759449Y-154553432D01*
X126749817Y-154521678D01*
X126745960Y-154482519D01*
X126745960Y-153802521D01*
X126749817Y-153763362D01*
X126759449Y-153731608D01*
X126775090Y-153702346D01*
X126796138Y-153676698D01*
X126821786Y-153655650D01*
X126851048Y-153640009D01*
X126893483Y-153627137D01*
X126916122Y-153617760D01*
X126936496Y-153604146D01*
X126953823Y-153586819D01*
X126967437Y-153566445D01*
X126976814Y-153543806D01*
X126981595Y-153519773D01*
X126981595Y-153495268D01*
X126976815Y-153471235D01*
X126967438Y-153448596D01*
X126953824Y-153428222D01*
X126936497Y-153410895D01*
X126916123Y-153397281D01*
X126893483Y-153387903D01*
X126851048Y-153375031D01*
X126821786Y-153359390D01*
X126796138Y-153338342D01*
X126775090Y-153312694D01*
X126759449Y-153283432D01*
X126749817Y-153251678D01*
X126745960Y-153212519D01*
X126745960Y-152532521D01*
X126749817Y-152493362D01*
X126759449Y-152461608D01*
X126775090Y-152432346D01*
X126796138Y-152406698D01*
X126821786Y-152385650D01*
X126851048Y-152370009D01*
X126893483Y-152357137D01*
X126916122Y-152347760D01*
X126936496Y-152334146D01*
X126953823Y-152316819D01*
X126967437Y-152296445D01*
X126976814Y-152273806D01*
X126981595Y-152249773D01*
X126981595Y-152225268D01*
X126976815Y-152201235D01*
X126967438Y-152178596D01*
X126953824Y-152158222D01*
X126936497Y-152140895D01*
X126916123Y-152127281D01*
X126893483Y-152117903D01*
X126851048Y-152105031D01*
X126821786Y-152089390D01*
X126796138Y-152068342D01*
X126775090Y-152042694D01*
X126759449Y-152013432D01*
X126749817Y-151981678D01*
X126745960Y-151942519D01*
X126745960Y-151262521D01*
X126749817Y-151223362D01*
X126759449Y-151191608D01*
X126775090Y-151162346D01*
X126796138Y-151136698D01*
X126821786Y-151115650D01*
X126851048Y-151100009D01*
X126893483Y-151087137D01*
X126916122Y-151077760D01*
X126936496Y-151064146D01*
X126953823Y-151046819D01*
X126967437Y-151026445D01*
X126976814Y-151003806D01*
X126981595Y-150979773D01*
X126981595Y-150955268D01*
X126976815Y-150931235D01*
X126967438Y-150908596D01*
X126953824Y-150888222D01*
X126936497Y-150870895D01*
X126916123Y-150857281D01*
X126893483Y-150847903D01*
X126851048Y-150835031D01*
X126821786Y-150819390D01*
X126796138Y-150798342D01*
X126775090Y-150772694D01*
X126759449Y-150743432D01*
X126749817Y-150711678D01*
X126745960Y-150672519D01*
X126745960Y-149992521D01*
X126749817Y-149953362D01*
X126759449Y-149921608D01*
X126775090Y-149892346D01*
X126796138Y-149866698D01*
X126821786Y-149845650D01*
X126851048Y-149830009D01*
X126893483Y-149817137D01*
X126916122Y-149807760D01*
X126936496Y-149794146D01*
X126953823Y-149776819D01*
X126967437Y-149756445D01*
X126976814Y-149733806D01*
X126981595Y-149709773D01*
X126981595Y-149685268D01*
X126976815Y-149661235D01*
X126967438Y-149638596D01*
X126953824Y-149618222D01*
X126936497Y-149600895D01*
X126916123Y-149587281D01*
X126893483Y-149577903D01*
X126851048Y-149565031D01*
X126821786Y-149549390D01*
X126796138Y-149528342D01*
X126775090Y-149502694D01*
X126759449Y-149473432D01*
X126749817Y-149441678D01*
X126745960Y-149402519D01*
X126745960Y-148722521D01*
X126749817Y-148683362D01*
X126759449Y-148651608D01*
X126775090Y-148622346D01*
X126796138Y-148596698D01*
X126821786Y-148575650D01*
X126851048Y-148560009D01*
X126893483Y-148547137D01*
X126916122Y-148537760D01*
X126936496Y-148524146D01*
X126953823Y-148506819D01*
X126967437Y-148486445D01*
X126976814Y-148463806D01*
X126981595Y-148439773D01*
X126981595Y-148415268D01*
X126976815Y-148391235D01*
X126967438Y-148368596D01*
X126953824Y-148348222D01*
X126936497Y-148330895D01*
X126916123Y-148317281D01*
X126893483Y-148307903D01*
X126851048Y-148295031D01*
X126821786Y-148279390D01*
X126796138Y-148258342D01*
X126775090Y-148232694D01*
X126759449Y-148203432D01*
X126749817Y-148171678D01*
X126745960Y-148132519D01*
X126745960Y-147452521D01*
X126749817Y-147413362D01*
X126759449Y-147381608D01*
X126775090Y-147352346D01*
X126796138Y-147326698D01*
X126821786Y-147305650D01*
X126851048Y-147290009D01*
X126893483Y-147277137D01*
X126916122Y-147267760D01*
X126936496Y-147254146D01*
X126953823Y-147236819D01*
X126967437Y-147216445D01*
X126976814Y-147193806D01*
X126981595Y-147169773D01*
X126981595Y-147145268D01*
X126976815Y-147121235D01*
X126967438Y-147098596D01*
X126953824Y-147078222D01*
X126936497Y-147060895D01*
X126916123Y-147047281D01*
X126893483Y-147037903D01*
X126851048Y-147025031D01*
X126821786Y-147009390D01*
X126796138Y-146988342D01*
X126775090Y-146962694D01*
X126759449Y-146933432D01*
X126749817Y-146901678D01*
X126745960Y-146862519D01*
X126745960Y-146182521D01*
X126749817Y-146143362D01*
X126759449Y-146111608D01*
X126775090Y-146082346D01*
X126796138Y-146056698D01*
X126821786Y-146035650D01*
X126851048Y-146020009D01*
X126893483Y-146007137D01*
X126916122Y-145997760D01*
X126936496Y-145984146D01*
X126953823Y-145966819D01*
X126967437Y-145946445D01*
X126976814Y-145923806D01*
X126981595Y-145899773D01*
X126981595Y-145875268D01*
X126976815Y-145851235D01*
X126967438Y-145828596D01*
X126953824Y-145808222D01*
X126936497Y-145790895D01*
X126916123Y-145777281D01*
X126893483Y-145767903D01*
X126851048Y-145755031D01*
X126821786Y-145739390D01*
X126796138Y-145718342D01*
X126775090Y-145692694D01*
X126759449Y-145663432D01*
X126749817Y-145631678D01*
X126745960Y-145592519D01*
X126745960Y-144912521D01*
X126749817Y-144873362D01*
X126759449Y-144841608D01*
X126775090Y-144812346D01*
X126796138Y-144786698D01*
X126821786Y-144765650D01*
X126851048Y-144750009D01*
X126893483Y-144737137D01*
X126916122Y-144727760D01*
X126936496Y-144714146D01*
X126953823Y-144696819D01*
X126967437Y-144676445D01*
X126976814Y-144653806D01*
X126981595Y-144629773D01*
X126981595Y-144605268D01*
X126976815Y-144581235D01*
X126967438Y-144558596D01*
X126953824Y-144538222D01*
X126936497Y-144520895D01*
X126916123Y-144507281D01*
X126893483Y-144497903D01*
X126851048Y-144485031D01*
X126821786Y-144469390D01*
X126796138Y-144448342D01*
X126775090Y-144422694D01*
X126759449Y-144393432D01*
X126749817Y-144361678D01*
X126745960Y-144322519D01*
X126745960Y-143642521D01*
X126749817Y-143603362D01*
X126759449Y-143571608D01*
X126775090Y-143542346D01*
X126796138Y-143516698D01*
X126821786Y-143495650D01*
X126851048Y-143480009D01*
X126893483Y-143467137D01*
X126916122Y-143457760D01*
X126936496Y-143444146D01*
X126953823Y-143426819D01*
X126967437Y-143406445D01*
X126976814Y-143383806D01*
X126981595Y-143359773D01*
X126981595Y-143335268D01*
X126976815Y-143311235D01*
X126967438Y-143288596D01*
X126953824Y-143268222D01*
X126936497Y-143250895D01*
X126916123Y-143237281D01*
X126893483Y-143227903D01*
X126851048Y-143215031D01*
X126821786Y-143199390D01*
X126796138Y-143178342D01*
X126775090Y-143152694D01*
X126759449Y-143123432D01*
X126749817Y-143091678D01*
X126745960Y-143052519D01*
X126745960Y-142372521D01*
X126749817Y-142333362D01*
X126759449Y-142301608D01*
X126775090Y-142272346D01*
X126796138Y-142246698D01*
X126821786Y-142225650D01*
X126851048Y-142210009D01*
X126882802Y-142200377D01*
X126921961Y-142196520D01*
X128121959Y-142196520D01*
X128161118Y-142200377D01*
G37*
G36*
X124727562Y-164159681D02*
G01*
X124762481Y-164170274D01*
X124794663Y-164187476D01*
X124822873Y-164210627D01*
X124846024Y-164238837D01*
X124863226Y-164271019D01*
X124873819Y-164305938D01*
X124878000Y-164348395D01*
X124878000Y-165489605D01*
X124873819Y-165532062D01*
X124863226Y-165566981D01*
X124846024Y-165599163D01*
X124822873Y-165627373D01*
X124794663Y-165650524D01*
X124762481Y-165667726D01*
X124727562Y-165678319D01*
X124685105Y-165682500D01*
X123218895Y-165682500D01*
X123176438Y-165678319D01*
X123141519Y-165667726D01*
X123109337Y-165650524D01*
X123081127Y-165627373D01*
X123057976Y-165599163D01*
X123040774Y-165566981D01*
X123030181Y-165532062D01*
X123026000Y-165489605D01*
X123026000Y-164348395D01*
X123030181Y-164305938D01*
X123040774Y-164271019D01*
X123057976Y-164238837D01*
X123081127Y-164210627D01*
X123109337Y-164187476D01*
X123141519Y-164170274D01*
X123176438Y-164159681D01*
X123218895Y-164155500D01*
X124685105Y-164155500D01*
X124727562Y-164159681D01*
G37*
G36*
X119647562Y-164123181D02*
G01*
X119682481Y-164133774D01*
X119714663Y-164150976D01*
X119742873Y-164174127D01*
X119766024Y-164202337D01*
X119783226Y-164234519D01*
X119793819Y-164269438D01*
X119798000Y-164311895D01*
X119798000Y-165453105D01*
X119793819Y-165495562D01*
X119783226Y-165530481D01*
X119766024Y-165562663D01*
X119742873Y-165590873D01*
X119714663Y-165614024D01*
X119682481Y-165631226D01*
X119647562Y-165641819D01*
X119605105Y-165646000D01*
X118138895Y-165646000D01*
X118096438Y-165641819D01*
X118061519Y-165631226D01*
X118029337Y-165614024D01*
X118001127Y-165590873D01*
X117977976Y-165562663D01*
X117960774Y-165530481D01*
X117950181Y-165495562D01*
X117946000Y-165453105D01*
X117946000Y-164311895D01*
X117950181Y-164269438D01*
X117960774Y-164234519D01*
X117977976Y-164202337D01*
X118001127Y-164174127D01*
X118029337Y-164150976D01*
X118061519Y-164133774D01*
X118096438Y-164123181D01*
X118138895Y-164119000D01*
X119605105Y-164119000D01*
X119647562Y-164123181D01*
G37*
G36*
X114567562Y-164086681D02*
G01*
X114602481Y-164097274D01*
X114634663Y-164114476D01*
X114662873Y-164137627D01*
X114686024Y-164165837D01*
X114703226Y-164198019D01*
X114713819Y-164232938D01*
X114718000Y-164275395D01*
X114718000Y-165416605D01*
X114713819Y-165459062D01*
X114703226Y-165493981D01*
X114686024Y-165526163D01*
X114662873Y-165554373D01*
X114634663Y-165577524D01*
X114602481Y-165594726D01*
X114567562Y-165605319D01*
X114525105Y-165609500D01*
X113058895Y-165609500D01*
X113016438Y-165605319D01*
X112981519Y-165594726D01*
X112949337Y-165577524D01*
X112921127Y-165554373D01*
X112897976Y-165526163D01*
X112880774Y-165493981D01*
X112870181Y-165459062D01*
X112866000Y-165416605D01*
X112866000Y-164275395D01*
X112870181Y-164232938D01*
X112880774Y-164198019D01*
X112897976Y-164165837D01*
X112921127Y-164137627D01*
X112949337Y-164114476D01*
X112981519Y-164097274D01*
X113016438Y-164086681D01*
X113058895Y-164082500D01*
X114525105Y-164082500D01*
X114567562Y-164086681D01*
G37*
G36*
X150603443Y-163537519D02*
G01*
X150669627Y-163544037D01*
X150839466Y-163595557D01*
X150995991Y-163679222D01*
X150996662Y-163679773D01*
X151133186Y-163791814D01*
X151216448Y-163893271D01*
X151245778Y-163929009D01*
X151329443Y-164085534D01*
X151380963Y-164255373D01*
X151398359Y-164432000D01*
X151380963Y-164608627D01*
X151329443Y-164778466D01*
X151245778Y-164934991D01*
X151216448Y-164970729D01*
X151133186Y-165072186D01*
X151031729Y-165155448D01*
X150995991Y-165184778D01*
X150839466Y-165268443D01*
X150669627Y-165319963D01*
X150603443Y-165326481D01*
X150537260Y-165333000D01*
X150198740Y-165333000D01*
X150132557Y-165326481D01*
X150066373Y-165319963D01*
X149896534Y-165268443D01*
X149740009Y-165184778D01*
X149704271Y-165155448D01*
X149602814Y-165072186D01*
X149519552Y-164970729D01*
X149490222Y-164934991D01*
X149406557Y-164778466D01*
X149355037Y-164608627D01*
X149337641Y-164432000D01*
X149355037Y-164255373D01*
X149406557Y-164085534D01*
X149490222Y-163929009D01*
X149519552Y-163893271D01*
X149602814Y-163791814D01*
X149739338Y-163679773D01*
X149740009Y-163679222D01*
X149896534Y-163595557D01*
X150066373Y-163544037D01*
X150132557Y-163537519D01*
X150198740Y-163531000D01*
X150537260Y-163531000D01*
X150603443Y-163537519D01*
G37*
G36*
X114625562Y-161328181D02*
G01*
X114660481Y-161338774D01*
X114692663Y-161355976D01*
X114720873Y-161379127D01*
X114744024Y-161407337D01*
X114761226Y-161439519D01*
X114771819Y-161474438D01*
X114776000Y-161516895D01*
X114776000Y-162658105D01*
X114771819Y-162700562D01*
X114761226Y-162735481D01*
X114744024Y-162767663D01*
X114720873Y-162795873D01*
X114692663Y-162819024D01*
X114660481Y-162836226D01*
X114625562Y-162846819D01*
X114583105Y-162851000D01*
X113116895Y-162851000D01*
X113074438Y-162846819D01*
X113039519Y-162836226D01*
X113007337Y-162819024D01*
X112979127Y-162795873D01*
X112955976Y-162767663D01*
X112938774Y-162735481D01*
X112928181Y-162700562D01*
X112924000Y-162658105D01*
X112924000Y-161516895D01*
X112928181Y-161474438D01*
X112938774Y-161439519D01*
X112955976Y-161407337D01*
X112979127Y-161379127D01*
X113007337Y-161355976D01*
X113039519Y-161338774D01*
X113074438Y-161328181D01*
X113116895Y-161324000D01*
X114583105Y-161324000D01*
X114625562Y-161328181D01*
G37*
G36*
X124750422Y-161315681D02*
G01*
X124785341Y-161326274D01*
X124817523Y-161343476D01*
X124845733Y-161366627D01*
X124868884Y-161394837D01*
X124886086Y-161427019D01*
X124896679Y-161461938D01*
X124900860Y-161504395D01*
X124900860Y-162645605D01*
X124896679Y-162688062D01*
X124886086Y-162722981D01*
X124868884Y-162755163D01*
X124845733Y-162783373D01*
X124817523Y-162806524D01*
X124785341Y-162823726D01*
X124750422Y-162834319D01*
X124707965Y-162838500D01*
X123241755Y-162838500D01*
X123199298Y-162834319D01*
X123164379Y-162823726D01*
X123132197Y-162806524D01*
X123103987Y-162783373D01*
X123080836Y-162755163D01*
X123063634Y-162722981D01*
X123053041Y-162688062D01*
X123048860Y-162645605D01*
X123048860Y-161504395D01*
X123053041Y-161461938D01*
X123063634Y-161427019D01*
X123080836Y-161394837D01*
X123103987Y-161366627D01*
X123132197Y-161343476D01*
X123164379Y-161326274D01*
X123199298Y-161315681D01*
X123241755Y-161311500D01*
X124707965Y-161311500D01*
X124750422Y-161315681D01*
G37*
G36*
X150603443Y-161037519D02*
G01*
X150669627Y-161044037D01*
X150839466Y-161095557D01*
X150995991Y-161179222D01*
X151004792Y-161186445D01*
X151133186Y-161291814D01*
X151196651Y-161369148D01*
X151245778Y-161429009D01*
X151329443Y-161585534D01*
X151380963Y-161755373D01*
X151398359Y-161932000D01*
X151380963Y-162108627D01*
X151329443Y-162278466D01*
X151245778Y-162434991D01*
X151228172Y-162456444D01*
X151133186Y-162572186D01*
X151056196Y-162635369D01*
X150995991Y-162684778D01*
X150839466Y-162768443D01*
X150669627Y-162819963D01*
X150603443Y-162826481D01*
X150537260Y-162833000D01*
X150198740Y-162833000D01*
X150132557Y-162826481D01*
X150066373Y-162819963D01*
X149896534Y-162768443D01*
X149740009Y-162684778D01*
X149679804Y-162635369D01*
X149602814Y-162572186D01*
X149507828Y-162456444D01*
X149490222Y-162434991D01*
X149406557Y-162278466D01*
X149355037Y-162108627D01*
X149337641Y-161932000D01*
X149355037Y-161755373D01*
X149406557Y-161585534D01*
X149490222Y-161429009D01*
X149539349Y-161369148D01*
X149602814Y-161291814D01*
X149731208Y-161186445D01*
X149740009Y-161179222D01*
X149896534Y-161095557D01*
X150066373Y-161044037D01*
X150132557Y-161037519D01*
X150198740Y-161031000D01*
X150537260Y-161031000D01*
X150603443Y-161037519D01*
G37*
G36*
X119575562Y-161240681D02*
G01*
X119610481Y-161251274D01*
X119642663Y-161268476D01*
X119670873Y-161291627D01*
X119694024Y-161319837D01*
X119711226Y-161352019D01*
X119721818Y-161386937D01*
X119726000Y-161429395D01*
X119726000Y-162570605D01*
X119721819Y-162613062D01*
X119711226Y-162647981D01*
X119694024Y-162680163D01*
X119670873Y-162708373D01*
X119642663Y-162731524D01*
X119610481Y-162748726D01*
X119575562Y-162759319D01*
X119533105Y-162763500D01*
X118066895Y-162763500D01*
X118024438Y-162759319D01*
X117989519Y-162748726D01*
X117957337Y-162731524D01*
X117929127Y-162708373D01*
X117905976Y-162680163D01*
X117888774Y-162647981D01*
X117878181Y-162613062D01*
X117874000Y-162570605D01*
X117874000Y-161429395D01*
X117878182Y-161386937D01*
X117888774Y-161352019D01*
X117905976Y-161319837D01*
X117929127Y-161291627D01*
X117957337Y-161268476D01*
X117989519Y-161251274D01*
X118024438Y-161240681D01*
X118066895Y-161236500D01*
X119533105Y-161236500D01*
X119575562Y-161240681D01*
G37*
G36*
X88513600Y-160900989D02*
G01*
X88546652Y-160911015D01*
X88577103Y-160927292D01*
X88603799Y-160949201D01*
X88625708Y-160975897D01*
X88641985Y-161006348D01*
X88652011Y-161039400D01*
X88656000Y-161079903D01*
X88656000Y-162516097D01*
X88652011Y-162556600D01*
X88641985Y-162589652D01*
X88625708Y-162620103D01*
X88603799Y-162646799D01*
X88577103Y-162668708D01*
X88546652Y-162684985D01*
X88513600Y-162695011D01*
X88473097Y-162699000D01*
X86786903Y-162699000D01*
X86746400Y-162695011D01*
X86713348Y-162684985D01*
X86682897Y-162668708D01*
X86656201Y-162646799D01*
X86634292Y-162620103D01*
X86618015Y-162589652D01*
X86607989Y-162556600D01*
X86604000Y-162516097D01*
X86604000Y-161079903D01*
X86607989Y-161039400D01*
X86618015Y-161006348D01*
X86634292Y-160975897D01*
X86656201Y-160949201D01*
X86682897Y-160927292D01*
X86713348Y-160911015D01*
X86746400Y-160900989D01*
X86786903Y-160897000D01*
X88473097Y-160897000D01*
X88513600Y-160900989D01*
G37*
G36*
X95421487Y-158432996D02*
G01*
X95658253Y-158531068D01*
X95658255Y-158531069D01*
X95847944Y-158657815D01*
X95871339Y-158673447D01*
X96052553Y-158854661D01*
X96194932Y-159067747D01*
X96293004Y-159304513D01*
X96343000Y-159555861D01*
X96343000Y-159812139D01*
X96293004Y-160063487D01*
X96208108Y-160268443D01*
X96194931Y-160300255D01*
X96052553Y-160513339D01*
X95871339Y-160694553D01*
X95658255Y-160836931D01*
X95658254Y-160836932D01*
X95658253Y-160836932D01*
X95421487Y-160935004D01*
X95170139Y-160985000D01*
X94913861Y-160985000D01*
X94662513Y-160935004D01*
X94425747Y-160836932D01*
X94425746Y-160836932D01*
X94425745Y-160836931D01*
X94212661Y-160694553D01*
X94031447Y-160513339D01*
X93889069Y-160300255D01*
X93875892Y-160268443D01*
X93790996Y-160063487D01*
X93741000Y-159812139D01*
X93741000Y-159555861D01*
X93790996Y-159304513D01*
X93889068Y-159067747D01*
X94031447Y-158854661D01*
X94212661Y-158673447D01*
X94236056Y-158657815D01*
X94425745Y-158531069D01*
X94425747Y-158531068D01*
X94662513Y-158432996D01*
X94913861Y-158383000D01*
X95170139Y-158383000D01*
X95421487Y-158432996D01*
G37*
G36*
X107421487Y-158432996D02*
G01*
X107658253Y-158531068D01*
X107658255Y-158531069D01*
X107847944Y-158657815D01*
X107871339Y-158673447D01*
X108052553Y-158854661D01*
X108194932Y-159067747D01*
X108293004Y-159304513D01*
X108343000Y-159555861D01*
X108343000Y-159812139D01*
X108293004Y-160063487D01*
X108208108Y-160268443D01*
X108194931Y-160300255D01*
X108052553Y-160513339D01*
X107871339Y-160694553D01*
X107658255Y-160836931D01*
X107658254Y-160836932D01*
X107658253Y-160836932D01*
X107421487Y-160935004D01*
X107170139Y-160985000D01*
X106913861Y-160985000D01*
X106662513Y-160935004D01*
X106425747Y-160836932D01*
X106425746Y-160836932D01*
X106425745Y-160836931D01*
X106212661Y-160694553D01*
X106031447Y-160513339D01*
X105889069Y-160300255D01*
X105875892Y-160268443D01*
X105790996Y-160063487D01*
X105741000Y-159812139D01*
X105741000Y-159555861D01*
X105790996Y-159304513D01*
X105889068Y-159067747D01*
X106031447Y-158854661D01*
X106212661Y-158673447D01*
X106236056Y-158657815D01*
X106425745Y-158531069D01*
X106425747Y-158531068D01*
X106662513Y-158432996D01*
X106913861Y-158383000D01*
X107170139Y-158383000D01*
X107421487Y-158432996D01*
G37*
G36*
X150603443Y-158537519D02*
G01*
X150669627Y-158544037D01*
X150839466Y-158595557D01*
X150995991Y-158679222D01*
X151018578Y-158697759D01*
X151133186Y-158791814D01*
X151184762Y-158854661D01*
X151245778Y-158929009D01*
X151329443Y-159085534D01*
X151380963Y-159255373D01*
X151398359Y-159432000D01*
X151380963Y-159608627D01*
X151329517Y-159778221D01*
X151329442Y-159778468D01*
X151319250Y-159797535D01*
X151245778Y-159934991D01*
X151218886Y-159967759D01*
X151133186Y-160072186D01*
X151035296Y-160152521D01*
X150995991Y-160184778D01*
X150839466Y-160268443D01*
X150669627Y-160319963D01*
X150603443Y-160326481D01*
X150537260Y-160333000D01*
X150198740Y-160333000D01*
X150132557Y-160326481D01*
X150066373Y-160319963D01*
X149896534Y-160268443D01*
X149740009Y-160184778D01*
X149700704Y-160152521D01*
X149602814Y-160072186D01*
X149517114Y-159967759D01*
X149490222Y-159934991D01*
X149416750Y-159797535D01*
X149406558Y-159778468D01*
X149406483Y-159778221D01*
X149355037Y-159608627D01*
X149337641Y-159432000D01*
X149355037Y-159255373D01*
X149406557Y-159085534D01*
X149490222Y-158929009D01*
X149551238Y-158854661D01*
X149602814Y-158791814D01*
X149717422Y-158697759D01*
X149740009Y-158679222D01*
X149896534Y-158595557D01*
X150066373Y-158544037D01*
X150132557Y-158537519D01*
X150198740Y-158531000D01*
X150537260Y-158531000D01*
X150603443Y-158537519D01*
G37*
G36*
X87865443Y-158403519D02*
G01*
X87931627Y-158410037D01*
X88101466Y-158461557D01*
X88101468Y-158461558D01*
X88130883Y-158477281D01*
X88257991Y-158545222D01*
X88281641Y-158564631D01*
X88395186Y-158657814D01*
X88476337Y-158756698D01*
X88507778Y-158795009D01*
X88507779Y-158795011D01*
X88554555Y-158882521D01*
X88591443Y-158951534D01*
X88642963Y-159121373D01*
X88660359Y-159298000D01*
X88642963Y-159474627D01*
X88591443Y-159644466D01*
X88507778Y-159800991D01*
X88482720Y-159831524D01*
X88395186Y-159938186D01*
X88299732Y-160016522D01*
X88257991Y-160050778D01*
X88234214Y-160063487D01*
X88140906Y-160113362D01*
X88101466Y-160134443D01*
X87931627Y-160185963D01*
X87865442Y-160192482D01*
X87799260Y-160199000D01*
X87460740Y-160199000D01*
X87394558Y-160192482D01*
X87328373Y-160185963D01*
X87158534Y-160134443D01*
X87119095Y-160113362D01*
X87025786Y-160063487D01*
X87002009Y-160050778D01*
X86960268Y-160016522D01*
X86864814Y-159938186D01*
X86777280Y-159831524D01*
X86752222Y-159800991D01*
X86668557Y-159644466D01*
X86617037Y-159474627D01*
X86599641Y-159298000D01*
X86617037Y-159121373D01*
X86668557Y-158951534D01*
X86705446Y-158882521D01*
X86752221Y-158795011D01*
X86752222Y-158795009D01*
X86783663Y-158756698D01*
X86864814Y-158657814D01*
X86978359Y-158564631D01*
X87002009Y-158545222D01*
X87129117Y-158477281D01*
X87158532Y-158461558D01*
X87158534Y-158461557D01*
X87328373Y-158410037D01*
X87394557Y-158403519D01*
X87460740Y-158397000D01*
X87799260Y-158397000D01*
X87865443Y-158403519D01*
G37*
G36*
X114625562Y-158353181D02*
G01*
X114660481Y-158363774D01*
X114692663Y-158380976D01*
X114720873Y-158404127D01*
X114744024Y-158432337D01*
X114761226Y-158464519D01*
X114771819Y-158499438D01*
X114776000Y-158541895D01*
X114776000Y-159683105D01*
X114771819Y-159725562D01*
X114761226Y-159760481D01*
X114744024Y-159792663D01*
X114720873Y-159820873D01*
X114692663Y-159844024D01*
X114660481Y-159861226D01*
X114625562Y-159871819D01*
X114583105Y-159876000D01*
X113116895Y-159876000D01*
X113074438Y-159871819D01*
X113039519Y-159861226D01*
X113007337Y-159844024D01*
X112979127Y-159820873D01*
X112955976Y-159792663D01*
X112938774Y-159760481D01*
X112928181Y-159725562D01*
X112924000Y-159683105D01*
X112924000Y-158541895D01*
X112928181Y-158499438D01*
X112938774Y-158464519D01*
X112955976Y-158432337D01*
X112979127Y-158404127D01*
X113007337Y-158380976D01*
X113039519Y-158363774D01*
X113074438Y-158353181D01*
X113116895Y-158349000D01*
X114583105Y-158349000D01*
X114625562Y-158353181D01*
G37*
G36*
X124750422Y-158340681D02*
G01*
X124785341Y-158351274D01*
X124817523Y-158368476D01*
X124845733Y-158391627D01*
X124868884Y-158419837D01*
X124886086Y-158452019D01*
X124896679Y-158486938D01*
X124900860Y-158529395D01*
X124900860Y-159670605D01*
X124896679Y-159713062D01*
X124886086Y-159747981D01*
X124868884Y-159780163D01*
X124845733Y-159808373D01*
X124817523Y-159831524D01*
X124785341Y-159848726D01*
X124750422Y-159859319D01*
X124707965Y-159863500D01*
X123241755Y-159863500D01*
X123199298Y-159859319D01*
X123164379Y-159848726D01*
X123132197Y-159831524D01*
X123103987Y-159808373D01*
X123080836Y-159780163D01*
X123063634Y-159747981D01*
X123053041Y-159713062D01*
X123048860Y-159670605D01*
X123048860Y-158529395D01*
X123053041Y-158486938D01*
X123063634Y-158452019D01*
X123080836Y-158419837D01*
X123103987Y-158391627D01*
X123132197Y-158368476D01*
X123164379Y-158351274D01*
X123199298Y-158340681D01*
X123241755Y-158336500D01*
X124707965Y-158336500D01*
X124750422Y-158340681D01*
G37*
G36*
X119575562Y-158265681D02*
G01*
X119610481Y-158276274D01*
X119642663Y-158293476D01*
X119670873Y-158316627D01*
X119694024Y-158344837D01*
X119711226Y-158377019D01*
X119721818Y-158411937D01*
X119726000Y-158454395D01*
X119726000Y-159595605D01*
X119721819Y-159638062D01*
X119711226Y-159672981D01*
X119694024Y-159705163D01*
X119670873Y-159733373D01*
X119642663Y-159756524D01*
X119610481Y-159773726D01*
X119575562Y-159784319D01*
X119533105Y-159788500D01*
X118066895Y-159788500D01*
X118024438Y-159784319D01*
X117989519Y-159773726D01*
X117957337Y-159756524D01*
X117929127Y-159733373D01*
X117905976Y-159705163D01*
X117888774Y-159672981D01*
X117878181Y-159638062D01*
X117874000Y-159595605D01*
X117874000Y-158454395D01*
X117878182Y-158411937D01*
X117888774Y-158377019D01*
X117905976Y-158344837D01*
X117929127Y-158316627D01*
X117957337Y-158293476D01*
X117989519Y-158276274D01*
X118024438Y-158265681D01*
X118066895Y-158261500D01*
X119533105Y-158261500D01*
X119575562Y-158265681D01*
G37*
G36*
X101352320Y-156204395D02*
G01*
X101544410Y-156242604D01*
X101826674Y-156359521D01*
X102080705Y-156529259D01*
X102296741Y-156745295D01*
X102466479Y-156999326D01*
X102583396Y-157281590D01*
X102601151Y-157370852D01*
X102624195Y-157486698D01*
X102643000Y-157581240D01*
X102643000Y-157886760D01*
X102583396Y-158186410D01*
X102466479Y-158468674D01*
X102296741Y-158722705D01*
X102080705Y-158938741D01*
X101826674Y-159108479D01*
X101544410Y-159225396D01*
X101394585Y-159255198D01*
X101244761Y-159285000D01*
X100939239Y-159285000D01*
X100789415Y-159255198D01*
X100639590Y-159225396D01*
X100357326Y-159108479D01*
X100103295Y-158938741D01*
X99887259Y-158722705D01*
X99717521Y-158468674D01*
X99600604Y-158186410D01*
X99541000Y-157886760D01*
X99541000Y-157581240D01*
X99559806Y-157486698D01*
X99582849Y-157370852D01*
X99600604Y-157281590D01*
X99717521Y-156999326D01*
X99887259Y-156745295D01*
X100103295Y-156529259D01*
X100357326Y-156359521D01*
X100639590Y-156242604D01*
X100831680Y-156204395D01*
X100939239Y-156183000D01*
X101244761Y-156183000D01*
X101352320Y-156204395D01*
G37*
G36*
X150603443Y-156037519D02*
G01*
X150669627Y-156044037D01*
X150839466Y-156095557D01*
X150995991Y-156179222D01*
X151000594Y-156183000D01*
X151133186Y-156291814D01*
X151216448Y-156393271D01*
X151245778Y-156429009D01*
X151329443Y-156585534D01*
X151380963Y-156755373D01*
X151398359Y-156932000D01*
X151380963Y-157108627D01*
X151329443Y-157278466D01*
X151329442Y-157278468D01*
X151315117Y-157305268D01*
X151245778Y-157434991D01*
X151234506Y-157448726D01*
X151133186Y-157572186D01*
X151031729Y-157655448D01*
X150995991Y-157684778D01*
X150839466Y-157768443D01*
X150669627Y-157819963D01*
X150603442Y-157826482D01*
X150537260Y-157833000D01*
X150198740Y-157833000D01*
X150132558Y-157826482D01*
X150066373Y-157819963D01*
X149896534Y-157768443D01*
X149740009Y-157684778D01*
X149704271Y-157655448D01*
X149602814Y-157572186D01*
X149501494Y-157448726D01*
X149490222Y-157434991D01*
X149420883Y-157305268D01*
X149406558Y-157278468D01*
X149406557Y-157278466D01*
X149355037Y-157108627D01*
X149337641Y-156932000D01*
X149355037Y-156755373D01*
X149406557Y-156585534D01*
X149490222Y-156429009D01*
X149519552Y-156393271D01*
X149602814Y-156291814D01*
X149735406Y-156183000D01*
X149740009Y-156179222D01*
X149896534Y-156095557D01*
X150066373Y-156044037D01*
X150132557Y-156037519D01*
X150198740Y-156031000D01*
X150537260Y-156031000D01*
X150603443Y-156037519D01*
G37*
G36*
X87865442Y-155903518D02*
G01*
X87931627Y-155910037D01*
X88101466Y-155961557D01*
X88101468Y-155961558D01*
X88139053Y-155981648D01*
X88257991Y-156045222D01*
X88266273Y-156052019D01*
X88395186Y-156157814D01*
X88464770Y-156242604D01*
X88507778Y-156295009D01*
X88591443Y-156451534D01*
X88642963Y-156621373D01*
X88660359Y-156798000D01*
X88642963Y-156974627D01*
X88591443Y-157144466D01*
X88507778Y-157300991D01*
X88478448Y-157336729D01*
X88395186Y-157438186D01*
X88312503Y-157506041D01*
X88257991Y-157550778D01*
X88101466Y-157634443D01*
X87931627Y-157685963D01*
X87865442Y-157692482D01*
X87799260Y-157699000D01*
X87460740Y-157699000D01*
X87394558Y-157692482D01*
X87328373Y-157685963D01*
X87158534Y-157634443D01*
X87002009Y-157550778D01*
X86947497Y-157506041D01*
X86864814Y-157438186D01*
X86781552Y-157336729D01*
X86752222Y-157300991D01*
X86668557Y-157144466D01*
X86617037Y-156974627D01*
X86599641Y-156798000D01*
X86617037Y-156621373D01*
X86668557Y-156451534D01*
X86752222Y-156295009D01*
X86795230Y-156242604D01*
X86864814Y-156157814D01*
X86993727Y-156052019D01*
X87002009Y-156045222D01*
X87120947Y-155981648D01*
X87158532Y-155961558D01*
X87158534Y-155961557D01*
X87328373Y-155910037D01*
X87394558Y-155903518D01*
X87460740Y-155897000D01*
X87799260Y-155897000D01*
X87865442Y-155903518D01*
G37*
G36*
X114475562Y-155940681D02*
G01*
X114510481Y-155951274D01*
X114542663Y-155968476D01*
X114570873Y-155991627D01*
X114594024Y-156019837D01*
X114611226Y-156052019D01*
X114621819Y-156086938D01*
X114626000Y-156129395D01*
X114626000Y-157270605D01*
X114621819Y-157313062D01*
X114611226Y-157347981D01*
X114594024Y-157380163D01*
X114570873Y-157408373D01*
X114542663Y-157431524D01*
X114510481Y-157448726D01*
X114475562Y-157459319D01*
X114433105Y-157463500D01*
X112966895Y-157463500D01*
X112924438Y-157459319D01*
X112889519Y-157448726D01*
X112857337Y-157431524D01*
X112829127Y-157408373D01*
X112805976Y-157380163D01*
X112788774Y-157347981D01*
X112778181Y-157313062D01*
X112774000Y-157270605D01*
X112774000Y-156129395D01*
X112778181Y-156086938D01*
X112788774Y-156052019D01*
X112805976Y-156019837D01*
X112829127Y-155991627D01*
X112857337Y-155968476D01*
X112889519Y-155951274D01*
X112924438Y-155940681D01*
X112966895Y-155936500D01*
X114433105Y-155936500D01*
X114475562Y-155940681D01*
G37*
G36*
X124725562Y-155853181D02*
G01*
X124760481Y-155863774D01*
X124792663Y-155880976D01*
X124820873Y-155904127D01*
X124844024Y-155932337D01*
X124861226Y-155964519D01*
X124871818Y-155999437D01*
X124876000Y-156041895D01*
X124876000Y-157183105D01*
X124871819Y-157225562D01*
X124861226Y-157260481D01*
X124844024Y-157292663D01*
X124820873Y-157320873D01*
X124792663Y-157344024D01*
X124760481Y-157361226D01*
X124725562Y-157371819D01*
X124683105Y-157376000D01*
X123216895Y-157376000D01*
X123174438Y-157371819D01*
X123139519Y-157361226D01*
X123107337Y-157344024D01*
X123079127Y-157320873D01*
X123055976Y-157292663D01*
X123038774Y-157260481D01*
X123028181Y-157225562D01*
X123024000Y-157183105D01*
X123024000Y-156041895D01*
X123028182Y-155999437D01*
X123038774Y-155964519D01*
X123055976Y-155932337D01*
X123079127Y-155904127D01*
X123107337Y-155880976D01*
X123139519Y-155863774D01*
X123174438Y-155853181D01*
X123216895Y-155849000D01*
X124683105Y-155849000D01*
X124725562Y-155853181D01*
G37*
G36*
X119647562Y-155704681D02*
G01*
X119682481Y-155715274D01*
X119714663Y-155732476D01*
X119742873Y-155755627D01*
X119766024Y-155783837D01*
X119783226Y-155816019D01*
X119793819Y-155850938D01*
X119798000Y-155893395D01*
X119798000Y-157034605D01*
X119793819Y-157077062D01*
X119783226Y-157111981D01*
X119766024Y-157144163D01*
X119742873Y-157172373D01*
X119714663Y-157195524D01*
X119682481Y-157212726D01*
X119647562Y-157223319D01*
X119605105Y-157227500D01*
X118138895Y-157227500D01*
X118096438Y-157223319D01*
X118061519Y-157212726D01*
X118029337Y-157195524D01*
X118001127Y-157172373D01*
X117977976Y-157144163D01*
X117960774Y-157111981D01*
X117950181Y-157077062D01*
X117946000Y-157034605D01*
X117946000Y-155893395D01*
X117950181Y-155850938D01*
X117960774Y-155816019D01*
X117977976Y-155783837D01*
X118001127Y-155755627D01*
X118029337Y-155732476D01*
X118061519Y-155715274D01*
X118096438Y-155704681D01*
X118138895Y-155700500D01*
X119605105Y-155700500D01*
X119647562Y-155704681D01*
G37*
G36*
X151251600Y-153534989D02*
G01*
X151284652Y-153545015D01*
X151315103Y-153561292D01*
X151341799Y-153583201D01*
X151363708Y-153609897D01*
X151379985Y-153640348D01*
X151390011Y-153673400D01*
X151394000Y-153713903D01*
X151394000Y-155150097D01*
X151390011Y-155190600D01*
X151379985Y-155223652D01*
X151363708Y-155254103D01*
X151341799Y-155280799D01*
X151315103Y-155302708D01*
X151284652Y-155318985D01*
X151251600Y-155329011D01*
X151211097Y-155333000D01*
X149524903Y-155333000D01*
X149484400Y-155329011D01*
X149451348Y-155318985D01*
X149420897Y-155302708D01*
X149394201Y-155280799D01*
X149372292Y-155254103D01*
X149356015Y-155223652D01*
X149345989Y-155190600D01*
X149342000Y-155150097D01*
X149342000Y-153713903D01*
X149345989Y-153673400D01*
X149356015Y-153640348D01*
X149372292Y-153609897D01*
X149394201Y-153583201D01*
X149420897Y-153561292D01*
X149451348Y-153545015D01*
X149484400Y-153534989D01*
X149524903Y-153531000D01*
X151211097Y-153531000D01*
X151251600Y-153534989D01*
G37*
G36*
X87865442Y-153403518D02*
G01*
X87931627Y-153410037D01*
X88101466Y-153461557D01*
X88101468Y-153461558D01*
X88164534Y-153495268D01*
X88257991Y-153545222D01*
X88277572Y-153561292D01*
X88395186Y-153657814D01*
X88441216Y-153713903D01*
X88507778Y-153795009D01*
X88591443Y-153951534D01*
X88642963Y-154121373D01*
X88660359Y-154298000D01*
X88642963Y-154474627D01*
X88591443Y-154644466D01*
X88507778Y-154800991D01*
X88497261Y-154813806D01*
X88395186Y-154938186D01*
X88317415Y-155002010D01*
X88257991Y-155050778D01*
X88101466Y-155134443D01*
X87931627Y-155185963D01*
X87865442Y-155192482D01*
X87799260Y-155199000D01*
X87460740Y-155199000D01*
X87394558Y-155192482D01*
X87328373Y-155185963D01*
X87158534Y-155134443D01*
X87002009Y-155050778D01*
X86942585Y-155002010D01*
X86864814Y-154938186D01*
X86762739Y-154813806D01*
X86752222Y-154800991D01*
X86668557Y-154644466D01*
X86617037Y-154474627D01*
X86599641Y-154298000D01*
X86617037Y-154121373D01*
X86668557Y-153951534D01*
X86752222Y-153795009D01*
X86818784Y-153713903D01*
X86864814Y-153657814D01*
X86982428Y-153561292D01*
X87002009Y-153545222D01*
X87095466Y-153495268D01*
X87158532Y-153461558D01*
X87158534Y-153461557D01*
X87328373Y-153410037D01*
X87394558Y-153403518D01*
X87460740Y-153397000D01*
X87799260Y-153397000D01*
X87865442Y-153403518D01*
G37*
G36*
X95302564Y-152587389D02*
G01*
X95493833Y-152666615D01*
X95493835Y-152666616D01*
X95665973Y-152781635D01*
X95812365Y-152928027D01*
X95905154Y-153066895D01*
X95927385Y-153100167D01*
X96006611Y-153291436D01*
X96047000Y-153494484D01*
X96047000Y-153701516D01*
X96006611Y-153904564D01*
X95942391Y-154059605D01*
X95927384Y-154095835D01*
X95812365Y-154267973D01*
X95665973Y-154414365D01*
X95493835Y-154529384D01*
X95493834Y-154529385D01*
X95493833Y-154529385D01*
X95302564Y-154608611D01*
X95099516Y-154649000D01*
X94892484Y-154649000D01*
X94689436Y-154608611D01*
X94498167Y-154529385D01*
X94498166Y-154529385D01*
X94498165Y-154529384D01*
X94326027Y-154414365D01*
X94179635Y-154267973D01*
X94064616Y-154095835D01*
X94049609Y-154059605D01*
X93985389Y-153904564D01*
X93945000Y-153701516D01*
X93945000Y-153494484D01*
X93985389Y-153291436D01*
X94064615Y-153100167D01*
X94086847Y-153066895D01*
X94179635Y-152928027D01*
X94326027Y-152781635D01*
X94498165Y-152666616D01*
X94498167Y-152666615D01*
X94689436Y-152587389D01*
X94892484Y-152547000D01*
X95099516Y-152547000D01*
X95302564Y-152587389D01*
G37*
G36*
X101802564Y-152587389D02*
G01*
X101993833Y-152666615D01*
X101993835Y-152666616D01*
X102165973Y-152781635D01*
X102312365Y-152928027D01*
X102405154Y-153066895D01*
X102427385Y-153100167D01*
X102506611Y-153291436D01*
X102547000Y-153494484D01*
X102547000Y-153701516D01*
X102506611Y-153904564D01*
X102442391Y-154059605D01*
X102427384Y-154095835D01*
X102312365Y-154267973D01*
X102165973Y-154414365D01*
X101993835Y-154529384D01*
X101993834Y-154529385D01*
X101993833Y-154529385D01*
X101802564Y-154608611D01*
X101599516Y-154649000D01*
X101392484Y-154649000D01*
X101189436Y-154608611D01*
X100998167Y-154529385D01*
X100998166Y-154529385D01*
X100998165Y-154529384D01*
X100826027Y-154414365D01*
X100679635Y-154267973D01*
X100564616Y-154095835D01*
X100549609Y-154059605D01*
X100485389Y-153904564D01*
X100445000Y-153701516D01*
X100445000Y-153494484D01*
X100485389Y-153291436D01*
X100564615Y-153100167D01*
X100586847Y-153066895D01*
X100679635Y-152928027D01*
X100826027Y-152781635D01*
X100998165Y-152666616D01*
X100998167Y-152666615D01*
X101189436Y-152587389D01*
X101392484Y-152547000D01*
X101599516Y-152547000D01*
X101802564Y-152587389D01*
G37*
G36*
X114475562Y-152965681D02*
G01*
X114510481Y-152976274D01*
X114542663Y-152993476D01*
X114570873Y-153016627D01*
X114594024Y-153044837D01*
X114611226Y-153077019D01*
X114621819Y-153111938D01*
X114626000Y-153154395D01*
X114626000Y-154295605D01*
X114621819Y-154338062D01*
X114611226Y-154372981D01*
X114594024Y-154405163D01*
X114570873Y-154433373D01*
X114542663Y-154456524D01*
X114510481Y-154473726D01*
X114475562Y-154484319D01*
X114433105Y-154488500D01*
X112966895Y-154488500D01*
X112924438Y-154484319D01*
X112889519Y-154473726D01*
X112857337Y-154456524D01*
X112829127Y-154433373D01*
X112805976Y-154405163D01*
X112788774Y-154372981D01*
X112778181Y-154338062D01*
X112774000Y-154295605D01*
X112774000Y-153154395D01*
X112778181Y-153111938D01*
X112788774Y-153077019D01*
X112805976Y-153044837D01*
X112829127Y-153016627D01*
X112857337Y-152993476D01*
X112889519Y-152976274D01*
X112924438Y-152965681D01*
X112966895Y-152961500D01*
X114433105Y-152961500D01*
X114475562Y-152965681D01*
G37*
G36*
X124725562Y-152878181D02*
G01*
X124760481Y-152888774D01*
X124792663Y-152905976D01*
X124820873Y-152929127D01*
X124844024Y-152957337D01*
X124861226Y-152989519D01*
X124871818Y-153024437D01*
X124876000Y-153066895D01*
X124876000Y-154208105D01*
X124871819Y-154250562D01*
X124861226Y-154285481D01*
X124844024Y-154317663D01*
X124820873Y-154345873D01*
X124792663Y-154369024D01*
X124760481Y-154386226D01*
X124725562Y-154396819D01*
X124683105Y-154401000D01*
X123216895Y-154401000D01*
X123174438Y-154396819D01*
X123139519Y-154386226D01*
X123107337Y-154369024D01*
X123079127Y-154345873D01*
X123055976Y-154317663D01*
X123038774Y-154285481D01*
X123028181Y-154250562D01*
X123024000Y-154208105D01*
X123024000Y-153066895D01*
X123028182Y-153024437D01*
X123038774Y-152989519D01*
X123055976Y-152957337D01*
X123079127Y-152929127D01*
X123107337Y-152905976D01*
X123139519Y-152888774D01*
X123174438Y-152878181D01*
X123216895Y-152874000D01*
X124683105Y-152874000D01*
X124725562Y-152878181D01*
G37*
G36*
X119647562Y-152729681D02*
G01*
X119682481Y-152740274D01*
X119714663Y-152757476D01*
X119742873Y-152780627D01*
X119766024Y-152808837D01*
X119783226Y-152841019D01*
X119793819Y-152875938D01*
X119798000Y-152918395D01*
X119798000Y-154059605D01*
X119793819Y-154102062D01*
X119783226Y-154136981D01*
X119766024Y-154169163D01*
X119742873Y-154197373D01*
X119714663Y-154220524D01*
X119682481Y-154237726D01*
X119647562Y-154248319D01*
X119605105Y-154252500D01*
X118138895Y-154252500D01*
X118096438Y-154248319D01*
X118061519Y-154237726D01*
X118029337Y-154220524D01*
X118001127Y-154197373D01*
X117977976Y-154169163D01*
X117960774Y-154136981D01*
X117950181Y-154102062D01*
X117946000Y-154059605D01*
X117946000Y-152918395D01*
X117950181Y-152875938D01*
X117960774Y-152841019D01*
X117977976Y-152808837D01*
X118001127Y-152780627D01*
X118029337Y-152757476D01*
X118061519Y-152740274D01*
X118096438Y-152729681D01*
X118138895Y-152725500D01*
X119605105Y-152725500D01*
X119647562Y-152729681D01*
G37*
G36*
X107298499Y-152562445D02*
G01*
X107335995Y-152573820D01*
X107370554Y-152592292D01*
X107400847Y-152617153D01*
X107425708Y-152647446D01*
X107444180Y-152682005D01*
X107455555Y-152719501D01*
X107460000Y-152764638D01*
X107460000Y-153503362D01*
X107455555Y-153548499D01*
X107444180Y-153585995D01*
X107425708Y-153620554D01*
X107400847Y-153650847D01*
X107370554Y-153675708D01*
X107335995Y-153694180D01*
X107298499Y-153705555D01*
X107253362Y-153710000D01*
X106614638Y-153710000D01*
X106569501Y-153705555D01*
X106532005Y-153694180D01*
X106497446Y-153675708D01*
X106467153Y-153650847D01*
X106442292Y-153620554D01*
X106423820Y-153585995D01*
X106412445Y-153548499D01*
X106408000Y-153503362D01*
X106408000Y-152764638D01*
X106412445Y-152719501D01*
X106423820Y-152682005D01*
X106442292Y-152647446D01*
X106467153Y-152617153D01*
X106497446Y-152592292D01*
X106532005Y-152573820D01*
X106569501Y-152562445D01*
X106614638Y-152558000D01*
X107253362Y-152558000D01*
X107298499Y-152562445D01*
G37*
G36*
X137002960Y-152553520D02*
G01*
X132900960Y-152553520D01*
X132900960Y-148451520D01*
X137002960Y-148451520D01*
X137002960Y-152553520D01*
G37*
G36*
X107298499Y-150812445D02*
G01*
X107335995Y-150823820D01*
X107370554Y-150842292D01*
X107400847Y-150867153D01*
X107425708Y-150897446D01*
X107444180Y-150932005D01*
X107455555Y-150969501D01*
X107460000Y-151014638D01*
X107460000Y-151753362D01*
X107455555Y-151798499D01*
X107444180Y-151835995D01*
X107425708Y-151870554D01*
X107400847Y-151900847D01*
X107370554Y-151925708D01*
X107335995Y-151944180D01*
X107298499Y-151955555D01*
X107253362Y-151960000D01*
X106614638Y-151960000D01*
X106569501Y-151955555D01*
X106532005Y-151944180D01*
X106497446Y-151925708D01*
X106467153Y-151900847D01*
X106442292Y-151870554D01*
X106423820Y-151835995D01*
X106412445Y-151798499D01*
X106408000Y-151753362D01*
X106408000Y-151014638D01*
X106412445Y-150969501D01*
X106423820Y-150932005D01*
X106442292Y-150897446D01*
X106467153Y-150867153D01*
X106497446Y-150842292D01*
X106532005Y-150823820D01*
X106569501Y-150812445D01*
X106614638Y-150808000D01*
X107253362Y-150808000D01*
X107298499Y-150812445D01*
G37*
G36*
X124638662Y-150396741D02*
G01*
X124673581Y-150407334D01*
X124705763Y-150424536D01*
X124733973Y-150447687D01*
X124757124Y-150475897D01*
X124774326Y-150508079D01*
X124784919Y-150542998D01*
X124789100Y-150585455D01*
X124789100Y-151726665D01*
X124784919Y-151769122D01*
X124774326Y-151804041D01*
X124757124Y-151836223D01*
X124733973Y-151864433D01*
X124705763Y-151887584D01*
X124673581Y-151904786D01*
X124638662Y-151915379D01*
X124596205Y-151919560D01*
X123129995Y-151919560D01*
X123087538Y-151915379D01*
X123052619Y-151904786D01*
X123020437Y-151887584D01*
X122992227Y-151864433D01*
X122969076Y-151836223D01*
X122951874Y-151804041D01*
X122941281Y-151769122D01*
X122937100Y-151726665D01*
X122937100Y-150585455D01*
X122941281Y-150542998D01*
X122951874Y-150508079D01*
X122969076Y-150475897D01*
X122992227Y-150447687D01*
X123020437Y-150424536D01*
X123052619Y-150407334D01*
X123087538Y-150396741D01*
X123129995Y-150392560D01*
X124596205Y-150392560D01*
X124638662Y-150396741D01*
G37*
G36*
X114475562Y-150365681D02*
G01*
X114510481Y-150376274D01*
X114542663Y-150393476D01*
X114570873Y-150416627D01*
X114594024Y-150444837D01*
X114611226Y-150477019D01*
X114621819Y-150511938D01*
X114626000Y-150554395D01*
X114626000Y-151695605D01*
X114621819Y-151738062D01*
X114611226Y-151772981D01*
X114594024Y-151805163D01*
X114570873Y-151833373D01*
X114542663Y-151856524D01*
X114510481Y-151873726D01*
X114475562Y-151884319D01*
X114433105Y-151888500D01*
X112966895Y-151888500D01*
X112924438Y-151884319D01*
X112889519Y-151873726D01*
X112857337Y-151856524D01*
X112829127Y-151833373D01*
X112805976Y-151805163D01*
X112788774Y-151772981D01*
X112778181Y-151738062D01*
X112774000Y-151695605D01*
X112774000Y-150554395D01*
X112778181Y-150511938D01*
X112788774Y-150477019D01*
X112805976Y-150444837D01*
X112829127Y-150416627D01*
X112857337Y-150393476D01*
X112889519Y-150376274D01*
X112924438Y-150365681D01*
X112966895Y-150361500D01*
X114433105Y-150361500D01*
X114475562Y-150365681D01*
G37*
G36*
X119647562Y-150297681D02*
G01*
X119682481Y-150308274D01*
X119714663Y-150325476D01*
X119742873Y-150348627D01*
X119766024Y-150376837D01*
X119783226Y-150409019D01*
X119793819Y-150443938D01*
X119798000Y-150486395D01*
X119798000Y-151627605D01*
X119793819Y-151670062D01*
X119783226Y-151704981D01*
X119766024Y-151737163D01*
X119742873Y-151765373D01*
X119714663Y-151788524D01*
X119682481Y-151805726D01*
X119647562Y-151816319D01*
X119605105Y-151820500D01*
X118138895Y-151820500D01*
X118096438Y-151816319D01*
X118061519Y-151805726D01*
X118029337Y-151788524D01*
X118001127Y-151765373D01*
X117977976Y-151737163D01*
X117960774Y-151704981D01*
X117950181Y-151670062D01*
X117946000Y-151627605D01*
X117946000Y-150486395D01*
X117950181Y-150443938D01*
X117960774Y-150409019D01*
X117977976Y-150376837D01*
X118001127Y-150348627D01*
X118029337Y-150325476D01*
X118061519Y-150308274D01*
X118096438Y-150297681D01*
X118138895Y-150293500D01*
X119605105Y-150293500D01*
X119647562Y-150297681D01*
G37*
G36*
X101802564Y-148087389D02*
G01*
X101993833Y-148166615D01*
X101993835Y-148166616D01*
X102165973Y-148281635D01*
X102312365Y-148428027D01*
X102411004Y-148575650D01*
X102427385Y-148600167D01*
X102506611Y-148791436D01*
X102547000Y-148994484D01*
X102547000Y-149201516D01*
X102506611Y-149404564D01*
X102436445Y-149573959D01*
X102427384Y-149595835D01*
X102312365Y-149767973D01*
X102165973Y-149914365D01*
X101993835Y-150029384D01*
X101993834Y-150029385D01*
X101993833Y-150029385D01*
X101802564Y-150108611D01*
X101599516Y-150149000D01*
X101392484Y-150149000D01*
X101189436Y-150108611D01*
X100998167Y-150029385D01*
X100998166Y-150029385D01*
X100998165Y-150029384D01*
X100826027Y-149914365D01*
X100679635Y-149767973D01*
X100564616Y-149595835D01*
X100555555Y-149573959D01*
X100485389Y-149404564D01*
X100445000Y-149201516D01*
X100445000Y-148994484D01*
X100485389Y-148791436D01*
X100564615Y-148600167D01*
X100580997Y-148575650D01*
X100679635Y-148428027D01*
X100826027Y-148281635D01*
X100998165Y-148166616D01*
X100998167Y-148166615D01*
X101189436Y-148087389D01*
X101392484Y-148047000D01*
X101599516Y-148047000D01*
X101802564Y-148087389D01*
G37*
G36*
X95302564Y-148087389D02*
G01*
X95493833Y-148166615D01*
X95493835Y-148166616D01*
X95665973Y-148281635D01*
X95812365Y-148428027D01*
X95911004Y-148575650D01*
X95927385Y-148600167D01*
X96006611Y-148791436D01*
X96047000Y-148994484D01*
X96047000Y-149201516D01*
X96006611Y-149404564D01*
X95936445Y-149573959D01*
X95927384Y-149595835D01*
X95812365Y-149767973D01*
X95665973Y-149914365D01*
X95493835Y-150029384D01*
X95493834Y-150029385D01*
X95493833Y-150029385D01*
X95302564Y-150108611D01*
X95099516Y-150149000D01*
X94892484Y-150149000D01*
X94689436Y-150108611D01*
X94498167Y-150029385D01*
X94498166Y-150029385D01*
X94498165Y-150029384D01*
X94326027Y-149914365D01*
X94179635Y-149767973D01*
X94064616Y-149595835D01*
X94055555Y-149573959D01*
X93985389Y-149404564D01*
X93945000Y-149201516D01*
X93945000Y-148994484D01*
X93985389Y-148791436D01*
X94064615Y-148600167D01*
X94080997Y-148575650D01*
X94179635Y-148428027D01*
X94326027Y-148281635D01*
X94498165Y-148166616D01*
X94498167Y-148166615D01*
X94689436Y-148087389D01*
X94892484Y-148047000D01*
X95099516Y-148047000D01*
X95302564Y-148087389D01*
G37*
G36*
X107298499Y-148752445D02*
G01*
X107335995Y-148763820D01*
X107370554Y-148782292D01*
X107400847Y-148807153D01*
X107425708Y-148837446D01*
X107444180Y-148872005D01*
X107455555Y-148909501D01*
X107460000Y-148954638D01*
X107460000Y-149693362D01*
X107455555Y-149738499D01*
X107444180Y-149775995D01*
X107425708Y-149810554D01*
X107400847Y-149840847D01*
X107370554Y-149865708D01*
X107335995Y-149884180D01*
X107298499Y-149895555D01*
X107253362Y-149900000D01*
X106614638Y-149900000D01*
X106569501Y-149895555D01*
X106532005Y-149884180D01*
X106497446Y-149865708D01*
X106467153Y-149840847D01*
X106442292Y-149810554D01*
X106423820Y-149775995D01*
X106412445Y-149738499D01*
X106408000Y-149693362D01*
X106408000Y-148954638D01*
X106412445Y-148909501D01*
X106423820Y-148872005D01*
X106442292Y-148837446D01*
X106467153Y-148807153D01*
X106497446Y-148782292D01*
X106532005Y-148763820D01*
X106569501Y-148752445D01*
X106614638Y-148748000D01*
X107253362Y-148748000D01*
X107298499Y-148752445D01*
G37*
G36*
X124638662Y-147421741D02*
G01*
X124673581Y-147432334D01*
X124705763Y-147449536D01*
X124733973Y-147472687D01*
X124757124Y-147500897D01*
X124774326Y-147533079D01*
X124784919Y-147567998D01*
X124789100Y-147610455D01*
X124789100Y-148751665D01*
X124784919Y-148794122D01*
X124774326Y-148829041D01*
X124757124Y-148861223D01*
X124733973Y-148889433D01*
X124705763Y-148912584D01*
X124673581Y-148929786D01*
X124638662Y-148940379D01*
X124596205Y-148944560D01*
X123129995Y-148944560D01*
X123087538Y-148940379D01*
X123052619Y-148929786D01*
X123020437Y-148912584D01*
X122992227Y-148889433D01*
X122969076Y-148861223D01*
X122951874Y-148829041D01*
X122941281Y-148794122D01*
X122937100Y-148751665D01*
X122937100Y-147610455D01*
X122941281Y-147567998D01*
X122951874Y-147533079D01*
X122969076Y-147500897D01*
X122992227Y-147472687D01*
X123020437Y-147449536D01*
X123052619Y-147432334D01*
X123087538Y-147421741D01*
X123129995Y-147417560D01*
X124596205Y-147417560D01*
X124638662Y-147421741D01*
G37*
G36*
X114475562Y-147390681D02*
G01*
X114510481Y-147401274D01*
X114542663Y-147418476D01*
X114570873Y-147441627D01*
X114594024Y-147469837D01*
X114611226Y-147502019D01*
X114621819Y-147536938D01*
X114626000Y-147579395D01*
X114626000Y-148720605D01*
X114621819Y-148763062D01*
X114611226Y-148797981D01*
X114594024Y-148830163D01*
X114570873Y-148858373D01*
X114542663Y-148881524D01*
X114510481Y-148898726D01*
X114475562Y-148909319D01*
X114433105Y-148913500D01*
X112966895Y-148913500D01*
X112924438Y-148909319D01*
X112889519Y-148898726D01*
X112857337Y-148881524D01*
X112829127Y-148858373D01*
X112805976Y-148830163D01*
X112788774Y-148797981D01*
X112778181Y-148763062D01*
X112774000Y-148720605D01*
X112774000Y-147579395D01*
X112778181Y-147536938D01*
X112788774Y-147502019D01*
X112805976Y-147469837D01*
X112829127Y-147441627D01*
X112857337Y-147418476D01*
X112889519Y-147401274D01*
X112924438Y-147390681D01*
X112966895Y-147386500D01*
X114433105Y-147386500D01*
X114475562Y-147390681D01*
G37*
G36*
X119647562Y-147322681D02*
G01*
X119682481Y-147333274D01*
X119714663Y-147350476D01*
X119742873Y-147373627D01*
X119766024Y-147401837D01*
X119783226Y-147434019D01*
X119793819Y-147468938D01*
X119798000Y-147511395D01*
X119798000Y-148652605D01*
X119793819Y-148695062D01*
X119783226Y-148729981D01*
X119766024Y-148762163D01*
X119742873Y-148790373D01*
X119714663Y-148813524D01*
X119682481Y-148830726D01*
X119647562Y-148841319D01*
X119605105Y-148845500D01*
X118138895Y-148845500D01*
X118096438Y-148841319D01*
X118061519Y-148830726D01*
X118029337Y-148813524D01*
X118001127Y-148790373D01*
X117977976Y-148762163D01*
X117960774Y-148729981D01*
X117950181Y-148695062D01*
X117946000Y-148652605D01*
X117946000Y-147511395D01*
X117950181Y-147468938D01*
X117960774Y-147434019D01*
X117977976Y-147401837D01*
X118001127Y-147373627D01*
X118029337Y-147350476D01*
X118061519Y-147333274D01*
X118096438Y-147322681D01*
X118138895Y-147318500D01*
X119605105Y-147318500D01*
X119647562Y-147322681D01*
G37*
G36*
X107298499Y-147002445D02*
G01*
X107335995Y-147013820D01*
X107370554Y-147032292D01*
X107400847Y-147057153D01*
X107425708Y-147087446D01*
X107444180Y-147122005D01*
X107455555Y-147159501D01*
X107460000Y-147204638D01*
X107460000Y-147943362D01*
X107455555Y-147988499D01*
X107444180Y-148025995D01*
X107425708Y-148060554D01*
X107400847Y-148090847D01*
X107370554Y-148115708D01*
X107335995Y-148134180D01*
X107298499Y-148145555D01*
X107253362Y-148150000D01*
X106614638Y-148150000D01*
X106569501Y-148145555D01*
X106532005Y-148134180D01*
X106497446Y-148115708D01*
X106467153Y-148090847D01*
X106442292Y-148060554D01*
X106423820Y-148025995D01*
X106412445Y-147988499D01*
X106408000Y-147943362D01*
X106408000Y-147204638D01*
X106412445Y-147159501D01*
X106423820Y-147122005D01*
X106442292Y-147087446D01*
X106467153Y-147057153D01*
X106497446Y-147032292D01*
X106532005Y-147013820D01*
X106569501Y-147002445D01*
X106614638Y-146998000D01*
X107253362Y-146998000D01*
X107298499Y-147002445D01*
G37*
G36*
X150416585Y-144020802D02*
G01*
X150566410Y-144050604D01*
X150848674Y-144167521D01*
X151102705Y-144337259D01*
X151318741Y-144553295D01*
X151488479Y-144807326D01*
X151605396Y-145089590D01*
X151614441Y-145135061D01*
X151665000Y-145389239D01*
X151665000Y-145694761D01*
X151645878Y-145790894D01*
X151605396Y-145994410D01*
X151488479Y-146276674D01*
X151318741Y-146530705D01*
X151102705Y-146746741D01*
X150848674Y-146916479D01*
X150566410Y-147033396D01*
X150496610Y-147047280D01*
X150266761Y-147093000D01*
X149961239Y-147093000D01*
X149731390Y-147047280D01*
X149661590Y-147033396D01*
X149379326Y-146916479D01*
X149125295Y-146746741D01*
X148909259Y-146530705D01*
X148739521Y-146276674D01*
X148622604Y-145994410D01*
X148582122Y-145790894D01*
X148563000Y-145694761D01*
X148563000Y-145389239D01*
X148613559Y-145135061D01*
X148622604Y-145089590D01*
X148739521Y-144807326D01*
X148909259Y-144553295D01*
X149125295Y-144337259D01*
X149379326Y-144167521D01*
X149661590Y-144050604D01*
X149811415Y-144020802D01*
X149961239Y-143991000D01*
X150266761Y-143991000D01*
X150416585Y-144020802D01*
G37*
G36*
X87932585Y-144020802D02*
G01*
X88082410Y-144050604D01*
X88364674Y-144167521D01*
X88618705Y-144337259D01*
X88834741Y-144553295D01*
X89004479Y-144807326D01*
X89121396Y-145089590D01*
X89130441Y-145135061D01*
X89181000Y-145389239D01*
X89181000Y-145694761D01*
X89161878Y-145790894D01*
X89121396Y-145994410D01*
X89004479Y-146276674D01*
X88834741Y-146530705D01*
X88618705Y-146746741D01*
X88364674Y-146916479D01*
X88082410Y-147033396D01*
X88012610Y-147047280D01*
X87782761Y-147093000D01*
X87477239Y-147093000D01*
X87247390Y-147047280D01*
X87177590Y-147033396D01*
X86895326Y-146916479D01*
X86641295Y-146746741D01*
X86425259Y-146530705D01*
X86255521Y-146276674D01*
X86138604Y-145994410D01*
X86098122Y-145790894D01*
X86079000Y-145694761D01*
X86079000Y-145389239D01*
X86129559Y-145135061D01*
X86138604Y-145089590D01*
X86255521Y-144807326D01*
X86425259Y-144553295D01*
X86641295Y-144337259D01*
X86895326Y-144167521D01*
X87177590Y-144050604D01*
X87327415Y-144020802D01*
X87477239Y-143991000D01*
X87782761Y-143991000D01*
X87932585Y-144020802D01*
G37*
G36*
X111870499Y-144978005D02*
G01*
X111907995Y-144989380D01*
X111942554Y-145007852D01*
X111972847Y-145032713D01*
X111997708Y-145063006D01*
X112016180Y-145097565D01*
X112027555Y-145135061D01*
X112032000Y-145180198D01*
X112032000Y-145918922D01*
X112027555Y-145964059D01*
X112016180Y-146001555D01*
X111997708Y-146036114D01*
X111972847Y-146066407D01*
X111942554Y-146091268D01*
X111907995Y-146109740D01*
X111870499Y-146121115D01*
X111825362Y-146125560D01*
X111186638Y-146125560D01*
X111141501Y-146121115D01*
X111104005Y-146109740D01*
X111069446Y-146091268D01*
X111039153Y-146066407D01*
X111014292Y-146036114D01*
X110995820Y-146001555D01*
X110984445Y-145964059D01*
X110980000Y-145918922D01*
X110980000Y-145180198D01*
X110984445Y-145135061D01*
X110995820Y-145097565D01*
X111014292Y-145063006D01*
X111039153Y-145032713D01*
X111069446Y-145007852D01*
X111104005Y-144989380D01*
X111141501Y-144978005D01*
X111186638Y-144973560D01*
X111825362Y-144973560D01*
X111870499Y-144978005D01*
G37*
G36*
X98662499Y-144970445D02*
G01*
X98699995Y-144981820D01*
X98734554Y-145000292D01*
X98764847Y-145025153D01*
X98789708Y-145055446D01*
X98808180Y-145090005D01*
X98819555Y-145127501D01*
X98824000Y-145172638D01*
X98824000Y-145911362D01*
X98819555Y-145956499D01*
X98808180Y-145993995D01*
X98789708Y-146028554D01*
X98764847Y-146058847D01*
X98734554Y-146083708D01*
X98699995Y-146102180D01*
X98662499Y-146113555D01*
X98617362Y-146118000D01*
X97978638Y-146118000D01*
X97933501Y-146113555D01*
X97896005Y-146102180D01*
X97861446Y-146083708D01*
X97831153Y-146058847D01*
X97806292Y-146028554D01*
X97787820Y-145993995D01*
X97776445Y-145956499D01*
X97772000Y-145911362D01*
X97772000Y-145172638D01*
X97776445Y-145127501D01*
X97787820Y-145090005D01*
X97806292Y-145055446D01*
X97831153Y-145025153D01*
X97861446Y-145000292D01*
X97896005Y-144981820D01*
X97933501Y-144970445D01*
X97978638Y-144966000D01*
X98617362Y-144966000D01*
X98662499Y-144970445D01*
G37*
G36*
X94344499Y-144970445D02*
G01*
X94381995Y-144981820D01*
X94416554Y-145000292D01*
X94446847Y-145025153D01*
X94471708Y-145055446D01*
X94490180Y-145090005D01*
X94501555Y-145127501D01*
X94506000Y-145172638D01*
X94506000Y-145911362D01*
X94501555Y-145956499D01*
X94490180Y-145993995D01*
X94471708Y-146028554D01*
X94446847Y-146058847D01*
X94416554Y-146083708D01*
X94381995Y-146102180D01*
X94344499Y-146113555D01*
X94299362Y-146118000D01*
X93660638Y-146118000D01*
X93615501Y-146113555D01*
X93578005Y-146102180D01*
X93543446Y-146083708D01*
X93513153Y-146058847D01*
X93488292Y-146028554D01*
X93469820Y-145993995D01*
X93458445Y-145956499D01*
X93454000Y-145911362D01*
X93454000Y-145172638D01*
X93458445Y-145127501D01*
X93469820Y-145090005D01*
X93488292Y-145055446D01*
X93513153Y-145025153D01*
X93543446Y-145000292D01*
X93578005Y-144981820D01*
X93615501Y-144970445D01*
X93660638Y-144966000D01*
X94299362Y-144966000D01*
X94344499Y-144970445D01*
G37*
G36*
X120349019Y-144942445D02*
G01*
X120386515Y-144953820D01*
X120421074Y-144972292D01*
X120451367Y-144997153D01*
X120476228Y-145027446D01*
X120494700Y-145062005D01*
X120506075Y-145099501D01*
X120510520Y-145144638D01*
X120510520Y-145883362D01*
X120506075Y-145928499D01*
X120494700Y-145965995D01*
X120476228Y-146000554D01*
X120451367Y-146030847D01*
X120421074Y-146055708D01*
X120386515Y-146074180D01*
X120349019Y-146085555D01*
X120303882Y-146090000D01*
X119665158Y-146090000D01*
X119620021Y-146085555D01*
X119582525Y-146074180D01*
X119547966Y-146055708D01*
X119517673Y-146030847D01*
X119492812Y-146000554D01*
X119474340Y-145965995D01*
X119462965Y-145928499D01*
X119458520Y-145883362D01*
X119458520Y-145144638D01*
X119462965Y-145099501D01*
X119474340Y-145062005D01*
X119492812Y-145027446D01*
X119517673Y-144997153D01*
X119547966Y-144972292D01*
X119582525Y-144953820D01*
X119620021Y-144942445D01*
X119665158Y-144938000D01*
X120303882Y-144938000D01*
X120349019Y-144942445D01*
G37*
G36*
X107298499Y-144942445D02*
G01*
X107335995Y-144953820D01*
X107370554Y-144972292D01*
X107400847Y-144997153D01*
X107425708Y-145027446D01*
X107444180Y-145062005D01*
X107455555Y-145099501D01*
X107460000Y-145144638D01*
X107460000Y-145883362D01*
X107455555Y-145928499D01*
X107444180Y-145965995D01*
X107425708Y-146000554D01*
X107400847Y-146030847D01*
X107370554Y-146055708D01*
X107335995Y-146074180D01*
X107298499Y-146085555D01*
X107253362Y-146090000D01*
X106614638Y-146090000D01*
X106569501Y-146085555D01*
X106532005Y-146074180D01*
X106497446Y-146055708D01*
X106467153Y-146030847D01*
X106442292Y-146000554D01*
X106423820Y-145965995D01*
X106412445Y-145928499D01*
X106408000Y-145883362D01*
X106408000Y-145144638D01*
X106412445Y-145099501D01*
X106423820Y-145062005D01*
X106442292Y-145027446D01*
X106467153Y-144997153D01*
X106497446Y-144972292D01*
X106532005Y-144953820D01*
X106569501Y-144942445D01*
X106614638Y-144938000D01*
X107253362Y-144938000D01*
X107298499Y-144942445D01*
G37*
G36*
X116188499Y-144942445D02*
G01*
X116225995Y-144953820D01*
X116260554Y-144972292D01*
X116290847Y-144997153D01*
X116315708Y-145027446D01*
X116334180Y-145062005D01*
X116345555Y-145099501D01*
X116350000Y-145144638D01*
X116350000Y-145883362D01*
X116345555Y-145928499D01*
X116334180Y-145965995D01*
X116315708Y-146000554D01*
X116290847Y-146030847D01*
X116260554Y-146055708D01*
X116225995Y-146074180D01*
X116188499Y-146085555D01*
X116143362Y-146090000D01*
X115504638Y-146090000D01*
X115459501Y-146085555D01*
X115422005Y-146074180D01*
X115387446Y-146055708D01*
X115357153Y-146030847D01*
X115332292Y-146000554D01*
X115313820Y-145965995D01*
X115302445Y-145928499D01*
X115298000Y-145883362D01*
X115298000Y-145144638D01*
X115302445Y-145099501D01*
X115313820Y-145062005D01*
X115332292Y-145027446D01*
X115357153Y-144997153D01*
X115387446Y-144972292D01*
X115422005Y-144953820D01*
X115459501Y-144942445D01*
X115504638Y-144938000D01*
X116143362Y-144938000D01*
X116188499Y-144942445D01*
G37*
G36*
X102980499Y-144942445D02*
G01*
X103017995Y-144953820D01*
X103052554Y-144972292D01*
X103082847Y-144997153D01*
X103107708Y-145027446D01*
X103126180Y-145062005D01*
X103137555Y-145099501D01*
X103142000Y-145144638D01*
X103142000Y-145883362D01*
X103137555Y-145928499D01*
X103126180Y-145965995D01*
X103107708Y-146000554D01*
X103082847Y-146030847D01*
X103052554Y-146055708D01*
X103017995Y-146074180D01*
X102980499Y-146085555D01*
X102935362Y-146090000D01*
X102296638Y-146090000D01*
X102251501Y-146085555D01*
X102214005Y-146074180D01*
X102179446Y-146055708D01*
X102149153Y-146030847D01*
X102124292Y-146000554D01*
X102105820Y-145965995D01*
X102094445Y-145928499D01*
X102090000Y-145883362D01*
X102090000Y-145144638D01*
X102094445Y-145099501D01*
X102105820Y-145062005D01*
X102124292Y-145027446D01*
X102149153Y-144997153D01*
X102179446Y-144972292D01*
X102214005Y-144953820D01*
X102251501Y-144942445D01*
X102296638Y-144938000D01*
X102935362Y-144938000D01*
X102980499Y-144942445D01*
G37*
G36*
X124603519Y-144851065D02*
G01*
X124641015Y-144862440D01*
X124675574Y-144880912D01*
X124705867Y-144905773D01*
X124730728Y-144936066D01*
X124749200Y-144970625D01*
X124760575Y-145008121D01*
X124765020Y-145053258D01*
X124765020Y-145791982D01*
X124760575Y-145837119D01*
X124749200Y-145874615D01*
X124730728Y-145909174D01*
X124705867Y-145939467D01*
X124675574Y-145964328D01*
X124641015Y-145982800D01*
X124603519Y-145994175D01*
X124558382Y-145998620D01*
X123919658Y-145998620D01*
X123874521Y-145994175D01*
X123837025Y-145982800D01*
X123802466Y-145964328D01*
X123772173Y-145939467D01*
X123747312Y-145909174D01*
X123728840Y-145874615D01*
X123717465Y-145837119D01*
X123713020Y-145791982D01*
X123713020Y-145053258D01*
X123717465Y-145008121D01*
X123728840Y-144970625D01*
X123747312Y-144936066D01*
X123772173Y-144905773D01*
X123802466Y-144880912D01*
X123837025Y-144862440D01*
X123874521Y-144851065D01*
X123919658Y-144846620D01*
X124558382Y-144846620D01*
X124603519Y-144851065D01*
G37*
G36*
X111870499Y-143228005D02*
G01*
X111907995Y-143239380D01*
X111942554Y-143257852D01*
X111972847Y-143282713D01*
X111997708Y-143313006D01*
X112016180Y-143347565D01*
X112027555Y-143385061D01*
X112032000Y-143430198D01*
X112032000Y-144168922D01*
X112027555Y-144214059D01*
X112016180Y-144251555D01*
X111997708Y-144286114D01*
X111972847Y-144316407D01*
X111942554Y-144341268D01*
X111907995Y-144359740D01*
X111870499Y-144371115D01*
X111825362Y-144375560D01*
X111186638Y-144375560D01*
X111141501Y-144371115D01*
X111104005Y-144359740D01*
X111069446Y-144341268D01*
X111039153Y-144316407D01*
X111014292Y-144286114D01*
X110995820Y-144251555D01*
X110984445Y-144214059D01*
X110980000Y-144168922D01*
X110980000Y-143430198D01*
X110984445Y-143385061D01*
X110995820Y-143347565D01*
X111014292Y-143313006D01*
X111039153Y-143282713D01*
X111069446Y-143257852D01*
X111104005Y-143239380D01*
X111141501Y-143228005D01*
X111186638Y-143223560D01*
X111825362Y-143223560D01*
X111870499Y-143228005D01*
G37*
G36*
X98662499Y-143220445D02*
G01*
X98699995Y-143231820D01*
X98734554Y-143250292D01*
X98764847Y-143275153D01*
X98789708Y-143305446D01*
X98808180Y-143340005D01*
X98819555Y-143377501D01*
X98824000Y-143422638D01*
X98824000Y-144161362D01*
X98819555Y-144206499D01*
X98808180Y-144243995D01*
X98789708Y-144278554D01*
X98764847Y-144308847D01*
X98734554Y-144333708D01*
X98699995Y-144352180D01*
X98662499Y-144363555D01*
X98617362Y-144368000D01*
X97978638Y-144368000D01*
X97933501Y-144363555D01*
X97896005Y-144352180D01*
X97861446Y-144333708D01*
X97831153Y-144308847D01*
X97806292Y-144278554D01*
X97787820Y-144243995D01*
X97776445Y-144206499D01*
X97772000Y-144161362D01*
X97772000Y-143422638D01*
X97776445Y-143377501D01*
X97787820Y-143340005D01*
X97806292Y-143305446D01*
X97831153Y-143275153D01*
X97861446Y-143250292D01*
X97896005Y-143231820D01*
X97933501Y-143220445D01*
X97978638Y-143216000D01*
X98617362Y-143216000D01*
X98662499Y-143220445D01*
G37*
G36*
X94344499Y-143220445D02*
G01*
X94381995Y-143231820D01*
X94416554Y-143250292D01*
X94446847Y-143275153D01*
X94471708Y-143305446D01*
X94490180Y-143340005D01*
X94501555Y-143377501D01*
X94506000Y-143422638D01*
X94506000Y-144161362D01*
X94501555Y-144206499D01*
X94490180Y-144243995D01*
X94471708Y-144278554D01*
X94446847Y-144308847D01*
X94416554Y-144333708D01*
X94381995Y-144352180D01*
X94344499Y-144363555D01*
X94299362Y-144368000D01*
X93660638Y-144368000D01*
X93615501Y-144363555D01*
X93578005Y-144352180D01*
X93543446Y-144333708D01*
X93513153Y-144308847D01*
X93488292Y-144278554D01*
X93469820Y-144243995D01*
X93458445Y-144206499D01*
X93454000Y-144161362D01*
X93454000Y-143422638D01*
X93458445Y-143377501D01*
X93469820Y-143340005D01*
X93488292Y-143305446D01*
X93513153Y-143275153D01*
X93543446Y-143250292D01*
X93578005Y-143231820D01*
X93615501Y-143220445D01*
X93660638Y-143216000D01*
X94299362Y-143216000D01*
X94344499Y-143220445D01*
G37*
G36*
X120349019Y-143192445D02*
G01*
X120386515Y-143203820D01*
X120421074Y-143222292D01*
X120451367Y-143247153D01*
X120476228Y-143277446D01*
X120494700Y-143312005D01*
X120506075Y-143349501D01*
X120510520Y-143394638D01*
X120510520Y-144133362D01*
X120506075Y-144178499D01*
X120494700Y-144215995D01*
X120476228Y-144250554D01*
X120451367Y-144280847D01*
X120421074Y-144305708D01*
X120386515Y-144324180D01*
X120349019Y-144335555D01*
X120303882Y-144340000D01*
X119665158Y-144340000D01*
X119620021Y-144335555D01*
X119582525Y-144324180D01*
X119547966Y-144305708D01*
X119517673Y-144280847D01*
X119492812Y-144250554D01*
X119474340Y-144215995D01*
X119462965Y-144178499D01*
X119458520Y-144133362D01*
X119458520Y-143394638D01*
X119462965Y-143349501D01*
X119474340Y-143312005D01*
X119492812Y-143277446D01*
X119517673Y-143247153D01*
X119547966Y-143222292D01*
X119582525Y-143203820D01*
X119620021Y-143192445D01*
X119665158Y-143188000D01*
X120303882Y-143188000D01*
X120349019Y-143192445D01*
G37*
G36*
X102980499Y-143192445D02*
G01*
X103017995Y-143203820D01*
X103052554Y-143222292D01*
X103082847Y-143247153D01*
X103107708Y-143277446D01*
X103126180Y-143312005D01*
X103137555Y-143349501D01*
X103142000Y-143394638D01*
X103142000Y-144133362D01*
X103137555Y-144178499D01*
X103126180Y-144215995D01*
X103107708Y-144250554D01*
X103082847Y-144280847D01*
X103052554Y-144305708D01*
X103017995Y-144324180D01*
X102980499Y-144335555D01*
X102935362Y-144340000D01*
X102296638Y-144340000D01*
X102251501Y-144335555D01*
X102214005Y-144324180D01*
X102179446Y-144305708D01*
X102149153Y-144280847D01*
X102124292Y-144250554D01*
X102105820Y-144215995D01*
X102094445Y-144178499D01*
X102090000Y-144133362D01*
X102090000Y-143394638D01*
X102094445Y-143349501D01*
X102105820Y-143312005D01*
X102124292Y-143277446D01*
X102149153Y-143247153D01*
X102179446Y-143222292D01*
X102214005Y-143203820D01*
X102251501Y-143192445D01*
X102296638Y-143188000D01*
X102935362Y-143188000D01*
X102980499Y-143192445D01*
G37*
G36*
X107298499Y-143192445D02*
G01*
X107335995Y-143203820D01*
X107370554Y-143222292D01*
X107400847Y-143247153D01*
X107425708Y-143277446D01*
X107444180Y-143312005D01*
X107455555Y-143349501D01*
X107460000Y-143394638D01*
X107460000Y-144133362D01*
X107455555Y-144178499D01*
X107444180Y-144215995D01*
X107425708Y-144250554D01*
X107400847Y-144280847D01*
X107370554Y-144305708D01*
X107335995Y-144324180D01*
X107298499Y-144335555D01*
X107253362Y-144340000D01*
X106614638Y-144340000D01*
X106569501Y-144335555D01*
X106532005Y-144324180D01*
X106497446Y-144305708D01*
X106467153Y-144280847D01*
X106442292Y-144250554D01*
X106423820Y-144215995D01*
X106412445Y-144178499D01*
X106408000Y-144133362D01*
X106408000Y-143394638D01*
X106412445Y-143349501D01*
X106423820Y-143312005D01*
X106442292Y-143277446D01*
X106467153Y-143247153D01*
X106497446Y-143222292D01*
X106532005Y-143203820D01*
X106569501Y-143192445D01*
X106614638Y-143188000D01*
X107253362Y-143188000D01*
X107298499Y-143192445D01*
G37*
G36*
X116188499Y-143192445D02*
G01*
X116225995Y-143203820D01*
X116260554Y-143222292D01*
X116290847Y-143247153D01*
X116315708Y-143277446D01*
X116334180Y-143312005D01*
X116345555Y-143349501D01*
X116350000Y-143394638D01*
X116350000Y-144133362D01*
X116345555Y-144178499D01*
X116334180Y-144215995D01*
X116315708Y-144250554D01*
X116290847Y-144280847D01*
X116260554Y-144305708D01*
X116225995Y-144324180D01*
X116188499Y-144335555D01*
X116143362Y-144340000D01*
X115504638Y-144340000D01*
X115459501Y-144335555D01*
X115422005Y-144324180D01*
X115387446Y-144305708D01*
X115357153Y-144280847D01*
X115332292Y-144250554D01*
X115313820Y-144215995D01*
X115302445Y-144178499D01*
X115298000Y-144133362D01*
X115298000Y-143394638D01*
X115302445Y-143349501D01*
X115313820Y-143312005D01*
X115332292Y-143277446D01*
X115357153Y-143247153D01*
X115387446Y-143222292D01*
X115422005Y-143203820D01*
X115459501Y-143192445D01*
X115504638Y-143188000D01*
X116143362Y-143188000D01*
X116188499Y-143192445D01*
G37*
G36*
X124603519Y-143101065D02*
G01*
X124641015Y-143112440D01*
X124675574Y-143130912D01*
X124705867Y-143155773D01*
X124730728Y-143186066D01*
X124749200Y-143220625D01*
X124760575Y-143258121D01*
X124765020Y-143303258D01*
X124765020Y-144041982D01*
X124760575Y-144087119D01*
X124749200Y-144124615D01*
X124730728Y-144159174D01*
X124705867Y-144189467D01*
X124675574Y-144214328D01*
X124641015Y-144232800D01*
X124603519Y-144244175D01*
X124558382Y-144248620D01*
X123919658Y-144248620D01*
X123874521Y-144244175D01*
X123837025Y-144232800D01*
X123802466Y-144214328D01*
X123772173Y-144189467D01*
X123747312Y-144159174D01*
X123728840Y-144124615D01*
X123717465Y-144087119D01*
X123713020Y-144041982D01*
X123713020Y-143303258D01*
X123717465Y-143258121D01*
X123728840Y-143220625D01*
X123747312Y-143186066D01*
X123772173Y-143155773D01*
X123802466Y-143130912D01*
X123837025Y-143112440D01*
X123874521Y-143101065D01*
X123919658Y-143096620D01*
X124558382Y-143096620D01*
X124603519Y-143101065D01*
G37*
M02*
