G04 #@! TF.GenerationSoftware,KiCad,Pcbnew,5.1.5+dfsg1-2build2*
G04 #@! TF.CreationDate,2021-12-16T07:29:40-05:00*
G04 #@! TF.ProjectId,schematics,73636865-6d61-4746-9963-732e6b696361,rev?*
G04 #@! TF.SameCoordinates,Original*
G04 #@! TF.FileFunction,Paste,Top*
G04 #@! TF.FilePolarity,Positive*
%FSLAX46Y46*%
G04 Gerber Fmt 4.6, Leading zero omitted, Abs format (unit mm)*
G04 Created by KiCad (PCBNEW 5.1.5+dfsg1-2build2) date 2021-12-16 07:29:40*
%MOMM*%
%LPD*%
G04 APERTURE LIST*
%ADD10C,0.010000*%
%ADD11C,0.100000*%
%ADD12R,2.000000X3.800000*%
%ADD13R,2.000000X1.500000*%
%ADD14R,2.050000X3.500000*%
G04 APERTURE END LIST*
D10*
G36*
X133683490Y-149237520D02*
G01*
X136216960Y-149237520D01*
X136216960Y-151768564D01*
X133683490Y-151768564D01*
X133683490Y-149237520D01*
G37*
X133683490Y-149237520D02*
X136216960Y-149237520D01*
X136216960Y-151768564D01*
X133683490Y-151768564D01*
X133683490Y-149237520D01*
D11*
G36*
X128054026Y-142248550D02*
G01*
X128074790Y-142251630D01*
X128095152Y-142256730D01*
X128114916Y-142263802D01*
X128133892Y-142272777D01*
X128151896Y-142283569D01*
X128168757Y-142296073D01*
X128184310Y-142310170D01*
X128198407Y-142325723D01*
X128210911Y-142342584D01*
X128221703Y-142360588D01*
X128230678Y-142379564D01*
X128237750Y-142399328D01*
X128242850Y-142419690D01*
X128245930Y-142440454D01*
X128246960Y-142461420D01*
X128246960Y-142963620D01*
X128245930Y-142984586D01*
X128242850Y-143005350D01*
X128237750Y-143025712D01*
X128230678Y-143045476D01*
X128221703Y-143064452D01*
X128210911Y-143082456D01*
X128198407Y-143099317D01*
X128184310Y-143114870D01*
X128168757Y-143128967D01*
X128151896Y-143141471D01*
X128133892Y-143152263D01*
X128114916Y-143161238D01*
X128095152Y-143168310D01*
X128074790Y-143173410D01*
X128054026Y-143176490D01*
X128033060Y-143177520D01*
X127010860Y-143177520D01*
X126989894Y-143176490D01*
X126969130Y-143173410D01*
X126948768Y-143168310D01*
X126929004Y-143161238D01*
X126910028Y-143152263D01*
X126892024Y-143141471D01*
X126875163Y-143128967D01*
X126859610Y-143114870D01*
X126845513Y-143099317D01*
X126833009Y-143082456D01*
X126822217Y-143064452D01*
X126813242Y-143045476D01*
X126806170Y-143025712D01*
X126801070Y-143005350D01*
X126797990Y-142984586D01*
X126796960Y-142963620D01*
X126796960Y-142461420D01*
X126797990Y-142440454D01*
X126801070Y-142419690D01*
X126806170Y-142399328D01*
X126813242Y-142379564D01*
X126822217Y-142360588D01*
X126833009Y-142342584D01*
X126845513Y-142325723D01*
X126859610Y-142310170D01*
X126875163Y-142296073D01*
X126892024Y-142283569D01*
X126910028Y-142272777D01*
X126929004Y-142263802D01*
X126948768Y-142256730D01*
X126969130Y-142251630D01*
X126989894Y-142248550D01*
X127010860Y-142247520D01*
X128033060Y-142247520D01*
X128054026Y-142248550D01*
G37*
G36*
X128054026Y-143518550D02*
G01*
X128074790Y-143521630D01*
X128095152Y-143526730D01*
X128114916Y-143533802D01*
X128133892Y-143542777D01*
X128151896Y-143553569D01*
X128168757Y-143566073D01*
X128184310Y-143580170D01*
X128198407Y-143595723D01*
X128210911Y-143612584D01*
X128221703Y-143630588D01*
X128230678Y-143649564D01*
X128237750Y-143669328D01*
X128242850Y-143689690D01*
X128245930Y-143710454D01*
X128246960Y-143731420D01*
X128246960Y-144233620D01*
X128245930Y-144254586D01*
X128242850Y-144275350D01*
X128237750Y-144295712D01*
X128230678Y-144315476D01*
X128221703Y-144334452D01*
X128210911Y-144352456D01*
X128198407Y-144369317D01*
X128184310Y-144384870D01*
X128168757Y-144398967D01*
X128151896Y-144411471D01*
X128133892Y-144422263D01*
X128114916Y-144431238D01*
X128095152Y-144438310D01*
X128074790Y-144443410D01*
X128054026Y-144446490D01*
X128033060Y-144447520D01*
X127010860Y-144447520D01*
X126989894Y-144446490D01*
X126969130Y-144443410D01*
X126948768Y-144438310D01*
X126929004Y-144431238D01*
X126910028Y-144422263D01*
X126892024Y-144411471D01*
X126875163Y-144398967D01*
X126859610Y-144384870D01*
X126845513Y-144369317D01*
X126833009Y-144352456D01*
X126822217Y-144334452D01*
X126813242Y-144315476D01*
X126806170Y-144295712D01*
X126801070Y-144275350D01*
X126797990Y-144254586D01*
X126796960Y-144233620D01*
X126796960Y-143731420D01*
X126797990Y-143710454D01*
X126801070Y-143689690D01*
X126806170Y-143669328D01*
X126813242Y-143649564D01*
X126822217Y-143630588D01*
X126833009Y-143612584D01*
X126845513Y-143595723D01*
X126859610Y-143580170D01*
X126875163Y-143566073D01*
X126892024Y-143553569D01*
X126910028Y-143542777D01*
X126929004Y-143533802D01*
X126948768Y-143526730D01*
X126969130Y-143521630D01*
X126989894Y-143518550D01*
X127010860Y-143517520D01*
X128033060Y-143517520D01*
X128054026Y-143518550D01*
G37*
G36*
X128054026Y-144788550D02*
G01*
X128074790Y-144791630D01*
X128095152Y-144796730D01*
X128114916Y-144803802D01*
X128133892Y-144812777D01*
X128151896Y-144823569D01*
X128168757Y-144836073D01*
X128184310Y-144850170D01*
X128198407Y-144865723D01*
X128210911Y-144882584D01*
X128221703Y-144900588D01*
X128230678Y-144919564D01*
X128237750Y-144939328D01*
X128242850Y-144959690D01*
X128245930Y-144980454D01*
X128246960Y-145001420D01*
X128246960Y-145503620D01*
X128245930Y-145524586D01*
X128242850Y-145545350D01*
X128237750Y-145565712D01*
X128230678Y-145585476D01*
X128221703Y-145604452D01*
X128210911Y-145622456D01*
X128198407Y-145639317D01*
X128184310Y-145654870D01*
X128168757Y-145668967D01*
X128151896Y-145681471D01*
X128133892Y-145692263D01*
X128114916Y-145701238D01*
X128095152Y-145708310D01*
X128074790Y-145713410D01*
X128054026Y-145716490D01*
X128033060Y-145717520D01*
X127010860Y-145717520D01*
X126989894Y-145716490D01*
X126969130Y-145713410D01*
X126948768Y-145708310D01*
X126929004Y-145701238D01*
X126910028Y-145692263D01*
X126892024Y-145681471D01*
X126875163Y-145668967D01*
X126859610Y-145654870D01*
X126845513Y-145639317D01*
X126833009Y-145622456D01*
X126822217Y-145604452D01*
X126813242Y-145585476D01*
X126806170Y-145565712D01*
X126801070Y-145545350D01*
X126797990Y-145524586D01*
X126796960Y-145503620D01*
X126796960Y-145001420D01*
X126797990Y-144980454D01*
X126801070Y-144959690D01*
X126806170Y-144939328D01*
X126813242Y-144919564D01*
X126822217Y-144900588D01*
X126833009Y-144882584D01*
X126845513Y-144865723D01*
X126859610Y-144850170D01*
X126875163Y-144836073D01*
X126892024Y-144823569D01*
X126910028Y-144812777D01*
X126929004Y-144803802D01*
X126948768Y-144796730D01*
X126969130Y-144791630D01*
X126989894Y-144788550D01*
X127010860Y-144787520D01*
X128033060Y-144787520D01*
X128054026Y-144788550D01*
G37*
G36*
X128054026Y-146058550D02*
G01*
X128074790Y-146061630D01*
X128095152Y-146066730D01*
X128114916Y-146073802D01*
X128133892Y-146082777D01*
X128151896Y-146093569D01*
X128168757Y-146106073D01*
X128184310Y-146120170D01*
X128198407Y-146135723D01*
X128210911Y-146152584D01*
X128221703Y-146170588D01*
X128230678Y-146189564D01*
X128237750Y-146209328D01*
X128242850Y-146229690D01*
X128245930Y-146250454D01*
X128246960Y-146271420D01*
X128246960Y-146773620D01*
X128245930Y-146794586D01*
X128242850Y-146815350D01*
X128237750Y-146835712D01*
X128230678Y-146855476D01*
X128221703Y-146874452D01*
X128210911Y-146892456D01*
X128198407Y-146909317D01*
X128184310Y-146924870D01*
X128168757Y-146938967D01*
X128151896Y-146951471D01*
X128133892Y-146962263D01*
X128114916Y-146971238D01*
X128095152Y-146978310D01*
X128074790Y-146983410D01*
X128054026Y-146986490D01*
X128033060Y-146987520D01*
X127010860Y-146987520D01*
X126989894Y-146986490D01*
X126969130Y-146983410D01*
X126948768Y-146978310D01*
X126929004Y-146971238D01*
X126910028Y-146962263D01*
X126892024Y-146951471D01*
X126875163Y-146938967D01*
X126859610Y-146924870D01*
X126845513Y-146909317D01*
X126833009Y-146892456D01*
X126822217Y-146874452D01*
X126813242Y-146855476D01*
X126806170Y-146835712D01*
X126801070Y-146815350D01*
X126797990Y-146794586D01*
X126796960Y-146773620D01*
X126796960Y-146271420D01*
X126797990Y-146250454D01*
X126801070Y-146229690D01*
X126806170Y-146209328D01*
X126813242Y-146189564D01*
X126822217Y-146170588D01*
X126833009Y-146152584D01*
X126845513Y-146135723D01*
X126859610Y-146120170D01*
X126875163Y-146106073D01*
X126892024Y-146093569D01*
X126910028Y-146082777D01*
X126929004Y-146073802D01*
X126948768Y-146066730D01*
X126969130Y-146061630D01*
X126989894Y-146058550D01*
X127010860Y-146057520D01*
X128033060Y-146057520D01*
X128054026Y-146058550D01*
G37*
G36*
X128054026Y-147328550D02*
G01*
X128074790Y-147331630D01*
X128095152Y-147336730D01*
X128114916Y-147343802D01*
X128133892Y-147352777D01*
X128151896Y-147363569D01*
X128168757Y-147376073D01*
X128184310Y-147390170D01*
X128198407Y-147405723D01*
X128210911Y-147422584D01*
X128221703Y-147440588D01*
X128230678Y-147459564D01*
X128237750Y-147479328D01*
X128242850Y-147499690D01*
X128245930Y-147520454D01*
X128246960Y-147541420D01*
X128246960Y-148043620D01*
X128245930Y-148064586D01*
X128242850Y-148085350D01*
X128237750Y-148105712D01*
X128230678Y-148125476D01*
X128221703Y-148144452D01*
X128210911Y-148162456D01*
X128198407Y-148179317D01*
X128184310Y-148194870D01*
X128168757Y-148208967D01*
X128151896Y-148221471D01*
X128133892Y-148232263D01*
X128114916Y-148241238D01*
X128095152Y-148248310D01*
X128074790Y-148253410D01*
X128054026Y-148256490D01*
X128033060Y-148257520D01*
X127010860Y-148257520D01*
X126989894Y-148256490D01*
X126969130Y-148253410D01*
X126948768Y-148248310D01*
X126929004Y-148241238D01*
X126910028Y-148232263D01*
X126892024Y-148221471D01*
X126875163Y-148208967D01*
X126859610Y-148194870D01*
X126845513Y-148179317D01*
X126833009Y-148162456D01*
X126822217Y-148144452D01*
X126813242Y-148125476D01*
X126806170Y-148105712D01*
X126801070Y-148085350D01*
X126797990Y-148064586D01*
X126796960Y-148043620D01*
X126796960Y-147541420D01*
X126797990Y-147520454D01*
X126801070Y-147499690D01*
X126806170Y-147479328D01*
X126813242Y-147459564D01*
X126822217Y-147440588D01*
X126833009Y-147422584D01*
X126845513Y-147405723D01*
X126859610Y-147390170D01*
X126875163Y-147376073D01*
X126892024Y-147363569D01*
X126910028Y-147352777D01*
X126929004Y-147343802D01*
X126948768Y-147336730D01*
X126969130Y-147331630D01*
X126989894Y-147328550D01*
X127010860Y-147327520D01*
X128033060Y-147327520D01*
X128054026Y-147328550D01*
G37*
G36*
X128054026Y-148598550D02*
G01*
X128074790Y-148601630D01*
X128095152Y-148606730D01*
X128114916Y-148613802D01*
X128133892Y-148622777D01*
X128151896Y-148633569D01*
X128168757Y-148646073D01*
X128184310Y-148660170D01*
X128198407Y-148675723D01*
X128210911Y-148692584D01*
X128221703Y-148710588D01*
X128230678Y-148729564D01*
X128237750Y-148749328D01*
X128242850Y-148769690D01*
X128245930Y-148790454D01*
X128246960Y-148811420D01*
X128246960Y-149313620D01*
X128245930Y-149334586D01*
X128242850Y-149355350D01*
X128237750Y-149375712D01*
X128230678Y-149395476D01*
X128221703Y-149414452D01*
X128210911Y-149432456D01*
X128198407Y-149449317D01*
X128184310Y-149464870D01*
X128168757Y-149478967D01*
X128151896Y-149491471D01*
X128133892Y-149502263D01*
X128114916Y-149511238D01*
X128095152Y-149518310D01*
X128074790Y-149523410D01*
X128054026Y-149526490D01*
X128033060Y-149527520D01*
X127010860Y-149527520D01*
X126989894Y-149526490D01*
X126969130Y-149523410D01*
X126948768Y-149518310D01*
X126929004Y-149511238D01*
X126910028Y-149502263D01*
X126892024Y-149491471D01*
X126875163Y-149478967D01*
X126859610Y-149464870D01*
X126845513Y-149449317D01*
X126833009Y-149432456D01*
X126822217Y-149414452D01*
X126813242Y-149395476D01*
X126806170Y-149375712D01*
X126801070Y-149355350D01*
X126797990Y-149334586D01*
X126796960Y-149313620D01*
X126796960Y-148811420D01*
X126797990Y-148790454D01*
X126801070Y-148769690D01*
X126806170Y-148749328D01*
X126813242Y-148729564D01*
X126822217Y-148710588D01*
X126833009Y-148692584D01*
X126845513Y-148675723D01*
X126859610Y-148660170D01*
X126875163Y-148646073D01*
X126892024Y-148633569D01*
X126910028Y-148622777D01*
X126929004Y-148613802D01*
X126948768Y-148606730D01*
X126969130Y-148601630D01*
X126989894Y-148598550D01*
X127010860Y-148597520D01*
X128033060Y-148597520D01*
X128054026Y-148598550D01*
G37*
G36*
X128054026Y-149868550D02*
G01*
X128074790Y-149871630D01*
X128095152Y-149876730D01*
X128114916Y-149883802D01*
X128133892Y-149892777D01*
X128151896Y-149903569D01*
X128168757Y-149916073D01*
X128184310Y-149930170D01*
X128198407Y-149945723D01*
X128210911Y-149962584D01*
X128221703Y-149980588D01*
X128230678Y-149999564D01*
X128237750Y-150019328D01*
X128242850Y-150039690D01*
X128245930Y-150060454D01*
X128246960Y-150081420D01*
X128246960Y-150583620D01*
X128245930Y-150604586D01*
X128242850Y-150625350D01*
X128237750Y-150645712D01*
X128230678Y-150665476D01*
X128221703Y-150684452D01*
X128210911Y-150702456D01*
X128198407Y-150719317D01*
X128184310Y-150734870D01*
X128168757Y-150748967D01*
X128151896Y-150761471D01*
X128133892Y-150772263D01*
X128114916Y-150781238D01*
X128095152Y-150788310D01*
X128074790Y-150793410D01*
X128054026Y-150796490D01*
X128033060Y-150797520D01*
X127010860Y-150797520D01*
X126989894Y-150796490D01*
X126969130Y-150793410D01*
X126948768Y-150788310D01*
X126929004Y-150781238D01*
X126910028Y-150772263D01*
X126892024Y-150761471D01*
X126875163Y-150748967D01*
X126859610Y-150734870D01*
X126845513Y-150719317D01*
X126833009Y-150702456D01*
X126822217Y-150684452D01*
X126813242Y-150665476D01*
X126806170Y-150645712D01*
X126801070Y-150625350D01*
X126797990Y-150604586D01*
X126796960Y-150583620D01*
X126796960Y-150081420D01*
X126797990Y-150060454D01*
X126801070Y-150039690D01*
X126806170Y-150019328D01*
X126813242Y-149999564D01*
X126822217Y-149980588D01*
X126833009Y-149962584D01*
X126845513Y-149945723D01*
X126859610Y-149930170D01*
X126875163Y-149916073D01*
X126892024Y-149903569D01*
X126910028Y-149892777D01*
X126929004Y-149883802D01*
X126948768Y-149876730D01*
X126969130Y-149871630D01*
X126989894Y-149868550D01*
X127010860Y-149867520D01*
X128033060Y-149867520D01*
X128054026Y-149868550D01*
G37*
G36*
X128054026Y-151138550D02*
G01*
X128074790Y-151141630D01*
X128095152Y-151146730D01*
X128114916Y-151153802D01*
X128133892Y-151162777D01*
X128151896Y-151173569D01*
X128168757Y-151186073D01*
X128184310Y-151200170D01*
X128198407Y-151215723D01*
X128210911Y-151232584D01*
X128221703Y-151250588D01*
X128230678Y-151269564D01*
X128237750Y-151289328D01*
X128242850Y-151309690D01*
X128245930Y-151330454D01*
X128246960Y-151351420D01*
X128246960Y-151853620D01*
X128245930Y-151874586D01*
X128242850Y-151895350D01*
X128237750Y-151915712D01*
X128230678Y-151935476D01*
X128221703Y-151954452D01*
X128210911Y-151972456D01*
X128198407Y-151989317D01*
X128184310Y-152004870D01*
X128168757Y-152018967D01*
X128151896Y-152031471D01*
X128133892Y-152042263D01*
X128114916Y-152051238D01*
X128095152Y-152058310D01*
X128074790Y-152063410D01*
X128054026Y-152066490D01*
X128033060Y-152067520D01*
X127010860Y-152067520D01*
X126989894Y-152066490D01*
X126969130Y-152063410D01*
X126948768Y-152058310D01*
X126929004Y-152051238D01*
X126910028Y-152042263D01*
X126892024Y-152031471D01*
X126875163Y-152018967D01*
X126859610Y-152004870D01*
X126845513Y-151989317D01*
X126833009Y-151972456D01*
X126822217Y-151954452D01*
X126813242Y-151935476D01*
X126806170Y-151915712D01*
X126801070Y-151895350D01*
X126797990Y-151874586D01*
X126796960Y-151853620D01*
X126796960Y-151351420D01*
X126797990Y-151330454D01*
X126801070Y-151309690D01*
X126806170Y-151289328D01*
X126813242Y-151269564D01*
X126822217Y-151250588D01*
X126833009Y-151232584D01*
X126845513Y-151215723D01*
X126859610Y-151200170D01*
X126875163Y-151186073D01*
X126892024Y-151173569D01*
X126910028Y-151162777D01*
X126929004Y-151153802D01*
X126948768Y-151146730D01*
X126969130Y-151141630D01*
X126989894Y-151138550D01*
X127010860Y-151137520D01*
X128033060Y-151137520D01*
X128054026Y-151138550D01*
G37*
G36*
X128054026Y-152408550D02*
G01*
X128074790Y-152411630D01*
X128095152Y-152416730D01*
X128114916Y-152423802D01*
X128133892Y-152432777D01*
X128151896Y-152443569D01*
X128168757Y-152456073D01*
X128184310Y-152470170D01*
X128198407Y-152485723D01*
X128210911Y-152502584D01*
X128221703Y-152520588D01*
X128230678Y-152539564D01*
X128237750Y-152559328D01*
X128242850Y-152579690D01*
X128245930Y-152600454D01*
X128246960Y-152621420D01*
X128246960Y-153123620D01*
X128245930Y-153144586D01*
X128242850Y-153165350D01*
X128237750Y-153185712D01*
X128230678Y-153205476D01*
X128221703Y-153224452D01*
X128210911Y-153242456D01*
X128198407Y-153259317D01*
X128184310Y-153274870D01*
X128168757Y-153288967D01*
X128151896Y-153301471D01*
X128133892Y-153312263D01*
X128114916Y-153321238D01*
X128095152Y-153328310D01*
X128074790Y-153333410D01*
X128054026Y-153336490D01*
X128033060Y-153337520D01*
X127010860Y-153337520D01*
X126989894Y-153336490D01*
X126969130Y-153333410D01*
X126948768Y-153328310D01*
X126929004Y-153321238D01*
X126910028Y-153312263D01*
X126892024Y-153301471D01*
X126875163Y-153288967D01*
X126859610Y-153274870D01*
X126845513Y-153259317D01*
X126833009Y-153242456D01*
X126822217Y-153224452D01*
X126813242Y-153205476D01*
X126806170Y-153185712D01*
X126801070Y-153165350D01*
X126797990Y-153144586D01*
X126796960Y-153123620D01*
X126796960Y-152621420D01*
X126797990Y-152600454D01*
X126801070Y-152579690D01*
X126806170Y-152559328D01*
X126813242Y-152539564D01*
X126822217Y-152520588D01*
X126833009Y-152502584D01*
X126845513Y-152485723D01*
X126859610Y-152470170D01*
X126875163Y-152456073D01*
X126892024Y-152443569D01*
X126910028Y-152432777D01*
X126929004Y-152423802D01*
X126948768Y-152416730D01*
X126969130Y-152411630D01*
X126989894Y-152408550D01*
X127010860Y-152407520D01*
X128033060Y-152407520D01*
X128054026Y-152408550D01*
G37*
G36*
X128054026Y-153678550D02*
G01*
X128074790Y-153681630D01*
X128095152Y-153686730D01*
X128114916Y-153693802D01*
X128133892Y-153702777D01*
X128151896Y-153713569D01*
X128168757Y-153726073D01*
X128184310Y-153740170D01*
X128198407Y-153755723D01*
X128210911Y-153772584D01*
X128221703Y-153790588D01*
X128230678Y-153809564D01*
X128237750Y-153829328D01*
X128242850Y-153849690D01*
X128245930Y-153870454D01*
X128246960Y-153891420D01*
X128246960Y-154393620D01*
X128245930Y-154414586D01*
X128242850Y-154435350D01*
X128237750Y-154455712D01*
X128230678Y-154475476D01*
X128221703Y-154494452D01*
X128210911Y-154512456D01*
X128198407Y-154529317D01*
X128184310Y-154544870D01*
X128168757Y-154558967D01*
X128151896Y-154571471D01*
X128133892Y-154582263D01*
X128114916Y-154591238D01*
X128095152Y-154598310D01*
X128074790Y-154603410D01*
X128054026Y-154606490D01*
X128033060Y-154607520D01*
X127010860Y-154607520D01*
X126989894Y-154606490D01*
X126969130Y-154603410D01*
X126948768Y-154598310D01*
X126929004Y-154591238D01*
X126910028Y-154582263D01*
X126892024Y-154571471D01*
X126875163Y-154558967D01*
X126859610Y-154544870D01*
X126845513Y-154529317D01*
X126833009Y-154512456D01*
X126822217Y-154494452D01*
X126813242Y-154475476D01*
X126806170Y-154455712D01*
X126801070Y-154435350D01*
X126797990Y-154414586D01*
X126796960Y-154393620D01*
X126796960Y-153891420D01*
X126797990Y-153870454D01*
X126801070Y-153849690D01*
X126806170Y-153829328D01*
X126813242Y-153809564D01*
X126822217Y-153790588D01*
X126833009Y-153772584D01*
X126845513Y-153755723D01*
X126859610Y-153740170D01*
X126875163Y-153726073D01*
X126892024Y-153713569D01*
X126910028Y-153702777D01*
X126929004Y-153693802D01*
X126948768Y-153686730D01*
X126969130Y-153681630D01*
X126989894Y-153678550D01*
X127010860Y-153677520D01*
X128033060Y-153677520D01*
X128054026Y-153678550D01*
G37*
G36*
X128054026Y-154948550D02*
G01*
X128074790Y-154951630D01*
X128095152Y-154956730D01*
X128114916Y-154963802D01*
X128133892Y-154972777D01*
X128151896Y-154983569D01*
X128168757Y-154996073D01*
X128184310Y-155010170D01*
X128198407Y-155025723D01*
X128210911Y-155042584D01*
X128221703Y-155060588D01*
X128230678Y-155079564D01*
X128237750Y-155099328D01*
X128242850Y-155119690D01*
X128245930Y-155140454D01*
X128246960Y-155161420D01*
X128246960Y-155663620D01*
X128245930Y-155684586D01*
X128242850Y-155705350D01*
X128237750Y-155725712D01*
X128230678Y-155745476D01*
X128221703Y-155764452D01*
X128210911Y-155782456D01*
X128198407Y-155799317D01*
X128184310Y-155814870D01*
X128168757Y-155828967D01*
X128151896Y-155841471D01*
X128133892Y-155852263D01*
X128114916Y-155861238D01*
X128095152Y-155868310D01*
X128074790Y-155873410D01*
X128054026Y-155876490D01*
X128033060Y-155877520D01*
X127010860Y-155877520D01*
X126989894Y-155876490D01*
X126969130Y-155873410D01*
X126948768Y-155868310D01*
X126929004Y-155861238D01*
X126910028Y-155852263D01*
X126892024Y-155841471D01*
X126875163Y-155828967D01*
X126859610Y-155814870D01*
X126845513Y-155799317D01*
X126833009Y-155782456D01*
X126822217Y-155764452D01*
X126813242Y-155745476D01*
X126806170Y-155725712D01*
X126801070Y-155705350D01*
X126797990Y-155684586D01*
X126796960Y-155663620D01*
X126796960Y-155161420D01*
X126797990Y-155140454D01*
X126801070Y-155119690D01*
X126806170Y-155099328D01*
X126813242Y-155079564D01*
X126822217Y-155060588D01*
X126833009Y-155042584D01*
X126845513Y-155025723D01*
X126859610Y-155010170D01*
X126875163Y-154996073D01*
X126892024Y-154983569D01*
X126910028Y-154972777D01*
X126929004Y-154963802D01*
X126948768Y-154956730D01*
X126969130Y-154951630D01*
X126989894Y-154948550D01*
X127010860Y-154947520D01*
X128033060Y-154947520D01*
X128054026Y-154948550D01*
G37*
G36*
X128054026Y-156218550D02*
G01*
X128074790Y-156221630D01*
X128095152Y-156226730D01*
X128114916Y-156233802D01*
X128133892Y-156242777D01*
X128151896Y-156253569D01*
X128168757Y-156266073D01*
X128184310Y-156280170D01*
X128198407Y-156295723D01*
X128210911Y-156312584D01*
X128221703Y-156330588D01*
X128230678Y-156349564D01*
X128237750Y-156369328D01*
X128242850Y-156389690D01*
X128245930Y-156410454D01*
X128246960Y-156431420D01*
X128246960Y-156933620D01*
X128245930Y-156954586D01*
X128242850Y-156975350D01*
X128237750Y-156995712D01*
X128230678Y-157015476D01*
X128221703Y-157034452D01*
X128210911Y-157052456D01*
X128198407Y-157069317D01*
X128184310Y-157084870D01*
X128168757Y-157098967D01*
X128151896Y-157111471D01*
X128133892Y-157122263D01*
X128114916Y-157131238D01*
X128095152Y-157138310D01*
X128074790Y-157143410D01*
X128054026Y-157146490D01*
X128033060Y-157147520D01*
X127010860Y-157147520D01*
X126989894Y-157146490D01*
X126969130Y-157143410D01*
X126948768Y-157138310D01*
X126929004Y-157131238D01*
X126910028Y-157122263D01*
X126892024Y-157111471D01*
X126875163Y-157098967D01*
X126859610Y-157084870D01*
X126845513Y-157069317D01*
X126833009Y-157052456D01*
X126822217Y-157034452D01*
X126813242Y-157015476D01*
X126806170Y-156995712D01*
X126801070Y-156975350D01*
X126797990Y-156954586D01*
X126796960Y-156933620D01*
X126796960Y-156431420D01*
X126797990Y-156410454D01*
X126801070Y-156389690D01*
X126806170Y-156369328D01*
X126813242Y-156349564D01*
X126822217Y-156330588D01*
X126833009Y-156312584D01*
X126845513Y-156295723D01*
X126859610Y-156280170D01*
X126875163Y-156266073D01*
X126892024Y-156253569D01*
X126910028Y-156242777D01*
X126929004Y-156233802D01*
X126948768Y-156226730D01*
X126969130Y-156221630D01*
X126989894Y-156218550D01*
X127010860Y-156217520D01*
X128033060Y-156217520D01*
X128054026Y-156218550D01*
G37*
G36*
X128054026Y-157488550D02*
G01*
X128074790Y-157491630D01*
X128095152Y-157496730D01*
X128114916Y-157503802D01*
X128133892Y-157512777D01*
X128151896Y-157523569D01*
X128168757Y-157536073D01*
X128184310Y-157550170D01*
X128198407Y-157565723D01*
X128210911Y-157582584D01*
X128221703Y-157600588D01*
X128230678Y-157619564D01*
X128237750Y-157639328D01*
X128242850Y-157659690D01*
X128245930Y-157680454D01*
X128246960Y-157701420D01*
X128246960Y-158203620D01*
X128245930Y-158224586D01*
X128242850Y-158245350D01*
X128237750Y-158265712D01*
X128230678Y-158285476D01*
X128221703Y-158304452D01*
X128210911Y-158322456D01*
X128198407Y-158339317D01*
X128184310Y-158354870D01*
X128168757Y-158368967D01*
X128151896Y-158381471D01*
X128133892Y-158392263D01*
X128114916Y-158401238D01*
X128095152Y-158408310D01*
X128074790Y-158413410D01*
X128054026Y-158416490D01*
X128033060Y-158417520D01*
X127010860Y-158417520D01*
X126989894Y-158416490D01*
X126969130Y-158413410D01*
X126948768Y-158408310D01*
X126929004Y-158401238D01*
X126910028Y-158392263D01*
X126892024Y-158381471D01*
X126875163Y-158368967D01*
X126859610Y-158354870D01*
X126845513Y-158339317D01*
X126833009Y-158322456D01*
X126822217Y-158304452D01*
X126813242Y-158285476D01*
X126806170Y-158265712D01*
X126801070Y-158245350D01*
X126797990Y-158224586D01*
X126796960Y-158203620D01*
X126796960Y-157701420D01*
X126797990Y-157680454D01*
X126801070Y-157659690D01*
X126806170Y-157639328D01*
X126813242Y-157619564D01*
X126822217Y-157600588D01*
X126833009Y-157582584D01*
X126845513Y-157565723D01*
X126859610Y-157550170D01*
X126875163Y-157536073D01*
X126892024Y-157523569D01*
X126910028Y-157512777D01*
X126929004Y-157503802D01*
X126948768Y-157496730D01*
X126969130Y-157491630D01*
X126989894Y-157488550D01*
X127010860Y-157487520D01*
X128033060Y-157487520D01*
X128054026Y-157488550D01*
G37*
G36*
X128054026Y-158758550D02*
G01*
X128074790Y-158761630D01*
X128095152Y-158766730D01*
X128114916Y-158773802D01*
X128133892Y-158782777D01*
X128151896Y-158793569D01*
X128168757Y-158806073D01*
X128184310Y-158820170D01*
X128198407Y-158835723D01*
X128210911Y-158852584D01*
X128221703Y-158870588D01*
X128230678Y-158889564D01*
X128237750Y-158909328D01*
X128242850Y-158929690D01*
X128245930Y-158950454D01*
X128246960Y-158971420D01*
X128246960Y-159473620D01*
X128245930Y-159494586D01*
X128242850Y-159515350D01*
X128237750Y-159535712D01*
X128230678Y-159555476D01*
X128221703Y-159574452D01*
X128210911Y-159592456D01*
X128198407Y-159609317D01*
X128184310Y-159624870D01*
X128168757Y-159638967D01*
X128151896Y-159651471D01*
X128133892Y-159662263D01*
X128114916Y-159671238D01*
X128095152Y-159678310D01*
X128074790Y-159683410D01*
X128054026Y-159686490D01*
X128033060Y-159687520D01*
X127010860Y-159687520D01*
X126989894Y-159686490D01*
X126969130Y-159683410D01*
X126948768Y-159678310D01*
X126929004Y-159671238D01*
X126910028Y-159662263D01*
X126892024Y-159651471D01*
X126875163Y-159638967D01*
X126859610Y-159624870D01*
X126845513Y-159609317D01*
X126833009Y-159592456D01*
X126822217Y-159574452D01*
X126813242Y-159555476D01*
X126806170Y-159535712D01*
X126801070Y-159515350D01*
X126797990Y-159494586D01*
X126796960Y-159473620D01*
X126796960Y-158971420D01*
X126797990Y-158950454D01*
X126801070Y-158929690D01*
X126806170Y-158909328D01*
X126813242Y-158889564D01*
X126822217Y-158870588D01*
X126833009Y-158852584D01*
X126845513Y-158835723D01*
X126859610Y-158820170D01*
X126875163Y-158806073D01*
X126892024Y-158793569D01*
X126910028Y-158782777D01*
X126929004Y-158773802D01*
X126948768Y-158766730D01*
X126969130Y-158761630D01*
X126989894Y-158758550D01*
X127010860Y-158757520D01*
X128033060Y-158757520D01*
X128054026Y-158758550D01*
G37*
G36*
X128054026Y-160028550D02*
G01*
X128074790Y-160031630D01*
X128095152Y-160036730D01*
X128114916Y-160043802D01*
X128133892Y-160052777D01*
X128151896Y-160063569D01*
X128168757Y-160076073D01*
X128184310Y-160090170D01*
X128198407Y-160105723D01*
X128210911Y-160122584D01*
X128221703Y-160140588D01*
X128230678Y-160159564D01*
X128237750Y-160179328D01*
X128242850Y-160199690D01*
X128245930Y-160220454D01*
X128246960Y-160241420D01*
X128246960Y-160743620D01*
X128245930Y-160764586D01*
X128242850Y-160785350D01*
X128237750Y-160805712D01*
X128230678Y-160825476D01*
X128221703Y-160844452D01*
X128210911Y-160862456D01*
X128198407Y-160879317D01*
X128184310Y-160894870D01*
X128168757Y-160908967D01*
X128151896Y-160921471D01*
X128133892Y-160932263D01*
X128114916Y-160941238D01*
X128095152Y-160948310D01*
X128074790Y-160953410D01*
X128054026Y-160956490D01*
X128033060Y-160957520D01*
X127010860Y-160957520D01*
X126989894Y-160956490D01*
X126969130Y-160953410D01*
X126948768Y-160948310D01*
X126929004Y-160941238D01*
X126910028Y-160932263D01*
X126892024Y-160921471D01*
X126875163Y-160908967D01*
X126859610Y-160894870D01*
X126845513Y-160879317D01*
X126833009Y-160862456D01*
X126822217Y-160844452D01*
X126813242Y-160825476D01*
X126806170Y-160805712D01*
X126801070Y-160785350D01*
X126797990Y-160764586D01*
X126796960Y-160743620D01*
X126796960Y-160241420D01*
X126797990Y-160220454D01*
X126801070Y-160199690D01*
X126806170Y-160179328D01*
X126813242Y-160159564D01*
X126822217Y-160140588D01*
X126833009Y-160122584D01*
X126845513Y-160105723D01*
X126859610Y-160090170D01*
X126875163Y-160076073D01*
X126892024Y-160063569D01*
X126910028Y-160052777D01*
X126929004Y-160043802D01*
X126948768Y-160036730D01*
X126969130Y-160031630D01*
X126989894Y-160028550D01*
X127010860Y-160027520D01*
X128033060Y-160027520D01*
X128054026Y-160028550D01*
G37*
G36*
X128054026Y-161298550D02*
G01*
X128074790Y-161301630D01*
X128095152Y-161306730D01*
X128114916Y-161313802D01*
X128133892Y-161322777D01*
X128151896Y-161333569D01*
X128168757Y-161346073D01*
X128184310Y-161360170D01*
X128198407Y-161375723D01*
X128210911Y-161392584D01*
X128221703Y-161410588D01*
X128230678Y-161429564D01*
X128237750Y-161449328D01*
X128242850Y-161469690D01*
X128245930Y-161490454D01*
X128246960Y-161511420D01*
X128246960Y-162013620D01*
X128245930Y-162034586D01*
X128242850Y-162055350D01*
X128237750Y-162075712D01*
X128230678Y-162095476D01*
X128221703Y-162114452D01*
X128210911Y-162132456D01*
X128198407Y-162149317D01*
X128184310Y-162164870D01*
X128168757Y-162178967D01*
X128151896Y-162191471D01*
X128133892Y-162202263D01*
X128114916Y-162211238D01*
X128095152Y-162218310D01*
X128074790Y-162223410D01*
X128054026Y-162226490D01*
X128033060Y-162227520D01*
X127010860Y-162227520D01*
X126989894Y-162226490D01*
X126969130Y-162223410D01*
X126948768Y-162218310D01*
X126929004Y-162211238D01*
X126910028Y-162202263D01*
X126892024Y-162191471D01*
X126875163Y-162178967D01*
X126859610Y-162164870D01*
X126845513Y-162149317D01*
X126833009Y-162132456D01*
X126822217Y-162114452D01*
X126813242Y-162095476D01*
X126806170Y-162075712D01*
X126801070Y-162055350D01*
X126797990Y-162034586D01*
X126796960Y-162013620D01*
X126796960Y-161511420D01*
X126797990Y-161490454D01*
X126801070Y-161469690D01*
X126806170Y-161449328D01*
X126813242Y-161429564D01*
X126822217Y-161410588D01*
X126833009Y-161392584D01*
X126845513Y-161375723D01*
X126859610Y-161360170D01*
X126875163Y-161346073D01*
X126892024Y-161333569D01*
X126910028Y-161322777D01*
X126929004Y-161313802D01*
X126948768Y-161306730D01*
X126969130Y-161301630D01*
X126989894Y-161298550D01*
X127010860Y-161297520D01*
X128033060Y-161297520D01*
X128054026Y-161298550D01*
G37*
G36*
X128054026Y-162568550D02*
G01*
X128074790Y-162571630D01*
X128095152Y-162576730D01*
X128114916Y-162583802D01*
X128133892Y-162592777D01*
X128151896Y-162603569D01*
X128168757Y-162616073D01*
X128184310Y-162630170D01*
X128198407Y-162645723D01*
X128210911Y-162662584D01*
X128221703Y-162680588D01*
X128230678Y-162699564D01*
X128237750Y-162719328D01*
X128242850Y-162739690D01*
X128245930Y-162760454D01*
X128246960Y-162781420D01*
X128246960Y-163283620D01*
X128245930Y-163304586D01*
X128242850Y-163325350D01*
X128237750Y-163345712D01*
X128230678Y-163365476D01*
X128221703Y-163384452D01*
X128210911Y-163402456D01*
X128198407Y-163419317D01*
X128184310Y-163434870D01*
X128168757Y-163448967D01*
X128151896Y-163461471D01*
X128133892Y-163472263D01*
X128114916Y-163481238D01*
X128095152Y-163488310D01*
X128074790Y-163493410D01*
X128054026Y-163496490D01*
X128033060Y-163497520D01*
X127010860Y-163497520D01*
X126989894Y-163496490D01*
X126969130Y-163493410D01*
X126948768Y-163488310D01*
X126929004Y-163481238D01*
X126910028Y-163472263D01*
X126892024Y-163461471D01*
X126875163Y-163448967D01*
X126859610Y-163434870D01*
X126845513Y-163419317D01*
X126833009Y-163402456D01*
X126822217Y-163384452D01*
X126813242Y-163365476D01*
X126806170Y-163345712D01*
X126801070Y-163325350D01*
X126797990Y-163304586D01*
X126796960Y-163283620D01*
X126796960Y-162781420D01*
X126797990Y-162760454D01*
X126801070Y-162739690D01*
X126806170Y-162719328D01*
X126813242Y-162699564D01*
X126822217Y-162680588D01*
X126833009Y-162662584D01*
X126845513Y-162645723D01*
X126859610Y-162630170D01*
X126875163Y-162616073D01*
X126892024Y-162603569D01*
X126910028Y-162592777D01*
X126929004Y-162583802D01*
X126948768Y-162576730D01*
X126969130Y-162571630D01*
X126989894Y-162568550D01*
X127010860Y-162567520D01*
X128033060Y-162567520D01*
X128054026Y-162568550D01*
G37*
G36*
X128054026Y-163838550D02*
G01*
X128074790Y-163841630D01*
X128095152Y-163846730D01*
X128114916Y-163853802D01*
X128133892Y-163862777D01*
X128151896Y-163873569D01*
X128168757Y-163886073D01*
X128184310Y-163900170D01*
X128198407Y-163915723D01*
X128210911Y-163932584D01*
X128221703Y-163950588D01*
X128230678Y-163969564D01*
X128237750Y-163989328D01*
X128242850Y-164009690D01*
X128245930Y-164030454D01*
X128246960Y-164051420D01*
X128246960Y-164553620D01*
X128245930Y-164574586D01*
X128242850Y-164595350D01*
X128237750Y-164615712D01*
X128230678Y-164635476D01*
X128221703Y-164654452D01*
X128210911Y-164672456D01*
X128198407Y-164689317D01*
X128184310Y-164704870D01*
X128168757Y-164718967D01*
X128151896Y-164731471D01*
X128133892Y-164742263D01*
X128114916Y-164751238D01*
X128095152Y-164758310D01*
X128074790Y-164763410D01*
X128054026Y-164766490D01*
X128033060Y-164767520D01*
X127010860Y-164767520D01*
X126989894Y-164766490D01*
X126969130Y-164763410D01*
X126948768Y-164758310D01*
X126929004Y-164751238D01*
X126910028Y-164742263D01*
X126892024Y-164731471D01*
X126875163Y-164718967D01*
X126859610Y-164704870D01*
X126845513Y-164689317D01*
X126833009Y-164672456D01*
X126822217Y-164654452D01*
X126813242Y-164635476D01*
X126806170Y-164615712D01*
X126801070Y-164595350D01*
X126797990Y-164574586D01*
X126796960Y-164553620D01*
X126796960Y-164051420D01*
X126797990Y-164030454D01*
X126801070Y-164009690D01*
X126806170Y-163989328D01*
X126813242Y-163969564D01*
X126822217Y-163950588D01*
X126833009Y-163932584D01*
X126845513Y-163915723D01*
X126859610Y-163900170D01*
X126875163Y-163886073D01*
X126892024Y-163873569D01*
X126910028Y-163862777D01*
X126929004Y-163853802D01*
X126948768Y-163846730D01*
X126969130Y-163841630D01*
X126989894Y-163838550D01*
X127010860Y-163837520D01*
X128033060Y-163837520D01*
X128054026Y-163838550D01*
G37*
G36*
X128054026Y-165108550D02*
G01*
X128074790Y-165111630D01*
X128095152Y-165116730D01*
X128114916Y-165123802D01*
X128133892Y-165132777D01*
X128151896Y-165143569D01*
X128168757Y-165156073D01*
X128184310Y-165170170D01*
X128198407Y-165185723D01*
X128210911Y-165202584D01*
X128221703Y-165220588D01*
X128230678Y-165239564D01*
X128237750Y-165259328D01*
X128242850Y-165279690D01*
X128245930Y-165300454D01*
X128246960Y-165321420D01*
X128246960Y-165823620D01*
X128245930Y-165844586D01*
X128242850Y-165865350D01*
X128237750Y-165885712D01*
X128230678Y-165905476D01*
X128221703Y-165924452D01*
X128210911Y-165942456D01*
X128198407Y-165959317D01*
X128184310Y-165974870D01*
X128168757Y-165988967D01*
X128151896Y-166001471D01*
X128133892Y-166012263D01*
X128114916Y-166021238D01*
X128095152Y-166028310D01*
X128074790Y-166033410D01*
X128054026Y-166036490D01*
X128033060Y-166037520D01*
X127010860Y-166037520D01*
X126989894Y-166036490D01*
X126969130Y-166033410D01*
X126948768Y-166028310D01*
X126929004Y-166021238D01*
X126910028Y-166012263D01*
X126892024Y-166001471D01*
X126875163Y-165988967D01*
X126859610Y-165974870D01*
X126845513Y-165959317D01*
X126833009Y-165942456D01*
X126822217Y-165924452D01*
X126813242Y-165905476D01*
X126806170Y-165885712D01*
X126801070Y-165865350D01*
X126797990Y-165844586D01*
X126796960Y-165823620D01*
X126796960Y-165321420D01*
X126797990Y-165300454D01*
X126801070Y-165279690D01*
X126806170Y-165259328D01*
X126813242Y-165239564D01*
X126822217Y-165220588D01*
X126833009Y-165202584D01*
X126845513Y-165185723D01*
X126859610Y-165170170D01*
X126875163Y-165156073D01*
X126892024Y-165143569D01*
X126910028Y-165132777D01*
X126929004Y-165123802D01*
X126948768Y-165116730D01*
X126969130Y-165111630D01*
X126989894Y-165108550D01*
X127010860Y-165107520D01*
X128033060Y-165107520D01*
X128054026Y-165108550D01*
G37*
G36*
X145674026Y-165108550D02*
G01*
X145694790Y-165111630D01*
X145715152Y-165116730D01*
X145734916Y-165123802D01*
X145753892Y-165132777D01*
X145771896Y-165143569D01*
X145788757Y-165156073D01*
X145804310Y-165170170D01*
X145818407Y-165185723D01*
X145830911Y-165202584D01*
X145841703Y-165220588D01*
X145850678Y-165239564D01*
X145857750Y-165259328D01*
X145862850Y-165279690D01*
X145865930Y-165300454D01*
X145866960Y-165321420D01*
X145866960Y-165823620D01*
X145865930Y-165844586D01*
X145862850Y-165865350D01*
X145857750Y-165885712D01*
X145850678Y-165905476D01*
X145841703Y-165924452D01*
X145830911Y-165942456D01*
X145818407Y-165959317D01*
X145804310Y-165974870D01*
X145788757Y-165988967D01*
X145771896Y-166001471D01*
X145753892Y-166012263D01*
X145734916Y-166021238D01*
X145715152Y-166028310D01*
X145694790Y-166033410D01*
X145674026Y-166036490D01*
X145653060Y-166037520D01*
X144630860Y-166037520D01*
X144609894Y-166036490D01*
X144589130Y-166033410D01*
X144568768Y-166028310D01*
X144549004Y-166021238D01*
X144530028Y-166012263D01*
X144512024Y-166001471D01*
X144495163Y-165988967D01*
X144479610Y-165974870D01*
X144465513Y-165959317D01*
X144453009Y-165942456D01*
X144442217Y-165924452D01*
X144433242Y-165905476D01*
X144426170Y-165885712D01*
X144421070Y-165865350D01*
X144417990Y-165844586D01*
X144416960Y-165823620D01*
X144416960Y-165321420D01*
X144417990Y-165300454D01*
X144421070Y-165279690D01*
X144426170Y-165259328D01*
X144433242Y-165239564D01*
X144442217Y-165220588D01*
X144453009Y-165202584D01*
X144465513Y-165185723D01*
X144479610Y-165170170D01*
X144495163Y-165156073D01*
X144512024Y-165143569D01*
X144530028Y-165132777D01*
X144549004Y-165123802D01*
X144568768Y-165116730D01*
X144589130Y-165111630D01*
X144609894Y-165108550D01*
X144630860Y-165107520D01*
X145653060Y-165107520D01*
X145674026Y-165108550D01*
G37*
G36*
X145674026Y-163838550D02*
G01*
X145694790Y-163841630D01*
X145715152Y-163846730D01*
X145734916Y-163853802D01*
X145753892Y-163862777D01*
X145771896Y-163873569D01*
X145788757Y-163886073D01*
X145804310Y-163900170D01*
X145818407Y-163915723D01*
X145830911Y-163932584D01*
X145841703Y-163950588D01*
X145850678Y-163969564D01*
X145857750Y-163989328D01*
X145862850Y-164009690D01*
X145865930Y-164030454D01*
X145866960Y-164051420D01*
X145866960Y-164553620D01*
X145865930Y-164574586D01*
X145862850Y-164595350D01*
X145857750Y-164615712D01*
X145850678Y-164635476D01*
X145841703Y-164654452D01*
X145830911Y-164672456D01*
X145818407Y-164689317D01*
X145804310Y-164704870D01*
X145788757Y-164718967D01*
X145771896Y-164731471D01*
X145753892Y-164742263D01*
X145734916Y-164751238D01*
X145715152Y-164758310D01*
X145694790Y-164763410D01*
X145674026Y-164766490D01*
X145653060Y-164767520D01*
X144630860Y-164767520D01*
X144609894Y-164766490D01*
X144589130Y-164763410D01*
X144568768Y-164758310D01*
X144549004Y-164751238D01*
X144530028Y-164742263D01*
X144512024Y-164731471D01*
X144495163Y-164718967D01*
X144479610Y-164704870D01*
X144465513Y-164689317D01*
X144453009Y-164672456D01*
X144442217Y-164654452D01*
X144433242Y-164635476D01*
X144426170Y-164615712D01*
X144421070Y-164595350D01*
X144417990Y-164574586D01*
X144416960Y-164553620D01*
X144416960Y-164051420D01*
X144417990Y-164030454D01*
X144421070Y-164009690D01*
X144426170Y-163989328D01*
X144433242Y-163969564D01*
X144442217Y-163950588D01*
X144453009Y-163932584D01*
X144465513Y-163915723D01*
X144479610Y-163900170D01*
X144495163Y-163886073D01*
X144512024Y-163873569D01*
X144530028Y-163862777D01*
X144549004Y-163853802D01*
X144568768Y-163846730D01*
X144589130Y-163841630D01*
X144609894Y-163838550D01*
X144630860Y-163837520D01*
X145653060Y-163837520D01*
X145674026Y-163838550D01*
G37*
G36*
X145674026Y-162568550D02*
G01*
X145694790Y-162571630D01*
X145715152Y-162576730D01*
X145734916Y-162583802D01*
X145753892Y-162592777D01*
X145771896Y-162603569D01*
X145788757Y-162616073D01*
X145804310Y-162630170D01*
X145818407Y-162645723D01*
X145830911Y-162662584D01*
X145841703Y-162680588D01*
X145850678Y-162699564D01*
X145857750Y-162719328D01*
X145862850Y-162739690D01*
X145865930Y-162760454D01*
X145866960Y-162781420D01*
X145866960Y-163283620D01*
X145865930Y-163304586D01*
X145862850Y-163325350D01*
X145857750Y-163345712D01*
X145850678Y-163365476D01*
X145841703Y-163384452D01*
X145830911Y-163402456D01*
X145818407Y-163419317D01*
X145804310Y-163434870D01*
X145788757Y-163448967D01*
X145771896Y-163461471D01*
X145753892Y-163472263D01*
X145734916Y-163481238D01*
X145715152Y-163488310D01*
X145694790Y-163493410D01*
X145674026Y-163496490D01*
X145653060Y-163497520D01*
X144630860Y-163497520D01*
X144609894Y-163496490D01*
X144589130Y-163493410D01*
X144568768Y-163488310D01*
X144549004Y-163481238D01*
X144530028Y-163472263D01*
X144512024Y-163461471D01*
X144495163Y-163448967D01*
X144479610Y-163434870D01*
X144465513Y-163419317D01*
X144453009Y-163402456D01*
X144442217Y-163384452D01*
X144433242Y-163365476D01*
X144426170Y-163345712D01*
X144421070Y-163325350D01*
X144417990Y-163304586D01*
X144416960Y-163283620D01*
X144416960Y-162781420D01*
X144417990Y-162760454D01*
X144421070Y-162739690D01*
X144426170Y-162719328D01*
X144433242Y-162699564D01*
X144442217Y-162680588D01*
X144453009Y-162662584D01*
X144465513Y-162645723D01*
X144479610Y-162630170D01*
X144495163Y-162616073D01*
X144512024Y-162603569D01*
X144530028Y-162592777D01*
X144549004Y-162583802D01*
X144568768Y-162576730D01*
X144589130Y-162571630D01*
X144609894Y-162568550D01*
X144630860Y-162567520D01*
X145653060Y-162567520D01*
X145674026Y-162568550D01*
G37*
G36*
X145674026Y-161298550D02*
G01*
X145694790Y-161301630D01*
X145715152Y-161306730D01*
X145734916Y-161313802D01*
X145753892Y-161322777D01*
X145771896Y-161333569D01*
X145788757Y-161346073D01*
X145804310Y-161360170D01*
X145818407Y-161375723D01*
X145830911Y-161392584D01*
X145841703Y-161410588D01*
X145850678Y-161429564D01*
X145857750Y-161449328D01*
X145862850Y-161469690D01*
X145865930Y-161490454D01*
X145866960Y-161511420D01*
X145866960Y-162013620D01*
X145865930Y-162034586D01*
X145862850Y-162055350D01*
X145857750Y-162075712D01*
X145850678Y-162095476D01*
X145841703Y-162114452D01*
X145830911Y-162132456D01*
X145818407Y-162149317D01*
X145804310Y-162164870D01*
X145788757Y-162178967D01*
X145771896Y-162191471D01*
X145753892Y-162202263D01*
X145734916Y-162211238D01*
X145715152Y-162218310D01*
X145694790Y-162223410D01*
X145674026Y-162226490D01*
X145653060Y-162227520D01*
X144630860Y-162227520D01*
X144609894Y-162226490D01*
X144589130Y-162223410D01*
X144568768Y-162218310D01*
X144549004Y-162211238D01*
X144530028Y-162202263D01*
X144512024Y-162191471D01*
X144495163Y-162178967D01*
X144479610Y-162164870D01*
X144465513Y-162149317D01*
X144453009Y-162132456D01*
X144442217Y-162114452D01*
X144433242Y-162095476D01*
X144426170Y-162075712D01*
X144421070Y-162055350D01*
X144417990Y-162034586D01*
X144416960Y-162013620D01*
X144416960Y-161511420D01*
X144417990Y-161490454D01*
X144421070Y-161469690D01*
X144426170Y-161449328D01*
X144433242Y-161429564D01*
X144442217Y-161410588D01*
X144453009Y-161392584D01*
X144465513Y-161375723D01*
X144479610Y-161360170D01*
X144495163Y-161346073D01*
X144512024Y-161333569D01*
X144530028Y-161322777D01*
X144549004Y-161313802D01*
X144568768Y-161306730D01*
X144589130Y-161301630D01*
X144609894Y-161298550D01*
X144630860Y-161297520D01*
X145653060Y-161297520D01*
X145674026Y-161298550D01*
G37*
G36*
X145674026Y-160028550D02*
G01*
X145694790Y-160031630D01*
X145715152Y-160036730D01*
X145734916Y-160043802D01*
X145753892Y-160052777D01*
X145771896Y-160063569D01*
X145788757Y-160076073D01*
X145804310Y-160090170D01*
X145818407Y-160105723D01*
X145830911Y-160122584D01*
X145841703Y-160140588D01*
X145850678Y-160159564D01*
X145857750Y-160179328D01*
X145862850Y-160199690D01*
X145865930Y-160220454D01*
X145866960Y-160241420D01*
X145866960Y-160743620D01*
X145865930Y-160764586D01*
X145862850Y-160785350D01*
X145857750Y-160805712D01*
X145850678Y-160825476D01*
X145841703Y-160844452D01*
X145830911Y-160862456D01*
X145818407Y-160879317D01*
X145804310Y-160894870D01*
X145788757Y-160908967D01*
X145771896Y-160921471D01*
X145753892Y-160932263D01*
X145734916Y-160941238D01*
X145715152Y-160948310D01*
X145694790Y-160953410D01*
X145674026Y-160956490D01*
X145653060Y-160957520D01*
X144630860Y-160957520D01*
X144609894Y-160956490D01*
X144589130Y-160953410D01*
X144568768Y-160948310D01*
X144549004Y-160941238D01*
X144530028Y-160932263D01*
X144512024Y-160921471D01*
X144495163Y-160908967D01*
X144479610Y-160894870D01*
X144465513Y-160879317D01*
X144453009Y-160862456D01*
X144442217Y-160844452D01*
X144433242Y-160825476D01*
X144426170Y-160805712D01*
X144421070Y-160785350D01*
X144417990Y-160764586D01*
X144416960Y-160743620D01*
X144416960Y-160241420D01*
X144417990Y-160220454D01*
X144421070Y-160199690D01*
X144426170Y-160179328D01*
X144433242Y-160159564D01*
X144442217Y-160140588D01*
X144453009Y-160122584D01*
X144465513Y-160105723D01*
X144479610Y-160090170D01*
X144495163Y-160076073D01*
X144512024Y-160063569D01*
X144530028Y-160052777D01*
X144549004Y-160043802D01*
X144568768Y-160036730D01*
X144589130Y-160031630D01*
X144609894Y-160028550D01*
X144630860Y-160027520D01*
X145653060Y-160027520D01*
X145674026Y-160028550D01*
G37*
G36*
X145674026Y-158758550D02*
G01*
X145694790Y-158761630D01*
X145715152Y-158766730D01*
X145734916Y-158773802D01*
X145753892Y-158782777D01*
X145771896Y-158793569D01*
X145788757Y-158806073D01*
X145804310Y-158820170D01*
X145818407Y-158835723D01*
X145830911Y-158852584D01*
X145841703Y-158870588D01*
X145850678Y-158889564D01*
X145857750Y-158909328D01*
X145862850Y-158929690D01*
X145865930Y-158950454D01*
X145866960Y-158971420D01*
X145866960Y-159473620D01*
X145865930Y-159494586D01*
X145862850Y-159515350D01*
X145857750Y-159535712D01*
X145850678Y-159555476D01*
X145841703Y-159574452D01*
X145830911Y-159592456D01*
X145818407Y-159609317D01*
X145804310Y-159624870D01*
X145788757Y-159638967D01*
X145771896Y-159651471D01*
X145753892Y-159662263D01*
X145734916Y-159671238D01*
X145715152Y-159678310D01*
X145694790Y-159683410D01*
X145674026Y-159686490D01*
X145653060Y-159687520D01*
X144630860Y-159687520D01*
X144609894Y-159686490D01*
X144589130Y-159683410D01*
X144568768Y-159678310D01*
X144549004Y-159671238D01*
X144530028Y-159662263D01*
X144512024Y-159651471D01*
X144495163Y-159638967D01*
X144479610Y-159624870D01*
X144465513Y-159609317D01*
X144453009Y-159592456D01*
X144442217Y-159574452D01*
X144433242Y-159555476D01*
X144426170Y-159535712D01*
X144421070Y-159515350D01*
X144417990Y-159494586D01*
X144416960Y-159473620D01*
X144416960Y-158971420D01*
X144417990Y-158950454D01*
X144421070Y-158929690D01*
X144426170Y-158909328D01*
X144433242Y-158889564D01*
X144442217Y-158870588D01*
X144453009Y-158852584D01*
X144465513Y-158835723D01*
X144479610Y-158820170D01*
X144495163Y-158806073D01*
X144512024Y-158793569D01*
X144530028Y-158782777D01*
X144549004Y-158773802D01*
X144568768Y-158766730D01*
X144589130Y-158761630D01*
X144609894Y-158758550D01*
X144630860Y-158757520D01*
X145653060Y-158757520D01*
X145674026Y-158758550D01*
G37*
G36*
X145674026Y-157488550D02*
G01*
X145694790Y-157491630D01*
X145715152Y-157496730D01*
X145734916Y-157503802D01*
X145753892Y-157512777D01*
X145771896Y-157523569D01*
X145788757Y-157536073D01*
X145804310Y-157550170D01*
X145818407Y-157565723D01*
X145830911Y-157582584D01*
X145841703Y-157600588D01*
X145850678Y-157619564D01*
X145857750Y-157639328D01*
X145862850Y-157659690D01*
X145865930Y-157680454D01*
X145866960Y-157701420D01*
X145866960Y-158203620D01*
X145865930Y-158224586D01*
X145862850Y-158245350D01*
X145857750Y-158265712D01*
X145850678Y-158285476D01*
X145841703Y-158304452D01*
X145830911Y-158322456D01*
X145818407Y-158339317D01*
X145804310Y-158354870D01*
X145788757Y-158368967D01*
X145771896Y-158381471D01*
X145753892Y-158392263D01*
X145734916Y-158401238D01*
X145715152Y-158408310D01*
X145694790Y-158413410D01*
X145674026Y-158416490D01*
X145653060Y-158417520D01*
X144630860Y-158417520D01*
X144609894Y-158416490D01*
X144589130Y-158413410D01*
X144568768Y-158408310D01*
X144549004Y-158401238D01*
X144530028Y-158392263D01*
X144512024Y-158381471D01*
X144495163Y-158368967D01*
X144479610Y-158354870D01*
X144465513Y-158339317D01*
X144453009Y-158322456D01*
X144442217Y-158304452D01*
X144433242Y-158285476D01*
X144426170Y-158265712D01*
X144421070Y-158245350D01*
X144417990Y-158224586D01*
X144416960Y-158203620D01*
X144416960Y-157701420D01*
X144417990Y-157680454D01*
X144421070Y-157659690D01*
X144426170Y-157639328D01*
X144433242Y-157619564D01*
X144442217Y-157600588D01*
X144453009Y-157582584D01*
X144465513Y-157565723D01*
X144479610Y-157550170D01*
X144495163Y-157536073D01*
X144512024Y-157523569D01*
X144530028Y-157512777D01*
X144549004Y-157503802D01*
X144568768Y-157496730D01*
X144589130Y-157491630D01*
X144609894Y-157488550D01*
X144630860Y-157487520D01*
X145653060Y-157487520D01*
X145674026Y-157488550D01*
G37*
G36*
X145674026Y-156218550D02*
G01*
X145694790Y-156221630D01*
X145715152Y-156226730D01*
X145734916Y-156233802D01*
X145753892Y-156242777D01*
X145771896Y-156253569D01*
X145788757Y-156266073D01*
X145804310Y-156280170D01*
X145818407Y-156295723D01*
X145830911Y-156312584D01*
X145841703Y-156330588D01*
X145850678Y-156349564D01*
X145857750Y-156369328D01*
X145862850Y-156389690D01*
X145865930Y-156410454D01*
X145866960Y-156431420D01*
X145866960Y-156933620D01*
X145865930Y-156954586D01*
X145862850Y-156975350D01*
X145857750Y-156995712D01*
X145850678Y-157015476D01*
X145841703Y-157034452D01*
X145830911Y-157052456D01*
X145818407Y-157069317D01*
X145804310Y-157084870D01*
X145788757Y-157098967D01*
X145771896Y-157111471D01*
X145753892Y-157122263D01*
X145734916Y-157131238D01*
X145715152Y-157138310D01*
X145694790Y-157143410D01*
X145674026Y-157146490D01*
X145653060Y-157147520D01*
X144630860Y-157147520D01*
X144609894Y-157146490D01*
X144589130Y-157143410D01*
X144568768Y-157138310D01*
X144549004Y-157131238D01*
X144530028Y-157122263D01*
X144512024Y-157111471D01*
X144495163Y-157098967D01*
X144479610Y-157084870D01*
X144465513Y-157069317D01*
X144453009Y-157052456D01*
X144442217Y-157034452D01*
X144433242Y-157015476D01*
X144426170Y-156995712D01*
X144421070Y-156975350D01*
X144417990Y-156954586D01*
X144416960Y-156933620D01*
X144416960Y-156431420D01*
X144417990Y-156410454D01*
X144421070Y-156389690D01*
X144426170Y-156369328D01*
X144433242Y-156349564D01*
X144442217Y-156330588D01*
X144453009Y-156312584D01*
X144465513Y-156295723D01*
X144479610Y-156280170D01*
X144495163Y-156266073D01*
X144512024Y-156253569D01*
X144530028Y-156242777D01*
X144549004Y-156233802D01*
X144568768Y-156226730D01*
X144589130Y-156221630D01*
X144609894Y-156218550D01*
X144630860Y-156217520D01*
X145653060Y-156217520D01*
X145674026Y-156218550D01*
G37*
G36*
X145674026Y-154948550D02*
G01*
X145694790Y-154951630D01*
X145715152Y-154956730D01*
X145734916Y-154963802D01*
X145753892Y-154972777D01*
X145771896Y-154983569D01*
X145788757Y-154996073D01*
X145804310Y-155010170D01*
X145818407Y-155025723D01*
X145830911Y-155042584D01*
X145841703Y-155060588D01*
X145850678Y-155079564D01*
X145857750Y-155099328D01*
X145862850Y-155119690D01*
X145865930Y-155140454D01*
X145866960Y-155161420D01*
X145866960Y-155663620D01*
X145865930Y-155684586D01*
X145862850Y-155705350D01*
X145857750Y-155725712D01*
X145850678Y-155745476D01*
X145841703Y-155764452D01*
X145830911Y-155782456D01*
X145818407Y-155799317D01*
X145804310Y-155814870D01*
X145788757Y-155828967D01*
X145771896Y-155841471D01*
X145753892Y-155852263D01*
X145734916Y-155861238D01*
X145715152Y-155868310D01*
X145694790Y-155873410D01*
X145674026Y-155876490D01*
X145653060Y-155877520D01*
X144630860Y-155877520D01*
X144609894Y-155876490D01*
X144589130Y-155873410D01*
X144568768Y-155868310D01*
X144549004Y-155861238D01*
X144530028Y-155852263D01*
X144512024Y-155841471D01*
X144495163Y-155828967D01*
X144479610Y-155814870D01*
X144465513Y-155799317D01*
X144453009Y-155782456D01*
X144442217Y-155764452D01*
X144433242Y-155745476D01*
X144426170Y-155725712D01*
X144421070Y-155705350D01*
X144417990Y-155684586D01*
X144416960Y-155663620D01*
X144416960Y-155161420D01*
X144417990Y-155140454D01*
X144421070Y-155119690D01*
X144426170Y-155099328D01*
X144433242Y-155079564D01*
X144442217Y-155060588D01*
X144453009Y-155042584D01*
X144465513Y-155025723D01*
X144479610Y-155010170D01*
X144495163Y-154996073D01*
X144512024Y-154983569D01*
X144530028Y-154972777D01*
X144549004Y-154963802D01*
X144568768Y-154956730D01*
X144589130Y-154951630D01*
X144609894Y-154948550D01*
X144630860Y-154947520D01*
X145653060Y-154947520D01*
X145674026Y-154948550D01*
G37*
G36*
X145674026Y-153678550D02*
G01*
X145694790Y-153681630D01*
X145715152Y-153686730D01*
X145734916Y-153693802D01*
X145753892Y-153702777D01*
X145771896Y-153713569D01*
X145788757Y-153726073D01*
X145804310Y-153740170D01*
X145818407Y-153755723D01*
X145830911Y-153772584D01*
X145841703Y-153790588D01*
X145850678Y-153809564D01*
X145857750Y-153829328D01*
X145862850Y-153849690D01*
X145865930Y-153870454D01*
X145866960Y-153891420D01*
X145866960Y-154393620D01*
X145865930Y-154414586D01*
X145862850Y-154435350D01*
X145857750Y-154455712D01*
X145850678Y-154475476D01*
X145841703Y-154494452D01*
X145830911Y-154512456D01*
X145818407Y-154529317D01*
X145804310Y-154544870D01*
X145788757Y-154558967D01*
X145771896Y-154571471D01*
X145753892Y-154582263D01*
X145734916Y-154591238D01*
X145715152Y-154598310D01*
X145694790Y-154603410D01*
X145674026Y-154606490D01*
X145653060Y-154607520D01*
X144630860Y-154607520D01*
X144609894Y-154606490D01*
X144589130Y-154603410D01*
X144568768Y-154598310D01*
X144549004Y-154591238D01*
X144530028Y-154582263D01*
X144512024Y-154571471D01*
X144495163Y-154558967D01*
X144479610Y-154544870D01*
X144465513Y-154529317D01*
X144453009Y-154512456D01*
X144442217Y-154494452D01*
X144433242Y-154475476D01*
X144426170Y-154455712D01*
X144421070Y-154435350D01*
X144417990Y-154414586D01*
X144416960Y-154393620D01*
X144416960Y-153891420D01*
X144417990Y-153870454D01*
X144421070Y-153849690D01*
X144426170Y-153829328D01*
X144433242Y-153809564D01*
X144442217Y-153790588D01*
X144453009Y-153772584D01*
X144465513Y-153755723D01*
X144479610Y-153740170D01*
X144495163Y-153726073D01*
X144512024Y-153713569D01*
X144530028Y-153702777D01*
X144549004Y-153693802D01*
X144568768Y-153686730D01*
X144589130Y-153681630D01*
X144609894Y-153678550D01*
X144630860Y-153677520D01*
X145653060Y-153677520D01*
X145674026Y-153678550D01*
G37*
G36*
X145674026Y-152408550D02*
G01*
X145694790Y-152411630D01*
X145715152Y-152416730D01*
X145734916Y-152423802D01*
X145753892Y-152432777D01*
X145771896Y-152443569D01*
X145788757Y-152456073D01*
X145804310Y-152470170D01*
X145818407Y-152485723D01*
X145830911Y-152502584D01*
X145841703Y-152520588D01*
X145850678Y-152539564D01*
X145857750Y-152559328D01*
X145862850Y-152579690D01*
X145865930Y-152600454D01*
X145866960Y-152621420D01*
X145866960Y-153123620D01*
X145865930Y-153144586D01*
X145862850Y-153165350D01*
X145857750Y-153185712D01*
X145850678Y-153205476D01*
X145841703Y-153224452D01*
X145830911Y-153242456D01*
X145818407Y-153259317D01*
X145804310Y-153274870D01*
X145788757Y-153288967D01*
X145771896Y-153301471D01*
X145753892Y-153312263D01*
X145734916Y-153321238D01*
X145715152Y-153328310D01*
X145694790Y-153333410D01*
X145674026Y-153336490D01*
X145653060Y-153337520D01*
X144630860Y-153337520D01*
X144609894Y-153336490D01*
X144589130Y-153333410D01*
X144568768Y-153328310D01*
X144549004Y-153321238D01*
X144530028Y-153312263D01*
X144512024Y-153301471D01*
X144495163Y-153288967D01*
X144479610Y-153274870D01*
X144465513Y-153259317D01*
X144453009Y-153242456D01*
X144442217Y-153224452D01*
X144433242Y-153205476D01*
X144426170Y-153185712D01*
X144421070Y-153165350D01*
X144417990Y-153144586D01*
X144416960Y-153123620D01*
X144416960Y-152621420D01*
X144417990Y-152600454D01*
X144421070Y-152579690D01*
X144426170Y-152559328D01*
X144433242Y-152539564D01*
X144442217Y-152520588D01*
X144453009Y-152502584D01*
X144465513Y-152485723D01*
X144479610Y-152470170D01*
X144495163Y-152456073D01*
X144512024Y-152443569D01*
X144530028Y-152432777D01*
X144549004Y-152423802D01*
X144568768Y-152416730D01*
X144589130Y-152411630D01*
X144609894Y-152408550D01*
X144630860Y-152407520D01*
X145653060Y-152407520D01*
X145674026Y-152408550D01*
G37*
G36*
X145674026Y-151138550D02*
G01*
X145694790Y-151141630D01*
X145715152Y-151146730D01*
X145734916Y-151153802D01*
X145753892Y-151162777D01*
X145771896Y-151173569D01*
X145788757Y-151186073D01*
X145804310Y-151200170D01*
X145818407Y-151215723D01*
X145830911Y-151232584D01*
X145841703Y-151250588D01*
X145850678Y-151269564D01*
X145857750Y-151289328D01*
X145862850Y-151309690D01*
X145865930Y-151330454D01*
X145866960Y-151351420D01*
X145866960Y-151853620D01*
X145865930Y-151874586D01*
X145862850Y-151895350D01*
X145857750Y-151915712D01*
X145850678Y-151935476D01*
X145841703Y-151954452D01*
X145830911Y-151972456D01*
X145818407Y-151989317D01*
X145804310Y-152004870D01*
X145788757Y-152018967D01*
X145771896Y-152031471D01*
X145753892Y-152042263D01*
X145734916Y-152051238D01*
X145715152Y-152058310D01*
X145694790Y-152063410D01*
X145674026Y-152066490D01*
X145653060Y-152067520D01*
X144630860Y-152067520D01*
X144609894Y-152066490D01*
X144589130Y-152063410D01*
X144568768Y-152058310D01*
X144549004Y-152051238D01*
X144530028Y-152042263D01*
X144512024Y-152031471D01*
X144495163Y-152018967D01*
X144479610Y-152004870D01*
X144465513Y-151989317D01*
X144453009Y-151972456D01*
X144442217Y-151954452D01*
X144433242Y-151935476D01*
X144426170Y-151915712D01*
X144421070Y-151895350D01*
X144417990Y-151874586D01*
X144416960Y-151853620D01*
X144416960Y-151351420D01*
X144417990Y-151330454D01*
X144421070Y-151309690D01*
X144426170Y-151289328D01*
X144433242Y-151269564D01*
X144442217Y-151250588D01*
X144453009Y-151232584D01*
X144465513Y-151215723D01*
X144479610Y-151200170D01*
X144495163Y-151186073D01*
X144512024Y-151173569D01*
X144530028Y-151162777D01*
X144549004Y-151153802D01*
X144568768Y-151146730D01*
X144589130Y-151141630D01*
X144609894Y-151138550D01*
X144630860Y-151137520D01*
X145653060Y-151137520D01*
X145674026Y-151138550D01*
G37*
G36*
X145674026Y-149868550D02*
G01*
X145694790Y-149871630D01*
X145715152Y-149876730D01*
X145734916Y-149883802D01*
X145753892Y-149892777D01*
X145771896Y-149903569D01*
X145788757Y-149916073D01*
X145804310Y-149930170D01*
X145818407Y-149945723D01*
X145830911Y-149962584D01*
X145841703Y-149980588D01*
X145850678Y-149999564D01*
X145857750Y-150019328D01*
X145862850Y-150039690D01*
X145865930Y-150060454D01*
X145866960Y-150081420D01*
X145866960Y-150583620D01*
X145865930Y-150604586D01*
X145862850Y-150625350D01*
X145857750Y-150645712D01*
X145850678Y-150665476D01*
X145841703Y-150684452D01*
X145830911Y-150702456D01*
X145818407Y-150719317D01*
X145804310Y-150734870D01*
X145788757Y-150748967D01*
X145771896Y-150761471D01*
X145753892Y-150772263D01*
X145734916Y-150781238D01*
X145715152Y-150788310D01*
X145694790Y-150793410D01*
X145674026Y-150796490D01*
X145653060Y-150797520D01*
X144630860Y-150797520D01*
X144609894Y-150796490D01*
X144589130Y-150793410D01*
X144568768Y-150788310D01*
X144549004Y-150781238D01*
X144530028Y-150772263D01*
X144512024Y-150761471D01*
X144495163Y-150748967D01*
X144479610Y-150734870D01*
X144465513Y-150719317D01*
X144453009Y-150702456D01*
X144442217Y-150684452D01*
X144433242Y-150665476D01*
X144426170Y-150645712D01*
X144421070Y-150625350D01*
X144417990Y-150604586D01*
X144416960Y-150583620D01*
X144416960Y-150081420D01*
X144417990Y-150060454D01*
X144421070Y-150039690D01*
X144426170Y-150019328D01*
X144433242Y-149999564D01*
X144442217Y-149980588D01*
X144453009Y-149962584D01*
X144465513Y-149945723D01*
X144479610Y-149930170D01*
X144495163Y-149916073D01*
X144512024Y-149903569D01*
X144530028Y-149892777D01*
X144549004Y-149883802D01*
X144568768Y-149876730D01*
X144589130Y-149871630D01*
X144609894Y-149868550D01*
X144630860Y-149867520D01*
X145653060Y-149867520D01*
X145674026Y-149868550D01*
G37*
G36*
X145674026Y-148598550D02*
G01*
X145694790Y-148601630D01*
X145715152Y-148606730D01*
X145734916Y-148613802D01*
X145753892Y-148622777D01*
X145771896Y-148633569D01*
X145788757Y-148646073D01*
X145804310Y-148660170D01*
X145818407Y-148675723D01*
X145830911Y-148692584D01*
X145841703Y-148710588D01*
X145850678Y-148729564D01*
X145857750Y-148749328D01*
X145862850Y-148769690D01*
X145865930Y-148790454D01*
X145866960Y-148811420D01*
X145866960Y-149313620D01*
X145865930Y-149334586D01*
X145862850Y-149355350D01*
X145857750Y-149375712D01*
X145850678Y-149395476D01*
X145841703Y-149414452D01*
X145830911Y-149432456D01*
X145818407Y-149449317D01*
X145804310Y-149464870D01*
X145788757Y-149478967D01*
X145771896Y-149491471D01*
X145753892Y-149502263D01*
X145734916Y-149511238D01*
X145715152Y-149518310D01*
X145694790Y-149523410D01*
X145674026Y-149526490D01*
X145653060Y-149527520D01*
X144630860Y-149527520D01*
X144609894Y-149526490D01*
X144589130Y-149523410D01*
X144568768Y-149518310D01*
X144549004Y-149511238D01*
X144530028Y-149502263D01*
X144512024Y-149491471D01*
X144495163Y-149478967D01*
X144479610Y-149464870D01*
X144465513Y-149449317D01*
X144453009Y-149432456D01*
X144442217Y-149414452D01*
X144433242Y-149395476D01*
X144426170Y-149375712D01*
X144421070Y-149355350D01*
X144417990Y-149334586D01*
X144416960Y-149313620D01*
X144416960Y-148811420D01*
X144417990Y-148790454D01*
X144421070Y-148769690D01*
X144426170Y-148749328D01*
X144433242Y-148729564D01*
X144442217Y-148710588D01*
X144453009Y-148692584D01*
X144465513Y-148675723D01*
X144479610Y-148660170D01*
X144495163Y-148646073D01*
X144512024Y-148633569D01*
X144530028Y-148622777D01*
X144549004Y-148613802D01*
X144568768Y-148606730D01*
X144589130Y-148601630D01*
X144609894Y-148598550D01*
X144630860Y-148597520D01*
X145653060Y-148597520D01*
X145674026Y-148598550D01*
G37*
G36*
X145674026Y-147328550D02*
G01*
X145694790Y-147331630D01*
X145715152Y-147336730D01*
X145734916Y-147343802D01*
X145753892Y-147352777D01*
X145771896Y-147363569D01*
X145788757Y-147376073D01*
X145804310Y-147390170D01*
X145818407Y-147405723D01*
X145830911Y-147422584D01*
X145841703Y-147440588D01*
X145850678Y-147459564D01*
X145857750Y-147479328D01*
X145862850Y-147499690D01*
X145865930Y-147520454D01*
X145866960Y-147541420D01*
X145866960Y-148043620D01*
X145865930Y-148064586D01*
X145862850Y-148085350D01*
X145857750Y-148105712D01*
X145850678Y-148125476D01*
X145841703Y-148144452D01*
X145830911Y-148162456D01*
X145818407Y-148179317D01*
X145804310Y-148194870D01*
X145788757Y-148208967D01*
X145771896Y-148221471D01*
X145753892Y-148232263D01*
X145734916Y-148241238D01*
X145715152Y-148248310D01*
X145694790Y-148253410D01*
X145674026Y-148256490D01*
X145653060Y-148257520D01*
X144630860Y-148257520D01*
X144609894Y-148256490D01*
X144589130Y-148253410D01*
X144568768Y-148248310D01*
X144549004Y-148241238D01*
X144530028Y-148232263D01*
X144512024Y-148221471D01*
X144495163Y-148208967D01*
X144479610Y-148194870D01*
X144465513Y-148179317D01*
X144453009Y-148162456D01*
X144442217Y-148144452D01*
X144433242Y-148125476D01*
X144426170Y-148105712D01*
X144421070Y-148085350D01*
X144417990Y-148064586D01*
X144416960Y-148043620D01*
X144416960Y-147541420D01*
X144417990Y-147520454D01*
X144421070Y-147499690D01*
X144426170Y-147479328D01*
X144433242Y-147459564D01*
X144442217Y-147440588D01*
X144453009Y-147422584D01*
X144465513Y-147405723D01*
X144479610Y-147390170D01*
X144495163Y-147376073D01*
X144512024Y-147363569D01*
X144530028Y-147352777D01*
X144549004Y-147343802D01*
X144568768Y-147336730D01*
X144589130Y-147331630D01*
X144609894Y-147328550D01*
X144630860Y-147327520D01*
X145653060Y-147327520D01*
X145674026Y-147328550D01*
G37*
G36*
X145674026Y-146058550D02*
G01*
X145694790Y-146061630D01*
X145715152Y-146066730D01*
X145734916Y-146073802D01*
X145753892Y-146082777D01*
X145771896Y-146093569D01*
X145788757Y-146106073D01*
X145804310Y-146120170D01*
X145818407Y-146135723D01*
X145830911Y-146152584D01*
X145841703Y-146170588D01*
X145850678Y-146189564D01*
X145857750Y-146209328D01*
X145862850Y-146229690D01*
X145865930Y-146250454D01*
X145866960Y-146271420D01*
X145866960Y-146773620D01*
X145865930Y-146794586D01*
X145862850Y-146815350D01*
X145857750Y-146835712D01*
X145850678Y-146855476D01*
X145841703Y-146874452D01*
X145830911Y-146892456D01*
X145818407Y-146909317D01*
X145804310Y-146924870D01*
X145788757Y-146938967D01*
X145771896Y-146951471D01*
X145753892Y-146962263D01*
X145734916Y-146971238D01*
X145715152Y-146978310D01*
X145694790Y-146983410D01*
X145674026Y-146986490D01*
X145653060Y-146987520D01*
X144630860Y-146987520D01*
X144609894Y-146986490D01*
X144589130Y-146983410D01*
X144568768Y-146978310D01*
X144549004Y-146971238D01*
X144530028Y-146962263D01*
X144512024Y-146951471D01*
X144495163Y-146938967D01*
X144479610Y-146924870D01*
X144465513Y-146909317D01*
X144453009Y-146892456D01*
X144442217Y-146874452D01*
X144433242Y-146855476D01*
X144426170Y-146835712D01*
X144421070Y-146815350D01*
X144417990Y-146794586D01*
X144416960Y-146773620D01*
X144416960Y-146271420D01*
X144417990Y-146250454D01*
X144421070Y-146229690D01*
X144426170Y-146209328D01*
X144433242Y-146189564D01*
X144442217Y-146170588D01*
X144453009Y-146152584D01*
X144465513Y-146135723D01*
X144479610Y-146120170D01*
X144495163Y-146106073D01*
X144512024Y-146093569D01*
X144530028Y-146082777D01*
X144549004Y-146073802D01*
X144568768Y-146066730D01*
X144589130Y-146061630D01*
X144609894Y-146058550D01*
X144630860Y-146057520D01*
X145653060Y-146057520D01*
X145674026Y-146058550D01*
G37*
G36*
X145674026Y-144788550D02*
G01*
X145694790Y-144791630D01*
X145715152Y-144796730D01*
X145734916Y-144803802D01*
X145753892Y-144812777D01*
X145771896Y-144823569D01*
X145788757Y-144836073D01*
X145804310Y-144850170D01*
X145818407Y-144865723D01*
X145830911Y-144882584D01*
X145841703Y-144900588D01*
X145850678Y-144919564D01*
X145857750Y-144939328D01*
X145862850Y-144959690D01*
X145865930Y-144980454D01*
X145866960Y-145001420D01*
X145866960Y-145503620D01*
X145865930Y-145524586D01*
X145862850Y-145545350D01*
X145857750Y-145565712D01*
X145850678Y-145585476D01*
X145841703Y-145604452D01*
X145830911Y-145622456D01*
X145818407Y-145639317D01*
X145804310Y-145654870D01*
X145788757Y-145668967D01*
X145771896Y-145681471D01*
X145753892Y-145692263D01*
X145734916Y-145701238D01*
X145715152Y-145708310D01*
X145694790Y-145713410D01*
X145674026Y-145716490D01*
X145653060Y-145717520D01*
X144630860Y-145717520D01*
X144609894Y-145716490D01*
X144589130Y-145713410D01*
X144568768Y-145708310D01*
X144549004Y-145701238D01*
X144530028Y-145692263D01*
X144512024Y-145681471D01*
X144495163Y-145668967D01*
X144479610Y-145654870D01*
X144465513Y-145639317D01*
X144453009Y-145622456D01*
X144442217Y-145604452D01*
X144433242Y-145585476D01*
X144426170Y-145565712D01*
X144421070Y-145545350D01*
X144417990Y-145524586D01*
X144416960Y-145503620D01*
X144416960Y-145001420D01*
X144417990Y-144980454D01*
X144421070Y-144959690D01*
X144426170Y-144939328D01*
X144433242Y-144919564D01*
X144442217Y-144900588D01*
X144453009Y-144882584D01*
X144465513Y-144865723D01*
X144479610Y-144850170D01*
X144495163Y-144836073D01*
X144512024Y-144823569D01*
X144530028Y-144812777D01*
X144549004Y-144803802D01*
X144568768Y-144796730D01*
X144589130Y-144791630D01*
X144609894Y-144788550D01*
X144630860Y-144787520D01*
X145653060Y-144787520D01*
X145674026Y-144788550D01*
G37*
G36*
X145674026Y-143518550D02*
G01*
X145694790Y-143521630D01*
X145715152Y-143526730D01*
X145734916Y-143533802D01*
X145753892Y-143542777D01*
X145771896Y-143553569D01*
X145788757Y-143566073D01*
X145804310Y-143580170D01*
X145818407Y-143595723D01*
X145830911Y-143612584D01*
X145841703Y-143630588D01*
X145850678Y-143649564D01*
X145857750Y-143669328D01*
X145862850Y-143689690D01*
X145865930Y-143710454D01*
X145866960Y-143731420D01*
X145866960Y-144233620D01*
X145865930Y-144254586D01*
X145862850Y-144275350D01*
X145857750Y-144295712D01*
X145850678Y-144315476D01*
X145841703Y-144334452D01*
X145830911Y-144352456D01*
X145818407Y-144369317D01*
X145804310Y-144384870D01*
X145788757Y-144398967D01*
X145771896Y-144411471D01*
X145753892Y-144422263D01*
X145734916Y-144431238D01*
X145715152Y-144438310D01*
X145694790Y-144443410D01*
X145674026Y-144446490D01*
X145653060Y-144447520D01*
X144630860Y-144447520D01*
X144609894Y-144446490D01*
X144589130Y-144443410D01*
X144568768Y-144438310D01*
X144549004Y-144431238D01*
X144530028Y-144422263D01*
X144512024Y-144411471D01*
X144495163Y-144398967D01*
X144479610Y-144384870D01*
X144465513Y-144369317D01*
X144453009Y-144352456D01*
X144442217Y-144334452D01*
X144433242Y-144315476D01*
X144426170Y-144295712D01*
X144421070Y-144275350D01*
X144417990Y-144254586D01*
X144416960Y-144233620D01*
X144416960Y-143731420D01*
X144417990Y-143710454D01*
X144421070Y-143689690D01*
X144426170Y-143669328D01*
X144433242Y-143649564D01*
X144442217Y-143630588D01*
X144453009Y-143612584D01*
X144465513Y-143595723D01*
X144479610Y-143580170D01*
X144495163Y-143566073D01*
X144512024Y-143553569D01*
X144530028Y-143542777D01*
X144549004Y-143533802D01*
X144568768Y-143526730D01*
X144589130Y-143521630D01*
X144609894Y-143518550D01*
X144630860Y-143517520D01*
X145653060Y-143517520D01*
X145674026Y-143518550D01*
G37*
G36*
X145674026Y-142248550D02*
G01*
X145694790Y-142251630D01*
X145715152Y-142256730D01*
X145734916Y-142263802D01*
X145753892Y-142272777D01*
X145771896Y-142283569D01*
X145788757Y-142296073D01*
X145804310Y-142310170D01*
X145818407Y-142325723D01*
X145830911Y-142342584D01*
X145841703Y-142360588D01*
X145850678Y-142379564D01*
X145857750Y-142399328D01*
X145862850Y-142419690D01*
X145865930Y-142440454D01*
X145866960Y-142461420D01*
X145866960Y-142963620D01*
X145865930Y-142984586D01*
X145862850Y-143005350D01*
X145857750Y-143025712D01*
X145850678Y-143045476D01*
X145841703Y-143064452D01*
X145830911Y-143082456D01*
X145818407Y-143099317D01*
X145804310Y-143114870D01*
X145788757Y-143128967D01*
X145771896Y-143141471D01*
X145753892Y-143152263D01*
X145734916Y-143161238D01*
X145715152Y-143168310D01*
X145694790Y-143173410D01*
X145674026Y-143176490D01*
X145653060Y-143177520D01*
X144630860Y-143177520D01*
X144609894Y-143176490D01*
X144589130Y-143173410D01*
X144568768Y-143168310D01*
X144549004Y-143161238D01*
X144530028Y-143152263D01*
X144512024Y-143141471D01*
X144495163Y-143128967D01*
X144479610Y-143114870D01*
X144465513Y-143099317D01*
X144453009Y-143082456D01*
X144442217Y-143064452D01*
X144433242Y-143045476D01*
X144426170Y-143025712D01*
X144421070Y-143005350D01*
X144417990Y-142984586D01*
X144416960Y-142963620D01*
X144416960Y-142461420D01*
X144417990Y-142440454D01*
X144421070Y-142419690D01*
X144426170Y-142399328D01*
X144433242Y-142379564D01*
X144442217Y-142360588D01*
X144453009Y-142342584D01*
X144465513Y-142325723D01*
X144479610Y-142310170D01*
X144495163Y-142296073D01*
X144512024Y-142283569D01*
X144530028Y-142272777D01*
X144549004Y-142263802D01*
X144568768Y-142256730D01*
X144589130Y-142251630D01*
X144609894Y-142248550D01*
X144630860Y-142247520D01*
X145653060Y-142247520D01*
X145674026Y-142248550D01*
G37*
G36*
X116084779Y-143240144D02*
G01*
X116107834Y-143243563D01*
X116130443Y-143249227D01*
X116152387Y-143257079D01*
X116173457Y-143267044D01*
X116193448Y-143279026D01*
X116212168Y-143292910D01*
X116229438Y-143308562D01*
X116245090Y-143325832D01*
X116258974Y-143344552D01*
X116270956Y-143364543D01*
X116280921Y-143385613D01*
X116288773Y-143407557D01*
X116294437Y-143430166D01*
X116297856Y-143453221D01*
X116299000Y-143476500D01*
X116299000Y-144051500D01*
X116297856Y-144074779D01*
X116294437Y-144097834D01*
X116288773Y-144120443D01*
X116280921Y-144142387D01*
X116270956Y-144163457D01*
X116258974Y-144183448D01*
X116245090Y-144202168D01*
X116229438Y-144219438D01*
X116212168Y-144235090D01*
X116193448Y-144248974D01*
X116173457Y-144260956D01*
X116152387Y-144270921D01*
X116130443Y-144278773D01*
X116107834Y-144284437D01*
X116084779Y-144287856D01*
X116061500Y-144289000D01*
X115586500Y-144289000D01*
X115563221Y-144287856D01*
X115540166Y-144284437D01*
X115517557Y-144278773D01*
X115495613Y-144270921D01*
X115474543Y-144260956D01*
X115454552Y-144248974D01*
X115435832Y-144235090D01*
X115418562Y-144219438D01*
X115402910Y-144202168D01*
X115389026Y-144183448D01*
X115377044Y-144163457D01*
X115367079Y-144142387D01*
X115359227Y-144120443D01*
X115353563Y-144097834D01*
X115350144Y-144074779D01*
X115349000Y-144051500D01*
X115349000Y-143476500D01*
X115350144Y-143453221D01*
X115353563Y-143430166D01*
X115359227Y-143407557D01*
X115367079Y-143385613D01*
X115377044Y-143364543D01*
X115389026Y-143344552D01*
X115402910Y-143325832D01*
X115418562Y-143308562D01*
X115435832Y-143292910D01*
X115454552Y-143279026D01*
X115474543Y-143267044D01*
X115495613Y-143257079D01*
X115517557Y-143249227D01*
X115540166Y-143243563D01*
X115563221Y-143240144D01*
X115586500Y-143239000D01*
X116061500Y-143239000D01*
X116084779Y-143240144D01*
G37*
G36*
X116084779Y-144990144D02*
G01*
X116107834Y-144993563D01*
X116130443Y-144999227D01*
X116152387Y-145007079D01*
X116173457Y-145017044D01*
X116193448Y-145029026D01*
X116212168Y-145042910D01*
X116229438Y-145058562D01*
X116245090Y-145075832D01*
X116258974Y-145094552D01*
X116270956Y-145114543D01*
X116280921Y-145135613D01*
X116288773Y-145157557D01*
X116294437Y-145180166D01*
X116297856Y-145203221D01*
X116299000Y-145226500D01*
X116299000Y-145801500D01*
X116297856Y-145824779D01*
X116294437Y-145847834D01*
X116288773Y-145870443D01*
X116280921Y-145892387D01*
X116270956Y-145913457D01*
X116258974Y-145933448D01*
X116245090Y-145952168D01*
X116229438Y-145969438D01*
X116212168Y-145985090D01*
X116193448Y-145998974D01*
X116173457Y-146010956D01*
X116152387Y-146020921D01*
X116130443Y-146028773D01*
X116107834Y-146034437D01*
X116084779Y-146037856D01*
X116061500Y-146039000D01*
X115586500Y-146039000D01*
X115563221Y-146037856D01*
X115540166Y-146034437D01*
X115517557Y-146028773D01*
X115495613Y-146020921D01*
X115474543Y-146010956D01*
X115454552Y-145998974D01*
X115435832Y-145985090D01*
X115418562Y-145969438D01*
X115402910Y-145952168D01*
X115389026Y-145933448D01*
X115377044Y-145913457D01*
X115367079Y-145892387D01*
X115359227Y-145870443D01*
X115353563Y-145847834D01*
X115350144Y-145824779D01*
X115349000Y-145801500D01*
X115349000Y-145226500D01*
X115350144Y-145203221D01*
X115353563Y-145180166D01*
X115359227Y-145157557D01*
X115367079Y-145135613D01*
X115377044Y-145114543D01*
X115389026Y-145094552D01*
X115402910Y-145075832D01*
X115418562Y-145058562D01*
X115435832Y-145042910D01*
X115454552Y-145029026D01*
X115474543Y-145017044D01*
X115495613Y-145007079D01*
X115517557Y-144999227D01*
X115540166Y-144993563D01*
X115563221Y-144990144D01*
X115586500Y-144989000D01*
X116061500Y-144989000D01*
X116084779Y-144990144D01*
G37*
G36*
X111766779Y-145025704D02*
G01*
X111789834Y-145029123D01*
X111812443Y-145034787D01*
X111834387Y-145042639D01*
X111855457Y-145052604D01*
X111875448Y-145064586D01*
X111894168Y-145078470D01*
X111911438Y-145094122D01*
X111927090Y-145111392D01*
X111940974Y-145130112D01*
X111952956Y-145150103D01*
X111962921Y-145171173D01*
X111970773Y-145193117D01*
X111976437Y-145215726D01*
X111979856Y-145238781D01*
X111981000Y-145262060D01*
X111981000Y-145837060D01*
X111979856Y-145860339D01*
X111976437Y-145883394D01*
X111970773Y-145906003D01*
X111962921Y-145927947D01*
X111952956Y-145949017D01*
X111940974Y-145969008D01*
X111927090Y-145987728D01*
X111911438Y-146004998D01*
X111894168Y-146020650D01*
X111875448Y-146034534D01*
X111855457Y-146046516D01*
X111834387Y-146056481D01*
X111812443Y-146064333D01*
X111789834Y-146069997D01*
X111766779Y-146073416D01*
X111743500Y-146074560D01*
X111268500Y-146074560D01*
X111245221Y-146073416D01*
X111222166Y-146069997D01*
X111199557Y-146064333D01*
X111177613Y-146056481D01*
X111156543Y-146046516D01*
X111136552Y-146034534D01*
X111117832Y-146020650D01*
X111100562Y-146004998D01*
X111084910Y-145987728D01*
X111071026Y-145969008D01*
X111059044Y-145949017D01*
X111049079Y-145927947D01*
X111041227Y-145906003D01*
X111035563Y-145883394D01*
X111032144Y-145860339D01*
X111031000Y-145837060D01*
X111031000Y-145262060D01*
X111032144Y-145238781D01*
X111035563Y-145215726D01*
X111041227Y-145193117D01*
X111049079Y-145171173D01*
X111059044Y-145150103D01*
X111071026Y-145130112D01*
X111084910Y-145111392D01*
X111100562Y-145094122D01*
X111117832Y-145078470D01*
X111136552Y-145064586D01*
X111156543Y-145052604D01*
X111177613Y-145042639D01*
X111199557Y-145034787D01*
X111222166Y-145029123D01*
X111245221Y-145025704D01*
X111268500Y-145024560D01*
X111743500Y-145024560D01*
X111766779Y-145025704D01*
G37*
G36*
X111766779Y-143275704D02*
G01*
X111789834Y-143279123D01*
X111812443Y-143284787D01*
X111834387Y-143292639D01*
X111855457Y-143302604D01*
X111875448Y-143314586D01*
X111894168Y-143328470D01*
X111911438Y-143344122D01*
X111927090Y-143361392D01*
X111940974Y-143380112D01*
X111952956Y-143400103D01*
X111962921Y-143421173D01*
X111970773Y-143443117D01*
X111976437Y-143465726D01*
X111979856Y-143488781D01*
X111981000Y-143512060D01*
X111981000Y-144087060D01*
X111979856Y-144110339D01*
X111976437Y-144133394D01*
X111970773Y-144156003D01*
X111962921Y-144177947D01*
X111952956Y-144199017D01*
X111940974Y-144219008D01*
X111927090Y-144237728D01*
X111911438Y-144254998D01*
X111894168Y-144270650D01*
X111875448Y-144284534D01*
X111855457Y-144296516D01*
X111834387Y-144306481D01*
X111812443Y-144314333D01*
X111789834Y-144319997D01*
X111766779Y-144323416D01*
X111743500Y-144324560D01*
X111268500Y-144324560D01*
X111245221Y-144323416D01*
X111222166Y-144319997D01*
X111199557Y-144314333D01*
X111177613Y-144306481D01*
X111156543Y-144296516D01*
X111136552Y-144284534D01*
X111117832Y-144270650D01*
X111100562Y-144254998D01*
X111084910Y-144237728D01*
X111071026Y-144219008D01*
X111059044Y-144199017D01*
X111049079Y-144177947D01*
X111041227Y-144156003D01*
X111035563Y-144133394D01*
X111032144Y-144110339D01*
X111031000Y-144087060D01*
X111031000Y-143512060D01*
X111032144Y-143488781D01*
X111035563Y-143465726D01*
X111041227Y-143443117D01*
X111049079Y-143421173D01*
X111059044Y-143400103D01*
X111071026Y-143380112D01*
X111084910Y-143361392D01*
X111100562Y-143344122D01*
X111117832Y-143328470D01*
X111136552Y-143314586D01*
X111156543Y-143302604D01*
X111177613Y-143292639D01*
X111199557Y-143284787D01*
X111222166Y-143279123D01*
X111245221Y-143275704D01*
X111268500Y-143274560D01*
X111743500Y-143274560D01*
X111766779Y-143275704D01*
G37*
G36*
X124499799Y-143148764D02*
G01*
X124522854Y-143152183D01*
X124545463Y-143157847D01*
X124567407Y-143165699D01*
X124588477Y-143175664D01*
X124608468Y-143187646D01*
X124627188Y-143201530D01*
X124644458Y-143217182D01*
X124660110Y-143234452D01*
X124673994Y-143253172D01*
X124685976Y-143273163D01*
X124695941Y-143294233D01*
X124703793Y-143316177D01*
X124709457Y-143338786D01*
X124712876Y-143361841D01*
X124714020Y-143385120D01*
X124714020Y-143960120D01*
X124712876Y-143983399D01*
X124709457Y-144006454D01*
X124703793Y-144029063D01*
X124695941Y-144051007D01*
X124685976Y-144072077D01*
X124673994Y-144092068D01*
X124660110Y-144110788D01*
X124644458Y-144128058D01*
X124627188Y-144143710D01*
X124608468Y-144157594D01*
X124588477Y-144169576D01*
X124567407Y-144179541D01*
X124545463Y-144187393D01*
X124522854Y-144193057D01*
X124499799Y-144196476D01*
X124476520Y-144197620D01*
X124001520Y-144197620D01*
X123978241Y-144196476D01*
X123955186Y-144193057D01*
X123932577Y-144187393D01*
X123910633Y-144179541D01*
X123889563Y-144169576D01*
X123869572Y-144157594D01*
X123850852Y-144143710D01*
X123833582Y-144128058D01*
X123817930Y-144110788D01*
X123804046Y-144092068D01*
X123792064Y-144072077D01*
X123782099Y-144051007D01*
X123774247Y-144029063D01*
X123768583Y-144006454D01*
X123765164Y-143983399D01*
X123764020Y-143960120D01*
X123764020Y-143385120D01*
X123765164Y-143361841D01*
X123768583Y-143338786D01*
X123774247Y-143316177D01*
X123782099Y-143294233D01*
X123792064Y-143273163D01*
X123804046Y-143253172D01*
X123817930Y-143234452D01*
X123833582Y-143217182D01*
X123850852Y-143201530D01*
X123869572Y-143187646D01*
X123889563Y-143175664D01*
X123910633Y-143165699D01*
X123932577Y-143157847D01*
X123955186Y-143152183D01*
X123978241Y-143148764D01*
X124001520Y-143147620D01*
X124476520Y-143147620D01*
X124499799Y-143148764D01*
G37*
G36*
X124499799Y-144898764D02*
G01*
X124522854Y-144902183D01*
X124545463Y-144907847D01*
X124567407Y-144915699D01*
X124588477Y-144925664D01*
X124608468Y-144937646D01*
X124627188Y-144951530D01*
X124644458Y-144967182D01*
X124660110Y-144984452D01*
X124673994Y-145003172D01*
X124685976Y-145023163D01*
X124695941Y-145044233D01*
X124703793Y-145066177D01*
X124709457Y-145088786D01*
X124712876Y-145111841D01*
X124714020Y-145135120D01*
X124714020Y-145710120D01*
X124712876Y-145733399D01*
X124709457Y-145756454D01*
X124703793Y-145779063D01*
X124695941Y-145801007D01*
X124685976Y-145822077D01*
X124673994Y-145842068D01*
X124660110Y-145860788D01*
X124644458Y-145878058D01*
X124627188Y-145893710D01*
X124608468Y-145907594D01*
X124588477Y-145919576D01*
X124567407Y-145929541D01*
X124545463Y-145937393D01*
X124522854Y-145943057D01*
X124499799Y-145946476D01*
X124476520Y-145947620D01*
X124001520Y-145947620D01*
X123978241Y-145946476D01*
X123955186Y-145943057D01*
X123932577Y-145937393D01*
X123910633Y-145929541D01*
X123889563Y-145919576D01*
X123869572Y-145907594D01*
X123850852Y-145893710D01*
X123833582Y-145878058D01*
X123817930Y-145860788D01*
X123804046Y-145842068D01*
X123792064Y-145822077D01*
X123782099Y-145801007D01*
X123774247Y-145779063D01*
X123768583Y-145756454D01*
X123765164Y-145733399D01*
X123764020Y-145710120D01*
X123764020Y-145135120D01*
X123765164Y-145111841D01*
X123768583Y-145088786D01*
X123774247Y-145066177D01*
X123782099Y-145044233D01*
X123792064Y-145023163D01*
X123804046Y-145003172D01*
X123817930Y-144984452D01*
X123833582Y-144967182D01*
X123850852Y-144951530D01*
X123869572Y-144937646D01*
X123889563Y-144925664D01*
X123910633Y-144915699D01*
X123932577Y-144907847D01*
X123955186Y-144902183D01*
X123978241Y-144898764D01*
X124001520Y-144897620D01*
X124476520Y-144897620D01*
X124499799Y-144898764D01*
G37*
G36*
X120245299Y-143240144D02*
G01*
X120268354Y-143243563D01*
X120290963Y-143249227D01*
X120312907Y-143257079D01*
X120333977Y-143267044D01*
X120353968Y-143279026D01*
X120372688Y-143292910D01*
X120389958Y-143308562D01*
X120405610Y-143325832D01*
X120419494Y-143344552D01*
X120431476Y-143364543D01*
X120441441Y-143385613D01*
X120449293Y-143407557D01*
X120454957Y-143430166D01*
X120458376Y-143453221D01*
X120459520Y-143476500D01*
X120459520Y-144051500D01*
X120458376Y-144074779D01*
X120454957Y-144097834D01*
X120449293Y-144120443D01*
X120441441Y-144142387D01*
X120431476Y-144163457D01*
X120419494Y-144183448D01*
X120405610Y-144202168D01*
X120389958Y-144219438D01*
X120372688Y-144235090D01*
X120353968Y-144248974D01*
X120333977Y-144260956D01*
X120312907Y-144270921D01*
X120290963Y-144278773D01*
X120268354Y-144284437D01*
X120245299Y-144287856D01*
X120222020Y-144289000D01*
X119747020Y-144289000D01*
X119723741Y-144287856D01*
X119700686Y-144284437D01*
X119678077Y-144278773D01*
X119656133Y-144270921D01*
X119635063Y-144260956D01*
X119615072Y-144248974D01*
X119596352Y-144235090D01*
X119579082Y-144219438D01*
X119563430Y-144202168D01*
X119549546Y-144183448D01*
X119537564Y-144163457D01*
X119527599Y-144142387D01*
X119519747Y-144120443D01*
X119514083Y-144097834D01*
X119510664Y-144074779D01*
X119509520Y-144051500D01*
X119509520Y-143476500D01*
X119510664Y-143453221D01*
X119514083Y-143430166D01*
X119519747Y-143407557D01*
X119527599Y-143385613D01*
X119537564Y-143364543D01*
X119549546Y-143344552D01*
X119563430Y-143325832D01*
X119579082Y-143308562D01*
X119596352Y-143292910D01*
X119615072Y-143279026D01*
X119635063Y-143267044D01*
X119656133Y-143257079D01*
X119678077Y-143249227D01*
X119700686Y-143243563D01*
X119723741Y-143240144D01*
X119747020Y-143239000D01*
X120222020Y-143239000D01*
X120245299Y-143240144D01*
G37*
G36*
X120245299Y-144990144D02*
G01*
X120268354Y-144993563D01*
X120290963Y-144999227D01*
X120312907Y-145007079D01*
X120333977Y-145017044D01*
X120353968Y-145029026D01*
X120372688Y-145042910D01*
X120389958Y-145058562D01*
X120405610Y-145075832D01*
X120419494Y-145094552D01*
X120431476Y-145114543D01*
X120441441Y-145135613D01*
X120449293Y-145157557D01*
X120454957Y-145180166D01*
X120458376Y-145203221D01*
X120459520Y-145226500D01*
X120459520Y-145801500D01*
X120458376Y-145824779D01*
X120454957Y-145847834D01*
X120449293Y-145870443D01*
X120441441Y-145892387D01*
X120431476Y-145913457D01*
X120419494Y-145933448D01*
X120405610Y-145952168D01*
X120389958Y-145969438D01*
X120372688Y-145985090D01*
X120353968Y-145998974D01*
X120333977Y-146010956D01*
X120312907Y-146020921D01*
X120290963Y-146028773D01*
X120268354Y-146034437D01*
X120245299Y-146037856D01*
X120222020Y-146039000D01*
X119747020Y-146039000D01*
X119723741Y-146037856D01*
X119700686Y-146034437D01*
X119678077Y-146028773D01*
X119656133Y-146020921D01*
X119635063Y-146010956D01*
X119615072Y-145998974D01*
X119596352Y-145985090D01*
X119579082Y-145969438D01*
X119563430Y-145952168D01*
X119549546Y-145933448D01*
X119537564Y-145913457D01*
X119527599Y-145892387D01*
X119519747Y-145870443D01*
X119514083Y-145847834D01*
X119510664Y-145824779D01*
X119509520Y-145801500D01*
X119509520Y-145226500D01*
X119510664Y-145203221D01*
X119514083Y-145180166D01*
X119519747Y-145157557D01*
X119527599Y-145135613D01*
X119537564Y-145114543D01*
X119549546Y-145094552D01*
X119563430Y-145075832D01*
X119579082Y-145058562D01*
X119596352Y-145042910D01*
X119615072Y-145029026D01*
X119635063Y-145017044D01*
X119656133Y-145007079D01*
X119678077Y-144999227D01*
X119700686Y-144993563D01*
X119723741Y-144990144D01*
X119747020Y-144989000D01*
X120222020Y-144989000D01*
X120245299Y-144990144D01*
G37*
G36*
X114306779Y-172563144D02*
G01*
X114329834Y-172566563D01*
X114352443Y-172572227D01*
X114374387Y-172580079D01*
X114395457Y-172590044D01*
X114415448Y-172602026D01*
X114434168Y-172615910D01*
X114451438Y-172631562D01*
X114467090Y-172648832D01*
X114480974Y-172667552D01*
X114492956Y-172687543D01*
X114502921Y-172708613D01*
X114510773Y-172730557D01*
X114516437Y-172753166D01*
X114519856Y-172776221D01*
X114521000Y-172799500D01*
X114521000Y-173374500D01*
X114519856Y-173397779D01*
X114516437Y-173420834D01*
X114510773Y-173443443D01*
X114502921Y-173465387D01*
X114492956Y-173486457D01*
X114480974Y-173506448D01*
X114467090Y-173525168D01*
X114451438Y-173542438D01*
X114434168Y-173558090D01*
X114415448Y-173571974D01*
X114395457Y-173583956D01*
X114374387Y-173593921D01*
X114352443Y-173601773D01*
X114329834Y-173607437D01*
X114306779Y-173610856D01*
X114283500Y-173612000D01*
X113808500Y-173612000D01*
X113785221Y-173610856D01*
X113762166Y-173607437D01*
X113739557Y-173601773D01*
X113717613Y-173593921D01*
X113696543Y-173583956D01*
X113676552Y-173571974D01*
X113657832Y-173558090D01*
X113640562Y-173542438D01*
X113624910Y-173525168D01*
X113611026Y-173506448D01*
X113599044Y-173486457D01*
X113589079Y-173465387D01*
X113581227Y-173443443D01*
X113575563Y-173420834D01*
X113572144Y-173397779D01*
X113571000Y-173374500D01*
X113571000Y-172799500D01*
X113572144Y-172776221D01*
X113575563Y-172753166D01*
X113581227Y-172730557D01*
X113589079Y-172708613D01*
X113599044Y-172687543D01*
X113611026Y-172667552D01*
X113624910Y-172648832D01*
X113640562Y-172631562D01*
X113657832Y-172615910D01*
X113676552Y-172602026D01*
X113696543Y-172590044D01*
X113717613Y-172580079D01*
X113739557Y-172572227D01*
X113762166Y-172566563D01*
X113785221Y-172563144D01*
X113808500Y-172562000D01*
X114283500Y-172562000D01*
X114306779Y-172563144D01*
G37*
G36*
X114306779Y-170813144D02*
G01*
X114329834Y-170816563D01*
X114352443Y-170822227D01*
X114374387Y-170830079D01*
X114395457Y-170840044D01*
X114415448Y-170852026D01*
X114434168Y-170865910D01*
X114451438Y-170881562D01*
X114467090Y-170898832D01*
X114480974Y-170917552D01*
X114492956Y-170937543D01*
X114502921Y-170958613D01*
X114510773Y-170980557D01*
X114516437Y-171003166D01*
X114519856Y-171026221D01*
X114521000Y-171049500D01*
X114521000Y-171624500D01*
X114519856Y-171647779D01*
X114516437Y-171670834D01*
X114510773Y-171693443D01*
X114502921Y-171715387D01*
X114492956Y-171736457D01*
X114480974Y-171756448D01*
X114467090Y-171775168D01*
X114451438Y-171792438D01*
X114434168Y-171808090D01*
X114415448Y-171821974D01*
X114395457Y-171833956D01*
X114374387Y-171843921D01*
X114352443Y-171851773D01*
X114329834Y-171857437D01*
X114306779Y-171860856D01*
X114283500Y-171862000D01*
X113808500Y-171862000D01*
X113785221Y-171860856D01*
X113762166Y-171857437D01*
X113739557Y-171851773D01*
X113717613Y-171843921D01*
X113696543Y-171833956D01*
X113676552Y-171821974D01*
X113657832Y-171808090D01*
X113640562Y-171792438D01*
X113624910Y-171775168D01*
X113611026Y-171756448D01*
X113599044Y-171736457D01*
X113589079Y-171715387D01*
X113581227Y-171693443D01*
X113575563Y-171670834D01*
X113572144Y-171647779D01*
X113571000Y-171624500D01*
X113571000Y-171049500D01*
X113572144Y-171026221D01*
X113575563Y-171003166D01*
X113581227Y-170980557D01*
X113589079Y-170958613D01*
X113599044Y-170937543D01*
X113611026Y-170917552D01*
X113624910Y-170898832D01*
X113640562Y-170881562D01*
X113657832Y-170865910D01*
X113676552Y-170852026D01*
X113696543Y-170840044D01*
X113717613Y-170830079D01*
X113739557Y-170822227D01*
X113762166Y-170816563D01*
X113785221Y-170813144D01*
X113808500Y-170812000D01*
X114283500Y-170812000D01*
X114306779Y-170813144D01*
G37*
G36*
X114306779Y-176627144D02*
G01*
X114329834Y-176630563D01*
X114352443Y-176636227D01*
X114374387Y-176644079D01*
X114395457Y-176654044D01*
X114415448Y-176666026D01*
X114434168Y-176679910D01*
X114451438Y-176695562D01*
X114467090Y-176712832D01*
X114480974Y-176731552D01*
X114492956Y-176751543D01*
X114502921Y-176772613D01*
X114510773Y-176794557D01*
X114516437Y-176817166D01*
X114519856Y-176840221D01*
X114521000Y-176863500D01*
X114521000Y-177438500D01*
X114519856Y-177461779D01*
X114516437Y-177484834D01*
X114510773Y-177507443D01*
X114502921Y-177529387D01*
X114492956Y-177550457D01*
X114480974Y-177570448D01*
X114467090Y-177589168D01*
X114451438Y-177606438D01*
X114434168Y-177622090D01*
X114415448Y-177635974D01*
X114395457Y-177647956D01*
X114374387Y-177657921D01*
X114352443Y-177665773D01*
X114329834Y-177671437D01*
X114306779Y-177674856D01*
X114283500Y-177676000D01*
X113808500Y-177676000D01*
X113785221Y-177674856D01*
X113762166Y-177671437D01*
X113739557Y-177665773D01*
X113717613Y-177657921D01*
X113696543Y-177647956D01*
X113676552Y-177635974D01*
X113657832Y-177622090D01*
X113640562Y-177606438D01*
X113624910Y-177589168D01*
X113611026Y-177570448D01*
X113599044Y-177550457D01*
X113589079Y-177529387D01*
X113581227Y-177507443D01*
X113575563Y-177484834D01*
X113572144Y-177461779D01*
X113571000Y-177438500D01*
X113571000Y-176863500D01*
X113572144Y-176840221D01*
X113575563Y-176817166D01*
X113581227Y-176794557D01*
X113589079Y-176772613D01*
X113599044Y-176751543D01*
X113611026Y-176731552D01*
X113624910Y-176712832D01*
X113640562Y-176695562D01*
X113657832Y-176679910D01*
X113676552Y-176666026D01*
X113696543Y-176654044D01*
X113717613Y-176644079D01*
X113739557Y-176636227D01*
X113762166Y-176630563D01*
X113785221Y-176627144D01*
X113808500Y-176626000D01*
X114283500Y-176626000D01*
X114306779Y-176627144D01*
G37*
G36*
X114306779Y-174877144D02*
G01*
X114329834Y-174880563D01*
X114352443Y-174886227D01*
X114374387Y-174894079D01*
X114395457Y-174904044D01*
X114415448Y-174916026D01*
X114434168Y-174929910D01*
X114451438Y-174945562D01*
X114467090Y-174962832D01*
X114480974Y-174981552D01*
X114492956Y-175001543D01*
X114502921Y-175022613D01*
X114510773Y-175044557D01*
X114516437Y-175067166D01*
X114519856Y-175090221D01*
X114521000Y-175113500D01*
X114521000Y-175688500D01*
X114519856Y-175711779D01*
X114516437Y-175734834D01*
X114510773Y-175757443D01*
X114502921Y-175779387D01*
X114492956Y-175800457D01*
X114480974Y-175820448D01*
X114467090Y-175839168D01*
X114451438Y-175856438D01*
X114434168Y-175872090D01*
X114415448Y-175885974D01*
X114395457Y-175897956D01*
X114374387Y-175907921D01*
X114352443Y-175915773D01*
X114329834Y-175921437D01*
X114306779Y-175924856D01*
X114283500Y-175926000D01*
X113808500Y-175926000D01*
X113785221Y-175924856D01*
X113762166Y-175921437D01*
X113739557Y-175915773D01*
X113717613Y-175907921D01*
X113696543Y-175897956D01*
X113676552Y-175885974D01*
X113657832Y-175872090D01*
X113640562Y-175856438D01*
X113624910Y-175839168D01*
X113611026Y-175820448D01*
X113599044Y-175800457D01*
X113589079Y-175779387D01*
X113581227Y-175757443D01*
X113575563Y-175734834D01*
X113572144Y-175711779D01*
X113571000Y-175688500D01*
X113571000Y-175113500D01*
X113572144Y-175090221D01*
X113575563Y-175067166D01*
X113581227Y-175044557D01*
X113589079Y-175022613D01*
X113599044Y-175001543D01*
X113611026Y-174981552D01*
X113624910Y-174962832D01*
X113640562Y-174945562D01*
X113657832Y-174929910D01*
X113676552Y-174916026D01*
X113696543Y-174904044D01*
X113717613Y-174894079D01*
X113739557Y-174886227D01*
X113762166Y-174880563D01*
X113785221Y-174877144D01*
X113808500Y-174876000D01*
X114283500Y-174876000D01*
X114306779Y-174877144D01*
G37*
G36*
X94240779Y-143268144D02*
G01*
X94263834Y-143271563D01*
X94286443Y-143277227D01*
X94308387Y-143285079D01*
X94329457Y-143295044D01*
X94349448Y-143307026D01*
X94368168Y-143320910D01*
X94385438Y-143336562D01*
X94401090Y-143353832D01*
X94414974Y-143372552D01*
X94426956Y-143392543D01*
X94436921Y-143413613D01*
X94444773Y-143435557D01*
X94450437Y-143458166D01*
X94453856Y-143481221D01*
X94455000Y-143504500D01*
X94455000Y-144079500D01*
X94453856Y-144102779D01*
X94450437Y-144125834D01*
X94444773Y-144148443D01*
X94436921Y-144170387D01*
X94426956Y-144191457D01*
X94414974Y-144211448D01*
X94401090Y-144230168D01*
X94385438Y-144247438D01*
X94368168Y-144263090D01*
X94349448Y-144276974D01*
X94329457Y-144288956D01*
X94308387Y-144298921D01*
X94286443Y-144306773D01*
X94263834Y-144312437D01*
X94240779Y-144315856D01*
X94217500Y-144317000D01*
X93742500Y-144317000D01*
X93719221Y-144315856D01*
X93696166Y-144312437D01*
X93673557Y-144306773D01*
X93651613Y-144298921D01*
X93630543Y-144288956D01*
X93610552Y-144276974D01*
X93591832Y-144263090D01*
X93574562Y-144247438D01*
X93558910Y-144230168D01*
X93545026Y-144211448D01*
X93533044Y-144191457D01*
X93523079Y-144170387D01*
X93515227Y-144148443D01*
X93509563Y-144125834D01*
X93506144Y-144102779D01*
X93505000Y-144079500D01*
X93505000Y-143504500D01*
X93506144Y-143481221D01*
X93509563Y-143458166D01*
X93515227Y-143435557D01*
X93523079Y-143413613D01*
X93533044Y-143392543D01*
X93545026Y-143372552D01*
X93558910Y-143353832D01*
X93574562Y-143336562D01*
X93591832Y-143320910D01*
X93610552Y-143307026D01*
X93630543Y-143295044D01*
X93651613Y-143285079D01*
X93673557Y-143277227D01*
X93696166Y-143271563D01*
X93719221Y-143268144D01*
X93742500Y-143267000D01*
X94217500Y-143267000D01*
X94240779Y-143268144D01*
G37*
G36*
X94240779Y-145018144D02*
G01*
X94263834Y-145021563D01*
X94286443Y-145027227D01*
X94308387Y-145035079D01*
X94329457Y-145045044D01*
X94349448Y-145057026D01*
X94368168Y-145070910D01*
X94385438Y-145086562D01*
X94401090Y-145103832D01*
X94414974Y-145122552D01*
X94426956Y-145142543D01*
X94436921Y-145163613D01*
X94444773Y-145185557D01*
X94450437Y-145208166D01*
X94453856Y-145231221D01*
X94455000Y-145254500D01*
X94455000Y-145829500D01*
X94453856Y-145852779D01*
X94450437Y-145875834D01*
X94444773Y-145898443D01*
X94436921Y-145920387D01*
X94426956Y-145941457D01*
X94414974Y-145961448D01*
X94401090Y-145980168D01*
X94385438Y-145997438D01*
X94368168Y-146013090D01*
X94349448Y-146026974D01*
X94329457Y-146038956D01*
X94308387Y-146048921D01*
X94286443Y-146056773D01*
X94263834Y-146062437D01*
X94240779Y-146065856D01*
X94217500Y-146067000D01*
X93742500Y-146067000D01*
X93719221Y-146065856D01*
X93696166Y-146062437D01*
X93673557Y-146056773D01*
X93651613Y-146048921D01*
X93630543Y-146038956D01*
X93610552Y-146026974D01*
X93591832Y-146013090D01*
X93574562Y-145997438D01*
X93558910Y-145980168D01*
X93545026Y-145961448D01*
X93533044Y-145941457D01*
X93523079Y-145920387D01*
X93515227Y-145898443D01*
X93509563Y-145875834D01*
X93506144Y-145852779D01*
X93505000Y-145829500D01*
X93505000Y-145254500D01*
X93506144Y-145231221D01*
X93509563Y-145208166D01*
X93515227Y-145185557D01*
X93523079Y-145163613D01*
X93533044Y-145142543D01*
X93545026Y-145122552D01*
X93558910Y-145103832D01*
X93574562Y-145086562D01*
X93591832Y-145070910D01*
X93610552Y-145057026D01*
X93630543Y-145045044D01*
X93651613Y-145035079D01*
X93673557Y-145027227D01*
X93696166Y-145021563D01*
X93719221Y-145018144D01*
X93742500Y-145017000D01*
X94217500Y-145017000D01*
X94240779Y-145018144D01*
G37*
G36*
X98558779Y-145018144D02*
G01*
X98581834Y-145021563D01*
X98604443Y-145027227D01*
X98626387Y-145035079D01*
X98647457Y-145045044D01*
X98667448Y-145057026D01*
X98686168Y-145070910D01*
X98703438Y-145086562D01*
X98719090Y-145103832D01*
X98732974Y-145122552D01*
X98744956Y-145142543D01*
X98754921Y-145163613D01*
X98762773Y-145185557D01*
X98768437Y-145208166D01*
X98771856Y-145231221D01*
X98773000Y-145254500D01*
X98773000Y-145829500D01*
X98771856Y-145852779D01*
X98768437Y-145875834D01*
X98762773Y-145898443D01*
X98754921Y-145920387D01*
X98744956Y-145941457D01*
X98732974Y-145961448D01*
X98719090Y-145980168D01*
X98703438Y-145997438D01*
X98686168Y-146013090D01*
X98667448Y-146026974D01*
X98647457Y-146038956D01*
X98626387Y-146048921D01*
X98604443Y-146056773D01*
X98581834Y-146062437D01*
X98558779Y-146065856D01*
X98535500Y-146067000D01*
X98060500Y-146067000D01*
X98037221Y-146065856D01*
X98014166Y-146062437D01*
X97991557Y-146056773D01*
X97969613Y-146048921D01*
X97948543Y-146038956D01*
X97928552Y-146026974D01*
X97909832Y-146013090D01*
X97892562Y-145997438D01*
X97876910Y-145980168D01*
X97863026Y-145961448D01*
X97851044Y-145941457D01*
X97841079Y-145920387D01*
X97833227Y-145898443D01*
X97827563Y-145875834D01*
X97824144Y-145852779D01*
X97823000Y-145829500D01*
X97823000Y-145254500D01*
X97824144Y-145231221D01*
X97827563Y-145208166D01*
X97833227Y-145185557D01*
X97841079Y-145163613D01*
X97851044Y-145142543D01*
X97863026Y-145122552D01*
X97876910Y-145103832D01*
X97892562Y-145086562D01*
X97909832Y-145070910D01*
X97928552Y-145057026D01*
X97948543Y-145045044D01*
X97969613Y-145035079D01*
X97991557Y-145027227D01*
X98014166Y-145021563D01*
X98037221Y-145018144D01*
X98060500Y-145017000D01*
X98535500Y-145017000D01*
X98558779Y-145018144D01*
G37*
G36*
X98558779Y-143268144D02*
G01*
X98581834Y-143271563D01*
X98604443Y-143277227D01*
X98626387Y-143285079D01*
X98647457Y-143295044D01*
X98667448Y-143307026D01*
X98686168Y-143320910D01*
X98703438Y-143336562D01*
X98719090Y-143353832D01*
X98732974Y-143372552D01*
X98744956Y-143392543D01*
X98754921Y-143413613D01*
X98762773Y-143435557D01*
X98768437Y-143458166D01*
X98771856Y-143481221D01*
X98773000Y-143504500D01*
X98773000Y-144079500D01*
X98771856Y-144102779D01*
X98768437Y-144125834D01*
X98762773Y-144148443D01*
X98754921Y-144170387D01*
X98744956Y-144191457D01*
X98732974Y-144211448D01*
X98719090Y-144230168D01*
X98703438Y-144247438D01*
X98686168Y-144263090D01*
X98667448Y-144276974D01*
X98647457Y-144288956D01*
X98626387Y-144298921D01*
X98604443Y-144306773D01*
X98581834Y-144312437D01*
X98558779Y-144315856D01*
X98535500Y-144317000D01*
X98060500Y-144317000D01*
X98037221Y-144315856D01*
X98014166Y-144312437D01*
X97991557Y-144306773D01*
X97969613Y-144298921D01*
X97948543Y-144288956D01*
X97928552Y-144276974D01*
X97909832Y-144263090D01*
X97892562Y-144247438D01*
X97876910Y-144230168D01*
X97863026Y-144211448D01*
X97851044Y-144191457D01*
X97841079Y-144170387D01*
X97833227Y-144148443D01*
X97827563Y-144125834D01*
X97824144Y-144102779D01*
X97823000Y-144079500D01*
X97823000Y-143504500D01*
X97824144Y-143481221D01*
X97827563Y-143458166D01*
X97833227Y-143435557D01*
X97841079Y-143413613D01*
X97851044Y-143392543D01*
X97863026Y-143372552D01*
X97876910Y-143353832D01*
X97892562Y-143336562D01*
X97909832Y-143320910D01*
X97928552Y-143307026D01*
X97948543Y-143295044D01*
X97969613Y-143285079D01*
X97991557Y-143277227D01*
X98014166Y-143271563D01*
X98037221Y-143268144D01*
X98060500Y-143267000D01*
X98535500Y-143267000D01*
X98558779Y-143268144D01*
G37*
G36*
X102876779Y-143240144D02*
G01*
X102899834Y-143243563D01*
X102922443Y-143249227D01*
X102944387Y-143257079D01*
X102965457Y-143267044D01*
X102985448Y-143279026D01*
X103004168Y-143292910D01*
X103021438Y-143308562D01*
X103037090Y-143325832D01*
X103050974Y-143344552D01*
X103062956Y-143364543D01*
X103072921Y-143385613D01*
X103080773Y-143407557D01*
X103086437Y-143430166D01*
X103089856Y-143453221D01*
X103091000Y-143476500D01*
X103091000Y-144051500D01*
X103089856Y-144074779D01*
X103086437Y-144097834D01*
X103080773Y-144120443D01*
X103072921Y-144142387D01*
X103062956Y-144163457D01*
X103050974Y-144183448D01*
X103037090Y-144202168D01*
X103021438Y-144219438D01*
X103004168Y-144235090D01*
X102985448Y-144248974D01*
X102965457Y-144260956D01*
X102944387Y-144270921D01*
X102922443Y-144278773D01*
X102899834Y-144284437D01*
X102876779Y-144287856D01*
X102853500Y-144289000D01*
X102378500Y-144289000D01*
X102355221Y-144287856D01*
X102332166Y-144284437D01*
X102309557Y-144278773D01*
X102287613Y-144270921D01*
X102266543Y-144260956D01*
X102246552Y-144248974D01*
X102227832Y-144235090D01*
X102210562Y-144219438D01*
X102194910Y-144202168D01*
X102181026Y-144183448D01*
X102169044Y-144163457D01*
X102159079Y-144142387D01*
X102151227Y-144120443D01*
X102145563Y-144097834D01*
X102142144Y-144074779D01*
X102141000Y-144051500D01*
X102141000Y-143476500D01*
X102142144Y-143453221D01*
X102145563Y-143430166D01*
X102151227Y-143407557D01*
X102159079Y-143385613D01*
X102169044Y-143364543D01*
X102181026Y-143344552D01*
X102194910Y-143325832D01*
X102210562Y-143308562D01*
X102227832Y-143292910D01*
X102246552Y-143279026D01*
X102266543Y-143267044D01*
X102287613Y-143257079D01*
X102309557Y-143249227D01*
X102332166Y-143243563D01*
X102355221Y-143240144D01*
X102378500Y-143239000D01*
X102853500Y-143239000D01*
X102876779Y-143240144D01*
G37*
G36*
X102876779Y-144990144D02*
G01*
X102899834Y-144993563D01*
X102922443Y-144999227D01*
X102944387Y-145007079D01*
X102965457Y-145017044D01*
X102985448Y-145029026D01*
X103004168Y-145042910D01*
X103021438Y-145058562D01*
X103037090Y-145075832D01*
X103050974Y-145094552D01*
X103062956Y-145114543D01*
X103072921Y-145135613D01*
X103080773Y-145157557D01*
X103086437Y-145180166D01*
X103089856Y-145203221D01*
X103091000Y-145226500D01*
X103091000Y-145801500D01*
X103089856Y-145824779D01*
X103086437Y-145847834D01*
X103080773Y-145870443D01*
X103072921Y-145892387D01*
X103062956Y-145913457D01*
X103050974Y-145933448D01*
X103037090Y-145952168D01*
X103021438Y-145969438D01*
X103004168Y-145985090D01*
X102985448Y-145998974D01*
X102965457Y-146010956D01*
X102944387Y-146020921D01*
X102922443Y-146028773D01*
X102899834Y-146034437D01*
X102876779Y-146037856D01*
X102853500Y-146039000D01*
X102378500Y-146039000D01*
X102355221Y-146037856D01*
X102332166Y-146034437D01*
X102309557Y-146028773D01*
X102287613Y-146020921D01*
X102266543Y-146010956D01*
X102246552Y-145998974D01*
X102227832Y-145985090D01*
X102210562Y-145969438D01*
X102194910Y-145952168D01*
X102181026Y-145933448D01*
X102169044Y-145913457D01*
X102159079Y-145892387D01*
X102151227Y-145870443D01*
X102145563Y-145847834D01*
X102142144Y-145824779D01*
X102141000Y-145801500D01*
X102141000Y-145226500D01*
X102142144Y-145203221D01*
X102145563Y-145180166D01*
X102151227Y-145157557D01*
X102159079Y-145135613D01*
X102169044Y-145114543D01*
X102181026Y-145094552D01*
X102194910Y-145075832D01*
X102210562Y-145058562D01*
X102227832Y-145042910D01*
X102246552Y-145029026D01*
X102266543Y-145017044D01*
X102287613Y-145007079D01*
X102309557Y-144999227D01*
X102332166Y-144993563D01*
X102355221Y-144990144D01*
X102378500Y-144989000D01*
X102853500Y-144989000D01*
X102876779Y-144990144D01*
G37*
G36*
X107194779Y-144990144D02*
G01*
X107217834Y-144993563D01*
X107240443Y-144999227D01*
X107262387Y-145007079D01*
X107283457Y-145017044D01*
X107303448Y-145029026D01*
X107322168Y-145042910D01*
X107339438Y-145058562D01*
X107355090Y-145075832D01*
X107368974Y-145094552D01*
X107380956Y-145114543D01*
X107390921Y-145135613D01*
X107398773Y-145157557D01*
X107404437Y-145180166D01*
X107407856Y-145203221D01*
X107409000Y-145226500D01*
X107409000Y-145801500D01*
X107407856Y-145824779D01*
X107404437Y-145847834D01*
X107398773Y-145870443D01*
X107390921Y-145892387D01*
X107380956Y-145913457D01*
X107368974Y-145933448D01*
X107355090Y-145952168D01*
X107339438Y-145969438D01*
X107322168Y-145985090D01*
X107303448Y-145998974D01*
X107283457Y-146010956D01*
X107262387Y-146020921D01*
X107240443Y-146028773D01*
X107217834Y-146034437D01*
X107194779Y-146037856D01*
X107171500Y-146039000D01*
X106696500Y-146039000D01*
X106673221Y-146037856D01*
X106650166Y-146034437D01*
X106627557Y-146028773D01*
X106605613Y-146020921D01*
X106584543Y-146010956D01*
X106564552Y-145998974D01*
X106545832Y-145985090D01*
X106528562Y-145969438D01*
X106512910Y-145952168D01*
X106499026Y-145933448D01*
X106487044Y-145913457D01*
X106477079Y-145892387D01*
X106469227Y-145870443D01*
X106463563Y-145847834D01*
X106460144Y-145824779D01*
X106459000Y-145801500D01*
X106459000Y-145226500D01*
X106460144Y-145203221D01*
X106463563Y-145180166D01*
X106469227Y-145157557D01*
X106477079Y-145135613D01*
X106487044Y-145114543D01*
X106499026Y-145094552D01*
X106512910Y-145075832D01*
X106528562Y-145058562D01*
X106545832Y-145042910D01*
X106564552Y-145029026D01*
X106584543Y-145017044D01*
X106605613Y-145007079D01*
X106627557Y-144999227D01*
X106650166Y-144993563D01*
X106673221Y-144990144D01*
X106696500Y-144989000D01*
X107171500Y-144989000D01*
X107194779Y-144990144D01*
G37*
G36*
X107194779Y-143240144D02*
G01*
X107217834Y-143243563D01*
X107240443Y-143249227D01*
X107262387Y-143257079D01*
X107283457Y-143267044D01*
X107303448Y-143279026D01*
X107322168Y-143292910D01*
X107339438Y-143308562D01*
X107355090Y-143325832D01*
X107368974Y-143344552D01*
X107380956Y-143364543D01*
X107390921Y-143385613D01*
X107398773Y-143407557D01*
X107404437Y-143430166D01*
X107407856Y-143453221D01*
X107409000Y-143476500D01*
X107409000Y-144051500D01*
X107407856Y-144074779D01*
X107404437Y-144097834D01*
X107398773Y-144120443D01*
X107390921Y-144142387D01*
X107380956Y-144163457D01*
X107368974Y-144183448D01*
X107355090Y-144202168D01*
X107339438Y-144219438D01*
X107322168Y-144235090D01*
X107303448Y-144248974D01*
X107283457Y-144260956D01*
X107262387Y-144270921D01*
X107240443Y-144278773D01*
X107217834Y-144284437D01*
X107194779Y-144287856D01*
X107171500Y-144289000D01*
X106696500Y-144289000D01*
X106673221Y-144287856D01*
X106650166Y-144284437D01*
X106627557Y-144278773D01*
X106605613Y-144270921D01*
X106584543Y-144260956D01*
X106564552Y-144248974D01*
X106545832Y-144235090D01*
X106528562Y-144219438D01*
X106512910Y-144202168D01*
X106499026Y-144183448D01*
X106487044Y-144163457D01*
X106477079Y-144142387D01*
X106469227Y-144120443D01*
X106463563Y-144097834D01*
X106460144Y-144074779D01*
X106459000Y-144051500D01*
X106459000Y-143476500D01*
X106460144Y-143453221D01*
X106463563Y-143430166D01*
X106469227Y-143407557D01*
X106477079Y-143385613D01*
X106487044Y-143364543D01*
X106499026Y-143344552D01*
X106512910Y-143325832D01*
X106528562Y-143308562D01*
X106545832Y-143292910D01*
X106564552Y-143279026D01*
X106584543Y-143267044D01*
X106605613Y-143257079D01*
X106627557Y-143249227D01*
X106650166Y-143243563D01*
X106673221Y-143240144D01*
X106696500Y-143239000D01*
X107171500Y-143239000D01*
X107194779Y-143240144D01*
G37*
G36*
X107194779Y-147050144D02*
G01*
X107217834Y-147053563D01*
X107240443Y-147059227D01*
X107262387Y-147067079D01*
X107283457Y-147077044D01*
X107303448Y-147089026D01*
X107322168Y-147102910D01*
X107339438Y-147118562D01*
X107355090Y-147135832D01*
X107368974Y-147154552D01*
X107380956Y-147174543D01*
X107390921Y-147195613D01*
X107398773Y-147217557D01*
X107404437Y-147240166D01*
X107407856Y-147263221D01*
X107409000Y-147286500D01*
X107409000Y-147861500D01*
X107407856Y-147884779D01*
X107404437Y-147907834D01*
X107398773Y-147930443D01*
X107390921Y-147952387D01*
X107380956Y-147973457D01*
X107368974Y-147993448D01*
X107355090Y-148012168D01*
X107339438Y-148029438D01*
X107322168Y-148045090D01*
X107303448Y-148058974D01*
X107283457Y-148070956D01*
X107262387Y-148080921D01*
X107240443Y-148088773D01*
X107217834Y-148094437D01*
X107194779Y-148097856D01*
X107171500Y-148099000D01*
X106696500Y-148099000D01*
X106673221Y-148097856D01*
X106650166Y-148094437D01*
X106627557Y-148088773D01*
X106605613Y-148080921D01*
X106584543Y-148070956D01*
X106564552Y-148058974D01*
X106545832Y-148045090D01*
X106528562Y-148029438D01*
X106512910Y-148012168D01*
X106499026Y-147993448D01*
X106487044Y-147973457D01*
X106477079Y-147952387D01*
X106469227Y-147930443D01*
X106463563Y-147907834D01*
X106460144Y-147884779D01*
X106459000Y-147861500D01*
X106459000Y-147286500D01*
X106460144Y-147263221D01*
X106463563Y-147240166D01*
X106469227Y-147217557D01*
X106477079Y-147195613D01*
X106487044Y-147174543D01*
X106499026Y-147154552D01*
X106512910Y-147135832D01*
X106528562Y-147118562D01*
X106545832Y-147102910D01*
X106564552Y-147089026D01*
X106584543Y-147077044D01*
X106605613Y-147067079D01*
X106627557Y-147059227D01*
X106650166Y-147053563D01*
X106673221Y-147050144D01*
X106696500Y-147049000D01*
X107171500Y-147049000D01*
X107194779Y-147050144D01*
G37*
G36*
X107194779Y-148800144D02*
G01*
X107217834Y-148803563D01*
X107240443Y-148809227D01*
X107262387Y-148817079D01*
X107283457Y-148827044D01*
X107303448Y-148839026D01*
X107322168Y-148852910D01*
X107339438Y-148868562D01*
X107355090Y-148885832D01*
X107368974Y-148904552D01*
X107380956Y-148924543D01*
X107390921Y-148945613D01*
X107398773Y-148967557D01*
X107404437Y-148990166D01*
X107407856Y-149013221D01*
X107409000Y-149036500D01*
X107409000Y-149611500D01*
X107407856Y-149634779D01*
X107404437Y-149657834D01*
X107398773Y-149680443D01*
X107390921Y-149702387D01*
X107380956Y-149723457D01*
X107368974Y-149743448D01*
X107355090Y-149762168D01*
X107339438Y-149779438D01*
X107322168Y-149795090D01*
X107303448Y-149808974D01*
X107283457Y-149820956D01*
X107262387Y-149830921D01*
X107240443Y-149838773D01*
X107217834Y-149844437D01*
X107194779Y-149847856D01*
X107171500Y-149849000D01*
X106696500Y-149849000D01*
X106673221Y-149847856D01*
X106650166Y-149844437D01*
X106627557Y-149838773D01*
X106605613Y-149830921D01*
X106584543Y-149820956D01*
X106564552Y-149808974D01*
X106545832Y-149795090D01*
X106528562Y-149779438D01*
X106512910Y-149762168D01*
X106499026Y-149743448D01*
X106487044Y-149723457D01*
X106477079Y-149702387D01*
X106469227Y-149680443D01*
X106463563Y-149657834D01*
X106460144Y-149634779D01*
X106459000Y-149611500D01*
X106459000Y-149036500D01*
X106460144Y-149013221D01*
X106463563Y-148990166D01*
X106469227Y-148967557D01*
X106477079Y-148945613D01*
X106487044Y-148924543D01*
X106499026Y-148904552D01*
X106512910Y-148885832D01*
X106528562Y-148868562D01*
X106545832Y-148852910D01*
X106564552Y-148839026D01*
X106584543Y-148827044D01*
X106605613Y-148817079D01*
X106627557Y-148809227D01*
X106650166Y-148803563D01*
X106673221Y-148800144D01*
X106696500Y-148799000D01*
X107171500Y-148799000D01*
X107194779Y-148800144D01*
G37*
G36*
X107194779Y-150860144D02*
G01*
X107217834Y-150863563D01*
X107240443Y-150869227D01*
X107262387Y-150877079D01*
X107283457Y-150887044D01*
X107303448Y-150899026D01*
X107322168Y-150912910D01*
X107339438Y-150928562D01*
X107355090Y-150945832D01*
X107368974Y-150964552D01*
X107380956Y-150984543D01*
X107390921Y-151005613D01*
X107398773Y-151027557D01*
X107404437Y-151050166D01*
X107407856Y-151073221D01*
X107409000Y-151096500D01*
X107409000Y-151671500D01*
X107407856Y-151694779D01*
X107404437Y-151717834D01*
X107398773Y-151740443D01*
X107390921Y-151762387D01*
X107380956Y-151783457D01*
X107368974Y-151803448D01*
X107355090Y-151822168D01*
X107339438Y-151839438D01*
X107322168Y-151855090D01*
X107303448Y-151868974D01*
X107283457Y-151880956D01*
X107262387Y-151890921D01*
X107240443Y-151898773D01*
X107217834Y-151904437D01*
X107194779Y-151907856D01*
X107171500Y-151909000D01*
X106696500Y-151909000D01*
X106673221Y-151907856D01*
X106650166Y-151904437D01*
X106627557Y-151898773D01*
X106605613Y-151890921D01*
X106584543Y-151880956D01*
X106564552Y-151868974D01*
X106545832Y-151855090D01*
X106528562Y-151839438D01*
X106512910Y-151822168D01*
X106499026Y-151803448D01*
X106487044Y-151783457D01*
X106477079Y-151762387D01*
X106469227Y-151740443D01*
X106463563Y-151717834D01*
X106460144Y-151694779D01*
X106459000Y-151671500D01*
X106459000Y-151096500D01*
X106460144Y-151073221D01*
X106463563Y-151050166D01*
X106469227Y-151027557D01*
X106477079Y-151005613D01*
X106487044Y-150984543D01*
X106499026Y-150964552D01*
X106512910Y-150945832D01*
X106528562Y-150928562D01*
X106545832Y-150912910D01*
X106564552Y-150899026D01*
X106584543Y-150887044D01*
X106605613Y-150877079D01*
X106627557Y-150869227D01*
X106650166Y-150863563D01*
X106673221Y-150860144D01*
X106696500Y-150859000D01*
X107171500Y-150859000D01*
X107194779Y-150860144D01*
G37*
G36*
X107194779Y-152610144D02*
G01*
X107217834Y-152613563D01*
X107240443Y-152619227D01*
X107262387Y-152627079D01*
X107283457Y-152637044D01*
X107303448Y-152649026D01*
X107322168Y-152662910D01*
X107339438Y-152678562D01*
X107355090Y-152695832D01*
X107368974Y-152714552D01*
X107380956Y-152734543D01*
X107390921Y-152755613D01*
X107398773Y-152777557D01*
X107404437Y-152800166D01*
X107407856Y-152823221D01*
X107409000Y-152846500D01*
X107409000Y-153421500D01*
X107407856Y-153444779D01*
X107404437Y-153467834D01*
X107398773Y-153490443D01*
X107390921Y-153512387D01*
X107380956Y-153533457D01*
X107368974Y-153553448D01*
X107355090Y-153572168D01*
X107339438Y-153589438D01*
X107322168Y-153605090D01*
X107303448Y-153618974D01*
X107283457Y-153630956D01*
X107262387Y-153640921D01*
X107240443Y-153648773D01*
X107217834Y-153654437D01*
X107194779Y-153657856D01*
X107171500Y-153659000D01*
X106696500Y-153659000D01*
X106673221Y-153657856D01*
X106650166Y-153654437D01*
X106627557Y-153648773D01*
X106605613Y-153640921D01*
X106584543Y-153630956D01*
X106564552Y-153618974D01*
X106545832Y-153605090D01*
X106528562Y-153589438D01*
X106512910Y-153572168D01*
X106499026Y-153553448D01*
X106487044Y-153533457D01*
X106477079Y-153512387D01*
X106469227Y-153490443D01*
X106463563Y-153467834D01*
X106460144Y-153444779D01*
X106459000Y-153421500D01*
X106459000Y-152846500D01*
X106460144Y-152823221D01*
X106463563Y-152800166D01*
X106469227Y-152777557D01*
X106477079Y-152755613D01*
X106487044Y-152734543D01*
X106499026Y-152714552D01*
X106512910Y-152695832D01*
X106528562Y-152678562D01*
X106545832Y-152662910D01*
X106564552Y-152649026D01*
X106584543Y-152637044D01*
X106605613Y-152627079D01*
X106627557Y-152619227D01*
X106650166Y-152613563D01*
X106673221Y-152610144D01*
X106696500Y-152609000D01*
X107171500Y-152609000D01*
X107194779Y-152610144D01*
G37*
G36*
X114499504Y-158401204D02*
G01*
X114523773Y-158404804D01*
X114547571Y-158410765D01*
X114570671Y-158419030D01*
X114592849Y-158429520D01*
X114613893Y-158442133D01*
X114633598Y-158456747D01*
X114651777Y-158473223D01*
X114668253Y-158491402D01*
X114682867Y-158511107D01*
X114695480Y-158532151D01*
X114705970Y-158554329D01*
X114714235Y-158577429D01*
X114720196Y-158601227D01*
X114723796Y-158625496D01*
X114725000Y-158650000D01*
X114725000Y-159575000D01*
X114723796Y-159599504D01*
X114720196Y-159623773D01*
X114714235Y-159647571D01*
X114705970Y-159670671D01*
X114695480Y-159692849D01*
X114682867Y-159713893D01*
X114668253Y-159733598D01*
X114651777Y-159751777D01*
X114633598Y-159768253D01*
X114613893Y-159782867D01*
X114592849Y-159795480D01*
X114570671Y-159805970D01*
X114547571Y-159814235D01*
X114523773Y-159820196D01*
X114499504Y-159823796D01*
X114475000Y-159825000D01*
X113225000Y-159825000D01*
X113200496Y-159823796D01*
X113176227Y-159820196D01*
X113152429Y-159814235D01*
X113129329Y-159805970D01*
X113107151Y-159795480D01*
X113086107Y-159782867D01*
X113066402Y-159768253D01*
X113048223Y-159751777D01*
X113031747Y-159733598D01*
X113017133Y-159713893D01*
X113004520Y-159692849D01*
X112994030Y-159670671D01*
X112985765Y-159647571D01*
X112979804Y-159623773D01*
X112976204Y-159599504D01*
X112975000Y-159575000D01*
X112975000Y-158650000D01*
X112976204Y-158625496D01*
X112979804Y-158601227D01*
X112985765Y-158577429D01*
X112994030Y-158554329D01*
X113004520Y-158532151D01*
X113017133Y-158511107D01*
X113031747Y-158491402D01*
X113048223Y-158473223D01*
X113066402Y-158456747D01*
X113086107Y-158442133D01*
X113107151Y-158429520D01*
X113129329Y-158419030D01*
X113152429Y-158410765D01*
X113176227Y-158404804D01*
X113200496Y-158401204D01*
X113225000Y-158400000D01*
X114475000Y-158400000D01*
X114499504Y-158401204D01*
G37*
G36*
X114499504Y-161376204D02*
G01*
X114523773Y-161379804D01*
X114547571Y-161385765D01*
X114570671Y-161394030D01*
X114592849Y-161404520D01*
X114613893Y-161417133D01*
X114633598Y-161431747D01*
X114651777Y-161448223D01*
X114668253Y-161466402D01*
X114682867Y-161486107D01*
X114695480Y-161507151D01*
X114705970Y-161529329D01*
X114714235Y-161552429D01*
X114720196Y-161576227D01*
X114723796Y-161600496D01*
X114725000Y-161625000D01*
X114725000Y-162550000D01*
X114723796Y-162574504D01*
X114720196Y-162598773D01*
X114714235Y-162622571D01*
X114705970Y-162645671D01*
X114695480Y-162667849D01*
X114682867Y-162688893D01*
X114668253Y-162708598D01*
X114651777Y-162726777D01*
X114633598Y-162743253D01*
X114613893Y-162757867D01*
X114592849Y-162770480D01*
X114570671Y-162780970D01*
X114547571Y-162789235D01*
X114523773Y-162795196D01*
X114499504Y-162798796D01*
X114475000Y-162800000D01*
X113225000Y-162800000D01*
X113200496Y-162798796D01*
X113176227Y-162795196D01*
X113152429Y-162789235D01*
X113129329Y-162780970D01*
X113107151Y-162770480D01*
X113086107Y-162757867D01*
X113066402Y-162743253D01*
X113048223Y-162726777D01*
X113031747Y-162708598D01*
X113017133Y-162688893D01*
X113004520Y-162667849D01*
X112994030Y-162645671D01*
X112985765Y-162622571D01*
X112979804Y-162598773D01*
X112976204Y-162574504D01*
X112975000Y-162550000D01*
X112975000Y-161625000D01*
X112976204Y-161600496D01*
X112979804Y-161576227D01*
X112985765Y-161552429D01*
X112994030Y-161529329D01*
X113004520Y-161507151D01*
X113017133Y-161486107D01*
X113031747Y-161466402D01*
X113048223Y-161448223D01*
X113066402Y-161431747D01*
X113086107Y-161417133D01*
X113107151Y-161404520D01*
X113129329Y-161394030D01*
X113152429Y-161385765D01*
X113176227Y-161379804D01*
X113200496Y-161376204D01*
X113225000Y-161375000D01*
X114475000Y-161375000D01*
X114499504Y-161376204D01*
G37*
G36*
X114349504Y-155988704D02*
G01*
X114373773Y-155992304D01*
X114397571Y-155998265D01*
X114420671Y-156006530D01*
X114442849Y-156017020D01*
X114463893Y-156029633D01*
X114483598Y-156044247D01*
X114501777Y-156060723D01*
X114518253Y-156078902D01*
X114532867Y-156098607D01*
X114545480Y-156119651D01*
X114555970Y-156141829D01*
X114564235Y-156164929D01*
X114570196Y-156188727D01*
X114573796Y-156212996D01*
X114575000Y-156237500D01*
X114575000Y-157162500D01*
X114573796Y-157187004D01*
X114570196Y-157211273D01*
X114564235Y-157235071D01*
X114555970Y-157258171D01*
X114545480Y-157280349D01*
X114532867Y-157301393D01*
X114518253Y-157321098D01*
X114501777Y-157339277D01*
X114483598Y-157355753D01*
X114463893Y-157370367D01*
X114442849Y-157382980D01*
X114420671Y-157393470D01*
X114397571Y-157401735D01*
X114373773Y-157407696D01*
X114349504Y-157411296D01*
X114325000Y-157412500D01*
X113075000Y-157412500D01*
X113050496Y-157411296D01*
X113026227Y-157407696D01*
X113002429Y-157401735D01*
X112979329Y-157393470D01*
X112957151Y-157382980D01*
X112936107Y-157370367D01*
X112916402Y-157355753D01*
X112898223Y-157339277D01*
X112881747Y-157321098D01*
X112867133Y-157301393D01*
X112854520Y-157280349D01*
X112844030Y-157258171D01*
X112835765Y-157235071D01*
X112829804Y-157211273D01*
X112826204Y-157187004D01*
X112825000Y-157162500D01*
X112825000Y-156237500D01*
X112826204Y-156212996D01*
X112829804Y-156188727D01*
X112835765Y-156164929D01*
X112844030Y-156141829D01*
X112854520Y-156119651D01*
X112867133Y-156098607D01*
X112881747Y-156078902D01*
X112898223Y-156060723D01*
X112916402Y-156044247D01*
X112936107Y-156029633D01*
X112957151Y-156017020D01*
X112979329Y-156006530D01*
X113002429Y-155998265D01*
X113026227Y-155992304D01*
X113050496Y-155988704D01*
X113075000Y-155987500D01*
X114325000Y-155987500D01*
X114349504Y-155988704D01*
G37*
G36*
X114349504Y-153013704D02*
G01*
X114373773Y-153017304D01*
X114397571Y-153023265D01*
X114420671Y-153031530D01*
X114442849Y-153042020D01*
X114463893Y-153054633D01*
X114483598Y-153069247D01*
X114501777Y-153085723D01*
X114518253Y-153103902D01*
X114532867Y-153123607D01*
X114545480Y-153144651D01*
X114555970Y-153166829D01*
X114564235Y-153189929D01*
X114570196Y-153213727D01*
X114573796Y-153237996D01*
X114575000Y-153262500D01*
X114575000Y-154187500D01*
X114573796Y-154212004D01*
X114570196Y-154236273D01*
X114564235Y-154260071D01*
X114555970Y-154283171D01*
X114545480Y-154305349D01*
X114532867Y-154326393D01*
X114518253Y-154346098D01*
X114501777Y-154364277D01*
X114483598Y-154380753D01*
X114463893Y-154395367D01*
X114442849Y-154407980D01*
X114420671Y-154418470D01*
X114397571Y-154426735D01*
X114373773Y-154432696D01*
X114349504Y-154436296D01*
X114325000Y-154437500D01*
X113075000Y-154437500D01*
X113050496Y-154436296D01*
X113026227Y-154432696D01*
X113002429Y-154426735D01*
X112979329Y-154418470D01*
X112957151Y-154407980D01*
X112936107Y-154395367D01*
X112916402Y-154380753D01*
X112898223Y-154364277D01*
X112881747Y-154346098D01*
X112867133Y-154326393D01*
X112854520Y-154305349D01*
X112844030Y-154283171D01*
X112835765Y-154260071D01*
X112829804Y-154236273D01*
X112826204Y-154212004D01*
X112825000Y-154187500D01*
X112825000Y-153262500D01*
X112826204Y-153237996D01*
X112829804Y-153213727D01*
X112835765Y-153189929D01*
X112844030Y-153166829D01*
X112854520Y-153144651D01*
X112867133Y-153123607D01*
X112881747Y-153103902D01*
X112898223Y-153085723D01*
X112916402Y-153069247D01*
X112936107Y-153054633D01*
X112957151Y-153042020D01*
X112979329Y-153031530D01*
X113002429Y-153023265D01*
X113026227Y-153017304D01*
X113050496Y-153013704D01*
X113075000Y-153012500D01*
X114325000Y-153012500D01*
X114349504Y-153013704D01*
G37*
G36*
X114441504Y-167109704D02*
G01*
X114465773Y-167113304D01*
X114489571Y-167119265D01*
X114512671Y-167127530D01*
X114534849Y-167138020D01*
X114555893Y-167150633D01*
X114575598Y-167165247D01*
X114593777Y-167181723D01*
X114610253Y-167199902D01*
X114624867Y-167219607D01*
X114637480Y-167240651D01*
X114647970Y-167262829D01*
X114656235Y-167285929D01*
X114662196Y-167309727D01*
X114665796Y-167333996D01*
X114667000Y-167358500D01*
X114667000Y-168283500D01*
X114665796Y-168308004D01*
X114662196Y-168332273D01*
X114656235Y-168356071D01*
X114647970Y-168379171D01*
X114637480Y-168401349D01*
X114624867Y-168422393D01*
X114610253Y-168442098D01*
X114593777Y-168460277D01*
X114575598Y-168476753D01*
X114555893Y-168491367D01*
X114534849Y-168503980D01*
X114512671Y-168514470D01*
X114489571Y-168522735D01*
X114465773Y-168528696D01*
X114441504Y-168532296D01*
X114417000Y-168533500D01*
X113167000Y-168533500D01*
X113142496Y-168532296D01*
X113118227Y-168528696D01*
X113094429Y-168522735D01*
X113071329Y-168514470D01*
X113049151Y-168503980D01*
X113028107Y-168491367D01*
X113008402Y-168476753D01*
X112990223Y-168460277D01*
X112973747Y-168442098D01*
X112959133Y-168422393D01*
X112946520Y-168401349D01*
X112936030Y-168379171D01*
X112927765Y-168356071D01*
X112921804Y-168332273D01*
X112918204Y-168308004D01*
X112917000Y-168283500D01*
X112917000Y-167358500D01*
X112918204Y-167333996D01*
X112921804Y-167309727D01*
X112927765Y-167285929D01*
X112936030Y-167262829D01*
X112946520Y-167240651D01*
X112959133Y-167219607D01*
X112973747Y-167199902D01*
X112990223Y-167181723D01*
X113008402Y-167165247D01*
X113028107Y-167150633D01*
X113049151Y-167138020D01*
X113071329Y-167127530D01*
X113094429Y-167119265D01*
X113118227Y-167113304D01*
X113142496Y-167109704D01*
X113167000Y-167108500D01*
X114417000Y-167108500D01*
X114441504Y-167109704D01*
G37*
G36*
X114441504Y-164134704D02*
G01*
X114465773Y-164138304D01*
X114489571Y-164144265D01*
X114512671Y-164152530D01*
X114534849Y-164163020D01*
X114555893Y-164175633D01*
X114575598Y-164190247D01*
X114593777Y-164206723D01*
X114610253Y-164224902D01*
X114624867Y-164244607D01*
X114637480Y-164265651D01*
X114647970Y-164287829D01*
X114656235Y-164310929D01*
X114662196Y-164334727D01*
X114665796Y-164358996D01*
X114667000Y-164383500D01*
X114667000Y-165308500D01*
X114665796Y-165333004D01*
X114662196Y-165357273D01*
X114656235Y-165381071D01*
X114647970Y-165404171D01*
X114637480Y-165426349D01*
X114624867Y-165447393D01*
X114610253Y-165467098D01*
X114593777Y-165485277D01*
X114575598Y-165501753D01*
X114555893Y-165516367D01*
X114534849Y-165528980D01*
X114512671Y-165539470D01*
X114489571Y-165547735D01*
X114465773Y-165553696D01*
X114441504Y-165557296D01*
X114417000Y-165558500D01*
X113167000Y-165558500D01*
X113142496Y-165557296D01*
X113118227Y-165553696D01*
X113094429Y-165547735D01*
X113071329Y-165539470D01*
X113049151Y-165528980D01*
X113028107Y-165516367D01*
X113008402Y-165501753D01*
X112990223Y-165485277D01*
X112973747Y-165467098D01*
X112959133Y-165447393D01*
X112946520Y-165426349D01*
X112936030Y-165404171D01*
X112927765Y-165381071D01*
X112921804Y-165357273D01*
X112918204Y-165333004D01*
X112917000Y-165308500D01*
X112917000Y-164383500D01*
X112918204Y-164358996D01*
X112921804Y-164334727D01*
X112927765Y-164310929D01*
X112936030Y-164287829D01*
X112946520Y-164265651D01*
X112959133Y-164244607D01*
X112973747Y-164224902D01*
X112990223Y-164206723D01*
X113008402Y-164190247D01*
X113028107Y-164175633D01*
X113049151Y-164163020D01*
X113071329Y-164152530D01*
X113094429Y-164144265D01*
X113118227Y-164138304D01*
X113142496Y-164134704D01*
X113167000Y-164133500D01*
X114417000Y-164133500D01*
X114441504Y-164134704D01*
G37*
G36*
X114349504Y-150413704D02*
G01*
X114373773Y-150417304D01*
X114397571Y-150423265D01*
X114420671Y-150431530D01*
X114442849Y-150442020D01*
X114463893Y-150454633D01*
X114483598Y-150469247D01*
X114501777Y-150485723D01*
X114518253Y-150503902D01*
X114532867Y-150523607D01*
X114545480Y-150544651D01*
X114555970Y-150566829D01*
X114564235Y-150589929D01*
X114570196Y-150613727D01*
X114573796Y-150637996D01*
X114575000Y-150662500D01*
X114575000Y-151587500D01*
X114573796Y-151612004D01*
X114570196Y-151636273D01*
X114564235Y-151660071D01*
X114555970Y-151683171D01*
X114545480Y-151705349D01*
X114532867Y-151726393D01*
X114518253Y-151746098D01*
X114501777Y-151764277D01*
X114483598Y-151780753D01*
X114463893Y-151795367D01*
X114442849Y-151807980D01*
X114420671Y-151818470D01*
X114397571Y-151826735D01*
X114373773Y-151832696D01*
X114349504Y-151836296D01*
X114325000Y-151837500D01*
X113075000Y-151837500D01*
X113050496Y-151836296D01*
X113026227Y-151832696D01*
X113002429Y-151826735D01*
X112979329Y-151818470D01*
X112957151Y-151807980D01*
X112936107Y-151795367D01*
X112916402Y-151780753D01*
X112898223Y-151764277D01*
X112881747Y-151746098D01*
X112867133Y-151726393D01*
X112854520Y-151705349D01*
X112844030Y-151683171D01*
X112835765Y-151660071D01*
X112829804Y-151636273D01*
X112826204Y-151612004D01*
X112825000Y-151587500D01*
X112825000Y-150662500D01*
X112826204Y-150637996D01*
X112829804Y-150613727D01*
X112835765Y-150589929D01*
X112844030Y-150566829D01*
X112854520Y-150544651D01*
X112867133Y-150523607D01*
X112881747Y-150503902D01*
X112898223Y-150485723D01*
X112916402Y-150469247D01*
X112936107Y-150454633D01*
X112957151Y-150442020D01*
X112979329Y-150431530D01*
X113002429Y-150423265D01*
X113026227Y-150417304D01*
X113050496Y-150413704D01*
X113075000Y-150412500D01*
X114325000Y-150412500D01*
X114349504Y-150413704D01*
G37*
G36*
X114349504Y-147438704D02*
G01*
X114373773Y-147442304D01*
X114397571Y-147448265D01*
X114420671Y-147456530D01*
X114442849Y-147467020D01*
X114463893Y-147479633D01*
X114483598Y-147494247D01*
X114501777Y-147510723D01*
X114518253Y-147528902D01*
X114532867Y-147548607D01*
X114545480Y-147569651D01*
X114555970Y-147591829D01*
X114564235Y-147614929D01*
X114570196Y-147638727D01*
X114573796Y-147662996D01*
X114575000Y-147687500D01*
X114575000Y-148612500D01*
X114573796Y-148637004D01*
X114570196Y-148661273D01*
X114564235Y-148685071D01*
X114555970Y-148708171D01*
X114545480Y-148730349D01*
X114532867Y-148751393D01*
X114518253Y-148771098D01*
X114501777Y-148789277D01*
X114483598Y-148805753D01*
X114463893Y-148820367D01*
X114442849Y-148832980D01*
X114420671Y-148843470D01*
X114397571Y-148851735D01*
X114373773Y-148857696D01*
X114349504Y-148861296D01*
X114325000Y-148862500D01*
X113075000Y-148862500D01*
X113050496Y-148861296D01*
X113026227Y-148857696D01*
X113002429Y-148851735D01*
X112979329Y-148843470D01*
X112957151Y-148832980D01*
X112936107Y-148820367D01*
X112916402Y-148805753D01*
X112898223Y-148789277D01*
X112881747Y-148771098D01*
X112867133Y-148751393D01*
X112854520Y-148730349D01*
X112844030Y-148708171D01*
X112835765Y-148685071D01*
X112829804Y-148661273D01*
X112826204Y-148637004D01*
X112825000Y-148612500D01*
X112825000Y-147687500D01*
X112826204Y-147662996D01*
X112829804Y-147638727D01*
X112835765Y-147614929D01*
X112844030Y-147591829D01*
X112854520Y-147569651D01*
X112867133Y-147548607D01*
X112881747Y-147528902D01*
X112898223Y-147510723D01*
X112916402Y-147494247D01*
X112936107Y-147479633D01*
X112957151Y-147467020D01*
X112979329Y-147456530D01*
X113002429Y-147448265D01*
X113026227Y-147442304D01*
X113050496Y-147438704D01*
X113075000Y-147437500D01*
X114325000Y-147437500D01*
X114349504Y-147438704D01*
G37*
G36*
X124624364Y-158388704D02*
G01*
X124648633Y-158392304D01*
X124672431Y-158398265D01*
X124695531Y-158406530D01*
X124717709Y-158417020D01*
X124738753Y-158429633D01*
X124758458Y-158444247D01*
X124776637Y-158460723D01*
X124793113Y-158478902D01*
X124807727Y-158498607D01*
X124820340Y-158519651D01*
X124830830Y-158541829D01*
X124839095Y-158564929D01*
X124845056Y-158588727D01*
X124848656Y-158612996D01*
X124849860Y-158637500D01*
X124849860Y-159562500D01*
X124848656Y-159587004D01*
X124845056Y-159611273D01*
X124839095Y-159635071D01*
X124830830Y-159658171D01*
X124820340Y-159680349D01*
X124807727Y-159701393D01*
X124793113Y-159721098D01*
X124776637Y-159739277D01*
X124758458Y-159755753D01*
X124738753Y-159770367D01*
X124717709Y-159782980D01*
X124695531Y-159793470D01*
X124672431Y-159801735D01*
X124648633Y-159807696D01*
X124624364Y-159811296D01*
X124599860Y-159812500D01*
X123349860Y-159812500D01*
X123325356Y-159811296D01*
X123301087Y-159807696D01*
X123277289Y-159801735D01*
X123254189Y-159793470D01*
X123232011Y-159782980D01*
X123210967Y-159770367D01*
X123191262Y-159755753D01*
X123173083Y-159739277D01*
X123156607Y-159721098D01*
X123141993Y-159701393D01*
X123129380Y-159680349D01*
X123118890Y-159658171D01*
X123110625Y-159635071D01*
X123104664Y-159611273D01*
X123101064Y-159587004D01*
X123099860Y-159562500D01*
X123099860Y-158637500D01*
X123101064Y-158612996D01*
X123104664Y-158588727D01*
X123110625Y-158564929D01*
X123118890Y-158541829D01*
X123129380Y-158519651D01*
X123141993Y-158498607D01*
X123156607Y-158478902D01*
X123173083Y-158460723D01*
X123191262Y-158444247D01*
X123210967Y-158429633D01*
X123232011Y-158417020D01*
X123254189Y-158406530D01*
X123277289Y-158398265D01*
X123301087Y-158392304D01*
X123325356Y-158388704D01*
X123349860Y-158387500D01*
X124599860Y-158387500D01*
X124624364Y-158388704D01*
G37*
G36*
X124624364Y-161363704D02*
G01*
X124648633Y-161367304D01*
X124672431Y-161373265D01*
X124695531Y-161381530D01*
X124717709Y-161392020D01*
X124738753Y-161404633D01*
X124758458Y-161419247D01*
X124776637Y-161435723D01*
X124793113Y-161453902D01*
X124807727Y-161473607D01*
X124820340Y-161494651D01*
X124830830Y-161516829D01*
X124839095Y-161539929D01*
X124845056Y-161563727D01*
X124848656Y-161587996D01*
X124849860Y-161612500D01*
X124849860Y-162537500D01*
X124848656Y-162562004D01*
X124845056Y-162586273D01*
X124839095Y-162610071D01*
X124830830Y-162633171D01*
X124820340Y-162655349D01*
X124807727Y-162676393D01*
X124793113Y-162696098D01*
X124776637Y-162714277D01*
X124758458Y-162730753D01*
X124738753Y-162745367D01*
X124717709Y-162757980D01*
X124695531Y-162768470D01*
X124672431Y-162776735D01*
X124648633Y-162782696D01*
X124624364Y-162786296D01*
X124599860Y-162787500D01*
X123349860Y-162787500D01*
X123325356Y-162786296D01*
X123301087Y-162782696D01*
X123277289Y-162776735D01*
X123254189Y-162768470D01*
X123232011Y-162757980D01*
X123210967Y-162745367D01*
X123191262Y-162730753D01*
X123173083Y-162714277D01*
X123156607Y-162696098D01*
X123141993Y-162676393D01*
X123129380Y-162655349D01*
X123118890Y-162633171D01*
X123110625Y-162610071D01*
X123104664Y-162586273D01*
X123101064Y-162562004D01*
X123099860Y-162537500D01*
X123099860Y-161612500D01*
X123101064Y-161587996D01*
X123104664Y-161563727D01*
X123110625Y-161539929D01*
X123118890Y-161516829D01*
X123129380Y-161494651D01*
X123141993Y-161473607D01*
X123156607Y-161453902D01*
X123173083Y-161435723D01*
X123191262Y-161419247D01*
X123210967Y-161404633D01*
X123232011Y-161392020D01*
X123254189Y-161381530D01*
X123277289Y-161373265D01*
X123301087Y-161367304D01*
X123325356Y-161363704D01*
X123349860Y-161362500D01*
X124599860Y-161362500D01*
X124624364Y-161363704D01*
G37*
G36*
X124599504Y-155901204D02*
G01*
X124623773Y-155904804D01*
X124647571Y-155910765D01*
X124670671Y-155919030D01*
X124692849Y-155929520D01*
X124713893Y-155942133D01*
X124733598Y-155956747D01*
X124751777Y-155973223D01*
X124768253Y-155991402D01*
X124782867Y-156011107D01*
X124795480Y-156032151D01*
X124805970Y-156054329D01*
X124814235Y-156077429D01*
X124820196Y-156101227D01*
X124823796Y-156125496D01*
X124825000Y-156150000D01*
X124825000Y-157075000D01*
X124823796Y-157099504D01*
X124820196Y-157123773D01*
X124814235Y-157147571D01*
X124805970Y-157170671D01*
X124795480Y-157192849D01*
X124782867Y-157213893D01*
X124768253Y-157233598D01*
X124751777Y-157251777D01*
X124733598Y-157268253D01*
X124713893Y-157282867D01*
X124692849Y-157295480D01*
X124670671Y-157305970D01*
X124647571Y-157314235D01*
X124623773Y-157320196D01*
X124599504Y-157323796D01*
X124575000Y-157325000D01*
X123325000Y-157325000D01*
X123300496Y-157323796D01*
X123276227Y-157320196D01*
X123252429Y-157314235D01*
X123229329Y-157305970D01*
X123207151Y-157295480D01*
X123186107Y-157282867D01*
X123166402Y-157268253D01*
X123148223Y-157251777D01*
X123131747Y-157233598D01*
X123117133Y-157213893D01*
X123104520Y-157192849D01*
X123094030Y-157170671D01*
X123085765Y-157147571D01*
X123079804Y-157123773D01*
X123076204Y-157099504D01*
X123075000Y-157075000D01*
X123075000Y-156150000D01*
X123076204Y-156125496D01*
X123079804Y-156101227D01*
X123085765Y-156077429D01*
X123094030Y-156054329D01*
X123104520Y-156032151D01*
X123117133Y-156011107D01*
X123131747Y-155991402D01*
X123148223Y-155973223D01*
X123166402Y-155956747D01*
X123186107Y-155942133D01*
X123207151Y-155929520D01*
X123229329Y-155919030D01*
X123252429Y-155910765D01*
X123276227Y-155904804D01*
X123300496Y-155901204D01*
X123325000Y-155900000D01*
X124575000Y-155900000D01*
X124599504Y-155901204D01*
G37*
G36*
X124599504Y-152926204D02*
G01*
X124623773Y-152929804D01*
X124647571Y-152935765D01*
X124670671Y-152944030D01*
X124692849Y-152954520D01*
X124713893Y-152967133D01*
X124733598Y-152981747D01*
X124751777Y-152998223D01*
X124768253Y-153016402D01*
X124782867Y-153036107D01*
X124795480Y-153057151D01*
X124805970Y-153079329D01*
X124814235Y-153102429D01*
X124820196Y-153126227D01*
X124823796Y-153150496D01*
X124825000Y-153175000D01*
X124825000Y-154100000D01*
X124823796Y-154124504D01*
X124820196Y-154148773D01*
X124814235Y-154172571D01*
X124805970Y-154195671D01*
X124795480Y-154217849D01*
X124782867Y-154238893D01*
X124768253Y-154258598D01*
X124751777Y-154276777D01*
X124733598Y-154293253D01*
X124713893Y-154307867D01*
X124692849Y-154320480D01*
X124670671Y-154330970D01*
X124647571Y-154339235D01*
X124623773Y-154345196D01*
X124599504Y-154348796D01*
X124575000Y-154350000D01*
X123325000Y-154350000D01*
X123300496Y-154348796D01*
X123276227Y-154345196D01*
X123252429Y-154339235D01*
X123229329Y-154330970D01*
X123207151Y-154320480D01*
X123186107Y-154307867D01*
X123166402Y-154293253D01*
X123148223Y-154276777D01*
X123131747Y-154258598D01*
X123117133Y-154238893D01*
X123104520Y-154217849D01*
X123094030Y-154195671D01*
X123085765Y-154172571D01*
X123079804Y-154148773D01*
X123076204Y-154124504D01*
X123075000Y-154100000D01*
X123075000Y-153175000D01*
X123076204Y-153150496D01*
X123079804Y-153126227D01*
X123085765Y-153102429D01*
X123094030Y-153079329D01*
X123104520Y-153057151D01*
X123117133Y-153036107D01*
X123131747Y-153016402D01*
X123148223Y-152998223D01*
X123166402Y-152981747D01*
X123186107Y-152967133D01*
X123207151Y-152954520D01*
X123229329Y-152944030D01*
X123252429Y-152935765D01*
X123276227Y-152929804D01*
X123300496Y-152926204D01*
X123325000Y-152925000D01*
X124575000Y-152925000D01*
X124599504Y-152926204D01*
G37*
G36*
X124512604Y-150444764D02*
G01*
X124536873Y-150448364D01*
X124560671Y-150454325D01*
X124583771Y-150462590D01*
X124605949Y-150473080D01*
X124626993Y-150485693D01*
X124646698Y-150500307D01*
X124664877Y-150516783D01*
X124681353Y-150534962D01*
X124695967Y-150554667D01*
X124708580Y-150575711D01*
X124719070Y-150597889D01*
X124727335Y-150620989D01*
X124733296Y-150644787D01*
X124736896Y-150669056D01*
X124738100Y-150693560D01*
X124738100Y-151618560D01*
X124736896Y-151643064D01*
X124733296Y-151667333D01*
X124727335Y-151691131D01*
X124719070Y-151714231D01*
X124708580Y-151736409D01*
X124695967Y-151757453D01*
X124681353Y-151777158D01*
X124664877Y-151795337D01*
X124646698Y-151811813D01*
X124626993Y-151826427D01*
X124605949Y-151839040D01*
X124583771Y-151849530D01*
X124560671Y-151857795D01*
X124536873Y-151863756D01*
X124512604Y-151867356D01*
X124488100Y-151868560D01*
X123238100Y-151868560D01*
X123213596Y-151867356D01*
X123189327Y-151863756D01*
X123165529Y-151857795D01*
X123142429Y-151849530D01*
X123120251Y-151839040D01*
X123099207Y-151826427D01*
X123079502Y-151811813D01*
X123061323Y-151795337D01*
X123044847Y-151777158D01*
X123030233Y-151757453D01*
X123017620Y-151736409D01*
X123007130Y-151714231D01*
X122998865Y-151691131D01*
X122992904Y-151667333D01*
X122989304Y-151643064D01*
X122988100Y-151618560D01*
X122988100Y-150693560D01*
X122989304Y-150669056D01*
X122992904Y-150644787D01*
X122998865Y-150620989D01*
X123007130Y-150597889D01*
X123017620Y-150575711D01*
X123030233Y-150554667D01*
X123044847Y-150534962D01*
X123061323Y-150516783D01*
X123079502Y-150500307D01*
X123099207Y-150485693D01*
X123120251Y-150473080D01*
X123142429Y-150462590D01*
X123165529Y-150454325D01*
X123189327Y-150448364D01*
X123213596Y-150444764D01*
X123238100Y-150443560D01*
X124488100Y-150443560D01*
X124512604Y-150444764D01*
G37*
G36*
X124512604Y-147469764D02*
G01*
X124536873Y-147473364D01*
X124560671Y-147479325D01*
X124583771Y-147487590D01*
X124605949Y-147498080D01*
X124626993Y-147510693D01*
X124646698Y-147525307D01*
X124664877Y-147541783D01*
X124681353Y-147559962D01*
X124695967Y-147579667D01*
X124708580Y-147600711D01*
X124719070Y-147622889D01*
X124727335Y-147645989D01*
X124733296Y-147669787D01*
X124736896Y-147694056D01*
X124738100Y-147718560D01*
X124738100Y-148643560D01*
X124736896Y-148668064D01*
X124733296Y-148692333D01*
X124727335Y-148716131D01*
X124719070Y-148739231D01*
X124708580Y-148761409D01*
X124695967Y-148782453D01*
X124681353Y-148802158D01*
X124664877Y-148820337D01*
X124646698Y-148836813D01*
X124626993Y-148851427D01*
X124605949Y-148864040D01*
X124583771Y-148874530D01*
X124560671Y-148882795D01*
X124536873Y-148888756D01*
X124512604Y-148892356D01*
X124488100Y-148893560D01*
X123238100Y-148893560D01*
X123213596Y-148892356D01*
X123189327Y-148888756D01*
X123165529Y-148882795D01*
X123142429Y-148874530D01*
X123120251Y-148864040D01*
X123099207Y-148851427D01*
X123079502Y-148836813D01*
X123061323Y-148820337D01*
X123044847Y-148802158D01*
X123030233Y-148782453D01*
X123017620Y-148761409D01*
X123007130Y-148739231D01*
X122998865Y-148716131D01*
X122992904Y-148692333D01*
X122989304Y-148668064D01*
X122988100Y-148643560D01*
X122988100Y-147718560D01*
X122989304Y-147694056D01*
X122992904Y-147669787D01*
X122998865Y-147645989D01*
X123007130Y-147622889D01*
X123017620Y-147600711D01*
X123030233Y-147579667D01*
X123044847Y-147559962D01*
X123061323Y-147541783D01*
X123079502Y-147525307D01*
X123099207Y-147510693D01*
X123120251Y-147498080D01*
X123142429Y-147487590D01*
X123165529Y-147479325D01*
X123189327Y-147473364D01*
X123213596Y-147469764D01*
X123238100Y-147468560D01*
X124488100Y-147468560D01*
X124512604Y-147469764D01*
G37*
G36*
X119521504Y-150345704D02*
G01*
X119545773Y-150349304D01*
X119569571Y-150355265D01*
X119592671Y-150363530D01*
X119614849Y-150374020D01*
X119635893Y-150386633D01*
X119655598Y-150401247D01*
X119673777Y-150417723D01*
X119690253Y-150435902D01*
X119704867Y-150455607D01*
X119717480Y-150476651D01*
X119727970Y-150498829D01*
X119736235Y-150521929D01*
X119742196Y-150545727D01*
X119745796Y-150569996D01*
X119747000Y-150594500D01*
X119747000Y-151519500D01*
X119745796Y-151544004D01*
X119742196Y-151568273D01*
X119736235Y-151592071D01*
X119727970Y-151615171D01*
X119717480Y-151637349D01*
X119704867Y-151658393D01*
X119690253Y-151678098D01*
X119673777Y-151696277D01*
X119655598Y-151712753D01*
X119635893Y-151727367D01*
X119614849Y-151739980D01*
X119592671Y-151750470D01*
X119569571Y-151758735D01*
X119545773Y-151764696D01*
X119521504Y-151768296D01*
X119497000Y-151769500D01*
X118247000Y-151769500D01*
X118222496Y-151768296D01*
X118198227Y-151764696D01*
X118174429Y-151758735D01*
X118151329Y-151750470D01*
X118129151Y-151739980D01*
X118108107Y-151727367D01*
X118088402Y-151712753D01*
X118070223Y-151696277D01*
X118053747Y-151678098D01*
X118039133Y-151658393D01*
X118026520Y-151637349D01*
X118016030Y-151615171D01*
X118007765Y-151592071D01*
X118001804Y-151568273D01*
X117998204Y-151544004D01*
X117997000Y-151519500D01*
X117997000Y-150594500D01*
X117998204Y-150569996D01*
X118001804Y-150545727D01*
X118007765Y-150521929D01*
X118016030Y-150498829D01*
X118026520Y-150476651D01*
X118039133Y-150455607D01*
X118053747Y-150435902D01*
X118070223Y-150417723D01*
X118088402Y-150401247D01*
X118108107Y-150386633D01*
X118129151Y-150374020D01*
X118151329Y-150363530D01*
X118174429Y-150355265D01*
X118198227Y-150349304D01*
X118222496Y-150345704D01*
X118247000Y-150344500D01*
X119497000Y-150344500D01*
X119521504Y-150345704D01*
G37*
G36*
X119521504Y-147370704D02*
G01*
X119545773Y-147374304D01*
X119569571Y-147380265D01*
X119592671Y-147388530D01*
X119614849Y-147399020D01*
X119635893Y-147411633D01*
X119655598Y-147426247D01*
X119673777Y-147442723D01*
X119690253Y-147460902D01*
X119704867Y-147480607D01*
X119717480Y-147501651D01*
X119727970Y-147523829D01*
X119736235Y-147546929D01*
X119742196Y-147570727D01*
X119745796Y-147594996D01*
X119747000Y-147619500D01*
X119747000Y-148544500D01*
X119745796Y-148569004D01*
X119742196Y-148593273D01*
X119736235Y-148617071D01*
X119727970Y-148640171D01*
X119717480Y-148662349D01*
X119704867Y-148683393D01*
X119690253Y-148703098D01*
X119673777Y-148721277D01*
X119655598Y-148737753D01*
X119635893Y-148752367D01*
X119614849Y-148764980D01*
X119592671Y-148775470D01*
X119569571Y-148783735D01*
X119545773Y-148789696D01*
X119521504Y-148793296D01*
X119497000Y-148794500D01*
X118247000Y-148794500D01*
X118222496Y-148793296D01*
X118198227Y-148789696D01*
X118174429Y-148783735D01*
X118151329Y-148775470D01*
X118129151Y-148764980D01*
X118108107Y-148752367D01*
X118088402Y-148737753D01*
X118070223Y-148721277D01*
X118053747Y-148703098D01*
X118039133Y-148683393D01*
X118026520Y-148662349D01*
X118016030Y-148640171D01*
X118007765Y-148617071D01*
X118001804Y-148593273D01*
X117998204Y-148569004D01*
X117997000Y-148544500D01*
X117997000Y-147619500D01*
X117998204Y-147594996D01*
X118001804Y-147570727D01*
X118007765Y-147546929D01*
X118016030Y-147523829D01*
X118026520Y-147501651D01*
X118039133Y-147480607D01*
X118053747Y-147460902D01*
X118070223Y-147442723D01*
X118088402Y-147426247D01*
X118108107Y-147411633D01*
X118129151Y-147399020D01*
X118151329Y-147388530D01*
X118174429Y-147380265D01*
X118198227Y-147374304D01*
X118222496Y-147370704D01*
X118247000Y-147369500D01*
X119497000Y-147369500D01*
X119521504Y-147370704D01*
G37*
G36*
X119521504Y-152777704D02*
G01*
X119545773Y-152781304D01*
X119569571Y-152787265D01*
X119592671Y-152795530D01*
X119614849Y-152806020D01*
X119635893Y-152818633D01*
X119655598Y-152833247D01*
X119673777Y-152849723D01*
X119690253Y-152867902D01*
X119704867Y-152887607D01*
X119717480Y-152908651D01*
X119727970Y-152930829D01*
X119736235Y-152953929D01*
X119742196Y-152977727D01*
X119745796Y-153001996D01*
X119747000Y-153026500D01*
X119747000Y-153951500D01*
X119745796Y-153976004D01*
X119742196Y-154000273D01*
X119736235Y-154024071D01*
X119727970Y-154047171D01*
X119717480Y-154069349D01*
X119704867Y-154090393D01*
X119690253Y-154110098D01*
X119673777Y-154128277D01*
X119655598Y-154144753D01*
X119635893Y-154159367D01*
X119614849Y-154171980D01*
X119592671Y-154182470D01*
X119569571Y-154190735D01*
X119545773Y-154196696D01*
X119521504Y-154200296D01*
X119497000Y-154201500D01*
X118247000Y-154201500D01*
X118222496Y-154200296D01*
X118198227Y-154196696D01*
X118174429Y-154190735D01*
X118151329Y-154182470D01*
X118129151Y-154171980D01*
X118108107Y-154159367D01*
X118088402Y-154144753D01*
X118070223Y-154128277D01*
X118053747Y-154110098D01*
X118039133Y-154090393D01*
X118026520Y-154069349D01*
X118016030Y-154047171D01*
X118007765Y-154024071D01*
X118001804Y-154000273D01*
X117998204Y-153976004D01*
X117997000Y-153951500D01*
X117997000Y-153026500D01*
X117998204Y-153001996D01*
X118001804Y-152977727D01*
X118007765Y-152953929D01*
X118016030Y-152930829D01*
X118026520Y-152908651D01*
X118039133Y-152887607D01*
X118053747Y-152867902D01*
X118070223Y-152849723D01*
X118088402Y-152833247D01*
X118108107Y-152818633D01*
X118129151Y-152806020D01*
X118151329Y-152795530D01*
X118174429Y-152787265D01*
X118198227Y-152781304D01*
X118222496Y-152777704D01*
X118247000Y-152776500D01*
X119497000Y-152776500D01*
X119521504Y-152777704D01*
G37*
G36*
X119521504Y-155752704D02*
G01*
X119545773Y-155756304D01*
X119569571Y-155762265D01*
X119592671Y-155770530D01*
X119614849Y-155781020D01*
X119635893Y-155793633D01*
X119655598Y-155808247D01*
X119673777Y-155824723D01*
X119690253Y-155842902D01*
X119704867Y-155862607D01*
X119717480Y-155883651D01*
X119727970Y-155905829D01*
X119736235Y-155928929D01*
X119742196Y-155952727D01*
X119745796Y-155976996D01*
X119747000Y-156001500D01*
X119747000Y-156926500D01*
X119745796Y-156951004D01*
X119742196Y-156975273D01*
X119736235Y-156999071D01*
X119727970Y-157022171D01*
X119717480Y-157044349D01*
X119704867Y-157065393D01*
X119690253Y-157085098D01*
X119673777Y-157103277D01*
X119655598Y-157119753D01*
X119635893Y-157134367D01*
X119614849Y-157146980D01*
X119592671Y-157157470D01*
X119569571Y-157165735D01*
X119545773Y-157171696D01*
X119521504Y-157175296D01*
X119497000Y-157176500D01*
X118247000Y-157176500D01*
X118222496Y-157175296D01*
X118198227Y-157171696D01*
X118174429Y-157165735D01*
X118151329Y-157157470D01*
X118129151Y-157146980D01*
X118108107Y-157134367D01*
X118088402Y-157119753D01*
X118070223Y-157103277D01*
X118053747Y-157085098D01*
X118039133Y-157065393D01*
X118026520Y-157044349D01*
X118016030Y-157022171D01*
X118007765Y-156999071D01*
X118001804Y-156975273D01*
X117998204Y-156951004D01*
X117997000Y-156926500D01*
X117997000Y-156001500D01*
X117998204Y-155976996D01*
X118001804Y-155952727D01*
X118007765Y-155928929D01*
X118016030Y-155905829D01*
X118026520Y-155883651D01*
X118039133Y-155862607D01*
X118053747Y-155842902D01*
X118070223Y-155824723D01*
X118088402Y-155808247D01*
X118108107Y-155793633D01*
X118129151Y-155781020D01*
X118151329Y-155770530D01*
X118174429Y-155762265D01*
X118198227Y-155756304D01*
X118222496Y-155752704D01*
X118247000Y-155751500D01*
X119497000Y-155751500D01*
X119521504Y-155752704D01*
G37*
G36*
X119449504Y-158313704D02*
G01*
X119473773Y-158317304D01*
X119497571Y-158323265D01*
X119520671Y-158331530D01*
X119542849Y-158342020D01*
X119563893Y-158354633D01*
X119583598Y-158369247D01*
X119601777Y-158385723D01*
X119618253Y-158403902D01*
X119632867Y-158423607D01*
X119645480Y-158444651D01*
X119655970Y-158466829D01*
X119664235Y-158489929D01*
X119670196Y-158513727D01*
X119673796Y-158537996D01*
X119675000Y-158562500D01*
X119675000Y-159487500D01*
X119673796Y-159512004D01*
X119670196Y-159536273D01*
X119664235Y-159560071D01*
X119655970Y-159583171D01*
X119645480Y-159605349D01*
X119632867Y-159626393D01*
X119618253Y-159646098D01*
X119601777Y-159664277D01*
X119583598Y-159680753D01*
X119563893Y-159695367D01*
X119542849Y-159707980D01*
X119520671Y-159718470D01*
X119497571Y-159726735D01*
X119473773Y-159732696D01*
X119449504Y-159736296D01*
X119425000Y-159737500D01*
X118175000Y-159737500D01*
X118150496Y-159736296D01*
X118126227Y-159732696D01*
X118102429Y-159726735D01*
X118079329Y-159718470D01*
X118057151Y-159707980D01*
X118036107Y-159695367D01*
X118016402Y-159680753D01*
X117998223Y-159664277D01*
X117981747Y-159646098D01*
X117967133Y-159626393D01*
X117954520Y-159605349D01*
X117944030Y-159583171D01*
X117935765Y-159560071D01*
X117929804Y-159536273D01*
X117926204Y-159512004D01*
X117925000Y-159487500D01*
X117925000Y-158562500D01*
X117926204Y-158537996D01*
X117929804Y-158513727D01*
X117935765Y-158489929D01*
X117944030Y-158466829D01*
X117954520Y-158444651D01*
X117967133Y-158423607D01*
X117981747Y-158403902D01*
X117998223Y-158385723D01*
X118016402Y-158369247D01*
X118036107Y-158354633D01*
X118057151Y-158342020D01*
X118079329Y-158331530D01*
X118102429Y-158323265D01*
X118126227Y-158317304D01*
X118150496Y-158313704D01*
X118175000Y-158312500D01*
X119425000Y-158312500D01*
X119449504Y-158313704D01*
G37*
G36*
X119449504Y-161288704D02*
G01*
X119473773Y-161292304D01*
X119497571Y-161298265D01*
X119520671Y-161306530D01*
X119542849Y-161317020D01*
X119563893Y-161329633D01*
X119583598Y-161344247D01*
X119601777Y-161360723D01*
X119618253Y-161378902D01*
X119632867Y-161398607D01*
X119645480Y-161419651D01*
X119655970Y-161441829D01*
X119664235Y-161464929D01*
X119670196Y-161488727D01*
X119673796Y-161512996D01*
X119675000Y-161537500D01*
X119675000Y-162462500D01*
X119673796Y-162487004D01*
X119670196Y-162511273D01*
X119664235Y-162535071D01*
X119655970Y-162558171D01*
X119645480Y-162580349D01*
X119632867Y-162601393D01*
X119618253Y-162621098D01*
X119601777Y-162639277D01*
X119583598Y-162655753D01*
X119563893Y-162670367D01*
X119542849Y-162682980D01*
X119520671Y-162693470D01*
X119497571Y-162701735D01*
X119473773Y-162707696D01*
X119449504Y-162711296D01*
X119425000Y-162712500D01*
X118175000Y-162712500D01*
X118150496Y-162711296D01*
X118126227Y-162707696D01*
X118102429Y-162701735D01*
X118079329Y-162693470D01*
X118057151Y-162682980D01*
X118036107Y-162670367D01*
X118016402Y-162655753D01*
X117998223Y-162639277D01*
X117981747Y-162621098D01*
X117967133Y-162601393D01*
X117954520Y-162580349D01*
X117944030Y-162558171D01*
X117935765Y-162535071D01*
X117929804Y-162511273D01*
X117926204Y-162487004D01*
X117925000Y-162462500D01*
X117925000Y-161537500D01*
X117926204Y-161512996D01*
X117929804Y-161488727D01*
X117935765Y-161464929D01*
X117944030Y-161441829D01*
X117954520Y-161419651D01*
X117967133Y-161398607D01*
X117981747Y-161378902D01*
X117998223Y-161360723D01*
X118016402Y-161344247D01*
X118036107Y-161329633D01*
X118057151Y-161317020D01*
X118079329Y-161306530D01*
X118102429Y-161298265D01*
X118126227Y-161292304D01*
X118150496Y-161288704D01*
X118175000Y-161287500D01*
X119425000Y-161287500D01*
X119449504Y-161288704D01*
G37*
G36*
X124601504Y-167182704D02*
G01*
X124625773Y-167186304D01*
X124649571Y-167192265D01*
X124672671Y-167200530D01*
X124694849Y-167211020D01*
X124715893Y-167223633D01*
X124735598Y-167238247D01*
X124753777Y-167254723D01*
X124770253Y-167272902D01*
X124784867Y-167292607D01*
X124797480Y-167313651D01*
X124807970Y-167335829D01*
X124816235Y-167358929D01*
X124822196Y-167382727D01*
X124825796Y-167406996D01*
X124827000Y-167431500D01*
X124827000Y-168356500D01*
X124825796Y-168381004D01*
X124822196Y-168405273D01*
X124816235Y-168429071D01*
X124807970Y-168452171D01*
X124797480Y-168474349D01*
X124784867Y-168495393D01*
X124770253Y-168515098D01*
X124753777Y-168533277D01*
X124735598Y-168549753D01*
X124715893Y-168564367D01*
X124694849Y-168576980D01*
X124672671Y-168587470D01*
X124649571Y-168595735D01*
X124625773Y-168601696D01*
X124601504Y-168605296D01*
X124577000Y-168606500D01*
X123327000Y-168606500D01*
X123302496Y-168605296D01*
X123278227Y-168601696D01*
X123254429Y-168595735D01*
X123231329Y-168587470D01*
X123209151Y-168576980D01*
X123188107Y-168564367D01*
X123168402Y-168549753D01*
X123150223Y-168533277D01*
X123133747Y-168515098D01*
X123119133Y-168495393D01*
X123106520Y-168474349D01*
X123096030Y-168452171D01*
X123087765Y-168429071D01*
X123081804Y-168405273D01*
X123078204Y-168381004D01*
X123077000Y-168356500D01*
X123077000Y-167431500D01*
X123078204Y-167406996D01*
X123081804Y-167382727D01*
X123087765Y-167358929D01*
X123096030Y-167335829D01*
X123106520Y-167313651D01*
X123119133Y-167292607D01*
X123133747Y-167272902D01*
X123150223Y-167254723D01*
X123168402Y-167238247D01*
X123188107Y-167223633D01*
X123209151Y-167211020D01*
X123231329Y-167200530D01*
X123254429Y-167192265D01*
X123278227Y-167186304D01*
X123302496Y-167182704D01*
X123327000Y-167181500D01*
X124577000Y-167181500D01*
X124601504Y-167182704D01*
G37*
G36*
X124601504Y-164207704D02*
G01*
X124625773Y-164211304D01*
X124649571Y-164217265D01*
X124672671Y-164225530D01*
X124694849Y-164236020D01*
X124715893Y-164248633D01*
X124735598Y-164263247D01*
X124753777Y-164279723D01*
X124770253Y-164297902D01*
X124784867Y-164317607D01*
X124797480Y-164338651D01*
X124807970Y-164360829D01*
X124816235Y-164383929D01*
X124822196Y-164407727D01*
X124825796Y-164431996D01*
X124827000Y-164456500D01*
X124827000Y-165381500D01*
X124825796Y-165406004D01*
X124822196Y-165430273D01*
X124816235Y-165454071D01*
X124807970Y-165477171D01*
X124797480Y-165499349D01*
X124784867Y-165520393D01*
X124770253Y-165540098D01*
X124753777Y-165558277D01*
X124735598Y-165574753D01*
X124715893Y-165589367D01*
X124694849Y-165601980D01*
X124672671Y-165612470D01*
X124649571Y-165620735D01*
X124625773Y-165626696D01*
X124601504Y-165630296D01*
X124577000Y-165631500D01*
X123327000Y-165631500D01*
X123302496Y-165630296D01*
X123278227Y-165626696D01*
X123254429Y-165620735D01*
X123231329Y-165612470D01*
X123209151Y-165601980D01*
X123188107Y-165589367D01*
X123168402Y-165574753D01*
X123150223Y-165558277D01*
X123133747Y-165540098D01*
X123119133Y-165520393D01*
X123106520Y-165499349D01*
X123096030Y-165477171D01*
X123087765Y-165454071D01*
X123081804Y-165430273D01*
X123078204Y-165406004D01*
X123077000Y-165381500D01*
X123077000Y-164456500D01*
X123078204Y-164431996D01*
X123081804Y-164407727D01*
X123087765Y-164383929D01*
X123096030Y-164360829D01*
X123106520Y-164338651D01*
X123119133Y-164317607D01*
X123133747Y-164297902D01*
X123150223Y-164279723D01*
X123168402Y-164263247D01*
X123188107Y-164248633D01*
X123209151Y-164236020D01*
X123231329Y-164225530D01*
X123254429Y-164217265D01*
X123278227Y-164211304D01*
X123302496Y-164207704D01*
X123327000Y-164206500D01*
X124577000Y-164206500D01*
X124601504Y-164207704D01*
G37*
G36*
X119521504Y-164171204D02*
G01*
X119545773Y-164174804D01*
X119569571Y-164180765D01*
X119592671Y-164189030D01*
X119614849Y-164199520D01*
X119635893Y-164212133D01*
X119655598Y-164226747D01*
X119673777Y-164243223D01*
X119690253Y-164261402D01*
X119704867Y-164281107D01*
X119717480Y-164302151D01*
X119727970Y-164324329D01*
X119736235Y-164347429D01*
X119742196Y-164371227D01*
X119745796Y-164395496D01*
X119747000Y-164420000D01*
X119747000Y-165345000D01*
X119745796Y-165369504D01*
X119742196Y-165393773D01*
X119736235Y-165417571D01*
X119727970Y-165440671D01*
X119717480Y-165462849D01*
X119704867Y-165483893D01*
X119690253Y-165503598D01*
X119673777Y-165521777D01*
X119655598Y-165538253D01*
X119635893Y-165552867D01*
X119614849Y-165565480D01*
X119592671Y-165575970D01*
X119569571Y-165584235D01*
X119545773Y-165590196D01*
X119521504Y-165593796D01*
X119497000Y-165595000D01*
X118247000Y-165595000D01*
X118222496Y-165593796D01*
X118198227Y-165590196D01*
X118174429Y-165584235D01*
X118151329Y-165575970D01*
X118129151Y-165565480D01*
X118108107Y-165552867D01*
X118088402Y-165538253D01*
X118070223Y-165521777D01*
X118053747Y-165503598D01*
X118039133Y-165483893D01*
X118026520Y-165462849D01*
X118016030Y-165440671D01*
X118007765Y-165417571D01*
X118001804Y-165393773D01*
X117998204Y-165369504D01*
X117997000Y-165345000D01*
X117997000Y-164420000D01*
X117998204Y-164395496D01*
X118001804Y-164371227D01*
X118007765Y-164347429D01*
X118016030Y-164324329D01*
X118026520Y-164302151D01*
X118039133Y-164281107D01*
X118053747Y-164261402D01*
X118070223Y-164243223D01*
X118088402Y-164226747D01*
X118108107Y-164212133D01*
X118129151Y-164199520D01*
X118151329Y-164189030D01*
X118174429Y-164180765D01*
X118198227Y-164174804D01*
X118222496Y-164171204D01*
X118247000Y-164170000D01*
X119497000Y-164170000D01*
X119521504Y-164171204D01*
G37*
G36*
X119521504Y-167146204D02*
G01*
X119545773Y-167149804D01*
X119569571Y-167155765D01*
X119592671Y-167164030D01*
X119614849Y-167174520D01*
X119635893Y-167187133D01*
X119655598Y-167201747D01*
X119673777Y-167218223D01*
X119690253Y-167236402D01*
X119704867Y-167256107D01*
X119717480Y-167277151D01*
X119727970Y-167299329D01*
X119736235Y-167322429D01*
X119742196Y-167346227D01*
X119745796Y-167370496D01*
X119747000Y-167395000D01*
X119747000Y-168320000D01*
X119745796Y-168344504D01*
X119742196Y-168368773D01*
X119736235Y-168392571D01*
X119727970Y-168415671D01*
X119717480Y-168437849D01*
X119704867Y-168458893D01*
X119690253Y-168478598D01*
X119673777Y-168496777D01*
X119655598Y-168513253D01*
X119635893Y-168527867D01*
X119614849Y-168540480D01*
X119592671Y-168550970D01*
X119569571Y-168559235D01*
X119545773Y-168565196D01*
X119521504Y-168568796D01*
X119497000Y-168570000D01*
X118247000Y-168570000D01*
X118222496Y-168568796D01*
X118198227Y-168565196D01*
X118174429Y-168559235D01*
X118151329Y-168550970D01*
X118129151Y-168540480D01*
X118108107Y-168527867D01*
X118088402Y-168513253D01*
X118070223Y-168496777D01*
X118053747Y-168478598D01*
X118039133Y-168458893D01*
X118026520Y-168437849D01*
X118016030Y-168415671D01*
X118007765Y-168392571D01*
X118001804Y-168368773D01*
X117998204Y-168344504D01*
X117997000Y-168320000D01*
X117997000Y-167395000D01*
X117998204Y-167370496D01*
X118001804Y-167346227D01*
X118007765Y-167322429D01*
X118016030Y-167299329D01*
X118026520Y-167277151D01*
X118039133Y-167256107D01*
X118053747Y-167236402D01*
X118070223Y-167218223D01*
X118088402Y-167201747D01*
X118108107Y-167187133D01*
X118129151Y-167174520D01*
X118151329Y-167164030D01*
X118174429Y-167155765D01*
X118198227Y-167149804D01*
X118222496Y-167146204D01*
X118247000Y-167145000D01*
X119497000Y-167145000D01*
X119521504Y-167146204D01*
G37*
D12*
X124054000Y-174244000D03*
D13*
X117754000Y-174244000D03*
X117754000Y-176544000D03*
X117754000Y-171944000D03*
D11*
G36*
X107244779Y-177326144D02*
G01*
X107267834Y-177329563D01*
X107290443Y-177335227D01*
X107312387Y-177343079D01*
X107333457Y-177353044D01*
X107353448Y-177365026D01*
X107372168Y-177378910D01*
X107389438Y-177394562D01*
X107405090Y-177411832D01*
X107418974Y-177430552D01*
X107430956Y-177450543D01*
X107440921Y-177471613D01*
X107448773Y-177493557D01*
X107454437Y-177516166D01*
X107457856Y-177539221D01*
X107459000Y-177562500D01*
X107459000Y-178037500D01*
X107457856Y-178060779D01*
X107454437Y-178083834D01*
X107448773Y-178106443D01*
X107440921Y-178128387D01*
X107430956Y-178149457D01*
X107418974Y-178169448D01*
X107405090Y-178188168D01*
X107389438Y-178205438D01*
X107372168Y-178221090D01*
X107353448Y-178234974D01*
X107333457Y-178246956D01*
X107312387Y-178256921D01*
X107290443Y-178264773D01*
X107267834Y-178270437D01*
X107244779Y-178273856D01*
X107221500Y-178275000D01*
X106646500Y-178275000D01*
X106623221Y-178273856D01*
X106600166Y-178270437D01*
X106577557Y-178264773D01*
X106555613Y-178256921D01*
X106534543Y-178246956D01*
X106514552Y-178234974D01*
X106495832Y-178221090D01*
X106478562Y-178205438D01*
X106462910Y-178188168D01*
X106449026Y-178169448D01*
X106437044Y-178149457D01*
X106427079Y-178128387D01*
X106419227Y-178106443D01*
X106413563Y-178083834D01*
X106410144Y-178060779D01*
X106409000Y-178037500D01*
X106409000Y-177562500D01*
X106410144Y-177539221D01*
X106413563Y-177516166D01*
X106419227Y-177493557D01*
X106427079Y-177471613D01*
X106437044Y-177450543D01*
X106449026Y-177430552D01*
X106462910Y-177411832D01*
X106478562Y-177394562D01*
X106495832Y-177378910D01*
X106514552Y-177365026D01*
X106534543Y-177353044D01*
X106555613Y-177343079D01*
X106577557Y-177335227D01*
X106600166Y-177329563D01*
X106623221Y-177326144D01*
X106646500Y-177325000D01*
X107221500Y-177325000D01*
X107244779Y-177326144D01*
G37*
G36*
X108994779Y-177326144D02*
G01*
X109017834Y-177329563D01*
X109040443Y-177335227D01*
X109062387Y-177343079D01*
X109083457Y-177353044D01*
X109103448Y-177365026D01*
X109122168Y-177378910D01*
X109139438Y-177394562D01*
X109155090Y-177411832D01*
X109168974Y-177430552D01*
X109180956Y-177450543D01*
X109190921Y-177471613D01*
X109198773Y-177493557D01*
X109204437Y-177516166D01*
X109207856Y-177539221D01*
X109209000Y-177562500D01*
X109209000Y-178037500D01*
X109207856Y-178060779D01*
X109204437Y-178083834D01*
X109198773Y-178106443D01*
X109190921Y-178128387D01*
X109180956Y-178149457D01*
X109168974Y-178169448D01*
X109155090Y-178188168D01*
X109139438Y-178205438D01*
X109122168Y-178221090D01*
X109103448Y-178234974D01*
X109083457Y-178246956D01*
X109062387Y-178256921D01*
X109040443Y-178264773D01*
X109017834Y-178270437D01*
X108994779Y-178273856D01*
X108971500Y-178275000D01*
X108396500Y-178275000D01*
X108373221Y-178273856D01*
X108350166Y-178270437D01*
X108327557Y-178264773D01*
X108305613Y-178256921D01*
X108284543Y-178246956D01*
X108264552Y-178234974D01*
X108245832Y-178221090D01*
X108228562Y-178205438D01*
X108212910Y-178188168D01*
X108199026Y-178169448D01*
X108187044Y-178149457D01*
X108177079Y-178128387D01*
X108169227Y-178106443D01*
X108163563Y-178083834D01*
X108160144Y-178060779D01*
X108159000Y-178037500D01*
X108159000Y-177562500D01*
X108160144Y-177539221D01*
X108163563Y-177516166D01*
X108169227Y-177493557D01*
X108177079Y-177471613D01*
X108187044Y-177450543D01*
X108199026Y-177430552D01*
X108212910Y-177411832D01*
X108228562Y-177394562D01*
X108245832Y-177378910D01*
X108264552Y-177365026D01*
X108284543Y-177353044D01*
X108305613Y-177343079D01*
X108327557Y-177335227D01*
X108350166Y-177329563D01*
X108373221Y-177326144D01*
X108396500Y-177325000D01*
X108971500Y-177325000D01*
X108994779Y-177326144D01*
G37*
G36*
X116642779Y-179358144D02*
G01*
X116665834Y-179361563D01*
X116688443Y-179367227D01*
X116710387Y-179375079D01*
X116731457Y-179385044D01*
X116751448Y-179397026D01*
X116770168Y-179410910D01*
X116787438Y-179426562D01*
X116803090Y-179443832D01*
X116816974Y-179462552D01*
X116828956Y-179482543D01*
X116838921Y-179503613D01*
X116846773Y-179525557D01*
X116852437Y-179548166D01*
X116855856Y-179571221D01*
X116857000Y-179594500D01*
X116857000Y-180069500D01*
X116855856Y-180092779D01*
X116852437Y-180115834D01*
X116846773Y-180138443D01*
X116838921Y-180160387D01*
X116828956Y-180181457D01*
X116816974Y-180201448D01*
X116803090Y-180220168D01*
X116787438Y-180237438D01*
X116770168Y-180253090D01*
X116751448Y-180266974D01*
X116731457Y-180278956D01*
X116710387Y-180288921D01*
X116688443Y-180296773D01*
X116665834Y-180302437D01*
X116642779Y-180305856D01*
X116619500Y-180307000D01*
X116044500Y-180307000D01*
X116021221Y-180305856D01*
X115998166Y-180302437D01*
X115975557Y-180296773D01*
X115953613Y-180288921D01*
X115932543Y-180278956D01*
X115912552Y-180266974D01*
X115893832Y-180253090D01*
X115876562Y-180237438D01*
X115860910Y-180220168D01*
X115847026Y-180201448D01*
X115835044Y-180181457D01*
X115825079Y-180160387D01*
X115817227Y-180138443D01*
X115811563Y-180115834D01*
X115808144Y-180092779D01*
X115807000Y-180069500D01*
X115807000Y-179594500D01*
X115808144Y-179571221D01*
X115811563Y-179548166D01*
X115817227Y-179525557D01*
X115825079Y-179503613D01*
X115835044Y-179482543D01*
X115847026Y-179462552D01*
X115860910Y-179443832D01*
X115876562Y-179426562D01*
X115893832Y-179410910D01*
X115912552Y-179397026D01*
X115932543Y-179385044D01*
X115953613Y-179375079D01*
X115975557Y-179367227D01*
X115998166Y-179361563D01*
X116021221Y-179358144D01*
X116044500Y-179357000D01*
X116619500Y-179357000D01*
X116642779Y-179358144D01*
G37*
G36*
X114892779Y-179358144D02*
G01*
X114915834Y-179361563D01*
X114938443Y-179367227D01*
X114960387Y-179375079D01*
X114981457Y-179385044D01*
X115001448Y-179397026D01*
X115020168Y-179410910D01*
X115037438Y-179426562D01*
X115053090Y-179443832D01*
X115066974Y-179462552D01*
X115078956Y-179482543D01*
X115088921Y-179503613D01*
X115096773Y-179525557D01*
X115102437Y-179548166D01*
X115105856Y-179571221D01*
X115107000Y-179594500D01*
X115107000Y-180069500D01*
X115105856Y-180092779D01*
X115102437Y-180115834D01*
X115096773Y-180138443D01*
X115088921Y-180160387D01*
X115078956Y-180181457D01*
X115066974Y-180201448D01*
X115053090Y-180220168D01*
X115037438Y-180237438D01*
X115020168Y-180253090D01*
X115001448Y-180266974D01*
X114981457Y-180278956D01*
X114960387Y-180288921D01*
X114938443Y-180296773D01*
X114915834Y-180302437D01*
X114892779Y-180305856D01*
X114869500Y-180307000D01*
X114294500Y-180307000D01*
X114271221Y-180305856D01*
X114248166Y-180302437D01*
X114225557Y-180296773D01*
X114203613Y-180288921D01*
X114182543Y-180278956D01*
X114162552Y-180266974D01*
X114143832Y-180253090D01*
X114126562Y-180237438D01*
X114110910Y-180220168D01*
X114097026Y-180201448D01*
X114085044Y-180181457D01*
X114075079Y-180160387D01*
X114067227Y-180138443D01*
X114061563Y-180115834D01*
X114058144Y-180092779D01*
X114057000Y-180069500D01*
X114057000Y-179594500D01*
X114058144Y-179571221D01*
X114061563Y-179548166D01*
X114067227Y-179525557D01*
X114075079Y-179503613D01*
X114085044Y-179482543D01*
X114097026Y-179462552D01*
X114110910Y-179443832D01*
X114126562Y-179426562D01*
X114143832Y-179410910D01*
X114162552Y-179397026D01*
X114182543Y-179385044D01*
X114203613Y-179375079D01*
X114225557Y-179367227D01*
X114248166Y-179361563D01*
X114271221Y-179358144D01*
X114294500Y-179357000D01*
X114869500Y-179357000D01*
X114892779Y-179358144D01*
G37*
G36*
X122842004Y-180990204D02*
G01*
X122866273Y-180993804D01*
X122890071Y-180999765D01*
X122913171Y-181008030D01*
X122935349Y-181018520D01*
X122956393Y-181031133D01*
X122976098Y-181045747D01*
X122994277Y-181062223D01*
X123010753Y-181080402D01*
X123025367Y-181100107D01*
X123037980Y-181121151D01*
X123048470Y-181143329D01*
X123056735Y-181166429D01*
X123062696Y-181190227D01*
X123066296Y-181214496D01*
X123067500Y-181239000D01*
X123067500Y-182489000D01*
X123066296Y-182513504D01*
X123062696Y-182537773D01*
X123056735Y-182561571D01*
X123048470Y-182584671D01*
X123037980Y-182606849D01*
X123025367Y-182627893D01*
X123010753Y-182647598D01*
X122994277Y-182665777D01*
X122976098Y-182682253D01*
X122956393Y-182696867D01*
X122935349Y-182709480D01*
X122913171Y-182719970D01*
X122890071Y-182728235D01*
X122866273Y-182734196D01*
X122842004Y-182737796D01*
X122817500Y-182739000D01*
X121892500Y-182739000D01*
X121867996Y-182737796D01*
X121843727Y-182734196D01*
X121819929Y-182728235D01*
X121796829Y-182719970D01*
X121774651Y-182709480D01*
X121753607Y-182696867D01*
X121733902Y-182682253D01*
X121715723Y-182665777D01*
X121699247Y-182647598D01*
X121684633Y-182627893D01*
X121672020Y-182606849D01*
X121661530Y-182584671D01*
X121653265Y-182561571D01*
X121647304Y-182537773D01*
X121643704Y-182513504D01*
X121642500Y-182489000D01*
X121642500Y-181239000D01*
X121643704Y-181214496D01*
X121647304Y-181190227D01*
X121653265Y-181166429D01*
X121661530Y-181143329D01*
X121672020Y-181121151D01*
X121684633Y-181100107D01*
X121699247Y-181080402D01*
X121715723Y-181062223D01*
X121733902Y-181045747D01*
X121753607Y-181031133D01*
X121774651Y-181018520D01*
X121796829Y-181008030D01*
X121819929Y-180999765D01*
X121843727Y-180993804D01*
X121867996Y-180990204D01*
X121892500Y-180989000D01*
X122817500Y-180989000D01*
X122842004Y-180990204D01*
G37*
G36*
X119867004Y-180990204D02*
G01*
X119891273Y-180993804D01*
X119915071Y-180999765D01*
X119938171Y-181008030D01*
X119960349Y-181018520D01*
X119981393Y-181031133D01*
X120001098Y-181045747D01*
X120019277Y-181062223D01*
X120035753Y-181080402D01*
X120050367Y-181100107D01*
X120062980Y-181121151D01*
X120073470Y-181143329D01*
X120081735Y-181166429D01*
X120087696Y-181190227D01*
X120091296Y-181214496D01*
X120092500Y-181239000D01*
X120092500Y-182489000D01*
X120091296Y-182513504D01*
X120087696Y-182537773D01*
X120081735Y-182561571D01*
X120073470Y-182584671D01*
X120062980Y-182606849D01*
X120050367Y-182627893D01*
X120035753Y-182647598D01*
X120019277Y-182665777D01*
X120001098Y-182682253D01*
X119981393Y-182696867D01*
X119960349Y-182709480D01*
X119938171Y-182719970D01*
X119915071Y-182728235D01*
X119891273Y-182734196D01*
X119867004Y-182737796D01*
X119842500Y-182739000D01*
X118917500Y-182739000D01*
X118892996Y-182737796D01*
X118868727Y-182734196D01*
X118844929Y-182728235D01*
X118821829Y-182719970D01*
X118799651Y-182709480D01*
X118778607Y-182696867D01*
X118758902Y-182682253D01*
X118740723Y-182665777D01*
X118724247Y-182647598D01*
X118709633Y-182627893D01*
X118697020Y-182606849D01*
X118686530Y-182584671D01*
X118678265Y-182561571D01*
X118672304Y-182537773D01*
X118668704Y-182513504D01*
X118667500Y-182489000D01*
X118667500Y-181239000D01*
X118668704Y-181214496D01*
X118672304Y-181190227D01*
X118678265Y-181166429D01*
X118686530Y-181143329D01*
X118697020Y-181121151D01*
X118709633Y-181100107D01*
X118724247Y-181080402D01*
X118740723Y-181062223D01*
X118758902Y-181045747D01*
X118778607Y-181031133D01*
X118799651Y-181018520D01*
X118821829Y-181008030D01*
X118844929Y-180999765D01*
X118868727Y-180993804D01*
X118892996Y-180990204D01*
X118917500Y-180989000D01*
X119842500Y-180989000D01*
X119867004Y-180990204D01*
G37*
G36*
X95645504Y-177923704D02*
G01*
X95669773Y-177927304D01*
X95693571Y-177933265D01*
X95716671Y-177941530D01*
X95738849Y-177952020D01*
X95759893Y-177964633D01*
X95779598Y-177979247D01*
X95797777Y-177995723D01*
X95814253Y-178013902D01*
X95828867Y-178033607D01*
X95841480Y-178054651D01*
X95851970Y-178076829D01*
X95860235Y-178099929D01*
X95866196Y-178123727D01*
X95869796Y-178147996D01*
X95871000Y-178172500D01*
X95871000Y-179097500D01*
X95869796Y-179122004D01*
X95866196Y-179146273D01*
X95860235Y-179170071D01*
X95851970Y-179193171D01*
X95841480Y-179215349D01*
X95828867Y-179236393D01*
X95814253Y-179256098D01*
X95797777Y-179274277D01*
X95779598Y-179290753D01*
X95759893Y-179305367D01*
X95738849Y-179317980D01*
X95716671Y-179328470D01*
X95693571Y-179336735D01*
X95669773Y-179342696D01*
X95645504Y-179346296D01*
X95621000Y-179347500D01*
X94371000Y-179347500D01*
X94346496Y-179346296D01*
X94322227Y-179342696D01*
X94298429Y-179336735D01*
X94275329Y-179328470D01*
X94253151Y-179317980D01*
X94232107Y-179305367D01*
X94212402Y-179290753D01*
X94194223Y-179274277D01*
X94177747Y-179256098D01*
X94163133Y-179236393D01*
X94150520Y-179215349D01*
X94140030Y-179193171D01*
X94131765Y-179170071D01*
X94125804Y-179146273D01*
X94122204Y-179122004D01*
X94121000Y-179097500D01*
X94121000Y-178172500D01*
X94122204Y-178147996D01*
X94125804Y-178123727D01*
X94131765Y-178099929D01*
X94140030Y-178076829D01*
X94150520Y-178054651D01*
X94163133Y-178033607D01*
X94177747Y-178013902D01*
X94194223Y-177995723D01*
X94212402Y-177979247D01*
X94232107Y-177964633D01*
X94253151Y-177952020D01*
X94275329Y-177941530D01*
X94298429Y-177933265D01*
X94322227Y-177927304D01*
X94346496Y-177923704D01*
X94371000Y-177922500D01*
X95621000Y-177922500D01*
X95645504Y-177923704D01*
G37*
G36*
X95645504Y-180898704D02*
G01*
X95669773Y-180902304D01*
X95693571Y-180908265D01*
X95716671Y-180916530D01*
X95738849Y-180927020D01*
X95759893Y-180939633D01*
X95779598Y-180954247D01*
X95797777Y-180970723D01*
X95814253Y-180988902D01*
X95828867Y-181008607D01*
X95841480Y-181029651D01*
X95851970Y-181051829D01*
X95860235Y-181074929D01*
X95866196Y-181098727D01*
X95869796Y-181122996D01*
X95871000Y-181147500D01*
X95871000Y-182072500D01*
X95869796Y-182097004D01*
X95866196Y-182121273D01*
X95860235Y-182145071D01*
X95851970Y-182168171D01*
X95841480Y-182190349D01*
X95828867Y-182211393D01*
X95814253Y-182231098D01*
X95797777Y-182249277D01*
X95779598Y-182265753D01*
X95759893Y-182280367D01*
X95738849Y-182292980D01*
X95716671Y-182303470D01*
X95693571Y-182311735D01*
X95669773Y-182317696D01*
X95645504Y-182321296D01*
X95621000Y-182322500D01*
X94371000Y-182322500D01*
X94346496Y-182321296D01*
X94322227Y-182317696D01*
X94298429Y-182311735D01*
X94275329Y-182303470D01*
X94253151Y-182292980D01*
X94232107Y-182280367D01*
X94212402Y-182265753D01*
X94194223Y-182249277D01*
X94177747Y-182231098D01*
X94163133Y-182211393D01*
X94150520Y-182190349D01*
X94140030Y-182168171D01*
X94131765Y-182145071D01*
X94125804Y-182121273D01*
X94122204Y-182097004D01*
X94121000Y-182072500D01*
X94121000Y-181147500D01*
X94122204Y-181122996D01*
X94125804Y-181098727D01*
X94131765Y-181074929D01*
X94140030Y-181051829D01*
X94150520Y-181029651D01*
X94163133Y-181008607D01*
X94177747Y-180988902D01*
X94194223Y-180970723D01*
X94212402Y-180954247D01*
X94232107Y-180939633D01*
X94253151Y-180927020D01*
X94275329Y-180916530D01*
X94298429Y-180908265D01*
X94322227Y-180902304D01*
X94346496Y-180898704D01*
X94371000Y-180897500D01*
X95621000Y-180897500D01*
X95645504Y-180898704D01*
G37*
G36*
X105805504Y-179193704D02*
G01*
X105829773Y-179197304D01*
X105853571Y-179203265D01*
X105876671Y-179211530D01*
X105898849Y-179222020D01*
X105919893Y-179234633D01*
X105939598Y-179249247D01*
X105957777Y-179265723D01*
X105974253Y-179283902D01*
X105988867Y-179303607D01*
X106001480Y-179324651D01*
X106011970Y-179346829D01*
X106020235Y-179369929D01*
X106026196Y-179393727D01*
X106029796Y-179417996D01*
X106031000Y-179442500D01*
X106031000Y-180367500D01*
X106029796Y-180392004D01*
X106026196Y-180416273D01*
X106020235Y-180440071D01*
X106011970Y-180463171D01*
X106001480Y-180485349D01*
X105988867Y-180506393D01*
X105974253Y-180526098D01*
X105957777Y-180544277D01*
X105939598Y-180560753D01*
X105919893Y-180575367D01*
X105898849Y-180587980D01*
X105876671Y-180598470D01*
X105853571Y-180606735D01*
X105829773Y-180612696D01*
X105805504Y-180616296D01*
X105781000Y-180617500D01*
X104531000Y-180617500D01*
X104506496Y-180616296D01*
X104482227Y-180612696D01*
X104458429Y-180606735D01*
X104435329Y-180598470D01*
X104413151Y-180587980D01*
X104392107Y-180575367D01*
X104372402Y-180560753D01*
X104354223Y-180544277D01*
X104337747Y-180526098D01*
X104323133Y-180506393D01*
X104310520Y-180485349D01*
X104300030Y-180463171D01*
X104291765Y-180440071D01*
X104285804Y-180416273D01*
X104282204Y-180392004D01*
X104281000Y-180367500D01*
X104281000Y-179442500D01*
X104282204Y-179417996D01*
X104285804Y-179393727D01*
X104291765Y-179369929D01*
X104300030Y-179346829D01*
X104310520Y-179324651D01*
X104323133Y-179303607D01*
X104337747Y-179283902D01*
X104354223Y-179265723D01*
X104372402Y-179249247D01*
X104392107Y-179234633D01*
X104413151Y-179222020D01*
X104435329Y-179211530D01*
X104458429Y-179203265D01*
X104482227Y-179197304D01*
X104506496Y-179193704D01*
X104531000Y-179192500D01*
X105781000Y-179192500D01*
X105805504Y-179193704D01*
G37*
G36*
X105805504Y-182168704D02*
G01*
X105829773Y-182172304D01*
X105853571Y-182178265D01*
X105876671Y-182186530D01*
X105898849Y-182197020D01*
X105919893Y-182209633D01*
X105939598Y-182224247D01*
X105957777Y-182240723D01*
X105974253Y-182258902D01*
X105988867Y-182278607D01*
X106001480Y-182299651D01*
X106011970Y-182321829D01*
X106020235Y-182344929D01*
X106026196Y-182368727D01*
X106029796Y-182392996D01*
X106031000Y-182417500D01*
X106031000Y-183342500D01*
X106029796Y-183367004D01*
X106026196Y-183391273D01*
X106020235Y-183415071D01*
X106011970Y-183438171D01*
X106001480Y-183460349D01*
X105988867Y-183481393D01*
X105974253Y-183501098D01*
X105957777Y-183519277D01*
X105939598Y-183535753D01*
X105919893Y-183550367D01*
X105898849Y-183562980D01*
X105876671Y-183573470D01*
X105853571Y-183581735D01*
X105829773Y-183587696D01*
X105805504Y-183591296D01*
X105781000Y-183592500D01*
X104531000Y-183592500D01*
X104506496Y-183591296D01*
X104482227Y-183587696D01*
X104458429Y-183581735D01*
X104435329Y-183573470D01*
X104413151Y-183562980D01*
X104392107Y-183550367D01*
X104372402Y-183535753D01*
X104354223Y-183519277D01*
X104337747Y-183501098D01*
X104323133Y-183481393D01*
X104310520Y-183460349D01*
X104300030Y-183438171D01*
X104291765Y-183415071D01*
X104285804Y-183391273D01*
X104282204Y-183367004D01*
X104281000Y-183342500D01*
X104281000Y-182417500D01*
X104282204Y-182392996D01*
X104285804Y-182368727D01*
X104291765Y-182344929D01*
X104300030Y-182321829D01*
X104310520Y-182299651D01*
X104323133Y-182278607D01*
X104337747Y-182258902D01*
X104354223Y-182240723D01*
X104372402Y-182224247D01*
X104392107Y-182209633D01*
X104413151Y-182197020D01*
X104435329Y-182186530D01*
X104458429Y-182178265D01*
X104482227Y-182172304D01*
X104506496Y-182168704D01*
X104531000Y-182167500D01*
X105781000Y-182167500D01*
X105805504Y-182168704D01*
G37*
G36*
X110885504Y-179193704D02*
G01*
X110909773Y-179197304D01*
X110933571Y-179203265D01*
X110956671Y-179211530D01*
X110978849Y-179222020D01*
X110999893Y-179234633D01*
X111019598Y-179249247D01*
X111037777Y-179265723D01*
X111054253Y-179283902D01*
X111068867Y-179303607D01*
X111081480Y-179324651D01*
X111091970Y-179346829D01*
X111100235Y-179369929D01*
X111106196Y-179393727D01*
X111109796Y-179417996D01*
X111111000Y-179442500D01*
X111111000Y-180367500D01*
X111109796Y-180392004D01*
X111106196Y-180416273D01*
X111100235Y-180440071D01*
X111091970Y-180463171D01*
X111081480Y-180485349D01*
X111068867Y-180506393D01*
X111054253Y-180526098D01*
X111037777Y-180544277D01*
X111019598Y-180560753D01*
X110999893Y-180575367D01*
X110978849Y-180587980D01*
X110956671Y-180598470D01*
X110933571Y-180606735D01*
X110909773Y-180612696D01*
X110885504Y-180616296D01*
X110861000Y-180617500D01*
X109611000Y-180617500D01*
X109586496Y-180616296D01*
X109562227Y-180612696D01*
X109538429Y-180606735D01*
X109515329Y-180598470D01*
X109493151Y-180587980D01*
X109472107Y-180575367D01*
X109452402Y-180560753D01*
X109434223Y-180544277D01*
X109417747Y-180526098D01*
X109403133Y-180506393D01*
X109390520Y-180485349D01*
X109380030Y-180463171D01*
X109371765Y-180440071D01*
X109365804Y-180416273D01*
X109362204Y-180392004D01*
X109361000Y-180367500D01*
X109361000Y-179442500D01*
X109362204Y-179417996D01*
X109365804Y-179393727D01*
X109371765Y-179369929D01*
X109380030Y-179346829D01*
X109390520Y-179324651D01*
X109403133Y-179303607D01*
X109417747Y-179283902D01*
X109434223Y-179265723D01*
X109452402Y-179249247D01*
X109472107Y-179234633D01*
X109493151Y-179222020D01*
X109515329Y-179211530D01*
X109538429Y-179203265D01*
X109562227Y-179197304D01*
X109586496Y-179193704D01*
X109611000Y-179192500D01*
X110861000Y-179192500D01*
X110885504Y-179193704D01*
G37*
G36*
X110885504Y-182168704D02*
G01*
X110909773Y-182172304D01*
X110933571Y-182178265D01*
X110956671Y-182186530D01*
X110978849Y-182197020D01*
X110999893Y-182209633D01*
X111019598Y-182224247D01*
X111037777Y-182240723D01*
X111054253Y-182258902D01*
X111068867Y-182278607D01*
X111081480Y-182299651D01*
X111091970Y-182321829D01*
X111100235Y-182344929D01*
X111106196Y-182368727D01*
X111109796Y-182392996D01*
X111111000Y-182417500D01*
X111111000Y-183342500D01*
X111109796Y-183367004D01*
X111106196Y-183391273D01*
X111100235Y-183415071D01*
X111091970Y-183438171D01*
X111081480Y-183460349D01*
X111068867Y-183481393D01*
X111054253Y-183501098D01*
X111037777Y-183519277D01*
X111019598Y-183535753D01*
X110999893Y-183550367D01*
X110978849Y-183562980D01*
X110956671Y-183573470D01*
X110933571Y-183581735D01*
X110909773Y-183587696D01*
X110885504Y-183591296D01*
X110861000Y-183592500D01*
X109611000Y-183592500D01*
X109586496Y-183591296D01*
X109562227Y-183587696D01*
X109538429Y-183581735D01*
X109515329Y-183573470D01*
X109493151Y-183562980D01*
X109472107Y-183550367D01*
X109452402Y-183535753D01*
X109434223Y-183519277D01*
X109417747Y-183501098D01*
X109403133Y-183481393D01*
X109390520Y-183460349D01*
X109380030Y-183438171D01*
X109371765Y-183415071D01*
X109365804Y-183391273D01*
X109362204Y-183367004D01*
X109361000Y-183342500D01*
X109361000Y-182417500D01*
X109362204Y-182392996D01*
X109365804Y-182368727D01*
X109371765Y-182344929D01*
X109380030Y-182321829D01*
X109390520Y-182299651D01*
X109403133Y-182278607D01*
X109417747Y-182258902D01*
X109434223Y-182240723D01*
X109452402Y-182224247D01*
X109472107Y-182209633D01*
X109493151Y-182197020D01*
X109515329Y-182186530D01*
X109538429Y-182178265D01*
X109562227Y-182172304D01*
X109586496Y-182168704D01*
X109611000Y-182167500D01*
X110861000Y-182167500D01*
X110885504Y-182168704D01*
G37*
G36*
X99511175Y-180741426D02*
G01*
X99519765Y-180742701D01*
X99528190Y-180744811D01*
X99536367Y-180747737D01*
X99544219Y-180751450D01*
X99551668Y-180755915D01*
X99558644Y-180761089D01*
X99565079Y-180766921D01*
X99570911Y-180773356D01*
X99576085Y-180780332D01*
X99580550Y-180787781D01*
X99584263Y-180795633D01*
X99587189Y-180803810D01*
X99589299Y-180812235D01*
X99590574Y-180820825D01*
X99591000Y-180829500D01*
X99591000Y-181242500D01*
X99590574Y-181251175D01*
X99589299Y-181259765D01*
X99587189Y-181268190D01*
X99584263Y-181276367D01*
X99580550Y-181284219D01*
X99576085Y-181291668D01*
X99570911Y-181298644D01*
X99565079Y-181305079D01*
X99558644Y-181310911D01*
X99551668Y-181316085D01*
X99544219Y-181320550D01*
X99536367Y-181324263D01*
X99528190Y-181327189D01*
X99519765Y-181329299D01*
X99511175Y-181330574D01*
X99502500Y-181331000D01*
X98309500Y-181331000D01*
X98300825Y-181330574D01*
X98292235Y-181329299D01*
X98283810Y-181327189D01*
X98275633Y-181324263D01*
X98267781Y-181320550D01*
X98260332Y-181316085D01*
X98253356Y-181310911D01*
X98246921Y-181305079D01*
X98241089Y-181298644D01*
X98235915Y-181291668D01*
X98231450Y-181284219D01*
X98227737Y-181276367D01*
X98224811Y-181268190D01*
X98222701Y-181259765D01*
X98221426Y-181251175D01*
X98221000Y-181242500D01*
X98221000Y-180829500D01*
X98221426Y-180820825D01*
X98222701Y-180812235D01*
X98224811Y-180803810D01*
X98227737Y-180795633D01*
X98231450Y-180787781D01*
X98235915Y-180780332D01*
X98241089Y-180773356D01*
X98246921Y-180766921D01*
X98253356Y-180761089D01*
X98260332Y-180755915D01*
X98267781Y-180751450D01*
X98275633Y-180747737D01*
X98283810Y-180744811D01*
X98292235Y-180742701D01*
X98300825Y-180741426D01*
X98309500Y-180741000D01*
X99502500Y-180741000D01*
X99511175Y-180741426D01*
G37*
G36*
X99511175Y-179791426D02*
G01*
X99519765Y-179792701D01*
X99528190Y-179794811D01*
X99536367Y-179797737D01*
X99544219Y-179801450D01*
X99551668Y-179805915D01*
X99558644Y-179811089D01*
X99565079Y-179816921D01*
X99570911Y-179823356D01*
X99576085Y-179830332D01*
X99580550Y-179837781D01*
X99584263Y-179845633D01*
X99587189Y-179853810D01*
X99589299Y-179862235D01*
X99590574Y-179870825D01*
X99591000Y-179879500D01*
X99591000Y-180292500D01*
X99590574Y-180301175D01*
X99589299Y-180309765D01*
X99587189Y-180318190D01*
X99584263Y-180326367D01*
X99580550Y-180334219D01*
X99576085Y-180341668D01*
X99570911Y-180348644D01*
X99565079Y-180355079D01*
X99558644Y-180360911D01*
X99551668Y-180366085D01*
X99544219Y-180370550D01*
X99536367Y-180374263D01*
X99528190Y-180377189D01*
X99519765Y-180379299D01*
X99511175Y-180380574D01*
X99502500Y-180381000D01*
X98309500Y-180381000D01*
X98300825Y-180380574D01*
X98292235Y-180379299D01*
X98283810Y-180377189D01*
X98275633Y-180374263D01*
X98267781Y-180370550D01*
X98260332Y-180366085D01*
X98253356Y-180360911D01*
X98246921Y-180355079D01*
X98241089Y-180348644D01*
X98235915Y-180341668D01*
X98231450Y-180334219D01*
X98227737Y-180326367D01*
X98224811Y-180318190D01*
X98222701Y-180309765D01*
X98221426Y-180301175D01*
X98221000Y-180292500D01*
X98221000Y-179879500D01*
X98221426Y-179870825D01*
X98222701Y-179862235D01*
X98224811Y-179853810D01*
X98227737Y-179845633D01*
X98231450Y-179837781D01*
X98235915Y-179830332D01*
X98241089Y-179823356D01*
X98246921Y-179816921D01*
X98253356Y-179811089D01*
X98260332Y-179805915D01*
X98267781Y-179801450D01*
X98275633Y-179797737D01*
X98283810Y-179794811D01*
X98292235Y-179792701D01*
X98300825Y-179791426D01*
X98309500Y-179791000D01*
X99502500Y-179791000D01*
X99511175Y-179791426D01*
G37*
G36*
X99511175Y-178841426D02*
G01*
X99519765Y-178842701D01*
X99528190Y-178844811D01*
X99536367Y-178847737D01*
X99544219Y-178851450D01*
X99551668Y-178855915D01*
X99558644Y-178861089D01*
X99565079Y-178866921D01*
X99570911Y-178873356D01*
X99576085Y-178880332D01*
X99580550Y-178887781D01*
X99584263Y-178895633D01*
X99587189Y-178903810D01*
X99589299Y-178912235D01*
X99590574Y-178920825D01*
X99591000Y-178929500D01*
X99591000Y-179342500D01*
X99590574Y-179351175D01*
X99589299Y-179359765D01*
X99587189Y-179368190D01*
X99584263Y-179376367D01*
X99580550Y-179384219D01*
X99576085Y-179391668D01*
X99570911Y-179398644D01*
X99565079Y-179405079D01*
X99558644Y-179410911D01*
X99551668Y-179416085D01*
X99544219Y-179420550D01*
X99536367Y-179424263D01*
X99528190Y-179427189D01*
X99519765Y-179429299D01*
X99511175Y-179430574D01*
X99502500Y-179431000D01*
X98309500Y-179431000D01*
X98300825Y-179430574D01*
X98292235Y-179429299D01*
X98283810Y-179427189D01*
X98275633Y-179424263D01*
X98267781Y-179420550D01*
X98260332Y-179416085D01*
X98253356Y-179410911D01*
X98246921Y-179405079D01*
X98241089Y-179398644D01*
X98235915Y-179391668D01*
X98231450Y-179384219D01*
X98227737Y-179376367D01*
X98224811Y-179368190D01*
X98222701Y-179359765D01*
X98221426Y-179351175D01*
X98221000Y-179342500D01*
X98221000Y-178929500D01*
X98221426Y-178920825D01*
X98222701Y-178912235D01*
X98224811Y-178903810D01*
X98227737Y-178895633D01*
X98231450Y-178887781D01*
X98235915Y-178880332D01*
X98241089Y-178873356D01*
X98246921Y-178866921D01*
X98253356Y-178861089D01*
X98260332Y-178855915D01*
X98267781Y-178851450D01*
X98275633Y-178847737D01*
X98283810Y-178844811D01*
X98292235Y-178842701D01*
X98300825Y-178841426D01*
X98309500Y-178841000D01*
X99502500Y-178841000D01*
X99511175Y-178841426D01*
G37*
G36*
X101851175Y-178841426D02*
G01*
X101859765Y-178842701D01*
X101868190Y-178844811D01*
X101876367Y-178847737D01*
X101884219Y-178851450D01*
X101891668Y-178855915D01*
X101898644Y-178861089D01*
X101905079Y-178866921D01*
X101910911Y-178873356D01*
X101916085Y-178880332D01*
X101920550Y-178887781D01*
X101924263Y-178895633D01*
X101927189Y-178903810D01*
X101929299Y-178912235D01*
X101930574Y-178920825D01*
X101931000Y-178929500D01*
X101931000Y-179342500D01*
X101930574Y-179351175D01*
X101929299Y-179359765D01*
X101927189Y-179368190D01*
X101924263Y-179376367D01*
X101920550Y-179384219D01*
X101916085Y-179391668D01*
X101910911Y-179398644D01*
X101905079Y-179405079D01*
X101898644Y-179410911D01*
X101891668Y-179416085D01*
X101884219Y-179420550D01*
X101876367Y-179424263D01*
X101868190Y-179427189D01*
X101859765Y-179429299D01*
X101851175Y-179430574D01*
X101842500Y-179431000D01*
X100649500Y-179431000D01*
X100640825Y-179430574D01*
X100632235Y-179429299D01*
X100623810Y-179427189D01*
X100615633Y-179424263D01*
X100607781Y-179420550D01*
X100600332Y-179416085D01*
X100593356Y-179410911D01*
X100586921Y-179405079D01*
X100581089Y-179398644D01*
X100575915Y-179391668D01*
X100571450Y-179384219D01*
X100567737Y-179376367D01*
X100564811Y-179368190D01*
X100562701Y-179359765D01*
X100561426Y-179351175D01*
X100561000Y-179342500D01*
X100561000Y-178929500D01*
X100561426Y-178920825D01*
X100562701Y-178912235D01*
X100564811Y-178903810D01*
X100567737Y-178895633D01*
X100571450Y-178887781D01*
X100575915Y-178880332D01*
X100581089Y-178873356D01*
X100586921Y-178866921D01*
X100593356Y-178861089D01*
X100600332Y-178855915D01*
X100607781Y-178851450D01*
X100615633Y-178847737D01*
X100623810Y-178844811D01*
X100632235Y-178842701D01*
X100640825Y-178841426D01*
X100649500Y-178841000D01*
X101842500Y-178841000D01*
X101851175Y-178841426D01*
G37*
G36*
X101851175Y-179791426D02*
G01*
X101859765Y-179792701D01*
X101868190Y-179794811D01*
X101876367Y-179797737D01*
X101884219Y-179801450D01*
X101891668Y-179805915D01*
X101898644Y-179811089D01*
X101905079Y-179816921D01*
X101910911Y-179823356D01*
X101916085Y-179830332D01*
X101920550Y-179837781D01*
X101924263Y-179845633D01*
X101927189Y-179853810D01*
X101929299Y-179862235D01*
X101930574Y-179870825D01*
X101931000Y-179879500D01*
X101931000Y-180292500D01*
X101930574Y-180301175D01*
X101929299Y-180309765D01*
X101927189Y-180318190D01*
X101924263Y-180326367D01*
X101920550Y-180334219D01*
X101916085Y-180341668D01*
X101910911Y-180348644D01*
X101905079Y-180355079D01*
X101898644Y-180360911D01*
X101891668Y-180366085D01*
X101884219Y-180370550D01*
X101876367Y-180374263D01*
X101868190Y-180377189D01*
X101859765Y-180379299D01*
X101851175Y-180380574D01*
X101842500Y-180381000D01*
X100649500Y-180381000D01*
X100640825Y-180380574D01*
X100632235Y-180379299D01*
X100623810Y-180377189D01*
X100615633Y-180374263D01*
X100607781Y-180370550D01*
X100600332Y-180366085D01*
X100593356Y-180360911D01*
X100586921Y-180355079D01*
X100581089Y-180348644D01*
X100575915Y-180341668D01*
X100571450Y-180334219D01*
X100567737Y-180326367D01*
X100564811Y-180318190D01*
X100562701Y-180309765D01*
X100561426Y-180301175D01*
X100561000Y-180292500D01*
X100561000Y-179879500D01*
X100561426Y-179870825D01*
X100562701Y-179862235D01*
X100564811Y-179853810D01*
X100567737Y-179845633D01*
X100571450Y-179837781D01*
X100575915Y-179830332D01*
X100581089Y-179823356D01*
X100586921Y-179816921D01*
X100593356Y-179811089D01*
X100600332Y-179805915D01*
X100607781Y-179801450D01*
X100615633Y-179797737D01*
X100623810Y-179794811D01*
X100632235Y-179792701D01*
X100640825Y-179791426D01*
X100649500Y-179791000D01*
X101842500Y-179791000D01*
X101851175Y-179791426D01*
G37*
G36*
X101851175Y-180741426D02*
G01*
X101859765Y-180742701D01*
X101868190Y-180744811D01*
X101876367Y-180747737D01*
X101884219Y-180751450D01*
X101891668Y-180755915D01*
X101898644Y-180761089D01*
X101905079Y-180766921D01*
X101910911Y-180773356D01*
X101916085Y-180780332D01*
X101920550Y-180787781D01*
X101924263Y-180795633D01*
X101927189Y-180803810D01*
X101929299Y-180812235D01*
X101930574Y-180820825D01*
X101931000Y-180829500D01*
X101931000Y-181242500D01*
X101930574Y-181251175D01*
X101929299Y-181259765D01*
X101927189Y-181268190D01*
X101924263Y-181276367D01*
X101920550Y-181284219D01*
X101916085Y-181291668D01*
X101910911Y-181298644D01*
X101905079Y-181305079D01*
X101898644Y-181310911D01*
X101891668Y-181316085D01*
X101884219Y-181320550D01*
X101876367Y-181324263D01*
X101868190Y-181327189D01*
X101859765Y-181329299D01*
X101851175Y-181330574D01*
X101842500Y-181331000D01*
X100649500Y-181331000D01*
X100640825Y-181330574D01*
X100632235Y-181329299D01*
X100623810Y-181327189D01*
X100615633Y-181324263D01*
X100607781Y-181320550D01*
X100600332Y-181316085D01*
X100593356Y-181310911D01*
X100586921Y-181305079D01*
X100581089Y-181298644D01*
X100575915Y-181291668D01*
X100571450Y-181284219D01*
X100567737Y-181276367D01*
X100564811Y-181268190D01*
X100562701Y-181259765D01*
X100561426Y-181251175D01*
X100561000Y-181242500D01*
X100561000Y-180829500D01*
X100561426Y-180820825D01*
X100562701Y-180812235D01*
X100564811Y-180803810D01*
X100567737Y-180795633D01*
X100571450Y-180787781D01*
X100575915Y-180780332D01*
X100581089Y-180773356D01*
X100586921Y-180766921D01*
X100593356Y-180761089D01*
X100600332Y-180755915D01*
X100607781Y-180751450D01*
X100615633Y-180747737D01*
X100623810Y-180744811D01*
X100632235Y-180742701D01*
X100640825Y-180741426D01*
X100649500Y-180741000D01*
X101842500Y-180741000D01*
X101851175Y-180741426D01*
G37*
D14*
X132588000Y-180340000D03*
X129838000Y-180340000D03*
M02*
