G04 #@! TF.GenerationSoftware,KiCad,Pcbnew,5.1.5+dfsg1-2build2*
G04 #@! TF.CreationDate,2021-12-07T08:31:46-05:00*
G04 #@! TF.ProjectId,schematics,73636865-6d61-4746-9963-732e6b696361,rev?*
G04 #@! TF.SameCoordinates,Original*
G04 #@! TF.FileFunction,Legend,Top*
G04 #@! TF.FilePolarity,Positive*
%FSLAX46Y46*%
G04 Gerber Fmt 4.6, Leading zero omitted, Abs format (unit mm)*
G04 Created by KiCad (PCBNEW 5.1.5+dfsg1-2build2) date 2021-12-07 08:31:46*
%MOMM*%
%LPD*%
G04 APERTURE LIST*
%ADD10C,0.120000*%
%ADD11C,0.240000*%
%ADD12C,0.127000*%
%ADD13C,0.150000*%
G04 APERTURE END LIST*
D10*
X133208500Y-51189000D02*
X129148500Y-51189000D01*
X129148500Y-51189000D02*
X129148500Y-53459000D01*
X129148500Y-53459000D02*
X133208500Y-53459000D01*
D11*
X106860000Y-58656000D02*
G75*
G03X106860000Y-58656000I-120000J0D01*
G01*
D12*
X107840000Y-82606000D02*
X107840000Y-82756000D01*
X125840000Y-82756000D02*
X125840000Y-82556000D01*
X107840000Y-82756000D02*
X125840000Y-82756000D01*
X125840000Y-51356000D02*
X125840000Y-58106000D01*
X107840000Y-51356000D02*
X125840000Y-51356000D01*
X107840000Y-58106000D02*
X107840000Y-51356000D01*
D10*
X89846000Y-44518000D02*
X89846000Y-48538000D01*
X89846000Y-48538000D02*
X102566000Y-48538000D01*
X102566000Y-48538000D02*
X102566000Y-44518000D01*
X102566000Y-44518000D02*
X89846000Y-44518000D01*
X89846000Y-46228000D02*
X90346000Y-46228000D01*
X90346000Y-46228000D02*
X90346000Y-45018000D01*
X90346000Y-45018000D02*
X102066000Y-45018000D01*
X102066000Y-45018000D02*
X102066000Y-46228000D01*
X102066000Y-46228000D02*
X102566000Y-46228000D01*
X89846000Y-47038000D02*
X90846000Y-47038000D01*
X90846000Y-47038000D02*
X90846000Y-48538000D01*
X102566000Y-47038000D02*
X101566000Y-47038000D01*
X101566000Y-47038000D02*
X101566000Y-48538000D01*
X89546000Y-46338000D02*
X89546000Y-48838000D01*
X89546000Y-48838000D02*
X92046000Y-48838000D01*
X95353000Y-57123000D02*
X97813000Y-57123000D01*
X97813000Y-57123000D02*
X97813000Y-55653000D01*
X97813000Y-55653000D02*
X95353000Y-55653000D01*
X98568000Y-74256000D02*
X98568000Y-78756000D01*
X102568000Y-73006000D02*
X101068000Y-73006000D01*
X105068000Y-78756000D02*
X105068000Y-74256000D01*
X101068000Y-80006000D02*
X102568000Y-80006000D01*
X127438000Y-45534000D02*
X127438000Y-49554000D01*
X127438000Y-49554000D02*
X135158000Y-49554000D01*
X135158000Y-49554000D02*
X135158000Y-45534000D01*
X135158000Y-45534000D02*
X127438000Y-45534000D01*
X127438000Y-47244000D02*
X127938000Y-47244000D01*
X127938000Y-47244000D02*
X127938000Y-46034000D01*
X127938000Y-46034000D02*
X134658000Y-46034000D01*
X134658000Y-46034000D02*
X134658000Y-47244000D01*
X134658000Y-47244000D02*
X135158000Y-47244000D01*
X127438000Y-48054000D02*
X128438000Y-48054000D01*
X128438000Y-48054000D02*
X128438000Y-49554000D01*
X135158000Y-48054000D02*
X134158000Y-48054000D01*
X134158000Y-48054000D02*
X134158000Y-49554000D01*
X127138000Y-47354000D02*
X127138000Y-49854000D01*
X127138000Y-49854000D02*
X129638000Y-49854000D01*
X138640000Y-51288000D02*
X140760000Y-51288000D01*
X138640000Y-47228000D02*
X138640000Y-51288000D01*
X140760000Y-47228000D02*
X140760000Y-51288000D01*
X138640000Y-47228000D02*
X140760000Y-47228000D01*
X138640000Y-46228000D02*
X138640000Y-45168000D01*
X138640000Y-45168000D02*
X139700000Y-45168000D01*
X137484000Y-55496000D02*
X130884000Y-55496000D01*
X146484000Y-55496000D02*
X139884000Y-55496000D01*
X146484000Y-55496000D02*
X146484000Y-75296000D01*
X146484000Y-75296000D02*
X130884000Y-75296000D01*
X130884000Y-75296000D02*
X130884000Y-55496000D01*
X134484000Y-71046000D02*
X136934000Y-71046000D01*
X142884000Y-71046000D02*
X140384000Y-71046000D01*
X132634000Y-60446000D02*
X132634000Y-62946000D01*
X138634000Y-59546000D02*
X138634000Y-58746000D01*
X144634000Y-62946000D02*
X144634000Y-60446000D01*
X138634000Y-66346000D02*
X138634000Y-67846000D01*
X138634000Y-67846000D02*
X141134000Y-72446000D01*
X135034000Y-66346000D02*
X135034000Y-59546000D01*
X138634000Y-66346000D02*
X135034000Y-66346000D01*
X138634000Y-59546000D02*
X135034000Y-59546000D01*
X144634000Y-62946000D02*
X140434000Y-62946000D01*
X136834000Y-62946000D02*
X132634000Y-62946000D01*
X136834000Y-64946000D02*
X140434000Y-60946000D01*
X136834000Y-60946000D02*
X140434000Y-60946000D01*
X140434000Y-60946000D02*
X140434000Y-64946000D01*
X140434000Y-64946000D02*
X136834000Y-64946000D01*
X136834000Y-64946000D02*
X136834000Y-60946000D01*
X137522000Y-80312000D02*
X137522000Y-81812000D01*
X138772000Y-84312000D02*
X143272000Y-84312000D01*
X144522000Y-81812000D02*
X144522000Y-80312000D01*
X143272000Y-77812000D02*
X138772000Y-77812000D01*
X123698000Y-45974000D02*
X123698000Y-48514000D01*
X123698000Y-48514000D02*
X103378000Y-48514000D01*
X103378000Y-48514000D02*
X103378000Y-45974000D01*
X103378000Y-45974000D02*
X123698000Y-45974000D01*
X104142000Y-58897733D02*
X104142000Y-59240267D01*
X103122000Y-58897733D02*
X103122000Y-59240267D01*
X100078000Y-63187733D02*
X100078000Y-63530267D01*
X99058000Y-63187733D02*
X99058000Y-63530267D01*
X100078000Y-59466267D02*
X100078000Y-59123733D01*
X99058000Y-59466267D02*
X99058000Y-59123733D01*
X103122000Y-63530267D02*
X103122000Y-63187733D01*
X104142000Y-63530267D02*
X104142000Y-63187733D01*
X102165564Y-67162000D02*
X100961436Y-67162000D01*
X102165564Y-68982000D02*
X100961436Y-68982000D01*
X94594000Y-68710564D02*
X94594000Y-67506436D01*
X96414000Y-68710564D02*
X96414000Y-67506436D01*
X94594000Y-74225564D02*
X94594000Y-73021436D01*
X96414000Y-74225564D02*
X96414000Y-73021436D01*
X94594000Y-79886564D02*
X94594000Y-78682436D01*
X96414000Y-79886564D02*
X96414000Y-78682436D01*
X89514000Y-79850064D02*
X89514000Y-78645936D01*
X91334000Y-79850064D02*
X91334000Y-78645936D01*
X91334000Y-74225564D02*
X91334000Y-73021436D01*
X89514000Y-74225564D02*
X89514000Y-73021436D01*
X91334000Y-68637564D02*
X91334000Y-67433436D01*
X89514000Y-68637564D02*
X89514000Y-67433436D01*
X96414000Y-84778436D02*
X96414000Y-85982564D01*
X94594000Y-84778436D02*
X94594000Y-85982564D01*
X91334000Y-85909564D02*
X91334000Y-84705436D01*
X89514000Y-85909564D02*
X89514000Y-84705436D01*
X101877000Y-51589000D02*
X99417000Y-51589000D01*
X101877000Y-53059000D02*
X101877000Y-51589000D01*
X99417000Y-53059000D02*
X101877000Y-53059000D01*
X95353000Y-53059000D02*
X97813000Y-53059000D01*
X97813000Y-53059000D02*
X97813000Y-51589000D01*
X97813000Y-51589000D02*
X95353000Y-51589000D01*
X91148000Y-53059000D02*
X93608000Y-53059000D01*
X93608000Y-53059000D02*
X93608000Y-51589000D01*
X93608000Y-51589000D02*
X91148000Y-51589000D01*
X93749000Y-55653000D02*
X91289000Y-55653000D01*
X93749000Y-57123000D02*
X93749000Y-55653000D01*
X91289000Y-57123000D02*
X93749000Y-57123000D01*
X93608000Y-59717000D02*
X91148000Y-59717000D01*
X93608000Y-61187000D02*
X93608000Y-59717000D01*
X91148000Y-61187000D02*
X93608000Y-61187000D01*
X129148500Y-79875000D02*
X133208500Y-79875000D01*
X129148500Y-77605000D02*
X129148500Y-79875000D01*
X133208500Y-77605000D02*
X129148500Y-77605000D01*
X95636000Y-97898000D02*
X95636000Y-96638000D01*
X95636000Y-91078000D02*
X95636000Y-92338000D01*
X91876000Y-97898000D02*
X95636000Y-97898000D01*
X89626000Y-91078000D02*
X95636000Y-91078000D01*
X106230267Y-85342000D02*
X105887733Y-85342000D01*
X106230267Y-86362000D02*
X105887733Y-86362000D01*
X101682733Y-85342000D02*
X102025267Y-85342000D01*
X101682733Y-86362000D02*
X102025267Y-86362000D01*
X102728500Y-97925000D02*
X98668500Y-97925000D01*
X98668500Y-97925000D02*
X98668500Y-100195000D01*
X98668500Y-100195000D02*
X102728500Y-100195000D01*
X99498000Y-91508000D02*
X99498000Y-95528000D01*
X99498000Y-95528000D02*
X107218000Y-95528000D01*
X107218000Y-95528000D02*
X107218000Y-91508000D01*
X107218000Y-91508000D02*
X99498000Y-91508000D01*
X99498000Y-93218000D02*
X99998000Y-93218000D01*
X99998000Y-93218000D02*
X99998000Y-92008000D01*
X99998000Y-92008000D02*
X106718000Y-92008000D01*
X106718000Y-92008000D02*
X106718000Y-93218000D01*
X106718000Y-93218000D02*
X107218000Y-93218000D01*
X99498000Y-94028000D02*
X100498000Y-94028000D01*
X100498000Y-94028000D02*
X100498000Y-95528000D01*
X107218000Y-94028000D02*
X106218000Y-94028000D01*
X106218000Y-94028000D02*
X106218000Y-95528000D01*
X99198000Y-93328000D02*
X99198000Y-95828000D01*
X99198000Y-95828000D02*
X101698000Y-95828000D01*
D13*
X109390900Y-88640400D02*
X109390900Y-100640400D01*
X146890900Y-100640400D02*
X146890900Y-88640400D01*
X144390900Y-86140400D02*
X111890900Y-86140400D01*
X111890900Y-103140400D02*
X144390900Y-103140400D01*
X109390900Y-100640400D02*
G75*
G03X111890900Y-103140400I2500000J0D01*
G01*
X144390900Y-103140400D02*
G75*
G03X146890900Y-100640400I0J2500000D01*
G01*
X146890900Y-88640400D02*
G75*
G03X144390900Y-86140400I-2500000J0D01*
G01*
X111890900Y-86140400D02*
G75*
G03X109390900Y-88640400I0J-2500000D01*
G01*
X130870404Y-50956380D02*
X130870404Y-49956380D01*
X131108500Y-49956380D01*
X131251357Y-50004000D01*
X131346595Y-50099238D01*
X131394214Y-50194476D01*
X131441833Y-50384952D01*
X131441833Y-50527809D01*
X131394214Y-50718285D01*
X131346595Y-50813523D01*
X131251357Y-50908761D01*
X131108500Y-50956380D01*
X130870404Y-50956380D01*
X131775166Y-49956380D02*
X132441833Y-49956380D01*
X132013261Y-50956380D01*
X110839711Y-49684536D02*
X110839711Y-50495870D01*
X110887437Y-50591321D01*
X110935162Y-50639046D01*
X111030613Y-50686772D01*
X111221515Y-50686772D01*
X111316966Y-50639046D01*
X111364692Y-50591321D01*
X111412417Y-50495870D01*
X111412417Y-49684536D01*
X112414653Y-50686772D02*
X111841947Y-50686772D01*
X112128300Y-50686772D02*
X112128300Y-49684536D01*
X112032849Y-49827713D01*
X111937398Y-49923164D01*
X111841947Y-49970889D01*
X95444095Y-42880380D02*
X95444095Y-43689904D01*
X95491714Y-43785142D01*
X95539333Y-43832761D01*
X95634571Y-43880380D01*
X95825047Y-43880380D01*
X95920285Y-43832761D01*
X95967904Y-43785142D01*
X96015523Y-43689904D01*
X96015523Y-42880380D01*
X96396476Y-42880380D02*
X97015523Y-42880380D01*
X96682190Y-43261333D01*
X96825047Y-43261333D01*
X96920285Y-43308952D01*
X96967904Y-43356571D01*
X97015523Y-43451809D01*
X97015523Y-43689904D01*
X96967904Y-43785142D01*
X96920285Y-43832761D01*
X96825047Y-43880380D01*
X96539333Y-43880380D01*
X96444095Y-43832761D01*
X96396476Y-43785142D01*
X95414904Y-58270380D02*
X95414904Y-57270380D01*
X95653000Y-57270380D01*
X95795857Y-57318000D01*
X95891095Y-57413238D01*
X95938714Y-57508476D01*
X95986333Y-57698952D01*
X95986333Y-57841809D01*
X95938714Y-58032285D01*
X95891095Y-58127523D01*
X95795857Y-58222761D01*
X95653000Y-58270380D01*
X95414904Y-58270380D01*
X96367285Y-57365619D02*
X96414904Y-57318000D01*
X96510142Y-57270380D01*
X96748238Y-57270380D01*
X96843476Y-57318000D01*
X96891095Y-57365619D01*
X96938714Y-57460857D01*
X96938714Y-57556095D01*
X96891095Y-57698952D01*
X96319666Y-58270380D01*
X96938714Y-58270380D01*
X106520380Y-78434571D02*
X106044190Y-78767904D01*
X106520380Y-79006000D02*
X105520380Y-79006000D01*
X105520380Y-78625047D01*
X105568000Y-78529809D01*
X105615619Y-78482190D01*
X105710857Y-78434571D01*
X105853714Y-78434571D01*
X105948952Y-78482190D01*
X105996571Y-78529809D01*
X106044190Y-78625047D01*
X106044190Y-79006000D01*
X105996571Y-78006000D02*
X105996571Y-77672666D01*
X106520380Y-77529809D02*
X106520380Y-78006000D01*
X105520380Y-78006000D01*
X105520380Y-77529809D01*
X106472761Y-77148857D02*
X106520380Y-77006000D01*
X106520380Y-76767904D01*
X106472761Y-76672666D01*
X106425142Y-76625047D01*
X106329904Y-76577428D01*
X106234666Y-76577428D01*
X106139428Y-76625047D01*
X106091809Y-76672666D01*
X106044190Y-76767904D01*
X105996571Y-76958380D01*
X105948952Y-77053619D01*
X105901333Y-77101238D01*
X105806095Y-77148857D01*
X105710857Y-77148857D01*
X105615619Y-77101238D01*
X105568000Y-77053619D01*
X105520380Y-76958380D01*
X105520380Y-76720285D01*
X105568000Y-76577428D01*
X105996571Y-76148857D02*
X105996571Y-75815523D01*
X106520380Y-75672666D02*
X106520380Y-76148857D01*
X105520380Y-76148857D01*
X105520380Y-75672666D01*
X105520380Y-75386952D02*
X105520380Y-74815523D01*
X106520380Y-75101238D02*
X105520380Y-75101238D01*
X106520380Y-73958380D02*
X106520380Y-74529809D01*
X106520380Y-74244095D02*
X105520380Y-74244095D01*
X105663238Y-74339333D01*
X105758476Y-74434571D01*
X105806095Y-74529809D01*
X130964666Y-43896380D02*
X130964666Y-44610666D01*
X130917047Y-44753523D01*
X130821809Y-44848761D01*
X130678952Y-44896380D01*
X130583714Y-44896380D01*
X131964666Y-44896380D02*
X131393238Y-44896380D01*
X131678952Y-44896380D02*
X131678952Y-43896380D01*
X131583714Y-44039238D01*
X131488476Y-44134476D01*
X131393238Y-44182095D01*
X139366666Y-43620380D02*
X139366666Y-44334666D01*
X139319047Y-44477523D01*
X139223809Y-44572761D01*
X139080952Y-44620380D01*
X138985714Y-44620380D01*
X139795238Y-43715619D02*
X139842857Y-43668000D01*
X139938095Y-43620380D01*
X140176190Y-43620380D01*
X140271428Y-43668000D01*
X140319047Y-43715619D01*
X140366666Y-43810857D01*
X140366666Y-43906095D01*
X140319047Y-44048952D01*
X139747619Y-44620380D01*
X140366666Y-44620380D01*
X129936380Y-65734095D02*
X128936380Y-65734095D01*
X129936380Y-65162666D02*
X129364952Y-65591238D01*
X128936380Y-65162666D02*
X129507809Y-65734095D01*
X129936380Y-64210285D02*
X129936380Y-64781714D01*
X129936380Y-64496000D02*
X128936380Y-64496000D01*
X129079238Y-64591238D01*
X129174476Y-64686476D01*
X129222095Y-64781714D01*
X139688666Y-85716761D02*
X139831523Y-85764380D01*
X140069619Y-85764380D01*
X140164857Y-85716761D01*
X140212476Y-85669142D01*
X140260095Y-85573904D01*
X140260095Y-85478666D01*
X140212476Y-85383428D01*
X140164857Y-85335809D01*
X140069619Y-85288190D01*
X139879142Y-85240571D01*
X139783904Y-85192952D01*
X139736285Y-85145333D01*
X139688666Y-85050095D01*
X139688666Y-84954857D01*
X139736285Y-84859619D01*
X139783904Y-84812000D01*
X139879142Y-84764380D01*
X140117238Y-84764380D01*
X140260095Y-84812000D01*
X140593428Y-84764380D02*
X140831523Y-85764380D01*
X141022000Y-85050095D01*
X141212476Y-85764380D01*
X141450571Y-84764380D01*
X141783904Y-84859619D02*
X141831523Y-84812000D01*
X141926761Y-84764380D01*
X142164857Y-84764380D01*
X142260095Y-84812000D01*
X142307714Y-84859619D01*
X142355333Y-84954857D01*
X142355333Y-85050095D01*
X142307714Y-85192952D01*
X141736285Y-85764380D01*
X142355333Y-85764380D01*
X115570095Y-48728380D02*
X115570095Y-49537904D01*
X115617714Y-49633142D01*
X115665333Y-49680761D01*
X115760571Y-49728380D01*
X115951047Y-49728380D01*
X116046285Y-49680761D01*
X116093904Y-49633142D01*
X116141523Y-49537904D01*
X116141523Y-48728380D01*
X116570095Y-48823619D02*
X116617714Y-48776000D01*
X116712952Y-48728380D01*
X116951047Y-48728380D01*
X117046285Y-48776000D01*
X117093904Y-48823619D01*
X117141523Y-48918857D01*
X117141523Y-49014095D01*
X117093904Y-49156952D01*
X116522476Y-49728380D01*
X117141523Y-49728380D01*
X122832761Y-44648285D02*
X122880380Y-44505428D01*
X122880380Y-44267333D01*
X122832761Y-44172095D01*
X122785142Y-44124476D01*
X122689904Y-44076857D01*
X122594666Y-44076857D01*
X122499428Y-44124476D01*
X122451809Y-44172095D01*
X122404190Y-44267333D01*
X122356571Y-44457809D01*
X122308952Y-44553047D01*
X122261333Y-44600666D01*
X122166095Y-44648285D01*
X122070857Y-44648285D01*
X121975619Y-44600666D01*
X121928000Y-44553047D01*
X121880380Y-44457809D01*
X121880380Y-44219714D01*
X121928000Y-44076857D01*
X122880380Y-43648285D02*
X121880380Y-43648285D01*
X121880380Y-43410190D01*
X121928000Y-43267333D01*
X122023238Y-43172095D01*
X122118476Y-43124476D01*
X122308952Y-43076857D01*
X122451809Y-43076857D01*
X122642285Y-43124476D01*
X122737523Y-43172095D01*
X122832761Y-43267333D01*
X122880380Y-43410190D01*
X122880380Y-43648285D01*
X122594666Y-42695904D02*
X122594666Y-42219714D01*
X122880380Y-42791142D02*
X121880380Y-42457809D01*
X122880380Y-42124476D01*
X120292761Y-44719714D02*
X120340380Y-44576857D01*
X120340380Y-44338761D01*
X120292761Y-44243523D01*
X120245142Y-44195904D01*
X120149904Y-44148285D01*
X120054666Y-44148285D01*
X119959428Y-44195904D01*
X119911809Y-44243523D01*
X119864190Y-44338761D01*
X119816571Y-44529238D01*
X119768952Y-44624476D01*
X119721333Y-44672095D01*
X119626095Y-44719714D01*
X119530857Y-44719714D01*
X119435619Y-44672095D01*
X119388000Y-44624476D01*
X119340380Y-44529238D01*
X119340380Y-44291142D01*
X119388000Y-44148285D01*
X120245142Y-43148285D02*
X120292761Y-43195904D01*
X120340380Y-43338761D01*
X120340380Y-43434000D01*
X120292761Y-43576857D01*
X120197523Y-43672095D01*
X120102285Y-43719714D01*
X119911809Y-43767333D01*
X119768952Y-43767333D01*
X119578476Y-43719714D01*
X119483238Y-43672095D01*
X119388000Y-43576857D01*
X119340380Y-43434000D01*
X119340380Y-43338761D01*
X119388000Y-43195904D01*
X119435619Y-43148285D01*
X120340380Y-42719714D02*
X119340380Y-42719714D01*
X120340380Y-42148285D02*
X119768952Y-42576857D01*
X119340380Y-42148285D02*
X119911809Y-42719714D01*
X117800380Y-45005428D02*
X116800380Y-45005428D01*
X117514666Y-44672095D01*
X116800380Y-44338761D01*
X117800380Y-44338761D01*
X116800380Y-43672095D02*
X116800380Y-43481619D01*
X116848000Y-43386380D01*
X116943238Y-43291142D01*
X117133714Y-43243523D01*
X117467047Y-43243523D01*
X117657523Y-43291142D01*
X117752761Y-43386380D01*
X117800380Y-43481619D01*
X117800380Y-43672095D01*
X117752761Y-43767333D01*
X117657523Y-43862571D01*
X117467047Y-43910190D01*
X117133714Y-43910190D01*
X116943238Y-43862571D01*
X116848000Y-43767333D01*
X116800380Y-43672095D01*
X117752761Y-42862571D02*
X117800380Y-42719714D01*
X117800380Y-42481619D01*
X117752761Y-42386380D01*
X117705142Y-42338761D01*
X117609904Y-42291142D01*
X117514666Y-42291142D01*
X117419428Y-42338761D01*
X117371809Y-42386380D01*
X117324190Y-42481619D01*
X117276571Y-42672095D01*
X117228952Y-42767333D01*
X117181333Y-42814952D01*
X117086095Y-42862571D01*
X116990857Y-42862571D01*
X116895619Y-42814952D01*
X116848000Y-42767333D01*
X116800380Y-42672095D01*
X116800380Y-42434000D01*
X116848000Y-42291142D01*
X117800380Y-41862571D02*
X116800380Y-41862571D01*
X115260380Y-45005428D02*
X114260380Y-45005428D01*
X114974666Y-44672095D01*
X114260380Y-44338761D01*
X115260380Y-44338761D01*
X115260380Y-43862571D02*
X114260380Y-43862571D01*
X115212761Y-43434000D02*
X115260380Y-43291142D01*
X115260380Y-43053047D01*
X115212761Y-42957809D01*
X115165142Y-42910190D01*
X115069904Y-42862571D01*
X114974666Y-42862571D01*
X114879428Y-42910190D01*
X114831809Y-42957809D01*
X114784190Y-43053047D01*
X114736571Y-43243523D01*
X114688952Y-43338761D01*
X114641333Y-43386380D01*
X114546095Y-43434000D01*
X114450857Y-43434000D01*
X114355619Y-43386380D01*
X114308000Y-43338761D01*
X114260380Y-43243523D01*
X114260380Y-43005428D01*
X114308000Y-42862571D01*
X114260380Y-42243523D02*
X114260380Y-42053047D01*
X114308000Y-41957809D01*
X114403238Y-41862571D01*
X114593714Y-41814952D01*
X114927047Y-41814952D01*
X115117523Y-41862571D01*
X115212761Y-41957809D01*
X115260380Y-42053047D01*
X115260380Y-42243523D01*
X115212761Y-42338761D01*
X115117523Y-42434000D01*
X114927047Y-42481619D01*
X114593714Y-42481619D01*
X114403238Y-42434000D01*
X114308000Y-42338761D01*
X114260380Y-42243523D01*
X112720380Y-44457809D02*
X111720380Y-44457809D01*
X112720380Y-43410190D02*
X112244190Y-43743523D01*
X112720380Y-43981619D02*
X111720380Y-43981619D01*
X111720380Y-43600666D01*
X111768000Y-43505428D01*
X111815619Y-43457809D01*
X111910857Y-43410190D01*
X112053714Y-43410190D01*
X112148952Y-43457809D01*
X112196571Y-43505428D01*
X112244190Y-43600666D01*
X112244190Y-43981619D01*
X112815619Y-42314952D02*
X112768000Y-42410190D01*
X112672761Y-42505428D01*
X112529904Y-42648285D01*
X112482285Y-42743523D01*
X112482285Y-42838761D01*
X112720380Y-42791142D02*
X112672761Y-42886380D01*
X112577523Y-42981619D01*
X112387047Y-43029238D01*
X112053714Y-43029238D01*
X111863238Y-42981619D01*
X111768000Y-42886380D01*
X111720380Y-42791142D01*
X111720380Y-42600666D01*
X111768000Y-42505428D01*
X111863238Y-42410190D01*
X112053714Y-42362571D01*
X112387047Y-42362571D01*
X112577523Y-42410190D01*
X112672761Y-42505428D01*
X112720380Y-42600666D01*
X112720380Y-42791142D01*
X109228000Y-44195904D02*
X109180380Y-44291142D01*
X109180380Y-44434000D01*
X109228000Y-44576857D01*
X109323238Y-44672095D01*
X109418476Y-44719714D01*
X109608952Y-44767333D01*
X109751809Y-44767333D01*
X109942285Y-44719714D01*
X110037523Y-44672095D01*
X110132761Y-44576857D01*
X110180380Y-44434000D01*
X110180380Y-44338761D01*
X110132761Y-44195904D01*
X110085142Y-44148285D01*
X109751809Y-44148285D01*
X109751809Y-44338761D01*
X110180380Y-43719714D02*
X109180380Y-43719714D01*
X110180380Y-43148285D01*
X109180380Y-43148285D01*
X110180380Y-42672095D02*
X109180380Y-42672095D01*
X109180380Y-42434000D01*
X109228000Y-42291142D01*
X109323238Y-42195904D01*
X109418476Y-42148285D01*
X109608952Y-42100666D01*
X109751809Y-42100666D01*
X109942285Y-42148285D01*
X110037523Y-42195904D01*
X110132761Y-42291142D01*
X110180380Y-42434000D01*
X110180380Y-42672095D01*
X107640380Y-43981619D02*
X107164190Y-44314952D01*
X107640380Y-44553047D02*
X106640380Y-44553047D01*
X106640380Y-44172095D01*
X106688000Y-44076857D01*
X106735619Y-44029238D01*
X106830857Y-43981619D01*
X106973714Y-43981619D01*
X107068952Y-44029238D01*
X107116571Y-44076857D01*
X107164190Y-44172095D01*
X107164190Y-44553047D01*
X107592761Y-43600666D02*
X107640380Y-43457809D01*
X107640380Y-43219714D01*
X107592761Y-43124476D01*
X107545142Y-43076857D01*
X107449904Y-43029238D01*
X107354666Y-43029238D01*
X107259428Y-43076857D01*
X107211809Y-43124476D01*
X107164190Y-43219714D01*
X107116571Y-43410190D01*
X107068952Y-43505428D01*
X107021333Y-43553047D01*
X106926095Y-43600666D01*
X106830857Y-43600666D01*
X106735619Y-43553047D01*
X106688000Y-43505428D01*
X106640380Y-43410190D01*
X106640380Y-43172095D01*
X106688000Y-43029238D01*
X106640380Y-42743523D02*
X106640380Y-42172095D01*
X107640380Y-42457809D02*
X106640380Y-42457809D01*
X104100380Y-44767333D02*
X105100380Y-44434000D01*
X104100380Y-44100666D01*
X105005142Y-43195904D02*
X105052761Y-43243523D01*
X105100380Y-43386380D01*
X105100380Y-43481619D01*
X105052761Y-43624476D01*
X104957523Y-43719714D01*
X104862285Y-43767333D01*
X104671809Y-43814952D01*
X104528952Y-43814952D01*
X104338476Y-43767333D01*
X104243238Y-43719714D01*
X104148000Y-43624476D01*
X104100380Y-43481619D01*
X104100380Y-43386380D01*
X104148000Y-43243523D01*
X104195619Y-43195904D01*
X105005142Y-42195904D02*
X105052761Y-42243523D01*
X105100380Y-42386380D01*
X105100380Y-42481619D01*
X105052761Y-42624476D01*
X104957523Y-42719714D01*
X104862285Y-42767333D01*
X104671809Y-42814952D01*
X104528952Y-42814952D01*
X104338476Y-42767333D01*
X104243238Y-42719714D01*
X104148000Y-42624476D01*
X104100380Y-42481619D01*
X104100380Y-42386380D01*
X104148000Y-42243523D01*
X104195619Y-42195904D01*
X105419142Y-59235666D02*
X105466761Y-59283285D01*
X105514380Y-59426142D01*
X105514380Y-59521380D01*
X105466761Y-59664238D01*
X105371523Y-59759476D01*
X105276285Y-59807095D01*
X105085809Y-59854714D01*
X104942952Y-59854714D01*
X104752476Y-59807095D01*
X104657238Y-59759476D01*
X104562000Y-59664238D01*
X104514380Y-59521380D01*
X104514380Y-59426142D01*
X104562000Y-59283285D01*
X104609619Y-59235666D01*
X104847714Y-58378523D02*
X105514380Y-58378523D01*
X104466761Y-58616619D02*
X105181047Y-58854714D01*
X105181047Y-58235666D01*
X101355142Y-63525666D02*
X101402761Y-63573285D01*
X101450380Y-63716142D01*
X101450380Y-63811380D01*
X101402761Y-63954238D01*
X101307523Y-64049476D01*
X101212285Y-64097095D01*
X101021809Y-64144714D01*
X100878952Y-64144714D01*
X100688476Y-64097095D01*
X100593238Y-64049476D01*
X100498000Y-63954238D01*
X100450380Y-63811380D01*
X100450380Y-63716142D01*
X100498000Y-63573285D01*
X100545619Y-63525666D01*
X101450380Y-62573285D02*
X101450380Y-63144714D01*
X101450380Y-62859000D02*
X100450380Y-62859000D01*
X100593238Y-62954238D01*
X100688476Y-63049476D01*
X100736095Y-63144714D01*
X98495142Y-59461666D02*
X98542761Y-59509285D01*
X98590380Y-59652142D01*
X98590380Y-59747380D01*
X98542761Y-59890238D01*
X98447523Y-59985476D01*
X98352285Y-60033095D01*
X98161809Y-60080714D01*
X98018952Y-60080714D01*
X97828476Y-60033095D01*
X97733238Y-59985476D01*
X97638000Y-59890238D01*
X97590380Y-59747380D01*
X97590380Y-59652142D01*
X97638000Y-59509285D01*
X97685619Y-59461666D01*
X97685619Y-59080714D02*
X97638000Y-59033095D01*
X97590380Y-58937857D01*
X97590380Y-58699761D01*
X97638000Y-58604523D01*
X97685619Y-58556904D01*
X97780857Y-58509285D01*
X97876095Y-58509285D01*
X98018952Y-58556904D01*
X98590380Y-59128333D01*
X98590380Y-58509285D01*
X102559142Y-63525666D02*
X102606761Y-63573285D01*
X102654380Y-63716142D01*
X102654380Y-63811380D01*
X102606761Y-63954238D01*
X102511523Y-64049476D01*
X102416285Y-64097095D01*
X102225809Y-64144714D01*
X102082952Y-64144714D01*
X101892476Y-64097095D01*
X101797238Y-64049476D01*
X101702000Y-63954238D01*
X101654380Y-63811380D01*
X101654380Y-63716142D01*
X101702000Y-63573285D01*
X101749619Y-63525666D01*
X101654380Y-63192333D02*
X101654380Y-62573285D01*
X102035333Y-62906619D01*
X102035333Y-62763761D01*
X102082952Y-62668523D01*
X102130571Y-62620904D01*
X102225809Y-62573285D01*
X102463904Y-62573285D01*
X102559142Y-62620904D01*
X102606761Y-62668523D01*
X102654380Y-62763761D01*
X102654380Y-63049476D01*
X102606761Y-63144714D01*
X102559142Y-63192333D01*
X101396833Y-70344380D02*
X101063500Y-69868190D01*
X100825404Y-70344380D02*
X100825404Y-69344380D01*
X101206357Y-69344380D01*
X101301595Y-69392000D01*
X101349214Y-69439619D01*
X101396833Y-69534857D01*
X101396833Y-69677714D01*
X101349214Y-69772952D01*
X101301595Y-69820571D01*
X101206357Y-69868190D01*
X100825404Y-69868190D01*
X102349214Y-70344380D02*
X101777785Y-70344380D01*
X102063500Y-70344380D02*
X102063500Y-69344380D01*
X101968261Y-69487238D01*
X101873023Y-69582476D01*
X101777785Y-69630095D01*
X94136380Y-68275166D02*
X93660190Y-68608500D01*
X94136380Y-68846595D02*
X93136380Y-68846595D01*
X93136380Y-68465642D01*
X93184000Y-68370404D01*
X93231619Y-68322785D01*
X93326857Y-68275166D01*
X93469714Y-68275166D01*
X93564952Y-68322785D01*
X93612571Y-68370404D01*
X93660190Y-68465642D01*
X93660190Y-68846595D01*
X93231619Y-67894214D02*
X93184000Y-67846595D01*
X93136380Y-67751357D01*
X93136380Y-67513261D01*
X93184000Y-67418023D01*
X93231619Y-67370404D01*
X93326857Y-67322785D01*
X93422095Y-67322785D01*
X93564952Y-67370404D01*
X94136380Y-67941833D01*
X94136380Y-67322785D01*
X94136380Y-73790166D02*
X93660190Y-74123500D01*
X94136380Y-74361595D02*
X93136380Y-74361595D01*
X93136380Y-73980642D01*
X93184000Y-73885404D01*
X93231619Y-73837785D01*
X93326857Y-73790166D01*
X93469714Y-73790166D01*
X93564952Y-73837785D01*
X93612571Y-73885404D01*
X93660190Y-73980642D01*
X93660190Y-74361595D01*
X93136380Y-73456833D02*
X93136380Y-72837785D01*
X93517333Y-73171119D01*
X93517333Y-73028261D01*
X93564952Y-72933023D01*
X93612571Y-72885404D01*
X93707809Y-72837785D01*
X93945904Y-72837785D01*
X94041142Y-72885404D01*
X94088761Y-72933023D01*
X94136380Y-73028261D01*
X94136380Y-73313976D01*
X94088761Y-73409214D01*
X94041142Y-73456833D01*
X94136380Y-79451166D02*
X93660190Y-79784500D01*
X94136380Y-80022595D02*
X93136380Y-80022595D01*
X93136380Y-79641642D01*
X93184000Y-79546404D01*
X93231619Y-79498785D01*
X93326857Y-79451166D01*
X93469714Y-79451166D01*
X93564952Y-79498785D01*
X93612571Y-79546404D01*
X93660190Y-79641642D01*
X93660190Y-80022595D01*
X93469714Y-78594023D02*
X94136380Y-78594023D01*
X93088761Y-78832119D02*
X93803047Y-79070214D01*
X93803047Y-78451166D01*
X89056380Y-79414666D02*
X88580190Y-79748000D01*
X89056380Y-79986095D02*
X88056380Y-79986095D01*
X88056380Y-79605142D01*
X88104000Y-79509904D01*
X88151619Y-79462285D01*
X88246857Y-79414666D01*
X88389714Y-79414666D01*
X88484952Y-79462285D01*
X88532571Y-79509904D01*
X88580190Y-79605142D01*
X88580190Y-79986095D01*
X88056380Y-78509904D02*
X88056380Y-78986095D01*
X88532571Y-79033714D01*
X88484952Y-78986095D01*
X88437333Y-78890857D01*
X88437333Y-78652761D01*
X88484952Y-78557523D01*
X88532571Y-78509904D01*
X88627809Y-78462285D01*
X88865904Y-78462285D01*
X88961142Y-78509904D01*
X89008761Y-78557523D01*
X89056380Y-78652761D01*
X89056380Y-78890857D01*
X89008761Y-78986095D01*
X88961142Y-79033714D01*
X89056380Y-73790166D02*
X88580190Y-74123500D01*
X89056380Y-74361595D02*
X88056380Y-74361595D01*
X88056380Y-73980642D01*
X88104000Y-73885404D01*
X88151619Y-73837785D01*
X88246857Y-73790166D01*
X88389714Y-73790166D01*
X88484952Y-73837785D01*
X88532571Y-73885404D01*
X88580190Y-73980642D01*
X88580190Y-74361595D01*
X88056380Y-72933023D02*
X88056380Y-73123500D01*
X88104000Y-73218738D01*
X88151619Y-73266357D01*
X88294476Y-73361595D01*
X88484952Y-73409214D01*
X88865904Y-73409214D01*
X88961142Y-73361595D01*
X89008761Y-73313976D01*
X89056380Y-73218738D01*
X89056380Y-73028261D01*
X89008761Y-72933023D01*
X88961142Y-72885404D01*
X88865904Y-72837785D01*
X88627809Y-72837785D01*
X88532571Y-72885404D01*
X88484952Y-72933023D01*
X88437333Y-73028261D01*
X88437333Y-73218738D01*
X88484952Y-73313976D01*
X88532571Y-73361595D01*
X88627809Y-73409214D01*
X89056380Y-68202166D02*
X88580190Y-68535500D01*
X89056380Y-68773595D02*
X88056380Y-68773595D01*
X88056380Y-68392642D01*
X88104000Y-68297404D01*
X88151619Y-68249785D01*
X88246857Y-68202166D01*
X88389714Y-68202166D01*
X88484952Y-68249785D01*
X88532571Y-68297404D01*
X88580190Y-68392642D01*
X88580190Y-68773595D01*
X88056380Y-67868833D02*
X88056380Y-67202166D01*
X89056380Y-67630738D01*
X97776380Y-85547166D02*
X97300190Y-85880500D01*
X97776380Y-86118595D02*
X96776380Y-86118595D01*
X96776380Y-85737642D01*
X96824000Y-85642404D01*
X96871619Y-85594785D01*
X96966857Y-85547166D01*
X97109714Y-85547166D01*
X97204952Y-85594785D01*
X97252571Y-85642404D01*
X97300190Y-85737642D01*
X97300190Y-86118595D01*
X97204952Y-84975738D02*
X97157333Y-85070976D01*
X97109714Y-85118595D01*
X97014476Y-85166214D01*
X96966857Y-85166214D01*
X96871619Y-85118595D01*
X96824000Y-85070976D01*
X96776380Y-84975738D01*
X96776380Y-84785261D01*
X96824000Y-84690023D01*
X96871619Y-84642404D01*
X96966857Y-84594785D01*
X97014476Y-84594785D01*
X97109714Y-84642404D01*
X97157333Y-84690023D01*
X97204952Y-84785261D01*
X97204952Y-84975738D01*
X97252571Y-85070976D01*
X97300190Y-85118595D01*
X97395428Y-85166214D01*
X97585904Y-85166214D01*
X97681142Y-85118595D01*
X97728761Y-85070976D01*
X97776380Y-84975738D01*
X97776380Y-84785261D01*
X97728761Y-84690023D01*
X97681142Y-84642404D01*
X97585904Y-84594785D01*
X97395428Y-84594785D01*
X97300190Y-84642404D01*
X97252571Y-84690023D01*
X97204952Y-84785261D01*
X89056380Y-85474166D02*
X88580190Y-85807500D01*
X89056380Y-86045595D02*
X88056380Y-86045595D01*
X88056380Y-85664642D01*
X88104000Y-85569404D01*
X88151619Y-85521785D01*
X88246857Y-85474166D01*
X88389714Y-85474166D01*
X88484952Y-85521785D01*
X88532571Y-85569404D01*
X88580190Y-85664642D01*
X88580190Y-86045595D01*
X89056380Y-84997976D02*
X89056380Y-84807500D01*
X89008761Y-84712261D01*
X88961142Y-84664642D01*
X88818285Y-84569404D01*
X88627809Y-84521785D01*
X88246857Y-84521785D01*
X88151619Y-84569404D01*
X88104000Y-84617023D01*
X88056380Y-84712261D01*
X88056380Y-84902738D01*
X88104000Y-84997976D01*
X88151619Y-85045595D01*
X88246857Y-85093214D01*
X88484952Y-85093214D01*
X88580190Y-85045595D01*
X88627809Y-84997976D01*
X88675428Y-84902738D01*
X88675428Y-84712261D01*
X88627809Y-84617023D01*
X88580190Y-84569404D01*
X88484952Y-84521785D01*
X99478904Y-54206380D02*
X99478904Y-53206380D01*
X99717000Y-53206380D01*
X99859857Y-53254000D01*
X99955095Y-53349238D01*
X100002714Y-53444476D01*
X100050333Y-53634952D01*
X100050333Y-53777809D01*
X100002714Y-53968285D01*
X99955095Y-54063523D01*
X99859857Y-54158761D01*
X99717000Y-54206380D01*
X99478904Y-54206380D01*
X101002714Y-54206380D02*
X100431285Y-54206380D01*
X100717000Y-54206380D02*
X100717000Y-53206380D01*
X100621761Y-53349238D01*
X100526523Y-53444476D01*
X100431285Y-53492095D01*
X95414904Y-54206380D02*
X95414904Y-53206380D01*
X95653000Y-53206380D01*
X95795857Y-53254000D01*
X95891095Y-53349238D01*
X95938714Y-53444476D01*
X95986333Y-53634952D01*
X95986333Y-53777809D01*
X95938714Y-53968285D01*
X95891095Y-54063523D01*
X95795857Y-54158761D01*
X95653000Y-54206380D01*
X95414904Y-54206380D01*
X96319666Y-53206380D02*
X96938714Y-53206380D01*
X96605380Y-53587333D01*
X96748238Y-53587333D01*
X96843476Y-53634952D01*
X96891095Y-53682571D01*
X96938714Y-53777809D01*
X96938714Y-54015904D01*
X96891095Y-54111142D01*
X96843476Y-54158761D01*
X96748238Y-54206380D01*
X96462523Y-54206380D01*
X96367285Y-54158761D01*
X96319666Y-54111142D01*
X91209904Y-54206380D02*
X91209904Y-53206380D01*
X91448000Y-53206380D01*
X91590857Y-53254000D01*
X91686095Y-53349238D01*
X91733714Y-53444476D01*
X91781333Y-53634952D01*
X91781333Y-53777809D01*
X91733714Y-53968285D01*
X91686095Y-54063523D01*
X91590857Y-54158761D01*
X91448000Y-54206380D01*
X91209904Y-54206380D01*
X92638476Y-53539714D02*
X92638476Y-54206380D01*
X92400380Y-53158761D02*
X92162285Y-53873047D01*
X92781333Y-53873047D01*
X91350904Y-58270380D02*
X91350904Y-57270380D01*
X91589000Y-57270380D01*
X91731857Y-57318000D01*
X91827095Y-57413238D01*
X91874714Y-57508476D01*
X91922333Y-57698952D01*
X91922333Y-57841809D01*
X91874714Y-58032285D01*
X91827095Y-58127523D01*
X91731857Y-58222761D01*
X91589000Y-58270380D01*
X91350904Y-58270380D01*
X92827095Y-57270380D02*
X92350904Y-57270380D01*
X92303285Y-57746571D01*
X92350904Y-57698952D01*
X92446142Y-57651333D01*
X92684238Y-57651333D01*
X92779476Y-57698952D01*
X92827095Y-57746571D01*
X92874714Y-57841809D01*
X92874714Y-58079904D01*
X92827095Y-58175142D01*
X92779476Y-58222761D01*
X92684238Y-58270380D01*
X92446142Y-58270380D01*
X92350904Y-58222761D01*
X92303285Y-58175142D01*
X91209904Y-62334380D02*
X91209904Y-61334380D01*
X91448000Y-61334380D01*
X91590857Y-61382000D01*
X91686095Y-61477238D01*
X91733714Y-61572476D01*
X91781333Y-61762952D01*
X91781333Y-61905809D01*
X91733714Y-62096285D01*
X91686095Y-62191523D01*
X91590857Y-62286761D01*
X91448000Y-62334380D01*
X91209904Y-62334380D01*
X92638476Y-61334380D02*
X92448000Y-61334380D01*
X92352761Y-61382000D01*
X92305142Y-61429619D01*
X92209904Y-61572476D01*
X92162285Y-61762952D01*
X92162285Y-62143904D01*
X92209904Y-62239142D01*
X92257523Y-62286761D01*
X92352761Y-62334380D01*
X92543238Y-62334380D01*
X92638476Y-62286761D01*
X92686095Y-62239142D01*
X92733714Y-62143904D01*
X92733714Y-61905809D01*
X92686095Y-61810571D01*
X92638476Y-61762952D01*
X92543238Y-61715333D01*
X92352761Y-61715333D01*
X92257523Y-61762952D01*
X92209904Y-61810571D01*
X92162285Y-61905809D01*
X130870404Y-77372380D02*
X130870404Y-76372380D01*
X131108500Y-76372380D01*
X131251357Y-76420000D01*
X131346595Y-76515238D01*
X131394214Y-76610476D01*
X131441833Y-76800952D01*
X131441833Y-76943809D01*
X131394214Y-77134285D01*
X131346595Y-77229523D01*
X131251357Y-77324761D01*
X131108500Y-77372380D01*
X130870404Y-77372380D01*
X132013261Y-76800952D02*
X131918023Y-76753333D01*
X131870404Y-76705714D01*
X131822785Y-76610476D01*
X131822785Y-76562857D01*
X131870404Y-76467619D01*
X131918023Y-76420000D01*
X132013261Y-76372380D01*
X132203738Y-76372380D01*
X132298976Y-76420000D01*
X132346595Y-76467619D01*
X132394214Y-76562857D01*
X132394214Y-76610476D01*
X132346595Y-76705714D01*
X132298976Y-76753333D01*
X132203738Y-76800952D01*
X132013261Y-76800952D01*
X131918023Y-76848571D01*
X131870404Y-76896190D01*
X131822785Y-76991428D01*
X131822785Y-77181904D01*
X131870404Y-77277142D01*
X131918023Y-77324761D01*
X132013261Y-77372380D01*
X132203738Y-77372380D01*
X132298976Y-77324761D01*
X132346595Y-77277142D01*
X132394214Y-77181904D01*
X132394214Y-76991428D01*
X132346595Y-76896190D01*
X132298976Y-76848571D01*
X132203738Y-76800952D01*
X92964095Y-89440380D02*
X92964095Y-90249904D01*
X93011714Y-90345142D01*
X93059333Y-90392761D01*
X93154571Y-90440380D01*
X93345047Y-90440380D01*
X93440285Y-90392761D01*
X93487904Y-90345142D01*
X93535523Y-90249904D01*
X93535523Y-89440380D01*
X94487904Y-89440380D02*
X94011714Y-89440380D01*
X93964095Y-89916571D01*
X94011714Y-89868952D01*
X94106952Y-89821333D01*
X94345047Y-89821333D01*
X94440285Y-89868952D01*
X94487904Y-89916571D01*
X94535523Y-90011809D01*
X94535523Y-90249904D01*
X94487904Y-90345142D01*
X94440285Y-90392761D01*
X94345047Y-90440380D01*
X94106952Y-90440380D01*
X94011714Y-90392761D01*
X93964095Y-90345142D01*
X105892333Y-87639142D02*
X105844714Y-87686761D01*
X105701857Y-87734380D01*
X105606619Y-87734380D01*
X105463761Y-87686761D01*
X105368523Y-87591523D01*
X105320904Y-87496285D01*
X105273285Y-87305809D01*
X105273285Y-87162952D01*
X105320904Y-86972476D01*
X105368523Y-86877238D01*
X105463761Y-86782000D01*
X105606619Y-86734380D01*
X105701857Y-86734380D01*
X105844714Y-86782000D01*
X105892333Y-86829619D01*
X106225666Y-86734380D02*
X106892333Y-86734380D01*
X106463761Y-87734380D01*
X101687333Y-84779142D02*
X101639714Y-84826761D01*
X101496857Y-84874380D01*
X101401619Y-84874380D01*
X101258761Y-84826761D01*
X101163523Y-84731523D01*
X101115904Y-84636285D01*
X101068285Y-84445809D01*
X101068285Y-84302952D01*
X101115904Y-84112476D01*
X101163523Y-84017238D01*
X101258761Y-83922000D01*
X101401619Y-83874380D01*
X101496857Y-83874380D01*
X101639714Y-83922000D01*
X101687333Y-83969619D01*
X102258761Y-84302952D02*
X102163523Y-84255333D01*
X102115904Y-84207714D01*
X102068285Y-84112476D01*
X102068285Y-84064857D01*
X102115904Y-83969619D01*
X102163523Y-83922000D01*
X102258761Y-83874380D01*
X102449238Y-83874380D01*
X102544476Y-83922000D01*
X102592095Y-83969619D01*
X102639714Y-84064857D01*
X102639714Y-84112476D01*
X102592095Y-84207714D01*
X102544476Y-84255333D01*
X102449238Y-84302952D01*
X102258761Y-84302952D01*
X102163523Y-84350571D01*
X102115904Y-84398190D01*
X102068285Y-84493428D01*
X102068285Y-84683904D01*
X102115904Y-84779142D01*
X102163523Y-84826761D01*
X102258761Y-84874380D01*
X102449238Y-84874380D01*
X102544476Y-84826761D01*
X102592095Y-84779142D01*
X102639714Y-84683904D01*
X102639714Y-84493428D01*
X102592095Y-84398190D01*
X102544476Y-84350571D01*
X102449238Y-84302952D01*
X99914214Y-97692380D02*
X99914214Y-96692380D01*
X100152309Y-96692380D01*
X100295166Y-96740000D01*
X100390404Y-96835238D01*
X100438023Y-96930476D01*
X100485642Y-97120952D01*
X100485642Y-97263809D01*
X100438023Y-97454285D01*
X100390404Y-97549523D01*
X100295166Y-97644761D01*
X100152309Y-97692380D01*
X99914214Y-97692380D01*
X101438023Y-97692380D02*
X100866595Y-97692380D01*
X101152309Y-97692380D02*
X101152309Y-96692380D01*
X101057071Y-96835238D01*
X100961833Y-96930476D01*
X100866595Y-96978095D01*
X102057071Y-96692380D02*
X102152309Y-96692380D01*
X102247547Y-96740000D01*
X102295166Y-96787619D01*
X102342785Y-96882857D01*
X102390404Y-97073333D01*
X102390404Y-97311428D01*
X102342785Y-97501904D01*
X102295166Y-97597142D01*
X102247547Y-97644761D01*
X102152309Y-97692380D01*
X102057071Y-97692380D01*
X101961833Y-97644761D01*
X101914214Y-97597142D01*
X101866595Y-97501904D01*
X101818976Y-97311428D01*
X101818976Y-97073333D01*
X101866595Y-96882857D01*
X101914214Y-96787619D01*
X101961833Y-96740000D01*
X102057071Y-96692380D01*
X103024666Y-89870380D02*
X103024666Y-90584666D01*
X102977047Y-90727523D01*
X102881809Y-90822761D01*
X102738952Y-90870380D01*
X102643714Y-90870380D01*
X103929428Y-90203714D02*
X103929428Y-90870380D01*
X103691333Y-89822761D02*
X103453238Y-90537047D01*
X104072285Y-90537047D01*
X126987395Y-94080080D02*
X126987395Y-94889604D01*
X127035014Y-94984842D01*
X127082633Y-95032461D01*
X127177871Y-95080080D01*
X127368347Y-95080080D01*
X127463585Y-95032461D01*
X127511204Y-94984842D01*
X127558823Y-94889604D01*
X127558823Y-94080080D01*
X128463585Y-94413414D02*
X128463585Y-95080080D01*
X128225490Y-94032461D02*
X127987395Y-94746747D01*
X128606442Y-94746747D01*
X110509947Y-87592780D02*
X110843280Y-88592780D01*
X111176614Y-87592780D01*
X111700423Y-87592780D02*
X111890900Y-87592780D01*
X111986138Y-87640400D01*
X112081376Y-87735638D01*
X112128995Y-87926114D01*
X112128995Y-88259447D01*
X112081376Y-88449923D01*
X111986138Y-88545161D01*
X111890900Y-88592780D01*
X111700423Y-88592780D01*
X111605185Y-88545161D01*
X111509947Y-88449923D01*
X111462328Y-88259447D01*
X111462328Y-87926114D01*
X111509947Y-87735638D01*
X111605185Y-87640400D01*
X111700423Y-87592780D01*
X112557566Y-87592780D02*
X112557566Y-88402304D01*
X112605185Y-88497542D01*
X112652804Y-88545161D01*
X112748042Y-88592780D01*
X112938519Y-88592780D01*
X113033757Y-88545161D01*
X113081376Y-88497542D01*
X113128995Y-88402304D01*
X113128995Y-87592780D01*
X113462328Y-87592780D02*
X114033757Y-87592780D01*
X113748042Y-88592780D02*
X113748042Y-87592780D01*
X114367090Y-88211828D02*
X115128995Y-88211828D01*
X114748042Y-88592780D02*
X114748042Y-87830876D01*
X142676614Y-100592780D02*
X143009947Y-101592780D01*
X143343280Y-100592780D01*
X143676614Y-101592780D02*
X143676614Y-100592780D01*
X144152804Y-101592780D02*
X144152804Y-100592780D01*
X144724233Y-101592780D01*
X144724233Y-100592780D01*
X145200423Y-101211828D02*
X145962328Y-101211828D01*
X142676614Y-87592780D02*
X143009947Y-88592780D01*
X143343280Y-87592780D01*
X143676614Y-88592780D02*
X143676614Y-87592780D01*
X144152804Y-88592780D02*
X144152804Y-87592780D01*
X144724233Y-88592780D01*
X144724233Y-87592780D01*
X145200423Y-88211828D02*
X145962328Y-88211828D01*
X145581376Y-88592780D02*
X145581376Y-87830876D01*
X110509947Y-100592780D02*
X110843280Y-101592780D01*
X111176614Y-100592780D01*
X111700423Y-100592780D02*
X111890900Y-100592780D01*
X111986138Y-100640400D01*
X112081376Y-100735638D01*
X112128995Y-100926114D01*
X112128995Y-101259447D01*
X112081376Y-101449923D01*
X111986138Y-101545161D01*
X111890900Y-101592780D01*
X111700423Y-101592780D01*
X111605185Y-101545161D01*
X111509947Y-101449923D01*
X111462328Y-101259447D01*
X111462328Y-100926114D01*
X111509947Y-100735638D01*
X111605185Y-100640400D01*
X111700423Y-100592780D01*
X112557566Y-100592780D02*
X112557566Y-101402304D01*
X112605185Y-101497542D01*
X112652804Y-101545161D01*
X112748042Y-101592780D01*
X112938519Y-101592780D01*
X113033757Y-101545161D01*
X113081376Y-101497542D01*
X113128995Y-101402304D01*
X113128995Y-100592780D01*
X113462328Y-100592780D02*
X114033757Y-100592780D01*
X113748042Y-101592780D02*
X113748042Y-100592780D01*
X114367090Y-101211828D02*
X115128995Y-101211828D01*
M02*
