G04 #@! TF.GenerationSoftware,KiCad,Pcbnew,5.1.5+dfsg1-2build2*
G04 #@! TF.CreationDate,2021-12-16T07:29:40-05:00*
G04 #@! TF.ProjectId,schematics,73636865-6d61-4746-9963-732e6b696361,rev?*
G04 #@! TF.SameCoordinates,Original*
G04 #@! TF.FileFunction,Soldermask,Bot*
G04 #@! TF.FilePolarity,Negative*
%FSLAX46Y46*%
G04 Gerber Fmt 4.6, Leading zero omitted, Abs format (unit mm)*
G04 Created by KiCad (PCBNEW 5.1.5+dfsg1-2build2) date 2021-12-16 07:29:40*
%MOMM*%
%LPD*%
G04 APERTURE LIST*
%ADD10C,0.100000*%
G04 APERTURE END LIST*
D10*
G36*
X150416585Y-179834802D02*
G01*
X150566410Y-179864604D01*
X150848674Y-179981521D01*
X151102705Y-180151259D01*
X151318741Y-180367295D01*
X151488479Y-180621326D01*
X151605396Y-180903590D01*
X151665000Y-181203240D01*
X151665000Y-181508760D01*
X151605396Y-181808410D01*
X151488479Y-182090674D01*
X151318741Y-182344705D01*
X151102705Y-182560741D01*
X150848674Y-182730479D01*
X150566410Y-182847396D01*
X150416585Y-182877198D01*
X150266761Y-182907000D01*
X149961239Y-182907000D01*
X149811415Y-182877198D01*
X149661590Y-182847396D01*
X149379326Y-182730479D01*
X149125295Y-182560741D01*
X148909259Y-182344705D01*
X148739521Y-182090674D01*
X148622604Y-181808410D01*
X148563000Y-181508760D01*
X148563000Y-181203240D01*
X148622604Y-180903590D01*
X148739521Y-180621326D01*
X148909259Y-180367295D01*
X149125295Y-180151259D01*
X149379326Y-179981521D01*
X149661590Y-179864604D01*
X149811415Y-179834802D01*
X149961239Y-179805000D01*
X150266761Y-179805000D01*
X150416585Y-179834802D01*
G37*
G36*
X87932585Y-179834802D02*
G01*
X88082410Y-179864604D01*
X88364674Y-179981521D01*
X88618705Y-180151259D01*
X88834741Y-180367295D01*
X89004479Y-180621326D01*
X89121396Y-180903590D01*
X89181000Y-181203240D01*
X89181000Y-181508760D01*
X89121396Y-181808410D01*
X89004479Y-182090674D01*
X88834741Y-182344705D01*
X88618705Y-182560741D01*
X88364674Y-182730479D01*
X88082410Y-182847396D01*
X87932585Y-182877198D01*
X87782761Y-182907000D01*
X87477239Y-182907000D01*
X87327415Y-182877198D01*
X87177590Y-182847396D01*
X86895326Y-182730479D01*
X86641295Y-182560741D01*
X86425259Y-182344705D01*
X86255521Y-182090674D01*
X86138604Y-181808410D01*
X86079000Y-181508760D01*
X86079000Y-181203240D01*
X86138604Y-180903590D01*
X86255521Y-180621326D01*
X86425259Y-180367295D01*
X86641295Y-180151259D01*
X86895326Y-179981521D01*
X87177590Y-179864604D01*
X87327415Y-179834802D01*
X87477239Y-179805000D01*
X87782761Y-179805000D01*
X87932585Y-179834802D01*
G37*
G36*
X144165766Y-178879899D02*
G01*
X144297888Y-178934626D01*
X144297890Y-178934627D01*
X144416798Y-179014079D01*
X144517921Y-179115202D01*
X144517922Y-179115204D01*
X144597374Y-179234112D01*
X144652101Y-179366234D01*
X144680000Y-179506494D01*
X144680000Y-179649506D01*
X144652101Y-179789766D01*
X144597374Y-179921888D01*
X144597373Y-179921890D01*
X144517921Y-180040798D01*
X144416798Y-180141921D01*
X144297890Y-180221373D01*
X144297889Y-180221374D01*
X144297888Y-180221374D01*
X144165766Y-180276101D01*
X144025506Y-180304000D01*
X143882494Y-180304000D01*
X143742234Y-180276101D01*
X143610112Y-180221374D01*
X143610111Y-180221374D01*
X143610110Y-180221373D01*
X143491202Y-180141921D01*
X143390079Y-180040798D01*
X143310627Y-179921890D01*
X143310626Y-179921888D01*
X143255899Y-179789766D01*
X143228000Y-179649506D01*
X143228000Y-179506494D01*
X143255899Y-179366234D01*
X143310626Y-179234112D01*
X143390078Y-179115204D01*
X143390079Y-179115202D01*
X143491202Y-179014079D01*
X143610110Y-178934627D01*
X143610112Y-178934626D01*
X143742234Y-178879899D01*
X143882494Y-178852000D01*
X144025506Y-178852000D01*
X144165766Y-178879899D01*
G37*
G36*
X142165766Y-178879899D02*
G01*
X142297888Y-178934626D01*
X142297890Y-178934627D01*
X142416798Y-179014079D01*
X142517921Y-179115202D01*
X142517922Y-179115204D01*
X142597374Y-179234112D01*
X142652101Y-179366234D01*
X142680000Y-179506494D01*
X142680000Y-179649506D01*
X142652101Y-179789766D01*
X142597374Y-179921888D01*
X142597373Y-179921890D01*
X142517921Y-180040798D01*
X142416798Y-180141921D01*
X142297890Y-180221373D01*
X142297889Y-180221374D01*
X142297888Y-180221374D01*
X142165766Y-180276101D01*
X142025506Y-180304000D01*
X141882494Y-180304000D01*
X141742234Y-180276101D01*
X141610112Y-180221374D01*
X141610111Y-180221374D01*
X141610110Y-180221373D01*
X141491202Y-180141921D01*
X141390079Y-180040798D01*
X141310627Y-179921890D01*
X141310626Y-179921888D01*
X141255899Y-179789766D01*
X141228000Y-179649506D01*
X141228000Y-179506494D01*
X141255899Y-179366234D01*
X141310626Y-179234112D01*
X141390078Y-179115204D01*
X141390079Y-179115202D01*
X141491202Y-179014079D01*
X141610110Y-178934627D01*
X141610112Y-178934626D01*
X141742234Y-178879899D01*
X141882494Y-178852000D01*
X142025506Y-178852000D01*
X142165766Y-178879899D01*
G37*
G36*
X140680000Y-180304000D02*
G01*
X139228000Y-180304000D01*
X139228000Y-178852000D01*
X140680000Y-178852000D01*
X140680000Y-180304000D01*
G37*
G36*
X134822564Y-174431389D02*
G01*
X135013833Y-174510615D01*
X135013835Y-174510616D01*
X135185973Y-174625635D01*
X135332365Y-174772027D01*
X135447385Y-174944167D01*
X135526611Y-175135436D01*
X135567000Y-175338484D01*
X135567000Y-175545516D01*
X135526611Y-175748564D01*
X135447385Y-175939833D01*
X135447384Y-175939835D01*
X135332365Y-176111973D01*
X135185973Y-176258365D01*
X135013835Y-176373384D01*
X135013834Y-176373385D01*
X135013833Y-176373385D01*
X134822564Y-176452611D01*
X134619516Y-176493000D01*
X134412484Y-176493000D01*
X134209436Y-176452611D01*
X134018167Y-176373385D01*
X134018166Y-176373385D01*
X134018165Y-176373384D01*
X133846027Y-176258365D01*
X133699635Y-176111973D01*
X133584616Y-175939835D01*
X133584615Y-175939833D01*
X133505389Y-175748564D01*
X133465000Y-175545516D01*
X133465000Y-175338484D01*
X133505389Y-175135436D01*
X133584615Y-174944167D01*
X133699635Y-174772027D01*
X133846027Y-174625635D01*
X134018165Y-174510616D01*
X134018167Y-174510615D01*
X134209436Y-174431389D01*
X134412484Y-174391000D01*
X134619516Y-174391000D01*
X134822564Y-174431389D01*
G37*
G36*
X128322564Y-174431389D02*
G01*
X128513833Y-174510615D01*
X128513835Y-174510616D01*
X128685973Y-174625635D01*
X128832365Y-174772027D01*
X128947385Y-174944167D01*
X129026611Y-175135436D01*
X129067000Y-175338484D01*
X129067000Y-175545516D01*
X129026611Y-175748564D01*
X128947385Y-175939833D01*
X128947384Y-175939835D01*
X128832365Y-176111973D01*
X128685973Y-176258365D01*
X128513835Y-176373384D01*
X128513834Y-176373385D01*
X128513833Y-176373385D01*
X128322564Y-176452611D01*
X128119516Y-176493000D01*
X127912484Y-176493000D01*
X127709436Y-176452611D01*
X127518167Y-176373385D01*
X127518166Y-176373385D01*
X127518165Y-176373384D01*
X127346027Y-176258365D01*
X127199635Y-176111973D01*
X127084616Y-175939835D01*
X127084615Y-175939833D01*
X127005389Y-175748564D01*
X126965000Y-175545516D01*
X126965000Y-175338484D01*
X127005389Y-175135436D01*
X127084615Y-174944167D01*
X127199635Y-174772027D01*
X127346027Y-174625635D01*
X127518165Y-174510616D01*
X127518167Y-174510615D01*
X127709436Y-174431389D01*
X127912484Y-174391000D01*
X128119516Y-174391000D01*
X128322564Y-174431389D01*
G37*
G36*
X88538600Y-171822989D02*
G01*
X88571652Y-171833015D01*
X88602103Y-171849292D01*
X88628799Y-171871201D01*
X88650708Y-171897897D01*
X88666985Y-171928348D01*
X88677011Y-171961400D01*
X88681000Y-172001903D01*
X88681000Y-173438097D01*
X88677011Y-173478600D01*
X88666985Y-173511652D01*
X88650708Y-173542103D01*
X88628799Y-173568799D01*
X88602103Y-173590708D01*
X88571652Y-173606985D01*
X88538600Y-173617011D01*
X88498097Y-173621000D01*
X86761903Y-173621000D01*
X86721400Y-173617011D01*
X86688348Y-173606985D01*
X86657897Y-173590708D01*
X86631201Y-173568799D01*
X86609292Y-173542103D01*
X86593015Y-173511652D01*
X86582989Y-173478600D01*
X86579000Y-173438097D01*
X86579000Y-172001903D01*
X86582989Y-171961400D01*
X86593015Y-171928348D01*
X86609292Y-171897897D01*
X86631201Y-171871201D01*
X86657897Y-171849292D01*
X86688348Y-171833015D01*
X86721400Y-171822989D01*
X86761903Y-171819000D01*
X88498097Y-171819000D01*
X88538600Y-171822989D01*
G37*
G36*
X143392626Y-171428037D02*
G01*
X143562465Y-171479557D01*
X143562467Y-171479558D01*
X143718989Y-171563221D01*
X143856186Y-171675814D01*
X143921477Y-171755373D01*
X143968778Y-171813009D01*
X144052443Y-171969534D01*
X144103963Y-172139373D01*
X144117000Y-172271742D01*
X144117000Y-172660257D01*
X144103963Y-172792626D01*
X144052443Y-172962466D01*
X143968778Y-173118991D01*
X143952570Y-173138740D01*
X143856186Y-173256186D01*
X143761250Y-173334097D01*
X143718991Y-173368778D01*
X143562466Y-173452443D01*
X143392627Y-173503963D01*
X143216000Y-173521359D01*
X143039374Y-173503963D01*
X142869535Y-173452443D01*
X142713010Y-173368778D01*
X142575815Y-173256185D01*
X142463222Y-173118991D01*
X142379557Y-172962466D01*
X142328037Y-172792627D01*
X142315000Y-172660258D01*
X142315000Y-172271743D01*
X142328037Y-172139374D01*
X142379557Y-171969535D01*
X142401572Y-171928348D01*
X142463221Y-171813011D01*
X142575814Y-171675814D01*
X142685822Y-171585534D01*
X142713009Y-171563222D01*
X142865729Y-171481591D01*
X142869532Y-171479558D01*
X142869534Y-171479557D01*
X143039373Y-171428037D01*
X143216000Y-171410641D01*
X143392626Y-171428037D01*
G37*
G36*
X141474600Y-171418989D02*
G01*
X141507652Y-171429015D01*
X141538103Y-171445292D01*
X141564799Y-171467201D01*
X141586708Y-171493897D01*
X141602985Y-171524348D01*
X141613011Y-171557400D01*
X141617000Y-171597903D01*
X141617000Y-173334097D01*
X141613011Y-173374600D01*
X141602985Y-173407652D01*
X141586708Y-173438103D01*
X141564799Y-173464799D01*
X141538103Y-173486708D01*
X141507652Y-173502985D01*
X141474600Y-173513011D01*
X141434097Y-173517000D01*
X139997903Y-173517000D01*
X139957400Y-173513011D01*
X139924348Y-173502985D01*
X139893897Y-173486708D01*
X139867201Y-173464799D01*
X139845292Y-173438103D01*
X139829015Y-173407652D01*
X139818989Y-173374600D01*
X139815000Y-173334097D01*
X139815000Y-171597903D01*
X139818989Y-171557400D01*
X139829015Y-171524348D01*
X139845292Y-171493897D01*
X139867201Y-171467201D01*
X139893897Y-171445292D01*
X139924348Y-171429015D01*
X139957400Y-171418989D01*
X139997903Y-171415000D01*
X141434097Y-171415000D01*
X141474600Y-171418989D01*
G37*
G36*
X107293043Y-170392604D02*
G01*
X107544410Y-170442604D01*
X107826674Y-170559521D01*
X108080705Y-170729259D01*
X108296741Y-170945295D01*
X108466479Y-171199326D01*
X108583396Y-171481590D01*
X108602690Y-171578589D01*
X108643000Y-171781239D01*
X108643000Y-172086761D01*
X108632534Y-172139375D01*
X108583396Y-172386410D01*
X108466479Y-172668674D01*
X108296741Y-172922705D01*
X108080705Y-173138741D01*
X107826674Y-173308479D01*
X107544410Y-173425396D01*
X107480527Y-173438103D01*
X107244761Y-173485000D01*
X106939239Y-173485000D01*
X106703473Y-173438103D01*
X106639590Y-173425396D01*
X106357326Y-173308479D01*
X106103295Y-173138741D01*
X105887259Y-172922705D01*
X105717521Y-172668674D01*
X105600604Y-172386410D01*
X105551466Y-172139375D01*
X105541000Y-172086761D01*
X105541000Y-171781239D01*
X105581310Y-171578589D01*
X105600604Y-171481590D01*
X105717521Y-171199326D01*
X105887259Y-170945295D01*
X106103295Y-170729259D01*
X106357326Y-170559521D01*
X106639590Y-170442604D01*
X106890957Y-170392604D01*
X106939239Y-170383000D01*
X107244761Y-170383000D01*
X107293043Y-170392604D01*
G37*
G36*
X95344585Y-170362802D02*
G01*
X95494410Y-170392604D01*
X95776674Y-170509521D01*
X96030705Y-170679259D01*
X96246741Y-170895295D01*
X96416479Y-171149326D01*
X96533396Y-171431590D01*
X96551847Y-171524348D01*
X96593000Y-171731239D01*
X96593000Y-172036761D01*
X96563198Y-172186585D01*
X96533396Y-172336410D01*
X96416479Y-172618674D01*
X96246741Y-172872705D01*
X96030705Y-173088741D01*
X95776674Y-173258479D01*
X95494410Y-173375396D01*
X95374608Y-173399226D01*
X95194761Y-173435000D01*
X94889239Y-173435000D01*
X94709392Y-173399226D01*
X94589590Y-173375396D01*
X94307326Y-173258479D01*
X94053295Y-173088741D01*
X93837259Y-172872705D01*
X93667521Y-172618674D01*
X93550604Y-172336410D01*
X93520802Y-172186585D01*
X93491000Y-172036761D01*
X93491000Y-171731239D01*
X93532153Y-171524348D01*
X93550604Y-171431590D01*
X93667521Y-171149326D01*
X93837259Y-170895295D01*
X94053295Y-170679259D01*
X94307326Y-170509521D01*
X94589590Y-170392604D01*
X94739415Y-170362802D01*
X94889239Y-170333000D01*
X95194761Y-170333000D01*
X95344585Y-170362802D01*
G37*
G36*
X150603443Y-171037519D02*
G01*
X150669627Y-171044037D01*
X150839466Y-171095557D01*
X150995991Y-171179222D01*
X151020490Y-171199328D01*
X151133186Y-171291814D01*
X151216448Y-171393271D01*
X151245778Y-171429009D01*
X151329443Y-171585534D01*
X151380963Y-171755373D01*
X151398359Y-171932000D01*
X151380963Y-172108627D01*
X151329443Y-172278466D01*
X151245778Y-172434991D01*
X151216448Y-172470729D01*
X151133186Y-172572186D01*
X151031729Y-172655448D01*
X150995991Y-172684778D01*
X150839466Y-172768443D01*
X150669627Y-172819963D01*
X150603443Y-172826481D01*
X150537260Y-172833000D01*
X150198740Y-172833000D01*
X150132557Y-172826481D01*
X150066373Y-172819963D01*
X149896534Y-172768443D01*
X149740009Y-172684778D01*
X149704271Y-172655448D01*
X149602814Y-172572186D01*
X149519552Y-172470729D01*
X149490222Y-172434991D01*
X149406557Y-172278466D01*
X149355037Y-172108627D01*
X149337641Y-171932000D01*
X149355037Y-171755373D01*
X149406557Y-171585534D01*
X149490222Y-171429009D01*
X149519552Y-171393271D01*
X149602814Y-171291814D01*
X149715510Y-171199328D01*
X149740009Y-171179222D01*
X149896534Y-171095557D01*
X150066373Y-171044037D01*
X150132557Y-171037519D01*
X150198740Y-171031000D01*
X150537260Y-171031000D01*
X150603443Y-171037519D01*
G37*
G36*
X134822564Y-169931389D02*
G01*
X135013833Y-170010615D01*
X135013835Y-170010616D01*
X135062859Y-170043373D01*
X135185973Y-170125635D01*
X135332365Y-170272027D01*
X135447385Y-170444167D01*
X135526611Y-170635436D01*
X135567000Y-170838484D01*
X135567000Y-171045516D01*
X135526611Y-171248564D01*
X135447385Y-171439833D01*
X135447384Y-171439835D01*
X135332365Y-171611973D01*
X135185973Y-171758365D01*
X135013835Y-171873384D01*
X135013834Y-171873385D01*
X135013833Y-171873385D01*
X134822564Y-171952611D01*
X134619516Y-171993000D01*
X134412484Y-171993000D01*
X134209436Y-171952611D01*
X134018167Y-171873385D01*
X134018166Y-171873385D01*
X134018165Y-171873384D01*
X133846027Y-171758365D01*
X133699635Y-171611973D01*
X133584616Y-171439835D01*
X133584615Y-171439833D01*
X133505389Y-171248564D01*
X133465000Y-171045516D01*
X133465000Y-170838484D01*
X133505389Y-170635436D01*
X133584615Y-170444167D01*
X133699635Y-170272027D01*
X133846027Y-170125635D01*
X133969141Y-170043373D01*
X134018165Y-170010616D01*
X134018167Y-170010615D01*
X134209436Y-169931389D01*
X134412484Y-169891000D01*
X134619516Y-169891000D01*
X134822564Y-169931389D01*
G37*
G36*
X128322564Y-169931389D02*
G01*
X128513833Y-170010615D01*
X128513835Y-170010616D01*
X128562859Y-170043373D01*
X128685973Y-170125635D01*
X128832365Y-170272027D01*
X128947385Y-170444167D01*
X129026611Y-170635436D01*
X129067000Y-170838484D01*
X129067000Y-171045516D01*
X129026611Y-171248564D01*
X128947385Y-171439833D01*
X128947384Y-171439835D01*
X128832365Y-171611973D01*
X128685973Y-171758365D01*
X128513835Y-171873384D01*
X128513834Y-171873385D01*
X128513833Y-171873385D01*
X128322564Y-171952611D01*
X128119516Y-171993000D01*
X127912484Y-171993000D01*
X127709436Y-171952611D01*
X127518167Y-171873385D01*
X127518166Y-171873385D01*
X127518165Y-171873384D01*
X127346027Y-171758365D01*
X127199635Y-171611973D01*
X127084616Y-171439835D01*
X127084615Y-171439833D01*
X127005389Y-171248564D01*
X126965000Y-171045516D01*
X126965000Y-170838484D01*
X127005389Y-170635436D01*
X127084615Y-170444167D01*
X127199635Y-170272027D01*
X127346027Y-170125635D01*
X127469141Y-170043373D01*
X127518165Y-170010616D01*
X127518167Y-170010615D01*
X127709436Y-169931389D01*
X127912484Y-169891000D01*
X128119516Y-169891000D01*
X128322564Y-169931389D01*
G37*
G36*
X87890442Y-169325518D02*
G01*
X87956627Y-169332037D01*
X88126466Y-169383557D01*
X88282991Y-169467222D01*
X88318729Y-169496552D01*
X88420186Y-169579814D01*
X88503448Y-169681271D01*
X88532778Y-169717009D01*
X88616443Y-169873534D01*
X88667963Y-170043373D01*
X88685359Y-170220000D01*
X88667963Y-170396627D01*
X88616443Y-170566466D01*
X88532778Y-170722991D01*
X88527633Y-170729260D01*
X88420186Y-170860186D01*
X88318729Y-170943448D01*
X88282991Y-170972778D01*
X88126466Y-171056443D01*
X87956627Y-171107963D01*
X87890443Y-171114481D01*
X87824260Y-171121000D01*
X87435740Y-171121000D01*
X87369557Y-171114481D01*
X87303373Y-171107963D01*
X87133534Y-171056443D01*
X86977009Y-170972778D01*
X86941271Y-170943448D01*
X86839814Y-170860186D01*
X86732367Y-170729260D01*
X86727222Y-170722991D01*
X86643557Y-170566466D01*
X86592037Y-170396627D01*
X86574641Y-170220000D01*
X86592037Y-170043373D01*
X86643557Y-169873534D01*
X86727222Y-169717009D01*
X86756552Y-169681271D01*
X86839814Y-169579814D01*
X86941271Y-169496552D01*
X86977009Y-169467222D01*
X87133534Y-169383557D01*
X87303373Y-169332037D01*
X87369558Y-169325518D01*
X87435740Y-169319000D01*
X87824260Y-169319000D01*
X87890442Y-169325518D01*
G37*
G36*
X150603442Y-168537518D02*
G01*
X150669627Y-168544037D01*
X150839466Y-168595557D01*
X150995991Y-168679222D01*
X151031729Y-168708552D01*
X151133186Y-168791814D01*
X151216448Y-168893271D01*
X151245778Y-168929009D01*
X151329443Y-169085534D01*
X151380963Y-169255373D01*
X151398359Y-169432000D01*
X151380963Y-169608627D01*
X151329443Y-169778466D01*
X151245778Y-169934991D01*
X151216448Y-169970729D01*
X151133186Y-170072186D01*
X151031729Y-170155448D01*
X150995991Y-170184778D01*
X150839466Y-170268443D01*
X150669627Y-170319963D01*
X150603443Y-170326481D01*
X150537260Y-170333000D01*
X150198740Y-170333000D01*
X150132557Y-170326481D01*
X150066373Y-170319963D01*
X149896534Y-170268443D01*
X149740009Y-170184778D01*
X149704271Y-170155448D01*
X149602814Y-170072186D01*
X149519552Y-169970729D01*
X149490222Y-169934991D01*
X149406557Y-169778466D01*
X149355037Y-169608627D01*
X149337641Y-169432000D01*
X149355037Y-169255373D01*
X149406557Y-169085534D01*
X149490222Y-168929009D01*
X149519552Y-168893271D01*
X149602814Y-168791814D01*
X149704271Y-168708552D01*
X149740009Y-168679222D01*
X149896534Y-168595557D01*
X150066373Y-168544037D01*
X150132558Y-168537518D01*
X150198740Y-168531000D01*
X150537260Y-168531000D01*
X150603442Y-168537518D01*
G37*
G36*
X150603443Y-166037519D02*
G01*
X150669627Y-166044037D01*
X150839466Y-166095557D01*
X150995991Y-166179222D01*
X151031729Y-166208552D01*
X151133186Y-166291814D01*
X151216448Y-166393271D01*
X151245778Y-166429009D01*
X151329443Y-166585534D01*
X151380963Y-166755373D01*
X151398359Y-166932000D01*
X151380963Y-167108627D01*
X151329443Y-167278466D01*
X151245778Y-167434991D01*
X151216448Y-167470729D01*
X151133186Y-167572186D01*
X151031729Y-167655448D01*
X150995991Y-167684778D01*
X150839466Y-167768443D01*
X150669627Y-167819963D01*
X150603442Y-167826482D01*
X150537260Y-167833000D01*
X150198740Y-167833000D01*
X150132558Y-167826482D01*
X150066373Y-167819963D01*
X149896534Y-167768443D01*
X149740009Y-167684778D01*
X149704271Y-167655448D01*
X149602814Y-167572186D01*
X149519552Y-167470729D01*
X149490222Y-167434991D01*
X149406557Y-167278466D01*
X149355037Y-167108627D01*
X149337641Y-166932000D01*
X149355037Y-166755373D01*
X149406557Y-166585534D01*
X149490222Y-166429009D01*
X149519552Y-166393271D01*
X149602814Y-166291814D01*
X149704271Y-166208552D01*
X149740009Y-166179222D01*
X149896534Y-166095557D01*
X150066373Y-166044037D01*
X150132557Y-166037519D01*
X150198740Y-166031000D01*
X150537260Y-166031000D01*
X150603443Y-166037519D01*
G37*
G36*
X150603443Y-163537519D02*
G01*
X150669627Y-163544037D01*
X150839466Y-163595557D01*
X150995991Y-163679222D01*
X151031729Y-163708552D01*
X151133186Y-163791814D01*
X151216448Y-163893271D01*
X151245778Y-163929009D01*
X151329443Y-164085534D01*
X151380963Y-164255373D01*
X151398359Y-164432000D01*
X151380963Y-164608627D01*
X151329443Y-164778466D01*
X151245778Y-164934991D01*
X151216448Y-164970729D01*
X151133186Y-165072186D01*
X151031729Y-165155448D01*
X150995991Y-165184778D01*
X150839466Y-165268443D01*
X150669627Y-165319963D01*
X150603443Y-165326481D01*
X150537260Y-165333000D01*
X150198740Y-165333000D01*
X150132557Y-165326481D01*
X150066373Y-165319963D01*
X149896534Y-165268443D01*
X149740009Y-165184778D01*
X149704271Y-165155448D01*
X149602814Y-165072186D01*
X149519552Y-164970729D01*
X149490222Y-164934991D01*
X149406557Y-164778466D01*
X149355037Y-164608627D01*
X149337641Y-164432000D01*
X149355037Y-164255373D01*
X149406557Y-164085534D01*
X149490222Y-163929009D01*
X149519552Y-163893271D01*
X149602814Y-163791814D01*
X149704271Y-163708552D01*
X149740009Y-163679222D01*
X149896534Y-163595557D01*
X150066373Y-163544037D01*
X150132557Y-163537519D01*
X150198740Y-163531000D01*
X150537260Y-163531000D01*
X150603443Y-163537519D01*
G37*
G36*
X150603443Y-161037519D02*
G01*
X150669627Y-161044037D01*
X150839466Y-161095557D01*
X150995991Y-161179222D01*
X151031729Y-161208552D01*
X151133186Y-161291814D01*
X151216448Y-161393271D01*
X151245778Y-161429009D01*
X151329443Y-161585534D01*
X151380963Y-161755373D01*
X151398359Y-161932000D01*
X151380963Y-162108627D01*
X151329443Y-162278466D01*
X151245778Y-162434991D01*
X151216448Y-162470729D01*
X151133186Y-162572186D01*
X151042268Y-162646799D01*
X150995991Y-162684778D01*
X150839466Y-162768443D01*
X150669627Y-162819963D01*
X150603443Y-162826481D01*
X150537260Y-162833000D01*
X150198740Y-162833000D01*
X150132557Y-162826481D01*
X150066373Y-162819963D01*
X149896534Y-162768443D01*
X149740009Y-162684778D01*
X149693732Y-162646799D01*
X149602814Y-162572186D01*
X149519552Y-162470729D01*
X149490222Y-162434991D01*
X149406557Y-162278466D01*
X149355037Y-162108627D01*
X149337641Y-161932000D01*
X149355037Y-161755373D01*
X149406557Y-161585534D01*
X149490222Y-161429009D01*
X149519552Y-161393271D01*
X149602814Y-161291814D01*
X149704271Y-161208552D01*
X149740009Y-161179222D01*
X149896534Y-161095557D01*
X150066373Y-161044037D01*
X150132557Y-161037519D01*
X150198740Y-161031000D01*
X150537260Y-161031000D01*
X150603443Y-161037519D01*
G37*
G36*
X88513600Y-160900989D02*
G01*
X88546652Y-160911015D01*
X88577103Y-160927292D01*
X88603799Y-160949201D01*
X88625708Y-160975897D01*
X88641985Y-161006348D01*
X88652011Y-161039400D01*
X88656000Y-161079903D01*
X88656000Y-162516097D01*
X88652011Y-162556600D01*
X88641985Y-162589652D01*
X88625708Y-162620103D01*
X88603799Y-162646799D01*
X88577103Y-162668708D01*
X88546652Y-162684985D01*
X88513600Y-162695011D01*
X88473097Y-162699000D01*
X86786903Y-162699000D01*
X86746400Y-162695011D01*
X86713348Y-162684985D01*
X86682897Y-162668708D01*
X86656201Y-162646799D01*
X86634292Y-162620103D01*
X86618015Y-162589652D01*
X86607989Y-162556600D01*
X86604000Y-162516097D01*
X86604000Y-161079903D01*
X86607989Y-161039400D01*
X86618015Y-161006348D01*
X86634292Y-160975897D01*
X86656201Y-160949201D01*
X86682897Y-160927292D01*
X86713348Y-160911015D01*
X86746400Y-160900989D01*
X86786903Y-160897000D01*
X88473097Y-160897000D01*
X88513600Y-160900989D01*
G37*
G36*
X107421487Y-158432996D02*
G01*
X107658253Y-158531068D01*
X107658255Y-158531069D01*
X107847944Y-158657815D01*
X107871339Y-158673447D01*
X108052553Y-158854661D01*
X108194932Y-159067747D01*
X108293004Y-159304513D01*
X108343000Y-159555861D01*
X108343000Y-159812139D01*
X108293004Y-160063487D01*
X108208108Y-160268443D01*
X108194931Y-160300255D01*
X108052553Y-160513339D01*
X107871339Y-160694553D01*
X107658255Y-160836931D01*
X107658254Y-160836932D01*
X107658253Y-160836932D01*
X107421487Y-160935004D01*
X107170139Y-160985000D01*
X106913861Y-160985000D01*
X106662513Y-160935004D01*
X106425747Y-160836932D01*
X106425746Y-160836932D01*
X106425745Y-160836931D01*
X106212661Y-160694553D01*
X106031447Y-160513339D01*
X105889069Y-160300255D01*
X105875892Y-160268443D01*
X105790996Y-160063487D01*
X105741000Y-159812139D01*
X105741000Y-159555861D01*
X105790996Y-159304513D01*
X105889068Y-159067747D01*
X106031447Y-158854661D01*
X106212661Y-158673447D01*
X106236056Y-158657815D01*
X106425745Y-158531069D01*
X106425747Y-158531068D01*
X106662513Y-158432996D01*
X106913861Y-158383000D01*
X107170139Y-158383000D01*
X107421487Y-158432996D01*
G37*
G36*
X95421487Y-158432996D02*
G01*
X95658253Y-158531068D01*
X95658255Y-158531069D01*
X95847944Y-158657815D01*
X95871339Y-158673447D01*
X96052553Y-158854661D01*
X96194932Y-159067747D01*
X96293004Y-159304513D01*
X96343000Y-159555861D01*
X96343000Y-159812139D01*
X96293004Y-160063487D01*
X96208108Y-160268443D01*
X96194931Y-160300255D01*
X96052553Y-160513339D01*
X95871339Y-160694553D01*
X95658255Y-160836931D01*
X95658254Y-160836932D01*
X95658253Y-160836932D01*
X95421487Y-160935004D01*
X95170139Y-160985000D01*
X94913861Y-160985000D01*
X94662513Y-160935004D01*
X94425747Y-160836932D01*
X94425746Y-160836932D01*
X94425745Y-160836931D01*
X94212661Y-160694553D01*
X94031447Y-160513339D01*
X93889069Y-160300255D01*
X93875892Y-160268443D01*
X93790996Y-160063487D01*
X93741000Y-159812139D01*
X93741000Y-159555861D01*
X93790996Y-159304513D01*
X93889068Y-159067747D01*
X94031447Y-158854661D01*
X94212661Y-158673447D01*
X94236056Y-158657815D01*
X94425745Y-158531069D01*
X94425747Y-158531068D01*
X94662513Y-158432996D01*
X94913861Y-158383000D01*
X95170139Y-158383000D01*
X95421487Y-158432996D01*
G37*
G36*
X150603443Y-158537519D02*
G01*
X150669627Y-158544037D01*
X150839466Y-158595557D01*
X150995991Y-158679222D01*
X151031729Y-158708552D01*
X151133186Y-158791814D01*
X151184762Y-158854661D01*
X151245778Y-158929009D01*
X151329443Y-159085534D01*
X151380963Y-159255373D01*
X151398359Y-159432000D01*
X151380963Y-159608627D01*
X151329443Y-159778466D01*
X151245778Y-159934991D01*
X151216448Y-159970729D01*
X151133186Y-160072186D01*
X151031729Y-160155448D01*
X150995991Y-160184778D01*
X150839466Y-160268443D01*
X150669627Y-160319963D01*
X150603443Y-160326481D01*
X150537260Y-160333000D01*
X150198740Y-160333000D01*
X150132557Y-160326481D01*
X150066373Y-160319963D01*
X149896534Y-160268443D01*
X149740009Y-160184778D01*
X149704271Y-160155448D01*
X149602814Y-160072186D01*
X149519552Y-159970729D01*
X149490222Y-159934991D01*
X149406557Y-159778466D01*
X149355037Y-159608627D01*
X149337641Y-159432000D01*
X149355037Y-159255373D01*
X149406557Y-159085534D01*
X149490222Y-158929009D01*
X149551238Y-158854661D01*
X149602814Y-158791814D01*
X149704271Y-158708552D01*
X149740009Y-158679222D01*
X149896534Y-158595557D01*
X150066373Y-158544037D01*
X150132557Y-158537519D01*
X150198740Y-158531000D01*
X150537260Y-158531000D01*
X150603443Y-158537519D01*
G37*
G36*
X87865443Y-158403519D02*
G01*
X87931627Y-158410037D01*
X88101466Y-158461557D01*
X88257991Y-158545222D01*
X88293729Y-158574552D01*
X88395186Y-158657814D01*
X88478448Y-158759271D01*
X88507778Y-158795009D01*
X88591443Y-158951534D01*
X88642963Y-159121373D01*
X88660359Y-159298000D01*
X88642963Y-159474627D01*
X88591443Y-159644466D01*
X88507778Y-159800991D01*
X88498629Y-159812139D01*
X88395186Y-159938186D01*
X88293729Y-160021448D01*
X88257991Y-160050778D01*
X88101466Y-160134443D01*
X87931627Y-160185963D01*
X87865442Y-160192482D01*
X87799260Y-160199000D01*
X87460740Y-160199000D01*
X87394558Y-160192482D01*
X87328373Y-160185963D01*
X87158534Y-160134443D01*
X87002009Y-160050778D01*
X86966271Y-160021448D01*
X86864814Y-159938186D01*
X86761371Y-159812139D01*
X86752222Y-159800991D01*
X86668557Y-159644466D01*
X86617037Y-159474627D01*
X86599641Y-159298000D01*
X86617037Y-159121373D01*
X86668557Y-158951534D01*
X86752222Y-158795009D01*
X86781552Y-158759271D01*
X86864814Y-158657814D01*
X86966271Y-158574552D01*
X87002009Y-158545222D01*
X87158534Y-158461557D01*
X87328373Y-158410037D01*
X87394557Y-158403519D01*
X87460740Y-158397000D01*
X87799260Y-158397000D01*
X87865443Y-158403519D01*
G37*
G36*
X101394585Y-156212802D02*
G01*
X101544410Y-156242604D01*
X101826674Y-156359521D01*
X102080705Y-156529259D01*
X102296741Y-156745295D01*
X102466479Y-156999326D01*
X102583396Y-157281590D01*
X102643000Y-157581240D01*
X102643000Y-157886760D01*
X102583396Y-158186410D01*
X102466479Y-158468674D01*
X102296741Y-158722705D01*
X102080705Y-158938741D01*
X101826674Y-159108479D01*
X101544410Y-159225396D01*
X101394585Y-159255198D01*
X101244761Y-159285000D01*
X100939239Y-159285000D01*
X100789415Y-159255198D01*
X100639590Y-159225396D01*
X100357326Y-159108479D01*
X100103295Y-158938741D01*
X99887259Y-158722705D01*
X99717521Y-158468674D01*
X99600604Y-158186410D01*
X99541000Y-157886760D01*
X99541000Y-157581240D01*
X99600604Y-157281590D01*
X99717521Y-156999326D01*
X99887259Y-156745295D01*
X100103295Y-156529259D01*
X100357326Y-156359521D01*
X100639590Y-156242604D01*
X100789415Y-156212802D01*
X100939239Y-156183000D01*
X101244761Y-156183000D01*
X101394585Y-156212802D01*
G37*
G36*
X150603443Y-156037519D02*
G01*
X150669627Y-156044037D01*
X150839466Y-156095557D01*
X150995991Y-156179222D01*
X151000594Y-156183000D01*
X151133186Y-156291814D01*
X151216448Y-156393271D01*
X151245778Y-156429009D01*
X151329443Y-156585534D01*
X151380963Y-156755373D01*
X151398359Y-156932000D01*
X151380963Y-157108627D01*
X151329443Y-157278466D01*
X151245778Y-157434991D01*
X151216448Y-157470729D01*
X151133186Y-157572186D01*
X151031729Y-157655448D01*
X150995991Y-157684778D01*
X150839466Y-157768443D01*
X150669627Y-157819963D01*
X150603442Y-157826482D01*
X150537260Y-157833000D01*
X150198740Y-157833000D01*
X150132558Y-157826482D01*
X150066373Y-157819963D01*
X149896534Y-157768443D01*
X149740009Y-157684778D01*
X149704271Y-157655448D01*
X149602814Y-157572186D01*
X149519552Y-157470729D01*
X149490222Y-157434991D01*
X149406557Y-157278466D01*
X149355037Y-157108627D01*
X149337641Y-156932000D01*
X149355037Y-156755373D01*
X149406557Y-156585534D01*
X149490222Y-156429009D01*
X149519552Y-156393271D01*
X149602814Y-156291814D01*
X149735406Y-156183000D01*
X149740009Y-156179222D01*
X149896534Y-156095557D01*
X150066373Y-156044037D01*
X150132557Y-156037519D01*
X150198740Y-156031000D01*
X150537260Y-156031000D01*
X150603443Y-156037519D01*
G37*
G36*
X87865442Y-155903518D02*
G01*
X87931627Y-155910037D01*
X88101466Y-155961557D01*
X88257991Y-156045222D01*
X88293729Y-156074552D01*
X88395186Y-156157814D01*
X88464770Y-156242604D01*
X88507778Y-156295009D01*
X88591443Y-156451534D01*
X88642963Y-156621373D01*
X88660359Y-156798000D01*
X88642963Y-156974627D01*
X88591443Y-157144466D01*
X88507778Y-157300991D01*
X88478448Y-157336729D01*
X88395186Y-157438186D01*
X88293729Y-157521448D01*
X88257991Y-157550778D01*
X88101466Y-157634443D01*
X87931627Y-157685963D01*
X87865442Y-157692482D01*
X87799260Y-157699000D01*
X87460740Y-157699000D01*
X87394558Y-157692482D01*
X87328373Y-157685963D01*
X87158534Y-157634443D01*
X87002009Y-157550778D01*
X86966271Y-157521448D01*
X86864814Y-157438186D01*
X86781552Y-157336729D01*
X86752222Y-157300991D01*
X86668557Y-157144466D01*
X86617037Y-156974627D01*
X86599641Y-156798000D01*
X86617037Y-156621373D01*
X86668557Y-156451534D01*
X86752222Y-156295009D01*
X86795230Y-156242604D01*
X86864814Y-156157814D01*
X86966271Y-156074552D01*
X87002009Y-156045222D01*
X87158534Y-155961557D01*
X87328373Y-155910037D01*
X87394558Y-155903518D01*
X87460740Y-155897000D01*
X87799260Y-155897000D01*
X87865442Y-155903518D01*
G37*
G36*
X151251600Y-153534989D02*
G01*
X151284652Y-153545015D01*
X151315103Y-153561292D01*
X151341799Y-153583201D01*
X151363708Y-153609897D01*
X151379985Y-153640348D01*
X151390011Y-153673400D01*
X151394000Y-153713903D01*
X151394000Y-155150097D01*
X151390011Y-155190600D01*
X151379985Y-155223652D01*
X151363708Y-155254103D01*
X151341799Y-155280799D01*
X151315103Y-155302708D01*
X151284652Y-155318985D01*
X151251600Y-155329011D01*
X151211097Y-155333000D01*
X149524903Y-155333000D01*
X149484400Y-155329011D01*
X149451348Y-155318985D01*
X149420897Y-155302708D01*
X149394201Y-155280799D01*
X149372292Y-155254103D01*
X149356015Y-155223652D01*
X149345989Y-155190600D01*
X149342000Y-155150097D01*
X149342000Y-153713903D01*
X149345989Y-153673400D01*
X149356015Y-153640348D01*
X149372292Y-153609897D01*
X149394201Y-153583201D01*
X149420897Y-153561292D01*
X149451348Y-153545015D01*
X149484400Y-153534989D01*
X149524903Y-153531000D01*
X151211097Y-153531000D01*
X151251600Y-153534989D01*
G37*
G36*
X87865442Y-153403518D02*
G01*
X87931627Y-153410037D01*
X88101466Y-153461557D01*
X88257991Y-153545222D01*
X88277572Y-153561292D01*
X88395186Y-153657814D01*
X88441216Y-153713903D01*
X88507778Y-153795009D01*
X88591443Y-153951534D01*
X88642963Y-154121373D01*
X88660359Y-154298000D01*
X88642963Y-154474627D01*
X88591443Y-154644466D01*
X88507778Y-154800991D01*
X88478448Y-154836729D01*
X88395186Y-154938186D01*
X88293729Y-155021448D01*
X88257991Y-155050778D01*
X88101466Y-155134443D01*
X87931627Y-155185963D01*
X87865442Y-155192482D01*
X87799260Y-155199000D01*
X87460740Y-155199000D01*
X87394558Y-155192482D01*
X87328373Y-155185963D01*
X87158534Y-155134443D01*
X87002009Y-155050778D01*
X86966271Y-155021448D01*
X86864814Y-154938186D01*
X86781552Y-154836729D01*
X86752222Y-154800991D01*
X86668557Y-154644466D01*
X86617037Y-154474627D01*
X86599641Y-154298000D01*
X86617037Y-154121373D01*
X86668557Y-153951534D01*
X86752222Y-153795009D01*
X86818784Y-153713903D01*
X86864814Y-153657814D01*
X86982428Y-153561292D01*
X87002009Y-153545222D01*
X87158534Y-153461557D01*
X87328373Y-153410037D01*
X87394558Y-153403518D01*
X87460740Y-153397000D01*
X87799260Y-153397000D01*
X87865442Y-153403518D01*
G37*
G36*
X95302564Y-152587389D02*
G01*
X95493833Y-152666615D01*
X95493835Y-152666616D01*
X95665973Y-152781635D01*
X95812365Y-152928027D01*
X95927385Y-153100167D01*
X96006611Y-153291436D01*
X96047000Y-153494484D01*
X96047000Y-153701516D01*
X96006611Y-153904564D01*
X95987156Y-153951532D01*
X95927384Y-154095835D01*
X95812365Y-154267973D01*
X95665973Y-154414365D01*
X95493835Y-154529384D01*
X95493834Y-154529385D01*
X95493833Y-154529385D01*
X95302564Y-154608611D01*
X95099516Y-154649000D01*
X94892484Y-154649000D01*
X94689436Y-154608611D01*
X94498167Y-154529385D01*
X94498166Y-154529385D01*
X94498165Y-154529384D01*
X94326027Y-154414365D01*
X94179635Y-154267973D01*
X94064616Y-154095835D01*
X94004844Y-153951532D01*
X93985389Y-153904564D01*
X93945000Y-153701516D01*
X93945000Y-153494484D01*
X93985389Y-153291436D01*
X94064615Y-153100167D01*
X94179635Y-152928027D01*
X94326027Y-152781635D01*
X94498165Y-152666616D01*
X94498167Y-152666615D01*
X94689436Y-152587389D01*
X94892484Y-152547000D01*
X95099516Y-152547000D01*
X95302564Y-152587389D01*
G37*
G36*
X101802564Y-152587389D02*
G01*
X101993833Y-152666615D01*
X101993835Y-152666616D01*
X102165973Y-152781635D01*
X102312365Y-152928027D01*
X102427385Y-153100167D01*
X102506611Y-153291436D01*
X102547000Y-153494484D01*
X102547000Y-153701516D01*
X102506611Y-153904564D01*
X102487156Y-153951532D01*
X102427384Y-154095835D01*
X102312365Y-154267973D01*
X102165973Y-154414365D01*
X101993835Y-154529384D01*
X101993834Y-154529385D01*
X101993833Y-154529385D01*
X101802564Y-154608611D01*
X101599516Y-154649000D01*
X101392484Y-154649000D01*
X101189436Y-154608611D01*
X100998167Y-154529385D01*
X100998166Y-154529385D01*
X100998165Y-154529384D01*
X100826027Y-154414365D01*
X100679635Y-154267973D01*
X100564616Y-154095835D01*
X100504844Y-153951532D01*
X100485389Y-153904564D01*
X100445000Y-153701516D01*
X100445000Y-153494484D01*
X100485389Y-153291436D01*
X100564615Y-153100167D01*
X100679635Y-152928027D01*
X100826027Y-152781635D01*
X100998165Y-152666616D01*
X100998167Y-152666615D01*
X101189436Y-152587389D01*
X101392484Y-152547000D01*
X101599516Y-152547000D01*
X101802564Y-152587389D01*
G37*
G36*
X95302564Y-148087389D02*
G01*
X95493833Y-148166615D01*
X95493835Y-148166616D01*
X95665973Y-148281635D01*
X95812365Y-148428027D01*
X95927385Y-148600167D01*
X96006611Y-148791436D01*
X96047000Y-148994484D01*
X96047000Y-149201516D01*
X96006611Y-149404564D01*
X95927385Y-149595833D01*
X95927384Y-149595835D01*
X95812365Y-149767973D01*
X95665973Y-149914365D01*
X95493835Y-150029384D01*
X95493834Y-150029385D01*
X95493833Y-150029385D01*
X95302564Y-150108611D01*
X95099516Y-150149000D01*
X94892484Y-150149000D01*
X94689436Y-150108611D01*
X94498167Y-150029385D01*
X94498166Y-150029385D01*
X94498165Y-150029384D01*
X94326027Y-149914365D01*
X94179635Y-149767973D01*
X94064616Y-149595835D01*
X94064615Y-149595833D01*
X93985389Y-149404564D01*
X93945000Y-149201516D01*
X93945000Y-148994484D01*
X93985389Y-148791436D01*
X94064615Y-148600167D01*
X94179635Y-148428027D01*
X94326027Y-148281635D01*
X94498165Y-148166616D01*
X94498167Y-148166615D01*
X94689436Y-148087389D01*
X94892484Y-148047000D01*
X95099516Y-148047000D01*
X95302564Y-148087389D01*
G37*
G36*
X101802564Y-148087389D02*
G01*
X101993833Y-148166615D01*
X101993835Y-148166616D01*
X102165973Y-148281635D01*
X102312365Y-148428027D01*
X102427385Y-148600167D01*
X102506611Y-148791436D01*
X102547000Y-148994484D01*
X102547000Y-149201516D01*
X102506611Y-149404564D01*
X102427385Y-149595833D01*
X102427384Y-149595835D01*
X102312365Y-149767973D01*
X102165973Y-149914365D01*
X101993835Y-150029384D01*
X101993834Y-150029385D01*
X101993833Y-150029385D01*
X101802564Y-150108611D01*
X101599516Y-150149000D01*
X101392484Y-150149000D01*
X101189436Y-150108611D01*
X100998167Y-150029385D01*
X100998166Y-150029385D01*
X100998165Y-150029384D01*
X100826027Y-149914365D01*
X100679635Y-149767973D01*
X100564616Y-149595835D01*
X100564615Y-149595833D01*
X100485389Y-149404564D01*
X100445000Y-149201516D01*
X100445000Y-148994484D01*
X100485389Y-148791436D01*
X100564615Y-148600167D01*
X100679635Y-148428027D01*
X100826027Y-148281635D01*
X100998165Y-148166616D01*
X100998167Y-148166615D01*
X101189436Y-148087389D01*
X101392484Y-148047000D01*
X101599516Y-148047000D01*
X101802564Y-148087389D01*
G37*
G36*
X150416585Y-144020802D02*
G01*
X150566410Y-144050604D01*
X150848674Y-144167521D01*
X151102705Y-144337259D01*
X151318741Y-144553295D01*
X151488479Y-144807326D01*
X151605396Y-145089590D01*
X151665000Y-145389240D01*
X151665000Y-145694760D01*
X151605396Y-145994410D01*
X151488479Y-146276674D01*
X151318741Y-146530705D01*
X151102705Y-146746741D01*
X150848674Y-146916479D01*
X150566410Y-147033396D01*
X150416585Y-147063198D01*
X150266761Y-147093000D01*
X149961239Y-147093000D01*
X149811415Y-147063198D01*
X149661590Y-147033396D01*
X149379326Y-146916479D01*
X149125295Y-146746741D01*
X148909259Y-146530705D01*
X148739521Y-146276674D01*
X148622604Y-145994410D01*
X148563000Y-145694760D01*
X148563000Y-145389240D01*
X148622604Y-145089590D01*
X148739521Y-144807326D01*
X148909259Y-144553295D01*
X149125295Y-144337259D01*
X149379326Y-144167521D01*
X149661590Y-144050604D01*
X149811415Y-144020802D01*
X149961239Y-143991000D01*
X150266761Y-143991000D01*
X150416585Y-144020802D01*
G37*
G36*
X87932585Y-144020802D02*
G01*
X88082410Y-144050604D01*
X88364674Y-144167521D01*
X88618705Y-144337259D01*
X88834741Y-144553295D01*
X89004479Y-144807326D01*
X89121396Y-145089590D01*
X89181000Y-145389240D01*
X89181000Y-145694760D01*
X89121396Y-145994410D01*
X89004479Y-146276674D01*
X88834741Y-146530705D01*
X88618705Y-146746741D01*
X88364674Y-146916479D01*
X88082410Y-147033396D01*
X87932585Y-147063198D01*
X87782761Y-147093000D01*
X87477239Y-147093000D01*
X87327415Y-147063198D01*
X87177590Y-147033396D01*
X86895326Y-146916479D01*
X86641295Y-146746741D01*
X86425259Y-146530705D01*
X86255521Y-146276674D01*
X86138604Y-145994410D01*
X86079000Y-145694760D01*
X86079000Y-145389240D01*
X86138604Y-145089590D01*
X86255521Y-144807326D01*
X86425259Y-144553295D01*
X86641295Y-144337259D01*
X86895326Y-144167521D01*
X87177590Y-144050604D01*
X87327415Y-144020802D01*
X87477239Y-143991000D01*
X87782761Y-143991000D01*
X87932585Y-144020802D01*
G37*
M02*
