G04 #@! TF.GenerationSoftware,KiCad,Pcbnew,5.1.5+dfsg1-2build2*
G04 #@! TF.CreationDate,2021-12-16T07:29:40-05:00*
G04 #@! TF.ProjectId,schematics,73636865-6d61-4746-9963-732e6b696361,rev?*
G04 #@! TF.SameCoordinates,Original*
G04 #@! TF.FileFunction,Copper,L2,Bot*
G04 #@! TF.FilePolarity,Positive*
%FSLAX46Y46*%
G04 Gerber Fmt 4.6, Leading zero omitted, Abs format (unit mm)*
G04 Created by KiCad (PCBNEW 5.1.5+dfsg1-2build2) date 2021-12-16 07:29:40*
%MOMM*%
%LPD*%
G04 APERTURE LIST*
%ADD10C,0.100000*%
%ADD11O,1.950000X1.700000*%
%ADD12O,2.000000X1.700000*%
%ADD13O,1.700000X2.000000*%
%ADD14C,2.500000*%
%ADD15C,3.000000*%
%ADD16R,1.350000X1.350000*%
%ADD17O,1.350000X1.350000*%
%ADD18C,2.000000*%
%ADD19C,0.800000*%
%ADD20C,0.250000*%
G04 APERTURE END LIST*
G04 #@! TA.AperFunction,ComponentPad*
D10*
G36*
X151117504Y-153583204D02*
G01*
X151141773Y-153586804D01*
X151165571Y-153592765D01*
X151188671Y-153601030D01*
X151210849Y-153611520D01*
X151231893Y-153624133D01*
X151251598Y-153638747D01*
X151269777Y-153655223D01*
X151286253Y-153673402D01*
X151300867Y-153693107D01*
X151313480Y-153714151D01*
X151323970Y-153736329D01*
X151332235Y-153759429D01*
X151338196Y-153783227D01*
X151341796Y-153807496D01*
X151343000Y-153832000D01*
X151343000Y-155032000D01*
X151341796Y-155056504D01*
X151338196Y-155080773D01*
X151332235Y-155104571D01*
X151323970Y-155127671D01*
X151313480Y-155149849D01*
X151300867Y-155170893D01*
X151286253Y-155190598D01*
X151269777Y-155208777D01*
X151251598Y-155225253D01*
X151231893Y-155239867D01*
X151210849Y-155252480D01*
X151188671Y-155262970D01*
X151165571Y-155271235D01*
X151141773Y-155277196D01*
X151117504Y-155280796D01*
X151093000Y-155282000D01*
X149643000Y-155282000D01*
X149618496Y-155280796D01*
X149594227Y-155277196D01*
X149570429Y-155271235D01*
X149547329Y-155262970D01*
X149525151Y-155252480D01*
X149504107Y-155239867D01*
X149484402Y-155225253D01*
X149466223Y-155208777D01*
X149449747Y-155190598D01*
X149435133Y-155170893D01*
X149422520Y-155149849D01*
X149412030Y-155127671D01*
X149403765Y-155104571D01*
X149397804Y-155080773D01*
X149394204Y-155056504D01*
X149393000Y-155032000D01*
X149393000Y-153832000D01*
X149394204Y-153807496D01*
X149397804Y-153783227D01*
X149403765Y-153759429D01*
X149412030Y-153736329D01*
X149422520Y-153714151D01*
X149435133Y-153693107D01*
X149449747Y-153673402D01*
X149466223Y-153655223D01*
X149484402Y-153638747D01*
X149504107Y-153624133D01*
X149525151Y-153611520D01*
X149547329Y-153601030D01*
X149570429Y-153592765D01*
X149594227Y-153586804D01*
X149618496Y-153583204D01*
X149643000Y-153582000D01*
X151093000Y-153582000D01*
X151117504Y-153583204D01*
G37*
G04 #@! TD.AperFunction*
D11*
X150368000Y-156932000D03*
X150368000Y-159432000D03*
X150368000Y-161932000D03*
X150368000Y-164432000D03*
X150368000Y-166932000D03*
X150368000Y-169432000D03*
X150368000Y-171932000D03*
G04 #@! TA.AperFunction,ComponentPad*
D10*
G36*
X88379504Y-160949204D02*
G01*
X88403773Y-160952804D01*
X88427571Y-160958765D01*
X88450671Y-160967030D01*
X88472849Y-160977520D01*
X88493893Y-160990133D01*
X88513598Y-161004747D01*
X88531777Y-161021223D01*
X88548253Y-161039402D01*
X88562867Y-161059107D01*
X88575480Y-161080151D01*
X88585970Y-161102329D01*
X88594235Y-161125429D01*
X88600196Y-161149227D01*
X88603796Y-161173496D01*
X88605000Y-161198000D01*
X88605000Y-162398000D01*
X88603796Y-162422504D01*
X88600196Y-162446773D01*
X88594235Y-162470571D01*
X88585970Y-162493671D01*
X88575480Y-162515849D01*
X88562867Y-162536893D01*
X88548253Y-162556598D01*
X88531777Y-162574777D01*
X88513598Y-162591253D01*
X88493893Y-162605867D01*
X88472849Y-162618480D01*
X88450671Y-162628970D01*
X88427571Y-162637235D01*
X88403773Y-162643196D01*
X88379504Y-162646796D01*
X88355000Y-162648000D01*
X86905000Y-162648000D01*
X86880496Y-162646796D01*
X86856227Y-162643196D01*
X86832429Y-162637235D01*
X86809329Y-162628970D01*
X86787151Y-162618480D01*
X86766107Y-162605867D01*
X86746402Y-162591253D01*
X86728223Y-162574777D01*
X86711747Y-162556598D01*
X86697133Y-162536893D01*
X86684520Y-162515849D01*
X86674030Y-162493671D01*
X86665765Y-162470571D01*
X86659804Y-162446773D01*
X86656204Y-162422504D01*
X86655000Y-162398000D01*
X86655000Y-161198000D01*
X86656204Y-161173496D01*
X86659804Y-161149227D01*
X86665765Y-161125429D01*
X86674030Y-161102329D01*
X86684520Y-161080151D01*
X86697133Y-161059107D01*
X86711747Y-161039402D01*
X86728223Y-161021223D01*
X86746402Y-161004747D01*
X86766107Y-160990133D01*
X86787151Y-160977520D01*
X86809329Y-160967030D01*
X86832429Y-160958765D01*
X86856227Y-160952804D01*
X86880496Y-160949204D01*
X86905000Y-160948000D01*
X88355000Y-160948000D01*
X88379504Y-160949204D01*
G37*
G04 #@! TD.AperFunction*
D11*
X87630000Y-159298000D03*
X87630000Y-156798000D03*
X87630000Y-154298000D03*
G04 #@! TA.AperFunction,ComponentPad*
D10*
G36*
X88404504Y-171871204D02*
G01*
X88428773Y-171874804D01*
X88452571Y-171880765D01*
X88475671Y-171889030D01*
X88497849Y-171899520D01*
X88518893Y-171912133D01*
X88538598Y-171926747D01*
X88556777Y-171943223D01*
X88573253Y-171961402D01*
X88587867Y-171981107D01*
X88600480Y-172002151D01*
X88610970Y-172024329D01*
X88619235Y-172047429D01*
X88625196Y-172071227D01*
X88628796Y-172095496D01*
X88630000Y-172120000D01*
X88630000Y-173320000D01*
X88628796Y-173344504D01*
X88625196Y-173368773D01*
X88619235Y-173392571D01*
X88610970Y-173415671D01*
X88600480Y-173437849D01*
X88587867Y-173458893D01*
X88573253Y-173478598D01*
X88556777Y-173496777D01*
X88538598Y-173513253D01*
X88518893Y-173527867D01*
X88497849Y-173540480D01*
X88475671Y-173550970D01*
X88452571Y-173559235D01*
X88428773Y-173565196D01*
X88404504Y-173568796D01*
X88380000Y-173570000D01*
X86880000Y-173570000D01*
X86855496Y-173568796D01*
X86831227Y-173565196D01*
X86807429Y-173559235D01*
X86784329Y-173550970D01*
X86762151Y-173540480D01*
X86741107Y-173527867D01*
X86721402Y-173513253D01*
X86703223Y-173496777D01*
X86686747Y-173478598D01*
X86672133Y-173458893D01*
X86659520Y-173437849D01*
X86649030Y-173415671D01*
X86640765Y-173392571D01*
X86634804Y-173368773D01*
X86631204Y-173344504D01*
X86630000Y-173320000D01*
X86630000Y-172120000D01*
X86631204Y-172095496D01*
X86634804Y-172071227D01*
X86640765Y-172047429D01*
X86649030Y-172024329D01*
X86659520Y-172002151D01*
X86672133Y-171981107D01*
X86686747Y-171961402D01*
X86703223Y-171943223D01*
X86721402Y-171926747D01*
X86741107Y-171912133D01*
X86762151Y-171899520D01*
X86784329Y-171889030D01*
X86807429Y-171880765D01*
X86831227Y-171874804D01*
X86855496Y-171871204D01*
X86880000Y-171870000D01*
X88380000Y-171870000D01*
X88404504Y-171871204D01*
G37*
G04 #@! TD.AperFunction*
D12*
X87630000Y-170220000D03*
D13*
X143216000Y-172466000D03*
G04 #@! TA.AperFunction,ComponentPad*
D10*
G36*
X141340504Y-171467204D02*
G01*
X141364773Y-171470804D01*
X141388571Y-171476765D01*
X141411671Y-171485030D01*
X141433849Y-171495520D01*
X141454893Y-171508133D01*
X141474598Y-171522747D01*
X141492777Y-171539223D01*
X141509253Y-171557402D01*
X141523867Y-171577107D01*
X141536480Y-171598151D01*
X141546970Y-171620329D01*
X141555235Y-171643429D01*
X141561196Y-171667227D01*
X141564796Y-171691496D01*
X141566000Y-171716000D01*
X141566000Y-173216000D01*
X141564796Y-173240504D01*
X141561196Y-173264773D01*
X141555235Y-173288571D01*
X141546970Y-173311671D01*
X141536480Y-173333849D01*
X141523867Y-173354893D01*
X141509253Y-173374598D01*
X141492777Y-173392777D01*
X141474598Y-173409253D01*
X141454893Y-173423867D01*
X141433849Y-173436480D01*
X141411671Y-173446970D01*
X141388571Y-173455235D01*
X141364773Y-173461196D01*
X141340504Y-173464796D01*
X141316000Y-173466000D01*
X140116000Y-173466000D01*
X140091496Y-173464796D01*
X140067227Y-173461196D01*
X140043429Y-173455235D01*
X140020329Y-173446970D01*
X139998151Y-173436480D01*
X139977107Y-173423867D01*
X139957402Y-173409253D01*
X139939223Y-173392777D01*
X139922747Y-173374598D01*
X139908133Y-173354893D01*
X139895520Y-173333849D01*
X139885030Y-173311671D01*
X139876765Y-173288571D01*
X139870804Y-173264773D01*
X139867204Y-173240504D01*
X139866000Y-173216000D01*
X139866000Y-171716000D01*
X139867204Y-171691496D01*
X139870804Y-171667227D01*
X139876765Y-171643429D01*
X139885030Y-171620329D01*
X139895520Y-171598151D01*
X139908133Y-171577107D01*
X139922747Y-171557402D01*
X139939223Y-171539223D01*
X139957402Y-171522747D01*
X139977107Y-171508133D01*
X139998151Y-171495520D01*
X140020329Y-171485030D01*
X140043429Y-171476765D01*
X140067227Y-171470804D01*
X140091496Y-171467204D01*
X140116000Y-171466000D01*
X141316000Y-171466000D01*
X141340504Y-171467204D01*
G37*
G04 #@! TD.AperFunction*
D14*
X95042000Y-159684000D03*
D15*
X95042000Y-171884000D03*
X107092000Y-171934000D03*
D14*
X107042000Y-159684000D03*
D15*
X101092000Y-157734000D03*
D16*
X139954000Y-179578000D03*
D17*
X141954000Y-179578000D03*
X143954000Y-179578000D03*
D18*
X101496000Y-149098000D03*
X101496000Y-153598000D03*
X94996000Y-149098000D03*
X94996000Y-153598000D03*
X128016000Y-175442000D03*
X128016000Y-170942000D03*
X134516000Y-175442000D03*
X134516000Y-170942000D03*
D19*
X106934000Y-176276000D03*
X112522000Y-173228000D03*
X100076000Y-183896000D03*
X116078000Y-152400000D03*
X104140000Y-149606000D03*
X121920000Y-145034000D03*
X133350000Y-144780000D03*
X93980000Y-146812000D03*
X121158000Y-161544000D03*
X100076000Y-146050000D03*
X121920000Y-155956000D03*
X142748000Y-146558000D03*
X142748000Y-147828000D03*
X139954000Y-160528000D03*
X94742000Y-165354000D03*
X102362000Y-182880000D03*
X143002000Y-159258000D03*
X143002000Y-144018000D03*
X143002000Y-157988000D03*
X129286000Y-164338000D03*
X129286000Y-163068000D03*
D20*
X106934000Y-176276000D02*
X110744000Y-176276000D01*
X112522000Y-174498000D02*
X112522000Y-173228000D01*
X110744000Y-176276000D02*
X112522000Y-174498000D01*
X99510315Y-183896000D02*
X91440000Y-175825685D01*
X100076000Y-183896000D02*
X99510315Y-183896000D01*
X89885685Y-175825685D02*
X87630000Y-173570000D01*
X87630000Y-173570000D02*
X87630000Y-172720000D01*
X91440000Y-175825685D02*
X89885685Y-175825685D01*
X114326000Y-152400000D02*
X116078000Y-152400000D01*
X107042000Y-159684000D02*
X114326000Y-152400000D01*
X104140000Y-156782000D02*
X107042000Y-159684000D01*
X104140000Y-149606000D02*
X104140000Y-156782000D01*
X133096000Y-145034000D02*
X133350000Y-144780000D01*
X121920000Y-145034000D02*
X133096000Y-145034000D01*
X119634000Y-146812000D02*
X93980000Y-146812000D01*
X121158000Y-148336000D02*
X119634000Y-146812000D01*
X121158000Y-148336000D02*
X121158000Y-161544000D01*
X121920000Y-155956000D02*
X121920000Y-147828000D01*
X120142000Y-146050000D02*
X100076000Y-146050000D01*
X121920000Y-147828000D02*
X120142000Y-146050000D01*
X141281991Y-148024009D02*
X141281991Y-165032401D01*
X142748000Y-146558000D02*
X141281991Y-148024009D01*
X141281991Y-165032401D02*
X144837990Y-168588400D01*
X144837990Y-176022000D02*
X144837990Y-176057600D01*
X144780000Y-173827000D02*
X144780000Y-173482000D01*
X139954000Y-179578000D02*
X139954000Y-178653000D01*
X139954000Y-178653000D02*
X144780000Y-173827000D01*
X144837990Y-168588400D02*
X144780000Y-173482000D01*
X145288000Y-176244000D02*
X141954000Y-179578000D01*
X145288000Y-168402000D02*
X145288000Y-176244000D01*
X141732000Y-164846000D02*
X145288000Y-168402000D01*
X141732000Y-148844000D02*
X141732000Y-164846000D01*
X142748000Y-147828000D02*
X141732000Y-148844000D01*
X127508000Y-160528000D02*
X125418010Y-162617990D01*
X129540000Y-160528000D02*
X127508000Y-160528000D01*
X139954000Y-160528000D02*
X129540000Y-160528000D01*
X129540000Y-160528000D02*
X129286000Y-160528000D01*
X97975990Y-162617990D02*
X95042000Y-159684000D01*
X125418010Y-162617990D02*
X97975990Y-162617990D01*
X102362000Y-182880000D02*
X100330000Y-182880000D01*
X100330000Y-182880000D02*
X100076000Y-182880000D01*
X92202000Y-175768000D02*
X92202000Y-166116000D01*
X92202000Y-166116000D02*
X92964000Y-165354000D01*
X99314000Y-182880000D02*
X92202000Y-175768000D01*
X92964000Y-165354000D02*
X94742000Y-165354000D01*
X100330000Y-182880000D02*
X99314000Y-182880000D01*
X143002000Y-159258000D02*
X145034000Y-159258000D01*
X145034000Y-159258000D02*
X145796000Y-160020000D01*
X145796000Y-160020000D02*
X145796000Y-181864000D01*
X145796000Y-181864000D02*
X145288000Y-182372000D01*
X145288000Y-182372000D02*
X138684000Y-182372000D01*
X134516000Y-178204000D02*
X134516000Y-175442000D01*
X138684000Y-182372000D02*
X134516000Y-178204000D01*
X152400000Y-166125000D02*
X151593000Y-166932000D01*
X152400000Y-153416000D02*
X152400000Y-166125000D01*
X151593000Y-166932000D02*
X150368000Y-166932000D01*
X150876000Y-151892000D02*
X152400000Y-153416000D01*
X147574000Y-151892000D02*
X150876000Y-151892000D01*
X145796000Y-150114000D02*
X147574000Y-151892000D01*
X145796000Y-145796000D02*
X145796000Y-150114000D01*
X144018000Y-144018000D02*
X145796000Y-145796000D01*
X143002000Y-144018000D02*
X144018000Y-144018000D01*
X144058000Y-156932000D02*
X150368000Y-156932000D01*
X143002000Y-157988000D02*
X144058000Y-156932000D01*
X129286000Y-164338000D02*
X128466010Y-163518010D01*
X128466010Y-163518010D02*
X95571599Y-163518009D01*
X91351590Y-159298000D02*
X87630000Y-159298000D01*
X95571599Y-163518009D02*
X91351590Y-159298000D01*
X89488000Y-156798000D02*
X87630000Y-156798000D01*
X95758000Y-163068000D02*
X89488000Y-156798000D01*
X129286000Y-163068000D02*
X95758000Y-163068000D01*
X140716000Y-171466000D02*
X135366000Y-166116000D01*
X140716000Y-172466000D02*
X140716000Y-171466000D01*
X100810000Y-166116000D02*
X95042000Y-171884000D01*
X135366000Y-166116000D02*
X100810000Y-166116000D01*
M02*
