G04 #@! TF.GenerationSoftware,KiCad,Pcbnew,5.1.5+dfsg1-2build2*
G04 #@! TF.CreationDate,2021-12-07T08:31:46-05:00*
G04 #@! TF.ProjectId,schematics,73636865-6d61-4746-9963-732e6b696361,rev?*
G04 #@! TF.SameCoordinates,Original*
G04 #@! TF.FileFunction,Soldermask,Bot*
G04 #@! TF.FilePolarity,Negative*
%FSLAX46Y46*%
G04 Gerber Fmt 4.6, Leading zero omitted, Abs format (unit mm)*
G04 Created by KiCad (PCBNEW 5.1.5+dfsg1-2build2) date 2021-12-07 08:31:46*
%MOMM*%
%LPD*%
G04 APERTURE LIST*
%ADD10C,0.100000*%
G04 APERTURE END LIST*
D10*
G36*
X146941900Y-99691400D02*
G01*
X141839900Y-99691400D01*
X141839900Y-96089400D01*
X146941900Y-96089400D01*
X146941900Y-99691400D01*
G37*
G36*
X114441900Y-99691400D02*
G01*
X109339900Y-99691400D01*
X109339900Y-96089400D01*
X114441900Y-96089400D01*
X114441900Y-99691400D01*
G37*
G36*
X104784626Y-92180037D02*
G01*
X104954465Y-92231557D01*
X104954467Y-92231558D01*
X105110989Y-92315221D01*
X105248186Y-92427814D01*
X105331448Y-92529271D01*
X105360778Y-92565009D01*
X105444443Y-92721534D01*
X105495963Y-92891373D01*
X105509000Y-93023742D01*
X105509000Y-93412257D01*
X105495963Y-93544626D01*
X105444443Y-93714466D01*
X105360778Y-93870991D01*
X105331448Y-93906729D01*
X105248186Y-94008186D01*
X105153250Y-94086097D01*
X105110991Y-94120778D01*
X104954466Y-94204443D01*
X104784627Y-94255963D01*
X104608000Y-94273359D01*
X104431374Y-94255963D01*
X104261535Y-94204443D01*
X104105010Y-94120778D01*
X103967815Y-94008185D01*
X103855222Y-93870991D01*
X103771557Y-93714466D01*
X103720037Y-93544627D01*
X103707000Y-93412258D01*
X103707000Y-93023743D01*
X103720037Y-92891374D01*
X103771557Y-92721535D01*
X103855222Y-92565010D01*
X103855223Y-92565009D01*
X103967814Y-92427814D01*
X104069271Y-92344552D01*
X104105009Y-92315222D01*
X104261534Y-92231557D01*
X104431373Y-92180037D01*
X104608000Y-92162641D01*
X104784626Y-92180037D01*
G37*
G36*
X102866600Y-92170989D02*
G01*
X102899652Y-92181015D01*
X102930103Y-92197292D01*
X102956799Y-92219201D01*
X102978708Y-92245897D01*
X102994985Y-92276348D01*
X103005011Y-92309400D01*
X103009000Y-92349903D01*
X103009000Y-94086097D01*
X103005011Y-94126600D01*
X102994985Y-94159652D01*
X102978708Y-94190103D01*
X102956799Y-94216799D01*
X102930103Y-94238708D01*
X102899652Y-94254985D01*
X102866600Y-94265011D01*
X102826097Y-94269000D01*
X101389903Y-94269000D01*
X101349400Y-94265011D01*
X101316348Y-94254985D01*
X101285897Y-94238708D01*
X101259201Y-94216799D01*
X101237292Y-94190103D01*
X101221015Y-94159652D01*
X101210989Y-94126600D01*
X101207000Y-94086097D01*
X101207000Y-92349903D01*
X101210989Y-92309400D01*
X101221015Y-92276348D01*
X101237292Y-92245897D01*
X101259201Y-92219201D01*
X101285897Y-92197292D01*
X101316348Y-92181015D01*
X101349400Y-92170989D01*
X101389903Y-92167000D01*
X102826097Y-92167000D01*
X102866600Y-92170989D01*
G37*
G36*
X146941900Y-93241400D02*
G01*
X141839900Y-93241400D01*
X141839900Y-89639400D01*
X146941900Y-89639400D01*
X146941900Y-93241400D01*
G37*
G36*
X114441900Y-93191400D02*
G01*
X109339900Y-93191400D01*
X109339900Y-89589400D01*
X114441900Y-89589400D01*
X114441900Y-93191400D01*
G37*
G36*
X144578564Y-82301389D02*
G01*
X144769833Y-82380615D01*
X144769835Y-82380616D01*
X144941973Y-82495635D01*
X145088365Y-82642027D01*
X145203385Y-82814167D01*
X145282611Y-83005436D01*
X145323000Y-83208484D01*
X145323000Y-83415516D01*
X145282611Y-83618564D01*
X145203385Y-83809833D01*
X145203384Y-83809835D01*
X145088365Y-83981973D01*
X144941973Y-84128365D01*
X144769835Y-84243384D01*
X144769834Y-84243385D01*
X144769833Y-84243385D01*
X144578564Y-84322611D01*
X144375516Y-84363000D01*
X144168484Y-84363000D01*
X143965436Y-84322611D01*
X143774167Y-84243385D01*
X143774166Y-84243385D01*
X143774165Y-84243384D01*
X143602027Y-84128365D01*
X143455635Y-83981973D01*
X143340616Y-83809835D01*
X143340615Y-83809833D01*
X143261389Y-83618564D01*
X143221000Y-83415516D01*
X143221000Y-83208484D01*
X143261389Y-83005436D01*
X143340615Y-82814167D01*
X143455635Y-82642027D01*
X143602027Y-82495635D01*
X143774165Y-82380616D01*
X143774167Y-82380615D01*
X143965436Y-82301389D01*
X144168484Y-82261000D01*
X144375516Y-82261000D01*
X144578564Y-82301389D01*
G37*
G36*
X138078564Y-82301389D02*
G01*
X138269833Y-82380615D01*
X138269835Y-82380616D01*
X138441973Y-82495635D01*
X138588365Y-82642027D01*
X138703385Y-82814167D01*
X138782611Y-83005436D01*
X138823000Y-83208484D01*
X138823000Y-83415516D01*
X138782611Y-83618564D01*
X138703385Y-83809833D01*
X138703384Y-83809835D01*
X138588365Y-83981973D01*
X138441973Y-84128365D01*
X138269835Y-84243384D01*
X138269834Y-84243385D01*
X138269833Y-84243385D01*
X138078564Y-84322611D01*
X137875516Y-84363000D01*
X137668484Y-84363000D01*
X137465436Y-84322611D01*
X137274167Y-84243385D01*
X137274166Y-84243385D01*
X137274165Y-84243384D01*
X137102027Y-84128365D01*
X136955635Y-83981973D01*
X136840616Y-83809835D01*
X136840615Y-83809833D01*
X136761389Y-83618564D01*
X136721000Y-83415516D01*
X136721000Y-83208484D01*
X136761389Y-83005436D01*
X136840615Y-82814167D01*
X136955635Y-82642027D01*
X137102027Y-82495635D01*
X137274165Y-82380616D01*
X137274167Y-82380615D01*
X137465436Y-82301389D01*
X137668484Y-82261000D01*
X137875516Y-82261000D01*
X138078564Y-82301389D01*
G37*
G36*
X99874564Y-78745389D02*
G01*
X100065833Y-78824615D01*
X100065835Y-78824616D01*
X100237973Y-78939635D01*
X100384365Y-79086027D01*
X100406106Y-79118564D01*
X100499385Y-79258167D01*
X100578611Y-79449436D01*
X100619000Y-79652484D01*
X100619000Y-79859516D01*
X100578611Y-80062564D01*
X100499385Y-80253833D01*
X100499384Y-80253835D01*
X100384365Y-80425973D01*
X100237973Y-80572365D01*
X100065835Y-80687384D01*
X100065834Y-80687385D01*
X100065833Y-80687385D01*
X99874564Y-80766611D01*
X99671516Y-80807000D01*
X99464484Y-80807000D01*
X99261436Y-80766611D01*
X99070167Y-80687385D01*
X99070166Y-80687385D01*
X99070165Y-80687384D01*
X98898027Y-80572365D01*
X98751635Y-80425973D01*
X98636616Y-80253835D01*
X98636615Y-80253833D01*
X98557389Y-80062564D01*
X98517000Y-79859516D01*
X98517000Y-79652484D01*
X98557389Y-79449436D01*
X98636615Y-79258167D01*
X98729895Y-79118564D01*
X98751635Y-79086027D01*
X98898027Y-78939635D01*
X99070165Y-78824616D01*
X99070167Y-78824615D01*
X99261436Y-78745389D01*
X99464484Y-78705000D01*
X99671516Y-78705000D01*
X99874564Y-78745389D01*
G37*
G36*
X104374564Y-78745389D02*
G01*
X104565833Y-78824615D01*
X104565835Y-78824616D01*
X104737973Y-78939635D01*
X104884365Y-79086027D01*
X104906106Y-79118564D01*
X104999385Y-79258167D01*
X105078611Y-79449436D01*
X105119000Y-79652484D01*
X105119000Y-79859516D01*
X105078611Y-80062564D01*
X104999385Y-80253833D01*
X104999384Y-80253835D01*
X104884365Y-80425973D01*
X104737973Y-80572365D01*
X104565835Y-80687384D01*
X104565834Y-80687385D01*
X104565833Y-80687385D01*
X104374564Y-80766611D01*
X104171516Y-80807000D01*
X103964484Y-80807000D01*
X103761436Y-80766611D01*
X103570167Y-80687385D01*
X103570166Y-80687385D01*
X103570165Y-80687384D01*
X103398027Y-80572365D01*
X103251635Y-80425973D01*
X103136616Y-80253835D01*
X103136615Y-80253833D01*
X103057389Y-80062564D01*
X103017000Y-79859516D01*
X103017000Y-79652484D01*
X103057389Y-79449436D01*
X103136615Y-79258167D01*
X103229895Y-79118564D01*
X103251635Y-79086027D01*
X103398027Y-78939635D01*
X103570165Y-78824616D01*
X103570167Y-78824615D01*
X103761436Y-78745389D01*
X103964484Y-78705000D01*
X104171516Y-78705000D01*
X104374564Y-78745389D01*
G37*
G36*
X144578564Y-77801389D02*
G01*
X144769833Y-77880615D01*
X144769835Y-77880616D01*
X144941973Y-77995635D01*
X145088365Y-78142027D01*
X145203385Y-78314167D01*
X145282611Y-78505436D01*
X145323000Y-78708484D01*
X145323000Y-78915516D01*
X145282611Y-79118564D01*
X145203385Y-79309833D01*
X145203384Y-79309835D01*
X145088365Y-79481973D01*
X144941973Y-79628365D01*
X144769835Y-79743384D01*
X144769834Y-79743385D01*
X144769833Y-79743385D01*
X144578564Y-79822611D01*
X144375516Y-79863000D01*
X144168484Y-79863000D01*
X143965436Y-79822611D01*
X143774167Y-79743385D01*
X143774166Y-79743385D01*
X143774165Y-79743384D01*
X143602027Y-79628365D01*
X143455635Y-79481973D01*
X143340616Y-79309835D01*
X143340615Y-79309833D01*
X143261389Y-79118564D01*
X143221000Y-78915516D01*
X143221000Y-78708484D01*
X143261389Y-78505436D01*
X143340615Y-78314167D01*
X143455635Y-78142027D01*
X143602027Y-77995635D01*
X143774165Y-77880616D01*
X143774167Y-77880615D01*
X143965436Y-77801389D01*
X144168484Y-77761000D01*
X144375516Y-77761000D01*
X144578564Y-77801389D01*
G37*
G36*
X138078564Y-77801389D02*
G01*
X138269833Y-77880615D01*
X138269835Y-77880616D01*
X138441973Y-77995635D01*
X138588365Y-78142027D01*
X138703385Y-78314167D01*
X138782611Y-78505436D01*
X138823000Y-78708484D01*
X138823000Y-78915516D01*
X138782611Y-79118564D01*
X138703385Y-79309833D01*
X138703384Y-79309835D01*
X138588365Y-79481973D01*
X138441973Y-79628365D01*
X138269835Y-79743384D01*
X138269834Y-79743385D01*
X138269833Y-79743385D01*
X138078564Y-79822611D01*
X137875516Y-79863000D01*
X137668484Y-79863000D01*
X137465436Y-79822611D01*
X137274167Y-79743385D01*
X137274166Y-79743385D01*
X137274165Y-79743384D01*
X137102027Y-79628365D01*
X136955635Y-79481973D01*
X136840616Y-79309835D01*
X136840615Y-79309833D01*
X136761389Y-79118564D01*
X136721000Y-78915516D01*
X136721000Y-78708484D01*
X136761389Y-78505436D01*
X136840615Y-78314167D01*
X136955635Y-78142027D01*
X137102027Y-77995635D01*
X137274165Y-77880616D01*
X137274167Y-77880615D01*
X137465436Y-77801389D01*
X137668484Y-77761000D01*
X137875516Y-77761000D01*
X138078564Y-77801389D01*
G37*
G36*
X104374564Y-72245389D02*
G01*
X104565833Y-72324615D01*
X104565835Y-72324616D01*
X104709304Y-72420479D01*
X104737973Y-72439635D01*
X104884365Y-72586027D01*
X104999385Y-72758167D01*
X105078611Y-72949436D01*
X105119000Y-73152484D01*
X105119000Y-73359516D01*
X105078611Y-73562564D01*
X104999385Y-73753833D01*
X104999384Y-73753835D01*
X104884365Y-73925973D01*
X104737973Y-74072365D01*
X104565835Y-74187384D01*
X104565834Y-74187385D01*
X104565833Y-74187385D01*
X104374564Y-74266611D01*
X104171516Y-74307000D01*
X103964484Y-74307000D01*
X103761436Y-74266611D01*
X103570167Y-74187385D01*
X103570166Y-74187385D01*
X103570165Y-74187384D01*
X103398027Y-74072365D01*
X103251635Y-73925973D01*
X103136616Y-73753835D01*
X103136615Y-73753833D01*
X103057389Y-73562564D01*
X103017000Y-73359516D01*
X103017000Y-73152484D01*
X103057389Y-72949436D01*
X103136615Y-72758167D01*
X103251635Y-72586027D01*
X103398027Y-72439635D01*
X103426696Y-72420479D01*
X103570165Y-72324616D01*
X103570167Y-72324615D01*
X103761436Y-72245389D01*
X103964484Y-72205000D01*
X104171516Y-72205000D01*
X104374564Y-72245389D01*
G37*
G36*
X99874564Y-72245389D02*
G01*
X100065833Y-72324615D01*
X100065835Y-72324616D01*
X100209304Y-72420479D01*
X100237973Y-72439635D01*
X100384365Y-72586027D01*
X100499385Y-72758167D01*
X100578611Y-72949436D01*
X100619000Y-73152484D01*
X100619000Y-73359516D01*
X100578611Y-73562564D01*
X100499385Y-73753833D01*
X100499384Y-73753835D01*
X100384365Y-73925973D01*
X100237973Y-74072365D01*
X100065835Y-74187384D01*
X100065834Y-74187385D01*
X100065833Y-74187385D01*
X99874564Y-74266611D01*
X99671516Y-74307000D01*
X99464484Y-74307000D01*
X99261436Y-74266611D01*
X99070167Y-74187385D01*
X99070166Y-74187385D01*
X99070165Y-74187384D01*
X98898027Y-74072365D01*
X98751635Y-73925973D01*
X98636616Y-73753835D01*
X98636615Y-73753833D01*
X98557389Y-73562564D01*
X98517000Y-73359516D01*
X98517000Y-73152484D01*
X98557389Y-72949436D01*
X98636615Y-72758167D01*
X98751635Y-72586027D01*
X98898027Y-72439635D01*
X98926696Y-72420479D01*
X99070165Y-72324616D01*
X99070167Y-72324615D01*
X99261436Y-72245389D01*
X99464484Y-72205000D01*
X99671516Y-72205000D01*
X99874564Y-72245389D01*
G37*
G36*
X144885043Y-69554604D02*
G01*
X145136410Y-69604604D01*
X145418674Y-69721521D01*
X145672705Y-69891259D01*
X145888741Y-70107295D01*
X146058479Y-70361326D01*
X146175396Y-70643590D01*
X146175396Y-70643591D01*
X146225055Y-70893240D01*
X146235000Y-70943240D01*
X146235000Y-71248760D01*
X146175396Y-71548410D01*
X146058479Y-71830674D01*
X145888741Y-72084705D01*
X145672705Y-72300741D01*
X145418674Y-72470479D01*
X145136410Y-72587396D01*
X145088127Y-72597000D01*
X144836761Y-72647000D01*
X144531239Y-72647000D01*
X144279873Y-72597000D01*
X144231590Y-72587396D01*
X143949326Y-72470479D01*
X143695295Y-72300741D01*
X143479259Y-72084705D01*
X143309521Y-71830674D01*
X143192604Y-71548410D01*
X143133000Y-71248760D01*
X143133000Y-70943240D01*
X143142946Y-70893240D01*
X143192604Y-70643591D01*
X143192604Y-70643590D01*
X143309521Y-70361326D01*
X143479259Y-70107295D01*
X143695295Y-69891259D01*
X143949326Y-69721521D01*
X144231590Y-69604604D01*
X144482957Y-69554604D01*
X144531239Y-69545000D01*
X144836761Y-69545000D01*
X144885043Y-69554604D01*
G37*
G36*
X132936585Y-69524802D02*
G01*
X133086410Y-69554604D01*
X133368674Y-69671521D01*
X133622705Y-69841259D01*
X133838741Y-70057295D01*
X134008479Y-70311326D01*
X134125396Y-70593590D01*
X134135342Y-70643591D01*
X134185000Y-70893239D01*
X134185000Y-71198761D01*
X134175054Y-71248761D01*
X134125396Y-71498410D01*
X134008479Y-71780674D01*
X133838741Y-72034705D01*
X133622705Y-72250741D01*
X133368674Y-72420479D01*
X133086410Y-72537396D01*
X132936585Y-72567198D01*
X132786761Y-72597000D01*
X132481239Y-72597000D01*
X132331415Y-72567198D01*
X132181590Y-72537396D01*
X131899326Y-72420479D01*
X131645295Y-72250741D01*
X131429259Y-72034705D01*
X131259521Y-71780674D01*
X131142604Y-71498410D01*
X131092946Y-71248761D01*
X131083000Y-71198761D01*
X131083000Y-70893239D01*
X131132658Y-70643591D01*
X131142604Y-70593590D01*
X131259521Y-70311326D01*
X131429259Y-70057295D01*
X131645295Y-69841259D01*
X131899326Y-69671521D01*
X132181590Y-69554604D01*
X132331415Y-69524802D01*
X132481239Y-69495000D01*
X132786761Y-69495000D01*
X132936585Y-69524802D01*
G37*
G36*
X145013487Y-57594996D02*
G01*
X145250253Y-57693068D01*
X145250255Y-57693069D01*
X145463339Y-57835447D01*
X145644553Y-58016661D01*
X145786932Y-58229747D01*
X145885004Y-58466513D01*
X145935000Y-58717861D01*
X145935000Y-58974139D01*
X145885004Y-59225487D01*
X145786932Y-59462253D01*
X145786931Y-59462255D01*
X145644553Y-59675339D01*
X145463339Y-59856553D01*
X145250255Y-59998931D01*
X145250254Y-59998932D01*
X145250253Y-59998932D01*
X145013487Y-60097004D01*
X144762139Y-60147000D01*
X144505861Y-60147000D01*
X144254513Y-60097004D01*
X144017747Y-59998932D01*
X144017746Y-59998932D01*
X144017745Y-59998931D01*
X143804661Y-59856553D01*
X143623447Y-59675339D01*
X143481069Y-59462255D01*
X143481068Y-59462253D01*
X143382996Y-59225487D01*
X143333000Y-58974139D01*
X143333000Y-58717861D01*
X143382996Y-58466513D01*
X143481068Y-58229747D01*
X143623447Y-58016661D01*
X143804661Y-57835447D01*
X144017745Y-57693069D01*
X144017747Y-57693068D01*
X144254513Y-57594996D01*
X144505861Y-57545000D01*
X144762139Y-57545000D01*
X145013487Y-57594996D01*
G37*
G36*
X133013487Y-57594996D02*
G01*
X133250253Y-57693068D01*
X133250255Y-57693069D01*
X133463339Y-57835447D01*
X133644553Y-58016661D01*
X133786932Y-58229747D01*
X133885004Y-58466513D01*
X133935000Y-58717861D01*
X133935000Y-58974139D01*
X133885004Y-59225487D01*
X133786932Y-59462253D01*
X133786931Y-59462255D01*
X133644553Y-59675339D01*
X133463339Y-59856553D01*
X133250255Y-59998931D01*
X133250254Y-59998932D01*
X133250253Y-59998932D01*
X133013487Y-60097004D01*
X132762139Y-60147000D01*
X132505861Y-60147000D01*
X132254513Y-60097004D01*
X132017747Y-59998932D01*
X132017746Y-59998932D01*
X132017745Y-59998931D01*
X131804661Y-59856553D01*
X131623447Y-59675339D01*
X131481069Y-59462255D01*
X131481068Y-59462253D01*
X131382996Y-59225487D01*
X131333000Y-58974139D01*
X131333000Y-58717861D01*
X131382996Y-58466513D01*
X131481068Y-58229747D01*
X131623447Y-58016661D01*
X131804661Y-57835447D01*
X132017745Y-57693069D01*
X132017747Y-57693068D01*
X132254513Y-57594996D01*
X132505861Y-57545000D01*
X132762139Y-57545000D01*
X133013487Y-57594996D01*
G37*
G36*
X138986585Y-55374802D02*
G01*
X139136410Y-55404604D01*
X139418674Y-55521521D01*
X139672705Y-55691259D01*
X139888741Y-55907295D01*
X140058479Y-56161326D01*
X140175396Y-56443590D01*
X140235000Y-56743240D01*
X140235000Y-57048760D01*
X140175396Y-57348410D01*
X140058479Y-57630674D01*
X139888741Y-57884705D01*
X139672705Y-58100741D01*
X139418674Y-58270479D01*
X139136410Y-58387396D01*
X138986585Y-58417198D01*
X138836761Y-58447000D01*
X138531239Y-58447000D01*
X138381415Y-58417198D01*
X138231590Y-58387396D01*
X137949326Y-58270479D01*
X137695295Y-58100741D01*
X137479259Y-57884705D01*
X137309521Y-57630674D01*
X137192604Y-57348410D01*
X137133000Y-57048760D01*
X137133000Y-56743240D01*
X137192604Y-56443590D01*
X137309521Y-56161326D01*
X137479259Y-55907295D01*
X137695295Y-55691259D01*
X137949326Y-55521521D01*
X138231590Y-55404604D01*
X138381415Y-55374802D01*
X138531239Y-55345000D01*
X138836761Y-55345000D01*
X138986585Y-55374802D01*
G37*
G36*
X139911766Y-49529899D02*
G01*
X140043888Y-49584626D01*
X140043890Y-49584627D01*
X140162798Y-49664079D01*
X140263921Y-49765202D01*
X140263922Y-49765204D01*
X140343374Y-49884112D01*
X140398101Y-50016234D01*
X140426000Y-50156494D01*
X140426000Y-50299506D01*
X140398101Y-50439766D01*
X140343374Y-50571888D01*
X140343373Y-50571890D01*
X140263921Y-50690798D01*
X140162798Y-50791921D01*
X140043890Y-50871373D01*
X140043889Y-50871374D01*
X140043888Y-50871374D01*
X139911766Y-50926101D01*
X139771506Y-50954000D01*
X139628494Y-50954000D01*
X139488234Y-50926101D01*
X139356112Y-50871374D01*
X139356111Y-50871374D01*
X139356110Y-50871373D01*
X139237202Y-50791921D01*
X139136079Y-50690798D01*
X139056627Y-50571890D01*
X139056626Y-50571888D01*
X139001899Y-50439766D01*
X138974000Y-50299506D01*
X138974000Y-50156494D01*
X139001899Y-50016234D01*
X139056626Y-49884112D01*
X139136078Y-49765204D01*
X139136079Y-49765202D01*
X139237202Y-49664079D01*
X139356110Y-49584627D01*
X139356112Y-49584626D01*
X139488234Y-49529899D01*
X139628494Y-49502000D01*
X139771506Y-49502000D01*
X139911766Y-49529899D01*
G37*
G36*
X139911766Y-47529899D02*
G01*
X140043888Y-47584626D01*
X140043890Y-47584627D01*
X140162798Y-47664079D01*
X140263921Y-47765202D01*
X140343373Y-47884110D01*
X140343374Y-47884112D01*
X140398101Y-48016234D01*
X140426000Y-48156494D01*
X140426000Y-48299506D01*
X140398101Y-48439766D01*
X140343374Y-48571888D01*
X140343373Y-48571890D01*
X140263921Y-48690798D01*
X140162798Y-48791921D01*
X140043890Y-48871373D01*
X140043889Y-48871374D01*
X140043888Y-48871374D01*
X139911766Y-48926101D01*
X139771506Y-48954000D01*
X139628494Y-48954000D01*
X139488234Y-48926101D01*
X139356112Y-48871374D01*
X139356111Y-48871374D01*
X139356110Y-48871373D01*
X139237202Y-48791921D01*
X139136079Y-48690798D01*
X139056627Y-48571890D01*
X139056626Y-48571888D01*
X139001899Y-48439766D01*
X138974000Y-48299506D01*
X138974000Y-48156494D01*
X139001899Y-48016234D01*
X139056626Y-47884112D01*
X139056627Y-47884110D01*
X139136079Y-47765202D01*
X139237202Y-47664079D01*
X139356110Y-47584627D01*
X139356112Y-47584626D01*
X139488234Y-47529899D01*
X139628494Y-47502000D01*
X139771506Y-47502000D01*
X139911766Y-47529899D01*
G37*
G36*
X132724626Y-46206037D02*
G01*
X132894465Y-46257557D01*
X132894467Y-46257558D01*
X133050989Y-46341221D01*
X133188186Y-46453814D01*
X133250402Y-46529626D01*
X133300778Y-46591009D01*
X133300779Y-46591011D01*
X133384442Y-46747531D01*
X133384443Y-46747534D01*
X133435963Y-46917373D01*
X133435963Y-46917375D01*
X133448110Y-47040699D01*
X133449000Y-47049742D01*
X133449000Y-47438257D01*
X133435963Y-47570626D01*
X133384443Y-47740466D01*
X133300778Y-47896991D01*
X133271448Y-47932729D01*
X133188186Y-48034186D01*
X133093250Y-48112097D01*
X133050991Y-48146778D01*
X132894466Y-48230443D01*
X132724627Y-48281963D01*
X132548000Y-48299359D01*
X132371374Y-48281963D01*
X132201535Y-48230443D01*
X132045010Y-48146778D01*
X131907815Y-48034185D01*
X131795222Y-47896991D01*
X131711557Y-47740466D01*
X131660037Y-47570627D01*
X131647000Y-47438258D01*
X131647000Y-47049743D01*
X131660037Y-46917374D01*
X131711557Y-46747535D01*
X131723205Y-46725743D01*
X131795221Y-46591011D01*
X131907814Y-46453814D01*
X132009271Y-46370552D01*
X132045009Y-46341222D01*
X132201534Y-46257557D01*
X132371373Y-46206037D01*
X132548000Y-46188641D01*
X132724626Y-46206037D01*
G37*
G36*
X130806600Y-46196989D02*
G01*
X130839652Y-46207015D01*
X130870103Y-46223292D01*
X130896799Y-46245201D01*
X130918708Y-46271897D01*
X130934985Y-46302348D01*
X130945011Y-46335400D01*
X130949000Y-46375903D01*
X130949000Y-48112097D01*
X130945011Y-48152600D01*
X130934985Y-48185652D01*
X130918708Y-48216103D01*
X130896799Y-48242799D01*
X130870103Y-48264708D01*
X130839652Y-48280985D01*
X130806600Y-48291011D01*
X130766097Y-48295000D01*
X129329903Y-48295000D01*
X129289400Y-48291011D01*
X129256348Y-48280985D01*
X129225897Y-48264708D01*
X129199201Y-48242799D01*
X129177292Y-48216103D01*
X129161015Y-48185652D01*
X129150989Y-48152600D01*
X129147000Y-48112097D01*
X129147000Y-46375903D01*
X129150989Y-46335400D01*
X129161015Y-46302348D01*
X129177292Y-46271897D01*
X129199201Y-46245201D01*
X129225897Y-46223292D01*
X129256348Y-46207015D01*
X129289400Y-46196989D01*
X129329903Y-46193000D01*
X130766097Y-46193000D01*
X130806600Y-46196989D01*
G37*
G36*
X115045142Y-46462242D02*
G01*
X115193101Y-46523529D01*
X115326255Y-46612499D01*
X115439501Y-46725745D01*
X115528471Y-46858899D01*
X115589758Y-47006858D01*
X115621000Y-47163925D01*
X115621000Y-47324075D01*
X115589758Y-47481142D01*
X115528471Y-47629101D01*
X115439501Y-47762255D01*
X115326255Y-47875501D01*
X115193101Y-47964471D01*
X115045142Y-48025758D01*
X114888075Y-48057000D01*
X114727925Y-48057000D01*
X114570858Y-48025758D01*
X114422899Y-47964471D01*
X114289745Y-47875501D01*
X114176499Y-47762255D01*
X114087529Y-47629101D01*
X114026242Y-47481142D01*
X113995000Y-47324075D01*
X113995000Y-47163925D01*
X114026242Y-47006858D01*
X114087529Y-46858899D01*
X114176499Y-46725745D01*
X114289745Y-46612499D01*
X114422899Y-46523529D01*
X114570858Y-46462242D01*
X114727925Y-46431000D01*
X114888075Y-46431000D01*
X115045142Y-46462242D01*
G37*
G36*
X104885142Y-46462242D02*
G01*
X105033101Y-46523529D01*
X105166255Y-46612499D01*
X105279501Y-46725745D01*
X105368471Y-46858899D01*
X105429758Y-47006858D01*
X105461000Y-47163925D01*
X105461000Y-47324075D01*
X105429758Y-47481142D01*
X105368471Y-47629101D01*
X105279501Y-47762255D01*
X105166255Y-47875501D01*
X105033101Y-47964471D01*
X104885142Y-48025758D01*
X104728075Y-48057000D01*
X104567925Y-48057000D01*
X104410858Y-48025758D01*
X104262899Y-47964471D01*
X104129745Y-47875501D01*
X104016499Y-47762255D01*
X103927529Y-47629101D01*
X103866242Y-47481142D01*
X103835000Y-47324075D01*
X103835000Y-47163925D01*
X103866242Y-47006858D01*
X103927529Y-46858899D01*
X104016499Y-46725745D01*
X104129745Y-46612499D01*
X104262899Y-46523529D01*
X104410858Y-46462242D01*
X104567925Y-46431000D01*
X104728075Y-46431000D01*
X104885142Y-46462242D01*
G37*
G36*
X122665142Y-46462242D02*
G01*
X122813101Y-46523529D01*
X122946255Y-46612499D01*
X123059501Y-46725745D01*
X123148471Y-46858899D01*
X123209758Y-47006858D01*
X123241000Y-47163925D01*
X123241000Y-47324075D01*
X123209758Y-47481142D01*
X123148471Y-47629101D01*
X123059501Y-47762255D01*
X122946255Y-47875501D01*
X122813101Y-47964471D01*
X122665142Y-48025758D01*
X122508075Y-48057000D01*
X122347925Y-48057000D01*
X122190858Y-48025758D01*
X122042899Y-47964471D01*
X121909745Y-47875501D01*
X121796499Y-47762255D01*
X121707529Y-47629101D01*
X121646242Y-47481142D01*
X121615000Y-47324075D01*
X121615000Y-47163925D01*
X121646242Y-47006858D01*
X121707529Y-46858899D01*
X121796499Y-46725745D01*
X121909745Y-46612499D01*
X122042899Y-46523529D01*
X122190858Y-46462242D01*
X122347925Y-46431000D01*
X122508075Y-46431000D01*
X122665142Y-46462242D01*
G37*
G36*
X117585142Y-46462242D02*
G01*
X117733101Y-46523529D01*
X117866255Y-46612499D01*
X117979501Y-46725745D01*
X118068471Y-46858899D01*
X118129758Y-47006858D01*
X118161000Y-47163925D01*
X118161000Y-47324075D01*
X118129758Y-47481142D01*
X118068471Y-47629101D01*
X117979501Y-47762255D01*
X117866255Y-47875501D01*
X117733101Y-47964471D01*
X117585142Y-48025758D01*
X117428075Y-48057000D01*
X117267925Y-48057000D01*
X117110858Y-48025758D01*
X116962899Y-47964471D01*
X116829745Y-47875501D01*
X116716499Y-47762255D01*
X116627529Y-47629101D01*
X116566242Y-47481142D01*
X116535000Y-47324075D01*
X116535000Y-47163925D01*
X116566242Y-47006858D01*
X116627529Y-46858899D01*
X116716499Y-46725745D01*
X116829745Y-46612499D01*
X116962899Y-46523529D01*
X117110858Y-46462242D01*
X117267925Y-46431000D01*
X117428075Y-46431000D01*
X117585142Y-46462242D01*
G37*
G36*
X112505142Y-46462242D02*
G01*
X112653101Y-46523529D01*
X112786255Y-46612499D01*
X112899501Y-46725745D01*
X112988471Y-46858899D01*
X113049758Y-47006858D01*
X113081000Y-47163925D01*
X113081000Y-47324075D01*
X113049758Y-47481142D01*
X112988471Y-47629101D01*
X112899501Y-47762255D01*
X112786255Y-47875501D01*
X112653101Y-47964471D01*
X112505142Y-48025758D01*
X112348075Y-48057000D01*
X112187925Y-48057000D01*
X112030858Y-48025758D01*
X111882899Y-47964471D01*
X111749745Y-47875501D01*
X111636499Y-47762255D01*
X111547529Y-47629101D01*
X111486242Y-47481142D01*
X111455000Y-47324075D01*
X111455000Y-47163925D01*
X111486242Y-47006858D01*
X111547529Y-46858899D01*
X111636499Y-46725745D01*
X111749745Y-46612499D01*
X111882899Y-46523529D01*
X112030858Y-46462242D01*
X112187925Y-46431000D01*
X112348075Y-46431000D01*
X112505142Y-46462242D01*
G37*
G36*
X109965142Y-46462242D02*
G01*
X110113101Y-46523529D01*
X110246255Y-46612499D01*
X110359501Y-46725745D01*
X110448471Y-46858899D01*
X110509758Y-47006858D01*
X110541000Y-47163925D01*
X110541000Y-47324075D01*
X110509758Y-47481142D01*
X110448471Y-47629101D01*
X110359501Y-47762255D01*
X110246255Y-47875501D01*
X110113101Y-47964471D01*
X109965142Y-48025758D01*
X109808075Y-48057000D01*
X109647925Y-48057000D01*
X109490858Y-48025758D01*
X109342899Y-47964471D01*
X109209745Y-47875501D01*
X109096499Y-47762255D01*
X109007529Y-47629101D01*
X108946242Y-47481142D01*
X108915000Y-47324075D01*
X108915000Y-47163925D01*
X108946242Y-47006858D01*
X109007529Y-46858899D01*
X109096499Y-46725745D01*
X109209745Y-46612499D01*
X109342899Y-46523529D01*
X109490858Y-46462242D01*
X109647925Y-46431000D01*
X109808075Y-46431000D01*
X109965142Y-46462242D01*
G37*
G36*
X120125142Y-46462242D02*
G01*
X120273101Y-46523529D01*
X120406255Y-46612499D01*
X120519501Y-46725745D01*
X120608471Y-46858899D01*
X120669758Y-47006858D01*
X120701000Y-47163925D01*
X120701000Y-47324075D01*
X120669758Y-47481142D01*
X120608471Y-47629101D01*
X120519501Y-47762255D01*
X120406255Y-47875501D01*
X120273101Y-47964471D01*
X120125142Y-48025758D01*
X119968075Y-48057000D01*
X119807925Y-48057000D01*
X119650858Y-48025758D01*
X119502899Y-47964471D01*
X119369745Y-47875501D01*
X119256499Y-47762255D01*
X119167529Y-47629101D01*
X119106242Y-47481142D01*
X119075000Y-47324075D01*
X119075000Y-47163925D01*
X119106242Y-47006858D01*
X119167529Y-46858899D01*
X119256499Y-46725745D01*
X119369745Y-46612499D01*
X119502899Y-46523529D01*
X119650858Y-46462242D01*
X119807925Y-46431000D01*
X119968075Y-46431000D01*
X120125142Y-46462242D01*
G37*
G36*
X107425142Y-46462242D02*
G01*
X107573101Y-46523529D01*
X107706255Y-46612499D01*
X107819501Y-46725745D01*
X107908471Y-46858899D01*
X107969758Y-47006858D01*
X108001000Y-47163925D01*
X108001000Y-47324075D01*
X107969758Y-47481142D01*
X107908471Y-47629101D01*
X107819501Y-47762255D01*
X107706255Y-47875501D01*
X107573101Y-47964471D01*
X107425142Y-48025758D01*
X107268075Y-48057000D01*
X107107925Y-48057000D01*
X106950858Y-48025758D01*
X106802899Y-47964471D01*
X106669745Y-47875501D01*
X106556499Y-47762255D01*
X106467529Y-47629101D01*
X106406242Y-47481142D01*
X106375000Y-47324075D01*
X106375000Y-47163925D01*
X106406242Y-47006858D01*
X106467529Y-46858899D01*
X106556499Y-46725745D01*
X106669745Y-46612499D01*
X106802899Y-46523529D01*
X106950858Y-46462242D01*
X107107925Y-46431000D01*
X107268075Y-46431000D01*
X107425142Y-46462242D01*
G37*
G36*
X95132626Y-45215037D02*
G01*
X95302465Y-45266557D01*
X95302467Y-45266558D01*
X95458989Y-45350221D01*
X95596186Y-45462814D01*
X95679448Y-45564271D01*
X95708778Y-45600009D01*
X95792443Y-45756534D01*
X95843963Y-45926373D01*
X95857000Y-46058742D01*
X95857000Y-46397257D01*
X95843963Y-46529626D01*
X95792443Y-46699466D01*
X95708778Y-46855991D01*
X95679448Y-46891729D01*
X95596186Y-46993186D01*
X95501250Y-47071097D01*
X95458991Y-47105778D01*
X95458989Y-47105779D01*
X95350207Y-47163925D01*
X95302466Y-47189443D01*
X95132627Y-47240963D01*
X94956000Y-47258359D01*
X94779374Y-47240963D01*
X94609535Y-47189443D01*
X94561795Y-47163925D01*
X94453012Y-47105779D01*
X94453010Y-47105778D01*
X94315815Y-46993185D01*
X94203222Y-46855991D01*
X94145248Y-46747531D01*
X94119558Y-46699468D01*
X94086658Y-46591011D01*
X94068037Y-46529627D01*
X94058323Y-46431000D01*
X94055000Y-46397260D01*
X94055000Y-46058741D01*
X94068037Y-45926376D01*
X94068037Y-45926374D01*
X94119557Y-45756535D01*
X94203222Y-45600010D01*
X94203223Y-45600009D01*
X94315814Y-45462814D01*
X94417271Y-45379552D01*
X94453009Y-45350222D01*
X94609534Y-45266557D01*
X94779373Y-45215037D01*
X94956000Y-45197641D01*
X95132626Y-45215037D01*
G37*
G36*
X97632626Y-45215037D02*
G01*
X97802465Y-45266557D01*
X97802467Y-45266558D01*
X97958989Y-45350221D01*
X98096186Y-45462814D01*
X98179448Y-45564271D01*
X98208778Y-45600009D01*
X98292443Y-45756534D01*
X98343963Y-45926373D01*
X98357000Y-46058742D01*
X98357000Y-46397257D01*
X98343963Y-46529626D01*
X98292443Y-46699466D01*
X98208778Y-46855991D01*
X98179448Y-46891729D01*
X98096186Y-46993186D01*
X98001250Y-47071097D01*
X97958991Y-47105778D01*
X97958989Y-47105779D01*
X97850207Y-47163925D01*
X97802466Y-47189443D01*
X97632627Y-47240963D01*
X97456000Y-47258359D01*
X97279374Y-47240963D01*
X97109535Y-47189443D01*
X97061795Y-47163925D01*
X96953012Y-47105779D01*
X96953010Y-47105778D01*
X96815815Y-46993185D01*
X96703222Y-46855991D01*
X96645248Y-46747531D01*
X96619558Y-46699468D01*
X96586658Y-46591011D01*
X96568037Y-46529627D01*
X96558323Y-46431000D01*
X96555000Y-46397260D01*
X96555000Y-46058741D01*
X96568037Y-45926376D01*
X96568037Y-45926374D01*
X96619557Y-45756535D01*
X96703222Y-45600010D01*
X96703223Y-45600009D01*
X96815814Y-45462814D01*
X96917271Y-45379552D01*
X96953009Y-45350222D01*
X97109534Y-45266557D01*
X97279373Y-45215037D01*
X97456000Y-45197641D01*
X97632626Y-45215037D01*
G37*
G36*
X100132626Y-45215037D02*
G01*
X100302465Y-45266557D01*
X100302467Y-45266558D01*
X100458989Y-45350221D01*
X100596186Y-45462814D01*
X100679448Y-45564271D01*
X100708778Y-45600009D01*
X100792443Y-45756534D01*
X100843963Y-45926373D01*
X100857000Y-46058742D01*
X100857000Y-46397257D01*
X100843963Y-46529626D01*
X100792443Y-46699466D01*
X100708778Y-46855991D01*
X100679448Y-46891729D01*
X100596186Y-46993186D01*
X100501250Y-47071097D01*
X100458991Y-47105778D01*
X100458989Y-47105779D01*
X100350207Y-47163925D01*
X100302466Y-47189443D01*
X100132627Y-47240963D01*
X99956000Y-47258359D01*
X99779374Y-47240963D01*
X99609535Y-47189443D01*
X99561795Y-47163925D01*
X99453012Y-47105779D01*
X99453010Y-47105778D01*
X99315815Y-46993185D01*
X99203222Y-46855991D01*
X99145248Y-46747531D01*
X99119558Y-46699468D01*
X99086658Y-46591011D01*
X99068037Y-46529627D01*
X99058323Y-46431000D01*
X99055000Y-46397260D01*
X99055000Y-46058741D01*
X99068037Y-45926376D01*
X99068037Y-45926374D01*
X99119557Y-45756535D01*
X99203222Y-45600010D01*
X99203223Y-45600009D01*
X99315814Y-45462814D01*
X99417271Y-45379552D01*
X99453009Y-45350222D01*
X99609534Y-45266557D01*
X99779373Y-45215037D01*
X99956000Y-45197641D01*
X100132626Y-45215037D01*
G37*
G36*
X93214600Y-45205989D02*
G01*
X93247652Y-45216015D01*
X93278103Y-45232292D01*
X93304799Y-45254201D01*
X93326708Y-45280897D01*
X93342985Y-45311348D01*
X93353011Y-45344400D01*
X93357000Y-45384903D01*
X93357000Y-47071097D01*
X93353011Y-47111600D01*
X93342985Y-47144652D01*
X93326708Y-47175103D01*
X93304799Y-47201799D01*
X93278103Y-47223708D01*
X93247652Y-47239985D01*
X93214600Y-47250011D01*
X93174097Y-47254000D01*
X91737903Y-47254000D01*
X91697400Y-47250011D01*
X91664348Y-47239985D01*
X91633897Y-47223708D01*
X91607201Y-47201799D01*
X91585292Y-47175103D01*
X91569015Y-47144652D01*
X91558989Y-47111600D01*
X91555000Y-47071097D01*
X91555000Y-45384903D01*
X91558989Y-45344400D01*
X91569015Y-45311348D01*
X91585292Y-45280897D01*
X91607201Y-45254201D01*
X91633897Y-45232292D01*
X91664348Y-45216015D01*
X91697400Y-45205989D01*
X91737903Y-45202000D01*
X93174097Y-45202000D01*
X93214600Y-45205989D01*
G37*
G36*
X140426000Y-46954000D02*
G01*
X138974000Y-46954000D01*
X138974000Y-45502000D01*
X140426000Y-45502000D01*
X140426000Y-46954000D01*
G37*
M02*
