G04 #@! TF.GenerationSoftware,KiCad,Pcbnew,5.1.5+dfsg1-2build2*
G04 #@! TF.CreationDate,2021-12-07T08:31:45-05:00*
G04 #@! TF.ProjectId,schematics,73636865-6d61-4746-9963-732e6b696361,rev?*
G04 #@! TF.SameCoordinates,Original*
G04 #@! TF.FileFunction,Copper,L1,Top*
G04 #@! TF.FilePolarity,Positive*
%FSLAX46Y46*%
G04 Gerber Fmt 4.6, Leading zero omitted, Abs format (unit mm)*
G04 Created by KiCad (PCBNEW 5.1.5+dfsg1-2build2) date 2021-12-07 08:31:45*
%MOMM*%
%LPD*%
G04 APERTURE LIST*
%ADD10C,0.100000*%
%ADD11R,4.000000X4.000000*%
%ADD12O,1.700000X1.950000*%
%ADD13C,2.000000*%
%ADD14O,1.700000X2.000000*%
%ADD15R,1.350000X1.350000*%
%ADD16O,1.350000X1.350000*%
%ADD17C,2.500000*%
%ADD18C,3.000000*%
%ADD19C,1.524000*%
%ADD20R,2.000000X3.800000*%
%ADD21R,2.000000X1.500000*%
%ADD22R,5.000000X3.500000*%
%ADD23C,0.800000*%
%ADD24C,0.250000*%
G04 APERTURE END LIST*
G04 #@! TA.AperFunction,SMDPad,CuDef*
D10*
G36*
X130608004Y-51450204D02*
G01*
X130632273Y-51453804D01*
X130656071Y-51459765D01*
X130679171Y-51468030D01*
X130701349Y-51478520D01*
X130722393Y-51491133D01*
X130742098Y-51505747D01*
X130760277Y-51522223D01*
X130776753Y-51540402D01*
X130791367Y-51560107D01*
X130803980Y-51581151D01*
X130814470Y-51603329D01*
X130822735Y-51626429D01*
X130828696Y-51650227D01*
X130832296Y-51674496D01*
X130833500Y-51699000D01*
X130833500Y-52949000D01*
X130832296Y-52973504D01*
X130828696Y-52997773D01*
X130822735Y-53021571D01*
X130814470Y-53044671D01*
X130803980Y-53066849D01*
X130791367Y-53087893D01*
X130776753Y-53107598D01*
X130760277Y-53125777D01*
X130742098Y-53142253D01*
X130722393Y-53156867D01*
X130701349Y-53169480D01*
X130679171Y-53179970D01*
X130656071Y-53188235D01*
X130632273Y-53194196D01*
X130608004Y-53197796D01*
X130583500Y-53199000D01*
X129658500Y-53199000D01*
X129633996Y-53197796D01*
X129609727Y-53194196D01*
X129585929Y-53188235D01*
X129562829Y-53179970D01*
X129540651Y-53169480D01*
X129519607Y-53156867D01*
X129499902Y-53142253D01*
X129481723Y-53125777D01*
X129465247Y-53107598D01*
X129450633Y-53087893D01*
X129438020Y-53066849D01*
X129427530Y-53044671D01*
X129419265Y-53021571D01*
X129413304Y-52997773D01*
X129409704Y-52973504D01*
X129408500Y-52949000D01*
X129408500Y-51699000D01*
X129409704Y-51674496D01*
X129413304Y-51650227D01*
X129419265Y-51626429D01*
X129427530Y-51603329D01*
X129438020Y-51581151D01*
X129450633Y-51560107D01*
X129465247Y-51540402D01*
X129481723Y-51522223D01*
X129499902Y-51505747D01*
X129519607Y-51491133D01*
X129540651Y-51478520D01*
X129562829Y-51468030D01*
X129585929Y-51459765D01*
X129609727Y-51453804D01*
X129633996Y-51450204D01*
X129658500Y-51449000D01*
X130583500Y-51449000D01*
X130608004Y-51450204D01*
G37*
G04 #@! TD.AperFunction*
G04 #@! TA.AperFunction,SMDPad,CuDef*
G36*
X133583004Y-51450204D02*
G01*
X133607273Y-51453804D01*
X133631071Y-51459765D01*
X133654171Y-51468030D01*
X133676349Y-51478520D01*
X133697393Y-51491133D01*
X133717098Y-51505747D01*
X133735277Y-51522223D01*
X133751753Y-51540402D01*
X133766367Y-51560107D01*
X133778980Y-51581151D01*
X133789470Y-51603329D01*
X133797735Y-51626429D01*
X133803696Y-51650227D01*
X133807296Y-51674496D01*
X133808500Y-51699000D01*
X133808500Y-52949000D01*
X133807296Y-52973504D01*
X133803696Y-52997773D01*
X133797735Y-53021571D01*
X133789470Y-53044671D01*
X133778980Y-53066849D01*
X133766367Y-53087893D01*
X133751753Y-53107598D01*
X133735277Y-53125777D01*
X133717098Y-53142253D01*
X133697393Y-53156867D01*
X133676349Y-53169480D01*
X133654171Y-53179970D01*
X133631071Y-53188235D01*
X133607273Y-53194196D01*
X133583004Y-53197796D01*
X133558500Y-53199000D01*
X132633500Y-53199000D01*
X132608996Y-53197796D01*
X132584727Y-53194196D01*
X132560929Y-53188235D01*
X132537829Y-53179970D01*
X132515651Y-53169480D01*
X132494607Y-53156867D01*
X132474902Y-53142253D01*
X132456723Y-53125777D01*
X132440247Y-53107598D01*
X132425633Y-53087893D01*
X132413020Y-53066849D01*
X132402530Y-53044671D01*
X132394265Y-53021571D01*
X132388304Y-52997773D01*
X132384704Y-52973504D01*
X132383500Y-52949000D01*
X132383500Y-51699000D01*
X132384704Y-51674496D01*
X132388304Y-51650227D01*
X132394265Y-51626429D01*
X132402530Y-51603329D01*
X132413020Y-51581151D01*
X132425633Y-51560107D01*
X132440247Y-51540402D01*
X132456723Y-51522223D01*
X132474902Y-51505747D01*
X132494607Y-51491133D01*
X132515651Y-51478520D01*
X132537829Y-51468030D01*
X132560929Y-51459765D01*
X132584727Y-51453804D01*
X132608996Y-51450204D01*
X132633500Y-51449000D01*
X133558500Y-51449000D01*
X133583004Y-51450204D01*
G37*
G04 #@! TD.AperFunction*
D11*
X115460000Y-66586000D03*
G04 #@! TA.AperFunction,SMDPad,CuDef*
D10*
G36*
X126182066Y-58332030D02*
G01*
X126202830Y-58335110D01*
X126223192Y-58340210D01*
X126242956Y-58347282D01*
X126261932Y-58356257D01*
X126279936Y-58367049D01*
X126296797Y-58379553D01*
X126312350Y-58393650D01*
X126326447Y-58409203D01*
X126338951Y-58426064D01*
X126349743Y-58444068D01*
X126358718Y-58463044D01*
X126365790Y-58482808D01*
X126370890Y-58503170D01*
X126373970Y-58523934D01*
X126375000Y-58544900D01*
X126375000Y-59047100D01*
X126373970Y-59068066D01*
X126370890Y-59088830D01*
X126365790Y-59109192D01*
X126358718Y-59128956D01*
X126349743Y-59147932D01*
X126338951Y-59165936D01*
X126326447Y-59182797D01*
X126312350Y-59198350D01*
X126296797Y-59212447D01*
X126279936Y-59224951D01*
X126261932Y-59235743D01*
X126242956Y-59244718D01*
X126223192Y-59251790D01*
X126202830Y-59256890D01*
X126182066Y-59259970D01*
X126161100Y-59261000D01*
X125138900Y-59261000D01*
X125117934Y-59259970D01*
X125097170Y-59256890D01*
X125076808Y-59251790D01*
X125057044Y-59244718D01*
X125038068Y-59235743D01*
X125020064Y-59224951D01*
X125003203Y-59212447D01*
X124987650Y-59198350D01*
X124973553Y-59182797D01*
X124961049Y-59165936D01*
X124950257Y-59147932D01*
X124941282Y-59128956D01*
X124934210Y-59109192D01*
X124929110Y-59088830D01*
X124926030Y-59068066D01*
X124925000Y-59047100D01*
X124925000Y-58544900D01*
X124926030Y-58523934D01*
X124929110Y-58503170D01*
X124934210Y-58482808D01*
X124941282Y-58463044D01*
X124950257Y-58444068D01*
X124961049Y-58426064D01*
X124973553Y-58409203D01*
X124987650Y-58393650D01*
X125003203Y-58379553D01*
X125020064Y-58367049D01*
X125038068Y-58356257D01*
X125057044Y-58347282D01*
X125076808Y-58340210D01*
X125097170Y-58335110D01*
X125117934Y-58332030D01*
X125138900Y-58331000D01*
X126161100Y-58331000D01*
X126182066Y-58332030D01*
G37*
G04 #@! TD.AperFunction*
G04 #@! TA.AperFunction,SMDPad,CuDef*
G36*
X126182066Y-59602030D02*
G01*
X126202830Y-59605110D01*
X126223192Y-59610210D01*
X126242956Y-59617282D01*
X126261932Y-59626257D01*
X126279936Y-59637049D01*
X126296797Y-59649553D01*
X126312350Y-59663650D01*
X126326447Y-59679203D01*
X126338951Y-59696064D01*
X126349743Y-59714068D01*
X126358718Y-59733044D01*
X126365790Y-59752808D01*
X126370890Y-59773170D01*
X126373970Y-59793934D01*
X126375000Y-59814900D01*
X126375000Y-60317100D01*
X126373970Y-60338066D01*
X126370890Y-60358830D01*
X126365790Y-60379192D01*
X126358718Y-60398956D01*
X126349743Y-60417932D01*
X126338951Y-60435936D01*
X126326447Y-60452797D01*
X126312350Y-60468350D01*
X126296797Y-60482447D01*
X126279936Y-60494951D01*
X126261932Y-60505743D01*
X126242956Y-60514718D01*
X126223192Y-60521790D01*
X126202830Y-60526890D01*
X126182066Y-60529970D01*
X126161100Y-60531000D01*
X125138900Y-60531000D01*
X125117934Y-60529970D01*
X125097170Y-60526890D01*
X125076808Y-60521790D01*
X125057044Y-60514718D01*
X125038068Y-60505743D01*
X125020064Y-60494951D01*
X125003203Y-60482447D01*
X124987650Y-60468350D01*
X124973553Y-60452797D01*
X124961049Y-60435936D01*
X124950257Y-60417932D01*
X124941282Y-60398956D01*
X124934210Y-60379192D01*
X124929110Y-60358830D01*
X124926030Y-60338066D01*
X124925000Y-60317100D01*
X124925000Y-59814900D01*
X124926030Y-59793934D01*
X124929110Y-59773170D01*
X124934210Y-59752808D01*
X124941282Y-59733044D01*
X124950257Y-59714068D01*
X124961049Y-59696064D01*
X124973553Y-59679203D01*
X124987650Y-59663650D01*
X125003203Y-59649553D01*
X125020064Y-59637049D01*
X125038068Y-59626257D01*
X125057044Y-59617282D01*
X125076808Y-59610210D01*
X125097170Y-59605110D01*
X125117934Y-59602030D01*
X125138900Y-59601000D01*
X126161100Y-59601000D01*
X126182066Y-59602030D01*
G37*
G04 #@! TD.AperFunction*
G04 #@! TA.AperFunction,SMDPad,CuDef*
G36*
X126182066Y-60872030D02*
G01*
X126202830Y-60875110D01*
X126223192Y-60880210D01*
X126242956Y-60887282D01*
X126261932Y-60896257D01*
X126279936Y-60907049D01*
X126296797Y-60919553D01*
X126312350Y-60933650D01*
X126326447Y-60949203D01*
X126338951Y-60966064D01*
X126349743Y-60984068D01*
X126358718Y-61003044D01*
X126365790Y-61022808D01*
X126370890Y-61043170D01*
X126373970Y-61063934D01*
X126375000Y-61084900D01*
X126375000Y-61587100D01*
X126373970Y-61608066D01*
X126370890Y-61628830D01*
X126365790Y-61649192D01*
X126358718Y-61668956D01*
X126349743Y-61687932D01*
X126338951Y-61705936D01*
X126326447Y-61722797D01*
X126312350Y-61738350D01*
X126296797Y-61752447D01*
X126279936Y-61764951D01*
X126261932Y-61775743D01*
X126242956Y-61784718D01*
X126223192Y-61791790D01*
X126202830Y-61796890D01*
X126182066Y-61799970D01*
X126161100Y-61801000D01*
X125138900Y-61801000D01*
X125117934Y-61799970D01*
X125097170Y-61796890D01*
X125076808Y-61791790D01*
X125057044Y-61784718D01*
X125038068Y-61775743D01*
X125020064Y-61764951D01*
X125003203Y-61752447D01*
X124987650Y-61738350D01*
X124973553Y-61722797D01*
X124961049Y-61705936D01*
X124950257Y-61687932D01*
X124941282Y-61668956D01*
X124934210Y-61649192D01*
X124929110Y-61628830D01*
X124926030Y-61608066D01*
X124925000Y-61587100D01*
X124925000Y-61084900D01*
X124926030Y-61063934D01*
X124929110Y-61043170D01*
X124934210Y-61022808D01*
X124941282Y-61003044D01*
X124950257Y-60984068D01*
X124961049Y-60966064D01*
X124973553Y-60949203D01*
X124987650Y-60933650D01*
X125003203Y-60919553D01*
X125020064Y-60907049D01*
X125038068Y-60896257D01*
X125057044Y-60887282D01*
X125076808Y-60880210D01*
X125097170Y-60875110D01*
X125117934Y-60872030D01*
X125138900Y-60871000D01*
X126161100Y-60871000D01*
X126182066Y-60872030D01*
G37*
G04 #@! TD.AperFunction*
G04 #@! TA.AperFunction,SMDPad,CuDef*
G36*
X126182066Y-62142030D02*
G01*
X126202830Y-62145110D01*
X126223192Y-62150210D01*
X126242956Y-62157282D01*
X126261932Y-62166257D01*
X126279936Y-62177049D01*
X126296797Y-62189553D01*
X126312350Y-62203650D01*
X126326447Y-62219203D01*
X126338951Y-62236064D01*
X126349743Y-62254068D01*
X126358718Y-62273044D01*
X126365790Y-62292808D01*
X126370890Y-62313170D01*
X126373970Y-62333934D01*
X126375000Y-62354900D01*
X126375000Y-62857100D01*
X126373970Y-62878066D01*
X126370890Y-62898830D01*
X126365790Y-62919192D01*
X126358718Y-62938956D01*
X126349743Y-62957932D01*
X126338951Y-62975936D01*
X126326447Y-62992797D01*
X126312350Y-63008350D01*
X126296797Y-63022447D01*
X126279936Y-63034951D01*
X126261932Y-63045743D01*
X126242956Y-63054718D01*
X126223192Y-63061790D01*
X126202830Y-63066890D01*
X126182066Y-63069970D01*
X126161100Y-63071000D01*
X125138900Y-63071000D01*
X125117934Y-63069970D01*
X125097170Y-63066890D01*
X125076808Y-63061790D01*
X125057044Y-63054718D01*
X125038068Y-63045743D01*
X125020064Y-63034951D01*
X125003203Y-63022447D01*
X124987650Y-63008350D01*
X124973553Y-62992797D01*
X124961049Y-62975936D01*
X124950257Y-62957932D01*
X124941282Y-62938956D01*
X124934210Y-62919192D01*
X124929110Y-62898830D01*
X124926030Y-62878066D01*
X124925000Y-62857100D01*
X124925000Y-62354900D01*
X124926030Y-62333934D01*
X124929110Y-62313170D01*
X124934210Y-62292808D01*
X124941282Y-62273044D01*
X124950257Y-62254068D01*
X124961049Y-62236064D01*
X124973553Y-62219203D01*
X124987650Y-62203650D01*
X125003203Y-62189553D01*
X125020064Y-62177049D01*
X125038068Y-62166257D01*
X125057044Y-62157282D01*
X125076808Y-62150210D01*
X125097170Y-62145110D01*
X125117934Y-62142030D01*
X125138900Y-62141000D01*
X126161100Y-62141000D01*
X126182066Y-62142030D01*
G37*
G04 #@! TD.AperFunction*
G04 #@! TA.AperFunction,SMDPad,CuDef*
G36*
X126182066Y-63412030D02*
G01*
X126202830Y-63415110D01*
X126223192Y-63420210D01*
X126242956Y-63427282D01*
X126261932Y-63436257D01*
X126279936Y-63447049D01*
X126296797Y-63459553D01*
X126312350Y-63473650D01*
X126326447Y-63489203D01*
X126338951Y-63506064D01*
X126349743Y-63524068D01*
X126358718Y-63543044D01*
X126365790Y-63562808D01*
X126370890Y-63583170D01*
X126373970Y-63603934D01*
X126375000Y-63624900D01*
X126375000Y-64127100D01*
X126373970Y-64148066D01*
X126370890Y-64168830D01*
X126365790Y-64189192D01*
X126358718Y-64208956D01*
X126349743Y-64227932D01*
X126338951Y-64245936D01*
X126326447Y-64262797D01*
X126312350Y-64278350D01*
X126296797Y-64292447D01*
X126279936Y-64304951D01*
X126261932Y-64315743D01*
X126242956Y-64324718D01*
X126223192Y-64331790D01*
X126202830Y-64336890D01*
X126182066Y-64339970D01*
X126161100Y-64341000D01*
X125138900Y-64341000D01*
X125117934Y-64339970D01*
X125097170Y-64336890D01*
X125076808Y-64331790D01*
X125057044Y-64324718D01*
X125038068Y-64315743D01*
X125020064Y-64304951D01*
X125003203Y-64292447D01*
X124987650Y-64278350D01*
X124973553Y-64262797D01*
X124961049Y-64245936D01*
X124950257Y-64227932D01*
X124941282Y-64208956D01*
X124934210Y-64189192D01*
X124929110Y-64168830D01*
X124926030Y-64148066D01*
X124925000Y-64127100D01*
X124925000Y-63624900D01*
X124926030Y-63603934D01*
X124929110Y-63583170D01*
X124934210Y-63562808D01*
X124941282Y-63543044D01*
X124950257Y-63524068D01*
X124961049Y-63506064D01*
X124973553Y-63489203D01*
X124987650Y-63473650D01*
X125003203Y-63459553D01*
X125020064Y-63447049D01*
X125038068Y-63436257D01*
X125057044Y-63427282D01*
X125076808Y-63420210D01*
X125097170Y-63415110D01*
X125117934Y-63412030D01*
X125138900Y-63411000D01*
X126161100Y-63411000D01*
X126182066Y-63412030D01*
G37*
G04 #@! TD.AperFunction*
G04 #@! TA.AperFunction,SMDPad,CuDef*
G36*
X126182066Y-64682030D02*
G01*
X126202830Y-64685110D01*
X126223192Y-64690210D01*
X126242956Y-64697282D01*
X126261932Y-64706257D01*
X126279936Y-64717049D01*
X126296797Y-64729553D01*
X126312350Y-64743650D01*
X126326447Y-64759203D01*
X126338951Y-64776064D01*
X126349743Y-64794068D01*
X126358718Y-64813044D01*
X126365790Y-64832808D01*
X126370890Y-64853170D01*
X126373970Y-64873934D01*
X126375000Y-64894900D01*
X126375000Y-65397100D01*
X126373970Y-65418066D01*
X126370890Y-65438830D01*
X126365790Y-65459192D01*
X126358718Y-65478956D01*
X126349743Y-65497932D01*
X126338951Y-65515936D01*
X126326447Y-65532797D01*
X126312350Y-65548350D01*
X126296797Y-65562447D01*
X126279936Y-65574951D01*
X126261932Y-65585743D01*
X126242956Y-65594718D01*
X126223192Y-65601790D01*
X126202830Y-65606890D01*
X126182066Y-65609970D01*
X126161100Y-65611000D01*
X125138900Y-65611000D01*
X125117934Y-65609970D01*
X125097170Y-65606890D01*
X125076808Y-65601790D01*
X125057044Y-65594718D01*
X125038068Y-65585743D01*
X125020064Y-65574951D01*
X125003203Y-65562447D01*
X124987650Y-65548350D01*
X124973553Y-65532797D01*
X124961049Y-65515936D01*
X124950257Y-65497932D01*
X124941282Y-65478956D01*
X124934210Y-65459192D01*
X124929110Y-65438830D01*
X124926030Y-65418066D01*
X124925000Y-65397100D01*
X124925000Y-64894900D01*
X124926030Y-64873934D01*
X124929110Y-64853170D01*
X124934210Y-64832808D01*
X124941282Y-64813044D01*
X124950257Y-64794068D01*
X124961049Y-64776064D01*
X124973553Y-64759203D01*
X124987650Y-64743650D01*
X125003203Y-64729553D01*
X125020064Y-64717049D01*
X125038068Y-64706257D01*
X125057044Y-64697282D01*
X125076808Y-64690210D01*
X125097170Y-64685110D01*
X125117934Y-64682030D01*
X125138900Y-64681000D01*
X126161100Y-64681000D01*
X126182066Y-64682030D01*
G37*
G04 #@! TD.AperFunction*
G04 #@! TA.AperFunction,SMDPad,CuDef*
G36*
X126182066Y-65952030D02*
G01*
X126202830Y-65955110D01*
X126223192Y-65960210D01*
X126242956Y-65967282D01*
X126261932Y-65976257D01*
X126279936Y-65987049D01*
X126296797Y-65999553D01*
X126312350Y-66013650D01*
X126326447Y-66029203D01*
X126338951Y-66046064D01*
X126349743Y-66064068D01*
X126358718Y-66083044D01*
X126365790Y-66102808D01*
X126370890Y-66123170D01*
X126373970Y-66143934D01*
X126375000Y-66164900D01*
X126375000Y-66667100D01*
X126373970Y-66688066D01*
X126370890Y-66708830D01*
X126365790Y-66729192D01*
X126358718Y-66748956D01*
X126349743Y-66767932D01*
X126338951Y-66785936D01*
X126326447Y-66802797D01*
X126312350Y-66818350D01*
X126296797Y-66832447D01*
X126279936Y-66844951D01*
X126261932Y-66855743D01*
X126242956Y-66864718D01*
X126223192Y-66871790D01*
X126202830Y-66876890D01*
X126182066Y-66879970D01*
X126161100Y-66881000D01*
X125138900Y-66881000D01*
X125117934Y-66879970D01*
X125097170Y-66876890D01*
X125076808Y-66871790D01*
X125057044Y-66864718D01*
X125038068Y-66855743D01*
X125020064Y-66844951D01*
X125003203Y-66832447D01*
X124987650Y-66818350D01*
X124973553Y-66802797D01*
X124961049Y-66785936D01*
X124950257Y-66767932D01*
X124941282Y-66748956D01*
X124934210Y-66729192D01*
X124929110Y-66708830D01*
X124926030Y-66688066D01*
X124925000Y-66667100D01*
X124925000Y-66164900D01*
X124926030Y-66143934D01*
X124929110Y-66123170D01*
X124934210Y-66102808D01*
X124941282Y-66083044D01*
X124950257Y-66064068D01*
X124961049Y-66046064D01*
X124973553Y-66029203D01*
X124987650Y-66013650D01*
X125003203Y-65999553D01*
X125020064Y-65987049D01*
X125038068Y-65976257D01*
X125057044Y-65967282D01*
X125076808Y-65960210D01*
X125097170Y-65955110D01*
X125117934Y-65952030D01*
X125138900Y-65951000D01*
X126161100Y-65951000D01*
X126182066Y-65952030D01*
G37*
G04 #@! TD.AperFunction*
G04 #@! TA.AperFunction,SMDPad,CuDef*
G36*
X126182066Y-67222030D02*
G01*
X126202830Y-67225110D01*
X126223192Y-67230210D01*
X126242956Y-67237282D01*
X126261932Y-67246257D01*
X126279936Y-67257049D01*
X126296797Y-67269553D01*
X126312350Y-67283650D01*
X126326447Y-67299203D01*
X126338951Y-67316064D01*
X126349743Y-67334068D01*
X126358718Y-67353044D01*
X126365790Y-67372808D01*
X126370890Y-67393170D01*
X126373970Y-67413934D01*
X126375000Y-67434900D01*
X126375000Y-67937100D01*
X126373970Y-67958066D01*
X126370890Y-67978830D01*
X126365790Y-67999192D01*
X126358718Y-68018956D01*
X126349743Y-68037932D01*
X126338951Y-68055936D01*
X126326447Y-68072797D01*
X126312350Y-68088350D01*
X126296797Y-68102447D01*
X126279936Y-68114951D01*
X126261932Y-68125743D01*
X126242956Y-68134718D01*
X126223192Y-68141790D01*
X126202830Y-68146890D01*
X126182066Y-68149970D01*
X126161100Y-68151000D01*
X125138900Y-68151000D01*
X125117934Y-68149970D01*
X125097170Y-68146890D01*
X125076808Y-68141790D01*
X125057044Y-68134718D01*
X125038068Y-68125743D01*
X125020064Y-68114951D01*
X125003203Y-68102447D01*
X124987650Y-68088350D01*
X124973553Y-68072797D01*
X124961049Y-68055936D01*
X124950257Y-68037932D01*
X124941282Y-68018956D01*
X124934210Y-67999192D01*
X124929110Y-67978830D01*
X124926030Y-67958066D01*
X124925000Y-67937100D01*
X124925000Y-67434900D01*
X124926030Y-67413934D01*
X124929110Y-67393170D01*
X124934210Y-67372808D01*
X124941282Y-67353044D01*
X124950257Y-67334068D01*
X124961049Y-67316064D01*
X124973553Y-67299203D01*
X124987650Y-67283650D01*
X125003203Y-67269553D01*
X125020064Y-67257049D01*
X125038068Y-67246257D01*
X125057044Y-67237282D01*
X125076808Y-67230210D01*
X125097170Y-67225110D01*
X125117934Y-67222030D01*
X125138900Y-67221000D01*
X126161100Y-67221000D01*
X126182066Y-67222030D01*
G37*
G04 #@! TD.AperFunction*
G04 #@! TA.AperFunction,SMDPad,CuDef*
G36*
X126182066Y-68492030D02*
G01*
X126202830Y-68495110D01*
X126223192Y-68500210D01*
X126242956Y-68507282D01*
X126261932Y-68516257D01*
X126279936Y-68527049D01*
X126296797Y-68539553D01*
X126312350Y-68553650D01*
X126326447Y-68569203D01*
X126338951Y-68586064D01*
X126349743Y-68604068D01*
X126358718Y-68623044D01*
X126365790Y-68642808D01*
X126370890Y-68663170D01*
X126373970Y-68683934D01*
X126375000Y-68704900D01*
X126375000Y-69207100D01*
X126373970Y-69228066D01*
X126370890Y-69248830D01*
X126365790Y-69269192D01*
X126358718Y-69288956D01*
X126349743Y-69307932D01*
X126338951Y-69325936D01*
X126326447Y-69342797D01*
X126312350Y-69358350D01*
X126296797Y-69372447D01*
X126279936Y-69384951D01*
X126261932Y-69395743D01*
X126242956Y-69404718D01*
X126223192Y-69411790D01*
X126202830Y-69416890D01*
X126182066Y-69419970D01*
X126161100Y-69421000D01*
X125138900Y-69421000D01*
X125117934Y-69419970D01*
X125097170Y-69416890D01*
X125076808Y-69411790D01*
X125057044Y-69404718D01*
X125038068Y-69395743D01*
X125020064Y-69384951D01*
X125003203Y-69372447D01*
X124987650Y-69358350D01*
X124973553Y-69342797D01*
X124961049Y-69325936D01*
X124950257Y-69307932D01*
X124941282Y-69288956D01*
X124934210Y-69269192D01*
X124929110Y-69248830D01*
X124926030Y-69228066D01*
X124925000Y-69207100D01*
X124925000Y-68704900D01*
X124926030Y-68683934D01*
X124929110Y-68663170D01*
X124934210Y-68642808D01*
X124941282Y-68623044D01*
X124950257Y-68604068D01*
X124961049Y-68586064D01*
X124973553Y-68569203D01*
X124987650Y-68553650D01*
X125003203Y-68539553D01*
X125020064Y-68527049D01*
X125038068Y-68516257D01*
X125057044Y-68507282D01*
X125076808Y-68500210D01*
X125097170Y-68495110D01*
X125117934Y-68492030D01*
X125138900Y-68491000D01*
X126161100Y-68491000D01*
X126182066Y-68492030D01*
G37*
G04 #@! TD.AperFunction*
G04 #@! TA.AperFunction,SMDPad,CuDef*
G36*
X126182066Y-69762030D02*
G01*
X126202830Y-69765110D01*
X126223192Y-69770210D01*
X126242956Y-69777282D01*
X126261932Y-69786257D01*
X126279936Y-69797049D01*
X126296797Y-69809553D01*
X126312350Y-69823650D01*
X126326447Y-69839203D01*
X126338951Y-69856064D01*
X126349743Y-69874068D01*
X126358718Y-69893044D01*
X126365790Y-69912808D01*
X126370890Y-69933170D01*
X126373970Y-69953934D01*
X126375000Y-69974900D01*
X126375000Y-70477100D01*
X126373970Y-70498066D01*
X126370890Y-70518830D01*
X126365790Y-70539192D01*
X126358718Y-70558956D01*
X126349743Y-70577932D01*
X126338951Y-70595936D01*
X126326447Y-70612797D01*
X126312350Y-70628350D01*
X126296797Y-70642447D01*
X126279936Y-70654951D01*
X126261932Y-70665743D01*
X126242956Y-70674718D01*
X126223192Y-70681790D01*
X126202830Y-70686890D01*
X126182066Y-70689970D01*
X126161100Y-70691000D01*
X125138900Y-70691000D01*
X125117934Y-70689970D01*
X125097170Y-70686890D01*
X125076808Y-70681790D01*
X125057044Y-70674718D01*
X125038068Y-70665743D01*
X125020064Y-70654951D01*
X125003203Y-70642447D01*
X124987650Y-70628350D01*
X124973553Y-70612797D01*
X124961049Y-70595936D01*
X124950257Y-70577932D01*
X124941282Y-70558956D01*
X124934210Y-70539192D01*
X124929110Y-70518830D01*
X124926030Y-70498066D01*
X124925000Y-70477100D01*
X124925000Y-69974900D01*
X124926030Y-69953934D01*
X124929110Y-69933170D01*
X124934210Y-69912808D01*
X124941282Y-69893044D01*
X124950257Y-69874068D01*
X124961049Y-69856064D01*
X124973553Y-69839203D01*
X124987650Y-69823650D01*
X125003203Y-69809553D01*
X125020064Y-69797049D01*
X125038068Y-69786257D01*
X125057044Y-69777282D01*
X125076808Y-69770210D01*
X125097170Y-69765110D01*
X125117934Y-69762030D01*
X125138900Y-69761000D01*
X126161100Y-69761000D01*
X126182066Y-69762030D01*
G37*
G04 #@! TD.AperFunction*
G04 #@! TA.AperFunction,SMDPad,CuDef*
G36*
X126182066Y-71032030D02*
G01*
X126202830Y-71035110D01*
X126223192Y-71040210D01*
X126242956Y-71047282D01*
X126261932Y-71056257D01*
X126279936Y-71067049D01*
X126296797Y-71079553D01*
X126312350Y-71093650D01*
X126326447Y-71109203D01*
X126338951Y-71126064D01*
X126349743Y-71144068D01*
X126358718Y-71163044D01*
X126365790Y-71182808D01*
X126370890Y-71203170D01*
X126373970Y-71223934D01*
X126375000Y-71244900D01*
X126375000Y-71747100D01*
X126373970Y-71768066D01*
X126370890Y-71788830D01*
X126365790Y-71809192D01*
X126358718Y-71828956D01*
X126349743Y-71847932D01*
X126338951Y-71865936D01*
X126326447Y-71882797D01*
X126312350Y-71898350D01*
X126296797Y-71912447D01*
X126279936Y-71924951D01*
X126261932Y-71935743D01*
X126242956Y-71944718D01*
X126223192Y-71951790D01*
X126202830Y-71956890D01*
X126182066Y-71959970D01*
X126161100Y-71961000D01*
X125138900Y-71961000D01*
X125117934Y-71959970D01*
X125097170Y-71956890D01*
X125076808Y-71951790D01*
X125057044Y-71944718D01*
X125038068Y-71935743D01*
X125020064Y-71924951D01*
X125003203Y-71912447D01*
X124987650Y-71898350D01*
X124973553Y-71882797D01*
X124961049Y-71865936D01*
X124950257Y-71847932D01*
X124941282Y-71828956D01*
X124934210Y-71809192D01*
X124929110Y-71788830D01*
X124926030Y-71768066D01*
X124925000Y-71747100D01*
X124925000Y-71244900D01*
X124926030Y-71223934D01*
X124929110Y-71203170D01*
X124934210Y-71182808D01*
X124941282Y-71163044D01*
X124950257Y-71144068D01*
X124961049Y-71126064D01*
X124973553Y-71109203D01*
X124987650Y-71093650D01*
X125003203Y-71079553D01*
X125020064Y-71067049D01*
X125038068Y-71056257D01*
X125057044Y-71047282D01*
X125076808Y-71040210D01*
X125097170Y-71035110D01*
X125117934Y-71032030D01*
X125138900Y-71031000D01*
X126161100Y-71031000D01*
X126182066Y-71032030D01*
G37*
G04 #@! TD.AperFunction*
G04 #@! TA.AperFunction,SMDPad,CuDef*
G36*
X126182066Y-72302030D02*
G01*
X126202830Y-72305110D01*
X126223192Y-72310210D01*
X126242956Y-72317282D01*
X126261932Y-72326257D01*
X126279936Y-72337049D01*
X126296797Y-72349553D01*
X126312350Y-72363650D01*
X126326447Y-72379203D01*
X126338951Y-72396064D01*
X126349743Y-72414068D01*
X126358718Y-72433044D01*
X126365790Y-72452808D01*
X126370890Y-72473170D01*
X126373970Y-72493934D01*
X126375000Y-72514900D01*
X126375000Y-73017100D01*
X126373970Y-73038066D01*
X126370890Y-73058830D01*
X126365790Y-73079192D01*
X126358718Y-73098956D01*
X126349743Y-73117932D01*
X126338951Y-73135936D01*
X126326447Y-73152797D01*
X126312350Y-73168350D01*
X126296797Y-73182447D01*
X126279936Y-73194951D01*
X126261932Y-73205743D01*
X126242956Y-73214718D01*
X126223192Y-73221790D01*
X126202830Y-73226890D01*
X126182066Y-73229970D01*
X126161100Y-73231000D01*
X125138900Y-73231000D01*
X125117934Y-73229970D01*
X125097170Y-73226890D01*
X125076808Y-73221790D01*
X125057044Y-73214718D01*
X125038068Y-73205743D01*
X125020064Y-73194951D01*
X125003203Y-73182447D01*
X124987650Y-73168350D01*
X124973553Y-73152797D01*
X124961049Y-73135936D01*
X124950257Y-73117932D01*
X124941282Y-73098956D01*
X124934210Y-73079192D01*
X124929110Y-73058830D01*
X124926030Y-73038066D01*
X124925000Y-73017100D01*
X124925000Y-72514900D01*
X124926030Y-72493934D01*
X124929110Y-72473170D01*
X124934210Y-72452808D01*
X124941282Y-72433044D01*
X124950257Y-72414068D01*
X124961049Y-72396064D01*
X124973553Y-72379203D01*
X124987650Y-72363650D01*
X125003203Y-72349553D01*
X125020064Y-72337049D01*
X125038068Y-72326257D01*
X125057044Y-72317282D01*
X125076808Y-72310210D01*
X125097170Y-72305110D01*
X125117934Y-72302030D01*
X125138900Y-72301000D01*
X126161100Y-72301000D01*
X126182066Y-72302030D01*
G37*
G04 #@! TD.AperFunction*
G04 #@! TA.AperFunction,SMDPad,CuDef*
G36*
X126182066Y-73572030D02*
G01*
X126202830Y-73575110D01*
X126223192Y-73580210D01*
X126242956Y-73587282D01*
X126261932Y-73596257D01*
X126279936Y-73607049D01*
X126296797Y-73619553D01*
X126312350Y-73633650D01*
X126326447Y-73649203D01*
X126338951Y-73666064D01*
X126349743Y-73684068D01*
X126358718Y-73703044D01*
X126365790Y-73722808D01*
X126370890Y-73743170D01*
X126373970Y-73763934D01*
X126375000Y-73784900D01*
X126375000Y-74287100D01*
X126373970Y-74308066D01*
X126370890Y-74328830D01*
X126365790Y-74349192D01*
X126358718Y-74368956D01*
X126349743Y-74387932D01*
X126338951Y-74405936D01*
X126326447Y-74422797D01*
X126312350Y-74438350D01*
X126296797Y-74452447D01*
X126279936Y-74464951D01*
X126261932Y-74475743D01*
X126242956Y-74484718D01*
X126223192Y-74491790D01*
X126202830Y-74496890D01*
X126182066Y-74499970D01*
X126161100Y-74501000D01*
X125138900Y-74501000D01*
X125117934Y-74499970D01*
X125097170Y-74496890D01*
X125076808Y-74491790D01*
X125057044Y-74484718D01*
X125038068Y-74475743D01*
X125020064Y-74464951D01*
X125003203Y-74452447D01*
X124987650Y-74438350D01*
X124973553Y-74422797D01*
X124961049Y-74405936D01*
X124950257Y-74387932D01*
X124941282Y-74368956D01*
X124934210Y-74349192D01*
X124929110Y-74328830D01*
X124926030Y-74308066D01*
X124925000Y-74287100D01*
X124925000Y-73784900D01*
X124926030Y-73763934D01*
X124929110Y-73743170D01*
X124934210Y-73722808D01*
X124941282Y-73703044D01*
X124950257Y-73684068D01*
X124961049Y-73666064D01*
X124973553Y-73649203D01*
X124987650Y-73633650D01*
X125003203Y-73619553D01*
X125020064Y-73607049D01*
X125038068Y-73596257D01*
X125057044Y-73587282D01*
X125076808Y-73580210D01*
X125097170Y-73575110D01*
X125117934Y-73572030D01*
X125138900Y-73571000D01*
X126161100Y-73571000D01*
X126182066Y-73572030D01*
G37*
G04 #@! TD.AperFunction*
G04 #@! TA.AperFunction,SMDPad,CuDef*
G36*
X126182066Y-74842030D02*
G01*
X126202830Y-74845110D01*
X126223192Y-74850210D01*
X126242956Y-74857282D01*
X126261932Y-74866257D01*
X126279936Y-74877049D01*
X126296797Y-74889553D01*
X126312350Y-74903650D01*
X126326447Y-74919203D01*
X126338951Y-74936064D01*
X126349743Y-74954068D01*
X126358718Y-74973044D01*
X126365790Y-74992808D01*
X126370890Y-75013170D01*
X126373970Y-75033934D01*
X126375000Y-75054900D01*
X126375000Y-75557100D01*
X126373970Y-75578066D01*
X126370890Y-75598830D01*
X126365790Y-75619192D01*
X126358718Y-75638956D01*
X126349743Y-75657932D01*
X126338951Y-75675936D01*
X126326447Y-75692797D01*
X126312350Y-75708350D01*
X126296797Y-75722447D01*
X126279936Y-75734951D01*
X126261932Y-75745743D01*
X126242956Y-75754718D01*
X126223192Y-75761790D01*
X126202830Y-75766890D01*
X126182066Y-75769970D01*
X126161100Y-75771000D01*
X125138900Y-75771000D01*
X125117934Y-75769970D01*
X125097170Y-75766890D01*
X125076808Y-75761790D01*
X125057044Y-75754718D01*
X125038068Y-75745743D01*
X125020064Y-75734951D01*
X125003203Y-75722447D01*
X124987650Y-75708350D01*
X124973553Y-75692797D01*
X124961049Y-75675936D01*
X124950257Y-75657932D01*
X124941282Y-75638956D01*
X124934210Y-75619192D01*
X124929110Y-75598830D01*
X124926030Y-75578066D01*
X124925000Y-75557100D01*
X124925000Y-75054900D01*
X124926030Y-75033934D01*
X124929110Y-75013170D01*
X124934210Y-74992808D01*
X124941282Y-74973044D01*
X124950257Y-74954068D01*
X124961049Y-74936064D01*
X124973553Y-74919203D01*
X124987650Y-74903650D01*
X125003203Y-74889553D01*
X125020064Y-74877049D01*
X125038068Y-74866257D01*
X125057044Y-74857282D01*
X125076808Y-74850210D01*
X125097170Y-74845110D01*
X125117934Y-74842030D01*
X125138900Y-74841000D01*
X126161100Y-74841000D01*
X126182066Y-74842030D01*
G37*
G04 #@! TD.AperFunction*
G04 #@! TA.AperFunction,SMDPad,CuDef*
G36*
X126182066Y-76112030D02*
G01*
X126202830Y-76115110D01*
X126223192Y-76120210D01*
X126242956Y-76127282D01*
X126261932Y-76136257D01*
X126279936Y-76147049D01*
X126296797Y-76159553D01*
X126312350Y-76173650D01*
X126326447Y-76189203D01*
X126338951Y-76206064D01*
X126349743Y-76224068D01*
X126358718Y-76243044D01*
X126365790Y-76262808D01*
X126370890Y-76283170D01*
X126373970Y-76303934D01*
X126375000Y-76324900D01*
X126375000Y-76827100D01*
X126373970Y-76848066D01*
X126370890Y-76868830D01*
X126365790Y-76889192D01*
X126358718Y-76908956D01*
X126349743Y-76927932D01*
X126338951Y-76945936D01*
X126326447Y-76962797D01*
X126312350Y-76978350D01*
X126296797Y-76992447D01*
X126279936Y-77004951D01*
X126261932Y-77015743D01*
X126242956Y-77024718D01*
X126223192Y-77031790D01*
X126202830Y-77036890D01*
X126182066Y-77039970D01*
X126161100Y-77041000D01*
X125138900Y-77041000D01*
X125117934Y-77039970D01*
X125097170Y-77036890D01*
X125076808Y-77031790D01*
X125057044Y-77024718D01*
X125038068Y-77015743D01*
X125020064Y-77004951D01*
X125003203Y-76992447D01*
X124987650Y-76978350D01*
X124973553Y-76962797D01*
X124961049Y-76945936D01*
X124950257Y-76927932D01*
X124941282Y-76908956D01*
X124934210Y-76889192D01*
X124929110Y-76868830D01*
X124926030Y-76848066D01*
X124925000Y-76827100D01*
X124925000Y-76324900D01*
X124926030Y-76303934D01*
X124929110Y-76283170D01*
X124934210Y-76262808D01*
X124941282Y-76243044D01*
X124950257Y-76224068D01*
X124961049Y-76206064D01*
X124973553Y-76189203D01*
X124987650Y-76173650D01*
X125003203Y-76159553D01*
X125020064Y-76147049D01*
X125038068Y-76136257D01*
X125057044Y-76127282D01*
X125076808Y-76120210D01*
X125097170Y-76115110D01*
X125117934Y-76112030D01*
X125138900Y-76111000D01*
X126161100Y-76111000D01*
X126182066Y-76112030D01*
G37*
G04 #@! TD.AperFunction*
G04 #@! TA.AperFunction,SMDPad,CuDef*
G36*
X126182066Y-77382030D02*
G01*
X126202830Y-77385110D01*
X126223192Y-77390210D01*
X126242956Y-77397282D01*
X126261932Y-77406257D01*
X126279936Y-77417049D01*
X126296797Y-77429553D01*
X126312350Y-77443650D01*
X126326447Y-77459203D01*
X126338951Y-77476064D01*
X126349743Y-77494068D01*
X126358718Y-77513044D01*
X126365790Y-77532808D01*
X126370890Y-77553170D01*
X126373970Y-77573934D01*
X126375000Y-77594900D01*
X126375000Y-78097100D01*
X126373970Y-78118066D01*
X126370890Y-78138830D01*
X126365790Y-78159192D01*
X126358718Y-78178956D01*
X126349743Y-78197932D01*
X126338951Y-78215936D01*
X126326447Y-78232797D01*
X126312350Y-78248350D01*
X126296797Y-78262447D01*
X126279936Y-78274951D01*
X126261932Y-78285743D01*
X126242956Y-78294718D01*
X126223192Y-78301790D01*
X126202830Y-78306890D01*
X126182066Y-78309970D01*
X126161100Y-78311000D01*
X125138900Y-78311000D01*
X125117934Y-78309970D01*
X125097170Y-78306890D01*
X125076808Y-78301790D01*
X125057044Y-78294718D01*
X125038068Y-78285743D01*
X125020064Y-78274951D01*
X125003203Y-78262447D01*
X124987650Y-78248350D01*
X124973553Y-78232797D01*
X124961049Y-78215936D01*
X124950257Y-78197932D01*
X124941282Y-78178956D01*
X124934210Y-78159192D01*
X124929110Y-78138830D01*
X124926030Y-78118066D01*
X124925000Y-78097100D01*
X124925000Y-77594900D01*
X124926030Y-77573934D01*
X124929110Y-77553170D01*
X124934210Y-77532808D01*
X124941282Y-77513044D01*
X124950257Y-77494068D01*
X124961049Y-77476064D01*
X124973553Y-77459203D01*
X124987650Y-77443650D01*
X125003203Y-77429553D01*
X125020064Y-77417049D01*
X125038068Y-77406257D01*
X125057044Y-77397282D01*
X125076808Y-77390210D01*
X125097170Y-77385110D01*
X125117934Y-77382030D01*
X125138900Y-77381000D01*
X126161100Y-77381000D01*
X126182066Y-77382030D01*
G37*
G04 #@! TD.AperFunction*
G04 #@! TA.AperFunction,SMDPad,CuDef*
G36*
X126182066Y-78652030D02*
G01*
X126202830Y-78655110D01*
X126223192Y-78660210D01*
X126242956Y-78667282D01*
X126261932Y-78676257D01*
X126279936Y-78687049D01*
X126296797Y-78699553D01*
X126312350Y-78713650D01*
X126326447Y-78729203D01*
X126338951Y-78746064D01*
X126349743Y-78764068D01*
X126358718Y-78783044D01*
X126365790Y-78802808D01*
X126370890Y-78823170D01*
X126373970Y-78843934D01*
X126375000Y-78864900D01*
X126375000Y-79367100D01*
X126373970Y-79388066D01*
X126370890Y-79408830D01*
X126365790Y-79429192D01*
X126358718Y-79448956D01*
X126349743Y-79467932D01*
X126338951Y-79485936D01*
X126326447Y-79502797D01*
X126312350Y-79518350D01*
X126296797Y-79532447D01*
X126279936Y-79544951D01*
X126261932Y-79555743D01*
X126242956Y-79564718D01*
X126223192Y-79571790D01*
X126202830Y-79576890D01*
X126182066Y-79579970D01*
X126161100Y-79581000D01*
X125138900Y-79581000D01*
X125117934Y-79579970D01*
X125097170Y-79576890D01*
X125076808Y-79571790D01*
X125057044Y-79564718D01*
X125038068Y-79555743D01*
X125020064Y-79544951D01*
X125003203Y-79532447D01*
X124987650Y-79518350D01*
X124973553Y-79502797D01*
X124961049Y-79485936D01*
X124950257Y-79467932D01*
X124941282Y-79448956D01*
X124934210Y-79429192D01*
X124929110Y-79408830D01*
X124926030Y-79388066D01*
X124925000Y-79367100D01*
X124925000Y-78864900D01*
X124926030Y-78843934D01*
X124929110Y-78823170D01*
X124934210Y-78802808D01*
X124941282Y-78783044D01*
X124950257Y-78764068D01*
X124961049Y-78746064D01*
X124973553Y-78729203D01*
X124987650Y-78713650D01*
X125003203Y-78699553D01*
X125020064Y-78687049D01*
X125038068Y-78676257D01*
X125057044Y-78667282D01*
X125076808Y-78660210D01*
X125097170Y-78655110D01*
X125117934Y-78652030D01*
X125138900Y-78651000D01*
X126161100Y-78651000D01*
X126182066Y-78652030D01*
G37*
G04 #@! TD.AperFunction*
G04 #@! TA.AperFunction,SMDPad,CuDef*
G36*
X126182066Y-79922030D02*
G01*
X126202830Y-79925110D01*
X126223192Y-79930210D01*
X126242956Y-79937282D01*
X126261932Y-79946257D01*
X126279936Y-79957049D01*
X126296797Y-79969553D01*
X126312350Y-79983650D01*
X126326447Y-79999203D01*
X126338951Y-80016064D01*
X126349743Y-80034068D01*
X126358718Y-80053044D01*
X126365790Y-80072808D01*
X126370890Y-80093170D01*
X126373970Y-80113934D01*
X126375000Y-80134900D01*
X126375000Y-80637100D01*
X126373970Y-80658066D01*
X126370890Y-80678830D01*
X126365790Y-80699192D01*
X126358718Y-80718956D01*
X126349743Y-80737932D01*
X126338951Y-80755936D01*
X126326447Y-80772797D01*
X126312350Y-80788350D01*
X126296797Y-80802447D01*
X126279936Y-80814951D01*
X126261932Y-80825743D01*
X126242956Y-80834718D01*
X126223192Y-80841790D01*
X126202830Y-80846890D01*
X126182066Y-80849970D01*
X126161100Y-80851000D01*
X125138900Y-80851000D01*
X125117934Y-80849970D01*
X125097170Y-80846890D01*
X125076808Y-80841790D01*
X125057044Y-80834718D01*
X125038068Y-80825743D01*
X125020064Y-80814951D01*
X125003203Y-80802447D01*
X124987650Y-80788350D01*
X124973553Y-80772797D01*
X124961049Y-80755936D01*
X124950257Y-80737932D01*
X124941282Y-80718956D01*
X124934210Y-80699192D01*
X124929110Y-80678830D01*
X124926030Y-80658066D01*
X124925000Y-80637100D01*
X124925000Y-80134900D01*
X124926030Y-80113934D01*
X124929110Y-80093170D01*
X124934210Y-80072808D01*
X124941282Y-80053044D01*
X124950257Y-80034068D01*
X124961049Y-80016064D01*
X124973553Y-79999203D01*
X124987650Y-79983650D01*
X125003203Y-79969553D01*
X125020064Y-79957049D01*
X125038068Y-79946257D01*
X125057044Y-79937282D01*
X125076808Y-79930210D01*
X125097170Y-79925110D01*
X125117934Y-79922030D01*
X125138900Y-79921000D01*
X126161100Y-79921000D01*
X126182066Y-79922030D01*
G37*
G04 #@! TD.AperFunction*
G04 #@! TA.AperFunction,SMDPad,CuDef*
G36*
X126182066Y-81192030D02*
G01*
X126202830Y-81195110D01*
X126223192Y-81200210D01*
X126242956Y-81207282D01*
X126261932Y-81216257D01*
X126279936Y-81227049D01*
X126296797Y-81239553D01*
X126312350Y-81253650D01*
X126326447Y-81269203D01*
X126338951Y-81286064D01*
X126349743Y-81304068D01*
X126358718Y-81323044D01*
X126365790Y-81342808D01*
X126370890Y-81363170D01*
X126373970Y-81383934D01*
X126375000Y-81404900D01*
X126375000Y-81907100D01*
X126373970Y-81928066D01*
X126370890Y-81948830D01*
X126365790Y-81969192D01*
X126358718Y-81988956D01*
X126349743Y-82007932D01*
X126338951Y-82025936D01*
X126326447Y-82042797D01*
X126312350Y-82058350D01*
X126296797Y-82072447D01*
X126279936Y-82084951D01*
X126261932Y-82095743D01*
X126242956Y-82104718D01*
X126223192Y-82111790D01*
X126202830Y-82116890D01*
X126182066Y-82119970D01*
X126161100Y-82121000D01*
X125138900Y-82121000D01*
X125117934Y-82119970D01*
X125097170Y-82116890D01*
X125076808Y-82111790D01*
X125057044Y-82104718D01*
X125038068Y-82095743D01*
X125020064Y-82084951D01*
X125003203Y-82072447D01*
X124987650Y-82058350D01*
X124973553Y-82042797D01*
X124961049Y-82025936D01*
X124950257Y-82007932D01*
X124941282Y-81988956D01*
X124934210Y-81969192D01*
X124929110Y-81948830D01*
X124926030Y-81928066D01*
X124925000Y-81907100D01*
X124925000Y-81404900D01*
X124926030Y-81383934D01*
X124929110Y-81363170D01*
X124934210Y-81342808D01*
X124941282Y-81323044D01*
X124950257Y-81304068D01*
X124961049Y-81286064D01*
X124973553Y-81269203D01*
X124987650Y-81253650D01*
X125003203Y-81239553D01*
X125020064Y-81227049D01*
X125038068Y-81216257D01*
X125057044Y-81207282D01*
X125076808Y-81200210D01*
X125097170Y-81195110D01*
X125117934Y-81192030D01*
X125138900Y-81191000D01*
X126161100Y-81191000D01*
X126182066Y-81192030D01*
G37*
G04 #@! TD.AperFunction*
G04 #@! TA.AperFunction,SMDPad,CuDef*
G36*
X108562066Y-81192030D02*
G01*
X108582830Y-81195110D01*
X108603192Y-81200210D01*
X108622956Y-81207282D01*
X108641932Y-81216257D01*
X108659936Y-81227049D01*
X108676797Y-81239553D01*
X108692350Y-81253650D01*
X108706447Y-81269203D01*
X108718951Y-81286064D01*
X108729743Y-81304068D01*
X108738718Y-81323044D01*
X108745790Y-81342808D01*
X108750890Y-81363170D01*
X108753970Y-81383934D01*
X108755000Y-81404900D01*
X108755000Y-81907100D01*
X108753970Y-81928066D01*
X108750890Y-81948830D01*
X108745790Y-81969192D01*
X108738718Y-81988956D01*
X108729743Y-82007932D01*
X108718951Y-82025936D01*
X108706447Y-82042797D01*
X108692350Y-82058350D01*
X108676797Y-82072447D01*
X108659936Y-82084951D01*
X108641932Y-82095743D01*
X108622956Y-82104718D01*
X108603192Y-82111790D01*
X108582830Y-82116890D01*
X108562066Y-82119970D01*
X108541100Y-82121000D01*
X107518900Y-82121000D01*
X107497934Y-82119970D01*
X107477170Y-82116890D01*
X107456808Y-82111790D01*
X107437044Y-82104718D01*
X107418068Y-82095743D01*
X107400064Y-82084951D01*
X107383203Y-82072447D01*
X107367650Y-82058350D01*
X107353553Y-82042797D01*
X107341049Y-82025936D01*
X107330257Y-82007932D01*
X107321282Y-81988956D01*
X107314210Y-81969192D01*
X107309110Y-81948830D01*
X107306030Y-81928066D01*
X107305000Y-81907100D01*
X107305000Y-81404900D01*
X107306030Y-81383934D01*
X107309110Y-81363170D01*
X107314210Y-81342808D01*
X107321282Y-81323044D01*
X107330257Y-81304068D01*
X107341049Y-81286064D01*
X107353553Y-81269203D01*
X107367650Y-81253650D01*
X107383203Y-81239553D01*
X107400064Y-81227049D01*
X107418068Y-81216257D01*
X107437044Y-81207282D01*
X107456808Y-81200210D01*
X107477170Y-81195110D01*
X107497934Y-81192030D01*
X107518900Y-81191000D01*
X108541100Y-81191000D01*
X108562066Y-81192030D01*
G37*
G04 #@! TD.AperFunction*
G04 #@! TA.AperFunction,SMDPad,CuDef*
G36*
X108562066Y-79922030D02*
G01*
X108582830Y-79925110D01*
X108603192Y-79930210D01*
X108622956Y-79937282D01*
X108641932Y-79946257D01*
X108659936Y-79957049D01*
X108676797Y-79969553D01*
X108692350Y-79983650D01*
X108706447Y-79999203D01*
X108718951Y-80016064D01*
X108729743Y-80034068D01*
X108738718Y-80053044D01*
X108745790Y-80072808D01*
X108750890Y-80093170D01*
X108753970Y-80113934D01*
X108755000Y-80134900D01*
X108755000Y-80637100D01*
X108753970Y-80658066D01*
X108750890Y-80678830D01*
X108745790Y-80699192D01*
X108738718Y-80718956D01*
X108729743Y-80737932D01*
X108718951Y-80755936D01*
X108706447Y-80772797D01*
X108692350Y-80788350D01*
X108676797Y-80802447D01*
X108659936Y-80814951D01*
X108641932Y-80825743D01*
X108622956Y-80834718D01*
X108603192Y-80841790D01*
X108582830Y-80846890D01*
X108562066Y-80849970D01*
X108541100Y-80851000D01*
X107518900Y-80851000D01*
X107497934Y-80849970D01*
X107477170Y-80846890D01*
X107456808Y-80841790D01*
X107437044Y-80834718D01*
X107418068Y-80825743D01*
X107400064Y-80814951D01*
X107383203Y-80802447D01*
X107367650Y-80788350D01*
X107353553Y-80772797D01*
X107341049Y-80755936D01*
X107330257Y-80737932D01*
X107321282Y-80718956D01*
X107314210Y-80699192D01*
X107309110Y-80678830D01*
X107306030Y-80658066D01*
X107305000Y-80637100D01*
X107305000Y-80134900D01*
X107306030Y-80113934D01*
X107309110Y-80093170D01*
X107314210Y-80072808D01*
X107321282Y-80053044D01*
X107330257Y-80034068D01*
X107341049Y-80016064D01*
X107353553Y-79999203D01*
X107367650Y-79983650D01*
X107383203Y-79969553D01*
X107400064Y-79957049D01*
X107418068Y-79946257D01*
X107437044Y-79937282D01*
X107456808Y-79930210D01*
X107477170Y-79925110D01*
X107497934Y-79922030D01*
X107518900Y-79921000D01*
X108541100Y-79921000D01*
X108562066Y-79922030D01*
G37*
G04 #@! TD.AperFunction*
G04 #@! TA.AperFunction,SMDPad,CuDef*
G36*
X108562066Y-78652030D02*
G01*
X108582830Y-78655110D01*
X108603192Y-78660210D01*
X108622956Y-78667282D01*
X108641932Y-78676257D01*
X108659936Y-78687049D01*
X108676797Y-78699553D01*
X108692350Y-78713650D01*
X108706447Y-78729203D01*
X108718951Y-78746064D01*
X108729743Y-78764068D01*
X108738718Y-78783044D01*
X108745790Y-78802808D01*
X108750890Y-78823170D01*
X108753970Y-78843934D01*
X108755000Y-78864900D01*
X108755000Y-79367100D01*
X108753970Y-79388066D01*
X108750890Y-79408830D01*
X108745790Y-79429192D01*
X108738718Y-79448956D01*
X108729743Y-79467932D01*
X108718951Y-79485936D01*
X108706447Y-79502797D01*
X108692350Y-79518350D01*
X108676797Y-79532447D01*
X108659936Y-79544951D01*
X108641932Y-79555743D01*
X108622956Y-79564718D01*
X108603192Y-79571790D01*
X108582830Y-79576890D01*
X108562066Y-79579970D01*
X108541100Y-79581000D01*
X107518900Y-79581000D01*
X107497934Y-79579970D01*
X107477170Y-79576890D01*
X107456808Y-79571790D01*
X107437044Y-79564718D01*
X107418068Y-79555743D01*
X107400064Y-79544951D01*
X107383203Y-79532447D01*
X107367650Y-79518350D01*
X107353553Y-79502797D01*
X107341049Y-79485936D01*
X107330257Y-79467932D01*
X107321282Y-79448956D01*
X107314210Y-79429192D01*
X107309110Y-79408830D01*
X107306030Y-79388066D01*
X107305000Y-79367100D01*
X107305000Y-78864900D01*
X107306030Y-78843934D01*
X107309110Y-78823170D01*
X107314210Y-78802808D01*
X107321282Y-78783044D01*
X107330257Y-78764068D01*
X107341049Y-78746064D01*
X107353553Y-78729203D01*
X107367650Y-78713650D01*
X107383203Y-78699553D01*
X107400064Y-78687049D01*
X107418068Y-78676257D01*
X107437044Y-78667282D01*
X107456808Y-78660210D01*
X107477170Y-78655110D01*
X107497934Y-78652030D01*
X107518900Y-78651000D01*
X108541100Y-78651000D01*
X108562066Y-78652030D01*
G37*
G04 #@! TD.AperFunction*
G04 #@! TA.AperFunction,SMDPad,CuDef*
G36*
X108562066Y-77382030D02*
G01*
X108582830Y-77385110D01*
X108603192Y-77390210D01*
X108622956Y-77397282D01*
X108641932Y-77406257D01*
X108659936Y-77417049D01*
X108676797Y-77429553D01*
X108692350Y-77443650D01*
X108706447Y-77459203D01*
X108718951Y-77476064D01*
X108729743Y-77494068D01*
X108738718Y-77513044D01*
X108745790Y-77532808D01*
X108750890Y-77553170D01*
X108753970Y-77573934D01*
X108755000Y-77594900D01*
X108755000Y-78097100D01*
X108753970Y-78118066D01*
X108750890Y-78138830D01*
X108745790Y-78159192D01*
X108738718Y-78178956D01*
X108729743Y-78197932D01*
X108718951Y-78215936D01*
X108706447Y-78232797D01*
X108692350Y-78248350D01*
X108676797Y-78262447D01*
X108659936Y-78274951D01*
X108641932Y-78285743D01*
X108622956Y-78294718D01*
X108603192Y-78301790D01*
X108582830Y-78306890D01*
X108562066Y-78309970D01*
X108541100Y-78311000D01*
X107518900Y-78311000D01*
X107497934Y-78309970D01*
X107477170Y-78306890D01*
X107456808Y-78301790D01*
X107437044Y-78294718D01*
X107418068Y-78285743D01*
X107400064Y-78274951D01*
X107383203Y-78262447D01*
X107367650Y-78248350D01*
X107353553Y-78232797D01*
X107341049Y-78215936D01*
X107330257Y-78197932D01*
X107321282Y-78178956D01*
X107314210Y-78159192D01*
X107309110Y-78138830D01*
X107306030Y-78118066D01*
X107305000Y-78097100D01*
X107305000Y-77594900D01*
X107306030Y-77573934D01*
X107309110Y-77553170D01*
X107314210Y-77532808D01*
X107321282Y-77513044D01*
X107330257Y-77494068D01*
X107341049Y-77476064D01*
X107353553Y-77459203D01*
X107367650Y-77443650D01*
X107383203Y-77429553D01*
X107400064Y-77417049D01*
X107418068Y-77406257D01*
X107437044Y-77397282D01*
X107456808Y-77390210D01*
X107477170Y-77385110D01*
X107497934Y-77382030D01*
X107518900Y-77381000D01*
X108541100Y-77381000D01*
X108562066Y-77382030D01*
G37*
G04 #@! TD.AperFunction*
G04 #@! TA.AperFunction,SMDPad,CuDef*
G36*
X108562066Y-76112030D02*
G01*
X108582830Y-76115110D01*
X108603192Y-76120210D01*
X108622956Y-76127282D01*
X108641932Y-76136257D01*
X108659936Y-76147049D01*
X108676797Y-76159553D01*
X108692350Y-76173650D01*
X108706447Y-76189203D01*
X108718951Y-76206064D01*
X108729743Y-76224068D01*
X108738718Y-76243044D01*
X108745790Y-76262808D01*
X108750890Y-76283170D01*
X108753970Y-76303934D01*
X108755000Y-76324900D01*
X108755000Y-76827100D01*
X108753970Y-76848066D01*
X108750890Y-76868830D01*
X108745790Y-76889192D01*
X108738718Y-76908956D01*
X108729743Y-76927932D01*
X108718951Y-76945936D01*
X108706447Y-76962797D01*
X108692350Y-76978350D01*
X108676797Y-76992447D01*
X108659936Y-77004951D01*
X108641932Y-77015743D01*
X108622956Y-77024718D01*
X108603192Y-77031790D01*
X108582830Y-77036890D01*
X108562066Y-77039970D01*
X108541100Y-77041000D01*
X107518900Y-77041000D01*
X107497934Y-77039970D01*
X107477170Y-77036890D01*
X107456808Y-77031790D01*
X107437044Y-77024718D01*
X107418068Y-77015743D01*
X107400064Y-77004951D01*
X107383203Y-76992447D01*
X107367650Y-76978350D01*
X107353553Y-76962797D01*
X107341049Y-76945936D01*
X107330257Y-76927932D01*
X107321282Y-76908956D01*
X107314210Y-76889192D01*
X107309110Y-76868830D01*
X107306030Y-76848066D01*
X107305000Y-76827100D01*
X107305000Y-76324900D01*
X107306030Y-76303934D01*
X107309110Y-76283170D01*
X107314210Y-76262808D01*
X107321282Y-76243044D01*
X107330257Y-76224068D01*
X107341049Y-76206064D01*
X107353553Y-76189203D01*
X107367650Y-76173650D01*
X107383203Y-76159553D01*
X107400064Y-76147049D01*
X107418068Y-76136257D01*
X107437044Y-76127282D01*
X107456808Y-76120210D01*
X107477170Y-76115110D01*
X107497934Y-76112030D01*
X107518900Y-76111000D01*
X108541100Y-76111000D01*
X108562066Y-76112030D01*
G37*
G04 #@! TD.AperFunction*
G04 #@! TA.AperFunction,SMDPad,CuDef*
G36*
X108562066Y-74842030D02*
G01*
X108582830Y-74845110D01*
X108603192Y-74850210D01*
X108622956Y-74857282D01*
X108641932Y-74866257D01*
X108659936Y-74877049D01*
X108676797Y-74889553D01*
X108692350Y-74903650D01*
X108706447Y-74919203D01*
X108718951Y-74936064D01*
X108729743Y-74954068D01*
X108738718Y-74973044D01*
X108745790Y-74992808D01*
X108750890Y-75013170D01*
X108753970Y-75033934D01*
X108755000Y-75054900D01*
X108755000Y-75557100D01*
X108753970Y-75578066D01*
X108750890Y-75598830D01*
X108745790Y-75619192D01*
X108738718Y-75638956D01*
X108729743Y-75657932D01*
X108718951Y-75675936D01*
X108706447Y-75692797D01*
X108692350Y-75708350D01*
X108676797Y-75722447D01*
X108659936Y-75734951D01*
X108641932Y-75745743D01*
X108622956Y-75754718D01*
X108603192Y-75761790D01*
X108582830Y-75766890D01*
X108562066Y-75769970D01*
X108541100Y-75771000D01*
X107518900Y-75771000D01*
X107497934Y-75769970D01*
X107477170Y-75766890D01*
X107456808Y-75761790D01*
X107437044Y-75754718D01*
X107418068Y-75745743D01*
X107400064Y-75734951D01*
X107383203Y-75722447D01*
X107367650Y-75708350D01*
X107353553Y-75692797D01*
X107341049Y-75675936D01*
X107330257Y-75657932D01*
X107321282Y-75638956D01*
X107314210Y-75619192D01*
X107309110Y-75598830D01*
X107306030Y-75578066D01*
X107305000Y-75557100D01*
X107305000Y-75054900D01*
X107306030Y-75033934D01*
X107309110Y-75013170D01*
X107314210Y-74992808D01*
X107321282Y-74973044D01*
X107330257Y-74954068D01*
X107341049Y-74936064D01*
X107353553Y-74919203D01*
X107367650Y-74903650D01*
X107383203Y-74889553D01*
X107400064Y-74877049D01*
X107418068Y-74866257D01*
X107437044Y-74857282D01*
X107456808Y-74850210D01*
X107477170Y-74845110D01*
X107497934Y-74842030D01*
X107518900Y-74841000D01*
X108541100Y-74841000D01*
X108562066Y-74842030D01*
G37*
G04 #@! TD.AperFunction*
G04 #@! TA.AperFunction,SMDPad,CuDef*
G36*
X108562066Y-73572030D02*
G01*
X108582830Y-73575110D01*
X108603192Y-73580210D01*
X108622956Y-73587282D01*
X108641932Y-73596257D01*
X108659936Y-73607049D01*
X108676797Y-73619553D01*
X108692350Y-73633650D01*
X108706447Y-73649203D01*
X108718951Y-73666064D01*
X108729743Y-73684068D01*
X108738718Y-73703044D01*
X108745790Y-73722808D01*
X108750890Y-73743170D01*
X108753970Y-73763934D01*
X108755000Y-73784900D01*
X108755000Y-74287100D01*
X108753970Y-74308066D01*
X108750890Y-74328830D01*
X108745790Y-74349192D01*
X108738718Y-74368956D01*
X108729743Y-74387932D01*
X108718951Y-74405936D01*
X108706447Y-74422797D01*
X108692350Y-74438350D01*
X108676797Y-74452447D01*
X108659936Y-74464951D01*
X108641932Y-74475743D01*
X108622956Y-74484718D01*
X108603192Y-74491790D01*
X108582830Y-74496890D01*
X108562066Y-74499970D01*
X108541100Y-74501000D01*
X107518900Y-74501000D01*
X107497934Y-74499970D01*
X107477170Y-74496890D01*
X107456808Y-74491790D01*
X107437044Y-74484718D01*
X107418068Y-74475743D01*
X107400064Y-74464951D01*
X107383203Y-74452447D01*
X107367650Y-74438350D01*
X107353553Y-74422797D01*
X107341049Y-74405936D01*
X107330257Y-74387932D01*
X107321282Y-74368956D01*
X107314210Y-74349192D01*
X107309110Y-74328830D01*
X107306030Y-74308066D01*
X107305000Y-74287100D01*
X107305000Y-73784900D01*
X107306030Y-73763934D01*
X107309110Y-73743170D01*
X107314210Y-73722808D01*
X107321282Y-73703044D01*
X107330257Y-73684068D01*
X107341049Y-73666064D01*
X107353553Y-73649203D01*
X107367650Y-73633650D01*
X107383203Y-73619553D01*
X107400064Y-73607049D01*
X107418068Y-73596257D01*
X107437044Y-73587282D01*
X107456808Y-73580210D01*
X107477170Y-73575110D01*
X107497934Y-73572030D01*
X107518900Y-73571000D01*
X108541100Y-73571000D01*
X108562066Y-73572030D01*
G37*
G04 #@! TD.AperFunction*
G04 #@! TA.AperFunction,SMDPad,CuDef*
G36*
X108562066Y-72302030D02*
G01*
X108582830Y-72305110D01*
X108603192Y-72310210D01*
X108622956Y-72317282D01*
X108641932Y-72326257D01*
X108659936Y-72337049D01*
X108676797Y-72349553D01*
X108692350Y-72363650D01*
X108706447Y-72379203D01*
X108718951Y-72396064D01*
X108729743Y-72414068D01*
X108738718Y-72433044D01*
X108745790Y-72452808D01*
X108750890Y-72473170D01*
X108753970Y-72493934D01*
X108755000Y-72514900D01*
X108755000Y-73017100D01*
X108753970Y-73038066D01*
X108750890Y-73058830D01*
X108745790Y-73079192D01*
X108738718Y-73098956D01*
X108729743Y-73117932D01*
X108718951Y-73135936D01*
X108706447Y-73152797D01*
X108692350Y-73168350D01*
X108676797Y-73182447D01*
X108659936Y-73194951D01*
X108641932Y-73205743D01*
X108622956Y-73214718D01*
X108603192Y-73221790D01*
X108582830Y-73226890D01*
X108562066Y-73229970D01*
X108541100Y-73231000D01*
X107518900Y-73231000D01*
X107497934Y-73229970D01*
X107477170Y-73226890D01*
X107456808Y-73221790D01*
X107437044Y-73214718D01*
X107418068Y-73205743D01*
X107400064Y-73194951D01*
X107383203Y-73182447D01*
X107367650Y-73168350D01*
X107353553Y-73152797D01*
X107341049Y-73135936D01*
X107330257Y-73117932D01*
X107321282Y-73098956D01*
X107314210Y-73079192D01*
X107309110Y-73058830D01*
X107306030Y-73038066D01*
X107305000Y-73017100D01*
X107305000Y-72514900D01*
X107306030Y-72493934D01*
X107309110Y-72473170D01*
X107314210Y-72452808D01*
X107321282Y-72433044D01*
X107330257Y-72414068D01*
X107341049Y-72396064D01*
X107353553Y-72379203D01*
X107367650Y-72363650D01*
X107383203Y-72349553D01*
X107400064Y-72337049D01*
X107418068Y-72326257D01*
X107437044Y-72317282D01*
X107456808Y-72310210D01*
X107477170Y-72305110D01*
X107497934Y-72302030D01*
X107518900Y-72301000D01*
X108541100Y-72301000D01*
X108562066Y-72302030D01*
G37*
G04 #@! TD.AperFunction*
G04 #@! TA.AperFunction,SMDPad,CuDef*
G36*
X108562066Y-71032030D02*
G01*
X108582830Y-71035110D01*
X108603192Y-71040210D01*
X108622956Y-71047282D01*
X108641932Y-71056257D01*
X108659936Y-71067049D01*
X108676797Y-71079553D01*
X108692350Y-71093650D01*
X108706447Y-71109203D01*
X108718951Y-71126064D01*
X108729743Y-71144068D01*
X108738718Y-71163044D01*
X108745790Y-71182808D01*
X108750890Y-71203170D01*
X108753970Y-71223934D01*
X108755000Y-71244900D01*
X108755000Y-71747100D01*
X108753970Y-71768066D01*
X108750890Y-71788830D01*
X108745790Y-71809192D01*
X108738718Y-71828956D01*
X108729743Y-71847932D01*
X108718951Y-71865936D01*
X108706447Y-71882797D01*
X108692350Y-71898350D01*
X108676797Y-71912447D01*
X108659936Y-71924951D01*
X108641932Y-71935743D01*
X108622956Y-71944718D01*
X108603192Y-71951790D01*
X108582830Y-71956890D01*
X108562066Y-71959970D01*
X108541100Y-71961000D01*
X107518900Y-71961000D01*
X107497934Y-71959970D01*
X107477170Y-71956890D01*
X107456808Y-71951790D01*
X107437044Y-71944718D01*
X107418068Y-71935743D01*
X107400064Y-71924951D01*
X107383203Y-71912447D01*
X107367650Y-71898350D01*
X107353553Y-71882797D01*
X107341049Y-71865936D01*
X107330257Y-71847932D01*
X107321282Y-71828956D01*
X107314210Y-71809192D01*
X107309110Y-71788830D01*
X107306030Y-71768066D01*
X107305000Y-71747100D01*
X107305000Y-71244900D01*
X107306030Y-71223934D01*
X107309110Y-71203170D01*
X107314210Y-71182808D01*
X107321282Y-71163044D01*
X107330257Y-71144068D01*
X107341049Y-71126064D01*
X107353553Y-71109203D01*
X107367650Y-71093650D01*
X107383203Y-71079553D01*
X107400064Y-71067049D01*
X107418068Y-71056257D01*
X107437044Y-71047282D01*
X107456808Y-71040210D01*
X107477170Y-71035110D01*
X107497934Y-71032030D01*
X107518900Y-71031000D01*
X108541100Y-71031000D01*
X108562066Y-71032030D01*
G37*
G04 #@! TD.AperFunction*
G04 #@! TA.AperFunction,SMDPad,CuDef*
G36*
X108562066Y-69762030D02*
G01*
X108582830Y-69765110D01*
X108603192Y-69770210D01*
X108622956Y-69777282D01*
X108641932Y-69786257D01*
X108659936Y-69797049D01*
X108676797Y-69809553D01*
X108692350Y-69823650D01*
X108706447Y-69839203D01*
X108718951Y-69856064D01*
X108729743Y-69874068D01*
X108738718Y-69893044D01*
X108745790Y-69912808D01*
X108750890Y-69933170D01*
X108753970Y-69953934D01*
X108755000Y-69974900D01*
X108755000Y-70477100D01*
X108753970Y-70498066D01*
X108750890Y-70518830D01*
X108745790Y-70539192D01*
X108738718Y-70558956D01*
X108729743Y-70577932D01*
X108718951Y-70595936D01*
X108706447Y-70612797D01*
X108692350Y-70628350D01*
X108676797Y-70642447D01*
X108659936Y-70654951D01*
X108641932Y-70665743D01*
X108622956Y-70674718D01*
X108603192Y-70681790D01*
X108582830Y-70686890D01*
X108562066Y-70689970D01*
X108541100Y-70691000D01*
X107518900Y-70691000D01*
X107497934Y-70689970D01*
X107477170Y-70686890D01*
X107456808Y-70681790D01*
X107437044Y-70674718D01*
X107418068Y-70665743D01*
X107400064Y-70654951D01*
X107383203Y-70642447D01*
X107367650Y-70628350D01*
X107353553Y-70612797D01*
X107341049Y-70595936D01*
X107330257Y-70577932D01*
X107321282Y-70558956D01*
X107314210Y-70539192D01*
X107309110Y-70518830D01*
X107306030Y-70498066D01*
X107305000Y-70477100D01*
X107305000Y-69974900D01*
X107306030Y-69953934D01*
X107309110Y-69933170D01*
X107314210Y-69912808D01*
X107321282Y-69893044D01*
X107330257Y-69874068D01*
X107341049Y-69856064D01*
X107353553Y-69839203D01*
X107367650Y-69823650D01*
X107383203Y-69809553D01*
X107400064Y-69797049D01*
X107418068Y-69786257D01*
X107437044Y-69777282D01*
X107456808Y-69770210D01*
X107477170Y-69765110D01*
X107497934Y-69762030D01*
X107518900Y-69761000D01*
X108541100Y-69761000D01*
X108562066Y-69762030D01*
G37*
G04 #@! TD.AperFunction*
G04 #@! TA.AperFunction,SMDPad,CuDef*
G36*
X108562066Y-68492030D02*
G01*
X108582830Y-68495110D01*
X108603192Y-68500210D01*
X108622956Y-68507282D01*
X108641932Y-68516257D01*
X108659936Y-68527049D01*
X108676797Y-68539553D01*
X108692350Y-68553650D01*
X108706447Y-68569203D01*
X108718951Y-68586064D01*
X108729743Y-68604068D01*
X108738718Y-68623044D01*
X108745790Y-68642808D01*
X108750890Y-68663170D01*
X108753970Y-68683934D01*
X108755000Y-68704900D01*
X108755000Y-69207100D01*
X108753970Y-69228066D01*
X108750890Y-69248830D01*
X108745790Y-69269192D01*
X108738718Y-69288956D01*
X108729743Y-69307932D01*
X108718951Y-69325936D01*
X108706447Y-69342797D01*
X108692350Y-69358350D01*
X108676797Y-69372447D01*
X108659936Y-69384951D01*
X108641932Y-69395743D01*
X108622956Y-69404718D01*
X108603192Y-69411790D01*
X108582830Y-69416890D01*
X108562066Y-69419970D01*
X108541100Y-69421000D01*
X107518900Y-69421000D01*
X107497934Y-69419970D01*
X107477170Y-69416890D01*
X107456808Y-69411790D01*
X107437044Y-69404718D01*
X107418068Y-69395743D01*
X107400064Y-69384951D01*
X107383203Y-69372447D01*
X107367650Y-69358350D01*
X107353553Y-69342797D01*
X107341049Y-69325936D01*
X107330257Y-69307932D01*
X107321282Y-69288956D01*
X107314210Y-69269192D01*
X107309110Y-69248830D01*
X107306030Y-69228066D01*
X107305000Y-69207100D01*
X107305000Y-68704900D01*
X107306030Y-68683934D01*
X107309110Y-68663170D01*
X107314210Y-68642808D01*
X107321282Y-68623044D01*
X107330257Y-68604068D01*
X107341049Y-68586064D01*
X107353553Y-68569203D01*
X107367650Y-68553650D01*
X107383203Y-68539553D01*
X107400064Y-68527049D01*
X107418068Y-68516257D01*
X107437044Y-68507282D01*
X107456808Y-68500210D01*
X107477170Y-68495110D01*
X107497934Y-68492030D01*
X107518900Y-68491000D01*
X108541100Y-68491000D01*
X108562066Y-68492030D01*
G37*
G04 #@! TD.AperFunction*
G04 #@! TA.AperFunction,SMDPad,CuDef*
G36*
X108562066Y-67222030D02*
G01*
X108582830Y-67225110D01*
X108603192Y-67230210D01*
X108622956Y-67237282D01*
X108641932Y-67246257D01*
X108659936Y-67257049D01*
X108676797Y-67269553D01*
X108692350Y-67283650D01*
X108706447Y-67299203D01*
X108718951Y-67316064D01*
X108729743Y-67334068D01*
X108738718Y-67353044D01*
X108745790Y-67372808D01*
X108750890Y-67393170D01*
X108753970Y-67413934D01*
X108755000Y-67434900D01*
X108755000Y-67937100D01*
X108753970Y-67958066D01*
X108750890Y-67978830D01*
X108745790Y-67999192D01*
X108738718Y-68018956D01*
X108729743Y-68037932D01*
X108718951Y-68055936D01*
X108706447Y-68072797D01*
X108692350Y-68088350D01*
X108676797Y-68102447D01*
X108659936Y-68114951D01*
X108641932Y-68125743D01*
X108622956Y-68134718D01*
X108603192Y-68141790D01*
X108582830Y-68146890D01*
X108562066Y-68149970D01*
X108541100Y-68151000D01*
X107518900Y-68151000D01*
X107497934Y-68149970D01*
X107477170Y-68146890D01*
X107456808Y-68141790D01*
X107437044Y-68134718D01*
X107418068Y-68125743D01*
X107400064Y-68114951D01*
X107383203Y-68102447D01*
X107367650Y-68088350D01*
X107353553Y-68072797D01*
X107341049Y-68055936D01*
X107330257Y-68037932D01*
X107321282Y-68018956D01*
X107314210Y-67999192D01*
X107309110Y-67978830D01*
X107306030Y-67958066D01*
X107305000Y-67937100D01*
X107305000Y-67434900D01*
X107306030Y-67413934D01*
X107309110Y-67393170D01*
X107314210Y-67372808D01*
X107321282Y-67353044D01*
X107330257Y-67334068D01*
X107341049Y-67316064D01*
X107353553Y-67299203D01*
X107367650Y-67283650D01*
X107383203Y-67269553D01*
X107400064Y-67257049D01*
X107418068Y-67246257D01*
X107437044Y-67237282D01*
X107456808Y-67230210D01*
X107477170Y-67225110D01*
X107497934Y-67222030D01*
X107518900Y-67221000D01*
X108541100Y-67221000D01*
X108562066Y-67222030D01*
G37*
G04 #@! TD.AperFunction*
G04 #@! TA.AperFunction,SMDPad,CuDef*
G36*
X108562066Y-65952030D02*
G01*
X108582830Y-65955110D01*
X108603192Y-65960210D01*
X108622956Y-65967282D01*
X108641932Y-65976257D01*
X108659936Y-65987049D01*
X108676797Y-65999553D01*
X108692350Y-66013650D01*
X108706447Y-66029203D01*
X108718951Y-66046064D01*
X108729743Y-66064068D01*
X108738718Y-66083044D01*
X108745790Y-66102808D01*
X108750890Y-66123170D01*
X108753970Y-66143934D01*
X108755000Y-66164900D01*
X108755000Y-66667100D01*
X108753970Y-66688066D01*
X108750890Y-66708830D01*
X108745790Y-66729192D01*
X108738718Y-66748956D01*
X108729743Y-66767932D01*
X108718951Y-66785936D01*
X108706447Y-66802797D01*
X108692350Y-66818350D01*
X108676797Y-66832447D01*
X108659936Y-66844951D01*
X108641932Y-66855743D01*
X108622956Y-66864718D01*
X108603192Y-66871790D01*
X108582830Y-66876890D01*
X108562066Y-66879970D01*
X108541100Y-66881000D01*
X107518900Y-66881000D01*
X107497934Y-66879970D01*
X107477170Y-66876890D01*
X107456808Y-66871790D01*
X107437044Y-66864718D01*
X107418068Y-66855743D01*
X107400064Y-66844951D01*
X107383203Y-66832447D01*
X107367650Y-66818350D01*
X107353553Y-66802797D01*
X107341049Y-66785936D01*
X107330257Y-66767932D01*
X107321282Y-66748956D01*
X107314210Y-66729192D01*
X107309110Y-66708830D01*
X107306030Y-66688066D01*
X107305000Y-66667100D01*
X107305000Y-66164900D01*
X107306030Y-66143934D01*
X107309110Y-66123170D01*
X107314210Y-66102808D01*
X107321282Y-66083044D01*
X107330257Y-66064068D01*
X107341049Y-66046064D01*
X107353553Y-66029203D01*
X107367650Y-66013650D01*
X107383203Y-65999553D01*
X107400064Y-65987049D01*
X107418068Y-65976257D01*
X107437044Y-65967282D01*
X107456808Y-65960210D01*
X107477170Y-65955110D01*
X107497934Y-65952030D01*
X107518900Y-65951000D01*
X108541100Y-65951000D01*
X108562066Y-65952030D01*
G37*
G04 #@! TD.AperFunction*
G04 #@! TA.AperFunction,SMDPad,CuDef*
G36*
X108562066Y-64682030D02*
G01*
X108582830Y-64685110D01*
X108603192Y-64690210D01*
X108622956Y-64697282D01*
X108641932Y-64706257D01*
X108659936Y-64717049D01*
X108676797Y-64729553D01*
X108692350Y-64743650D01*
X108706447Y-64759203D01*
X108718951Y-64776064D01*
X108729743Y-64794068D01*
X108738718Y-64813044D01*
X108745790Y-64832808D01*
X108750890Y-64853170D01*
X108753970Y-64873934D01*
X108755000Y-64894900D01*
X108755000Y-65397100D01*
X108753970Y-65418066D01*
X108750890Y-65438830D01*
X108745790Y-65459192D01*
X108738718Y-65478956D01*
X108729743Y-65497932D01*
X108718951Y-65515936D01*
X108706447Y-65532797D01*
X108692350Y-65548350D01*
X108676797Y-65562447D01*
X108659936Y-65574951D01*
X108641932Y-65585743D01*
X108622956Y-65594718D01*
X108603192Y-65601790D01*
X108582830Y-65606890D01*
X108562066Y-65609970D01*
X108541100Y-65611000D01*
X107518900Y-65611000D01*
X107497934Y-65609970D01*
X107477170Y-65606890D01*
X107456808Y-65601790D01*
X107437044Y-65594718D01*
X107418068Y-65585743D01*
X107400064Y-65574951D01*
X107383203Y-65562447D01*
X107367650Y-65548350D01*
X107353553Y-65532797D01*
X107341049Y-65515936D01*
X107330257Y-65497932D01*
X107321282Y-65478956D01*
X107314210Y-65459192D01*
X107309110Y-65438830D01*
X107306030Y-65418066D01*
X107305000Y-65397100D01*
X107305000Y-64894900D01*
X107306030Y-64873934D01*
X107309110Y-64853170D01*
X107314210Y-64832808D01*
X107321282Y-64813044D01*
X107330257Y-64794068D01*
X107341049Y-64776064D01*
X107353553Y-64759203D01*
X107367650Y-64743650D01*
X107383203Y-64729553D01*
X107400064Y-64717049D01*
X107418068Y-64706257D01*
X107437044Y-64697282D01*
X107456808Y-64690210D01*
X107477170Y-64685110D01*
X107497934Y-64682030D01*
X107518900Y-64681000D01*
X108541100Y-64681000D01*
X108562066Y-64682030D01*
G37*
G04 #@! TD.AperFunction*
G04 #@! TA.AperFunction,SMDPad,CuDef*
G36*
X108562066Y-63412030D02*
G01*
X108582830Y-63415110D01*
X108603192Y-63420210D01*
X108622956Y-63427282D01*
X108641932Y-63436257D01*
X108659936Y-63447049D01*
X108676797Y-63459553D01*
X108692350Y-63473650D01*
X108706447Y-63489203D01*
X108718951Y-63506064D01*
X108729743Y-63524068D01*
X108738718Y-63543044D01*
X108745790Y-63562808D01*
X108750890Y-63583170D01*
X108753970Y-63603934D01*
X108755000Y-63624900D01*
X108755000Y-64127100D01*
X108753970Y-64148066D01*
X108750890Y-64168830D01*
X108745790Y-64189192D01*
X108738718Y-64208956D01*
X108729743Y-64227932D01*
X108718951Y-64245936D01*
X108706447Y-64262797D01*
X108692350Y-64278350D01*
X108676797Y-64292447D01*
X108659936Y-64304951D01*
X108641932Y-64315743D01*
X108622956Y-64324718D01*
X108603192Y-64331790D01*
X108582830Y-64336890D01*
X108562066Y-64339970D01*
X108541100Y-64341000D01*
X107518900Y-64341000D01*
X107497934Y-64339970D01*
X107477170Y-64336890D01*
X107456808Y-64331790D01*
X107437044Y-64324718D01*
X107418068Y-64315743D01*
X107400064Y-64304951D01*
X107383203Y-64292447D01*
X107367650Y-64278350D01*
X107353553Y-64262797D01*
X107341049Y-64245936D01*
X107330257Y-64227932D01*
X107321282Y-64208956D01*
X107314210Y-64189192D01*
X107309110Y-64168830D01*
X107306030Y-64148066D01*
X107305000Y-64127100D01*
X107305000Y-63624900D01*
X107306030Y-63603934D01*
X107309110Y-63583170D01*
X107314210Y-63562808D01*
X107321282Y-63543044D01*
X107330257Y-63524068D01*
X107341049Y-63506064D01*
X107353553Y-63489203D01*
X107367650Y-63473650D01*
X107383203Y-63459553D01*
X107400064Y-63447049D01*
X107418068Y-63436257D01*
X107437044Y-63427282D01*
X107456808Y-63420210D01*
X107477170Y-63415110D01*
X107497934Y-63412030D01*
X107518900Y-63411000D01*
X108541100Y-63411000D01*
X108562066Y-63412030D01*
G37*
G04 #@! TD.AperFunction*
G04 #@! TA.AperFunction,SMDPad,CuDef*
G36*
X108562066Y-62142030D02*
G01*
X108582830Y-62145110D01*
X108603192Y-62150210D01*
X108622956Y-62157282D01*
X108641932Y-62166257D01*
X108659936Y-62177049D01*
X108676797Y-62189553D01*
X108692350Y-62203650D01*
X108706447Y-62219203D01*
X108718951Y-62236064D01*
X108729743Y-62254068D01*
X108738718Y-62273044D01*
X108745790Y-62292808D01*
X108750890Y-62313170D01*
X108753970Y-62333934D01*
X108755000Y-62354900D01*
X108755000Y-62857100D01*
X108753970Y-62878066D01*
X108750890Y-62898830D01*
X108745790Y-62919192D01*
X108738718Y-62938956D01*
X108729743Y-62957932D01*
X108718951Y-62975936D01*
X108706447Y-62992797D01*
X108692350Y-63008350D01*
X108676797Y-63022447D01*
X108659936Y-63034951D01*
X108641932Y-63045743D01*
X108622956Y-63054718D01*
X108603192Y-63061790D01*
X108582830Y-63066890D01*
X108562066Y-63069970D01*
X108541100Y-63071000D01*
X107518900Y-63071000D01*
X107497934Y-63069970D01*
X107477170Y-63066890D01*
X107456808Y-63061790D01*
X107437044Y-63054718D01*
X107418068Y-63045743D01*
X107400064Y-63034951D01*
X107383203Y-63022447D01*
X107367650Y-63008350D01*
X107353553Y-62992797D01*
X107341049Y-62975936D01*
X107330257Y-62957932D01*
X107321282Y-62938956D01*
X107314210Y-62919192D01*
X107309110Y-62898830D01*
X107306030Y-62878066D01*
X107305000Y-62857100D01*
X107305000Y-62354900D01*
X107306030Y-62333934D01*
X107309110Y-62313170D01*
X107314210Y-62292808D01*
X107321282Y-62273044D01*
X107330257Y-62254068D01*
X107341049Y-62236064D01*
X107353553Y-62219203D01*
X107367650Y-62203650D01*
X107383203Y-62189553D01*
X107400064Y-62177049D01*
X107418068Y-62166257D01*
X107437044Y-62157282D01*
X107456808Y-62150210D01*
X107477170Y-62145110D01*
X107497934Y-62142030D01*
X107518900Y-62141000D01*
X108541100Y-62141000D01*
X108562066Y-62142030D01*
G37*
G04 #@! TD.AperFunction*
G04 #@! TA.AperFunction,SMDPad,CuDef*
G36*
X108562066Y-60872030D02*
G01*
X108582830Y-60875110D01*
X108603192Y-60880210D01*
X108622956Y-60887282D01*
X108641932Y-60896257D01*
X108659936Y-60907049D01*
X108676797Y-60919553D01*
X108692350Y-60933650D01*
X108706447Y-60949203D01*
X108718951Y-60966064D01*
X108729743Y-60984068D01*
X108738718Y-61003044D01*
X108745790Y-61022808D01*
X108750890Y-61043170D01*
X108753970Y-61063934D01*
X108755000Y-61084900D01*
X108755000Y-61587100D01*
X108753970Y-61608066D01*
X108750890Y-61628830D01*
X108745790Y-61649192D01*
X108738718Y-61668956D01*
X108729743Y-61687932D01*
X108718951Y-61705936D01*
X108706447Y-61722797D01*
X108692350Y-61738350D01*
X108676797Y-61752447D01*
X108659936Y-61764951D01*
X108641932Y-61775743D01*
X108622956Y-61784718D01*
X108603192Y-61791790D01*
X108582830Y-61796890D01*
X108562066Y-61799970D01*
X108541100Y-61801000D01*
X107518900Y-61801000D01*
X107497934Y-61799970D01*
X107477170Y-61796890D01*
X107456808Y-61791790D01*
X107437044Y-61784718D01*
X107418068Y-61775743D01*
X107400064Y-61764951D01*
X107383203Y-61752447D01*
X107367650Y-61738350D01*
X107353553Y-61722797D01*
X107341049Y-61705936D01*
X107330257Y-61687932D01*
X107321282Y-61668956D01*
X107314210Y-61649192D01*
X107309110Y-61628830D01*
X107306030Y-61608066D01*
X107305000Y-61587100D01*
X107305000Y-61084900D01*
X107306030Y-61063934D01*
X107309110Y-61043170D01*
X107314210Y-61022808D01*
X107321282Y-61003044D01*
X107330257Y-60984068D01*
X107341049Y-60966064D01*
X107353553Y-60949203D01*
X107367650Y-60933650D01*
X107383203Y-60919553D01*
X107400064Y-60907049D01*
X107418068Y-60896257D01*
X107437044Y-60887282D01*
X107456808Y-60880210D01*
X107477170Y-60875110D01*
X107497934Y-60872030D01*
X107518900Y-60871000D01*
X108541100Y-60871000D01*
X108562066Y-60872030D01*
G37*
G04 #@! TD.AperFunction*
G04 #@! TA.AperFunction,SMDPad,CuDef*
G36*
X108562066Y-59602030D02*
G01*
X108582830Y-59605110D01*
X108603192Y-59610210D01*
X108622956Y-59617282D01*
X108641932Y-59626257D01*
X108659936Y-59637049D01*
X108676797Y-59649553D01*
X108692350Y-59663650D01*
X108706447Y-59679203D01*
X108718951Y-59696064D01*
X108729743Y-59714068D01*
X108738718Y-59733044D01*
X108745790Y-59752808D01*
X108750890Y-59773170D01*
X108753970Y-59793934D01*
X108755000Y-59814900D01*
X108755000Y-60317100D01*
X108753970Y-60338066D01*
X108750890Y-60358830D01*
X108745790Y-60379192D01*
X108738718Y-60398956D01*
X108729743Y-60417932D01*
X108718951Y-60435936D01*
X108706447Y-60452797D01*
X108692350Y-60468350D01*
X108676797Y-60482447D01*
X108659936Y-60494951D01*
X108641932Y-60505743D01*
X108622956Y-60514718D01*
X108603192Y-60521790D01*
X108582830Y-60526890D01*
X108562066Y-60529970D01*
X108541100Y-60531000D01*
X107518900Y-60531000D01*
X107497934Y-60529970D01*
X107477170Y-60526890D01*
X107456808Y-60521790D01*
X107437044Y-60514718D01*
X107418068Y-60505743D01*
X107400064Y-60494951D01*
X107383203Y-60482447D01*
X107367650Y-60468350D01*
X107353553Y-60452797D01*
X107341049Y-60435936D01*
X107330257Y-60417932D01*
X107321282Y-60398956D01*
X107314210Y-60379192D01*
X107309110Y-60358830D01*
X107306030Y-60338066D01*
X107305000Y-60317100D01*
X107305000Y-59814900D01*
X107306030Y-59793934D01*
X107309110Y-59773170D01*
X107314210Y-59752808D01*
X107321282Y-59733044D01*
X107330257Y-59714068D01*
X107341049Y-59696064D01*
X107353553Y-59679203D01*
X107367650Y-59663650D01*
X107383203Y-59649553D01*
X107400064Y-59637049D01*
X107418068Y-59626257D01*
X107437044Y-59617282D01*
X107456808Y-59610210D01*
X107477170Y-59605110D01*
X107497934Y-59602030D01*
X107518900Y-59601000D01*
X108541100Y-59601000D01*
X108562066Y-59602030D01*
G37*
G04 #@! TD.AperFunction*
G04 #@! TA.AperFunction,SMDPad,CuDef*
G36*
X108562066Y-58332030D02*
G01*
X108582830Y-58335110D01*
X108603192Y-58340210D01*
X108622956Y-58347282D01*
X108641932Y-58356257D01*
X108659936Y-58367049D01*
X108676797Y-58379553D01*
X108692350Y-58393650D01*
X108706447Y-58409203D01*
X108718951Y-58426064D01*
X108729743Y-58444068D01*
X108738718Y-58463044D01*
X108745790Y-58482808D01*
X108750890Y-58503170D01*
X108753970Y-58523934D01*
X108755000Y-58544900D01*
X108755000Y-59047100D01*
X108753970Y-59068066D01*
X108750890Y-59088830D01*
X108745790Y-59109192D01*
X108738718Y-59128956D01*
X108729743Y-59147932D01*
X108718951Y-59165936D01*
X108706447Y-59182797D01*
X108692350Y-59198350D01*
X108676797Y-59212447D01*
X108659936Y-59224951D01*
X108641932Y-59235743D01*
X108622956Y-59244718D01*
X108603192Y-59251790D01*
X108582830Y-59256890D01*
X108562066Y-59259970D01*
X108541100Y-59261000D01*
X107518900Y-59261000D01*
X107497934Y-59259970D01*
X107477170Y-59256890D01*
X107456808Y-59251790D01*
X107437044Y-59244718D01*
X107418068Y-59235743D01*
X107400064Y-59224951D01*
X107383203Y-59212447D01*
X107367650Y-59198350D01*
X107353553Y-59182797D01*
X107341049Y-59165936D01*
X107330257Y-59147932D01*
X107321282Y-59128956D01*
X107314210Y-59109192D01*
X107309110Y-59088830D01*
X107306030Y-59068066D01*
X107305000Y-59047100D01*
X107305000Y-58544900D01*
X107306030Y-58523934D01*
X107309110Y-58503170D01*
X107314210Y-58482808D01*
X107321282Y-58463044D01*
X107330257Y-58444068D01*
X107341049Y-58426064D01*
X107353553Y-58409203D01*
X107367650Y-58393650D01*
X107383203Y-58379553D01*
X107400064Y-58367049D01*
X107418068Y-58356257D01*
X107437044Y-58347282D01*
X107456808Y-58340210D01*
X107477170Y-58335110D01*
X107497934Y-58332030D01*
X107518900Y-58331000D01*
X108541100Y-58331000D01*
X108562066Y-58332030D01*
G37*
G04 #@! TD.AperFunction*
G04 #@! TA.AperFunction,ComponentPad*
G36*
X93080504Y-45254204D02*
G01*
X93104773Y-45257804D01*
X93128571Y-45263765D01*
X93151671Y-45272030D01*
X93173849Y-45282520D01*
X93194893Y-45295133D01*
X93214598Y-45309747D01*
X93232777Y-45326223D01*
X93249253Y-45344402D01*
X93263867Y-45364107D01*
X93276480Y-45385151D01*
X93286970Y-45407329D01*
X93295235Y-45430429D01*
X93301196Y-45454227D01*
X93304796Y-45478496D01*
X93306000Y-45503000D01*
X93306000Y-46953000D01*
X93304796Y-46977504D01*
X93301196Y-47001773D01*
X93295235Y-47025571D01*
X93286970Y-47048671D01*
X93276480Y-47070849D01*
X93263867Y-47091893D01*
X93249253Y-47111598D01*
X93232777Y-47129777D01*
X93214598Y-47146253D01*
X93194893Y-47160867D01*
X93173849Y-47173480D01*
X93151671Y-47183970D01*
X93128571Y-47192235D01*
X93104773Y-47198196D01*
X93080504Y-47201796D01*
X93056000Y-47203000D01*
X91856000Y-47203000D01*
X91831496Y-47201796D01*
X91807227Y-47198196D01*
X91783429Y-47192235D01*
X91760329Y-47183970D01*
X91738151Y-47173480D01*
X91717107Y-47160867D01*
X91697402Y-47146253D01*
X91679223Y-47129777D01*
X91662747Y-47111598D01*
X91648133Y-47091893D01*
X91635520Y-47070849D01*
X91625030Y-47048671D01*
X91616765Y-47025571D01*
X91610804Y-47001773D01*
X91607204Y-46977504D01*
X91606000Y-46953000D01*
X91606000Y-45503000D01*
X91607204Y-45478496D01*
X91610804Y-45454227D01*
X91616765Y-45430429D01*
X91625030Y-45407329D01*
X91635520Y-45385151D01*
X91648133Y-45364107D01*
X91662747Y-45344402D01*
X91679223Y-45326223D01*
X91697402Y-45309747D01*
X91717107Y-45295133D01*
X91738151Y-45282520D01*
X91760329Y-45272030D01*
X91783429Y-45263765D01*
X91807227Y-45257804D01*
X91831496Y-45254204D01*
X91856000Y-45253000D01*
X93056000Y-45253000D01*
X93080504Y-45254204D01*
G37*
G04 #@! TD.AperFunction*
D12*
X94956000Y-46228000D03*
X97456000Y-46228000D03*
X99956000Y-46228000D03*
G04 #@! TA.AperFunction,SMDPad,CuDef*
D10*
G36*
X97338779Y-55914144D02*
G01*
X97361834Y-55917563D01*
X97384443Y-55923227D01*
X97406387Y-55931079D01*
X97427457Y-55941044D01*
X97447448Y-55953026D01*
X97466168Y-55966910D01*
X97483438Y-55982562D01*
X97499090Y-55999832D01*
X97512974Y-56018552D01*
X97524956Y-56038543D01*
X97534921Y-56059613D01*
X97542773Y-56081557D01*
X97548437Y-56104166D01*
X97551856Y-56127221D01*
X97553000Y-56150500D01*
X97553000Y-56625500D01*
X97551856Y-56648779D01*
X97548437Y-56671834D01*
X97542773Y-56694443D01*
X97534921Y-56716387D01*
X97524956Y-56737457D01*
X97512974Y-56757448D01*
X97499090Y-56776168D01*
X97483438Y-56793438D01*
X97466168Y-56809090D01*
X97447448Y-56822974D01*
X97427457Y-56834956D01*
X97406387Y-56844921D01*
X97384443Y-56852773D01*
X97361834Y-56858437D01*
X97338779Y-56861856D01*
X97315500Y-56863000D01*
X96740500Y-56863000D01*
X96717221Y-56861856D01*
X96694166Y-56858437D01*
X96671557Y-56852773D01*
X96649613Y-56844921D01*
X96628543Y-56834956D01*
X96608552Y-56822974D01*
X96589832Y-56809090D01*
X96572562Y-56793438D01*
X96556910Y-56776168D01*
X96543026Y-56757448D01*
X96531044Y-56737457D01*
X96521079Y-56716387D01*
X96513227Y-56694443D01*
X96507563Y-56671834D01*
X96504144Y-56648779D01*
X96503000Y-56625500D01*
X96503000Y-56150500D01*
X96504144Y-56127221D01*
X96507563Y-56104166D01*
X96513227Y-56081557D01*
X96521079Y-56059613D01*
X96531044Y-56038543D01*
X96543026Y-56018552D01*
X96556910Y-55999832D01*
X96572562Y-55982562D01*
X96589832Y-55966910D01*
X96608552Y-55953026D01*
X96628543Y-55941044D01*
X96649613Y-55931079D01*
X96671557Y-55923227D01*
X96694166Y-55917563D01*
X96717221Y-55914144D01*
X96740500Y-55913000D01*
X97315500Y-55913000D01*
X97338779Y-55914144D01*
G37*
G04 #@! TD.AperFunction*
G04 #@! TA.AperFunction,SMDPad,CuDef*
G36*
X95588779Y-55914144D02*
G01*
X95611834Y-55917563D01*
X95634443Y-55923227D01*
X95656387Y-55931079D01*
X95677457Y-55941044D01*
X95697448Y-55953026D01*
X95716168Y-55966910D01*
X95733438Y-55982562D01*
X95749090Y-55999832D01*
X95762974Y-56018552D01*
X95774956Y-56038543D01*
X95784921Y-56059613D01*
X95792773Y-56081557D01*
X95798437Y-56104166D01*
X95801856Y-56127221D01*
X95803000Y-56150500D01*
X95803000Y-56625500D01*
X95801856Y-56648779D01*
X95798437Y-56671834D01*
X95792773Y-56694443D01*
X95784921Y-56716387D01*
X95774956Y-56737457D01*
X95762974Y-56757448D01*
X95749090Y-56776168D01*
X95733438Y-56793438D01*
X95716168Y-56809090D01*
X95697448Y-56822974D01*
X95677457Y-56834956D01*
X95656387Y-56844921D01*
X95634443Y-56852773D01*
X95611834Y-56858437D01*
X95588779Y-56861856D01*
X95565500Y-56863000D01*
X94990500Y-56863000D01*
X94967221Y-56861856D01*
X94944166Y-56858437D01*
X94921557Y-56852773D01*
X94899613Y-56844921D01*
X94878543Y-56834956D01*
X94858552Y-56822974D01*
X94839832Y-56809090D01*
X94822562Y-56793438D01*
X94806910Y-56776168D01*
X94793026Y-56757448D01*
X94781044Y-56737457D01*
X94771079Y-56716387D01*
X94763227Y-56694443D01*
X94757563Y-56671834D01*
X94754144Y-56648779D01*
X94753000Y-56625500D01*
X94753000Y-56150500D01*
X94754144Y-56127221D01*
X94757563Y-56104166D01*
X94763227Y-56081557D01*
X94771079Y-56059613D01*
X94781044Y-56038543D01*
X94793026Y-56018552D01*
X94806910Y-55999832D01*
X94822562Y-55982562D01*
X94839832Y-55966910D01*
X94858552Y-55953026D01*
X94878543Y-55941044D01*
X94899613Y-55931079D01*
X94921557Y-55923227D01*
X94944166Y-55917563D01*
X94967221Y-55914144D01*
X94990500Y-55913000D01*
X95565500Y-55913000D01*
X95588779Y-55914144D01*
G37*
G04 #@! TD.AperFunction*
D13*
X99568000Y-73256000D03*
X104068000Y-73256000D03*
X99568000Y-79756000D03*
X104068000Y-79756000D03*
G04 #@! TA.AperFunction,ComponentPad*
D10*
G36*
X130672504Y-46245204D02*
G01*
X130696773Y-46248804D01*
X130720571Y-46254765D01*
X130743671Y-46263030D01*
X130765849Y-46273520D01*
X130786893Y-46286133D01*
X130806598Y-46300747D01*
X130824777Y-46317223D01*
X130841253Y-46335402D01*
X130855867Y-46355107D01*
X130868480Y-46376151D01*
X130878970Y-46398329D01*
X130887235Y-46421429D01*
X130893196Y-46445227D01*
X130896796Y-46469496D01*
X130898000Y-46494000D01*
X130898000Y-47994000D01*
X130896796Y-48018504D01*
X130893196Y-48042773D01*
X130887235Y-48066571D01*
X130878970Y-48089671D01*
X130868480Y-48111849D01*
X130855867Y-48132893D01*
X130841253Y-48152598D01*
X130824777Y-48170777D01*
X130806598Y-48187253D01*
X130786893Y-48201867D01*
X130765849Y-48214480D01*
X130743671Y-48224970D01*
X130720571Y-48233235D01*
X130696773Y-48239196D01*
X130672504Y-48242796D01*
X130648000Y-48244000D01*
X129448000Y-48244000D01*
X129423496Y-48242796D01*
X129399227Y-48239196D01*
X129375429Y-48233235D01*
X129352329Y-48224970D01*
X129330151Y-48214480D01*
X129309107Y-48201867D01*
X129289402Y-48187253D01*
X129271223Y-48170777D01*
X129254747Y-48152598D01*
X129240133Y-48132893D01*
X129227520Y-48111849D01*
X129217030Y-48089671D01*
X129208765Y-48066571D01*
X129202804Y-48042773D01*
X129199204Y-48018504D01*
X129198000Y-47994000D01*
X129198000Y-46494000D01*
X129199204Y-46469496D01*
X129202804Y-46445227D01*
X129208765Y-46421429D01*
X129217030Y-46398329D01*
X129227520Y-46376151D01*
X129240133Y-46355107D01*
X129254747Y-46335402D01*
X129271223Y-46317223D01*
X129289402Y-46300747D01*
X129309107Y-46286133D01*
X129330151Y-46273520D01*
X129352329Y-46263030D01*
X129375429Y-46254765D01*
X129399227Y-46248804D01*
X129423496Y-46245204D01*
X129448000Y-46244000D01*
X130648000Y-46244000D01*
X130672504Y-46245204D01*
G37*
G04 #@! TD.AperFunction*
D14*
X132548000Y-47244000D03*
D15*
X139700000Y-46228000D03*
D16*
X139700000Y-48228000D03*
X139700000Y-50228000D03*
D17*
X132634000Y-58846000D03*
D18*
X132634000Y-71046000D03*
X144684000Y-71096000D03*
D17*
X144634000Y-58846000D03*
D18*
X138684000Y-56896000D03*
D13*
X137772000Y-83312000D03*
X137772000Y-78812000D03*
X144272000Y-83312000D03*
X144272000Y-78812000D03*
D19*
X104648000Y-47244000D03*
X107188000Y-47244000D03*
X109728000Y-47244000D03*
X112268000Y-47244000D03*
X114808000Y-47244000D03*
X117348000Y-47244000D03*
X119888000Y-47244000D03*
X122428000Y-47244000D03*
G04 #@! TA.AperFunction,SMDPad,CuDef*
D10*
G36*
X103892779Y-57670144D02*
G01*
X103915834Y-57673563D01*
X103938443Y-57679227D01*
X103960387Y-57687079D01*
X103981457Y-57697044D01*
X104001448Y-57709026D01*
X104020168Y-57722910D01*
X104037438Y-57738562D01*
X104053090Y-57755832D01*
X104066974Y-57774552D01*
X104078956Y-57794543D01*
X104088921Y-57815613D01*
X104096773Y-57837557D01*
X104102437Y-57860166D01*
X104105856Y-57883221D01*
X104107000Y-57906500D01*
X104107000Y-58481500D01*
X104105856Y-58504779D01*
X104102437Y-58527834D01*
X104096773Y-58550443D01*
X104088921Y-58572387D01*
X104078956Y-58593457D01*
X104066974Y-58613448D01*
X104053090Y-58632168D01*
X104037438Y-58649438D01*
X104020168Y-58665090D01*
X104001448Y-58678974D01*
X103981457Y-58690956D01*
X103960387Y-58700921D01*
X103938443Y-58708773D01*
X103915834Y-58714437D01*
X103892779Y-58717856D01*
X103869500Y-58719000D01*
X103394500Y-58719000D01*
X103371221Y-58717856D01*
X103348166Y-58714437D01*
X103325557Y-58708773D01*
X103303613Y-58700921D01*
X103282543Y-58690956D01*
X103262552Y-58678974D01*
X103243832Y-58665090D01*
X103226562Y-58649438D01*
X103210910Y-58632168D01*
X103197026Y-58613448D01*
X103185044Y-58593457D01*
X103175079Y-58572387D01*
X103167227Y-58550443D01*
X103161563Y-58527834D01*
X103158144Y-58504779D01*
X103157000Y-58481500D01*
X103157000Y-57906500D01*
X103158144Y-57883221D01*
X103161563Y-57860166D01*
X103167227Y-57837557D01*
X103175079Y-57815613D01*
X103185044Y-57794543D01*
X103197026Y-57774552D01*
X103210910Y-57755832D01*
X103226562Y-57738562D01*
X103243832Y-57722910D01*
X103262552Y-57709026D01*
X103282543Y-57697044D01*
X103303613Y-57687079D01*
X103325557Y-57679227D01*
X103348166Y-57673563D01*
X103371221Y-57670144D01*
X103394500Y-57669000D01*
X103869500Y-57669000D01*
X103892779Y-57670144D01*
G37*
G04 #@! TD.AperFunction*
G04 #@! TA.AperFunction,SMDPad,CuDef*
G36*
X103892779Y-59420144D02*
G01*
X103915834Y-59423563D01*
X103938443Y-59429227D01*
X103960387Y-59437079D01*
X103981457Y-59447044D01*
X104001448Y-59459026D01*
X104020168Y-59472910D01*
X104037438Y-59488562D01*
X104053090Y-59505832D01*
X104066974Y-59524552D01*
X104078956Y-59544543D01*
X104088921Y-59565613D01*
X104096773Y-59587557D01*
X104102437Y-59610166D01*
X104105856Y-59633221D01*
X104107000Y-59656500D01*
X104107000Y-60231500D01*
X104105856Y-60254779D01*
X104102437Y-60277834D01*
X104096773Y-60300443D01*
X104088921Y-60322387D01*
X104078956Y-60343457D01*
X104066974Y-60363448D01*
X104053090Y-60382168D01*
X104037438Y-60399438D01*
X104020168Y-60415090D01*
X104001448Y-60428974D01*
X103981457Y-60440956D01*
X103960387Y-60450921D01*
X103938443Y-60458773D01*
X103915834Y-60464437D01*
X103892779Y-60467856D01*
X103869500Y-60469000D01*
X103394500Y-60469000D01*
X103371221Y-60467856D01*
X103348166Y-60464437D01*
X103325557Y-60458773D01*
X103303613Y-60450921D01*
X103282543Y-60440956D01*
X103262552Y-60428974D01*
X103243832Y-60415090D01*
X103226562Y-60399438D01*
X103210910Y-60382168D01*
X103197026Y-60363448D01*
X103185044Y-60343457D01*
X103175079Y-60322387D01*
X103167227Y-60300443D01*
X103161563Y-60277834D01*
X103158144Y-60254779D01*
X103157000Y-60231500D01*
X103157000Y-59656500D01*
X103158144Y-59633221D01*
X103161563Y-59610166D01*
X103167227Y-59587557D01*
X103175079Y-59565613D01*
X103185044Y-59544543D01*
X103197026Y-59524552D01*
X103210910Y-59505832D01*
X103226562Y-59488562D01*
X103243832Y-59472910D01*
X103262552Y-59459026D01*
X103282543Y-59447044D01*
X103303613Y-59437079D01*
X103325557Y-59429227D01*
X103348166Y-59423563D01*
X103371221Y-59420144D01*
X103394500Y-59419000D01*
X103869500Y-59419000D01*
X103892779Y-59420144D01*
G37*
G04 #@! TD.AperFunction*
G04 #@! TA.AperFunction,SMDPad,CuDef*
G36*
X99828779Y-61960144D02*
G01*
X99851834Y-61963563D01*
X99874443Y-61969227D01*
X99896387Y-61977079D01*
X99917457Y-61987044D01*
X99937448Y-61999026D01*
X99956168Y-62012910D01*
X99973438Y-62028562D01*
X99989090Y-62045832D01*
X100002974Y-62064552D01*
X100014956Y-62084543D01*
X100024921Y-62105613D01*
X100032773Y-62127557D01*
X100038437Y-62150166D01*
X100041856Y-62173221D01*
X100043000Y-62196500D01*
X100043000Y-62771500D01*
X100041856Y-62794779D01*
X100038437Y-62817834D01*
X100032773Y-62840443D01*
X100024921Y-62862387D01*
X100014956Y-62883457D01*
X100002974Y-62903448D01*
X99989090Y-62922168D01*
X99973438Y-62939438D01*
X99956168Y-62955090D01*
X99937448Y-62968974D01*
X99917457Y-62980956D01*
X99896387Y-62990921D01*
X99874443Y-62998773D01*
X99851834Y-63004437D01*
X99828779Y-63007856D01*
X99805500Y-63009000D01*
X99330500Y-63009000D01*
X99307221Y-63007856D01*
X99284166Y-63004437D01*
X99261557Y-62998773D01*
X99239613Y-62990921D01*
X99218543Y-62980956D01*
X99198552Y-62968974D01*
X99179832Y-62955090D01*
X99162562Y-62939438D01*
X99146910Y-62922168D01*
X99133026Y-62903448D01*
X99121044Y-62883457D01*
X99111079Y-62862387D01*
X99103227Y-62840443D01*
X99097563Y-62817834D01*
X99094144Y-62794779D01*
X99093000Y-62771500D01*
X99093000Y-62196500D01*
X99094144Y-62173221D01*
X99097563Y-62150166D01*
X99103227Y-62127557D01*
X99111079Y-62105613D01*
X99121044Y-62084543D01*
X99133026Y-62064552D01*
X99146910Y-62045832D01*
X99162562Y-62028562D01*
X99179832Y-62012910D01*
X99198552Y-61999026D01*
X99218543Y-61987044D01*
X99239613Y-61977079D01*
X99261557Y-61969227D01*
X99284166Y-61963563D01*
X99307221Y-61960144D01*
X99330500Y-61959000D01*
X99805500Y-61959000D01*
X99828779Y-61960144D01*
G37*
G04 #@! TD.AperFunction*
G04 #@! TA.AperFunction,SMDPad,CuDef*
G36*
X99828779Y-63710144D02*
G01*
X99851834Y-63713563D01*
X99874443Y-63719227D01*
X99896387Y-63727079D01*
X99917457Y-63737044D01*
X99937448Y-63749026D01*
X99956168Y-63762910D01*
X99973438Y-63778562D01*
X99989090Y-63795832D01*
X100002974Y-63814552D01*
X100014956Y-63834543D01*
X100024921Y-63855613D01*
X100032773Y-63877557D01*
X100038437Y-63900166D01*
X100041856Y-63923221D01*
X100043000Y-63946500D01*
X100043000Y-64521500D01*
X100041856Y-64544779D01*
X100038437Y-64567834D01*
X100032773Y-64590443D01*
X100024921Y-64612387D01*
X100014956Y-64633457D01*
X100002974Y-64653448D01*
X99989090Y-64672168D01*
X99973438Y-64689438D01*
X99956168Y-64705090D01*
X99937448Y-64718974D01*
X99917457Y-64730956D01*
X99896387Y-64740921D01*
X99874443Y-64748773D01*
X99851834Y-64754437D01*
X99828779Y-64757856D01*
X99805500Y-64759000D01*
X99330500Y-64759000D01*
X99307221Y-64757856D01*
X99284166Y-64754437D01*
X99261557Y-64748773D01*
X99239613Y-64740921D01*
X99218543Y-64730956D01*
X99198552Y-64718974D01*
X99179832Y-64705090D01*
X99162562Y-64689438D01*
X99146910Y-64672168D01*
X99133026Y-64653448D01*
X99121044Y-64633457D01*
X99111079Y-64612387D01*
X99103227Y-64590443D01*
X99097563Y-64567834D01*
X99094144Y-64544779D01*
X99093000Y-64521500D01*
X99093000Y-63946500D01*
X99094144Y-63923221D01*
X99097563Y-63900166D01*
X99103227Y-63877557D01*
X99111079Y-63855613D01*
X99121044Y-63834543D01*
X99133026Y-63814552D01*
X99146910Y-63795832D01*
X99162562Y-63778562D01*
X99179832Y-63762910D01*
X99198552Y-63749026D01*
X99218543Y-63737044D01*
X99239613Y-63727079D01*
X99261557Y-63719227D01*
X99284166Y-63713563D01*
X99307221Y-63710144D01*
X99330500Y-63709000D01*
X99805500Y-63709000D01*
X99828779Y-63710144D01*
G37*
G04 #@! TD.AperFunction*
G04 #@! TA.AperFunction,SMDPad,CuDef*
G36*
X99828779Y-57896144D02*
G01*
X99851834Y-57899563D01*
X99874443Y-57905227D01*
X99896387Y-57913079D01*
X99917457Y-57923044D01*
X99937448Y-57935026D01*
X99956168Y-57948910D01*
X99973438Y-57964562D01*
X99989090Y-57981832D01*
X100002974Y-58000552D01*
X100014956Y-58020543D01*
X100024921Y-58041613D01*
X100032773Y-58063557D01*
X100038437Y-58086166D01*
X100041856Y-58109221D01*
X100043000Y-58132500D01*
X100043000Y-58707500D01*
X100041856Y-58730779D01*
X100038437Y-58753834D01*
X100032773Y-58776443D01*
X100024921Y-58798387D01*
X100014956Y-58819457D01*
X100002974Y-58839448D01*
X99989090Y-58858168D01*
X99973438Y-58875438D01*
X99956168Y-58891090D01*
X99937448Y-58904974D01*
X99917457Y-58916956D01*
X99896387Y-58926921D01*
X99874443Y-58934773D01*
X99851834Y-58940437D01*
X99828779Y-58943856D01*
X99805500Y-58945000D01*
X99330500Y-58945000D01*
X99307221Y-58943856D01*
X99284166Y-58940437D01*
X99261557Y-58934773D01*
X99239613Y-58926921D01*
X99218543Y-58916956D01*
X99198552Y-58904974D01*
X99179832Y-58891090D01*
X99162562Y-58875438D01*
X99146910Y-58858168D01*
X99133026Y-58839448D01*
X99121044Y-58819457D01*
X99111079Y-58798387D01*
X99103227Y-58776443D01*
X99097563Y-58753834D01*
X99094144Y-58730779D01*
X99093000Y-58707500D01*
X99093000Y-58132500D01*
X99094144Y-58109221D01*
X99097563Y-58086166D01*
X99103227Y-58063557D01*
X99111079Y-58041613D01*
X99121044Y-58020543D01*
X99133026Y-58000552D01*
X99146910Y-57981832D01*
X99162562Y-57964562D01*
X99179832Y-57948910D01*
X99198552Y-57935026D01*
X99218543Y-57923044D01*
X99239613Y-57913079D01*
X99261557Y-57905227D01*
X99284166Y-57899563D01*
X99307221Y-57896144D01*
X99330500Y-57895000D01*
X99805500Y-57895000D01*
X99828779Y-57896144D01*
G37*
G04 #@! TD.AperFunction*
G04 #@! TA.AperFunction,SMDPad,CuDef*
G36*
X99828779Y-59646144D02*
G01*
X99851834Y-59649563D01*
X99874443Y-59655227D01*
X99896387Y-59663079D01*
X99917457Y-59673044D01*
X99937448Y-59685026D01*
X99956168Y-59698910D01*
X99973438Y-59714562D01*
X99989090Y-59731832D01*
X100002974Y-59750552D01*
X100014956Y-59770543D01*
X100024921Y-59791613D01*
X100032773Y-59813557D01*
X100038437Y-59836166D01*
X100041856Y-59859221D01*
X100043000Y-59882500D01*
X100043000Y-60457500D01*
X100041856Y-60480779D01*
X100038437Y-60503834D01*
X100032773Y-60526443D01*
X100024921Y-60548387D01*
X100014956Y-60569457D01*
X100002974Y-60589448D01*
X99989090Y-60608168D01*
X99973438Y-60625438D01*
X99956168Y-60641090D01*
X99937448Y-60654974D01*
X99917457Y-60666956D01*
X99896387Y-60676921D01*
X99874443Y-60684773D01*
X99851834Y-60690437D01*
X99828779Y-60693856D01*
X99805500Y-60695000D01*
X99330500Y-60695000D01*
X99307221Y-60693856D01*
X99284166Y-60690437D01*
X99261557Y-60684773D01*
X99239613Y-60676921D01*
X99218543Y-60666956D01*
X99198552Y-60654974D01*
X99179832Y-60641090D01*
X99162562Y-60625438D01*
X99146910Y-60608168D01*
X99133026Y-60589448D01*
X99121044Y-60569457D01*
X99111079Y-60548387D01*
X99103227Y-60526443D01*
X99097563Y-60503834D01*
X99094144Y-60480779D01*
X99093000Y-60457500D01*
X99093000Y-59882500D01*
X99094144Y-59859221D01*
X99097563Y-59836166D01*
X99103227Y-59813557D01*
X99111079Y-59791613D01*
X99121044Y-59770543D01*
X99133026Y-59750552D01*
X99146910Y-59731832D01*
X99162562Y-59714562D01*
X99179832Y-59698910D01*
X99198552Y-59685026D01*
X99218543Y-59673044D01*
X99239613Y-59663079D01*
X99261557Y-59655227D01*
X99284166Y-59649563D01*
X99307221Y-59646144D01*
X99330500Y-59645000D01*
X99805500Y-59645000D01*
X99828779Y-59646144D01*
G37*
G04 #@! TD.AperFunction*
G04 #@! TA.AperFunction,SMDPad,CuDef*
G36*
X103892779Y-63710144D02*
G01*
X103915834Y-63713563D01*
X103938443Y-63719227D01*
X103960387Y-63727079D01*
X103981457Y-63737044D01*
X104001448Y-63749026D01*
X104020168Y-63762910D01*
X104037438Y-63778562D01*
X104053090Y-63795832D01*
X104066974Y-63814552D01*
X104078956Y-63834543D01*
X104088921Y-63855613D01*
X104096773Y-63877557D01*
X104102437Y-63900166D01*
X104105856Y-63923221D01*
X104107000Y-63946500D01*
X104107000Y-64521500D01*
X104105856Y-64544779D01*
X104102437Y-64567834D01*
X104096773Y-64590443D01*
X104088921Y-64612387D01*
X104078956Y-64633457D01*
X104066974Y-64653448D01*
X104053090Y-64672168D01*
X104037438Y-64689438D01*
X104020168Y-64705090D01*
X104001448Y-64718974D01*
X103981457Y-64730956D01*
X103960387Y-64740921D01*
X103938443Y-64748773D01*
X103915834Y-64754437D01*
X103892779Y-64757856D01*
X103869500Y-64759000D01*
X103394500Y-64759000D01*
X103371221Y-64757856D01*
X103348166Y-64754437D01*
X103325557Y-64748773D01*
X103303613Y-64740921D01*
X103282543Y-64730956D01*
X103262552Y-64718974D01*
X103243832Y-64705090D01*
X103226562Y-64689438D01*
X103210910Y-64672168D01*
X103197026Y-64653448D01*
X103185044Y-64633457D01*
X103175079Y-64612387D01*
X103167227Y-64590443D01*
X103161563Y-64567834D01*
X103158144Y-64544779D01*
X103157000Y-64521500D01*
X103157000Y-63946500D01*
X103158144Y-63923221D01*
X103161563Y-63900166D01*
X103167227Y-63877557D01*
X103175079Y-63855613D01*
X103185044Y-63834543D01*
X103197026Y-63814552D01*
X103210910Y-63795832D01*
X103226562Y-63778562D01*
X103243832Y-63762910D01*
X103262552Y-63749026D01*
X103282543Y-63737044D01*
X103303613Y-63727079D01*
X103325557Y-63719227D01*
X103348166Y-63713563D01*
X103371221Y-63710144D01*
X103394500Y-63709000D01*
X103869500Y-63709000D01*
X103892779Y-63710144D01*
G37*
G04 #@! TD.AperFunction*
G04 #@! TA.AperFunction,SMDPad,CuDef*
G36*
X103892779Y-61960144D02*
G01*
X103915834Y-61963563D01*
X103938443Y-61969227D01*
X103960387Y-61977079D01*
X103981457Y-61987044D01*
X104001448Y-61999026D01*
X104020168Y-62012910D01*
X104037438Y-62028562D01*
X104053090Y-62045832D01*
X104066974Y-62064552D01*
X104078956Y-62084543D01*
X104088921Y-62105613D01*
X104096773Y-62127557D01*
X104102437Y-62150166D01*
X104105856Y-62173221D01*
X104107000Y-62196500D01*
X104107000Y-62771500D01*
X104105856Y-62794779D01*
X104102437Y-62817834D01*
X104096773Y-62840443D01*
X104088921Y-62862387D01*
X104078956Y-62883457D01*
X104066974Y-62903448D01*
X104053090Y-62922168D01*
X104037438Y-62939438D01*
X104020168Y-62955090D01*
X104001448Y-62968974D01*
X103981457Y-62980956D01*
X103960387Y-62990921D01*
X103938443Y-62998773D01*
X103915834Y-63004437D01*
X103892779Y-63007856D01*
X103869500Y-63009000D01*
X103394500Y-63009000D01*
X103371221Y-63007856D01*
X103348166Y-63004437D01*
X103325557Y-62998773D01*
X103303613Y-62990921D01*
X103282543Y-62980956D01*
X103262552Y-62968974D01*
X103243832Y-62955090D01*
X103226562Y-62939438D01*
X103210910Y-62922168D01*
X103197026Y-62903448D01*
X103185044Y-62883457D01*
X103175079Y-62862387D01*
X103167227Y-62840443D01*
X103161563Y-62817834D01*
X103158144Y-62794779D01*
X103157000Y-62771500D01*
X103157000Y-62196500D01*
X103158144Y-62173221D01*
X103161563Y-62150166D01*
X103167227Y-62127557D01*
X103175079Y-62105613D01*
X103185044Y-62084543D01*
X103197026Y-62064552D01*
X103210910Y-62045832D01*
X103226562Y-62028562D01*
X103243832Y-62012910D01*
X103262552Y-61999026D01*
X103282543Y-61987044D01*
X103303613Y-61977079D01*
X103325557Y-61969227D01*
X103348166Y-61963563D01*
X103371221Y-61960144D01*
X103394500Y-61959000D01*
X103869500Y-61959000D01*
X103892779Y-61960144D01*
G37*
G04 #@! TD.AperFunction*
G04 #@! TA.AperFunction,SMDPad,CuDef*
G36*
X100563004Y-67198204D02*
G01*
X100587273Y-67201804D01*
X100611071Y-67207765D01*
X100634171Y-67216030D01*
X100656349Y-67226520D01*
X100677393Y-67239133D01*
X100697098Y-67253747D01*
X100715277Y-67270223D01*
X100731753Y-67288402D01*
X100746367Y-67308107D01*
X100758980Y-67329151D01*
X100769470Y-67351329D01*
X100777735Y-67374429D01*
X100783696Y-67398227D01*
X100787296Y-67422496D01*
X100788500Y-67447000D01*
X100788500Y-68697000D01*
X100787296Y-68721504D01*
X100783696Y-68745773D01*
X100777735Y-68769571D01*
X100769470Y-68792671D01*
X100758980Y-68814849D01*
X100746367Y-68835893D01*
X100731753Y-68855598D01*
X100715277Y-68873777D01*
X100697098Y-68890253D01*
X100677393Y-68904867D01*
X100656349Y-68917480D01*
X100634171Y-68927970D01*
X100611071Y-68936235D01*
X100587273Y-68942196D01*
X100563004Y-68945796D01*
X100538500Y-68947000D01*
X99613500Y-68947000D01*
X99588996Y-68945796D01*
X99564727Y-68942196D01*
X99540929Y-68936235D01*
X99517829Y-68927970D01*
X99495651Y-68917480D01*
X99474607Y-68904867D01*
X99454902Y-68890253D01*
X99436723Y-68873777D01*
X99420247Y-68855598D01*
X99405633Y-68835893D01*
X99393020Y-68814849D01*
X99382530Y-68792671D01*
X99374265Y-68769571D01*
X99368304Y-68745773D01*
X99364704Y-68721504D01*
X99363500Y-68697000D01*
X99363500Y-67447000D01*
X99364704Y-67422496D01*
X99368304Y-67398227D01*
X99374265Y-67374429D01*
X99382530Y-67351329D01*
X99393020Y-67329151D01*
X99405633Y-67308107D01*
X99420247Y-67288402D01*
X99436723Y-67270223D01*
X99454902Y-67253747D01*
X99474607Y-67239133D01*
X99495651Y-67226520D01*
X99517829Y-67216030D01*
X99540929Y-67207765D01*
X99564727Y-67201804D01*
X99588996Y-67198204D01*
X99613500Y-67197000D01*
X100538500Y-67197000D01*
X100563004Y-67198204D01*
G37*
G04 #@! TD.AperFunction*
G04 #@! TA.AperFunction,SMDPad,CuDef*
G36*
X103538004Y-67198204D02*
G01*
X103562273Y-67201804D01*
X103586071Y-67207765D01*
X103609171Y-67216030D01*
X103631349Y-67226520D01*
X103652393Y-67239133D01*
X103672098Y-67253747D01*
X103690277Y-67270223D01*
X103706753Y-67288402D01*
X103721367Y-67308107D01*
X103733980Y-67329151D01*
X103744470Y-67351329D01*
X103752735Y-67374429D01*
X103758696Y-67398227D01*
X103762296Y-67422496D01*
X103763500Y-67447000D01*
X103763500Y-68697000D01*
X103762296Y-68721504D01*
X103758696Y-68745773D01*
X103752735Y-68769571D01*
X103744470Y-68792671D01*
X103733980Y-68814849D01*
X103721367Y-68835893D01*
X103706753Y-68855598D01*
X103690277Y-68873777D01*
X103672098Y-68890253D01*
X103652393Y-68904867D01*
X103631349Y-68917480D01*
X103609171Y-68927970D01*
X103586071Y-68936235D01*
X103562273Y-68942196D01*
X103538004Y-68945796D01*
X103513500Y-68947000D01*
X102588500Y-68947000D01*
X102563996Y-68945796D01*
X102539727Y-68942196D01*
X102515929Y-68936235D01*
X102492829Y-68927970D01*
X102470651Y-68917480D01*
X102449607Y-68904867D01*
X102429902Y-68890253D01*
X102411723Y-68873777D01*
X102395247Y-68855598D01*
X102380633Y-68835893D01*
X102368020Y-68814849D01*
X102357530Y-68792671D01*
X102349265Y-68769571D01*
X102343304Y-68745773D01*
X102339704Y-68721504D01*
X102338500Y-68697000D01*
X102338500Y-67447000D01*
X102339704Y-67422496D01*
X102343304Y-67398227D01*
X102349265Y-67374429D01*
X102357530Y-67351329D01*
X102368020Y-67329151D01*
X102380633Y-67308107D01*
X102395247Y-67288402D01*
X102411723Y-67270223D01*
X102429902Y-67253747D01*
X102449607Y-67239133D01*
X102470651Y-67226520D01*
X102492829Y-67216030D01*
X102515929Y-67207765D01*
X102539727Y-67201804D01*
X102563996Y-67198204D01*
X102588500Y-67197000D01*
X103513500Y-67197000D01*
X103538004Y-67198204D01*
G37*
G04 #@! TD.AperFunction*
G04 #@! TA.AperFunction,SMDPad,CuDef*
G36*
X96153504Y-68884704D02*
G01*
X96177773Y-68888304D01*
X96201571Y-68894265D01*
X96224671Y-68902530D01*
X96246849Y-68913020D01*
X96267893Y-68925633D01*
X96287598Y-68940247D01*
X96305777Y-68956723D01*
X96322253Y-68974902D01*
X96336867Y-68994607D01*
X96349480Y-69015651D01*
X96359970Y-69037829D01*
X96368235Y-69060929D01*
X96374196Y-69084727D01*
X96377796Y-69108996D01*
X96379000Y-69133500D01*
X96379000Y-70058500D01*
X96377796Y-70083004D01*
X96374196Y-70107273D01*
X96368235Y-70131071D01*
X96359970Y-70154171D01*
X96349480Y-70176349D01*
X96336867Y-70197393D01*
X96322253Y-70217098D01*
X96305777Y-70235277D01*
X96287598Y-70251753D01*
X96267893Y-70266367D01*
X96246849Y-70278980D01*
X96224671Y-70289470D01*
X96201571Y-70297735D01*
X96177773Y-70303696D01*
X96153504Y-70307296D01*
X96129000Y-70308500D01*
X94879000Y-70308500D01*
X94854496Y-70307296D01*
X94830227Y-70303696D01*
X94806429Y-70297735D01*
X94783329Y-70289470D01*
X94761151Y-70278980D01*
X94740107Y-70266367D01*
X94720402Y-70251753D01*
X94702223Y-70235277D01*
X94685747Y-70217098D01*
X94671133Y-70197393D01*
X94658520Y-70176349D01*
X94648030Y-70154171D01*
X94639765Y-70131071D01*
X94633804Y-70107273D01*
X94630204Y-70083004D01*
X94629000Y-70058500D01*
X94629000Y-69133500D01*
X94630204Y-69108996D01*
X94633804Y-69084727D01*
X94639765Y-69060929D01*
X94648030Y-69037829D01*
X94658520Y-69015651D01*
X94671133Y-68994607D01*
X94685747Y-68974902D01*
X94702223Y-68956723D01*
X94720402Y-68940247D01*
X94740107Y-68925633D01*
X94761151Y-68913020D01*
X94783329Y-68902530D01*
X94806429Y-68894265D01*
X94830227Y-68888304D01*
X94854496Y-68884704D01*
X94879000Y-68883500D01*
X96129000Y-68883500D01*
X96153504Y-68884704D01*
G37*
G04 #@! TD.AperFunction*
G04 #@! TA.AperFunction,SMDPad,CuDef*
G36*
X96153504Y-65909704D02*
G01*
X96177773Y-65913304D01*
X96201571Y-65919265D01*
X96224671Y-65927530D01*
X96246849Y-65938020D01*
X96267893Y-65950633D01*
X96287598Y-65965247D01*
X96305777Y-65981723D01*
X96322253Y-65999902D01*
X96336867Y-66019607D01*
X96349480Y-66040651D01*
X96359970Y-66062829D01*
X96368235Y-66085929D01*
X96374196Y-66109727D01*
X96377796Y-66133996D01*
X96379000Y-66158500D01*
X96379000Y-67083500D01*
X96377796Y-67108004D01*
X96374196Y-67132273D01*
X96368235Y-67156071D01*
X96359970Y-67179171D01*
X96349480Y-67201349D01*
X96336867Y-67222393D01*
X96322253Y-67242098D01*
X96305777Y-67260277D01*
X96287598Y-67276753D01*
X96267893Y-67291367D01*
X96246849Y-67303980D01*
X96224671Y-67314470D01*
X96201571Y-67322735D01*
X96177773Y-67328696D01*
X96153504Y-67332296D01*
X96129000Y-67333500D01*
X94879000Y-67333500D01*
X94854496Y-67332296D01*
X94830227Y-67328696D01*
X94806429Y-67322735D01*
X94783329Y-67314470D01*
X94761151Y-67303980D01*
X94740107Y-67291367D01*
X94720402Y-67276753D01*
X94702223Y-67260277D01*
X94685747Y-67242098D01*
X94671133Y-67222393D01*
X94658520Y-67201349D01*
X94648030Y-67179171D01*
X94639765Y-67156071D01*
X94633804Y-67132273D01*
X94630204Y-67108004D01*
X94629000Y-67083500D01*
X94629000Y-66158500D01*
X94630204Y-66133996D01*
X94633804Y-66109727D01*
X94639765Y-66085929D01*
X94648030Y-66062829D01*
X94658520Y-66040651D01*
X94671133Y-66019607D01*
X94685747Y-65999902D01*
X94702223Y-65981723D01*
X94720402Y-65965247D01*
X94740107Y-65950633D01*
X94761151Y-65938020D01*
X94783329Y-65927530D01*
X94806429Y-65919265D01*
X94830227Y-65913304D01*
X94854496Y-65909704D01*
X94879000Y-65908500D01*
X96129000Y-65908500D01*
X96153504Y-65909704D01*
G37*
G04 #@! TD.AperFunction*
G04 #@! TA.AperFunction,SMDPad,CuDef*
G36*
X96153504Y-74399704D02*
G01*
X96177773Y-74403304D01*
X96201571Y-74409265D01*
X96224671Y-74417530D01*
X96246849Y-74428020D01*
X96267893Y-74440633D01*
X96287598Y-74455247D01*
X96305777Y-74471723D01*
X96322253Y-74489902D01*
X96336867Y-74509607D01*
X96349480Y-74530651D01*
X96359970Y-74552829D01*
X96368235Y-74575929D01*
X96374196Y-74599727D01*
X96377796Y-74623996D01*
X96379000Y-74648500D01*
X96379000Y-75573500D01*
X96377796Y-75598004D01*
X96374196Y-75622273D01*
X96368235Y-75646071D01*
X96359970Y-75669171D01*
X96349480Y-75691349D01*
X96336867Y-75712393D01*
X96322253Y-75732098D01*
X96305777Y-75750277D01*
X96287598Y-75766753D01*
X96267893Y-75781367D01*
X96246849Y-75793980D01*
X96224671Y-75804470D01*
X96201571Y-75812735D01*
X96177773Y-75818696D01*
X96153504Y-75822296D01*
X96129000Y-75823500D01*
X94879000Y-75823500D01*
X94854496Y-75822296D01*
X94830227Y-75818696D01*
X94806429Y-75812735D01*
X94783329Y-75804470D01*
X94761151Y-75793980D01*
X94740107Y-75781367D01*
X94720402Y-75766753D01*
X94702223Y-75750277D01*
X94685747Y-75732098D01*
X94671133Y-75712393D01*
X94658520Y-75691349D01*
X94648030Y-75669171D01*
X94639765Y-75646071D01*
X94633804Y-75622273D01*
X94630204Y-75598004D01*
X94629000Y-75573500D01*
X94629000Y-74648500D01*
X94630204Y-74623996D01*
X94633804Y-74599727D01*
X94639765Y-74575929D01*
X94648030Y-74552829D01*
X94658520Y-74530651D01*
X94671133Y-74509607D01*
X94685747Y-74489902D01*
X94702223Y-74471723D01*
X94720402Y-74455247D01*
X94740107Y-74440633D01*
X94761151Y-74428020D01*
X94783329Y-74417530D01*
X94806429Y-74409265D01*
X94830227Y-74403304D01*
X94854496Y-74399704D01*
X94879000Y-74398500D01*
X96129000Y-74398500D01*
X96153504Y-74399704D01*
G37*
G04 #@! TD.AperFunction*
G04 #@! TA.AperFunction,SMDPad,CuDef*
G36*
X96153504Y-71424704D02*
G01*
X96177773Y-71428304D01*
X96201571Y-71434265D01*
X96224671Y-71442530D01*
X96246849Y-71453020D01*
X96267893Y-71465633D01*
X96287598Y-71480247D01*
X96305777Y-71496723D01*
X96322253Y-71514902D01*
X96336867Y-71534607D01*
X96349480Y-71555651D01*
X96359970Y-71577829D01*
X96368235Y-71600929D01*
X96374196Y-71624727D01*
X96377796Y-71648996D01*
X96379000Y-71673500D01*
X96379000Y-72598500D01*
X96377796Y-72623004D01*
X96374196Y-72647273D01*
X96368235Y-72671071D01*
X96359970Y-72694171D01*
X96349480Y-72716349D01*
X96336867Y-72737393D01*
X96322253Y-72757098D01*
X96305777Y-72775277D01*
X96287598Y-72791753D01*
X96267893Y-72806367D01*
X96246849Y-72818980D01*
X96224671Y-72829470D01*
X96201571Y-72837735D01*
X96177773Y-72843696D01*
X96153504Y-72847296D01*
X96129000Y-72848500D01*
X94879000Y-72848500D01*
X94854496Y-72847296D01*
X94830227Y-72843696D01*
X94806429Y-72837735D01*
X94783329Y-72829470D01*
X94761151Y-72818980D01*
X94740107Y-72806367D01*
X94720402Y-72791753D01*
X94702223Y-72775277D01*
X94685747Y-72757098D01*
X94671133Y-72737393D01*
X94658520Y-72716349D01*
X94648030Y-72694171D01*
X94639765Y-72671071D01*
X94633804Y-72647273D01*
X94630204Y-72623004D01*
X94629000Y-72598500D01*
X94629000Y-71673500D01*
X94630204Y-71648996D01*
X94633804Y-71624727D01*
X94639765Y-71600929D01*
X94648030Y-71577829D01*
X94658520Y-71555651D01*
X94671133Y-71534607D01*
X94685747Y-71514902D01*
X94702223Y-71496723D01*
X94720402Y-71480247D01*
X94740107Y-71465633D01*
X94761151Y-71453020D01*
X94783329Y-71442530D01*
X94806429Y-71434265D01*
X94830227Y-71428304D01*
X94854496Y-71424704D01*
X94879000Y-71423500D01*
X96129000Y-71423500D01*
X96153504Y-71424704D01*
G37*
G04 #@! TD.AperFunction*
G04 #@! TA.AperFunction,SMDPad,CuDef*
G36*
X96153504Y-80060704D02*
G01*
X96177773Y-80064304D01*
X96201571Y-80070265D01*
X96224671Y-80078530D01*
X96246849Y-80089020D01*
X96267893Y-80101633D01*
X96287598Y-80116247D01*
X96305777Y-80132723D01*
X96322253Y-80150902D01*
X96336867Y-80170607D01*
X96349480Y-80191651D01*
X96359970Y-80213829D01*
X96368235Y-80236929D01*
X96374196Y-80260727D01*
X96377796Y-80284996D01*
X96379000Y-80309500D01*
X96379000Y-81234500D01*
X96377796Y-81259004D01*
X96374196Y-81283273D01*
X96368235Y-81307071D01*
X96359970Y-81330171D01*
X96349480Y-81352349D01*
X96336867Y-81373393D01*
X96322253Y-81393098D01*
X96305777Y-81411277D01*
X96287598Y-81427753D01*
X96267893Y-81442367D01*
X96246849Y-81454980D01*
X96224671Y-81465470D01*
X96201571Y-81473735D01*
X96177773Y-81479696D01*
X96153504Y-81483296D01*
X96129000Y-81484500D01*
X94879000Y-81484500D01*
X94854496Y-81483296D01*
X94830227Y-81479696D01*
X94806429Y-81473735D01*
X94783329Y-81465470D01*
X94761151Y-81454980D01*
X94740107Y-81442367D01*
X94720402Y-81427753D01*
X94702223Y-81411277D01*
X94685747Y-81393098D01*
X94671133Y-81373393D01*
X94658520Y-81352349D01*
X94648030Y-81330171D01*
X94639765Y-81307071D01*
X94633804Y-81283273D01*
X94630204Y-81259004D01*
X94629000Y-81234500D01*
X94629000Y-80309500D01*
X94630204Y-80284996D01*
X94633804Y-80260727D01*
X94639765Y-80236929D01*
X94648030Y-80213829D01*
X94658520Y-80191651D01*
X94671133Y-80170607D01*
X94685747Y-80150902D01*
X94702223Y-80132723D01*
X94720402Y-80116247D01*
X94740107Y-80101633D01*
X94761151Y-80089020D01*
X94783329Y-80078530D01*
X94806429Y-80070265D01*
X94830227Y-80064304D01*
X94854496Y-80060704D01*
X94879000Y-80059500D01*
X96129000Y-80059500D01*
X96153504Y-80060704D01*
G37*
G04 #@! TD.AperFunction*
G04 #@! TA.AperFunction,SMDPad,CuDef*
G36*
X96153504Y-77085704D02*
G01*
X96177773Y-77089304D01*
X96201571Y-77095265D01*
X96224671Y-77103530D01*
X96246849Y-77114020D01*
X96267893Y-77126633D01*
X96287598Y-77141247D01*
X96305777Y-77157723D01*
X96322253Y-77175902D01*
X96336867Y-77195607D01*
X96349480Y-77216651D01*
X96359970Y-77238829D01*
X96368235Y-77261929D01*
X96374196Y-77285727D01*
X96377796Y-77309996D01*
X96379000Y-77334500D01*
X96379000Y-78259500D01*
X96377796Y-78284004D01*
X96374196Y-78308273D01*
X96368235Y-78332071D01*
X96359970Y-78355171D01*
X96349480Y-78377349D01*
X96336867Y-78398393D01*
X96322253Y-78418098D01*
X96305777Y-78436277D01*
X96287598Y-78452753D01*
X96267893Y-78467367D01*
X96246849Y-78479980D01*
X96224671Y-78490470D01*
X96201571Y-78498735D01*
X96177773Y-78504696D01*
X96153504Y-78508296D01*
X96129000Y-78509500D01*
X94879000Y-78509500D01*
X94854496Y-78508296D01*
X94830227Y-78504696D01*
X94806429Y-78498735D01*
X94783329Y-78490470D01*
X94761151Y-78479980D01*
X94740107Y-78467367D01*
X94720402Y-78452753D01*
X94702223Y-78436277D01*
X94685747Y-78418098D01*
X94671133Y-78398393D01*
X94658520Y-78377349D01*
X94648030Y-78355171D01*
X94639765Y-78332071D01*
X94633804Y-78308273D01*
X94630204Y-78284004D01*
X94629000Y-78259500D01*
X94629000Y-77334500D01*
X94630204Y-77309996D01*
X94633804Y-77285727D01*
X94639765Y-77261929D01*
X94648030Y-77238829D01*
X94658520Y-77216651D01*
X94671133Y-77195607D01*
X94685747Y-77175902D01*
X94702223Y-77157723D01*
X94720402Y-77141247D01*
X94740107Y-77126633D01*
X94761151Y-77114020D01*
X94783329Y-77103530D01*
X94806429Y-77095265D01*
X94830227Y-77089304D01*
X94854496Y-77085704D01*
X94879000Y-77084500D01*
X96129000Y-77084500D01*
X96153504Y-77085704D01*
G37*
G04 #@! TD.AperFunction*
G04 #@! TA.AperFunction,SMDPad,CuDef*
G36*
X91073504Y-80024204D02*
G01*
X91097773Y-80027804D01*
X91121571Y-80033765D01*
X91144671Y-80042030D01*
X91166849Y-80052520D01*
X91187893Y-80065133D01*
X91207598Y-80079747D01*
X91225777Y-80096223D01*
X91242253Y-80114402D01*
X91256867Y-80134107D01*
X91269480Y-80155151D01*
X91279970Y-80177329D01*
X91288235Y-80200429D01*
X91294196Y-80224227D01*
X91297796Y-80248496D01*
X91299000Y-80273000D01*
X91299000Y-81198000D01*
X91297796Y-81222504D01*
X91294196Y-81246773D01*
X91288235Y-81270571D01*
X91279970Y-81293671D01*
X91269480Y-81315849D01*
X91256867Y-81336893D01*
X91242253Y-81356598D01*
X91225777Y-81374777D01*
X91207598Y-81391253D01*
X91187893Y-81405867D01*
X91166849Y-81418480D01*
X91144671Y-81428970D01*
X91121571Y-81437235D01*
X91097773Y-81443196D01*
X91073504Y-81446796D01*
X91049000Y-81448000D01*
X89799000Y-81448000D01*
X89774496Y-81446796D01*
X89750227Y-81443196D01*
X89726429Y-81437235D01*
X89703329Y-81428970D01*
X89681151Y-81418480D01*
X89660107Y-81405867D01*
X89640402Y-81391253D01*
X89622223Y-81374777D01*
X89605747Y-81356598D01*
X89591133Y-81336893D01*
X89578520Y-81315849D01*
X89568030Y-81293671D01*
X89559765Y-81270571D01*
X89553804Y-81246773D01*
X89550204Y-81222504D01*
X89549000Y-81198000D01*
X89549000Y-80273000D01*
X89550204Y-80248496D01*
X89553804Y-80224227D01*
X89559765Y-80200429D01*
X89568030Y-80177329D01*
X89578520Y-80155151D01*
X89591133Y-80134107D01*
X89605747Y-80114402D01*
X89622223Y-80096223D01*
X89640402Y-80079747D01*
X89660107Y-80065133D01*
X89681151Y-80052520D01*
X89703329Y-80042030D01*
X89726429Y-80033765D01*
X89750227Y-80027804D01*
X89774496Y-80024204D01*
X89799000Y-80023000D01*
X91049000Y-80023000D01*
X91073504Y-80024204D01*
G37*
G04 #@! TD.AperFunction*
G04 #@! TA.AperFunction,SMDPad,CuDef*
G36*
X91073504Y-77049204D02*
G01*
X91097773Y-77052804D01*
X91121571Y-77058765D01*
X91144671Y-77067030D01*
X91166849Y-77077520D01*
X91187893Y-77090133D01*
X91207598Y-77104747D01*
X91225777Y-77121223D01*
X91242253Y-77139402D01*
X91256867Y-77159107D01*
X91269480Y-77180151D01*
X91279970Y-77202329D01*
X91288235Y-77225429D01*
X91294196Y-77249227D01*
X91297796Y-77273496D01*
X91299000Y-77298000D01*
X91299000Y-78223000D01*
X91297796Y-78247504D01*
X91294196Y-78271773D01*
X91288235Y-78295571D01*
X91279970Y-78318671D01*
X91269480Y-78340849D01*
X91256867Y-78361893D01*
X91242253Y-78381598D01*
X91225777Y-78399777D01*
X91207598Y-78416253D01*
X91187893Y-78430867D01*
X91166849Y-78443480D01*
X91144671Y-78453970D01*
X91121571Y-78462235D01*
X91097773Y-78468196D01*
X91073504Y-78471796D01*
X91049000Y-78473000D01*
X89799000Y-78473000D01*
X89774496Y-78471796D01*
X89750227Y-78468196D01*
X89726429Y-78462235D01*
X89703329Y-78453970D01*
X89681151Y-78443480D01*
X89660107Y-78430867D01*
X89640402Y-78416253D01*
X89622223Y-78399777D01*
X89605747Y-78381598D01*
X89591133Y-78361893D01*
X89578520Y-78340849D01*
X89568030Y-78318671D01*
X89559765Y-78295571D01*
X89553804Y-78271773D01*
X89550204Y-78247504D01*
X89549000Y-78223000D01*
X89549000Y-77298000D01*
X89550204Y-77273496D01*
X89553804Y-77249227D01*
X89559765Y-77225429D01*
X89568030Y-77202329D01*
X89578520Y-77180151D01*
X89591133Y-77159107D01*
X89605747Y-77139402D01*
X89622223Y-77121223D01*
X89640402Y-77104747D01*
X89660107Y-77090133D01*
X89681151Y-77077520D01*
X89703329Y-77067030D01*
X89726429Y-77058765D01*
X89750227Y-77052804D01*
X89774496Y-77049204D01*
X89799000Y-77048000D01*
X91049000Y-77048000D01*
X91073504Y-77049204D01*
G37*
G04 #@! TD.AperFunction*
G04 #@! TA.AperFunction,SMDPad,CuDef*
G36*
X91073504Y-71424704D02*
G01*
X91097773Y-71428304D01*
X91121571Y-71434265D01*
X91144671Y-71442530D01*
X91166849Y-71453020D01*
X91187893Y-71465633D01*
X91207598Y-71480247D01*
X91225777Y-71496723D01*
X91242253Y-71514902D01*
X91256867Y-71534607D01*
X91269480Y-71555651D01*
X91279970Y-71577829D01*
X91288235Y-71600929D01*
X91294196Y-71624727D01*
X91297796Y-71648996D01*
X91299000Y-71673500D01*
X91299000Y-72598500D01*
X91297796Y-72623004D01*
X91294196Y-72647273D01*
X91288235Y-72671071D01*
X91279970Y-72694171D01*
X91269480Y-72716349D01*
X91256867Y-72737393D01*
X91242253Y-72757098D01*
X91225777Y-72775277D01*
X91207598Y-72791753D01*
X91187893Y-72806367D01*
X91166849Y-72818980D01*
X91144671Y-72829470D01*
X91121571Y-72837735D01*
X91097773Y-72843696D01*
X91073504Y-72847296D01*
X91049000Y-72848500D01*
X89799000Y-72848500D01*
X89774496Y-72847296D01*
X89750227Y-72843696D01*
X89726429Y-72837735D01*
X89703329Y-72829470D01*
X89681151Y-72818980D01*
X89660107Y-72806367D01*
X89640402Y-72791753D01*
X89622223Y-72775277D01*
X89605747Y-72757098D01*
X89591133Y-72737393D01*
X89578520Y-72716349D01*
X89568030Y-72694171D01*
X89559765Y-72671071D01*
X89553804Y-72647273D01*
X89550204Y-72623004D01*
X89549000Y-72598500D01*
X89549000Y-71673500D01*
X89550204Y-71648996D01*
X89553804Y-71624727D01*
X89559765Y-71600929D01*
X89568030Y-71577829D01*
X89578520Y-71555651D01*
X89591133Y-71534607D01*
X89605747Y-71514902D01*
X89622223Y-71496723D01*
X89640402Y-71480247D01*
X89660107Y-71465633D01*
X89681151Y-71453020D01*
X89703329Y-71442530D01*
X89726429Y-71434265D01*
X89750227Y-71428304D01*
X89774496Y-71424704D01*
X89799000Y-71423500D01*
X91049000Y-71423500D01*
X91073504Y-71424704D01*
G37*
G04 #@! TD.AperFunction*
G04 #@! TA.AperFunction,SMDPad,CuDef*
G36*
X91073504Y-74399704D02*
G01*
X91097773Y-74403304D01*
X91121571Y-74409265D01*
X91144671Y-74417530D01*
X91166849Y-74428020D01*
X91187893Y-74440633D01*
X91207598Y-74455247D01*
X91225777Y-74471723D01*
X91242253Y-74489902D01*
X91256867Y-74509607D01*
X91269480Y-74530651D01*
X91279970Y-74552829D01*
X91288235Y-74575929D01*
X91294196Y-74599727D01*
X91297796Y-74623996D01*
X91299000Y-74648500D01*
X91299000Y-75573500D01*
X91297796Y-75598004D01*
X91294196Y-75622273D01*
X91288235Y-75646071D01*
X91279970Y-75669171D01*
X91269480Y-75691349D01*
X91256867Y-75712393D01*
X91242253Y-75732098D01*
X91225777Y-75750277D01*
X91207598Y-75766753D01*
X91187893Y-75781367D01*
X91166849Y-75793980D01*
X91144671Y-75804470D01*
X91121571Y-75812735D01*
X91097773Y-75818696D01*
X91073504Y-75822296D01*
X91049000Y-75823500D01*
X89799000Y-75823500D01*
X89774496Y-75822296D01*
X89750227Y-75818696D01*
X89726429Y-75812735D01*
X89703329Y-75804470D01*
X89681151Y-75793980D01*
X89660107Y-75781367D01*
X89640402Y-75766753D01*
X89622223Y-75750277D01*
X89605747Y-75732098D01*
X89591133Y-75712393D01*
X89578520Y-75691349D01*
X89568030Y-75669171D01*
X89559765Y-75646071D01*
X89553804Y-75622273D01*
X89550204Y-75598004D01*
X89549000Y-75573500D01*
X89549000Y-74648500D01*
X89550204Y-74623996D01*
X89553804Y-74599727D01*
X89559765Y-74575929D01*
X89568030Y-74552829D01*
X89578520Y-74530651D01*
X89591133Y-74509607D01*
X89605747Y-74489902D01*
X89622223Y-74471723D01*
X89640402Y-74455247D01*
X89660107Y-74440633D01*
X89681151Y-74428020D01*
X89703329Y-74417530D01*
X89726429Y-74409265D01*
X89750227Y-74403304D01*
X89774496Y-74399704D01*
X89799000Y-74398500D01*
X91049000Y-74398500D01*
X91073504Y-74399704D01*
G37*
G04 #@! TD.AperFunction*
G04 #@! TA.AperFunction,SMDPad,CuDef*
G36*
X91073504Y-65836704D02*
G01*
X91097773Y-65840304D01*
X91121571Y-65846265D01*
X91144671Y-65854530D01*
X91166849Y-65865020D01*
X91187893Y-65877633D01*
X91207598Y-65892247D01*
X91225777Y-65908723D01*
X91242253Y-65926902D01*
X91256867Y-65946607D01*
X91269480Y-65967651D01*
X91279970Y-65989829D01*
X91288235Y-66012929D01*
X91294196Y-66036727D01*
X91297796Y-66060996D01*
X91299000Y-66085500D01*
X91299000Y-67010500D01*
X91297796Y-67035004D01*
X91294196Y-67059273D01*
X91288235Y-67083071D01*
X91279970Y-67106171D01*
X91269480Y-67128349D01*
X91256867Y-67149393D01*
X91242253Y-67169098D01*
X91225777Y-67187277D01*
X91207598Y-67203753D01*
X91187893Y-67218367D01*
X91166849Y-67230980D01*
X91144671Y-67241470D01*
X91121571Y-67249735D01*
X91097773Y-67255696D01*
X91073504Y-67259296D01*
X91049000Y-67260500D01*
X89799000Y-67260500D01*
X89774496Y-67259296D01*
X89750227Y-67255696D01*
X89726429Y-67249735D01*
X89703329Y-67241470D01*
X89681151Y-67230980D01*
X89660107Y-67218367D01*
X89640402Y-67203753D01*
X89622223Y-67187277D01*
X89605747Y-67169098D01*
X89591133Y-67149393D01*
X89578520Y-67128349D01*
X89568030Y-67106171D01*
X89559765Y-67083071D01*
X89553804Y-67059273D01*
X89550204Y-67035004D01*
X89549000Y-67010500D01*
X89549000Y-66085500D01*
X89550204Y-66060996D01*
X89553804Y-66036727D01*
X89559765Y-66012929D01*
X89568030Y-65989829D01*
X89578520Y-65967651D01*
X89591133Y-65946607D01*
X89605747Y-65926902D01*
X89622223Y-65908723D01*
X89640402Y-65892247D01*
X89660107Y-65877633D01*
X89681151Y-65865020D01*
X89703329Y-65854530D01*
X89726429Y-65846265D01*
X89750227Y-65840304D01*
X89774496Y-65836704D01*
X89799000Y-65835500D01*
X91049000Y-65835500D01*
X91073504Y-65836704D01*
G37*
G04 #@! TD.AperFunction*
G04 #@! TA.AperFunction,SMDPad,CuDef*
G36*
X91073504Y-68811704D02*
G01*
X91097773Y-68815304D01*
X91121571Y-68821265D01*
X91144671Y-68829530D01*
X91166849Y-68840020D01*
X91187893Y-68852633D01*
X91207598Y-68867247D01*
X91225777Y-68883723D01*
X91242253Y-68901902D01*
X91256867Y-68921607D01*
X91269480Y-68942651D01*
X91279970Y-68964829D01*
X91288235Y-68987929D01*
X91294196Y-69011727D01*
X91297796Y-69035996D01*
X91299000Y-69060500D01*
X91299000Y-69985500D01*
X91297796Y-70010004D01*
X91294196Y-70034273D01*
X91288235Y-70058071D01*
X91279970Y-70081171D01*
X91269480Y-70103349D01*
X91256867Y-70124393D01*
X91242253Y-70144098D01*
X91225777Y-70162277D01*
X91207598Y-70178753D01*
X91187893Y-70193367D01*
X91166849Y-70205980D01*
X91144671Y-70216470D01*
X91121571Y-70224735D01*
X91097773Y-70230696D01*
X91073504Y-70234296D01*
X91049000Y-70235500D01*
X89799000Y-70235500D01*
X89774496Y-70234296D01*
X89750227Y-70230696D01*
X89726429Y-70224735D01*
X89703329Y-70216470D01*
X89681151Y-70205980D01*
X89660107Y-70193367D01*
X89640402Y-70178753D01*
X89622223Y-70162277D01*
X89605747Y-70144098D01*
X89591133Y-70124393D01*
X89578520Y-70103349D01*
X89568030Y-70081171D01*
X89559765Y-70058071D01*
X89553804Y-70034273D01*
X89550204Y-70010004D01*
X89549000Y-69985500D01*
X89549000Y-69060500D01*
X89550204Y-69035996D01*
X89553804Y-69011727D01*
X89559765Y-68987929D01*
X89568030Y-68964829D01*
X89578520Y-68942651D01*
X89591133Y-68921607D01*
X89605747Y-68901902D01*
X89622223Y-68883723D01*
X89640402Y-68867247D01*
X89660107Y-68852633D01*
X89681151Y-68840020D01*
X89703329Y-68829530D01*
X89726429Y-68821265D01*
X89750227Y-68815304D01*
X89774496Y-68811704D01*
X89799000Y-68810500D01*
X91049000Y-68810500D01*
X91073504Y-68811704D01*
G37*
G04 #@! TD.AperFunction*
G04 #@! TA.AperFunction,SMDPad,CuDef*
G36*
X96153504Y-83181704D02*
G01*
X96177773Y-83185304D01*
X96201571Y-83191265D01*
X96224671Y-83199530D01*
X96246849Y-83210020D01*
X96267893Y-83222633D01*
X96287598Y-83237247D01*
X96305777Y-83253723D01*
X96322253Y-83271902D01*
X96336867Y-83291607D01*
X96349480Y-83312651D01*
X96359970Y-83334829D01*
X96368235Y-83357929D01*
X96374196Y-83381727D01*
X96377796Y-83405996D01*
X96379000Y-83430500D01*
X96379000Y-84355500D01*
X96377796Y-84380004D01*
X96374196Y-84404273D01*
X96368235Y-84428071D01*
X96359970Y-84451171D01*
X96349480Y-84473349D01*
X96336867Y-84494393D01*
X96322253Y-84514098D01*
X96305777Y-84532277D01*
X96287598Y-84548753D01*
X96267893Y-84563367D01*
X96246849Y-84575980D01*
X96224671Y-84586470D01*
X96201571Y-84594735D01*
X96177773Y-84600696D01*
X96153504Y-84604296D01*
X96129000Y-84605500D01*
X94879000Y-84605500D01*
X94854496Y-84604296D01*
X94830227Y-84600696D01*
X94806429Y-84594735D01*
X94783329Y-84586470D01*
X94761151Y-84575980D01*
X94740107Y-84563367D01*
X94720402Y-84548753D01*
X94702223Y-84532277D01*
X94685747Y-84514098D01*
X94671133Y-84494393D01*
X94658520Y-84473349D01*
X94648030Y-84451171D01*
X94639765Y-84428071D01*
X94633804Y-84404273D01*
X94630204Y-84380004D01*
X94629000Y-84355500D01*
X94629000Y-83430500D01*
X94630204Y-83405996D01*
X94633804Y-83381727D01*
X94639765Y-83357929D01*
X94648030Y-83334829D01*
X94658520Y-83312651D01*
X94671133Y-83291607D01*
X94685747Y-83271902D01*
X94702223Y-83253723D01*
X94720402Y-83237247D01*
X94740107Y-83222633D01*
X94761151Y-83210020D01*
X94783329Y-83199530D01*
X94806429Y-83191265D01*
X94830227Y-83185304D01*
X94854496Y-83181704D01*
X94879000Y-83180500D01*
X96129000Y-83180500D01*
X96153504Y-83181704D01*
G37*
G04 #@! TD.AperFunction*
G04 #@! TA.AperFunction,SMDPad,CuDef*
G36*
X96153504Y-86156704D02*
G01*
X96177773Y-86160304D01*
X96201571Y-86166265D01*
X96224671Y-86174530D01*
X96246849Y-86185020D01*
X96267893Y-86197633D01*
X96287598Y-86212247D01*
X96305777Y-86228723D01*
X96322253Y-86246902D01*
X96336867Y-86266607D01*
X96349480Y-86287651D01*
X96359970Y-86309829D01*
X96368235Y-86332929D01*
X96374196Y-86356727D01*
X96377796Y-86380996D01*
X96379000Y-86405500D01*
X96379000Y-87330500D01*
X96377796Y-87355004D01*
X96374196Y-87379273D01*
X96368235Y-87403071D01*
X96359970Y-87426171D01*
X96349480Y-87448349D01*
X96336867Y-87469393D01*
X96322253Y-87489098D01*
X96305777Y-87507277D01*
X96287598Y-87523753D01*
X96267893Y-87538367D01*
X96246849Y-87550980D01*
X96224671Y-87561470D01*
X96201571Y-87569735D01*
X96177773Y-87575696D01*
X96153504Y-87579296D01*
X96129000Y-87580500D01*
X94879000Y-87580500D01*
X94854496Y-87579296D01*
X94830227Y-87575696D01*
X94806429Y-87569735D01*
X94783329Y-87561470D01*
X94761151Y-87550980D01*
X94740107Y-87538367D01*
X94720402Y-87523753D01*
X94702223Y-87507277D01*
X94685747Y-87489098D01*
X94671133Y-87469393D01*
X94658520Y-87448349D01*
X94648030Y-87426171D01*
X94639765Y-87403071D01*
X94633804Y-87379273D01*
X94630204Y-87355004D01*
X94629000Y-87330500D01*
X94629000Y-86405500D01*
X94630204Y-86380996D01*
X94633804Y-86356727D01*
X94639765Y-86332929D01*
X94648030Y-86309829D01*
X94658520Y-86287651D01*
X94671133Y-86266607D01*
X94685747Y-86246902D01*
X94702223Y-86228723D01*
X94720402Y-86212247D01*
X94740107Y-86197633D01*
X94761151Y-86185020D01*
X94783329Y-86174530D01*
X94806429Y-86166265D01*
X94830227Y-86160304D01*
X94854496Y-86156704D01*
X94879000Y-86155500D01*
X96129000Y-86155500D01*
X96153504Y-86156704D01*
G37*
G04 #@! TD.AperFunction*
G04 #@! TA.AperFunction,SMDPad,CuDef*
G36*
X91073504Y-83108704D02*
G01*
X91097773Y-83112304D01*
X91121571Y-83118265D01*
X91144671Y-83126530D01*
X91166849Y-83137020D01*
X91187893Y-83149633D01*
X91207598Y-83164247D01*
X91225777Y-83180723D01*
X91242253Y-83198902D01*
X91256867Y-83218607D01*
X91269480Y-83239651D01*
X91279970Y-83261829D01*
X91288235Y-83284929D01*
X91294196Y-83308727D01*
X91297796Y-83332996D01*
X91299000Y-83357500D01*
X91299000Y-84282500D01*
X91297796Y-84307004D01*
X91294196Y-84331273D01*
X91288235Y-84355071D01*
X91279970Y-84378171D01*
X91269480Y-84400349D01*
X91256867Y-84421393D01*
X91242253Y-84441098D01*
X91225777Y-84459277D01*
X91207598Y-84475753D01*
X91187893Y-84490367D01*
X91166849Y-84502980D01*
X91144671Y-84513470D01*
X91121571Y-84521735D01*
X91097773Y-84527696D01*
X91073504Y-84531296D01*
X91049000Y-84532500D01*
X89799000Y-84532500D01*
X89774496Y-84531296D01*
X89750227Y-84527696D01*
X89726429Y-84521735D01*
X89703329Y-84513470D01*
X89681151Y-84502980D01*
X89660107Y-84490367D01*
X89640402Y-84475753D01*
X89622223Y-84459277D01*
X89605747Y-84441098D01*
X89591133Y-84421393D01*
X89578520Y-84400349D01*
X89568030Y-84378171D01*
X89559765Y-84355071D01*
X89553804Y-84331273D01*
X89550204Y-84307004D01*
X89549000Y-84282500D01*
X89549000Y-83357500D01*
X89550204Y-83332996D01*
X89553804Y-83308727D01*
X89559765Y-83284929D01*
X89568030Y-83261829D01*
X89578520Y-83239651D01*
X89591133Y-83218607D01*
X89605747Y-83198902D01*
X89622223Y-83180723D01*
X89640402Y-83164247D01*
X89660107Y-83149633D01*
X89681151Y-83137020D01*
X89703329Y-83126530D01*
X89726429Y-83118265D01*
X89750227Y-83112304D01*
X89774496Y-83108704D01*
X89799000Y-83107500D01*
X91049000Y-83107500D01*
X91073504Y-83108704D01*
G37*
G04 #@! TD.AperFunction*
G04 #@! TA.AperFunction,SMDPad,CuDef*
G36*
X91073504Y-86083704D02*
G01*
X91097773Y-86087304D01*
X91121571Y-86093265D01*
X91144671Y-86101530D01*
X91166849Y-86112020D01*
X91187893Y-86124633D01*
X91207598Y-86139247D01*
X91225777Y-86155723D01*
X91242253Y-86173902D01*
X91256867Y-86193607D01*
X91269480Y-86214651D01*
X91279970Y-86236829D01*
X91288235Y-86259929D01*
X91294196Y-86283727D01*
X91297796Y-86307996D01*
X91299000Y-86332500D01*
X91299000Y-87257500D01*
X91297796Y-87282004D01*
X91294196Y-87306273D01*
X91288235Y-87330071D01*
X91279970Y-87353171D01*
X91269480Y-87375349D01*
X91256867Y-87396393D01*
X91242253Y-87416098D01*
X91225777Y-87434277D01*
X91207598Y-87450753D01*
X91187893Y-87465367D01*
X91166849Y-87477980D01*
X91144671Y-87488470D01*
X91121571Y-87496735D01*
X91097773Y-87502696D01*
X91073504Y-87506296D01*
X91049000Y-87507500D01*
X89799000Y-87507500D01*
X89774496Y-87506296D01*
X89750227Y-87502696D01*
X89726429Y-87496735D01*
X89703329Y-87488470D01*
X89681151Y-87477980D01*
X89660107Y-87465367D01*
X89640402Y-87450753D01*
X89622223Y-87434277D01*
X89605747Y-87416098D01*
X89591133Y-87396393D01*
X89578520Y-87375349D01*
X89568030Y-87353171D01*
X89559765Y-87330071D01*
X89553804Y-87306273D01*
X89550204Y-87282004D01*
X89549000Y-87257500D01*
X89549000Y-86332500D01*
X89550204Y-86307996D01*
X89553804Y-86283727D01*
X89559765Y-86259929D01*
X89568030Y-86236829D01*
X89578520Y-86214651D01*
X89591133Y-86193607D01*
X89605747Y-86173902D01*
X89622223Y-86155723D01*
X89640402Y-86139247D01*
X89660107Y-86124633D01*
X89681151Y-86112020D01*
X89703329Y-86101530D01*
X89726429Y-86093265D01*
X89750227Y-86087304D01*
X89774496Y-86083704D01*
X89799000Y-86082500D01*
X91049000Y-86082500D01*
X91073504Y-86083704D01*
G37*
G04 #@! TD.AperFunction*
G04 #@! TA.AperFunction,SMDPad,CuDef*
G36*
X99652779Y-51850144D02*
G01*
X99675834Y-51853563D01*
X99698443Y-51859227D01*
X99720387Y-51867079D01*
X99741457Y-51877044D01*
X99761448Y-51889026D01*
X99780168Y-51902910D01*
X99797438Y-51918562D01*
X99813090Y-51935832D01*
X99826974Y-51954552D01*
X99838956Y-51974543D01*
X99848921Y-51995613D01*
X99856773Y-52017557D01*
X99862437Y-52040166D01*
X99865856Y-52063221D01*
X99867000Y-52086500D01*
X99867000Y-52561500D01*
X99865856Y-52584779D01*
X99862437Y-52607834D01*
X99856773Y-52630443D01*
X99848921Y-52652387D01*
X99838956Y-52673457D01*
X99826974Y-52693448D01*
X99813090Y-52712168D01*
X99797438Y-52729438D01*
X99780168Y-52745090D01*
X99761448Y-52758974D01*
X99741457Y-52770956D01*
X99720387Y-52780921D01*
X99698443Y-52788773D01*
X99675834Y-52794437D01*
X99652779Y-52797856D01*
X99629500Y-52799000D01*
X99054500Y-52799000D01*
X99031221Y-52797856D01*
X99008166Y-52794437D01*
X98985557Y-52788773D01*
X98963613Y-52780921D01*
X98942543Y-52770956D01*
X98922552Y-52758974D01*
X98903832Y-52745090D01*
X98886562Y-52729438D01*
X98870910Y-52712168D01*
X98857026Y-52693448D01*
X98845044Y-52673457D01*
X98835079Y-52652387D01*
X98827227Y-52630443D01*
X98821563Y-52607834D01*
X98818144Y-52584779D01*
X98817000Y-52561500D01*
X98817000Y-52086500D01*
X98818144Y-52063221D01*
X98821563Y-52040166D01*
X98827227Y-52017557D01*
X98835079Y-51995613D01*
X98845044Y-51974543D01*
X98857026Y-51954552D01*
X98870910Y-51935832D01*
X98886562Y-51918562D01*
X98903832Y-51902910D01*
X98922552Y-51889026D01*
X98942543Y-51877044D01*
X98963613Y-51867079D01*
X98985557Y-51859227D01*
X99008166Y-51853563D01*
X99031221Y-51850144D01*
X99054500Y-51849000D01*
X99629500Y-51849000D01*
X99652779Y-51850144D01*
G37*
G04 #@! TD.AperFunction*
G04 #@! TA.AperFunction,SMDPad,CuDef*
G36*
X101402779Y-51850144D02*
G01*
X101425834Y-51853563D01*
X101448443Y-51859227D01*
X101470387Y-51867079D01*
X101491457Y-51877044D01*
X101511448Y-51889026D01*
X101530168Y-51902910D01*
X101547438Y-51918562D01*
X101563090Y-51935832D01*
X101576974Y-51954552D01*
X101588956Y-51974543D01*
X101598921Y-51995613D01*
X101606773Y-52017557D01*
X101612437Y-52040166D01*
X101615856Y-52063221D01*
X101617000Y-52086500D01*
X101617000Y-52561500D01*
X101615856Y-52584779D01*
X101612437Y-52607834D01*
X101606773Y-52630443D01*
X101598921Y-52652387D01*
X101588956Y-52673457D01*
X101576974Y-52693448D01*
X101563090Y-52712168D01*
X101547438Y-52729438D01*
X101530168Y-52745090D01*
X101511448Y-52758974D01*
X101491457Y-52770956D01*
X101470387Y-52780921D01*
X101448443Y-52788773D01*
X101425834Y-52794437D01*
X101402779Y-52797856D01*
X101379500Y-52799000D01*
X100804500Y-52799000D01*
X100781221Y-52797856D01*
X100758166Y-52794437D01*
X100735557Y-52788773D01*
X100713613Y-52780921D01*
X100692543Y-52770956D01*
X100672552Y-52758974D01*
X100653832Y-52745090D01*
X100636562Y-52729438D01*
X100620910Y-52712168D01*
X100607026Y-52693448D01*
X100595044Y-52673457D01*
X100585079Y-52652387D01*
X100577227Y-52630443D01*
X100571563Y-52607834D01*
X100568144Y-52584779D01*
X100567000Y-52561500D01*
X100567000Y-52086500D01*
X100568144Y-52063221D01*
X100571563Y-52040166D01*
X100577227Y-52017557D01*
X100585079Y-51995613D01*
X100595044Y-51974543D01*
X100607026Y-51954552D01*
X100620910Y-51935832D01*
X100636562Y-51918562D01*
X100653832Y-51902910D01*
X100672552Y-51889026D01*
X100692543Y-51877044D01*
X100713613Y-51867079D01*
X100735557Y-51859227D01*
X100758166Y-51853563D01*
X100781221Y-51850144D01*
X100804500Y-51849000D01*
X101379500Y-51849000D01*
X101402779Y-51850144D01*
G37*
G04 #@! TD.AperFunction*
G04 #@! TA.AperFunction,SMDPad,CuDef*
G36*
X97338779Y-51850144D02*
G01*
X97361834Y-51853563D01*
X97384443Y-51859227D01*
X97406387Y-51867079D01*
X97427457Y-51877044D01*
X97447448Y-51889026D01*
X97466168Y-51902910D01*
X97483438Y-51918562D01*
X97499090Y-51935832D01*
X97512974Y-51954552D01*
X97524956Y-51974543D01*
X97534921Y-51995613D01*
X97542773Y-52017557D01*
X97548437Y-52040166D01*
X97551856Y-52063221D01*
X97553000Y-52086500D01*
X97553000Y-52561500D01*
X97551856Y-52584779D01*
X97548437Y-52607834D01*
X97542773Y-52630443D01*
X97534921Y-52652387D01*
X97524956Y-52673457D01*
X97512974Y-52693448D01*
X97499090Y-52712168D01*
X97483438Y-52729438D01*
X97466168Y-52745090D01*
X97447448Y-52758974D01*
X97427457Y-52770956D01*
X97406387Y-52780921D01*
X97384443Y-52788773D01*
X97361834Y-52794437D01*
X97338779Y-52797856D01*
X97315500Y-52799000D01*
X96740500Y-52799000D01*
X96717221Y-52797856D01*
X96694166Y-52794437D01*
X96671557Y-52788773D01*
X96649613Y-52780921D01*
X96628543Y-52770956D01*
X96608552Y-52758974D01*
X96589832Y-52745090D01*
X96572562Y-52729438D01*
X96556910Y-52712168D01*
X96543026Y-52693448D01*
X96531044Y-52673457D01*
X96521079Y-52652387D01*
X96513227Y-52630443D01*
X96507563Y-52607834D01*
X96504144Y-52584779D01*
X96503000Y-52561500D01*
X96503000Y-52086500D01*
X96504144Y-52063221D01*
X96507563Y-52040166D01*
X96513227Y-52017557D01*
X96521079Y-51995613D01*
X96531044Y-51974543D01*
X96543026Y-51954552D01*
X96556910Y-51935832D01*
X96572562Y-51918562D01*
X96589832Y-51902910D01*
X96608552Y-51889026D01*
X96628543Y-51877044D01*
X96649613Y-51867079D01*
X96671557Y-51859227D01*
X96694166Y-51853563D01*
X96717221Y-51850144D01*
X96740500Y-51849000D01*
X97315500Y-51849000D01*
X97338779Y-51850144D01*
G37*
G04 #@! TD.AperFunction*
G04 #@! TA.AperFunction,SMDPad,CuDef*
G36*
X95588779Y-51850144D02*
G01*
X95611834Y-51853563D01*
X95634443Y-51859227D01*
X95656387Y-51867079D01*
X95677457Y-51877044D01*
X95697448Y-51889026D01*
X95716168Y-51902910D01*
X95733438Y-51918562D01*
X95749090Y-51935832D01*
X95762974Y-51954552D01*
X95774956Y-51974543D01*
X95784921Y-51995613D01*
X95792773Y-52017557D01*
X95798437Y-52040166D01*
X95801856Y-52063221D01*
X95803000Y-52086500D01*
X95803000Y-52561500D01*
X95801856Y-52584779D01*
X95798437Y-52607834D01*
X95792773Y-52630443D01*
X95784921Y-52652387D01*
X95774956Y-52673457D01*
X95762974Y-52693448D01*
X95749090Y-52712168D01*
X95733438Y-52729438D01*
X95716168Y-52745090D01*
X95697448Y-52758974D01*
X95677457Y-52770956D01*
X95656387Y-52780921D01*
X95634443Y-52788773D01*
X95611834Y-52794437D01*
X95588779Y-52797856D01*
X95565500Y-52799000D01*
X94990500Y-52799000D01*
X94967221Y-52797856D01*
X94944166Y-52794437D01*
X94921557Y-52788773D01*
X94899613Y-52780921D01*
X94878543Y-52770956D01*
X94858552Y-52758974D01*
X94839832Y-52745090D01*
X94822562Y-52729438D01*
X94806910Y-52712168D01*
X94793026Y-52693448D01*
X94781044Y-52673457D01*
X94771079Y-52652387D01*
X94763227Y-52630443D01*
X94757563Y-52607834D01*
X94754144Y-52584779D01*
X94753000Y-52561500D01*
X94753000Y-52086500D01*
X94754144Y-52063221D01*
X94757563Y-52040166D01*
X94763227Y-52017557D01*
X94771079Y-51995613D01*
X94781044Y-51974543D01*
X94793026Y-51954552D01*
X94806910Y-51935832D01*
X94822562Y-51918562D01*
X94839832Y-51902910D01*
X94858552Y-51889026D01*
X94878543Y-51877044D01*
X94899613Y-51867079D01*
X94921557Y-51859227D01*
X94944166Y-51853563D01*
X94967221Y-51850144D01*
X94990500Y-51849000D01*
X95565500Y-51849000D01*
X95588779Y-51850144D01*
G37*
G04 #@! TD.AperFunction*
G04 #@! TA.AperFunction,SMDPad,CuDef*
G36*
X93133779Y-51850144D02*
G01*
X93156834Y-51853563D01*
X93179443Y-51859227D01*
X93201387Y-51867079D01*
X93222457Y-51877044D01*
X93242448Y-51889026D01*
X93261168Y-51902910D01*
X93278438Y-51918562D01*
X93294090Y-51935832D01*
X93307974Y-51954552D01*
X93319956Y-51974543D01*
X93329921Y-51995613D01*
X93337773Y-52017557D01*
X93343437Y-52040166D01*
X93346856Y-52063221D01*
X93348000Y-52086500D01*
X93348000Y-52561500D01*
X93346856Y-52584779D01*
X93343437Y-52607834D01*
X93337773Y-52630443D01*
X93329921Y-52652387D01*
X93319956Y-52673457D01*
X93307974Y-52693448D01*
X93294090Y-52712168D01*
X93278438Y-52729438D01*
X93261168Y-52745090D01*
X93242448Y-52758974D01*
X93222457Y-52770956D01*
X93201387Y-52780921D01*
X93179443Y-52788773D01*
X93156834Y-52794437D01*
X93133779Y-52797856D01*
X93110500Y-52799000D01*
X92535500Y-52799000D01*
X92512221Y-52797856D01*
X92489166Y-52794437D01*
X92466557Y-52788773D01*
X92444613Y-52780921D01*
X92423543Y-52770956D01*
X92403552Y-52758974D01*
X92384832Y-52745090D01*
X92367562Y-52729438D01*
X92351910Y-52712168D01*
X92338026Y-52693448D01*
X92326044Y-52673457D01*
X92316079Y-52652387D01*
X92308227Y-52630443D01*
X92302563Y-52607834D01*
X92299144Y-52584779D01*
X92298000Y-52561500D01*
X92298000Y-52086500D01*
X92299144Y-52063221D01*
X92302563Y-52040166D01*
X92308227Y-52017557D01*
X92316079Y-51995613D01*
X92326044Y-51974543D01*
X92338026Y-51954552D01*
X92351910Y-51935832D01*
X92367562Y-51918562D01*
X92384832Y-51902910D01*
X92403552Y-51889026D01*
X92423543Y-51877044D01*
X92444613Y-51867079D01*
X92466557Y-51859227D01*
X92489166Y-51853563D01*
X92512221Y-51850144D01*
X92535500Y-51849000D01*
X93110500Y-51849000D01*
X93133779Y-51850144D01*
G37*
G04 #@! TD.AperFunction*
G04 #@! TA.AperFunction,SMDPad,CuDef*
G36*
X91383779Y-51850144D02*
G01*
X91406834Y-51853563D01*
X91429443Y-51859227D01*
X91451387Y-51867079D01*
X91472457Y-51877044D01*
X91492448Y-51889026D01*
X91511168Y-51902910D01*
X91528438Y-51918562D01*
X91544090Y-51935832D01*
X91557974Y-51954552D01*
X91569956Y-51974543D01*
X91579921Y-51995613D01*
X91587773Y-52017557D01*
X91593437Y-52040166D01*
X91596856Y-52063221D01*
X91598000Y-52086500D01*
X91598000Y-52561500D01*
X91596856Y-52584779D01*
X91593437Y-52607834D01*
X91587773Y-52630443D01*
X91579921Y-52652387D01*
X91569956Y-52673457D01*
X91557974Y-52693448D01*
X91544090Y-52712168D01*
X91528438Y-52729438D01*
X91511168Y-52745090D01*
X91492448Y-52758974D01*
X91472457Y-52770956D01*
X91451387Y-52780921D01*
X91429443Y-52788773D01*
X91406834Y-52794437D01*
X91383779Y-52797856D01*
X91360500Y-52799000D01*
X90785500Y-52799000D01*
X90762221Y-52797856D01*
X90739166Y-52794437D01*
X90716557Y-52788773D01*
X90694613Y-52780921D01*
X90673543Y-52770956D01*
X90653552Y-52758974D01*
X90634832Y-52745090D01*
X90617562Y-52729438D01*
X90601910Y-52712168D01*
X90588026Y-52693448D01*
X90576044Y-52673457D01*
X90566079Y-52652387D01*
X90558227Y-52630443D01*
X90552563Y-52607834D01*
X90549144Y-52584779D01*
X90548000Y-52561500D01*
X90548000Y-52086500D01*
X90549144Y-52063221D01*
X90552563Y-52040166D01*
X90558227Y-52017557D01*
X90566079Y-51995613D01*
X90576044Y-51974543D01*
X90588026Y-51954552D01*
X90601910Y-51935832D01*
X90617562Y-51918562D01*
X90634832Y-51902910D01*
X90653552Y-51889026D01*
X90673543Y-51877044D01*
X90694613Y-51867079D01*
X90716557Y-51859227D01*
X90739166Y-51853563D01*
X90762221Y-51850144D01*
X90785500Y-51849000D01*
X91360500Y-51849000D01*
X91383779Y-51850144D01*
G37*
G04 #@! TD.AperFunction*
G04 #@! TA.AperFunction,SMDPad,CuDef*
G36*
X91524779Y-55914144D02*
G01*
X91547834Y-55917563D01*
X91570443Y-55923227D01*
X91592387Y-55931079D01*
X91613457Y-55941044D01*
X91633448Y-55953026D01*
X91652168Y-55966910D01*
X91669438Y-55982562D01*
X91685090Y-55999832D01*
X91698974Y-56018552D01*
X91710956Y-56038543D01*
X91720921Y-56059613D01*
X91728773Y-56081557D01*
X91734437Y-56104166D01*
X91737856Y-56127221D01*
X91739000Y-56150500D01*
X91739000Y-56625500D01*
X91737856Y-56648779D01*
X91734437Y-56671834D01*
X91728773Y-56694443D01*
X91720921Y-56716387D01*
X91710956Y-56737457D01*
X91698974Y-56757448D01*
X91685090Y-56776168D01*
X91669438Y-56793438D01*
X91652168Y-56809090D01*
X91633448Y-56822974D01*
X91613457Y-56834956D01*
X91592387Y-56844921D01*
X91570443Y-56852773D01*
X91547834Y-56858437D01*
X91524779Y-56861856D01*
X91501500Y-56863000D01*
X90926500Y-56863000D01*
X90903221Y-56861856D01*
X90880166Y-56858437D01*
X90857557Y-56852773D01*
X90835613Y-56844921D01*
X90814543Y-56834956D01*
X90794552Y-56822974D01*
X90775832Y-56809090D01*
X90758562Y-56793438D01*
X90742910Y-56776168D01*
X90729026Y-56757448D01*
X90717044Y-56737457D01*
X90707079Y-56716387D01*
X90699227Y-56694443D01*
X90693563Y-56671834D01*
X90690144Y-56648779D01*
X90689000Y-56625500D01*
X90689000Y-56150500D01*
X90690144Y-56127221D01*
X90693563Y-56104166D01*
X90699227Y-56081557D01*
X90707079Y-56059613D01*
X90717044Y-56038543D01*
X90729026Y-56018552D01*
X90742910Y-55999832D01*
X90758562Y-55982562D01*
X90775832Y-55966910D01*
X90794552Y-55953026D01*
X90814543Y-55941044D01*
X90835613Y-55931079D01*
X90857557Y-55923227D01*
X90880166Y-55917563D01*
X90903221Y-55914144D01*
X90926500Y-55913000D01*
X91501500Y-55913000D01*
X91524779Y-55914144D01*
G37*
G04 #@! TD.AperFunction*
G04 #@! TA.AperFunction,SMDPad,CuDef*
G36*
X93274779Y-55914144D02*
G01*
X93297834Y-55917563D01*
X93320443Y-55923227D01*
X93342387Y-55931079D01*
X93363457Y-55941044D01*
X93383448Y-55953026D01*
X93402168Y-55966910D01*
X93419438Y-55982562D01*
X93435090Y-55999832D01*
X93448974Y-56018552D01*
X93460956Y-56038543D01*
X93470921Y-56059613D01*
X93478773Y-56081557D01*
X93484437Y-56104166D01*
X93487856Y-56127221D01*
X93489000Y-56150500D01*
X93489000Y-56625500D01*
X93487856Y-56648779D01*
X93484437Y-56671834D01*
X93478773Y-56694443D01*
X93470921Y-56716387D01*
X93460956Y-56737457D01*
X93448974Y-56757448D01*
X93435090Y-56776168D01*
X93419438Y-56793438D01*
X93402168Y-56809090D01*
X93383448Y-56822974D01*
X93363457Y-56834956D01*
X93342387Y-56844921D01*
X93320443Y-56852773D01*
X93297834Y-56858437D01*
X93274779Y-56861856D01*
X93251500Y-56863000D01*
X92676500Y-56863000D01*
X92653221Y-56861856D01*
X92630166Y-56858437D01*
X92607557Y-56852773D01*
X92585613Y-56844921D01*
X92564543Y-56834956D01*
X92544552Y-56822974D01*
X92525832Y-56809090D01*
X92508562Y-56793438D01*
X92492910Y-56776168D01*
X92479026Y-56757448D01*
X92467044Y-56737457D01*
X92457079Y-56716387D01*
X92449227Y-56694443D01*
X92443563Y-56671834D01*
X92440144Y-56648779D01*
X92439000Y-56625500D01*
X92439000Y-56150500D01*
X92440144Y-56127221D01*
X92443563Y-56104166D01*
X92449227Y-56081557D01*
X92457079Y-56059613D01*
X92467044Y-56038543D01*
X92479026Y-56018552D01*
X92492910Y-55999832D01*
X92508562Y-55982562D01*
X92525832Y-55966910D01*
X92544552Y-55953026D01*
X92564543Y-55941044D01*
X92585613Y-55931079D01*
X92607557Y-55923227D01*
X92630166Y-55917563D01*
X92653221Y-55914144D01*
X92676500Y-55913000D01*
X93251500Y-55913000D01*
X93274779Y-55914144D01*
G37*
G04 #@! TD.AperFunction*
G04 #@! TA.AperFunction,SMDPad,CuDef*
G36*
X91383779Y-59978144D02*
G01*
X91406834Y-59981563D01*
X91429443Y-59987227D01*
X91451387Y-59995079D01*
X91472457Y-60005044D01*
X91492448Y-60017026D01*
X91511168Y-60030910D01*
X91528438Y-60046562D01*
X91544090Y-60063832D01*
X91557974Y-60082552D01*
X91569956Y-60102543D01*
X91579921Y-60123613D01*
X91587773Y-60145557D01*
X91593437Y-60168166D01*
X91596856Y-60191221D01*
X91598000Y-60214500D01*
X91598000Y-60689500D01*
X91596856Y-60712779D01*
X91593437Y-60735834D01*
X91587773Y-60758443D01*
X91579921Y-60780387D01*
X91569956Y-60801457D01*
X91557974Y-60821448D01*
X91544090Y-60840168D01*
X91528438Y-60857438D01*
X91511168Y-60873090D01*
X91492448Y-60886974D01*
X91472457Y-60898956D01*
X91451387Y-60908921D01*
X91429443Y-60916773D01*
X91406834Y-60922437D01*
X91383779Y-60925856D01*
X91360500Y-60927000D01*
X90785500Y-60927000D01*
X90762221Y-60925856D01*
X90739166Y-60922437D01*
X90716557Y-60916773D01*
X90694613Y-60908921D01*
X90673543Y-60898956D01*
X90653552Y-60886974D01*
X90634832Y-60873090D01*
X90617562Y-60857438D01*
X90601910Y-60840168D01*
X90588026Y-60821448D01*
X90576044Y-60801457D01*
X90566079Y-60780387D01*
X90558227Y-60758443D01*
X90552563Y-60735834D01*
X90549144Y-60712779D01*
X90548000Y-60689500D01*
X90548000Y-60214500D01*
X90549144Y-60191221D01*
X90552563Y-60168166D01*
X90558227Y-60145557D01*
X90566079Y-60123613D01*
X90576044Y-60102543D01*
X90588026Y-60082552D01*
X90601910Y-60063832D01*
X90617562Y-60046562D01*
X90634832Y-60030910D01*
X90653552Y-60017026D01*
X90673543Y-60005044D01*
X90694613Y-59995079D01*
X90716557Y-59987227D01*
X90739166Y-59981563D01*
X90762221Y-59978144D01*
X90785500Y-59977000D01*
X91360500Y-59977000D01*
X91383779Y-59978144D01*
G37*
G04 #@! TD.AperFunction*
G04 #@! TA.AperFunction,SMDPad,CuDef*
G36*
X93133779Y-59978144D02*
G01*
X93156834Y-59981563D01*
X93179443Y-59987227D01*
X93201387Y-59995079D01*
X93222457Y-60005044D01*
X93242448Y-60017026D01*
X93261168Y-60030910D01*
X93278438Y-60046562D01*
X93294090Y-60063832D01*
X93307974Y-60082552D01*
X93319956Y-60102543D01*
X93329921Y-60123613D01*
X93337773Y-60145557D01*
X93343437Y-60168166D01*
X93346856Y-60191221D01*
X93348000Y-60214500D01*
X93348000Y-60689500D01*
X93346856Y-60712779D01*
X93343437Y-60735834D01*
X93337773Y-60758443D01*
X93329921Y-60780387D01*
X93319956Y-60801457D01*
X93307974Y-60821448D01*
X93294090Y-60840168D01*
X93278438Y-60857438D01*
X93261168Y-60873090D01*
X93242448Y-60886974D01*
X93222457Y-60898956D01*
X93201387Y-60908921D01*
X93179443Y-60916773D01*
X93156834Y-60922437D01*
X93133779Y-60925856D01*
X93110500Y-60927000D01*
X92535500Y-60927000D01*
X92512221Y-60925856D01*
X92489166Y-60922437D01*
X92466557Y-60916773D01*
X92444613Y-60908921D01*
X92423543Y-60898956D01*
X92403552Y-60886974D01*
X92384832Y-60873090D01*
X92367562Y-60857438D01*
X92351910Y-60840168D01*
X92338026Y-60821448D01*
X92326044Y-60801457D01*
X92316079Y-60780387D01*
X92308227Y-60758443D01*
X92302563Y-60735834D01*
X92299144Y-60712779D01*
X92298000Y-60689500D01*
X92298000Y-60214500D01*
X92299144Y-60191221D01*
X92302563Y-60168166D01*
X92308227Y-60145557D01*
X92316079Y-60123613D01*
X92326044Y-60102543D01*
X92338026Y-60082552D01*
X92351910Y-60063832D01*
X92367562Y-60046562D01*
X92384832Y-60030910D01*
X92403552Y-60017026D01*
X92423543Y-60005044D01*
X92444613Y-59995079D01*
X92466557Y-59987227D01*
X92489166Y-59981563D01*
X92512221Y-59978144D01*
X92535500Y-59977000D01*
X93110500Y-59977000D01*
X93133779Y-59978144D01*
G37*
G04 #@! TD.AperFunction*
G04 #@! TA.AperFunction,SMDPad,CuDef*
G36*
X133583004Y-77866204D02*
G01*
X133607273Y-77869804D01*
X133631071Y-77875765D01*
X133654171Y-77884030D01*
X133676349Y-77894520D01*
X133697393Y-77907133D01*
X133717098Y-77921747D01*
X133735277Y-77938223D01*
X133751753Y-77956402D01*
X133766367Y-77976107D01*
X133778980Y-77997151D01*
X133789470Y-78019329D01*
X133797735Y-78042429D01*
X133803696Y-78066227D01*
X133807296Y-78090496D01*
X133808500Y-78115000D01*
X133808500Y-79365000D01*
X133807296Y-79389504D01*
X133803696Y-79413773D01*
X133797735Y-79437571D01*
X133789470Y-79460671D01*
X133778980Y-79482849D01*
X133766367Y-79503893D01*
X133751753Y-79523598D01*
X133735277Y-79541777D01*
X133717098Y-79558253D01*
X133697393Y-79572867D01*
X133676349Y-79585480D01*
X133654171Y-79595970D01*
X133631071Y-79604235D01*
X133607273Y-79610196D01*
X133583004Y-79613796D01*
X133558500Y-79615000D01*
X132633500Y-79615000D01*
X132608996Y-79613796D01*
X132584727Y-79610196D01*
X132560929Y-79604235D01*
X132537829Y-79595970D01*
X132515651Y-79585480D01*
X132494607Y-79572867D01*
X132474902Y-79558253D01*
X132456723Y-79541777D01*
X132440247Y-79523598D01*
X132425633Y-79503893D01*
X132413020Y-79482849D01*
X132402530Y-79460671D01*
X132394265Y-79437571D01*
X132388304Y-79413773D01*
X132384704Y-79389504D01*
X132383500Y-79365000D01*
X132383500Y-78115000D01*
X132384704Y-78090496D01*
X132388304Y-78066227D01*
X132394265Y-78042429D01*
X132402530Y-78019329D01*
X132413020Y-77997151D01*
X132425633Y-77976107D01*
X132440247Y-77956402D01*
X132456723Y-77938223D01*
X132474902Y-77921747D01*
X132494607Y-77907133D01*
X132515651Y-77894520D01*
X132537829Y-77884030D01*
X132560929Y-77875765D01*
X132584727Y-77869804D01*
X132608996Y-77866204D01*
X132633500Y-77865000D01*
X133558500Y-77865000D01*
X133583004Y-77866204D01*
G37*
G04 #@! TD.AperFunction*
G04 #@! TA.AperFunction,SMDPad,CuDef*
G36*
X130608004Y-77866204D02*
G01*
X130632273Y-77869804D01*
X130656071Y-77875765D01*
X130679171Y-77884030D01*
X130701349Y-77894520D01*
X130722393Y-77907133D01*
X130742098Y-77921747D01*
X130760277Y-77938223D01*
X130776753Y-77956402D01*
X130791367Y-77976107D01*
X130803980Y-77997151D01*
X130814470Y-78019329D01*
X130822735Y-78042429D01*
X130828696Y-78066227D01*
X130832296Y-78090496D01*
X130833500Y-78115000D01*
X130833500Y-79365000D01*
X130832296Y-79389504D01*
X130828696Y-79413773D01*
X130822735Y-79437571D01*
X130814470Y-79460671D01*
X130803980Y-79482849D01*
X130791367Y-79503893D01*
X130776753Y-79523598D01*
X130760277Y-79541777D01*
X130742098Y-79558253D01*
X130722393Y-79572867D01*
X130701349Y-79585480D01*
X130679171Y-79595970D01*
X130656071Y-79604235D01*
X130632273Y-79610196D01*
X130608004Y-79613796D01*
X130583500Y-79615000D01*
X129658500Y-79615000D01*
X129633996Y-79613796D01*
X129609727Y-79610196D01*
X129585929Y-79604235D01*
X129562829Y-79595970D01*
X129540651Y-79585480D01*
X129519607Y-79572867D01*
X129499902Y-79558253D01*
X129481723Y-79541777D01*
X129465247Y-79523598D01*
X129450633Y-79503893D01*
X129438020Y-79482849D01*
X129427530Y-79460671D01*
X129419265Y-79437571D01*
X129413304Y-79413773D01*
X129409704Y-79389504D01*
X129408500Y-79365000D01*
X129408500Y-78115000D01*
X129409704Y-78090496D01*
X129413304Y-78066227D01*
X129419265Y-78042429D01*
X129427530Y-78019329D01*
X129438020Y-77997151D01*
X129450633Y-77976107D01*
X129465247Y-77956402D01*
X129481723Y-77938223D01*
X129499902Y-77921747D01*
X129519607Y-77907133D01*
X129540651Y-77894520D01*
X129562829Y-77884030D01*
X129585929Y-77875765D01*
X129609727Y-77869804D01*
X129633996Y-77866204D01*
X129658500Y-77865000D01*
X130583500Y-77865000D01*
X130608004Y-77866204D01*
G37*
G04 #@! TD.AperFunction*
D20*
X96876000Y-94488000D03*
D21*
X90576000Y-94488000D03*
X90576000Y-96788000D03*
X90576000Y-92188000D03*
G04 #@! TA.AperFunction,SMDPad,CuDef*
D10*
G36*
X105494779Y-85378144D02*
G01*
X105517834Y-85381563D01*
X105540443Y-85387227D01*
X105562387Y-85395079D01*
X105583457Y-85405044D01*
X105603448Y-85417026D01*
X105622168Y-85430910D01*
X105639438Y-85446562D01*
X105655090Y-85463832D01*
X105668974Y-85482552D01*
X105680956Y-85502543D01*
X105690921Y-85523613D01*
X105698773Y-85545557D01*
X105704437Y-85568166D01*
X105707856Y-85591221D01*
X105709000Y-85614500D01*
X105709000Y-86089500D01*
X105707856Y-86112779D01*
X105704437Y-86135834D01*
X105698773Y-86158443D01*
X105690921Y-86180387D01*
X105680956Y-86201457D01*
X105668974Y-86221448D01*
X105655090Y-86240168D01*
X105639438Y-86257438D01*
X105622168Y-86273090D01*
X105603448Y-86286974D01*
X105583457Y-86298956D01*
X105562387Y-86308921D01*
X105540443Y-86316773D01*
X105517834Y-86322437D01*
X105494779Y-86325856D01*
X105471500Y-86327000D01*
X104896500Y-86327000D01*
X104873221Y-86325856D01*
X104850166Y-86322437D01*
X104827557Y-86316773D01*
X104805613Y-86308921D01*
X104784543Y-86298956D01*
X104764552Y-86286974D01*
X104745832Y-86273090D01*
X104728562Y-86257438D01*
X104712910Y-86240168D01*
X104699026Y-86221448D01*
X104687044Y-86201457D01*
X104677079Y-86180387D01*
X104669227Y-86158443D01*
X104663563Y-86135834D01*
X104660144Y-86112779D01*
X104659000Y-86089500D01*
X104659000Y-85614500D01*
X104660144Y-85591221D01*
X104663563Y-85568166D01*
X104669227Y-85545557D01*
X104677079Y-85523613D01*
X104687044Y-85502543D01*
X104699026Y-85482552D01*
X104712910Y-85463832D01*
X104728562Y-85446562D01*
X104745832Y-85430910D01*
X104764552Y-85417026D01*
X104784543Y-85405044D01*
X104805613Y-85395079D01*
X104827557Y-85387227D01*
X104850166Y-85381563D01*
X104873221Y-85378144D01*
X104896500Y-85377000D01*
X105471500Y-85377000D01*
X105494779Y-85378144D01*
G37*
G04 #@! TD.AperFunction*
G04 #@! TA.AperFunction,SMDPad,CuDef*
G36*
X107244779Y-85378144D02*
G01*
X107267834Y-85381563D01*
X107290443Y-85387227D01*
X107312387Y-85395079D01*
X107333457Y-85405044D01*
X107353448Y-85417026D01*
X107372168Y-85430910D01*
X107389438Y-85446562D01*
X107405090Y-85463832D01*
X107418974Y-85482552D01*
X107430956Y-85502543D01*
X107440921Y-85523613D01*
X107448773Y-85545557D01*
X107454437Y-85568166D01*
X107457856Y-85591221D01*
X107459000Y-85614500D01*
X107459000Y-86089500D01*
X107457856Y-86112779D01*
X107454437Y-86135834D01*
X107448773Y-86158443D01*
X107440921Y-86180387D01*
X107430956Y-86201457D01*
X107418974Y-86221448D01*
X107405090Y-86240168D01*
X107389438Y-86257438D01*
X107372168Y-86273090D01*
X107353448Y-86286974D01*
X107333457Y-86298956D01*
X107312387Y-86308921D01*
X107290443Y-86316773D01*
X107267834Y-86322437D01*
X107244779Y-86325856D01*
X107221500Y-86327000D01*
X106646500Y-86327000D01*
X106623221Y-86325856D01*
X106600166Y-86322437D01*
X106577557Y-86316773D01*
X106555613Y-86308921D01*
X106534543Y-86298956D01*
X106514552Y-86286974D01*
X106495832Y-86273090D01*
X106478562Y-86257438D01*
X106462910Y-86240168D01*
X106449026Y-86221448D01*
X106437044Y-86201457D01*
X106427079Y-86180387D01*
X106419227Y-86158443D01*
X106413563Y-86135834D01*
X106410144Y-86112779D01*
X106409000Y-86089500D01*
X106409000Y-85614500D01*
X106410144Y-85591221D01*
X106413563Y-85568166D01*
X106419227Y-85545557D01*
X106427079Y-85523613D01*
X106437044Y-85502543D01*
X106449026Y-85482552D01*
X106462910Y-85463832D01*
X106478562Y-85446562D01*
X106495832Y-85430910D01*
X106514552Y-85417026D01*
X106534543Y-85405044D01*
X106555613Y-85395079D01*
X106577557Y-85387227D01*
X106600166Y-85381563D01*
X106623221Y-85378144D01*
X106646500Y-85377000D01*
X107221500Y-85377000D01*
X107244779Y-85378144D01*
G37*
G04 #@! TD.AperFunction*
G04 #@! TA.AperFunction,SMDPad,CuDef*
G36*
X101289779Y-85378144D02*
G01*
X101312834Y-85381563D01*
X101335443Y-85387227D01*
X101357387Y-85395079D01*
X101378457Y-85405044D01*
X101398448Y-85417026D01*
X101417168Y-85430910D01*
X101434438Y-85446562D01*
X101450090Y-85463832D01*
X101463974Y-85482552D01*
X101475956Y-85502543D01*
X101485921Y-85523613D01*
X101493773Y-85545557D01*
X101499437Y-85568166D01*
X101502856Y-85591221D01*
X101504000Y-85614500D01*
X101504000Y-86089500D01*
X101502856Y-86112779D01*
X101499437Y-86135834D01*
X101493773Y-86158443D01*
X101485921Y-86180387D01*
X101475956Y-86201457D01*
X101463974Y-86221448D01*
X101450090Y-86240168D01*
X101434438Y-86257438D01*
X101417168Y-86273090D01*
X101398448Y-86286974D01*
X101378457Y-86298956D01*
X101357387Y-86308921D01*
X101335443Y-86316773D01*
X101312834Y-86322437D01*
X101289779Y-86325856D01*
X101266500Y-86327000D01*
X100691500Y-86327000D01*
X100668221Y-86325856D01*
X100645166Y-86322437D01*
X100622557Y-86316773D01*
X100600613Y-86308921D01*
X100579543Y-86298956D01*
X100559552Y-86286974D01*
X100540832Y-86273090D01*
X100523562Y-86257438D01*
X100507910Y-86240168D01*
X100494026Y-86221448D01*
X100482044Y-86201457D01*
X100472079Y-86180387D01*
X100464227Y-86158443D01*
X100458563Y-86135834D01*
X100455144Y-86112779D01*
X100454000Y-86089500D01*
X100454000Y-85614500D01*
X100455144Y-85591221D01*
X100458563Y-85568166D01*
X100464227Y-85545557D01*
X100472079Y-85523613D01*
X100482044Y-85502543D01*
X100494026Y-85482552D01*
X100507910Y-85463832D01*
X100523562Y-85446562D01*
X100540832Y-85430910D01*
X100559552Y-85417026D01*
X100579543Y-85405044D01*
X100600613Y-85395079D01*
X100622557Y-85387227D01*
X100645166Y-85381563D01*
X100668221Y-85378144D01*
X100691500Y-85377000D01*
X101266500Y-85377000D01*
X101289779Y-85378144D01*
G37*
G04 #@! TD.AperFunction*
G04 #@! TA.AperFunction,SMDPad,CuDef*
G36*
X103039779Y-85378144D02*
G01*
X103062834Y-85381563D01*
X103085443Y-85387227D01*
X103107387Y-85395079D01*
X103128457Y-85405044D01*
X103148448Y-85417026D01*
X103167168Y-85430910D01*
X103184438Y-85446562D01*
X103200090Y-85463832D01*
X103213974Y-85482552D01*
X103225956Y-85502543D01*
X103235921Y-85523613D01*
X103243773Y-85545557D01*
X103249437Y-85568166D01*
X103252856Y-85591221D01*
X103254000Y-85614500D01*
X103254000Y-86089500D01*
X103252856Y-86112779D01*
X103249437Y-86135834D01*
X103243773Y-86158443D01*
X103235921Y-86180387D01*
X103225956Y-86201457D01*
X103213974Y-86221448D01*
X103200090Y-86240168D01*
X103184438Y-86257438D01*
X103167168Y-86273090D01*
X103148448Y-86286974D01*
X103128457Y-86298956D01*
X103107387Y-86308921D01*
X103085443Y-86316773D01*
X103062834Y-86322437D01*
X103039779Y-86325856D01*
X103016500Y-86327000D01*
X102441500Y-86327000D01*
X102418221Y-86325856D01*
X102395166Y-86322437D01*
X102372557Y-86316773D01*
X102350613Y-86308921D01*
X102329543Y-86298956D01*
X102309552Y-86286974D01*
X102290832Y-86273090D01*
X102273562Y-86257438D01*
X102257910Y-86240168D01*
X102244026Y-86221448D01*
X102232044Y-86201457D01*
X102222079Y-86180387D01*
X102214227Y-86158443D01*
X102208563Y-86135834D01*
X102205144Y-86112779D01*
X102204000Y-86089500D01*
X102204000Y-85614500D01*
X102205144Y-85591221D01*
X102208563Y-85568166D01*
X102214227Y-85545557D01*
X102222079Y-85523613D01*
X102232044Y-85502543D01*
X102244026Y-85482552D01*
X102257910Y-85463832D01*
X102273562Y-85446562D01*
X102290832Y-85430910D01*
X102309552Y-85417026D01*
X102329543Y-85405044D01*
X102350613Y-85395079D01*
X102372557Y-85387227D01*
X102395166Y-85381563D01*
X102418221Y-85378144D01*
X102441500Y-85377000D01*
X103016500Y-85377000D01*
X103039779Y-85378144D01*
G37*
G04 #@! TD.AperFunction*
G04 #@! TA.AperFunction,SMDPad,CuDef*
G36*
X100128004Y-98186204D02*
G01*
X100152273Y-98189804D01*
X100176071Y-98195765D01*
X100199171Y-98204030D01*
X100221349Y-98214520D01*
X100242393Y-98227133D01*
X100262098Y-98241747D01*
X100280277Y-98258223D01*
X100296753Y-98276402D01*
X100311367Y-98296107D01*
X100323980Y-98317151D01*
X100334470Y-98339329D01*
X100342735Y-98362429D01*
X100348696Y-98386227D01*
X100352296Y-98410496D01*
X100353500Y-98435000D01*
X100353500Y-99685000D01*
X100352296Y-99709504D01*
X100348696Y-99733773D01*
X100342735Y-99757571D01*
X100334470Y-99780671D01*
X100323980Y-99802849D01*
X100311367Y-99823893D01*
X100296753Y-99843598D01*
X100280277Y-99861777D01*
X100262098Y-99878253D01*
X100242393Y-99892867D01*
X100221349Y-99905480D01*
X100199171Y-99915970D01*
X100176071Y-99924235D01*
X100152273Y-99930196D01*
X100128004Y-99933796D01*
X100103500Y-99935000D01*
X99178500Y-99935000D01*
X99153996Y-99933796D01*
X99129727Y-99930196D01*
X99105929Y-99924235D01*
X99082829Y-99915970D01*
X99060651Y-99905480D01*
X99039607Y-99892867D01*
X99019902Y-99878253D01*
X99001723Y-99861777D01*
X98985247Y-99843598D01*
X98970633Y-99823893D01*
X98958020Y-99802849D01*
X98947530Y-99780671D01*
X98939265Y-99757571D01*
X98933304Y-99733773D01*
X98929704Y-99709504D01*
X98928500Y-99685000D01*
X98928500Y-98435000D01*
X98929704Y-98410496D01*
X98933304Y-98386227D01*
X98939265Y-98362429D01*
X98947530Y-98339329D01*
X98958020Y-98317151D01*
X98970633Y-98296107D01*
X98985247Y-98276402D01*
X99001723Y-98258223D01*
X99019902Y-98241747D01*
X99039607Y-98227133D01*
X99060651Y-98214520D01*
X99082829Y-98204030D01*
X99105929Y-98195765D01*
X99129727Y-98189804D01*
X99153996Y-98186204D01*
X99178500Y-98185000D01*
X100103500Y-98185000D01*
X100128004Y-98186204D01*
G37*
G04 #@! TD.AperFunction*
G04 #@! TA.AperFunction,SMDPad,CuDef*
G36*
X103103004Y-98186204D02*
G01*
X103127273Y-98189804D01*
X103151071Y-98195765D01*
X103174171Y-98204030D01*
X103196349Y-98214520D01*
X103217393Y-98227133D01*
X103237098Y-98241747D01*
X103255277Y-98258223D01*
X103271753Y-98276402D01*
X103286367Y-98296107D01*
X103298980Y-98317151D01*
X103309470Y-98339329D01*
X103317735Y-98362429D01*
X103323696Y-98386227D01*
X103327296Y-98410496D01*
X103328500Y-98435000D01*
X103328500Y-99685000D01*
X103327296Y-99709504D01*
X103323696Y-99733773D01*
X103317735Y-99757571D01*
X103309470Y-99780671D01*
X103298980Y-99802849D01*
X103286367Y-99823893D01*
X103271753Y-99843598D01*
X103255277Y-99861777D01*
X103237098Y-99878253D01*
X103217393Y-99892867D01*
X103196349Y-99905480D01*
X103174171Y-99915970D01*
X103151071Y-99924235D01*
X103127273Y-99930196D01*
X103103004Y-99933796D01*
X103078500Y-99935000D01*
X102153500Y-99935000D01*
X102128996Y-99933796D01*
X102104727Y-99930196D01*
X102080929Y-99924235D01*
X102057829Y-99915970D01*
X102035651Y-99905480D01*
X102014607Y-99892867D01*
X101994902Y-99878253D01*
X101976723Y-99861777D01*
X101960247Y-99843598D01*
X101945633Y-99823893D01*
X101933020Y-99802849D01*
X101922530Y-99780671D01*
X101914265Y-99757571D01*
X101908304Y-99733773D01*
X101904704Y-99709504D01*
X101903500Y-99685000D01*
X101903500Y-98435000D01*
X101904704Y-98410496D01*
X101908304Y-98386227D01*
X101914265Y-98362429D01*
X101922530Y-98339329D01*
X101933020Y-98317151D01*
X101945633Y-98296107D01*
X101960247Y-98276402D01*
X101976723Y-98258223D01*
X101994902Y-98241747D01*
X102014607Y-98227133D01*
X102035651Y-98214520D01*
X102057829Y-98204030D01*
X102080929Y-98195765D01*
X102104727Y-98189804D01*
X102128996Y-98186204D01*
X102153500Y-98185000D01*
X103078500Y-98185000D01*
X103103004Y-98186204D01*
G37*
G04 #@! TD.AperFunction*
G04 #@! TA.AperFunction,ComponentPad*
G36*
X102732504Y-92219204D02*
G01*
X102756773Y-92222804D01*
X102780571Y-92228765D01*
X102803671Y-92237030D01*
X102825849Y-92247520D01*
X102846893Y-92260133D01*
X102866598Y-92274747D01*
X102884777Y-92291223D01*
X102901253Y-92309402D01*
X102915867Y-92329107D01*
X102928480Y-92350151D01*
X102938970Y-92372329D01*
X102947235Y-92395429D01*
X102953196Y-92419227D01*
X102956796Y-92443496D01*
X102958000Y-92468000D01*
X102958000Y-93968000D01*
X102956796Y-93992504D01*
X102953196Y-94016773D01*
X102947235Y-94040571D01*
X102938970Y-94063671D01*
X102928480Y-94085849D01*
X102915867Y-94106893D01*
X102901253Y-94126598D01*
X102884777Y-94144777D01*
X102866598Y-94161253D01*
X102846893Y-94175867D01*
X102825849Y-94188480D01*
X102803671Y-94198970D01*
X102780571Y-94207235D01*
X102756773Y-94213196D01*
X102732504Y-94216796D01*
X102708000Y-94218000D01*
X101508000Y-94218000D01*
X101483496Y-94216796D01*
X101459227Y-94213196D01*
X101435429Y-94207235D01*
X101412329Y-94198970D01*
X101390151Y-94188480D01*
X101369107Y-94175867D01*
X101349402Y-94161253D01*
X101331223Y-94144777D01*
X101314747Y-94126598D01*
X101300133Y-94106893D01*
X101287520Y-94085849D01*
X101277030Y-94063671D01*
X101268765Y-94040571D01*
X101262804Y-94016773D01*
X101259204Y-93992504D01*
X101258000Y-93968000D01*
X101258000Y-92468000D01*
X101259204Y-92443496D01*
X101262804Y-92419227D01*
X101268765Y-92395429D01*
X101277030Y-92372329D01*
X101287520Y-92350151D01*
X101300133Y-92329107D01*
X101314747Y-92309402D01*
X101331223Y-92291223D01*
X101349402Y-92274747D01*
X101369107Y-92260133D01*
X101390151Y-92247520D01*
X101412329Y-92237030D01*
X101435429Y-92228765D01*
X101459227Y-92222804D01*
X101483496Y-92219204D01*
X101508000Y-92218000D01*
X102708000Y-92218000D01*
X102732504Y-92219204D01*
G37*
G04 #@! TD.AperFunction*
D14*
X104608000Y-93218000D03*
D22*
X111890900Y-91390400D03*
X111890900Y-97890400D03*
X144390900Y-97890400D03*
X144390900Y-91440400D03*
D23*
X115316000Y-61976000D03*
X127508000Y-58928000D03*
X127508000Y-62484000D03*
X127508000Y-64008000D03*
X98044000Y-68072000D03*
X106172000Y-72136000D03*
X93472000Y-73660000D03*
X106172000Y-70104000D03*
X110744000Y-70104000D03*
X93472000Y-81280000D03*
X92456000Y-81280000D03*
X106172000Y-73660000D03*
X92456000Y-76200000D03*
X106172000Y-75184000D03*
X92456000Y-70104000D03*
X106172000Y-77724000D03*
X99568000Y-83820000D03*
X110744000Y-65024000D03*
X127508000Y-74168000D03*
X109728000Y-80772000D03*
X109728000Y-79248000D03*
D24*
X107908000Y-59944000D02*
X108030000Y-60066000D01*
X103632000Y-59944000D02*
X107908000Y-59944000D01*
X99794000Y-59944000D02*
X99568000Y-60170000D01*
X103632000Y-59944000D02*
X99794000Y-59944000D01*
X99568000Y-60170000D02*
X99568000Y-62484000D01*
X101092000Y-62484000D02*
X99568000Y-62484000D01*
X99568000Y-79756000D02*
X99568000Y-73256000D01*
X101600000Y-71224000D02*
X99568000Y-73256000D01*
X101600000Y-65791000D02*
X101600000Y-71224000D01*
X103157000Y-64234000D02*
X101600000Y-65791000D01*
X101407000Y-62484000D02*
X101092000Y-62484000D01*
X103157000Y-64234000D02*
X101407000Y-62484000D01*
X103632000Y-64234000D02*
X103157000Y-64234000D01*
X102108000Y-44704000D02*
X104648000Y-47244000D01*
X93005000Y-44704000D02*
X102108000Y-44704000D01*
X92456000Y-45253000D02*
X93005000Y-44704000D01*
X92456000Y-46228000D02*
X92456000Y-45253000D01*
X101268000Y-81456000D02*
X99568000Y-79756000D01*
X99568000Y-81170213D02*
X99568000Y-79756000D01*
X96845213Y-83893000D02*
X99568000Y-81170213D01*
X95504000Y-83893000D02*
X96845213Y-83893000D01*
X94765500Y-85344000D02*
X95504000Y-84605500D01*
X89154000Y-85344000D02*
X94765500Y-85344000D01*
X88392000Y-87884000D02*
X88392000Y-86106000D01*
X89408000Y-88900000D02*
X88392000Y-87884000D01*
X90932000Y-88900000D02*
X89408000Y-88900000D01*
X88392000Y-86106000D02*
X89154000Y-85344000D01*
X93472000Y-91440000D02*
X90932000Y-88900000D01*
X93472000Y-92334000D02*
X93472000Y-91440000D01*
X95626000Y-94488000D02*
X93472000Y-92334000D01*
X95504000Y-84605500D02*
X95504000Y-83893000D01*
X96876000Y-94488000D02*
X95626000Y-94488000D01*
X90576000Y-94488000D02*
X96876000Y-94488000D01*
X106934000Y-85377000D02*
X106934000Y-85852000D01*
X103013000Y-81456000D02*
X106934000Y-85377000D01*
X101268000Y-81456000D02*
X103013000Y-81456000D01*
X107459000Y-85852000D02*
X106934000Y-85852000D01*
X136052500Y-85852000D02*
X107459000Y-85852000D01*
X141640900Y-91440400D02*
X136052500Y-85852000D01*
X144390900Y-91440400D02*
X141640900Y-91440400D01*
X107428000Y-58194000D02*
X108030000Y-58796000D01*
X103632000Y-58194000D02*
X107428000Y-58194000D01*
X99794000Y-58194000D02*
X99568000Y-58420000D01*
X103632000Y-58194000D02*
X99794000Y-58194000D01*
X99568000Y-64234000D02*
X99568000Y-67564000D01*
X109920000Y-58796000D02*
X115460000Y-64336000D01*
X108030000Y-58796000D02*
X109920000Y-58796000D01*
X108755000Y-76576000D02*
X108030000Y-76576000D01*
X115460000Y-66586000D02*
X115460000Y-64336000D01*
X141732000Y-61748000D02*
X144634000Y-58846000D01*
X108030000Y-76576000D02*
X108844000Y-76576000D01*
X115316000Y-70104000D02*
X115316000Y-69596000D01*
X108844000Y-76576000D02*
X115316000Y-70104000D01*
X115460000Y-66586000D02*
X115316000Y-69596000D01*
X127376000Y-58796000D02*
X127508000Y-58928000D01*
X125650000Y-58796000D02*
X127376000Y-58796000D01*
X115316000Y-64192000D02*
X115460000Y-64336000D01*
X115316000Y-61976000D02*
X115316000Y-64192000D01*
X99568000Y-67564000D02*
X100076000Y-68072000D01*
X97028000Y-56388000D02*
X97028000Y-52324000D01*
X101092000Y-51849000D02*
X100551000Y-51308000D01*
X101092000Y-52324000D02*
X101092000Y-51849000D01*
X97569000Y-51308000D02*
X97028000Y-51849000D01*
X100551000Y-51308000D02*
X97569000Y-51308000D01*
X103157000Y-58194000D02*
X103632000Y-58194000D01*
X101092000Y-56129000D02*
X103157000Y-58194000D01*
X101092000Y-52324000D02*
X101092000Y-56129000D01*
X92823000Y-51849000D02*
X92823000Y-52324000D01*
X93148010Y-51523990D02*
X92823000Y-51849000D01*
X96702990Y-51523990D02*
X93148010Y-51523990D01*
X97028000Y-51849000D02*
X96702990Y-51523990D01*
X97028000Y-52324000D02*
X97028000Y-51849000D01*
X92823000Y-56247000D02*
X92964000Y-56388000D01*
X92823000Y-52324000D02*
X92823000Y-56247000D01*
X92964000Y-60311000D02*
X92823000Y-60452000D01*
X92964000Y-56388000D02*
X92964000Y-60311000D01*
X99093000Y-58420000D02*
X98552000Y-58961000D01*
X99568000Y-58420000D02*
X99093000Y-58420000D01*
X99093000Y-64234000D02*
X99568000Y-64234000D01*
X98552000Y-63693000D02*
X99093000Y-64234000D01*
X98552000Y-58961000D02*
X98552000Y-63693000D01*
X99363500Y-68072000D02*
X100076000Y-68072000D01*
X97536000Y-69899500D02*
X99363500Y-68072000D01*
X97536000Y-81280000D02*
X97536000Y-69899500D01*
X92823000Y-82296000D02*
X96520000Y-82296000D01*
X91299000Y-83820000D02*
X92823000Y-82296000D01*
X96520000Y-82296000D02*
X97536000Y-81280000D01*
X90424000Y-83820000D02*
X91299000Y-83820000D01*
X99956000Y-50713000D02*
X101092000Y-51849000D01*
X99956000Y-46228000D02*
X99956000Y-50713000D01*
X104648000Y-52324000D02*
X101092000Y-52324000D01*
X109728000Y-47244000D02*
X104648000Y-52324000D01*
X133096000Y-47792000D02*
X132548000Y-47244000D01*
X133096000Y-52324000D02*
X133096000Y-47792000D01*
X137604000Y-52324000D02*
X139700000Y-50228000D01*
X138112000Y-52324000D02*
X137160000Y-52324000D01*
X144634000Y-58846000D02*
X138112000Y-52324000D01*
X137160000Y-52324000D02*
X137604000Y-52324000D01*
X133096000Y-52324000D02*
X137160000Y-52324000D01*
X137772000Y-83312000D02*
X144272000Y-83312000D01*
X124687796Y-84342009D02*
X128638401Y-84342009D01*
X123444000Y-83098213D02*
X124687796Y-84342009D01*
X115316000Y-69596000D02*
X123444000Y-77724000D01*
X132022010Y-79101490D02*
X132022010Y-80958400D01*
X132383500Y-78740000D02*
X132022010Y-79101490D01*
X132022010Y-80958400D02*
X128638401Y-84342009D01*
X133096000Y-78740000D02*
X132383500Y-78740000D01*
X136793000Y-83312000D02*
X137772000Y-83312000D01*
X133096000Y-79615000D02*
X136793000Y-83312000D01*
X133096000Y-78740000D02*
X133096000Y-79615000D01*
X123444000Y-77724000D02*
X123444000Y-83098213D01*
X90576000Y-92188000D02*
X89326000Y-92188000D01*
X87941990Y-90735990D02*
X88646000Y-91440000D01*
X89549000Y-83820000D02*
X87941990Y-85427010D01*
X90424000Y-83820000D02*
X89549000Y-83820000D01*
X88646000Y-91440000D02*
X88392000Y-91254000D01*
X89326000Y-92188000D02*
X88646000Y-91440000D01*
X102729000Y-85852000D02*
X105184000Y-85852000D01*
X102729000Y-92597000D02*
X102108000Y-93218000D01*
X102729000Y-85852000D02*
X102729000Y-92597000D01*
X144390900Y-97890400D02*
X111890900Y-97890400D01*
X147140900Y-97890400D02*
X148336000Y-96695300D01*
X144390900Y-97890400D02*
X147140900Y-97890400D01*
X148336000Y-96695300D02*
X148336000Y-85598000D01*
X146050000Y-83312000D02*
X144272000Y-83312000D01*
X148336000Y-85598000D02*
X146050000Y-83312000D01*
X87884000Y-90424000D02*
X87941990Y-90735990D01*
X87941990Y-85427010D02*
X87884000Y-90424000D01*
X89604010Y-99510010D02*
X87884000Y-97790000D01*
X97028000Y-100838000D02*
X95700010Y-99510010D01*
X106680000Y-87823000D02*
X106680000Y-98806000D01*
X104648000Y-100838000D02*
X97028000Y-100838000D01*
X105184000Y-85852000D02*
X105184000Y-86327000D01*
X106680000Y-98806000D02*
X104648000Y-100838000D01*
X105184000Y-86327000D02*
X106680000Y-87823000D01*
X87884000Y-97790000D02*
X87884000Y-90424000D01*
X95700010Y-99510010D02*
X89604010Y-99510010D01*
X104107000Y-62484000D02*
X105255000Y-61336000D01*
X107305000Y-61336000D02*
X108030000Y-61336000D01*
X103632000Y-62484000D02*
X104107000Y-62484000D01*
X105255000Y-61336000D02*
X107305000Y-61336000D01*
X103051000Y-68072000D02*
X103763500Y-68072000D01*
X103763500Y-68072000D02*
X104648000Y-68072000D01*
X104648000Y-68072000D02*
X105664000Y-67056000D01*
X104107000Y-62484000D02*
X105664000Y-64041000D01*
X105664000Y-64041000D02*
X105664000Y-67056000D01*
X104068000Y-74670213D02*
X104068000Y-79756000D01*
X104068000Y-73256000D02*
X104068000Y-74670213D01*
X103051000Y-72239000D02*
X103051000Y-68072000D01*
X104068000Y-73256000D02*
X103051000Y-72239000D01*
X95504000Y-66621000D02*
X95504000Y-65908500D01*
X95504000Y-65908500D02*
X98044000Y-63368500D01*
X99342000Y-57325490D02*
X98044000Y-58623490D01*
X99342000Y-52324000D02*
X99342000Y-57325490D01*
X98044000Y-58623490D02*
X98044000Y-63368500D01*
X93980000Y-71487000D02*
X93980000Y-66244310D01*
X94629000Y-72136000D02*
X93980000Y-71487000D01*
X95504000Y-72136000D02*
X94629000Y-72136000D01*
X95278000Y-64946310D02*
X95278000Y-56388000D01*
X93980000Y-66244310D02*
X95278000Y-64946310D01*
X94753000Y-52324000D02*
X95278000Y-52324000D01*
X94427990Y-52649010D02*
X94753000Y-52324000D01*
X94427990Y-64576010D02*
X94427990Y-52649010D01*
X93529991Y-65474009D02*
X94427990Y-64576010D01*
X93529991Y-65474009D02*
X93529991Y-70554009D01*
X94629000Y-77797000D02*
X93540000Y-76708000D01*
X95504000Y-77797000D02*
X94629000Y-77797000D01*
X93181001Y-75851999D02*
X92513002Y-75184000D01*
X93181001Y-76417001D02*
X93181001Y-75851999D01*
X93472000Y-76708000D02*
X93181001Y-76417001D01*
X93540000Y-76708000D02*
X93472000Y-76708000D01*
X92513002Y-75184000D02*
X92456000Y-75184000D01*
X92456000Y-75184000D02*
X91948000Y-74676000D01*
X91948000Y-72136000D02*
X91948000Y-74168000D01*
X93529991Y-70554009D02*
X91948000Y-72136000D01*
X91948000Y-74168000D02*
X91948000Y-73152000D01*
X91948000Y-74676000D02*
X91948000Y-74168000D01*
X88449990Y-62426010D02*
X88449991Y-61789599D01*
X89465990Y-53406010D02*
X90548000Y-52324000D01*
X89465990Y-60773600D02*
X89465990Y-53406010D01*
X90548000Y-52324000D02*
X91073000Y-52324000D01*
X88449991Y-61789599D02*
X89465990Y-60773600D01*
X89549000Y-77760500D02*
X90424000Y-77760500D01*
X88449990Y-76661490D02*
X89549000Y-77760500D01*
X88449990Y-62426010D02*
X88449990Y-76661490D01*
X89549000Y-72136000D02*
X88900000Y-71487000D01*
X90424000Y-72136000D02*
X89549000Y-72136000D01*
X88900000Y-61976000D02*
X89916000Y-60960000D01*
X88900000Y-71487000D02*
X88900000Y-61976000D01*
X90689000Y-56388000D02*
X91214000Y-56388000D01*
X89916000Y-57161000D02*
X90689000Y-56388000D01*
X89916000Y-60960000D02*
X89916000Y-57161000D01*
X91073000Y-65186500D02*
X91073000Y-60452000D01*
X90424000Y-65835500D02*
X91073000Y-65186500D01*
X90424000Y-66548000D02*
X90424000Y-65835500D01*
X134133999Y-69546001D02*
X134161999Y-69546001D01*
X132634000Y-71046000D02*
X134133999Y-69546001D01*
X134161999Y-69546001D02*
X135128000Y-68580000D01*
X130121000Y-47317000D02*
X130048000Y-47244000D01*
X130121000Y-52324000D02*
X130121000Y-47317000D01*
X135128000Y-58206000D02*
X135128000Y-58420000D01*
X130121000Y-53199000D02*
X135128000Y-58206000D01*
X130121000Y-52324000D02*
X130121000Y-53199000D01*
X135128000Y-68580000D02*
X135128000Y-58420000D01*
X127386000Y-62606000D02*
X127508000Y-62484000D01*
X125650000Y-62606000D02*
X127386000Y-62606000D01*
X127376000Y-63876000D02*
X127508000Y-64008000D01*
X125650000Y-63876000D02*
X127376000Y-63876000D01*
X126375000Y-76576000D02*
X125650000Y-76576000D01*
X132634000Y-58846000D02*
X130048000Y-61432000D01*
X130048000Y-61432000D02*
X130048000Y-74676000D01*
X130048000Y-74676000D02*
X128148000Y-76576000D01*
X128148000Y-76576000D02*
X127884000Y-76576000D01*
X127884000Y-76576000D02*
X126375000Y-76576000D01*
X128148000Y-76576000D02*
X128900000Y-76576000D01*
X130121000Y-77797000D02*
X130121000Y-78740000D01*
X128900000Y-76576000D02*
X130121000Y-77797000D01*
X106802000Y-72766000D02*
X106172000Y-72136000D01*
X108030000Y-72766000D02*
X106802000Y-72766000D01*
X96315500Y-68072000D02*
X95504000Y-68883500D01*
X95504000Y-68883500D02*
X95504000Y-69596000D01*
X98044000Y-68072000D02*
X96315500Y-68072000D01*
X107305000Y-71496000D02*
X106172000Y-70363000D01*
X106172000Y-70363000D02*
X106172000Y-70104000D01*
X108030000Y-71496000D02*
X107305000Y-71496000D01*
X93472000Y-73660000D02*
X93472000Y-74676000D01*
X93907000Y-75111000D02*
X95504000Y-75111000D01*
X93472000Y-74676000D02*
X93907000Y-75111000D01*
X110622000Y-70226000D02*
X110744000Y-70104000D01*
X108030000Y-70226000D02*
X110622000Y-70226000D01*
X94996000Y-81280000D02*
X95504000Y-80772000D01*
X93472000Y-81280000D02*
X94996000Y-81280000D01*
X106548000Y-74036000D02*
X106172000Y-73660000D01*
X108030000Y-74036000D02*
X106548000Y-74036000D01*
X90968500Y-81280000D02*
X90424000Y-80735500D01*
X92456000Y-81280000D02*
X90968500Y-81280000D01*
X106294000Y-75306000D02*
X106172000Y-75184000D01*
X108030000Y-75306000D02*
X106294000Y-75306000D01*
X90424000Y-75823500D02*
X90424000Y-75111000D01*
X90800500Y-76200000D02*
X90424000Y-75823500D01*
X92456000Y-76200000D02*
X90800500Y-76200000D01*
X106294000Y-77846000D02*
X106172000Y-77724000D01*
X108030000Y-77846000D02*
X106294000Y-77846000D01*
X91005000Y-70104000D02*
X90424000Y-69523000D01*
X92456000Y-70104000D02*
X91005000Y-70104000D01*
X95431000Y-86795000D02*
X95504000Y-86868000D01*
X90424000Y-86795000D02*
X95431000Y-86795000D01*
X110622000Y-65146000D02*
X110744000Y-65024000D01*
X108030000Y-65146000D02*
X110622000Y-65146000D01*
X96520000Y-86868000D02*
X99568000Y-83820000D01*
X95504000Y-86868000D02*
X96520000Y-86868000D01*
X139186213Y-78812000D02*
X144272000Y-78812000D01*
X137772000Y-78812000D02*
X139186213Y-78812000D01*
X135668000Y-76708000D02*
X137772000Y-78812000D01*
X132080000Y-76708000D02*
X135668000Y-76708000D01*
X128452000Y-83892000D02*
X131572000Y-80772000D01*
X125040000Y-83892000D02*
X128452000Y-83892000D01*
X123952000Y-82804000D02*
X125040000Y-83892000D01*
X131572000Y-80772000D02*
X131572000Y-77216000D01*
X123952000Y-75692000D02*
X123952000Y-82804000D01*
X131572000Y-77216000D02*
X132080000Y-76708000D01*
X124338000Y-75306000D02*
X123952000Y-75692000D01*
X125650000Y-75306000D02*
X124338000Y-75306000D01*
X128524000Y-59436000D02*
X127894000Y-60066000D01*
X128524000Y-54864000D02*
X128524000Y-59436000D01*
X123444000Y-49784000D02*
X128524000Y-54864000D01*
X119888000Y-49784000D02*
X123444000Y-49784000D01*
X127894000Y-60066000D02*
X125650000Y-60066000D01*
X117348000Y-47244000D02*
X119888000Y-49784000D01*
X124925000Y-67686000D02*
X123952000Y-66713000D01*
X125650000Y-67686000D02*
X124925000Y-67686000D01*
X123952000Y-66713000D02*
X123952000Y-55372000D01*
X123952000Y-55372000D02*
X117856000Y-49276000D01*
X114808000Y-47244000D02*
X116840000Y-49276000D01*
X116840000Y-49276000D02*
X117856000Y-49276000D01*
X121920000Y-49276000D02*
X119888000Y-47244000D01*
X123823590Y-49276000D02*
X121920000Y-49276000D01*
X129089990Y-54542400D02*
X123823590Y-49276000D01*
X129089990Y-66241010D02*
X129089990Y-54542400D01*
X126375000Y-68956000D02*
X129089990Y-66241010D01*
X125650000Y-68956000D02*
X126375000Y-68956000D01*
X128524000Y-53340000D02*
X122428000Y-47244000D01*
X129540000Y-54356000D02*
X128524000Y-53340000D01*
X129540000Y-69596000D02*
X129540000Y-54356000D01*
X128910000Y-70226000D02*
X129540000Y-69596000D01*
X125650000Y-70226000D02*
X128910000Y-70226000D01*
X127376000Y-74036000D02*
X127508000Y-74168000D01*
X125650000Y-74036000D02*
X127376000Y-74036000D01*
X109342000Y-80386000D02*
X109728000Y-80772000D01*
X108030000Y-80386000D02*
X109342000Y-80386000D01*
X109596000Y-79116000D02*
X109728000Y-79248000D01*
X108030000Y-79116000D02*
X109596000Y-79116000D01*
X99641000Y-98185000D02*
X99641000Y-99060000D01*
X100979000Y-86327000D02*
X99641000Y-87665000D01*
X99641000Y-87665000D02*
X99641000Y-98185000D01*
X100979000Y-85852000D02*
X100979000Y-86327000D01*
X91848000Y-99060000D02*
X98928500Y-99060000D01*
X90576000Y-97788000D02*
X91848000Y-99060000D01*
X98928500Y-99060000D02*
X99641000Y-99060000D01*
X90576000Y-96788000D02*
X90576000Y-97788000D01*
X104608000Y-94468000D02*
X104608000Y-93218000D01*
X103328500Y-99060000D02*
X104608000Y-97780500D01*
X104608000Y-97780500D02*
X104608000Y-94468000D01*
X102616000Y-99060000D02*
X103328500Y-99060000D01*
M02*
