G04 #@! TF.GenerationSoftware,KiCad,Pcbnew,5.1.5+dfsg1-2build2*
G04 #@! TF.CreationDate,2021-12-16T07:29:40-05:00*
G04 #@! TF.ProjectId,schematics,73636865-6d61-4746-9963-732e6b696361,rev?*
G04 #@! TF.SameCoordinates,Original*
G04 #@! TF.FileFunction,Legend,Bot*
G04 #@! TF.FilePolarity,Positive*
%FSLAX46Y46*%
G04 Gerber Fmt 4.6, Leading zero omitted, Abs format (unit mm)*
G04 Created by KiCad (PCBNEW 5.1.5+dfsg1-2build2) date 2021-12-16 07:29:40*
%MOMM*%
%LPD*%
G04 APERTURE LIST*
%ADD10C,0.150000*%
%ADD11C,0.120000*%
G04 APERTURE END LIST*
D10*
X159980285Y-159782333D02*
X159313619Y-159782333D01*
X160361238Y-159544238D02*
X159646952Y-159306142D01*
X159646952Y-159925190D01*
X160313619Y-160210904D02*
X160313619Y-160829952D01*
X159932666Y-160496619D01*
X159932666Y-160639476D01*
X159885047Y-160734714D01*
X159837428Y-160782333D01*
X159742190Y-160829952D01*
X159504095Y-160829952D01*
X159408857Y-160782333D01*
X159361238Y-160734714D01*
X159313619Y-160639476D01*
X159313619Y-160353761D01*
X159361238Y-160258523D01*
X159408857Y-160210904D01*
X159408857Y-161258523D02*
X159361238Y-161306142D01*
X159313619Y-161258523D01*
X159361238Y-161210904D01*
X159408857Y-161258523D01*
X159313619Y-161258523D01*
X159313619Y-161782333D02*
X159313619Y-161972809D01*
X159361238Y-162068047D01*
X159408857Y-162115666D01*
X159551714Y-162210904D01*
X159742190Y-162258523D01*
X160123142Y-162258523D01*
X160218380Y-162210904D01*
X160266000Y-162163285D01*
X160313619Y-162068047D01*
X160313619Y-161877571D01*
X160266000Y-161782333D01*
X160218380Y-161734714D01*
X160123142Y-161687095D01*
X159885047Y-161687095D01*
X159789809Y-161734714D01*
X159742190Y-161782333D01*
X159694571Y-161877571D01*
X159694571Y-162068047D01*
X159742190Y-162163285D01*
X159789809Y-162210904D01*
X159885047Y-162258523D01*
X159980285Y-163115666D02*
X159313619Y-163115666D01*
X160361238Y-162877571D02*
X159646952Y-162639476D01*
X159646952Y-163258523D01*
X160218380Y-163591857D02*
X160266000Y-163639476D01*
X160313619Y-163734714D01*
X160313619Y-163972809D01*
X160266000Y-164068047D01*
X160218380Y-164115666D01*
X160123142Y-164163285D01*
X160027904Y-164163285D01*
X159885047Y-164115666D01*
X159313619Y-163544238D01*
X159313619Y-164163285D01*
X159313619Y-165353761D02*
X159980285Y-165353761D01*
X159885047Y-165353761D02*
X159932666Y-165401380D01*
X159980285Y-165496619D01*
X159980285Y-165639476D01*
X159932666Y-165734714D01*
X159837428Y-165782333D01*
X159313619Y-165782333D01*
X159837428Y-165782333D02*
X159932666Y-165829952D01*
X159980285Y-165925190D01*
X159980285Y-166068047D01*
X159932666Y-166163285D01*
X159837428Y-166210904D01*
X159313619Y-166210904D01*
X159313619Y-166687095D02*
X159980285Y-166687095D01*
X159885047Y-166687095D02*
X159932666Y-166734714D01*
X159980285Y-166829952D01*
X159980285Y-166972809D01*
X159932666Y-167068047D01*
X159837428Y-167115666D01*
X159313619Y-167115666D01*
X159837428Y-167115666D02*
X159932666Y-167163285D01*
X159980285Y-167258523D01*
X159980285Y-167401380D01*
X159932666Y-167496619D01*
X159837428Y-167544238D01*
X159313619Y-167544238D01*
D11*
X158496000Y-141478000D02*
X158496000Y-185420000D01*
X154178000Y-141478000D02*
X159082421Y-141478000D01*
X154178000Y-185420000D02*
X159082421Y-185420000D01*
X158496000Y-185420000D02*
X157909579Y-184293496D01*
X158496000Y-185420000D02*
X159082421Y-184293496D01*
X158496000Y-141478000D02*
X157909579Y-142604504D01*
X158496000Y-141478000D02*
X159082421Y-142604504D01*
D10*
X114681523Y-132548380D02*
X115348190Y-132548380D01*
X114919619Y-133548380D01*
X115919619Y-132548380D02*
X116014857Y-132548380D01*
X116110095Y-132596000D01*
X116157714Y-132643619D01*
X116205333Y-132738857D01*
X116252952Y-132929333D01*
X116252952Y-133167428D01*
X116205333Y-133357904D01*
X116157714Y-133453142D01*
X116110095Y-133500761D01*
X116014857Y-133548380D01*
X115919619Y-133548380D01*
X115824380Y-133500761D01*
X115776761Y-133453142D01*
X115729142Y-133357904D01*
X115681523Y-133167428D01*
X115681523Y-132929333D01*
X115729142Y-132738857D01*
X115776761Y-132643619D01*
X115824380Y-132596000D01*
X115919619Y-132548380D01*
X116681523Y-133453142D02*
X116729142Y-133500761D01*
X116681523Y-133548380D01*
X116633904Y-133500761D01*
X116681523Y-133453142D01*
X116681523Y-133548380D01*
X117586285Y-132548380D02*
X117395809Y-132548380D01*
X117300571Y-132596000D01*
X117252952Y-132643619D01*
X117157714Y-132786476D01*
X117110095Y-132976952D01*
X117110095Y-133357904D01*
X117157714Y-133453142D01*
X117205333Y-133500761D01*
X117300571Y-133548380D01*
X117491047Y-133548380D01*
X117586285Y-133500761D01*
X117633904Y-133453142D01*
X117681523Y-133357904D01*
X117681523Y-133119809D01*
X117633904Y-133024571D01*
X117586285Y-132976952D01*
X117491047Y-132929333D01*
X117300571Y-132929333D01*
X117205333Y-132976952D01*
X117157714Y-133024571D01*
X117110095Y-133119809D01*
X118633904Y-133548380D02*
X118062476Y-133548380D01*
X118348190Y-133548380D02*
X118348190Y-132548380D01*
X118252952Y-132691238D01*
X118157714Y-132786476D01*
X118062476Y-132834095D01*
X119014857Y-132643619D02*
X119062476Y-132596000D01*
X119157714Y-132548380D01*
X119395809Y-132548380D01*
X119491047Y-132596000D01*
X119538666Y-132643619D01*
X119586285Y-132738857D01*
X119586285Y-132834095D01*
X119538666Y-132976952D01*
X118967238Y-133548380D01*
X119586285Y-133548380D01*
X120776761Y-133548380D02*
X120776761Y-132881714D01*
X120776761Y-132976952D02*
X120824380Y-132929333D01*
X120919619Y-132881714D01*
X121062476Y-132881714D01*
X121157714Y-132929333D01*
X121205333Y-133024571D01*
X121205333Y-133548380D01*
X121205333Y-133024571D02*
X121252952Y-132929333D01*
X121348190Y-132881714D01*
X121491047Y-132881714D01*
X121586285Y-132929333D01*
X121633904Y-133024571D01*
X121633904Y-133548380D01*
X122110095Y-133548380D02*
X122110095Y-132881714D01*
X122110095Y-132976952D02*
X122157714Y-132929333D01*
X122252952Y-132881714D01*
X122395809Y-132881714D01*
X122491047Y-132929333D01*
X122538666Y-133024571D01*
X122538666Y-133548380D01*
X122538666Y-133024571D02*
X122586285Y-132929333D01*
X122681523Y-132881714D01*
X122824380Y-132881714D01*
X122919619Y-132929333D01*
X122967238Y-133024571D01*
X122967238Y-133548380D01*
D11*
X83566000Y-134366000D02*
X154178000Y-134366000D01*
X83566000Y-141478000D02*
X83566000Y-133779579D01*
X154178000Y-141478000D02*
X154178000Y-133779579D01*
X154178000Y-134366000D02*
X153051496Y-134952421D01*
X154178000Y-134366000D02*
X153051496Y-133779579D01*
X83566000Y-134366000D02*
X84692504Y-134952421D01*
X83566000Y-134366000D02*
X84692504Y-133779579D01*
M02*
