G04 #@! TF.GenerationSoftware,KiCad,Pcbnew,5.1.5+dfsg1-2build2*
G04 #@! TF.CreationDate,2021-12-07T08:31:45-05:00*
G04 #@! TF.ProjectId,schematics,73636865-6d61-4746-9963-732e6b696361,rev?*
G04 #@! TF.SameCoordinates,Original*
G04 #@! TF.FileFunction,Copper,L2,Bot*
G04 #@! TF.FilePolarity,Positive*
%FSLAX46Y46*%
G04 Gerber Fmt 4.6, Leading zero omitted, Abs format (unit mm)*
G04 Created by KiCad (PCBNEW 5.1.5+dfsg1-2build2) date 2021-12-07 08:31:45*
%MOMM*%
%LPD*%
G04 APERTURE LIST*
%ADD10C,0.100000*%
%ADD11O,1.700000X1.950000*%
%ADD12C,2.000000*%
%ADD13O,1.700000X2.000000*%
%ADD14R,1.350000X1.350000*%
%ADD15O,1.350000X1.350000*%
%ADD16C,2.500000*%
%ADD17C,3.000000*%
%ADD18C,1.524000*%
%ADD19R,5.000000X3.500000*%
%ADD20C,0.800000*%
%ADD21C,0.250000*%
%ADD22C,0.254000*%
G04 APERTURE END LIST*
G04 #@! TA.AperFunction,ComponentPad*
D10*
G36*
X93080504Y-45254204D02*
G01*
X93104773Y-45257804D01*
X93128571Y-45263765D01*
X93151671Y-45272030D01*
X93173849Y-45282520D01*
X93194893Y-45295133D01*
X93214598Y-45309747D01*
X93232777Y-45326223D01*
X93249253Y-45344402D01*
X93263867Y-45364107D01*
X93276480Y-45385151D01*
X93286970Y-45407329D01*
X93295235Y-45430429D01*
X93301196Y-45454227D01*
X93304796Y-45478496D01*
X93306000Y-45503000D01*
X93306000Y-46953000D01*
X93304796Y-46977504D01*
X93301196Y-47001773D01*
X93295235Y-47025571D01*
X93286970Y-47048671D01*
X93276480Y-47070849D01*
X93263867Y-47091893D01*
X93249253Y-47111598D01*
X93232777Y-47129777D01*
X93214598Y-47146253D01*
X93194893Y-47160867D01*
X93173849Y-47173480D01*
X93151671Y-47183970D01*
X93128571Y-47192235D01*
X93104773Y-47198196D01*
X93080504Y-47201796D01*
X93056000Y-47203000D01*
X91856000Y-47203000D01*
X91831496Y-47201796D01*
X91807227Y-47198196D01*
X91783429Y-47192235D01*
X91760329Y-47183970D01*
X91738151Y-47173480D01*
X91717107Y-47160867D01*
X91697402Y-47146253D01*
X91679223Y-47129777D01*
X91662747Y-47111598D01*
X91648133Y-47091893D01*
X91635520Y-47070849D01*
X91625030Y-47048671D01*
X91616765Y-47025571D01*
X91610804Y-47001773D01*
X91607204Y-46977504D01*
X91606000Y-46953000D01*
X91606000Y-45503000D01*
X91607204Y-45478496D01*
X91610804Y-45454227D01*
X91616765Y-45430429D01*
X91625030Y-45407329D01*
X91635520Y-45385151D01*
X91648133Y-45364107D01*
X91662747Y-45344402D01*
X91679223Y-45326223D01*
X91697402Y-45309747D01*
X91717107Y-45295133D01*
X91738151Y-45282520D01*
X91760329Y-45272030D01*
X91783429Y-45263765D01*
X91807227Y-45257804D01*
X91831496Y-45254204D01*
X91856000Y-45253000D01*
X93056000Y-45253000D01*
X93080504Y-45254204D01*
G37*
G04 #@! TD.AperFunction*
D11*
X94956000Y-46228000D03*
X97456000Y-46228000D03*
X99956000Y-46228000D03*
D12*
X99568000Y-73256000D03*
X104068000Y-73256000D03*
X99568000Y-79756000D03*
X104068000Y-79756000D03*
G04 #@! TA.AperFunction,ComponentPad*
D10*
G36*
X130672504Y-46245204D02*
G01*
X130696773Y-46248804D01*
X130720571Y-46254765D01*
X130743671Y-46263030D01*
X130765849Y-46273520D01*
X130786893Y-46286133D01*
X130806598Y-46300747D01*
X130824777Y-46317223D01*
X130841253Y-46335402D01*
X130855867Y-46355107D01*
X130868480Y-46376151D01*
X130878970Y-46398329D01*
X130887235Y-46421429D01*
X130893196Y-46445227D01*
X130896796Y-46469496D01*
X130898000Y-46494000D01*
X130898000Y-47994000D01*
X130896796Y-48018504D01*
X130893196Y-48042773D01*
X130887235Y-48066571D01*
X130878970Y-48089671D01*
X130868480Y-48111849D01*
X130855867Y-48132893D01*
X130841253Y-48152598D01*
X130824777Y-48170777D01*
X130806598Y-48187253D01*
X130786893Y-48201867D01*
X130765849Y-48214480D01*
X130743671Y-48224970D01*
X130720571Y-48233235D01*
X130696773Y-48239196D01*
X130672504Y-48242796D01*
X130648000Y-48244000D01*
X129448000Y-48244000D01*
X129423496Y-48242796D01*
X129399227Y-48239196D01*
X129375429Y-48233235D01*
X129352329Y-48224970D01*
X129330151Y-48214480D01*
X129309107Y-48201867D01*
X129289402Y-48187253D01*
X129271223Y-48170777D01*
X129254747Y-48152598D01*
X129240133Y-48132893D01*
X129227520Y-48111849D01*
X129217030Y-48089671D01*
X129208765Y-48066571D01*
X129202804Y-48042773D01*
X129199204Y-48018504D01*
X129198000Y-47994000D01*
X129198000Y-46494000D01*
X129199204Y-46469496D01*
X129202804Y-46445227D01*
X129208765Y-46421429D01*
X129217030Y-46398329D01*
X129227520Y-46376151D01*
X129240133Y-46355107D01*
X129254747Y-46335402D01*
X129271223Y-46317223D01*
X129289402Y-46300747D01*
X129309107Y-46286133D01*
X129330151Y-46273520D01*
X129352329Y-46263030D01*
X129375429Y-46254765D01*
X129399227Y-46248804D01*
X129423496Y-46245204D01*
X129448000Y-46244000D01*
X130648000Y-46244000D01*
X130672504Y-46245204D01*
G37*
G04 #@! TD.AperFunction*
D13*
X132548000Y-47244000D03*
D14*
X139700000Y-46228000D03*
D15*
X139700000Y-48228000D03*
X139700000Y-50228000D03*
D16*
X132634000Y-58846000D03*
D17*
X132634000Y-71046000D03*
X144684000Y-71096000D03*
D16*
X144634000Y-58846000D03*
D17*
X138684000Y-56896000D03*
D12*
X137772000Y-83312000D03*
X137772000Y-78812000D03*
X144272000Y-83312000D03*
X144272000Y-78812000D03*
D18*
X104648000Y-47244000D03*
X107188000Y-47244000D03*
X109728000Y-47244000D03*
X112268000Y-47244000D03*
X114808000Y-47244000D03*
X117348000Y-47244000D03*
X119888000Y-47244000D03*
X122428000Y-47244000D03*
G04 #@! TA.AperFunction,ComponentPad*
D10*
G36*
X102732504Y-92219204D02*
G01*
X102756773Y-92222804D01*
X102780571Y-92228765D01*
X102803671Y-92237030D01*
X102825849Y-92247520D01*
X102846893Y-92260133D01*
X102866598Y-92274747D01*
X102884777Y-92291223D01*
X102901253Y-92309402D01*
X102915867Y-92329107D01*
X102928480Y-92350151D01*
X102938970Y-92372329D01*
X102947235Y-92395429D01*
X102953196Y-92419227D01*
X102956796Y-92443496D01*
X102958000Y-92468000D01*
X102958000Y-93968000D01*
X102956796Y-93992504D01*
X102953196Y-94016773D01*
X102947235Y-94040571D01*
X102938970Y-94063671D01*
X102928480Y-94085849D01*
X102915867Y-94106893D01*
X102901253Y-94126598D01*
X102884777Y-94144777D01*
X102866598Y-94161253D01*
X102846893Y-94175867D01*
X102825849Y-94188480D01*
X102803671Y-94198970D01*
X102780571Y-94207235D01*
X102756773Y-94213196D01*
X102732504Y-94216796D01*
X102708000Y-94218000D01*
X101508000Y-94218000D01*
X101483496Y-94216796D01*
X101459227Y-94213196D01*
X101435429Y-94207235D01*
X101412329Y-94198970D01*
X101390151Y-94188480D01*
X101369107Y-94175867D01*
X101349402Y-94161253D01*
X101331223Y-94144777D01*
X101314747Y-94126598D01*
X101300133Y-94106893D01*
X101287520Y-94085849D01*
X101277030Y-94063671D01*
X101268765Y-94040571D01*
X101262804Y-94016773D01*
X101259204Y-93992504D01*
X101258000Y-93968000D01*
X101258000Y-92468000D01*
X101259204Y-92443496D01*
X101262804Y-92419227D01*
X101268765Y-92395429D01*
X101277030Y-92372329D01*
X101287520Y-92350151D01*
X101300133Y-92329107D01*
X101314747Y-92309402D01*
X101331223Y-92291223D01*
X101349402Y-92274747D01*
X101369107Y-92260133D01*
X101390151Y-92247520D01*
X101412329Y-92237030D01*
X101435429Y-92228765D01*
X101459227Y-92222804D01*
X101483496Y-92219204D01*
X101508000Y-92218000D01*
X102708000Y-92218000D01*
X102732504Y-92219204D01*
G37*
G04 #@! TD.AperFunction*
D13*
X104608000Y-93218000D03*
D19*
X111890900Y-91390400D03*
X111890900Y-97890400D03*
X144390900Y-97890400D03*
X144390900Y-91440400D03*
D20*
X115316000Y-61976000D03*
X127508000Y-58928000D03*
X127508000Y-62484000D03*
X127508000Y-64008000D03*
X98044000Y-68072000D03*
X106172000Y-72136000D03*
X93472000Y-73660000D03*
X106172000Y-70104000D03*
X110744000Y-70104000D03*
X93472000Y-81280000D03*
X92456000Y-81280000D03*
X106172000Y-73660000D03*
X92456000Y-76200000D03*
X106172000Y-75184000D03*
X92456000Y-70104000D03*
X106172000Y-77724000D03*
X99568000Y-83820000D03*
X110744000Y-65024000D03*
X127508000Y-74168000D03*
X109728000Y-80772000D03*
X109728000Y-79248000D03*
D21*
X92456000Y-47203000D02*
X99568000Y-54315000D01*
X92456000Y-46228000D02*
X92456000Y-47203000D01*
X99568000Y-54315000D02*
X99568000Y-73256000D01*
X115316000Y-61976000D02*
X115316000Y-60452000D01*
X115316000Y-60452000D02*
X116840000Y-58928000D01*
X116840000Y-58928000D02*
X127508000Y-58928000D01*
X127508000Y-58928000D02*
X127508000Y-51816000D01*
X127508000Y-51816000D02*
X129032000Y-50292000D01*
X132548000Y-48494000D02*
X132548000Y-47244000D01*
X130750000Y-50292000D02*
X132548000Y-48494000D01*
X129032000Y-50292000D02*
X130750000Y-50292000D01*
X109140900Y-97890400D02*
X111890900Y-97890400D01*
X105780400Y-97890400D02*
X109140900Y-97890400D01*
X102108000Y-94218000D02*
X105780400Y-97890400D01*
X102108000Y-93218000D02*
X102108000Y-94218000D01*
X136144000Y-46228000D02*
X139700000Y-46228000D01*
X129218400Y-50742010D02*
X131629990Y-50742010D01*
X131629990Y-50742010D02*
X136144000Y-46228000D01*
X128524000Y-51436410D02*
X129218400Y-50742010D01*
X128524000Y-61468000D02*
X128524000Y-51436410D01*
X127508000Y-62484000D02*
X128524000Y-61468000D01*
X134780410Y-48228000D02*
X139700000Y-48228000D01*
X131816390Y-51192020D02*
X134780410Y-48228000D01*
X129404800Y-51192020D02*
X131816390Y-51192020D01*
X129032000Y-51564820D02*
X129404800Y-51192020D01*
X129032000Y-62484000D02*
X129032000Y-51564820D01*
X127508000Y-64008000D02*
X129032000Y-62484000D01*
X116840000Y-79248000D02*
X111890900Y-84197100D01*
X129032000Y-74930000D02*
X124714000Y-79248000D01*
X111890900Y-84197100D02*
X111890900Y-91390400D01*
X129032000Y-66548000D02*
X129032000Y-74930000D01*
X124714000Y-79248000D02*
X116840000Y-79248000D01*
X138684000Y-56896000D02*
X129032000Y-66548000D01*
X97028000Y-69088000D02*
X98044000Y-68072000D01*
X97536000Y-76200000D02*
X97028000Y-75692000D01*
X101600000Y-76200000D02*
X97536000Y-76200000D01*
X97028000Y-75692000D02*
X97028000Y-69088000D01*
X102108000Y-72644000D02*
X102108000Y-75692000D01*
X105156000Y-71120000D02*
X103632000Y-71120000D01*
X102108000Y-75692000D02*
X101600000Y-76200000D01*
X103632000Y-71120000D02*
X102108000Y-72644000D01*
X106172000Y-72136000D02*
X105156000Y-71120000D01*
X104011590Y-70104000D02*
X106172000Y-70104000D01*
X93980000Y-69918588D02*
X97350588Y-66548000D01*
X98044000Y-75692000D02*
X101092000Y-75692000D01*
X93472000Y-73660000D02*
X93980000Y-73152000D01*
X93980000Y-73152000D02*
X93980000Y-69918588D01*
X97350588Y-66548000D02*
X98552000Y-66548000D01*
X101600000Y-72515590D02*
X104011590Y-70104000D01*
X99060000Y-67056000D02*
X99060000Y-68129002D01*
X101600000Y-75184000D02*
X101600000Y-72515590D01*
X101092000Y-75692000D02*
X101600000Y-75184000D01*
X98552000Y-66548000D02*
X99060000Y-67056000D01*
X99060000Y-68129002D02*
X97536000Y-69653002D01*
X97536000Y-69653002D02*
X97536000Y-75184000D01*
X97536000Y-75184000D02*
X98044000Y-75692000D01*
X110744000Y-70104000D02*
X110744000Y-82296000D01*
X110744000Y-82296000D02*
X110236000Y-82804000D01*
X94996000Y-82804000D02*
X93472000Y-81280000D01*
X110236000Y-82804000D02*
X94996000Y-82804000D01*
X105091795Y-74740205D02*
X106172000Y-73660000D01*
X105091795Y-75627795D02*
X105091795Y-74740205D01*
X93979012Y-76650010D02*
X104069580Y-76650010D01*
X93472000Y-70612000D02*
X91948000Y-72136000D01*
X93472000Y-70046998D02*
X93472000Y-70612000D01*
X91948000Y-72136000D02*
X91948000Y-74618998D01*
X92513002Y-69088000D02*
X93472000Y-70046998D01*
X91440000Y-69088000D02*
X92513002Y-69088000D01*
X104069580Y-76650010D02*
X105091795Y-75627795D01*
X90932000Y-69596000D02*
X91440000Y-69088000D01*
X90932000Y-79756000D02*
X90932000Y-69596000D01*
X91948000Y-74618998D02*
X93979012Y-76650010D01*
X92456000Y-81280000D02*
X90932000Y-79756000D01*
X106172000Y-75184000D02*
X104140000Y-77216000D01*
X93472000Y-77216000D02*
X92456000Y-76200000D01*
X104140000Y-77216000D02*
X93472000Y-77216000D01*
X92906998Y-77724000D02*
X91440000Y-76257002D01*
X106172000Y-77724000D02*
X92906998Y-77724000D01*
X91440000Y-71120000D02*
X92456000Y-70104000D01*
X91440000Y-76257002D02*
X91440000Y-71120000D01*
X110364410Y-83312000D02*
X100076000Y-83312000D01*
X111469001Y-82207409D02*
X110364410Y-83312000D01*
X111469001Y-65749001D02*
X111469001Y-82207409D01*
X100076000Y-83312000D02*
X99568000Y-83820000D01*
X110744000Y-65024000D02*
X111469001Y-65749001D01*
X107188000Y-56388000D02*
X107188000Y-47244000D01*
X111919011Y-61119011D02*
X107188000Y-56388000D01*
X113284000Y-74168000D02*
X111919011Y-72803011D01*
X111919011Y-72803011D02*
X111919011Y-61119011D01*
X127508000Y-74168000D02*
X113284000Y-74168000D01*
X94956000Y-46228000D02*
X94956000Y-47453000D01*
X108712000Y-79756000D02*
X108712000Y-71570998D01*
X109728000Y-80772000D02*
X108712000Y-79756000D01*
X108712000Y-71570998D02*
X108712000Y-60960000D01*
X94956000Y-47453000D02*
X108712000Y-60960000D01*
X109728000Y-59725000D02*
X109728000Y-61976000D01*
X97456000Y-47453000D02*
X109728000Y-59725000D01*
X97456000Y-46228000D02*
X97456000Y-47453000D01*
X109728000Y-79248000D02*
X109728000Y-61976000D01*
D22*
G36*
X145619768Y-41965491D02*
G01*
X145207525Y-42240942D01*
X144856942Y-42591525D01*
X144581491Y-43003768D01*
X144391756Y-43461827D01*
X144295031Y-43948100D01*
X144295031Y-44443900D01*
X144391756Y-44930173D01*
X144581491Y-45388232D01*
X144856942Y-45800475D01*
X145207525Y-46151058D01*
X145619768Y-46426509D01*
X146077827Y-46616244D01*
X146564100Y-46712969D01*
X147059900Y-46712969D01*
X147546173Y-46616244D01*
X148004232Y-46426509D01*
X148416475Y-46151058D01*
X148767058Y-45800475D01*
X149042509Y-45388232D01*
X149232244Y-44930173D01*
X149328969Y-44443900D01*
X149328969Y-43948100D01*
X149232244Y-43461827D01*
X149042509Y-43003768D01*
X148767058Y-42591525D01*
X148416475Y-42240942D01*
X148004232Y-41965491D01*
X147708514Y-41843000D01*
X149708000Y-41843000D01*
X149708001Y-105223000D01*
X91559050Y-105223000D01*
X91774475Y-105079058D01*
X92125058Y-104728475D01*
X92400509Y-104316232D01*
X92590244Y-103858173D01*
X92686969Y-103371900D01*
X92686969Y-102876100D01*
X92590244Y-102389827D01*
X92400509Y-101931768D01*
X92125058Y-101519525D01*
X91774475Y-101168942D01*
X91362232Y-100893491D01*
X90904173Y-100703756D01*
X90417900Y-100607031D01*
X89922100Y-100607031D01*
X89435827Y-100703756D01*
X88977768Y-100893491D01*
X88565525Y-101168942D01*
X88214942Y-101519525D01*
X87939491Y-101931768D01*
X87749756Y-102389827D01*
X87653031Y-102876100D01*
X87653031Y-103371900D01*
X87749756Y-103858173D01*
X87939491Y-104316232D01*
X88214942Y-104728475D01*
X88565525Y-105079058D01*
X88780950Y-105223000D01*
X87528000Y-105223000D01*
X87528000Y-99640400D01*
X108752828Y-99640400D01*
X108765088Y-99764882D01*
X108801398Y-99884580D01*
X108860363Y-99994894D01*
X108939715Y-100091585D01*
X109036406Y-100170937D01*
X109146720Y-100229902D01*
X109266418Y-100266212D01*
X109390900Y-100278472D01*
X111605150Y-100275400D01*
X111763900Y-100116650D01*
X111763900Y-98017400D01*
X112017900Y-98017400D01*
X112017900Y-100116650D01*
X112176650Y-100275400D01*
X114390900Y-100278472D01*
X114515382Y-100266212D01*
X114635080Y-100229902D01*
X114745394Y-100170937D01*
X114842085Y-100091585D01*
X114921437Y-99994894D01*
X114980402Y-99884580D01*
X115016712Y-99764882D01*
X115028972Y-99640400D01*
X141252828Y-99640400D01*
X141265088Y-99764882D01*
X141301398Y-99884580D01*
X141360363Y-99994894D01*
X141439715Y-100091585D01*
X141536406Y-100170937D01*
X141646720Y-100229902D01*
X141766418Y-100266212D01*
X141890900Y-100278472D01*
X144105150Y-100275400D01*
X144263900Y-100116650D01*
X144263900Y-98017400D01*
X144517900Y-98017400D01*
X144517900Y-100116650D01*
X144676650Y-100275400D01*
X146890900Y-100278472D01*
X147015382Y-100266212D01*
X147135080Y-100229902D01*
X147245394Y-100170937D01*
X147342085Y-100091585D01*
X147421437Y-99994894D01*
X147480402Y-99884580D01*
X147516712Y-99764882D01*
X147528972Y-99640400D01*
X147525900Y-98176150D01*
X147367150Y-98017400D01*
X144517900Y-98017400D01*
X144263900Y-98017400D01*
X141414650Y-98017400D01*
X141255900Y-98176150D01*
X141252828Y-99640400D01*
X115028972Y-99640400D01*
X115025900Y-98176150D01*
X114867150Y-98017400D01*
X112017900Y-98017400D01*
X111763900Y-98017400D01*
X108914650Y-98017400D01*
X108755900Y-98176150D01*
X108752828Y-99640400D01*
X87528000Y-99640400D01*
X87528000Y-96140400D01*
X108752828Y-96140400D01*
X108755900Y-97604650D01*
X108914650Y-97763400D01*
X111763900Y-97763400D01*
X111763900Y-95664150D01*
X112017900Y-95664150D01*
X112017900Y-97763400D01*
X114867150Y-97763400D01*
X115025900Y-97604650D01*
X115028972Y-96140400D01*
X141252828Y-96140400D01*
X141255900Y-97604650D01*
X141414650Y-97763400D01*
X144263900Y-97763400D01*
X144263900Y-95664150D01*
X144517900Y-95664150D01*
X144517900Y-97763400D01*
X147367150Y-97763400D01*
X147525900Y-97604650D01*
X147528972Y-96140400D01*
X147516712Y-96015918D01*
X147480402Y-95896220D01*
X147421437Y-95785906D01*
X147342085Y-95689215D01*
X147245394Y-95609863D01*
X147135080Y-95550898D01*
X147015382Y-95514588D01*
X146890900Y-95502328D01*
X144676650Y-95505400D01*
X144517900Y-95664150D01*
X144263900Y-95664150D01*
X144105150Y-95505400D01*
X141890900Y-95502328D01*
X141766418Y-95514588D01*
X141646720Y-95550898D01*
X141536406Y-95609863D01*
X141439715Y-95689215D01*
X141360363Y-95785906D01*
X141301398Y-95896220D01*
X141265088Y-96015918D01*
X141252828Y-96140400D01*
X115028972Y-96140400D01*
X115016712Y-96015918D01*
X114980402Y-95896220D01*
X114921437Y-95785906D01*
X114842085Y-95689215D01*
X114745394Y-95609863D01*
X114635080Y-95550898D01*
X114515382Y-95514588D01*
X114390900Y-95502328D01*
X112176650Y-95505400D01*
X112017900Y-95664150D01*
X111763900Y-95664150D01*
X111605150Y-95505400D01*
X109390900Y-95502328D01*
X109266418Y-95514588D01*
X109146720Y-95550898D01*
X109036406Y-95609863D01*
X108939715Y-95689215D01*
X108860363Y-95785906D01*
X108801398Y-95896220D01*
X108765088Y-96015918D01*
X108752828Y-96140400D01*
X87528000Y-96140400D01*
X87528000Y-94218000D01*
X100619928Y-94218000D01*
X100632188Y-94342482D01*
X100668498Y-94462180D01*
X100727463Y-94572494D01*
X100806815Y-94669185D01*
X100903506Y-94748537D01*
X101013820Y-94807502D01*
X101133518Y-94843812D01*
X101258000Y-94856072D01*
X101822250Y-94853000D01*
X101981000Y-94694250D01*
X101981000Y-93345000D01*
X100781750Y-93345000D01*
X100623000Y-93503750D01*
X100619928Y-94218000D01*
X87528000Y-94218000D01*
X87528000Y-92218000D01*
X100619928Y-92218000D01*
X100623000Y-92932250D01*
X100781750Y-93091000D01*
X101981000Y-93091000D01*
X101981000Y-91741750D01*
X102235000Y-91741750D01*
X102235000Y-93091000D01*
X102255000Y-93091000D01*
X102255000Y-93345000D01*
X102235000Y-93345000D01*
X102235000Y-94694250D01*
X102393750Y-94853000D01*
X102958000Y-94856072D01*
X103082482Y-94843812D01*
X103202180Y-94807502D01*
X103312494Y-94748537D01*
X103409185Y-94669185D01*
X103488537Y-94572494D01*
X103547502Y-94462180D01*
X103558055Y-94427392D01*
X103778987Y-94608706D01*
X104036967Y-94746599D01*
X104316890Y-94831513D01*
X104608000Y-94860185D01*
X104899111Y-94831513D01*
X105179034Y-94746599D01*
X105437014Y-94608706D01*
X105663134Y-94423134D01*
X105848706Y-94197014D01*
X105986599Y-93939033D01*
X106071513Y-93659110D01*
X106093000Y-93440949D01*
X106093000Y-92995050D01*
X106071513Y-92776889D01*
X105986599Y-92496966D01*
X105848706Y-92238986D01*
X105663134Y-92012866D01*
X105437013Y-91827294D01*
X105179033Y-91689401D01*
X104899110Y-91604487D01*
X104608000Y-91575815D01*
X104316889Y-91604487D01*
X104036966Y-91689401D01*
X103778986Y-91827294D01*
X103558055Y-92008608D01*
X103547502Y-91973820D01*
X103488537Y-91863506D01*
X103409185Y-91766815D01*
X103312494Y-91687463D01*
X103202180Y-91628498D01*
X103082482Y-91592188D01*
X102958000Y-91579928D01*
X102393750Y-91583000D01*
X102235000Y-91741750D01*
X101981000Y-91741750D01*
X101822250Y-91583000D01*
X101258000Y-91579928D01*
X101133518Y-91592188D01*
X101013820Y-91628498D01*
X100903506Y-91687463D01*
X100806815Y-91766815D01*
X100727463Y-91863506D01*
X100668498Y-91973820D01*
X100632188Y-92093518D01*
X100619928Y-92218000D01*
X87528000Y-92218000D01*
X87528000Y-69596000D01*
X90168324Y-69596000D01*
X90172001Y-69633332D01*
X90172000Y-79718678D01*
X90168324Y-79756000D01*
X90172000Y-79793322D01*
X90172000Y-79793332D01*
X90182997Y-79904985D01*
X90210910Y-79997002D01*
X90226454Y-80048246D01*
X90297026Y-80180276D01*
X90336871Y-80228826D01*
X90391999Y-80296001D01*
X90421002Y-80319803D01*
X91421000Y-81319802D01*
X91421000Y-81381939D01*
X91460774Y-81581898D01*
X91538795Y-81770256D01*
X91652063Y-81939774D01*
X91796226Y-82083937D01*
X91965744Y-82197205D01*
X92154102Y-82275226D01*
X92354061Y-82315000D01*
X92557939Y-82315000D01*
X92757898Y-82275226D01*
X92946256Y-82197205D01*
X92964000Y-82185349D01*
X92981744Y-82197205D01*
X93170102Y-82275226D01*
X93370061Y-82315000D01*
X93432198Y-82315000D01*
X94432205Y-83315008D01*
X94455999Y-83344001D01*
X94484992Y-83367795D01*
X94484996Y-83367799D01*
X94555685Y-83425811D01*
X94571724Y-83438974D01*
X94703753Y-83509546D01*
X94847014Y-83553003D01*
X94958667Y-83564000D01*
X94958676Y-83564000D01*
X94995999Y-83567676D01*
X95033322Y-83564000D01*
X98563644Y-83564000D01*
X98533000Y-83718061D01*
X98533000Y-83921939D01*
X98572774Y-84121898D01*
X98650795Y-84310256D01*
X98764063Y-84479774D01*
X98908226Y-84623937D01*
X99077744Y-84737205D01*
X99266102Y-84815226D01*
X99466061Y-84855000D01*
X99669939Y-84855000D01*
X99869898Y-84815226D01*
X100058256Y-84737205D01*
X100227774Y-84623937D01*
X100371937Y-84479774D01*
X100485205Y-84310256D01*
X100563226Y-84121898D01*
X100573151Y-84072000D01*
X110327088Y-84072000D01*
X110364410Y-84075676D01*
X110401732Y-84072000D01*
X110401743Y-84072000D01*
X110513396Y-84061003D01*
X110656657Y-84017546D01*
X110788686Y-83946974D01*
X110904411Y-83852001D01*
X110928214Y-83822998D01*
X111980004Y-82771208D01*
X112009002Y-82747410D01*
X112103975Y-82631685D01*
X112174547Y-82499656D01*
X112218004Y-82356395D01*
X112229001Y-82244742D01*
X112232678Y-82207409D01*
X112229001Y-82170076D01*
X112229001Y-74187803D01*
X112720201Y-74679003D01*
X112743999Y-74708001D01*
X112772997Y-74731799D01*
X112859723Y-74802974D01*
X112991753Y-74873546D01*
X113135014Y-74917003D01*
X113246667Y-74928000D01*
X113246677Y-74928000D01*
X113284000Y-74931676D01*
X113321323Y-74928000D01*
X126804289Y-74928000D01*
X126848226Y-74971937D01*
X127017744Y-75085205D01*
X127206102Y-75163226D01*
X127406061Y-75203000D01*
X127609939Y-75203000D01*
X127702637Y-75184561D01*
X124399199Y-78488000D01*
X116877322Y-78488000D01*
X116839999Y-78484324D01*
X116802676Y-78488000D01*
X116802667Y-78488000D01*
X116691014Y-78498997D01*
X116547753Y-78542454D01*
X116415724Y-78613026D01*
X116299999Y-78707999D01*
X116276201Y-78736997D01*
X111379903Y-83633296D01*
X111350899Y-83657099D01*
X111300869Y-83718061D01*
X111255926Y-83772824D01*
X111185355Y-83904853D01*
X111185354Y-83904854D01*
X111141897Y-84048115D01*
X111130900Y-84159768D01*
X111130900Y-84159778D01*
X111127224Y-84197100D01*
X111130900Y-84234423D01*
X111130901Y-89002328D01*
X109390900Y-89002328D01*
X109266418Y-89014588D01*
X109146720Y-89050898D01*
X109036406Y-89109863D01*
X108939715Y-89189215D01*
X108860363Y-89285906D01*
X108801398Y-89396220D01*
X108765088Y-89515918D01*
X108752828Y-89640400D01*
X108752828Y-93140400D01*
X108765088Y-93264882D01*
X108801398Y-93384580D01*
X108860363Y-93494894D01*
X108939715Y-93591585D01*
X109036406Y-93670937D01*
X109146720Y-93729902D01*
X109266418Y-93766212D01*
X109390900Y-93778472D01*
X114390900Y-93778472D01*
X114515382Y-93766212D01*
X114635080Y-93729902D01*
X114745394Y-93670937D01*
X114842085Y-93591585D01*
X114921437Y-93494894D01*
X114980402Y-93384580D01*
X115016712Y-93264882D01*
X115028972Y-93140400D01*
X115028972Y-89690400D01*
X141252828Y-89690400D01*
X141252828Y-93190400D01*
X141265088Y-93314882D01*
X141301398Y-93434580D01*
X141360363Y-93544894D01*
X141439715Y-93641585D01*
X141536406Y-93720937D01*
X141646720Y-93779902D01*
X141766418Y-93816212D01*
X141890900Y-93828472D01*
X146890900Y-93828472D01*
X147015382Y-93816212D01*
X147135080Y-93779902D01*
X147245394Y-93720937D01*
X147342085Y-93641585D01*
X147421437Y-93544894D01*
X147480402Y-93434580D01*
X147516712Y-93314882D01*
X147528972Y-93190400D01*
X147528972Y-89690400D01*
X147516712Y-89565918D01*
X147480402Y-89446220D01*
X147421437Y-89335906D01*
X147342085Y-89239215D01*
X147245394Y-89159863D01*
X147135080Y-89100898D01*
X147015382Y-89064588D01*
X146890900Y-89052328D01*
X141890900Y-89052328D01*
X141766418Y-89064588D01*
X141646720Y-89100898D01*
X141536406Y-89159863D01*
X141439715Y-89239215D01*
X141360363Y-89335906D01*
X141301398Y-89446220D01*
X141265088Y-89565918D01*
X141252828Y-89690400D01*
X115028972Y-89690400D01*
X115028972Y-89640400D01*
X115016712Y-89515918D01*
X114980402Y-89396220D01*
X114921437Y-89285906D01*
X114842085Y-89189215D01*
X114745394Y-89109863D01*
X114635080Y-89050898D01*
X114515382Y-89014588D01*
X114390900Y-89002328D01*
X112650900Y-89002328D01*
X112650900Y-84511901D01*
X112715388Y-84447413D01*
X136816192Y-84447413D01*
X136911956Y-84711814D01*
X137201571Y-84852704D01*
X137513108Y-84934384D01*
X137834595Y-84953718D01*
X138153675Y-84909961D01*
X138458088Y-84804795D01*
X138632044Y-84711814D01*
X138727808Y-84447413D01*
X143316192Y-84447413D01*
X143411956Y-84711814D01*
X143701571Y-84852704D01*
X144013108Y-84934384D01*
X144334595Y-84953718D01*
X144653675Y-84909961D01*
X144958088Y-84804795D01*
X145132044Y-84711814D01*
X145227808Y-84447413D01*
X144272000Y-83491605D01*
X143316192Y-84447413D01*
X138727808Y-84447413D01*
X137772000Y-83491605D01*
X136816192Y-84447413D01*
X112715388Y-84447413D01*
X113788206Y-83374595D01*
X136130282Y-83374595D01*
X136174039Y-83693675D01*
X136279205Y-83998088D01*
X136372186Y-84172044D01*
X136636587Y-84267808D01*
X137592395Y-83312000D01*
X137951605Y-83312000D01*
X138907413Y-84267808D01*
X139171814Y-84172044D01*
X139312704Y-83882429D01*
X139394384Y-83570892D01*
X139406189Y-83374595D01*
X142630282Y-83374595D01*
X142674039Y-83693675D01*
X142779205Y-83998088D01*
X142872186Y-84172044D01*
X143136587Y-84267808D01*
X144092395Y-83312000D01*
X144451605Y-83312000D01*
X145407413Y-84267808D01*
X145671814Y-84172044D01*
X145812704Y-83882429D01*
X145894384Y-83570892D01*
X145913718Y-83249405D01*
X145869961Y-82930325D01*
X145764795Y-82625912D01*
X145671814Y-82451956D01*
X145407413Y-82356192D01*
X144451605Y-83312000D01*
X144092395Y-83312000D01*
X143136587Y-82356192D01*
X142872186Y-82451956D01*
X142731296Y-82741571D01*
X142649616Y-83053108D01*
X142630282Y-83374595D01*
X139406189Y-83374595D01*
X139413718Y-83249405D01*
X139369961Y-82930325D01*
X139264795Y-82625912D01*
X139171814Y-82451956D01*
X138907413Y-82356192D01*
X137951605Y-83312000D01*
X137592395Y-83312000D01*
X136636587Y-82356192D01*
X136372186Y-82451956D01*
X136231296Y-82741571D01*
X136149616Y-83053108D01*
X136130282Y-83374595D01*
X113788206Y-83374595D01*
X114986214Y-82176587D01*
X136816192Y-82176587D01*
X137772000Y-83132395D01*
X138727808Y-82176587D01*
X143316192Y-82176587D01*
X144272000Y-83132395D01*
X145227808Y-82176587D01*
X145132044Y-81912186D01*
X144842429Y-81771296D01*
X144530892Y-81689616D01*
X144209405Y-81670282D01*
X143890325Y-81714039D01*
X143585912Y-81819205D01*
X143411956Y-81912186D01*
X143316192Y-82176587D01*
X138727808Y-82176587D01*
X138632044Y-81912186D01*
X138342429Y-81771296D01*
X138030892Y-81689616D01*
X137709405Y-81670282D01*
X137390325Y-81714039D01*
X137085912Y-81819205D01*
X136911956Y-81912186D01*
X136816192Y-82176587D01*
X114986214Y-82176587D01*
X117154802Y-80008000D01*
X124676678Y-80008000D01*
X124714000Y-80011676D01*
X124751322Y-80008000D01*
X124751333Y-80008000D01*
X124862986Y-79997003D01*
X125006247Y-79953546D01*
X125138276Y-79882974D01*
X125254001Y-79788001D01*
X125277804Y-79758997D01*
X126385834Y-78650967D01*
X136137000Y-78650967D01*
X136137000Y-78973033D01*
X136199832Y-79288912D01*
X136323082Y-79586463D01*
X136502013Y-79854252D01*
X136729748Y-80081987D01*
X136997537Y-80260918D01*
X137295088Y-80384168D01*
X137610967Y-80447000D01*
X137933033Y-80447000D01*
X138248912Y-80384168D01*
X138546463Y-80260918D01*
X138814252Y-80081987D01*
X139041987Y-79854252D01*
X139220918Y-79586463D01*
X139344168Y-79288912D01*
X139407000Y-78973033D01*
X139407000Y-78650967D01*
X142637000Y-78650967D01*
X142637000Y-78973033D01*
X142699832Y-79288912D01*
X142823082Y-79586463D01*
X143002013Y-79854252D01*
X143229748Y-80081987D01*
X143497537Y-80260918D01*
X143795088Y-80384168D01*
X144110967Y-80447000D01*
X144433033Y-80447000D01*
X144748912Y-80384168D01*
X145046463Y-80260918D01*
X145314252Y-80081987D01*
X145541987Y-79854252D01*
X145720918Y-79586463D01*
X145844168Y-79288912D01*
X145907000Y-78973033D01*
X145907000Y-78650967D01*
X145844168Y-78335088D01*
X145720918Y-78037537D01*
X145541987Y-77769748D01*
X145314252Y-77542013D01*
X145046463Y-77363082D01*
X144748912Y-77239832D01*
X144433033Y-77177000D01*
X144110967Y-77177000D01*
X143795088Y-77239832D01*
X143497537Y-77363082D01*
X143229748Y-77542013D01*
X143002013Y-77769748D01*
X142823082Y-78037537D01*
X142699832Y-78335088D01*
X142637000Y-78650967D01*
X139407000Y-78650967D01*
X139344168Y-78335088D01*
X139220918Y-78037537D01*
X139041987Y-77769748D01*
X138814252Y-77542013D01*
X138546463Y-77363082D01*
X138248912Y-77239832D01*
X137933033Y-77177000D01*
X137610967Y-77177000D01*
X137295088Y-77239832D01*
X136997537Y-77363082D01*
X136729748Y-77542013D01*
X136502013Y-77769748D01*
X136323082Y-78037537D01*
X136199832Y-78335088D01*
X136137000Y-78650967D01*
X126385834Y-78650967D01*
X129543003Y-75493799D01*
X129572001Y-75470001D01*
X129666974Y-75354276D01*
X129737546Y-75222247D01*
X129781003Y-75078986D01*
X129792000Y-74967333D01*
X129792000Y-74967324D01*
X129795676Y-74930001D01*
X129792000Y-74892678D01*
X129792000Y-70835721D01*
X130499000Y-70835721D01*
X130499000Y-71256279D01*
X130581047Y-71668756D01*
X130741988Y-72057302D01*
X130975637Y-72406983D01*
X131273017Y-72704363D01*
X131622698Y-72938012D01*
X132011244Y-73098953D01*
X132423721Y-73181000D01*
X132844279Y-73181000D01*
X133256756Y-73098953D01*
X133645302Y-72938012D01*
X133994983Y-72704363D01*
X134292363Y-72406983D01*
X134526012Y-72057302D01*
X134686953Y-71668756D01*
X134769000Y-71256279D01*
X134769000Y-70885721D01*
X142549000Y-70885721D01*
X142549000Y-71306279D01*
X142631047Y-71718756D01*
X142791988Y-72107302D01*
X143025637Y-72456983D01*
X143323017Y-72754363D01*
X143672698Y-72988012D01*
X144061244Y-73148953D01*
X144473721Y-73231000D01*
X144894279Y-73231000D01*
X145306756Y-73148953D01*
X145695302Y-72988012D01*
X146044983Y-72754363D01*
X146342363Y-72456983D01*
X146576012Y-72107302D01*
X146736953Y-71718756D01*
X146819000Y-71306279D01*
X146819000Y-70885721D01*
X146736953Y-70473244D01*
X146576012Y-70084698D01*
X146342363Y-69735017D01*
X146044983Y-69437637D01*
X145695302Y-69203988D01*
X145306756Y-69043047D01*
X144894279Y-68961000D01*
X144473721Y-68961000D01*
X144061244Y-69043047D01*
X143672698Y-69203988D01*
X143323017Y-69437637D01*
X143025637Y-69735017D01*
X142791988Y-70084698D01*
X142631047Y-70473244D01*
X142549000Y-70885721D01*
X134769000Y-70885721D01*
X134769000Y-70835721D01*
X134686953Y-70423244D01*
X134526012Y-70034698D01*
X134292363Y-69685017D01*
X133994983Y-69387637D01*
X133645302Y-69153988D01*
X133256756Y-68993047D01*
X132844279Y-68911000D01*
X132423721Y-68911000D01*
X132011244Y-68993047D01*
X131622698Y-69153988D01*
X131273017Y-69387637D01*
X130975637Y-69685017D01*
X130741988Y-70034698D01*
X130581047Y-70423244D01*
X130499000Y-70835721D01*
X129792000Y-70835721D01*
X129792000Y-66862801D01*
X136495196Y-60159605D01*
X143500000Y-60159605D01*
X143625914Y-60449577D01*
X143958126Y-60615433D01*
X144316312Y-60713290D01*
X144686706Y-60739389D01*
X145055075Y-60692725D01*
X145407262Y-60575094D01*
X145642086Y-60449577D01*
X145768000Y-60159605D01*
X144634000Y-59025605D01*
X143500000Y-60159605D01*
X136495196Y-60159605D01*
X137809942Y-58844860D01*
X138061244Y-58948953D01*
X138473721Y-59031000D01*
X138894279Y-59031000D01*
X139306756Y-58948953D01*
X139428063Y-58898706D01*
X142740611Y-58898706D01*
X142787275Y-59267075D01*
X142904906Y-59619262D01*
X143030423Y-59854086D01*
X143320395Y-59980000D01*
X144454395Y-58846000D01*
X144813605Y-58846000D01*
X145947605Y-59980000D01*
X146237577Y-59854086D01*
X146403433Y-59521874D01*
X146501290Y-59163688D01*
X146527389Y-58793294D01*
X146480725Y-58424925D01*
X146363094Y-58072738D01*
X146237577Y-57837914D01*
X145947605Y-57712000D01*
X144813605Y-58846000D01*
X144454395Y-58846000D01*
X143320395Y-57712000D01*
X143030423Y-57837914D01*
X142864567Y-58170126D01*
X142766710Y-58528312D01*
X142740611Y-58898706D01*
X139428063Y-58898706D01*
X139695302Y-58788012D01*
X140044983Y-58554363D01*
X140342363Y-58256983D01*
X140576012Y-57907302D01*
X140731303Y-57532395D01*
X143500000Y-57532395D01*
X144634000Y-58666395D01*
X145768000Y-57532395D01*
X145642086Y-57242423D01*
X145309874Y-57076567D01*
X144951688Y-56978710D01*
X144581294Y-56952611D01*
X144212925Y-56999275D01*
X143860738Y-57116906D01*
X143625914Y-57242423D01*
X143500000Y-57532395D01*
X140731303Y-57532395D01*
X140736953Y-57518756D01*
X140819000Y-57106279D01*
X140819000Y-56685721D01*
X140736953Y-56273244D01*
X140576012Y-55884698D01*
X140342363Y-55535017D01*
X140044983Y-55237637D01*
X139695302Y-55003988D01*
X139306756Y-54843047D01*
X138894279Y-54761000D01*
X138473721Y-54761000D01*
X138061244Y-54843047D01*
X137672698Y-55003988D01*
X137323017Y-55237637D01*
X137025637Y-55535017D01*
X136791988Y-55884698D01*
X136631047Y-56273244D01*
X136549000Y-56685721D01*
X136549000Y-57106279D01*
X136631047Y-57518756D01*
X136735140Y-57770058D01*
X128521003Y-65984196D01*
X128491999Y-66007999D01*
X128450144Y-66059000D01*
X128397026Y-66123724D01*
X128370540Y-66173276D01*
X128326454Y-66255754D01*
X128282997Y-66399015D01*
X128272000Y-66510668D01*
X128272000Y-66510678D01*
X128268324Y-66548000D01*
X128272000Y-66585322D01*
X128272001Y-73468290D01*
X128167774Y-73364063D01*
X127998256Y-73250795D01*
X127809898Y-73172774D01*
X127609939Y-73133000D01*
X127406061Y-73133000D01*
X127206102Y-73172774D01*
X127017744Y-73250795D01*
X126848226Y-73364063D01*
X126804289Y-73408000D01*
X113598802Y-73408000D01*
X112679011Y-72488210D01*
X112679011Y-62382061D01*
X126473000Y-62382061D01*
X126473000Y-62585939D01*
X126512774Y-62785898D01*
X126590795Y-62974256D01*
X126704063Y-63143774D01*
X126806289Y-63246000D01*
X126704063Y-63348226D01*
X126590795Y-63517744D01*
X126512774Y-63706102D01*
X126473000Y-63906061D01*
X126473000Y-64109939D01*
X126512774Y-64309898D01*
X126590795Y-64498256D01*
X126704063Y-64667774D01*
X126848226Y-64811937D01*
X127017744Y-64925205D01*
X127206102Y-65003226D01*
X127406061Y-65043000D01*
X127609939Y-65043000D01*
X127809898Y-65003226D01*
X127998256Y-64925205D01*
X128167774Y-64811937D01*
X128311937Y-64667774D01*
X128425205Y-64498256D01*
X128503226Y-64309898D01*
X128543000Y-64109939D01*
X128543000Y-64047802D01*
X129543009Y-63047794D01*
X129572001Y-63024001D01*
X129595795Y-62995008D01*
X129595799Y-62995004D01*
X129666973Y-62908277D01*
X129666974Y-62908276D01*
X129737546Y-62776247D01*
X129781003Y-62632986D01*
X129792000Y-62521333D01*
X129792000Y-62521324D01*
X129795676Y-62484001D01*
X129792000Y-62446678D01*
X129792000Y-58660344D01*
X130749000Y-58660344D01*
X130749000Y-59031656D01*
X130821439Y-59395834D01*
X130963534Y-59738882D01*
X131169825Y-60047618D01*
X131432382Y-60310175D01*
X131741118Y-60516466D01*
X132084166Y-60658561D01*
X132448344Y-60731000D01*
X132819656Y-60731000D01*
X133183834Y-60658561D01*
X133526882Y-60516466D01*
X133835618Y-60310175D01*
X134098175Y-60047618D01*
X134304466Y-59738882D01*
X134446561Y-59395834D01*
X134519000Y-59031656D01*
X134519000Y-58660344D01*
X134446561Y-58296166D01*
X134304466Y-57953118D01*
X134098175Y-57644382D01*
X133835618Y-57381825D01*
X133526882Y-57175534D01*
X133183834Y-57033439D01*
X132819656Y-56961000D01*
X132448344Y-56961000D01*
X132084166Y-57033439D01*
X131741118Y-57175534D01*
X131432382Y-57381825D01*
X131169825Y-57644382D01*
X130963534Y-57953118D01*
X130821439Y-58296166D01*
X130749000Y-58660344D01*
X129792000Y-58660344D01*
X129792000Y-51952020D01*
X131779068Y-51952020D01*
X131816390Y-51955696D01*
X131853712Y-51952020D01*
X131853723Y-51952020D01*
X131965376Y-51941023D01*
X132108637Y-51897566D01*
X132240666Y-51826994D01*
X132356391Y-51732021D01*
X132380194Y-51703017D01*
X133525811Y-50557400D01*
X138432090Y-50557400D01*
X138462762Y-50658528D01*
X138570527Y-50891629D01*
X138721697Y-51099227D01*
X138910463Y-51273344D01*
X139129570Y-51407289D01*
X139370599Y-51495915D01*
X139573000Y-51373085D01*
X139573000Y-50355000D01*
X139827000Y-50355000D01*
X139827000Y-51373085D01*
X140029401Y-51495915D01*
X140270430Y-51407289D01*
X140489537Y-51273344D01*
X140678303Y-51099227D01*
X140829473Y-50891629D01*
X140937238Y-50658528D01*
X140967910Y-50557400D01*
X140844224Y-50355000D01*
X139827000Y-50355000D01*
X139573000Y-50355000D01*
X138555776Y-50355000D01*
X138432090Y-50557400D01*
X133525811Y-50557400D01*
X135095212Y-48988000D01*
X138632291Y-48988000D01*
X138682456Y-49063077D01*
X138854060Y-49234681D01*
X138721697Y-49356773D01*
X138570527Y-49564371D01*
X138462762Y-49797472D01*
X138432090Y-49898600D01*
X138555776Y-50101000D01*
X139573000Y-50101000D01*
X139573000Y-50081000D01*
X139827000Y-50081000D01*
X139827000Y-50101000D01*
X140844224Y-50101000D01*
X140967910Y-49898600D01*
X140937238Y-49797472D01*
X140829473Y-49564371D01*
X140678303Y-49356773D01*
X140545940Y-49234681D01*
X140717544Y-49063077D01*
X140860907Y-48848518D01*
X140959658Y-48610113D01*
X141010000Y-48357024D01*
X141010000Y-48098976D01*
X140959658Y-47845887D01*
X140860907Y-47607482D01*
X140739303Y-47425487D01*
X140826185Y-47354185D01*
X140905537Y-47257494D01*
X140964502Y-47147180D01*
X141000812Y-47027482D01*
X141013072Y-46903000D01*
X141013072Y-45553000D01*
X141000812Y-45428518D01*
X140964502Y-45308820D01*
X140905537Y-45198506D01*
X140826185Y-45101815D01*
X140729494Y-45022463D01*
X140619180Y-44963498D01*
X140499482Y-44927188D01*
X140375000Y-44914928D01*
X139025000Y-44914928D01*
X138900518Y-44927188D01*
X138780820Y-44963498D01*
X138670506Y-45022463D01*
X138573815Y-45101815D01*
X138494463Y-45198506D01*
X138435498Y-45308820D01*
X138399188Y-45428518D01*
X138395299Y-45468000D01*
X136181322Y-45468000D01*
X136143999Y-45464324D01*
X136106676Y-45468000D01*
X136106667Y-45468000D01*
X135995014Y-45478997D01*
X135851753Y-45522454D01*
X135719724Y-45593026D01*
X135603999Y-45687999D01*
X135580201Y-45716997D01*
X133894717Y-47402481D01*
X133875232Y-47371000D01*
X132675000Y-47371000D01*
X132675000Y-47391000D01*
X132421000Y-47391000D01*
X132421000Y-47371000D01*
X132401000Y-47371000D01*
X132401000Y-47117000D01*
X132421000Y-47117000D01*
X132421000Y-45773845D01*
X132675000Y-45773845D01*
X132675000Y-47117000D01*
X133875232Y-47117000D01*
X134019285Y-46884258D01*
X133950096Y-46601255D01*
X133827025Y-46337188D01*
X133654802Y-46102205D01*
X133440046Y-45905336D01*
X133191009Y-45754146D01*
X132917261Y-45654446D01*
X132904890Y-45652524D01*
X132675000Y-45773845D01*
X132421000Y-45773845D01*
X132191110Y-45652524D01*
X132178739Y-45654446D01*
X131904991Y-45754146D01*
X131655954Y-45905336D01*
X131441198Y-46102205D01*
X131440914Y-46102593D01*
X131386405Y-46000614D01*
X131275962Y-45866038D01*
X131141386Y-45755595D01*
X130987850Y-45673528D01*
X130821254Y-45622992D01*
X130648000Y-45605928D01*
X129448000Y-45605928D01*
X129274746Y-45622992D01*
X129108150Y-45673528D01*
X128954614Y-45755595D01*
X128820038Y-45866038D01*
X128709595Y-46000614D01*
X128627528Y-46154150D01*
X128576992Y-46320746D01*
X128559928Y-46494000D01*
X128559928Y-47994000D01*
X128576992Y-48167254D01*
X128627528Y-48333850D01*
X128709595Y-48487386D01*
X128820038Y-48621962D01*
X128954614Y-48732405D01*
X129108150Y-48814472D01*
X129274746Y-48865008D01*
X129448000Y-48882072D01*
X130648000Y-48882072D01*
X130821254Y-48865008D01*
X130987850Y-48814472D01*
X131141386Y-48732405D01*
X131275962Y-48621962D01*
X131386405Y-48487386D01*
X131440914Y-48385407D01*
X131441198Y-48385795D01*
X131655954Y-48582664D01*
X131904991Y-48733854D01*
X132178739Y-48833554D01*
X132191110Y-48835476D01*
X132420998Y-48714156D01*
X132420998Y-48876201D01*
X131315189Y-49982010D01*
X129255723Y-49982010D01*
X129218400Y-49978334D01*
X129181077Y-49982010D01*
X129181067Y-49982010D01*
X129069414Y-49993007D01*
X128926153Y-50036464D01*
X128794123Y-50107036D01*
X128710483Y-50175678D01*
X128678399Y-50202009D01*
X128654601Y-50231008D01*
X128012998Y-50872611D01*
X127984000Y-50896409D01*
X127960202Y-50925407D01*
X127960201Y-50925408D01*
X127889026Y-51012134D01*
X127818454Y-51144164D01*
X127774998Y-51287425D01*
X127760324Y-51436410D01*
X127764001Y-51473742D01*
X127764000Y-61153198D01*
X127468199Y-61449000D01*
X127406061Y-61449000D01*
X127206102Y-61488774D01*
X127017744Y-61566795D01*
X126848226Y-61680063D01*
X126704063Y-61824226D01*
X126590795Y-61993744D01*
X126512774Y-62182102D01*
X126473000Y-62382061D01*
X112679011Y-62382061D01*
X112679011Y-61156334D01*
X112682687Y-61119011D01*
X112679011Y-61081688D01*
X112679011Y-61081678D01*
X112668014Y-60970025D01*
X112624557Y-60826764D01*
X112590182Y-60762454D01*
X112553985Y-60694734D01*
X112482810Y-60608008D01*
X112459012Y-60579010D01*
X112430014Y-60555212D01*
X107948000Y-56073199D01*
X107948000Y-48416341D01*
X108078535Y-48329120D01*
X108198090Y-48209565D01*
X108942040Y-48209565D01*
X109009020Y-48449656D01*
X109258048Y-48566756D01*
X109525135Y-48633023D01*
X109800017Y-48645910D01*
X110072133Y-48604922D01*
X110331023Y-48511636D01*
X110446980Y-48449656D01*
X110513960Y-48209565D01*
X109728000Y-47423605D01*
X108942040Y-48209565D01*
X108198090Y-48209565D01*
X108273120Y-48134535D01*
X108426005Y-47905727D01*
X108455692Y-47834057D01*
X108460364Y-47847023D01*
X108522344Y-47962980D01*
X108762435Y-48029960D01*
X109548395Y-47244000D01*
X109907605Y-47244000D01*
X110693565Y-48029960D01*
X110933656Y-47962980D01*
X110997485Y-47827240D01*
X111029995Y-47905727D01*
X111182880Y-48134535D01*
X111377465Y-48329120D01*
X111606273Y-48482005D01*
X111860510Y-48587314D01*
X112130408Y-48641000D01*
X112405592Y-48641000D01*
X112675490Y-48587314D01*
X112929727Y-48482005D01*
X113158535Y-48329120D01*
X113353120Y-48134535D01*
X113506005Y-47905727D01*
X113538000Y-47828485D01*
X113569995Y-47905727D01*
X113722880Y-48134535D01*
X113917465Y-48329120D01*
X114146273Y-48482005D01*
X114400510Y-48587314D01*
X114670408Y-48641000D01*
X114945592Y-48641000D01*
X115215490Y-48587314D01*
X115469727Y-48482005D01*
X115698535Y-48329120D01*
X115893120Y-48134535D01*
X116046005Y-47905727D01*
X116078000Y-47828485D01*
X116109995Y-47905727D01*
X116262880Y-48134535D01*
X116457465Y-48329120D01*
X116686273Y-48482005D01*
X116940510Y-48587314D01*
X117210408Y-48641000D01*
X117485592Y-48641000D01*
X117755490Y-48587314D01*
X118009727Y-48482005D01*
X118238535Y-48329120D01*
X118433120Y-48134535D01*
X118586005Y-47905727D01*
X118618000Y-47828485D01*
X118649995Y-47905727D01*
X118802880Y-48134535D01*
X118997465Y-48329120D01*
X119226273Y-48482005D01*
X119480510Y-48587314D01*
X119750408Y-48641000D01*
X120025592Y-48641000D01*
X120295490Y-48587314D01*
X120549727Y-48482005D01*
X120778535Y-48329120D01*
X120973120Y-48134535D01*
X121126005Y-47905727D01*
X121158000Y-47828485D01*
X121189995Y-47905727D01*
X121342880Y-48134535D01*
X121537465Y-48329120D01*
X121766273Y-48482005D01*
X122020510Y-48587314D01*
X122290408Y-48641000D01*
X122565592Y-48641000D01*
X122835490Y-48587314D01*
X123089727Y-48482005D01*
X123318535Y-48329120D01*
X123513120Y-48134535D01*
X123666005Y-47905727D01*
X123771314Y-47651490D01*
X123825000Y-47381592D01*
X123825000Y-47106408D01*
X123771314Y-46836510D01*
X123666005Y-46582273D01*
X123513120Y-46353465D01*
X123318535Y-46158880D01*
X123089727Y-46005995D01*
X122835490Y-45900686D01*
X122565592Y-45847000D01*
X122290408Y-45847000D01*
X122020510Y-45900686D01*
X121766273Y-46005995D01*
X121537465Y-46158880D01*
X121342880Y-46353465D01*
X121189995Y-46582273D01*
X121158000Y-46659515D01*
X121126005Y-46582273D01*
X120973120Y-46353465D01*
X120778535Y-46158880D01*
X120549727Y-46005995D01*
X120295490Y-45900686D01*
X120025592Y-45847000D01*
X119750408Y-45847000D01*
X119480510Y-45900686D01*
X119226273Y-46005995D01*
X118997465Y-46158880D01*
X118802880Y-46353465D01*
X118649995Y-46582273D01*
X118618000Y-46659515D01*
X118586005Y-46582273D01*
X118433120Y-46353465D01*
X118238535Y-46158880D01*
X118009727Y-46005995D01*
X117755490Y-45900686D01*
X117485592Y-45847000D01*
X117210408Y-45847000D01*
X116940510Y-45900686D01*
X116686273Y-46005995D01*
X116457465Y-46158880D01*
X116262880Y-46353465D01*
X116109995Y-46582273D01*
X116078000Y-46659515D01*
X116046005Y-46582273D01*
X115893120Y-46353465D01*
X115698535Y-46158880D01*
X115469727Y-46005995D01*
X115215490Y-45900686D01*
X114945592Y-45847000D01*
X114670408Y-45847000D01*
X114400510Y-45900686D01*
X114146273Y-46005995D01*
X113917465Y-46158880D01*
X113722880Y-46353465D01*
X113569995Y-46582273D01*
X113538000Y-46659515D01*
X113506005Y-46582273D01*
X113353120Y-46353465D01*
X113158535Y-46158880D01*
X112929727Y-46005995D01*
X112675490Y-45900686D01*
X112405592Y-45847000D01*
X112130408Y-45847000D01*
X111860510Y-45900686D01*
X111606273Y-46005995D01*
X111377465Y-46158880D01*
X111182880Y-46353465D01*
X111029995Y-46582273D01*
X111000308Y-46653943D01*
X110995636Y-46640977D01*
X110933656Y-46525020D01*
X110693565Y-46458040D01*
X109907605Y-47244000D01*
X109548395Y-47244000D01*
X108762435Y-46458040D01*
X108522344Y-46525020D01*
X108458515Y-46660760D01*
X108426005Y-46582273D01*
X108273120Y-46353465D01*
X108198090Y-46278435D01*
X108942040Y-46278435D01*
X109728000Y-47064395D01*
X110513960Y-46278435D01*
X110446980Y-46038344D01*
X110197952Y-45921244D01*
X109930865Y-45854977D01*
X109655983Y-45842090D01*
X109383867Y-45883078D01*
X109124977Y-45976364D01*
X109009020Y-46038344D01*
X108942040Y-46278435D01*
X108198090Y-46278435D01*
X108078535Y-46158880D01*
X107849727Y-46005995D01*
X107595490Y-45900686D01*
X107325592Y-45847000D01*
X107050408Y-45847000D01*
X106780510Y-45900686D01*
X106526273Y-46005995D01*
X106297465Y-46158880D01*
X106102880Y-46353465D01*
X105949995Y-46582273D01*
X105918000Y-46659515D01*
X105886005Y-46582273D01*
X105733120Y-46353465D01*
X105538535Y-46158880D01*
X105309727Y-46005995D01*
X105055490Y-45900686D01*
X104785592Y-45847000D01*
X104510408Y-45847000D01*
X104240510Y-45900686D01*
X103986273Y-46005995D01*
X103757465Y-46158880D01*
X103562880Y-46353465D01*
X103409995Y-46582273D01*
X103304686Y-46836510D01*
X103251000Y-47106408D01*
X103251000Y-47381592D01*
X103304686Y-47651490D01*
X103409995Y-47905727D01*
X103562880Y-48134535D01*
X103757465Y-48329120D01*
X103986273Y-48482005D01*
X104240510Y-48587314D01*
X104510408Y-48641000D01*
X104785592Y-48641000D01*
X105055490Y-48587314D01*
X105309727Y-48482005D01*
X105538535Y-48329120D01*
X105733120Y-48134535D01*
X105886005Y-47905727D01*
X105918000Y-47828485D01*
X105949995Y-47905727D01*
X106102880Y-48134535D01*
X106297465Y-48329120D01*
X106428001Y-48416341D01*
X106428000Y-55350198D01*
X98497294Y-47419493D01*
X98511134Y-47408134D01*
X98696706Y-47182014D01*
X98710462Y-47156278D01*
X98866951Y-47362429D01*
X99084807Y-47555496D01*
X99336142Y-47702352D01*
X99599110Y-47794476D01*
X99829000Y-47673155D01*
X99829000Y-46355000D01*
X100083000Y-46355000D01*
X100083000Y-47673155D01*
X100312890Y-47794476D01*
X100575858Y-47702352D01*
X100827193Y-47555496D01*
X101045049Y-47362429D01*
X101221053Y-47130570D01*
X101348442Y-46868830D01*
X101422320Y-46587267D01*
X101282165Y-46355000D01*
X100083000Y-46355000D01*
X99829000Y-46355000D01*
X99809000Y-46355000D01*
X99809000Y-46101000D01*
X99829000Y-46101000D01*
X99829000Y-44782845D01*
X100083000Y-44782845D01*
X100083000Y-46101000D01*
X101282165Y-46101000D01*
X101422320Y-45868733D01*
X101348442Y-45587170D01*
X101221053Y-45325430D01*
X101045049Y-45093571D01*
X100827193Y-44900504D01*
X100575858Y-44753648D01*
X100312890Y-44661524D01*
X100083000Y-44782845D01*
X99829000Y-44782845D01*
X99599110Y-44661524D01*
X99336142Y-44753648D01*
X99084807Y-44900504D01*
X98866951Y-45093571D01*
X98710462Y-45299722D01*
X98696706Y-45273986D01*
X98511134Y-45047866D01*
X98285013Y-44862294D01*
X98027033Y-44724401D01*
X97747110Y-44639487D01*
X97456000Y-44610815D01*
X97164889Y-44639487D01*
X96884966Y-44724401D01*
X96626986Y-44862294D01*
X96400866Y-45047866D01*
X96215294Y-45273987D01*
X96206000Y-45291374D01*
X96196706Y-45273986D01*
X96011134Y-45047866D01*
X95785013Y-44862294D01*
X95527033Y-44724401D01*
X95247110Y-44639487D01*
X94956000Y-44610815D01*
X94664889Y-44639487D01*
X94384966Y-44724401D01*
X94126986Y-44862294D01*
X93900866Y-45047866D01*
X93848777Y-45111337D01*
X93794405Y-45009614D01*
X93683962Y-44875038D01*
X93549386Y-44764595D01*
X93395850Y-44682528D01*
X93229254Y-44631992D01*
X93056000Y-44614928D01*
X91856000Y-44614928D01*
X91682746Y-44631992D01*
X91516150Y-44682528D01*
X91362614Y-44764595D01*
X91228038Y-44875038D01*
X91117595Y-45009614D01*
X91035528Y-45163150D01*
X90984992Y-45329746D01*
X90967928Y-45503000D01*
X90967928Y-46953000D01*
X90984992Y-47126254D01*
X91035528Y-47292850D01*
X91117595Y-47446386D01*
X91228038Y-47580962D01*
X91362614Y-47691405D01*
X91516150Y-47773472D01*
X91682746Y-47824008D01*
X91856000Y-47841072D01*
X92019271Y-47841072D01*
X98808000Y-54629802D01*
X98808001Y-65831459D01*
X98700986Y-65798997D01*
X98589333Y-65788000D01*
X98589322Y-65788000D01*
X98552000Y-65784324D01*
X98514678Y-65788000D01*
X97387910Y-65788000D01*
X97350587Y-65784324D01*
X97313264Y-65788000D01*
X97313255Y-65788000D01*
X97201602Y-65798997D01*
X97058341Y-65842454D01*
X96926312Y-65913026D01*
X96810587Y-66007999D01*
X96786789Y-66036997D01*
X93661795Y-69161992D01*
X93076806Y-68577002D01*
X93053003Y-68547999D01*
X92937278Y-68453026D01*
X92805249Y-68382454D01*
X92661988Y-68338997D01*
X92550335Y-68328000D01*
X92550324Y-68328000D01*
X92513002Y-68324324D01*
X92475680Y-68328000D01*
X91477322Y-68328000D01*
X91439999Y-68324324D01*
X91402676Y-68328000D01*
X91402667Y-68328000D01*
X91291014Y-68338997D01*
X91147753Y-68382454D01*
X91015724Y-68453026D01*
X90899999Y-68547999D01*
X90876200Y-68576998D01*
X90420998Y-69032201D01*
X90392000Y-69055999D01*
X90368202Y-69084997D01*
X90368201Y-69084998D01*
X90297026Y-69171724D01*
X90226454Y-69303754D01*
X90197728Y-69398454D01*
X90182998Y-69447014D01*
X90177384Y-69504016D01*
X90168324Y-69596000D01*
X87528000Y-69596000D01*
X87528000Y-41843000D01*
X145915486Y-41843000D01*
X145619768Y-41965491D01*
G37*
X145619768Y-41965491D02*
X145207525Y-42240942D01*
X144856942Y-42591525D01*
X144581491Y-43003768D01*
X144391756Y-43461827D01*
X144295031Y-43948100D01*
X144295031Y-44443900D01*
X144391756Y-44930173D01*
X144581491Y-45388232D01*
X144856942Y-45800475D01*
X145207525Y-46151058D01*
X145619768Y-46426509D01*
X146077827Y-46616244D01*
X146564100Y-46712969D01*
X147059900Y-46712969D01*
X147546173Y-46616244D01*
X148004232Y-46426509D01*
X148416475Y-46151058D01*
X148767058Y-45800475D01*
X149042509Y-45388232D01*
X149232244Y-44930173D01*
X149328969Y-44443900D01*
X149328969Y-43948100D01*
X149232244Y-43461827D01*
X149042509Y-43003768D01*
X148767058Y-42591525D01*
X148416475Y-42240942D01*
X148004232Y-41965491D01*
X147708514Y-41843000D01*
X149708000Y-41843000D01*
X149708001Y-105223000D01*
X91559050Y-105223000D01*
X91774475Y-105079058D01*
X92125058Y-104728475D01*
X92400509Y-104316232D01*
X92590244Y-103858173D01*
X92686969Y-103371900D01*
X92686969Y-102876100D01*
X92590244Y-102389827D01*
X92400509Y-101931768D01*
X92125058Y-101519525D01*
X91774475Y-101168942D01*
X91362232Y-100893491D01*
X90904173Y-100703756D01*
X90417900Y-100607031D01*
X89922100Y-100607031D01*
X89435827Y-100703756D01*
X88977768Y-100893491D01*
X88565525Y-101168942D01*
X88214942Y-101519525D01*
X87939491Y-101931768D01*
X87749756Y-102389827D01*
X87653031Y-102876100D01*
X87653031Y-103371900D01*
X87749756Y-103858173D01*
X87939491Y-104316232D01*
X88214942Y-104728475D01*
X88565525Y-105079058D01*
X88780950Y-105223000D01*
X87528000Y-105223000D01*
X87528000Y-99640400D01*
X108752828Y-99640400D01*
X108765088Y-99764882D01*
X108801398Y-99884580D01*
X108860363Y-99994894D01*
X108939715Y-100091585D01*
X109036406Y-100170937D01*
X109146720Y-100229902D01*
X109266418Y-100266212D01*
X109390900Y-100278472D01*
X111605150Y-100275400D01*
X111763900Y-100116650D01*
X111763900Y-98017400D01*
X112017900Y-98017400D01*
X112017900Y-100116650D01*
X112176650Y-100275400D01*
X114390900Y-100278472D01*
X114515382Y-100266212D01*
X114635080Y-100229902D01*
X114745394Y-100170937D01*
X114842085Y-100091585D01*
X114921437Y-99994894D01*
X114980402Y-99884580D01*
X115016712Y-99764882D01*
X115028972Y-99640400D01*
X141252828Y-99640400D01*
X141265088Y-99764882D01*
X141301398Y-99884580D01*
X141360363Y-99994894D01*
X141439715Y-100091585D01*
X141536406Y-100170937D01*
X141646720Y-100229902D01*
X141766418Y-100266212D01*
X141890900Y-100278472D01*
X144105150Y-100275400D01*
X144263900Y-100116650D01*
X144263900Y-98017400D01*
X144517900Y-98017400D01*
X144517900Y-100116650D01*
X144676650Y-100275400D01*
X146890900Y-100278472D01*
X147015382Y-100266212D01*
X147135080Y-100229902D01*
X147245394Y-100170937D01*
X147342085Y-100091585D01*
X147421437Y-99994894D01*
X147480402Y-99884580D01*
X147516712Y-99764882D01*
X147528972Y-99640400D01*
X147525900Y-98176150D01*
X147367150Y-98017400D01*
X144517900Y-98017400D01*
X144263900Y-98017400D01*
X141414650Y-98017400D01*
X141255900Y-98176150D01*
X141252828Y-99640400D01*
X115028972Y-99640400D01*
X115025900Y-98176150D01*
X114867150Y-98017400D01*
X112017900Y-98017400D01*
X111763900Y-98017400D01*
X108914650Y-98017400D01*
X108755900Y-98176150D01*
X108752828Y-99640400D01*
X87528000Y-99640400D01*
X87528000Y-96140400D01*
X108752828Y-96140400D01*
X108755900Y-97604650D01*
X108914650Y-97763400D01*
X111763900Y-97763400D01*
X111763900Y-95664150D01*
X112017900Y-95664150D01*
X112017900Y-97763400D01*
X114867150Y-97763400D01*
X115025900Y-97604650D01*
X115028972Y-96140400D01*
X141252828Y-96140400D01*
X141255900Y-97604650D01*
X141414650Y-97763400D01*
X144263900Y-97763400D01*
X144263900Y-95664150D01*
X144517900Y-95664150D01*
X144517900Y-97763400D01*
X147367150Y-97763400D01*
X147525900Y-97604650D01*
X147528972Y-96140400D01*
X147516712Y-96015918D01*
X147480402Y-95896220D01*
X147421437Y-95785906D01*
X147342085Y-95689215D01*
X147245394Y-95609863D01*
X147135080Y-95550898D01*
X147015382Y-95514588D01*
X146890900Y-95502328D01*
X144676650Y-95505400D01*
X144517900Y-95664150D01*
X144263900Y-95664150D01*
X144105150Y-95505400D01*
X141890900Y-95502328D01*
X141766418Y-95514588D01*
X141646720Y-95550898D01*
X141536406Y-95609863D01*
X141439715Y-95689215D01*
X141360363Y-95785906D01*
X141301398Y-95896220D01*
X141265088Y-96015918D01*
X141252828Y-96140400D01*
X115028972Y-96140400D01*
X115016712Y-96015918D01*
X114980402Y-95896220D01*
X114921437Y-95785906D01*
X114842085Y-95689215D01*
X114745394Y-95609863D01*
X114635080Y-95550898D01*
X114515382Y-95514588D01*
X114390900Y-95502328D01*
X112176650Y-95505400D01*
X112017900Y-95664150D01*
X111763900Y-95664150D01*
X111605150Y-95505400D01*
X109390900Y-95502328D01*
X109266418Y-95514588D01*
X109146720Y-95550898D01*
X109036406Y-95609863D01*
X108939715Y-95689215D01*
X108860363Y-95785906D01*
X108801398Y-95896220D01*
X108765088Y-96015918D01*
X108752828Y-96140400D01*
X87528000Y-96140400D01*
X87528000Y-94218000D01*
X100619928Y-94218000D01*
X100632188Y-94342482D01*
X100668498Y-94462180D01*
X100727463Y-94572494D01*
X100806815Y-94669185D01*
X100903506Y-94748537D01*
X101013820Y-94807502D01*
X101133518Y-94843812D01*
X101258000Y-94856072D01*
X101822250Y-94853000D01*
X101981000Y-94694250D01*
X101981000Y-93345000D01*
X100781750Y-93345000D01*
X100623000Y-93503750D01*
X100619928Y-94218000D01*
X87528000Y-94218000D01*
X87528000Y-92218000D01*
X100619928Y-92218000D01*
X100623000Y-92932250D01*
X100781750Y-93091000D01*
X101981000Y-93091000D01*
X101981000Y-91741750D01*
X102235000Y-91741750D01*
X102235000Y-93091000D01*
X102255000Y-93091000D01*
X102255000Y-93345000D01*
X102235000Y-93345000D01*
X102235000Y-94694250D01*
X102393750Y-94853000D01*
X102958000Y-94856072D01*
X103082482Y-94843812D01*
X103202180Y-94807502D01*
X103312494Y-94748537D01*
X103409185Y-94669185D01*
X103488537Y-94572494D01*
X103547502Y-94462180D01*
X103558055Y-94427392D01*
X103778987Y-94608706D01*
X104036967Y-94746599D01*
X104316890Y-94831513D01*
X104608000Y-94860185D01*
X104899111Y-94831513D01*
X105179034Y-94746599D01*
X105437014Y-94608706D01*
X105663134Y-94423134D01*
X105848706Y-94197014D01*
X105986599Y-93939033D01*
X106071513Y-93659110D01*
X106093000Y-93440949D01*
X106093000Y-92995050D01*
X106071513Y-92776889D01*
X105986599Y-92496966D01*
X105848706Y-92238986D01*
X105663134Y-92012866D01*
X105437013Y-91827294D01*
X105179033Y-91689401D01*
X104899110Y-91604487D01*
X104608000Y-91575815D01*
X104316889Y-91604487D01*
X104036966Y-91689401D01*
X103778986Y-91827294D01*
X103558055Y-92008608D01*
X103547502Y-91973820D01*
X103488537Y-91863506D01*
X103409185Y-91766815D01*
X103312494Y-91687463D01*
X103202180Y-91628498D01*
X103082482Y-91592188D01*
X102958000Y-91579928D01*
X102393750Y-91583000D01*
X102235000Y-91741750D01*
X101981000Y-91741750D01*
X101822250Y-91583000D01*
X101258000Y-91579928D01*
X101133518Y-91592188D01*
X101013820Y-91628498D01*
X100903506Y-91687463D01*
X100806815Y-91766815D01*
X100727463Y-91863506D01*
X100668498Y-91973820D01*
X100632188Y-92093518D01*
X100619928Y-92218000D01*
X87528000Y-92218000D01*
X87528000Y-69596000D01*
X90168324Y-69596000D01*
X90172001Y-69633332D01*
X90172000Y-79718678D01*
X90168324Y-79756000D01*
X90172000Y-79793322D01*
X90172000Y-79793332D01*
X90182997Y-79904985D01*
X90210910Y-79997002D01*
X90226454Y-80048246D01*
X90297026Y-80180276D01*
X90336871Y-80228826D01*
X90391999Y-80296001D01*
X90421002Y-80319803D01*
X91421000Y-81319802D01*
X91421000Y-81381939D01*
X91460774Y-81581898D01*
X91538795Y-81770256D01*
X91652063Y-81939774D01*
X91796226Y-82083937D01*
X91965744Y-82197205D01*
X92154102Y-82275226D01*
X92354061Y-82315000D01*
X92557939Y-82315000D01*
X92757898Y-82275226D01*
X92946256Y-82197205D01*
X92964000Y-82185349D01*
X92981744Y-82197205D01*
X93170102Y-82275226D01*
X93370061Y-82315000D01*
X93432198Y-82315000D01*
X94432205Y-83315008D01*
X94455999Y-83344001D01*
X94484992Y-83367795D01*
X94484996Y-83367799D01*
X94555685Y-83425811D01*
X94571724Y-83438974D01*
X94703753Y-83509546D01*
X94847014Y-83553003D01*
X94958667Y-83564000D01*
X94958676Y-83564000D01*
X94995999Y-83567676D01*
X95033322Y-83564000D01*
X98563644Y-83564000D01*
X98533000Y-83718061D01*
X98533000Y-83921939D01*
X98572774Y-84121898D01*
X98650795Y-84310256D01*
X98764063Y-84479774D01*
X98908226Y-84623937D01*
X99077744Y-84737205D01*
X99266102Y-84815226D01*
X99466061Y-84855000D01*
X99669939Y-84855000D01*
X99869898Y-84815226D01*
X100058256Y-84737205D01*
X100227774Y-84623937D01*
X100371937Y-84479774D01*
X100485205Y-84310256D01*
X100563226Y-84121898D01*
X100573151Y-84072000D01*
X110327088Y-84072000D01*
X110364410Y-84075676D01*
X110401732Y-84072000D01*
X110401743Y-84072000D01*
X110513396Y-84061003D01*
X110656657Y-84017546D01*
X110788686Y-83946974D01*
X110904411Y-83852001D01*
X110928214Y-83822998D01*
X111980004Y-82771208D01*
X112009002Y-82747410D01*
X112103975Y-82631685D01*
X112174547Y-82499656D01*
X112218004Y-82356395D01*
X112229001Y-82244742D01*
X112232678Y-82207409D01*
X112229001Y-82170076D01*
X112229001Y-74187803D01*
X112720201Y-74679003D01*
X112743999Y-74708001D01*
X112772997Y-74731799D01*
X112859723Y-74802974D01*
X112991753Y-74873546D01*
X113135014Y-74917003D01*
X113246667Y-74928000D01*
X113246677Y-74928000D01*
X113284000Y-74931676D01*
X113321323Y-74928000D01*
X126804289Y-74928000D01*
X126848226Y-74971937D01*
X127017744Y-75085205D01*
X127206102Y-75163226D01*
X127406061Y-75203000D01*
X127609939Y-75203000D01*
X127702637Y-75184561D01*
X124399199Y-78488000D01*
X116877322Y-78488000D01*
X116839999Y-78484324D01*
X116802676Y-78488000D01*
X116802667Y-78488000D01*
X116691014Y-78498997D01*
X116547753Y-78542454D01*
X116415724Y-78613026D01*
X116299999Y-78707999D01*
X116276201Y-78736997D01*
X111379903Y-83633296D01*
X111350899Y-83657099D01*
X111300869Y-83718061D01*
X111255926Y-83772824D01*
X111185355Y-83904853D01*
X111185354Y-83904854D01*
X111141897Y-84048115D01*
X111130900Y-84159768D01*
X111130900Y-84159778D01*
X111127224Y-84197100D01*
X111130900Y-84234423D01*
X111130901Y-89002328D01*
X109390900Y-89002328D01*
X109266418Y-89014588D01*
X109146720Y-89050898D01*
X109036406Y-89109863D01*
X108939715Y-89189215D01*
X108860363Y-89285906D01*
X108801398Y-89396220D01*
X108765088Y-89515918D01*
X108752828Y-89640400D01*
X108752828Y-93140400D01*
X108765088Y-93264882D01*
X108801398Y-93384580D01*
X108860363Y-93494894D01*
X108939715Y-93591585D01*
X109036406Y-93670937D01*
X109146720Y-93729902D01*
X109266418Y-93766212D01*
X109390900Y-93778472D01*
X114390900Y-93778472D01*
X114515382Y-93766212D01*
X114635080Y-93729902D01*
X114745394Y-93670937D01*
X114842085Y-93591585D01*
X114921437Y-93494894D01*
X114980402Y-93384580D01*
X115016712Y-93264882D01*
X115028972Y-93140400D01*
X115028972Y-89690400D01*
X141252828Y-89690400D01*
X141252828Y-93190400D01*
X141265088Y-93314882D01*
X141301398Y-93434580D01*
X141360363Y-93544894D01*
X141439715Y-93641585D01*
X141536406Y-93720937D01*
X141646720Y-93779902D01*
X141766418Y-93816212D01*
X141890900Y-93828472D01*
X146890900Y-93828472D01*
X147015382Y-93816212D01*
X147135080Y-93779902D01*
X147245394Y-93720937D01*
X147342085Y-93641585D01*
X147421437Y-93544894D01*
X147480402Y-93434580D01*
X147516712Y-93314882D01*
X147528972Y-93190400D01*
X147528972Y-89690400D01*
X147516712Y-89565918D01*
X147480402Y-89446220D01*
X147421437Y-89335906D01*
X147342085Y-89239215D01*
X147245394Y-89159863D01*
X147135080Y-89100898D01*
X147015382Y-89064588D01*
X146890900Y-89052328D01*
X141890900Y-89052328D01*
X141766418Y-89064588D01*
X141646720Y-89100898D01*
X141536406Y-89159863D01*
X141439715Y-89239215D01*
X141360363Y-89335906D01*
X141301398Y-89446220D01*
X141265088Y-89565918D01*
X141252828Y-89690400D01*
X115028972Y-89690400D01*
X115028972Y-89640400D01*
X115016712Y-89515918D01*
X114980402Y-89396220D01*
X114921437Y-89285906D01*
X114842085Y-89189215D01*
X114745394Y-89109863D01*
X114635080Y-89050898D01*
X114515382Y-89014588D01*
X114390900Y-89002328D01*
X112650900Y-89002328D01*
X112650900Y-84511901D01*
X112715388Y-84447413D01*
X136816192Y-84447413D01*
X136911956Y-84711814D01*
X137201571Y-84852704D01*
X137513108Y-84934384D01*
X137834595Y-84953718D01*
X138153675Y-84909961D01*
X138458088Y-84804795D01*
X138632044Y-84711814D01*
X138727808Y-84447413D01*
X143316192Y-84447413D01*
X143411956Y-84711814D01*
X143701571Y-84852704D01*
X144013108Y-84934384D01*
X144334595Y-84953718D01*
X144653675Y-84909961D01*
X144958088Y-84804795D01*
X145132044Y-84711814D01*
X145227808Y-84447413D01*
X144272000Y-83491605D01*
X143316192Y-84447413D01*
X138727808Y-84447413D01*
X137772000Y-83491605D01*
X136816192Y-84447413D01*
X112715388Y-84447413D01*
X113788206Y-83374595D01*
X136130282Y-83374595D01*
X136174039Y-83693675D01*
X136279205Y-83998088D01*
X136372186Y-84172044D01*
X136636587Y-84267808D01*
X137592395Y-83312000D01*
X137951605Y-83312000D01*
X138907413Y-84267808D01*
X139171814Y-84172044D01*
X139312704Y-83882429D01*
X139394384Y-83570892D01*
X139406189Y-83374595D01*
X142630282Y-83374595D01*
X142674039Y-83693675D01*
X142779205Y-83998088D01*
X142872186Y-84172044D01*
X143136587Y-84267808D01*
X144092395Y-83312000D01*
X144451605Y-83312000D01*
X145407413Y-84267808D01*
X145671814Y-84172044D01*
X145812704Y-83882429D01*
X145894384Y-83570892D01*
X145913718Y-83249405D01*
X145869961Y-82930325D01*
X145764795Y-82625912D01*
X145671814Y-82451956D01*
X145407413Y-82356192D01*
X144451605Y-83312000D01*
X144092395Y-83312000D01*
X143136587Y-82356192D01*
X142872186Y-82451956D01*
X142731296Y-82741571D01*
X142649616Y-83053108D01*
X142630282Y-83374595D01*
X139406189Y-83374595D01*
X139413718Y-83249405D01*
X139369961Y-82930325D01*
X139264795Y-82625912D01*
X139171814Y-82451956D01*
X138907413Y-82356192D01*
X137951605Y-83312000D01*
X137592395Y-83312000D01*
X136636587Y-82356192D01*
X136372186Y-82451956D01*
X136231296Y-82741571D01*
X136149616Y-83053108D01*
X136130282Y-83374595D01*
X113788206Y-83374595D01*
X114986214Y-82176587D01*
X136816192Y-82176587D01*
X137772000Y-83132395D01*
X138727808Y-82176587D01*
X143316192Y-82176587D01*
X144272000Y-83132395D01*
X145227808Y-82176587D01*
X145132044Y-81912186D01*
X144842429Y-81771296D01*
X144530892Y-81689616D01*
X144209405Y-81670282D01*
X143890325Y-81714039D01*
X143585912Y-81819205D01*
X143411956Y-81912186D01*
X143316192Y-82176587D01*
X138727808Y-82176587D01*
X138632044Y-81912186D01*
X138342429Y-81771296D01*
X138030892Y-81689616D01*
X137709405Y-81670282D01*
X137390325Y-81714039D01*
X137085912Y-81819205D01*
X136911956Y-81912186D01*
X136816192Y-82176587D01*
X114986214Y-82176587D01*
X117154802Y-80008000D01*
X124676678Y-80008000D01*
X124714000Y-80011676D01*
X124751322Y-80008000D01*
X124751333Y-80008000D01*
X124862986Y-79997003D01*
X125006247Y-79953546D01*
X125138276Y-79882974D01*
X125254001Y-79788001D01*
X125277804Y-79758997D01*
X126385834Y-78650967D01*
X136137000Y-78650967D01*
X136137000Y-78973033D01*
X136199832Y-79288912D01*
X136323082Y-79586463D01*
X136502013Y-79854252D01*
X136729748Y-80081987D01*
X136997537Y-80260918D01*
X137295088Y-80384168D01*
X137610967Y-80447000D01*
X137933033Y-80447000D01*
X138248912Y-80384168D01*
X138546463Y-80260918D01*
X138814252Y-80081987D01*
X139041987Y-79854252D01*
X139220918Y-79586463D01*
X139344168Y-79288912D01*
X139407000Y-78973033D01*
X139407000Y-78650967D01*
X142637000Y-78650967D01*
X142637000Y-78973033D01*
X142699832Y-79288912D01*
X142823082Y-79586463D01*
X143002013Y-79854252D01*
X143229748Y-80081987D01*
X143497537Y-80260918D01*
X143795088Y-80384168D01*
X144110967Y-80447000D01*
X144433033Y-80447000D01*
X144748912Y-80384168D01*
X145046463Y-80260918D01*
X145314252Y-80081987D01*
X145541987Y-79854252D01*
X145720918Y-79586463D01*
X145844168Y-79288912D01*
X145907000Y-78973033D01*
X145907000Y-78650967D01*
X145844168Y-78335088D01*
X145720918Y-78037537D01*
X145541987Y-77769748D01*
X145314252Y-77542013D01*
X145046463Y-77363082D01*
X144748912Y-77239832D01*
X144433033Y-77177000D01*
X144110967Y-77177000D01*
X143795088Y-77239832D01*
X143497537Y-77363082D01*
X143229748Y-77542013D01*
X143002013Y-77769748D01*
X142823082Y-78037537D01*
X142699832Y-78335088D01*
X142637000Y-78650967D01*
X139407000Y-78650967D01*
X139344168Y-78335088D01*
X139220918Y-78037537D01*
X139041987Y-77769748D01*
X138814252Y-77542013D01*
X138546463Y-77363082D01*
X138248912Y-77239832D01*
X137933033Y-77177000D01*
X137610967Y-77177000D01*
X137295088Y-77239832D01*
X136997537Y-77363082D01*
X136729748Y-77542013D01*
X136502013Y-77769748D01*
X136323082Y-78037537D01*
X136199832Y-78335088D01*
X136137000Y-78650967D01*
X126385834Y-78650967D01*
X129543003Y-75493799D01*
X129572001Y-75470001D01*
X129666974Y-75354276D01*
X129737546Y-75222247D01*
X129781003Y-75078986D01*
X129792000Y-74967333D01*
X129792000Y-74967324D01*
X129795676Y-74930001D01*
X129792000Y-74892678D01*
X129792000Y-70835721D01*
X130499000Y-70835721D01*
X130499000Y-71256279D01*
X130581047Y-71668756D01*
X130741988Y-72057302D01*
X130975637Y-72406983D01*
X131273017Y-72704363D01*
X131622698Y-72938012D01*
X132011244Y-73098953D01*
X132423721Y-73181000D01*
X132844279Y-73181000D01*
X133256756Y-73098953D01*
X133645302Y-72938012D01*
X133994983Y-72704363D01*
X134292363Y-72406983D01*
X134526012Y-72057302D01*
X134686953Y-71668756D01*
X134769000Y-71256279D01*
X134769000Y-70885721D01*
X142549000Y-70885721D01*
X142549000Y-71306279D01*
X142631047Y-71718756D01*
X142791988Y-72107302D01*
X143025637Y-72456983D01*
X143323017Y-72754363D01*
X143672698Y-72988012D01*
X144061244Y-73148953D01*
X144473721Y-73231000D01*
X144894279Y-73231000D01*
X145306756Y-73148953D01*
X145695302Y-72988012D01*
X146044983Y-72754363D01*
X146342363Y-72456983D01*
X146576012Y-72107302D01*
X146736953Y-71718756D01*
X146819000Y-71306279D01*
X146819000Y-70885721D01*
X146736953Y-70473244D01*
X146576012Y-70084698D01*
X146342363Y-69735017D01*
X146044983Y-69437637D01*
X145695302Y-69203988D01*
X145306756Y-69043047D01*
X144894279Y-68961000D01*
X144473721Y-68961000D01*
X144061244Y-69043047D01*
X143672698Y-69203988D01*
X143323017Y-69437637D01*
X143025637Y-69735017D01*
X142791988Y-70084698D01*
X142631047Y-70473244D01*
X142549000Y-70885721D01*
X134769000Y-70885721D01*
X134769000Y-70835721D01*
X134686953Y-70423244D01*
X134526012Y-70034698D01*
X134292363Y-69685017D01*
X133994983Y-69387637D01*
X133645302Y-69153988D01*
X133256756Y-68993047D01*
X132844279Y-68911000D01*
X132423721Y-68911000D01*
X132011244Y-68993047D01*
X131622698Y-69153988D01*
X131273017Y-69387637D01*
X130975637Y-69685017D01*
X130741988Y-70034698D01*
X130581047Y-70423244D01*
X130499000Y-70835721D01*
X129792000Y-70835721D01*
X129792000Y-66862801D01*
X136495196Y-60159605D01*
X143500000Y-60159605D01*
X143625914Y-60449577D01*
X143958126Y-60615433D01*
X144316312Y-60713290D01*
X144686706Y-60739389D01*
X145055075Y-60692725D01*
X145407262Y-60575094D01*
X145642086Y-60449577D01*
X145768000Y-60159605D01*
X144634000Y-59025605D01*
X143500000Y-60159605D01*
X136495196Y-60159605D01*
X137809942Y-58844860D01*
X138061244Y-58948953D01*
X138473721Y-59031000D01*
X138894279Y-59031000D01*
X139306756Y-58948953D01*
X139428063Y-58898706D01*
X142740611Y-58898706D01*
X142787275Y-59267075D01*
X142904906Y-59619262D01*
X143030423Y-59854086D01*
X143320395Y-59980000D01*
X144454395Y-58846000D01*
X144813605Y-58846000D01*
X145947605Y-59980000D01*
X146237577Y-59854086D01*
X146403433Y-59521874D01*
X146501290Y-59163688D01*
X146527389Y-58793294D01*
X146480725Y-58424925D01*
X146363094Y-58072738D01*
X146237577Y-57837914D01*
X145947605Y-57712000D01*
X144813605Y-58846000D01*
X144454395Y-58846000D01*
X143320395Y-57712000D01*
X143030423Y-57837914D01*
X142864567Y-58170126D01*
X142766710Y-58528312D01*
X142740611Y-58898706D01*
X139428063Y-58898706D01*
X139695302Y-58788012D01*
X140044983Y-58554363D01*
X140342363Y-58256983D01*
X140576012Y-57907302D01*
X140731303Y-57532395D01*
X143500000Y-57532395D01*
X144634000Y-58666395D01*
X145768000Y-57532395D01*
X145642086Y-57242423D01*
X145309874Y-57076567D01*
X144951688Y-56978710D01*
X144581294Y-56952611D01*
X144212925Y-56999275D01*
X143860738Y-57116906D01*
X143625914Y-57242423D01*
X143500000Y-57532395D01*
X140731303Y-57532395D01*
X140736953Y-57518756D01*
X140819000Y-57106279D01*
X140819000Y-56685721D01*
X140736953Y-56273244D01*
X140576012Y-55884698D01*
X140342363Y-55535017D01*
X140044983Y-55237637D01*
X139695302Y-55003988D01*
X139306756Y-54843047D01*
X138894279Y-54761000D01*
X138473721Y-54761000D01*
X138061244Y-54843047D01*
X137672698Y-55003988D01*
X137323017Y-55237637D01*
X137025637Y-55535017D01*
X136791988Y-55884698D01*
X136631047Y-56273244D01*
X136549000Y-56685721D01*
X136549000Y-57106279D01*
X136631047Y-57518756D01*
X136735140Y-57770058D01*
X128521003Y-65984196D01*
X128491999Y-66007999D01*
X128450144Y-66059000D01*
X128397026Y-66123724D01*
X128370540Y-66173276D01*
X128326454Y-66255754D01*
X128282997Y-66399015D01*
X128272000Y-66510668D01*
X128272000Y-66510678D01*
X128268324Y-66548000D01*
X128272000Y-66585322D01*
X128272001Y-73468290D01*
X128167774Y-73364063D01*
X127998256Y-73250795D01*
X127809898Y-73172774D01*
X127609939Y-73133000D01*
X127406061Y-73133000D01*
X127206102Y-73172774D01*
X127017744Y-73250795D01*
X126848226Y-73364063D01*
X126804289Y-73408000D01*
X113598802Y-73408000D01*
X112679011Y-72488210D01*
X112679011Y-62382061D01*
X126473000Y-62382061D01*
X126473000Y-62585939D01*
X126512774Y-62785898D01*
X126590795Y-62974256D01*
X126704063Y-63143774D01*
X126806289Y-63246000D01*
X126704063Y-63348226D01*
X126590795Y-63517744D01*
X126512774Y-63706102D01*
X126473000Y-63906061D01*
X126473000Y-64109939D01*
X126512774Y-64309898D01*
X126590795Y-64498256D01*
X126704063Y-64667774D01*
X126848226Y-64811937D01*
X127017744Y-64925205D01*
X127206102Y-65003226D01*
X127406061Y-65043000D01*
X127609939Y-65043000D01*
X127809898Y-65003226D01*
X127998256Y-64925205D01*
X128167774Y-64811937D01*
X128311937Y-64667774D01*
X128425205Y-64498256D01*
X128503226Y-64309898D01*
X128543000Y-64109939D01*
X128543000Y-64047802D01*
X129543009Y-63047794D01*
X129572001Y-63024001D01*
X129595795Y-62995008D01*
X129595799Y-62995004D01*
X129666973Y-62908277D01*
X129666974Y-62908276D01*
X129737546Y-62776247D01*
X129781003Y-62632986D01*
X129792000Y-62521333D01*
X129792000Y-62521324D01*
X129795676Y-62484001D01*
X129792000Y-62446678D01*
X129792000Y-58660344D01*
X130749000Y-58660344D01*
X130749000Y-59031656D01*
X130821439Y-59395834D01*
X130963534Y-59738882D01*
X131169825Y-60047618D01*
X131432382Y-60310175D01*
X131741118Y-60516466D01*
X132084166Y-60658561D01*
X132448344Y-60731000D01*
X132819656Y-60731000D01*
X133183834Y-60658561D01*
X133526882Y-60516466D01*
X133835618Y-60310175D01*
X134098175Y-60047618D01*
X134304466Y-59738882D01*
X134446561Y-59395834D01*
X134519000Y-59031656D01*
X134519000Y-58660344D01*
X134446561Y-58296166D01*
X134304466Y-57953118D01*
X134098175Y-57644382D01*
X133835618Y-57381825D01*
X133526882Y-57175534D01*
X133183834Y-57033439D01*
X132819656Y-56961000D01*
X132448344Y-56961000D01*
X132084166Y-57033439D01*
X131741118Y-57175534D01*
X131432382Y-57381825D01*
X131169825Y-57644382D01*
X130963534Y-57953118D01*
X130821439Y-58296166D01*
X130749000Y-58660344D01*
X129792000Y-58660344D01*
X129792000Y-51952020D01*
X131779068Y-51952020D01*
X131816390Y-51955696D01*
X131853712Y-51952020D01*
X131853723Y-51952020D01*
X131965376Y-51941023D01*
X132108637Y-51897566D01*
X132240666Y-51826994D01*
X132356391Y-51732021D01*
X132380194Y-51703017D01*
X133525811Y-50557400D01*
X138432090Y-50557400D01*
X138462762Y-50658528D01*
X138570527Y-50891629D01*
X138721697Y-51099227D01*
X138910463Y-51273344D01*
X139129570Y-51407289D01*
X139370599Y-51495915D01*
X139573000Y-51373085D01*
X139573000Y-50355000D01*
X139827000Y-50355000D01*
X139827000Y-51373085D01*
X140029401Y-51495915D01*
X140270430Y-51407289D01*
X140489537Y-51273344D01*
X140678303Y-51099227D01*
X140829473Y-50891629D01*
X140937238Y-50658528D01*
X140967910Y-50557400D01*
X140844224Y-50355000D01*
X139827000Y-50355000D01*
X139573000Y-50355000D01*
X138555776Y-50355000D01*
X138432090Y-50557400D01*
X133525811Y-50557400D01*
X135095212Y-48988000D01*
X138632291Y-48988000D01*
X138682456Y-49063077D01*
X138854060Y-49234681D01*
X138721697Y-49356773D01*
X138570527Y-49564371D01*
X138462762Y-49797472D01*
X138432090Y-49898600D01*
X138555776Y-50101000D01*
X139573000Y-50101000D01*
X139573000Y-50081000D01*
X139827000Y-50081000D01*
X139827000Y-50101000D01*
X140844224Y-50101000D01*
X140967910Y-49898600D01*
X140937238Y-49797472D01*
X140829473Y-49564371D01*
X140678303Y-49356773D01*
X140545940Y-49234681D01*
X140717544Y-49063077D01*
X140860907Y-48848518D01*
X140959658Y-48610113D01*
X141010000Y-48357024D01*
X141010000Y-48098976D01*
X140959658Y-47845887D01*
X140860907Y-47607482D01*
X140739303Y-47425487D01*
X140826185Y-47354185D01*
X140905537Y-47257494D01*
X140964502Y-47147180D01*
X141000812Y-47027482D01*
X141013072Y-46903000D01*
X141013072Y-45553000D01*
X141000812Y-45428518D01*
X140964502Y-45308820D01*
X140905537Y-45198506D01*
X140826185Y-45101815D01*
X140729494Y-45022463D01*
X140619180Y-44963498D01*
X140499482Y-44927188D01*
X140375000Y-44914928D01*
X139025000Y-44914928D01*
X138900518Y-44927188D01*
X138780820Y-44963498D01*
X138670506Y-45022463D01*
X138573815Y-45101815D01*
X138494463Y-45198506D01*
X138435498Y-45308820D01*
X138399188Y-45428518D01*
X138395299Y-45468000D01*
X136181322Y-45468000D01*
X136143999Y-45464324D01*
X136106676Y-45468000D01*
X136106667Y-45468000D01*
X135995014Y-45478997D01*
X135851753Y-45522454D01*
X135719724Y-45593026D01*
X135603999Y-45687999D01*
X135580201Y-45716997D01*
X133894717Y-47402481D01*
X133875232Y-47371000D01*
X132675000Y-47371000D01*
X132675000Y-47391000D01*
X132421000Y-47391000D01*
X132421000Y-47371000D01*
X132401000Y-47371000D01*
X132401000Y-47117000D01*
X132421000Y-47117000D01*
X132421000Y-45773845D01*
X132675000Y-45773845D01*
X132675000Y-47117000D01*
X133875232Y-47117000D01*
X134019285Y-46884258D01*
X133950096Y-46601255D01*
X133827025Y-46337188D01*
X133654802Y-46102205D01*
X133440046Y-45905336D01*
X133191009Y-45754146D01*
X132917261Y-45654446D01*
X132904890Y-45652524D01*
X132675000Y-45773845D01*
X132421000Y-45773845D01*
X132191110Y-45652524D01*
X132178739Y-45654446D01*
X131904991Y-45754146D01*
X131655954Y-45905336D01*
X131441198Y-46102205D01*
X131440914Y-46102593D01*
X131386405Y-46000614D01*
X131275962Y-45866038D01*
X131141386Y-45755595D01*
X130987850Y-45673528D01*
X130821254Y-45622992D01*
X130648000Y-45605928D01*
X129448000Y-45605928D01*
X129274746Y-45622992D01*
X129108150Y-45673528D01*
X128954614Y-45755595D01*
X128820038Y-45866038D01*
X128709595Y-46000614D01*
X128627528Y-46154150D01*
X128576992Y-46320746D01*
X128559928Y-46494000D01*
X128559928Y-47994000D01*
X128576992Y-48167254D01*
X128627528Y-48333850D01*
X128709595Y-48487386D01*
X128820038Y-48621962D01*
X128954614Y-48732405D01*
X129108150Y-48814472D01*
X129274746Y-48865008D01*
X129448000Y-48882072D01*
X130648000Y-48882072D01*
X130821254Y-48865008D01*
X130987850Y-48814472D01*
X131141386Y-48732405D01*
X131275962Y-48621962D01*
X131386405Y-48487386D01*
X131440914Y-48385407D01*
X131441198Y-48385795D01*
X131655954Y-48582664D01*
X131904991Y-48733854D01*
X132178739Y-48833554D01*
X132191110Y-48835476D01*
X132420998Y-48714156D01*
X132420998Y-48876201D01*
X131315189Y-49982010D01*
X129255723Y-49982010D01*
X129218400Y-49978334D01*
X129181077Y-49982010D01*
X129181067Y-49982010D01*
X129069414Y-49993007D01*
X128926153Y-50036464D01*
X128794123Y-50107036D01*
X128710483Y-50175678D01*
X128678399Y-50202009D01*
X128654601Y-50231008D01*
X128012998Y-50872611D01*
X127984000Y-50896409D01*
X127960202Y-50925407D01*
X127960201Y-50925408D01*
X127889026Y-51012134D01*
X127818454Y-51144164D01*
X127774998Y-51287425D01*
X127760324Y-51436410D01*
X127764001Y-51473742D01*
X127764000Y-61153198D01*
X127468199Y-61449000D01*
X127406061Y-61449000D01*
X127206102Y-61488774D01*
X127017744Y-61566795D01*
X126848226Y-61680063D01*
X126704063Y-61824226D01*
X126590795Y-61993744D01*
X126512774Y-62182102D01*
X126473000Y-62382061D01*
X112679011Y-62382061D01*
X112679011Y-61156334D01*
X112682687Y-61119011D01*
X112679011Y-61081688D01*
X112679011Y-61081678D01*
X112668014Y-60970025D01*
X112624557Y-60826764D01*
X112590182Y-60762454D01*
X112553985Y-60694734D01*
X112482810Y-60608008D01*
X112459012Y-60579010D01*
X112430014Y-60555212D01*
X107948000Y-56073199D01*
X107948000Y-48416341D01*
X108078535Y-48329120D01*
X108198090Y-48209565D01*
X108942040Y-48209565D01*
X109009020Y-48449656D01*
X109258048Y-48566756D01*
X109525135Y-48633023D01*
X109800017Y-48645910D01*
X110072133Y-48604922D01*
X110331023Y-48511636D01*
X110446980Y-48449656D01*
X110513960Y-48209565D01*
X109728000Y-47423605D01*
X108942040Y-48209565D01*
X108198090Y-48209565D01*
X108273120Y-48134535D01*
X108426005Y-47905727D01*
X108455692Y-47834057D01*
X108460364Y-47847023D01*
X108522344Y-47962980D01*
X108762435Y-48029960D01*
X109548395Y-47244000D01*
X109907605Y-47244000D01*
X110693565Y-48029960D01*
X110933656Y-47962980D01*
X110997485Y-47827240D01*
X111029995Y-47905727D01*
X111182880Y-48134535D01*
X111377465Y-48329120D01*
X111606273Y-48482005D01*
X111860510Y-48587314D01*
X112130408Y-48641000D01*
X112405592Y-48641000D01*
X112675490Y-48587314D01*
X112929727Y-48482005D01*
X113158535Y-48329120D01*
X113353120Y-48134535D01*
X113506005Y-47905727D01*
X113538000Y-47828485D01*
X113569995Y-47905727D01*
X113722880Y-48134535D01*
X113917465Y-48329120D01*
X114146273Y-48482005D01*
X114400510Y-48587314D01*
X114670408Y-48641000D01*
X114945592Y-48641000D01*
X115215490Y-48587314D01*
X115469727Y-48482005D01*
X115698535Y-48329120D01*
X115893120Y-48134535D01*
X116046005Y-47905727D01*
X116078000Y-47828485D01*
X116109995Y-47905727D01*
X116262880Y-48134535D01*
X116457465Y-48329120D01*
X116686273Y-48482005D01*
X116940510Y-48587314D01*
X117210408Y-48641000D01*
X117485592Y-48641000D01*
X117755490Y-48587314D01*
X118009727Y-48482005D01*
X118238535Y-48329120D01*
X118433120Y-48134535D01*
X118586005Y-47905727D01*
X118618000Y-47828485D01*
X118649995Y-47905727D01*
X118802880Y-48134535D01*
X118997465Y-48329120D01*
X119226273Y-48482005D01*
X119480510Y-48587314D01*
X119750408Y-48641000D01*
X120025592Y-48641000D01*
X120295490Y-48587314D01*
X120549727Y-48482005D01*
X120778535Y-48329120D01*
X120973120Y-48134535D01*
X121126005Y-47905727D01*
X121158000Y-47828485D01*
X121189995Y-47905727D01*
X121342880Y-48134535D01*
X121537465Y-48329120D01*
X121766273Y-48482005D01*
X122020510Y-48587314D01*
X122290408Y-48641000D01*
X122565592Y-48641000D01*
X122835490Y-48587314D01*
X123089727Y-48482005D01*
X123318535Y-48329120D01*
X123513120Y-48134535D01*
X123666005Y-47905727D01*
X123771314Y-47651490D01*
X123825000Y-47381592D01*
X123825000Y-47106408D01*
X123771314Y-46836510D01*
X123666005Y-46582273D01*
X123513120Y-46353465D01*
X123318535Y-46158880D01*
X123089727Y-46005995D01*
X122835490Y-45900686D01*
X122565592Y-45847000D01*
X122290408Y-45847000D01*
X122020510Y-45900686D01*
X121766273Y-46005995D01*
X121537465Y-46158880D01*
X121342880Y-46353465D01*
X121189995Y-46582273D01*
X121158000Y-46659515D01*
X121126005Y-46582273D01*
X120973120Y-46353465D01*
X120778535Y-46158880D01*
X120549727Y-46005995D01*
X120295490Y-45900686D01*
X120025592Y-45847000D01*
X119750408Y-45847000D01*
X119480510Y-45900686D01*
X119226273Y-46005995D01*
X118997465Y-46158880D01*
X118802880Y-46353465D01*
X118649995Y-46582273D01*
X118618000Y-46659515D01*
X118586005Y-46582273D01*
X118433120Y-46353465D01*
X118238535Y-46158880D01*
X118009727Y-46005995D01*
X117755490Y-45900686D01*
X117485592Y-45847000D01*
X117210408Y-45847000D01*
X116940510Y-45900686D01*
X116686273Y-46005995D01*
X116457465Y-46158880D01*
X116262880Y-46353465D01*
X116109995Y-46582273D01*
X116078000Y-46659515D01*
X116046005Y-46582273D01*
X115893120Y-46353465D01*
X115698535Y-46158880D01*
X115469727Y-46005995D01*
X115215490Y-45900686D01*
X114945592Y-45847000D01*
X114670408Y-45847000D01*
X114400510Y-45900686D01*
X114146273Y-46005995D01*
X113917465Y-46158880D01*
X113722880Y-46353465D01*
X113569995Y-46582273D01*
X113538000Y-46659515D01*
X113506005Y-46582273D01*
X113353120Y-46353465D01*
X113158535Y-46158880D01*
X112929727Y-46005995D01*
X112675490Y-45900686D01*
X112405592Y-45847000D01*
X112130408Y-45847000D01*
X111860510Y-45900686D01*
X111606273Y-46005995D01*
X111377465Y-46158880D01*
X111182880Y-46353465D01*
X111029995Y-46582273D01*
X111000308Y-46653943D01*
X110995636Y-46640977D01*
X110933656Y-46525020D01*
X110693565Y-46458040D01*
X109907605Y-47244000D01*
X109548395Y-47244000D01*
X108762435Y-46458040D01*
X108522344Y-46525020D01*
X108458515Y-46660760D01*
X108426005Y-46582273D01*
X108273120Y-46353465D01*
X108198090Y-46278435D01*
X108942040Y-46278435D01*
X109728000Y-47064395D01*
X110513960Y-46278435D01*
X110446980Y-46038344D01*
X110197952Y-45921244D01*
X109930865Y-45854977D01*
X109655983Y-45842090D01*
X109383867Y-45883078D01*
X109124977Y-45976364D01*
X109009020Y-46038344D01*
X108942040Y-46278435D01*
X108198090Y-46278435D01*
X108078535Y-46158880D01*
X107849727Y-46005995D01*
X107595490Y-45900686D01*
X107325592Y-45847000D01*
X107050408Y-45847000D01*
X106780510Y-45900686D01*
X106526273Y-46005995D01*
X106297465Y-46158880D01*
X106102880Y-46353465D01*
X105949995Y-46582273D01*
X105918000Y-46659515D01*
X105886005Y-46582273D01*
X105733120Y-46353465D01*
X105538535Y-46158880D01*
X105309727Y-46005995D01*
X105055490Y-45900686D01*
X104785592Y-45847000D01*
X104510408Y-45847000D01*
X104240510Y-45900686D01*
X103986273Y-46005995D01*
X103757465Y-46158880D01*
X103562880Y-46353465D01*
X103409995Y-46582273D01*
X103304686Y-46836510D01*
X103251000Y-47106408D01*
X103251000Y-47381592D01*
X103304686Y-47651490D01*
X103409995Y-47905727D01*
X103562880Y-48134535D01*
X103757465Y-48329120D01*
X103986273Y-48482005D01*
X104240510Y-48587314D01*
X104510408Y-48641000D01*
X104785592Y-48641000D01*
X105055490Y-48587314D01*
X105309727Y-48482005D01*
X105538535Y-48329120D01*
X105733120Y-48134535D01*
X105886005Y-47905727D01*
X105918000Y-47828485D01*
X105949995Y-47905727D01*
X106102880Y-48134535D01*
X106297465Y-48329120D01*
X106428001Y-48416341D01*
X106428000Y-55350198D01*
X98497294Y-47419493D01*
X98511134Y-47408134D01*
X98696706Y-47182014D01*
X98710462Y-47156278D01*
X98866951Y-47362429D01*
X99084807Y-47555496D01*
X99336142Y-47702352D01*
X99599110Y-47794476D01*
X99829000Y-47673155D01*
X99829000Y-46355000D01*
X100083000Y-46355000D01*
X100083000Y-47673155D01*
X100312890Y-47794476D01*
X100575858Y-47702352D01*
X100827193Y-47555496D01*
X101045049Y-47362429D01*
X101221053Y-47130570D01*
X101348442Y-46868830D01*
X101422320Y-46587267D01*
X101282165Y-46355000D01*
X100083000Y-46355000D01*
X99829000Y-46355000D01*
X99809000Y-46355000D01*
X99809000Y-46101000D01*
X99829000Y-46101000D01*
X99829000Y-44782845D01*
X100083000Y-44782845D01*
X100083000Y-46101000D01*
X101282165Y-46101000D01*
X101422320Y-45868733D01*
X101348442Y-45587170D01*
X101221053Y-45325430D01*
X101045049Y-45093571D01*
X100827193Y-44900504D01*
X100575858Y-44753648D01*
X100312890Y-44661524D01*
X100083000Y-44782845D01*
X99829000Y-44782845D01*
X99599110Y-44661524D01*
X99336142Y-44753648D01*
X99084807Y-44900504D01*
X98866951Y-45093571D01*
X98710462Y-45299722D01*
X98696706Y-45273986D01*
X98511134Y-45047866D01*
X98285013Y-44862294D01*
X98027033Y-44724401D01*
X97747110Y-44639487D01*
X97456000Y-44610815D01*
X97164889Y-44639487D01*
X96884966Y-44724401D01*
X96626986Y-44862294D01*
X96400866Y-45047866D01*
X96215294Y-45273987D01*
X96206000Y-45291374D01*
X96196706Y-45273986D01*
X96011134Y-45047866D01*
X95785013Y-44862294D01*
X95527033Y-44724401D01*
X95247110Y-44639487D01*
X94956000Y-44610815D01*
X94664889Y-44639487D01*
X94384966Y-44724401D01*
X94126986Y-44862294D01*
X93900866Y-45047866D01*
X93848777Y-45111337D01*
X93794405Y-45009614D01*
X93683962Y-44875038D01*
X93549386Y-44764595D01*
X93395850Y-44682528D01*
X93229254Y-44631992D01*
X93056000Y-44614928D01*
X91856000Y-44614928D01*
X91682746Y-44631992D01*
X91516150Y-44682528D01*
X91362614Y-44764595D01*
X91228038Y-44875038D01*
X91117595Y-45009614D01*
X91035528Y-45163150D01*
X90984992Y-45329746D01*
X90967928Y-45503000D01*
X90967928Y-46953000D01*
X90984992Y-47126254D01*
X91035528Y-47292850D01*
X91117595Y-47446386D01*
X91228038Y-47580962D01*
X91362614Y-47691405D01*
X91516150Y-47773472D01*
X91682746Y-47824008D01*
X91856000Y-47841072D01*
X92019271Y-47841072D01*
X98808000Y-54629802D01*
X98808001Y-65831459D01*
X98700986Y-65798997D01*
X98589333Y-65788000D01*
X98589322Y-65788000D01*
X98552000Y-65784324D01*
X98514678Y-65788000D01*
X97387910Y-65788000D01*
X97350587Y-65784324D01*
X97313264Y-65788000D01*
X97313255Y-65788000D01*
X97201602Y-65798997D01*
X97058341Y-65842454D01*
X96926312Y-65913026D01*
X96810587Y-66007999D01*
X96786789Y-66036997D01*
X93661795Y-69161992D01*
X93076806Y-68577002D01*
X93053003Y-68547999D01*
X92937278Y-68453026D01*
X92805249Y-68382454D01*
X92661988Y-68338997D01*
X92550335Y-68328000D01*
X92550324Y-68328000D01*
X92513002Y-68324324D01*
X92475680Y-68328000D01*
X91477322Y-68328000D01*
X91439999Y-68324324D01*
X91402676Y-68328000D01*
X91402667Y-68328000D01*
X91291014Y-68338997D01*
X91147753Y-68382454D01*
X91015724Y-68453026D01*
X90899999Y-68547999D01*
X90876200Y-68576998D01*
X90420998Y-69032201D01*
X90392000Y-69055999D01*
X90368202Y-69084997D01*
X90368201Y-69084998D01*
X90297026Y-69171724D01*
X90226454Y-69303754D01*
X90197728Y-69398454D01*
X90182998Y-69447014D01*
X90177384Y-69504016D01*
X90168324Y-69596000D01*
X87528000Y-69596000D01*
X87528000Y-41843000D01*
X145915486Y-41843000D01*
X145619768Y-41965491D01*
M02*
