G04 #@! TF.GenerationSoftware,KiCad,Pcbnew,5.1.5+dfsg1-2build2*
G04 #@! TF.CreationDate,2021-12-30T00:51:53-05:00*
G04 #@! TF.ProjectId,schematics,73636865-6d61-4746-9963-732e6b696361,rev?*
G04 #@! TF.SameCoordinates,Original*
G04 #@! TF.FileFunction,Soldermask,Top*
G04 #@! TF.FilePolarity,Negative*
%FSLAX46Y46*%
G04 Gerber Fmt 4.6, Leading zero omitted, Abs format (unit mm)*
G04 Created by KiCad (PCBNEW 5.1.5+dfsg1-2build2) date 2021-12-30 00:51:53*
%MOMM*%
%LPD*%
G04 APERTURE LIST*
%ADD10C,0.100000*%
G04 APERTURE END LIST*
D10*
G36*
X215351953Y-168387172D02*
G01*
X215590410Y-168434604D01*
X215872674Y-168551521D01*
X216126705Y-168721259D01*
X216342741Y-168937295D01*
X216512479Y-169191326D01*
X216629396Y-169473590D01*
X216689000Y-169773240D01*
X216689000Y-170078760D01*
X216629396Y-170378410D01*
X216512479Y-170660674D01*
X216342741Y-170914705D01*
X216126705Y-171130741D01*
X215872674Y-171300479D01*
X215590410Y-171417396D01*
X215440585Y-171447198D01*
X215290761Y-171477000D01*
X214985239Y-171477000D01*
X214835415Y-171447198D01*
X214685590Y-171417396D01*
X214403326Y-171300479D01*
X214149295Y-171130741D01*
X213933259Y-170914705D01*
X213763521Y-170660674D01*
X213646604Y-170378410D01*
X213587000Y-170078760D01*
X213587000Y-169773240D01*
X213646604Y-169473590D01*
X213763521Y-169191326D01*
X213933259Y-168937295D01*
X214149295Y-168721259D01*
X214403326Y-168551521D01*
X214685590Y-168434604D01*
X214924047Y-168387172D01*
X214985239Y-168375000D01*
X215290761Y-168375000D01*
X215351953Y-168387172D01*
G37*
G36*
X172933953Y-168387172D02*
G01*
X173172410Y-168434604D01*
X173454674Y-168551521D01*
X173708705Y-168721259D01*
X173924741Y-168937295D01*
X174094479Y-169191326D01*
X174211396Y-169473590D01*
X174271000Y-169773240D01*
X174271000Y-170078760D01*
X174211396Y-170378410D01*
X174094479Y-170660674D01*
X173924741Y-170914705D01*
X173708705Y-171130741D01*
X173454674Y-171300479D01*
X173172410Y-171417396D01*
X173022585Y-171447198D01*
X172872761Y-171477000D01*
X172567239Y-171477000D01*
X172417415Y-171447198D01*
X172267590Y-171417396D01*
X171985326Y-171300479D01*
X171731295Y-171130741D01*
X171515259Y-170914705D01*
X171345521Y-170660674D01*
X171228604Y-170378410D01*
X171169000Y-170078760D01*
X171169000Y-169773240D01*
X171228604Y-169473590D01*
X171345521Y-169191326D01*
X171515259Y-168937295D01*
X171731295Y-168721259D01*
X171985326Y-168551521D01*
X172267590Y-168434604D01*
X172506047Y-168387172D01*
X172567239Y-168375000D01*
X172872761Y-168375000D01*
X172933953Y-168387172D01*
G37*
G36*
X182762626Y-168380037D02*
G01*
X182932465Y-168431557D01*
X182932467Y-168431558D01*
X183088989Y-168515221D01*
X183226186Y-168627814D01*
X183302873Y-168721259D01*
X183338778Y-168765009D01*
X183422443Y-168921534D01*
X183473963Y-169091373D01*
X183487000Y-169223742D01*
X183487000Y-169612257D01*
X183473963Y-169744626D01*
X183422443Y-169914466D01*
X183338778Y-170070991D01*
X183332402Y-170078760D01*
X183226186Y-170208186D01*
X183138178Y-170280411D01*
X183088991Y-170320778D01*
X182932466Y-170404443D01*
X182762627Y-170455963D01*
X182586000Y-170473359D01*
X182409374Y-170455963D01*
X182239535Y-170404443D01*
X182083010Y-170320778D01*
X181945815Y-170208185D01*
X181833222Y-170070991D01*
X181749557Y-169914466D01*
X181698037Y-169744627D01*
X181685000Y-169612258D01*
X181685000Y-169223743D01*
X181688193Y-169191328D01*
X181698037Y-169091376D01*
X181698037Y-169091374D01*
X181749557Y-168921535D01*
X181749559Y-168921532D01*
X181833221Y-168765011D01*
X181945814Y-168627814D01*
X182059641Y-168534400D01*
X182083009Y-168515222D01*
X182229985Y-168436661D01*
X182239532Y-168431558D01*
X182239534Y-168431557D01*
X182409373Y-168380037D01*
X182586000Y-168362641D01*
X182762626Y-168380037D01*
G37*
G36*
X180844600Y-168370989D02*
G01*
X180877652Y-168381015D01*
X180908103Y-168397292D01*
X180934799Y-168419201D01*
X180956708Y-168445897D01*
X180972985Y-168476348D01*
X180983011Y-168509400D01*
X180987000Y-168549903D01*
X180987000Y-170286097D01*
X180983011Y-170326600D01*
X180972985Y-170359652D01*
X180956708Y-170390103D01*
X180934799Y-170416799D01*
X180908103Y-170438708D01*
X180877652Y-170454985D01*
X180844600Y-170465011D01*
X180804097Y-170469000D01*
X179367903Y-170469000D01*
X179327400Y-170465011D01*
X179294348Y-170454985D01*
X179263897Y-170438708D01*
X179237201Y-170416799D01*
X179215292Y-170390103D01*
X179199015Y-170359652D01*
X179188989Y-170326600D01*
X179185000Y-170286097D01*
X179185000Y-168549903D01*
X179188989Y-168509400D01*
X179199015Y-168476348D01*
X179215292Y-168445897D01*
X179237201Y-168419201D01*
X179263897Y-168397292D01*
X179294348Y-168381015D01*
X179327400Y-168370989D01*
X179367903Y-168367000D01*
X180804097Y-168367000D01*
X180844600Y-168370989D01*
G37*
G36*
X195168626Y-168405037D02*
G01*
X195338465Y-168456557D01*
X195338467Y-168456558D01*
X195494989Y-168540221D01*
X195632186Y-168652814D01*
X195688357Y-168721260D01*
X195744778Y-168790009D01*
X195828443Y-168946534D01*
X195879963Y-169116373D01*
X195879963Y-169116375D01*
X195893000Y-169248740D01*
X195893000Y-169587259D01*
X195886481Y-169653442D01*
X195879963Y-169719626D01*
X195828443Y-169889466D01*
X195744778Y-170045991D01*
X195724261Y-170070991D01*
X195632186Y-170183186D01*
X195543827Y-170255699D01*
X195494991Y-170295778D01*
X195494989Y-170295779D01*
X195340401Y-170378409D01*
X195338466Y-170379443D01*
X195168627Y-170430963D01*
X194992000Y-170448359D01*
X194815374Y-170430963D01*
X194645535Y-170379443D01*
X194643601Y-170378409D01*
X194489012Y-170295779D01*
X194489010Y-170295778D01*
X194351815Y-170183185D01*
X194239222Y-170045991D01*
X194155557Y-169889466D01*
X194104037Y-169719627D01*
X194091000Y-169587258D01*
X194091000Y-169248743D01*
X194093463Y-169223740D01*
X194104037Y-169116376D01*
X194104037Y-169116374D01*
X194155557Y-168946535D01*
X194239222Y-168790010D01*
X194259738Y-168765011D01*
X194351814Y-168652814D01*
X194453271Y-168569552D01*
X194489009Y-168540222D01*
X194645534Y-168456557D01*
X194815373Y-168405037D01*
X194992000Y-168387641D01*
X195168626Y-168405037D01*
G37*
G36*
X192668626Y-168405037D02*
G01*
X192838465Y-168456557D01*
X192838467Y-168456558D01*
X192994989Y-168540221D01*
X193132186Y-168652814D01*
X193188357Y-168721260D01*
X193244778Y-168790009D01*
X193328443Y-168946534D01*
X193379963Y-169116373D01*
X193379963Y-169116375D01*
X193393000Y-169248740D01*
X193393000Y-169587259D01*
X193386481Y-169653442D01*
X193379963Y-169719626D01*
X193328443Y-169889466D01*
X193244778Y-170045991D01*
X193224261Y-170070991D01*
X193132186Y-170183186D01*
X193043827Y-170255699D01*
X192994991Y-170295778D01*
X192994989Y-170295779D01*
X192840401Y-170378409D01*
X192838466Y-170379443D01*
X192668627Y-170430963D01*
X192492000Y-170448359D01*
X192315374Y-170430963D01*
X192145535Y-170379443D01*
X192143601Y-170378409D01*
X191989012Y-170295779D01*
X191989010Y-170295778D01*
X191851815Y-170183185D01*
X191739222Y-170045991D01*
X191655557Y-169889466D01*
X191604037Y-169719627D01*
X191591000Y-169587258D01*
X191591000Y-169248743D01*
X191593463Y-169223740D01*
X191604037Y-169116376D01*
X191604037Y-169116374D01*
X191655557Y-168946535D01*
X191739222Y-168790010D01*
X191759738Y-168765011D01*
X191851814Y-168652814D01*
X191953271Y-168569552D01*
X191989009Y-168540222D01*
X192145534Y-168456557D01*
X192315373Y-168405037D01*
X192492000Y-168387641D01*
X192668626Y-168405037D01*
G37*
G36*
X200168626Y-168405037D02*
G01*
X200338465Y-168456557D01*
X200338467Y-168456558D01*
X200494989Y-168540221D01*
X200632186Y-168652814D01*
X200688357Y-168721260D01*
X200744778Y-168790009D01*
X200828443Y-168946534D01*
X200879963Y-169116373D01*
X200879963Y-169116375D01*
X200893000Y-169248740D01*
X200893000Y-169587259D01*
X200886481Y-169653442D01*
X200879963Y-169719626D01*
X200828443Y-169889466D01*
X200744778Y-170045991D01*
X200724261Y-170070991D01*
X200632186Y-170183186D01*
X200543827Y-170255699D01*
X200494991Y-170295778D01*
X200494989Y-170295779D01*
X200340401Y-170378409D01*
X200338466Y-170379443D01*
X200168627Y-170430963D01*
X199992000Y-170448359D01*
X199815374Y-170430963D01*
X199645535Y-170379443D01*
X199643601Y-170378409D01*
X199489012Y-170295779D01*
X199489010Y-170295778D01*
X199351815Y-170183185D01*
X199239222Y-170045991D01*
X199155557Y-169889466D01*
X199104037Y-169719627D01*
X199091000Y-169587258D01*
X199091000Y-169248743D01*
X199093463Y-169223740D01*
X199104037Y-169116376D01*
X199104037Y-169116374D01*
X199155557Y-168946535D01*
X199239222Y-168790010D01*
X199259738Y-168765011D01*
X199351814Y-168652814D01*
X199453271Y-168569552D01*
X199489009Y-168540222D01*
X199645534Y-168456557D01*
X199815373Y-168405037D01*
X199992000Y-168387641D01*
X200168626Y-168405037D01*
G37*
G36*
X202668626Y-168405037D02*
G01*
X202838465Y-168456557D01*
X202838467Y-168456558D01*
X202994989Y-168540221D01*
X203132186Y-168652814D01*
X203188357Y-168721260D01*
X203244778Y-168790009D01*
X203328443Y-168946534D01*
X203379963Y-169116373D01*
X203379963Y-169116375D01*
X203393000Y-169248740D01*
X203393000Y-169587259D01*
X203386481Y-169653442D01*
X203379963Y-169719626D01*
X203328443Y-169889466D01*
X203244778Y-170045991D01*
X203224261Y-170070991D01*
X203132186Y-170183186D01*
X203043827Y-170255699D01*
X202994991Y-170295778D01*
X202994989Y-170295779D01*
X202840401Y-170378409D01*
X202838466Y-170379443D01*
X202668627Y-170430963D01*
X202492000Y-170448359D01*
X202315374Y-170430963D01*
X202145535Y-170379443D01*
X202143601Y-170378409D01*
X201989012Y-170295779D01*
X201989010Y-170295778D01*
X201851815Y-170183185D01*
X201739222Y-170045991D01*
X201655557Y-169889466D01*
X201604037Y-169719627D01*
X201591000Y-169587258D01*
X201591000Y-169248743D01*
X201593463Y-169223740D01*
X201604037Y-169116376D01*
X201604037Y-169116374D01*
X201655557Y-168946535D01*
X201739222Y-168790010D01*
X201759738Y-168765011D01*
X201851814Y-168652814D01*
X201953271Y-168569552D01*
X201989009Y-168540222D01*
X202145534Y-168456557D01*
X202315373Y-168405037D01*
X202492000Y-168387641D01*
X202668626Y-168405037D01*
G37*
G36*
X205168626Y-168405037D02*
G01*
X205338465Y-168456557D01*
X205338467Y-168456558D01*
X205494989Y-168540221D01*
X205632186Y-168652814D01*
X205688357Y-168721260D01*
X205744778Y-168790009D01*
X205828443Y-168946534D01*
X205879963Y-169116373D01*
X205879963Y-169116375D01*
X205893000Y-169248740D01*
X205893000Y-169587259D01*
X205886481Y-169653442D01*
X205879963Y-169719626D01*
X205828443Y-169889466D01*
X205744778Y-170045991D01*
X205724261Y-170070991D01*
X205632186Y-170183186D01*
X205543827Y-170255699D01*
X205494991Y-170295778D01*
X205494989Y-170295779D01*
X205340401Y-170378409D01*
X205338466Y-170379443D01*
X205168627Y-170430963D01*
X204992000Y-170448359D01*
X204815374Y-170430963D01*
X204645535Y-170379443D01*
X204643601Y-170378409D01*
X204489012Y-170295779D01*
X204489010Y-170295778D01*
X204351815Y-170183185D01*
X204239222Y-170045991D01*
X204155557Y-169889466D01*
X204104037Y-169719627D01*
X204091000Y-169587258D01*
X204091000Y-169248743D01*
X204093463Y-169223740D01*
X204104037Y-169116376D01*
X204104037Y-169116374D01*
X204155557Y-168946535D01*
X204239222Y-168790010D01*
X204259738Y-168765011D01*
X204351814Y-168652814D01*
X204453271Y-168569552D01*
X204489009Y-168540222D01*
X204645534Y-168456557D01*
X204815373Y-168405037D01*
X204992000Y-168387641D01*
X205168626Y-168405037D01*
G37*
G36*
X207668626Y-168405037D02*
G01*
X207838465Y-168456557D01*
X207838467Y-168456558D01*
X207994989Y-168540221D01*
X208132186Y-168652814D01*
X208188357Y-168721260D01*
X208244778Y-168790009D01*
X208328443Y-168946534D01*
X208379963Y-169116373D01*
X208379963Y-169116375D01*
X208393000Y-169248740D01*
X208393000Y-169587259D01*
X208386481Y-169653442D01*
X208379963Y-169719626D01*
X208328443Y-169889466D01*
X208244778Y-170045991D01*
X208224261Y-170070991D01*
X208132186Y-170183186D01*
X208043827Y-170255699D01*
X207994991Y-170295778D01*
X207994989Y-170295779D01*
X207840401Y-170378409D01*
X207838466Y-170379443D01*
X207668627Y-170430963D01*
X207492000Y-170448359D01*
X207315374Y-170430963D01*
X207145535Y-170379443D01*
X207143601Y-170378409D01*
X206989012Y-170295779D01*
X206989010Y-170295778D01*
X206851815Y-170183185D01*
X206739222Y-170045991D01*
X206655557Y-169889466D01*
X206604037Y-169719627D01*
X206591000Y-169587258D01*
X206591000Y-169248743D01*
X206593463Y-169223740D01*
X206604037Y-169116376D01*
X206604037Y-169116374D01*
X206655557Y-168946535D01*
X206739222Y-168790010D01*
X206759738Y-168765011D01*
X206851814Y-168652814D01*
X206953271Y-168569552D01*
X206989009Y-168540222D01*
X207145534Y-168456557D01*
X207315373Y-168405037D01*
X207492000Y-168387641D01*
X207668626Y-168405037D01*
G37*
G36*
X197668626Y-168405037D02*
G01*
X197838465Y-168456557D01*
X197838467Y-168456558D01*
X197994989Y-168540221D01*
X198132186Y-168652814D01*
X198188357Y-168721260D01*
X198244778Y-168790009D01*
X198328443Y-168946534D01*
X198379963Y-169116373D01*
X198379963Y-169116375D01*
X198393000Y-169248740D01*
X198393000Y-169587259D01*
X198386481Y-169653442D01*
X198379963Y-169719626D01*
X198328443Y-169889466D01*
X198244778Y-170045991D01*
X198224261Y-170070991D01*
X198132186Y-170183186D01*
X198043827Y-170255699D01*
X197994991Y-170295778D01*
X197994989Y-170295779D01*
X197840401Y-170378409D01*
X197838466Y-170379443D01*
X197668627Y-170430963D01*
X197492000Y-170448359D01*
X197315374Y-170430963D01*
X197145535Y-170379443D01*
X197143601Y-170378409D01*
X196989012Y-170295779D01*
X196989010Y-170295778D01*
X196851815Y-170183185D01*
X196739222Y-170045991D01*
X196655557Y-169889466D01*
X196604037Y-169719627D01*
X196591000Y-169587258D01*
X196591000Y-169248743D01*
X196593463Y-169223740D01*
X196604037Y-169116376D01*
X196604037Y-169116374D01*
X196655557Y-168946535D01*
X196739222Y-168790010D01*
X196759738Y-168765011D01*
X196851814Y-168652814D01*
X196953271Y-168569552D01*
X196989009Y-168540222D01*
X197145534Y-168456557D01*
X197315373Y-168405037D01*
X197492000Y-168387641D01*
X197668626Y-168405037D01*
G37*
G36*
X190750600Y-168395989D02*
G01*
X190783652Y-168406015D01*
X190814103Y-168422292D01*
X190840799Y-168444201D01*
X190862708Y-168470897D01*
X190878985Y-168501348D01*
X190889011Y-168534400D01*
X190893000Y-168574903D01*
X190893000Y-170261097D01*
X190889011Y-170301600D01*
X190878985Y-170334652D01*
X190862708Y-170365103D01*
X190840799Y-170391799D01*
X190814103Y-170413708D01*
X190783652Y-170429985D01*
X190750600Y-170440011D01*
X190710097Y-170444000D01*
X189273903Y-170444000D01*
X189233400Y-170440011D01*
X189200348Y-170429985D01*
X189169897Y-170413708D01*
X189143201Y-170391799D01*
X189121292Y-170365103D01*
X189105015Y-170334652D01*
X189094989Y-170301600D01*
X189091000Y-170261097D01*
X189091000Y-168574903D01*
X189094989Y-168534400D01*
X189105015Y-168501348D01*
X189121292Y-168470897D01*
X189143201Y-168444201D01*
X189169897Y-168422292D01*
X189200348Y-168406015D01*
X189233400Y-168395989D01*
X189273903Y-168392000D01*
X190710097Y-168392000D01*
X190750600Y-168395989D01*
G37*
G36*
X189390499Y-164578445D02*
G01*
X189427995Y-164589820D01*
X189462554Y-164608292D01*
X189492847Y-164633153D01*
X189517708Y-164663446D01*
X189536180Y-164698005D01*
X189547555Y-164735501D01*
X189552000Y-164780638D01*
X189552000Y-165419362D01*
X189547555Y-165464499D01*
X189536180Y-165501995D01*
X189517708Y-165536554D01*
X189492847Y-165566847D01*
X189462554Y-165591708D01*
X189427995Y-165610180D01*
X189390499Y-165621555D01*
X189345362Y-165626000D01*
X188606638Y-165626000D01*
X188561501Y-165621555D01*
X188524005Y-165610180D01*
X188489446Y-165591708D01*
X188459153Y-165566847D01*
X188434292Y-165536554D01*
X188415820Y-165501995D01*
X188404445Y-165464499D01*
X188400000Y-165419362D01*
X188400000Y-164780638D01*
X188404445Y-164735501D01*
X188415820Y-164698005D01*
X188434292Y-164663446D01*
X188459153Y-164633153D01*
X188489446Y-164608292D01*
X188524005Y-164589820D01*
X188561501Y-164578445D01*
X188606638Y-164574000D01*
X189345362Y-164574000D01*
X189390499Y-164578445D01*
G37*
G36*
X191140499Y-164578445D02*
G01*
X191177995Y-164589820D01*
X191212554Y-164608292D01*
X191242847Y-164633153D01*
X191267708Y-164663446D01*
X191286180Y-164698005D01*
X191297555Y-164735501D01*
X191302000Y-164780638D01*
X191302000Y-165419362D01*
X191297555Y-165464499D01*
X191286180Y-165501995D01*
X191267708Y-165536554D01*
X191242847Y-165566847D01*
X191212554Y-165591708D01*
X191177995Y-165610180D01*
X191140499Y-165621555D01*
X191095362Y-165626000D01*
X190356638Y-165626000D01*
X190311501Y-165621555D01*
X190274005Y-165610180D01*
X190239446Y-165591708D01*
X190209153Y-165566847D01*
X190184292Y-165536554D01*
X190165820Y-165501995D01*
X190154445Y-165464499D01*
X190150000Y-165419362D01*
X190150000Y-164780638D01*
X190154445Y-164735501D01*
X190165820Y-164698005D01*
X190184292Y-164663446D01*
X190209153Y-164633153D01*
X190239446Y-164608292D01*
X190274005Y-164589820D01*
X190311501Y-164578445D01*
X190356638Y-164574000D01*
X191095362Y-164574000D01*
X191140499Y-164578445D01*
G37*
G36*
X184697000Y-164983000D02*
G01*
X183095000Y-164983000D01*
X183095000Y-162881000D01*
X184697000Y-162881000D01*
X184697000Y-164983000D01*
G37*
G36*
X186997000Y-164983000D02*
G01*
X185395000Y-164983000D01*
X185395000Y-162881000D01*
X186997000Y-162881000D01*
X186997000Y-164983000D01*
G37*
G36*
X182397000Y-164983000D02*
G01*
X180795000Y-164983000D01*
X180795000Y-162881000D01*
X182397000Y-162881000D01*
X182397000Y-164983000D01*
G37*
G36*
X215792600Y-161662989D02*
G01*
X215825652Y-161673015D01*
X215856103Y-161689292D01*
X215882799Y-161711201D01*
X215904708Y-161737897D01*
X215920985Y-161768348D01*
X215931011Y-161801400D01*
X215935000Y-161841903D01*
X215935000Y-163278097D01*
X215931011Y-163318600D01*
X215920985Y-163351652D01*
X215904708Y-163382103D01*
X215882799Y-163408799D01*
X215856103Y-163430708D01*
X215825652Y-163446985D01*
X215792600Y-163457011D01*
X215752097Y-163461000D01*
X214015903Y-163461000D01*
X213975400Y-163457011D01*
X213942348Y-163446985D01*
X213911897Y-163430708D01*
X213885201Y-163408799D01*
X213863292Y-163382103D01*
X213847015Y-163351652D01*
X213836989Y-163318600D01*
X213833000Y-163278097D01*
X213833000Y-161841903D01*
X213836989Y-161801400D01*
X213847015Y-161768348D01*
X213863292Y-161737897D01*
X213885201Y-161711201D01*
X213911897Y-161689292D01*
X213942348Y-161673015D01*
X213975400Y-161662989D01*
X214015903Y-161659000D01*
X215752097Y-161659000D01*
X215792600Y-161662989D01*
G37*
G36*
X177754228Y-161487703D02*
G01*
X177909100Y-161551853D01*
X178048481Y-161644985D01*
X178167015Y-161763519D01*
X178260147Y-161902900D01*
X178324297Y-162057772D01*
X178357000Y-162222184D01*
X178357000Y-162389816D01*
X178324297Y-162554228D01*
X178260147Y-162709100D01*
X178167015Y-162848481D01*
X178048481Y-162967015D01*
X177909100Y-163060147D01*
X177754228Y-163124297D01*
X177589816Y-163157000D01*
X177422184Y-163157000D01*
X177257772Y-163124297D01*
X177102900Y-163060147D01*
X176963519Y-162967015D01*
X176844985Y-162848481D01*
X176751853Y-162709100D01*
X176687703Y-162554228D01*
X176655000Y-162389816D01*
X176655000Y-162222184D01*
X176687703Y-162057772D01*
X176751853Y-161902900D01*
X176844985Y-161763519D01*
X176963519Y-161644985D01*
X177102900Y-161551853D01*
X177257772Y-161487703D01*
X177422184Y-161455000D01*
X177589816Y-161455000D01*
X177754228Y-161487703D01*
G37*
G36*
X175857000Y-163157000D02*
G01*
X174155000Y-163157000D01*
X174155000Y-161455000D01*
X175857000Y-161455000D01*
X175857000Y-163157000D01*
G37*
G36*
X194890585Y-159926802D02*
G01*
X195040410Y-159956604D01*
X195322674Y-160073521D01*
X195576705Y-160243259D01*
X195792741Y-160459295D01*
X195962479Y-160713326D01*
X196079396Y-160995590D01*
X196139000Y-161295240D01*
X196139000Y-161600760D01*
X196079396Y-161900410D01*
X195962479Y-162182674D01*
X195792741Y-162436705D01*
X195576705Y-162652741D01*
X195322674Y-162822479D01*
X195040410Y-162939396D01*
X194901560Y-162967015D01*
X194740761Y-162999000D01*
X194435239Y-162999000D01*
X194274440Y-162967015D01*
X194135590Y-162939396D01*
X193853326Y-162822479D01*
X193599295Y-162652741D01*
X193383259Y-162436705D01*
X193213521Y-162182674D01*
X193096604Y-161900410D01*
X193037000Y-161600760D01*
X193037000Y-161295240D01*
X193096604Y-160995590D01*
X193213521Y-160713326D01*
X193383259Y-160459295D01*
X193599295Y-160243259D01*
X193853326Y-160073521D01*
X194135590Y-159956604D01*
X194285415Y-159926802D01*
X194435239Y-159897000D01*
X194740761Y-159897000D01*
X194890585Y-159926802D01*
G37*
G36*
X207217487Y-160146996D02*
G01*
X207449888Y-160243260D01*
X207454255Y-160245069D01*
X207667339Y-160387447D01*
X207848553Y-160568661D01*
X207990932Y-160781747D01*
X208089004Y-161018513D01*
X208139000Y-161269861D01*
X208139000Y-161526139D01*
X208089004Y-161777487D01*
X208028316Y-161924000D01*
X207990931Y-162014255D01*
X207848553Y-162227339D01*
X207667339Y-162408553D01*
X207454255Y-162550931D01*
X207454254Y-162550932D01*
X207454253Y-162550932D01*
X207217487Y-162649004D01*
X206966139Y-162699000D01*
X206709861Y-162699000D01*
X206458513Y-162649004D01*
X206221747Y-162550932D01*
X206221746Y-162550932D01*
X206221745Y-162550931D01*
X206008661Y-162408553D01*
X205827447Y-162227339D01*
X205685069Y-162014255D01*
X205647684Y-161924000D01*
X205586996Y-161777487D01*
X205537000Y-161526139D01*
X205537000Y-161269861D01*
X205586996Y-161018513D01*
X205685068Y-160781747D01*
X205827447Y-160568661D01*
X206008661Y-160387447D01*
X206221745Y-160245069D01*
X206226112Y-160243260D01*
X206458513Y-160146996D01*
X206709861Y-160097000D01*
X206966139Y-160097000D01*
X207217487Y-160146996D01*
G37*
G36*
X215144442Y-159165518D02*
G01*
X215210627Y-159172037D01*
X215380466Y-159223557D01*
X215536991Y-159307222D01*
X215572729Y-159336552D01*
X215674186Y-159419814D01*
X215757448Y-159521271D01*
X215786778Y-159557009D01*
X215870443Y-159713534D01*
X215921963Y-159883373D01*
X215939359Y-160060000D01*
X215921963Y-160236627D01*
X215870443Y-160406466D01*
X215786778Y-160562991D01*
X215757448Y-160598729D01*
X215674186Y-160700186D01*
X215574805Y-160781745D01*
X215536991Y-160812778D01*
X215380466Y-160896443D01*
X215210627Y-160947963D01*
X215144442Y-160954482D01*
X215078260Y-160961000D01*
X214689740Y-160961000D01*
X214623558Y-160954482D01*
X214557373Y-160947963D01*
X214387534Y-160896443D01*
X214231009Y-160812778D01*
X214193195Y-160781745D01*
X214093814Y-160700186D01*
X214010552Y-160598729D01*
X213981222Y-160562991D01*
X213897557Y-160406466D01*
X213846037Y-160236627D01*
X213828641Y-160060000D01*
X213846037Y-159883373D01*
X213897557Y-159713534D01*
X213981222Y-159557009D01*
X214010552Y-159521271D01*
X214093814Y-159419814D01*
X214195271Y-159336552D01*
X214231009Y-159307222D01*
X214387534Y-159223557D01*
X214557373Y-159172037D01*
X214623558Y-159165518D01*
X214689740Y-159159000D01*
X215078260Y-159159000D01*
X215144442Y-159165518D01*
G37*
G36*
X173338499Y-157783445D02*
G01*
X173375995Y-157794820D01*
X173410554Y-157813292D01*
X173440847Y-157838153D01*
X173465708Y-157868446D01*
X173484180Y-157903005D01*
X173495555Y-157940501D01*
X173500000Y-157985638D01*
X173500000Y-158724362D01*
X173495555Y-158769499D01*
X173484180Y-158806995D01*
X173465708Y-158841554D01*
X173440847Y-158871847D01*
X173410554Y-158896708D01*
X173375995Y-158915180D01*
X173338499Y-158926555D01*
X173293362Y-158931000D01*
X172654638Y-158931000D01*
X172609501Y-158926555D01*
X172572005Y-158915180D01*
X172537446Y-158896708D01*
X172507153Y-158871847D01*
X172482292Y-158841554D01*
X172463820Y-158806995D01*
X172452445Y-158769499D01*
X172448000Y-158724362D01*
X172448000Y-157985638D01*
X172452445Y-157940501D01*
X172463820Y-157903005D01*
X172482292Y-157868446D01*
X172507153Y-157838153D01*
X172537446Y-157813292D01*
X172572005Y-157794820D01*
X172609501Y-157783445D01*
X172654638Y-157779000D01*
X173293362Y-157779000D01*
X173338499Y-157783445D01*
G37*
G36*
X185847000Y-158683000D02*
G01*
X181945000Y-158683000D01*
X181945000Y-156581000D01*
X185847000Y-156581000D01*
X185847000Y-158683000D01*
G37*
G36*
X176671562Y-155796181D02*
G01*
X176706481Y-155806774D01*
X176738663Y-155823976D01*
X176766873Y-155847127D01*
X176790024Y-155875337D01*
X176807226Y-155907519D01*
X176817819Y-155942438D01*
X176822000Y-155984895D01*
X176822000Y-157451105D01*
X176817819Y-157493562D01*
X176807226Y-157528481D01*
X176790024Y-157560663D01*
X176766873Y-157588873D01*
X176738663Y-157612024D01*
X176706481Y-157629226D01*
X176671562Y-157639819D01*
X176629105Y-157644000D01*
X175487895Y-157644000D01*
X175445438Y-157639819D01*
X175410519Y-157629226D01*
X175378337Y-157612024D01*
X175350127Y-157588873D01*
X175326976Y-157560663D01*
X175309774Y-157528481D01*
X175299181Y-157493562D01*
X175295000Y-157451105D01*
X175295000Y-155984895D01*
X175299181Y-155942438D01*
X175309774Y-155907519D01*
X175326976Y-155875337D01*
X175350127Y-155847127D01*
X175378337Y-155823976D01*
X175410519Y-155806774D01*
X175445438Y-155796181D01*
X175487895Y-155792000D01*
X176629105Y-155792000D01*
X176671562Y-155796181D01*
G37*
G36*
X179646562Y-155796181D02*
G01*
X179681481Y-155806774D01*
X179713663Y-155823976D01*
X179741873Y-155847127D01*
X179765024Y-155875337D01*
X179782226Y-155907519D01*
X179792819Y-155942438D01*
X179797000Y-155984895D01*
X179797000Y-157451105D01*
X179792819Y-157493562D01*
X179782226Y-157528481D01*
X179765024Y-157560663D01*
X179741873Y-157588873D01*
X179713663Y-157612024D01*
X179681481Y-157629226D01*
X179646562Y-157639819D01*
X179604105Y-157644000D01*
X178462895Y-157644000D01*
X178420438Y-157639819D01*
X178385519Y-157629226D01*
X178353337Y-157612024D01*
X178325127Y-157588873D01*
X178301976Y-157560663D01*
X178284774Y-157528481D01*
X178274181Y-157493562D01*
X178270000Y-157451105D01*
X178270000Y-155984895D01*
X178274181Y-155942438D01*
X178284774Y-155907519D01*
X178301976Y-155875337D01*
X178325127Y-155847127D01*
X178353337Y-155823976D01*
X178385519Y-155806774D01*
X178420438Y-155796181D01*
X178462895Y-155792000D01*
X179604105Y-155792000D01*
X179646562Y-155796181D01*
G37*
G36*
X173338499Y-156033445D02*
G01*
X173375995Y-156044820D01*
X173410554Y-156063292D01*
X173440847Y-156088153D01*
X173465708Y-156118446D01*
X173484180Y-156153005D01*
X173495555Y-156190501D01*
X173500000Y-156235638D01*
X173500000Y-156974362D01*
X173495555Y-157019499D01*
X173484180Y-157056995D01*
X173465708Y-157091554D01*
X173440847Y-157121847D01*
X173410554Y-157146708D01*
X173375995Y-157165180D01*
X173338499Y-157176555D01*
X173293362Y-157181000D01*
X172654638Y-157181000D01*
X172609501Y-157176555D01*
X172572005Y-157165180D01*
X172537446Y-157146708D01*
X172507153Y-157121847D01*
X172482292Y-157091554D01*
X172463820Y-157056995D01*
X172452445Y-157019499D01*
X172448000Y-156974362D01*
X172448000Y-156235638D01*
X172452445Y-156190501D01*
X172463820Y-156153005D01*
X172482292Y-156118446D01*
X172507153Y-156088153D01*
X172537446Y-156063292D01*
X172572005Y-156044820D01*
X172609501Y-156033445D01*
X172654638Y-156029000D01*
X173293362Y-156029000D01*
X173338499Y-156033445D01*
G37*
G36*
X208979104Y-153904627D02*
G01*
X209240410Y-153956604D01*
X209522674Y-154073521D01*
X209776705Y-154243259D01*
X209992741Y-154459295D01*
X210162479Y-154713326D01*
X210279396Y-154995590D01*
X210279396Y-154995591D01*
X210332186Y-155260981D01*
X210339000Y-155295240D01*
X210339000Y-155600760D01*
X210279396Y-155900410D01*
X210162479Y-156182674D01*
X209992741Y-156436705D01*
X209776705Y-156652741D01*
X209522674Y-156822479D01*
X209240410Y-156939396D01*
X209090585Y-156969198D01*
X208940761Y-156999000D01*
X208635239Y-156999000D01*
X208485415Y-156969198D01*
X208335590Y-156939396D01*
X208053326Y-156822479D01*
X207799295Y-156652741D01*
X207583259Y-156436705D01*
X207413521Y-156182674D01*
X207296604Y-155900410D01*
X207237000Y-155600760D01*
X207237000Y-155295240D01*
X207243815Y-155260981D01*
X207296604Y-154995591D01*
X207296604Y-154995590D01*
X207413521Y-154713326D01*
X207583259Y-154459295D01*
X207799295Y-154243259D01*
X208053326Y-154073521D01*
X208335590Y-153956604D01*
X208596896Y-153904627D01*
X208635239Y-153897000D01*
X208940761Y-153897000D01*
X208979104Y-153904627D01*
G37*
G36*
X183147562Y-153853681D02*
G01*
X183182481Y-153864274D01*
X183214663Y-153881476D01*
X183242873Y-153904627D01*
X183266024Y-153932837D01*
X183283226Y-153965019D01*
X183293819Y-153999938D01*
X183298000Y-154042395D01*
X183298000Y-155183605D01*
X183293819Y-155226062D01*
X183283226Y-155260981D01*
X183266024Y-155293163D01*
X183242873Y-155321373D01*
X183214663Y-155344524D01*
X183182481Y-155361726D01*
X183147562Y-155372319D01*
X183105105Y-155376500D01*
X181638895Y-155376500D01*
X181596438Y-155372319D01*
X181561519Y-155361726D01*
X181529337Y-155344524D01*
X181501127Y-155321373D01*
X181477976Y-155293163D01*
X181460774Y-155260981D01*
X181450181Y-155226062D01*
X181446000Y-155183605D01*
X181446000Y-154042395D01*
X181450181Y-153999938D01*
X181460774Y-153965019D01*
X181477976Y-153932837D01*
X181501127Y-153904627D01*
X181529337Y-153881476D01*
X181561519Y-153864274D01*
X181596438Y-153853681D01*
X181638895Y-153849500D01*
X183105105Y-153849500D01*
X183147562Y-153853681D01*
G37*
G36*
X188227562Y-153853681D02*
G01*
X188262481Y-153864274D01*
X188294663Y-153881476D01*
X188322873Y-153904627D01*
X188346024Y-153932837D01*
X188363226Y-153965019D01*
X188373819Y-153999938D01*
X188378000Y-154042395D01*
X188378000Y-155183605D01*
X188373819Y-155226062D01*
X188363226Y-155260981D01*
X188346024Y-155293163D01*
X188322873Y-155321373D01*
X188294663Y-155344524D01*
X188262481Y-155361726D01*
X188227562Y-155372319D01*
X188185105Y-155376500D01*
X186718895Y-155376500D01*
X186676438Y-155372319D01*
X186641519Y-155361726D01*
X186609337Y-155344524D01*
X186581127Y-155321373D01*
X186557976Y-155293163D01*
X186540774Y-155260981D01*
X186530181Y-155226062D01*
X186526000Y-155183605D01*
X186526000Y-154042395D01*
X186530181Y-153999938D01*
X186540774Y-153965019D01*
X186557976Y-153932837D01*
X186581127Y-153904627D01*
X186609337Y-153881476D01*
X186641519Y-153864274D01*
X186676438Y-153853681D01*
X186718895Y-153849500D01*
X188185105Y-153849500D01*
X188227562Y-153853681D01*
G37*
G36*
X215767600Y-152518989D02*
G01*
X215800652Y-152529015D01*
X215831103Y-152545292D01*
X215857799Y-152567201D01*
X215879708Y-152593897D01*
X215895985Y-152624348D01*
X215906011Y-152657400D01*
X215910000Y-152697903D01*
X215910000Y-154134097D01*
X215906011Y-154174600D01*
X215895985Y-154207652D01*
X215879708Y-154238103D01*
X215857799Y-154264799D01*
X215831103Y-154286708D01*
X215800652Y-154302985D01*
X215767600Y-154313011D01*
X215727097Y-154317000D01*
X214040903Y-154317000D01*
X214000400Y-154313011D01*
X213967348Y-154302985D01*
X213936897Y-154286708D01*
X213910201Y-154264799D01*
X213888292Y-154238103D01*
X213872015Y-154207652D01*
X213861989Y-154174600D01*
X213858000Y-154134097D01*
X213858000Y-152697903D01*
X213861989Y-152657400D01*
X213872015Y-152624348D01*
X213888292Y-152593897D01*
X213910201Y-152567201D01*
X213936897Y-152545292D01*
X213967348Y-152529015D01*
X214000400Y-152518989D01*
X214040903Y-152515000D01*
X215727097Y-152515000D01*
X215767600Y-152518989D01*
G37*
G36*
X173084499Y-153098445D02*
G01*
X173121995Y-153109820D01*
X173156554Y-153128292D01*
X173186847Y-153153153D01*
X173211708Y-153183446D01*
X173230180Y-153218005D01*
X173241555Y-153255501D01*
X173246000Y-153300638D01*
X173246000Y-154039362D01*
X173241555Y-154084499D01*
X173230180Y-154121995D01*
X173211708Y-154156554D01*
X173186847Y-154186847D01*
X173156554Y-154211708D01*
X173121995Y-154230180D01*
X173084499Y-154241555D01*
X173039362Y-154246000D01*
X172400638Y-154246000D01*
X172355501Y-154241555D01*
X172318005Y-154230180D01*
X172283446Y-154211708D01*
X172253153Y-154186847D01*
X172228292Y-154156554D01*
X172209820Y-154121995D01*
X172198445Y-154084499D01*
X172194000Y-154039362D01*
X172194000Y-153300638D01*
X172198445Y-153255501D01*
X172209820Y-153218005D01*
X172228292Y-153183446D01*
X172253153Y-153153153D01*
X172283446Y-153128292D01*
X172318005Y-153109820D01*
X172355501Y-153098445D01*
X172400638Y-153094000D01*
X173039362Y-153094000D01*
X173084499Y-153098445D01*
G37*
G36*
X179184763Y-153004906D02*
G01*
X179187707Y-153005800D01*
X179190420Y-153007249D01*
X179192798Y-153009202D01*
X179194751Y-153011580D01*
X179196200Y-153014293D01*
X179197094Y-153017237D01*
X179198000Y-153026440D01*
X179198000Y-153673560D01*
X179197094Y-153682763D01*
X179196200Y-153685707D01*
X179194751Y-153688420D01*
X179192798Y-153690798D01*
X179190420Y-153692751D01*
X179187707Y-153694200D01*
X179184763Y-153695094D01*
X179175560Y-153696000D01*
X177748440Y-153696000D01*
X177739237Y-153695094D01*
X177736293Y-153694200D01*
X177733580Y-153692751D01*
X177731202Y-153690798D01*
X177729249Y-153688420D01*
X177727800Y-153685707D01*
X177726906Y-153682763D01*
X177726000Y-153673560D01*
X177726000Y-153026440D01*
X177726906Y-153017237D01*
X177727800Y-153014293D01*
X177729249Y-153011580D01*
X177731202Y-153009202D01*
X177733580Y-153007249D01*
X177736293Y-153005800D01*
X177739237Y-153004906D01*
X177748440Y-153004000D01*
X179175560Y-153004000D01*
X179184763Y-153004906D01*
G37*
G36*
X176844763Y-153004906D02*
G01*
X176847707Y-153005800D01*
X176850420Y-153007249D01*
X176852798Y-153009202D01*
X176854751Y-153011580D01*
X176856200Y-153014293D01*
X176857094Y-153017237D01*
X176858000Y-153026440D01*
X176858000Y-153673560D01*
X176857094Y-153682763D01*
X176856200Y-153685707D01*
X176854751Y-153688420D01*
X176852798Y-153690798D01*
X176850420Y-153692751D01*
X176847707Y-153694200D01*
X176844763Y-153695094D01*
X176835560Y-153696000D01*
X175408440Y-153696000D01*
X175399237Y-153695094D01*
X175396293Y-153694200D01*
X175393580Y-153692751D01*
X175391202Y-153690798D01*
X175389249Y-153688420D01*
X175387800Y-153685707D01*
X175386906Y-153682763D01*
X175386000Y-153673560D01*
X175386000Y-153026440D01*
X175386906Y-153017237D01*
X175387800Y-153014293D01*
X175389249Y-153011580D01*
X175391202Y-153009202D01*
X175393580Y-153007249D01*
X175396293Y-153005800D01*
X175399237Y-153004906D01*
X175408440Y-153004000D01*
X176835560Y-153004000D01*
X176844763Y-153004906D01*
G37*
G36*
X179184763Y-152054906D02*
G01*
X179187707Y-152055800D01*
X179190420Y-152057249D01*
X179192798Y-152059202D01*
X179194751Y-152061580D01*
X179196200Y-152064293D01*
X179197094Y-152067237D01*
X179198000Y-152076440D01*
X179198000Y-152723560D01*
X179197094Y-152732763D01*
X179196200Y-152735707D01*
X179194751Y-152738420D01*
X179192798Y-152740798D01*
X179190420Y-152742751D01*
X179187707Y-152744200D01*
X179184763Y-152745094D01*
X179175560Y-152746000D01*
X177748440Y-152746000D01*
X177739237Y-152745094D01*
X177736293Y-152744200D01*
X177733580Y-152742751D01*
X177731202Y-152740798D01*
X177729249Y-152738420D01*
X177727800Y-152735707D01*
X177726906Y-152732763D01*
X177726000Y-152723560D01*
X177726000Y-152076440D01*
X177726906Y-152067237D01*
X177727800Y-152064293D01*
X177729249Y-152061580D01*
X177731202Y-152059202D01*
X177733580Y-152057249D01*
X177736293Y-152055800D01*
X177739237Y-152054906D01*
X177748440Y-152054000D01*
X179175560Y-152054000D01*
X179184763Y-152054906D01*
G37*
G36*
X176844763Y-152054906D02*
G01*
X176847707Y-152055800D01*
X176850420Y-152057249D01*
X176852798Y-152059202D01*
X176854751Y-152061580D01*
X176856200Y-152064293D01*
X176857094Y-152067237D01*
X176858000Y-152076440D01*
X176858000Y-152723560D01*
X176857094Y-152732763D01*
X176856200Y-152735707D01*
X176854751Y-152738420D01*
X176852798Y-152740798D01*
X176850420Y-152742751D01*
X176847707Y-152744200D01*
X176844763Y-152745094D01*
X176835560Y-152746000D01*
X175408440Y-152746000D01*
X175399237Y-152745094D01*
X175396293Y-152744200D01*
X175393580Y-152742751D01*
X175391202Y-152740798D01*
X175389249Y-152738420D01*
X175387800Y-152735707D01*
X175386906Y-152732763D01*
X175386000Y-152723560D01*
X175386000Y-152076440D01*
X175386906Y-152067237D01*
X175387800Y-152064293D01*
X175389249Y-152061580D01*
X175391202Y-152059202D01*
X175393580Y-152057249D01*
X175396293Y-152055800D01*
X175399237Y-152054906D01*
X175408440Y-152054000D01*
X176835560Y-152054000D01*
X176844763Y-152054906D01*
G37*
G36*
X173084499Y-151348445D02*
G01*
X173121995Y-151359820D01*
X173156554Y-151378292D01*
X173186847Y-151403153D01*
X173211708Y-151433446D01*
X173230180Y-151468005D01*
X173241555Y-151505501D01*
X173246000Y-151550638D01*
X173246000Y-152289362D01*
X173241555Y-152334499D01*
X173230180Y-152371995D01*
X173211708Y-152406554D01*
X173186847Y-152436847D01*
X173156554Y-152461708D01*
X173121995Y-152480180D01*
X173084499Y-152491555D01*
X173039362Y-152496000D01*
X172400638Y-152496000D01*
X172355501Y-152491555D01*
X172318005Y-152480180D01*
X172283446Y-152461708D01*
X172253153Y-152436847D01*
X172228292Y-152406554D01*
X172209820Y-152371995D01*
X172198445Y-152334499D01*
X172194000Y-152289362D01*
X172194000Y-151550638D01*
X172198445Y-151505501D01*
X172209820Y-151468005D01*
X172228292Y-151433446D01*
X172253153Y-151403153D01*
X172283446Y-151378292D01*
X172318005Y-151359820D01*
X172355501Y-151348445D01*
X172400638Y-151344000D01*
X173039362Y-151344000D01*
X173084499Y-151348445D01*
G37*
G36*
X188227562Y-150878681D02*
G01*
X188262481Y-150889274D01*
X188294663Y-150906476D01*
X188322873Y-150929627D01*
X188346024Y-150957837D01*
X188363226Y-150990019D01*
X188373819Y-151024938D01*
X188378000Y-151067395D01*
X188378000Y-152208605D01*
X188373819Y-152251062D01*
X188363226Y-152285981D01*
X188346024Y-152318163D01*
X188322873Y-152346373D01*
X188294663Y-152369524D01*
X188262481Y-152386726D01*
X188227562Y-152397319D01*
X188185105Y-152401500D01*
X186718895Y-152401500D01*
X186676438Y-152397319D01*
X186641519Y-152386726D01*
X186609337Y-152369524D01*
X186581127Y-152346373D01*
X186557976Y-152318163D01*
X186540774Y-152285981D01*
X186530181Y-152251062D01*
X186526000Y-152208605D01*
X186526000Y-151067395D01*
X186530181Y-151024938D01*
X186540774Y-150990019D01*
X186557976Y-150957837D01*
X186581127Y-150929627D01*
X186609337Y-150906476D01*
X186641519Y-150889274D01*
X186676438Y-150878681D01*
X186718895Y-150874500D01*
X188185105Y-150874500D01*
X188227562Y-150878681D01*
G37*
G36*
X183147562Y-150878681D02*
G01*
X183182481Y-150889274D01*
X183214663Y-150906476D01*
X183242873Y-150929627D01*
X183266024Y-150957837D01*
X183283226Y-150990019D01*
X183293819Y-151024938D01*
X183298000Y-151067395D01*
X183298000Y-152208605D01*
X183293819Y-152251062D01*
X183283226Y-152285981D01*
X183266024Y-152318163D01*
X183242873Y-152346373D01*
X183214663Y-152369524D01*
X183182481Y-152386726D01*
X183147562Y-152397319D01*
X183105105Y-152401500D01*
X181638895Y-152401500D01*
X181596438Y-152397319D01*
X181561519Y-152386726D01*
X181529337Y-152369524D01*
X181501127Y-152346373D01*
X181477976Y-152318163D01*
X181460774Y-152285981D01*
X181450181Y-152251062D01*
X181446000Y-152208605D01*
X181446000Y-151067395D01*
X181450181Y-151024938D01*
X181460774Y-150990019D01*
X181477976Y-150957837D01*
X181501127Y-150929627D01*
X181529337Y-150906476D01*
X181561519Y-150889274D01*
X181596438Y-150878681D01*
X181638895Y-150874500D01*
X183105105Y-150874500D01*
X183147562Y-150878681D01*
G37*
G36*
X215119442Y-150021518D02*
G01*
X215185627Y-150028037D01*
X215355466Y-150079557D01*
X215511991Y-150163222D01*
X215547729Y-150192552D01*
X215649186Y-150275814D01*
X215732448Y-150377271D01*
X215761778Y-150413009D01*
X215845443Y-150569534D01*
X215896963Y-150739373D01*
X215914359Y-150916000D01*
X215896963Y-151092627D01*
X215845443Y-151262466D01*
X215761778Y-151418991D01*
X215749915Y-151433446D01*
X215649186Y-151556186D01*
X215547729Y-151639448D01*
X215511991Y-151668778D01*
X215511989Y-151668779D01*
X215360284Y-151749868D01*
X215355466Y-151752443D01*
X215185627Y-151803963D01*
X215119442Y-151810482D01*
X215053260Y-151817000D01*
X214714740Y-151817000D01*
X214648558Y-151810482D01*
X214582373Y-151803963D01*
X214412534Y-151752443D01*
X214407717Y-151749868D01*
X214256011Y-151668779D01*
X214256009Y-151668778D01*
X214220271Y-151639448D01*
X214118814Y-151556186D01*
X214018085Y-151433446D01*
X214006222Y-151418991D01*
X213922557Y-151262466D01*
X213871037Y-151092627D01*
X213853641Y-150916000D01*
X213871037Y-150739373D01*
X213922557Y-150569534D01*
X214006222Y-150413009D01*
X214035552Y-150377271D01*
X214118814Y-150275814D01*
X214220271Y-150192552D01*
X214256009Y-150163222D01*
X214412534Y-150079557D01*
X214582373Y-150028037D01*
X214648558Y-150021518D01*
X214714740Y-150015000D01*
X215053260Y-150015000D01*
X215119442Y-150021518D01*
G37*
G36*
X179184763Y-151104906D02*
G01*
X179187707Y-151105800D01*
X179190420Y-151107249D01*
X179192798Y-151109202D01*
X179194751Y-151111580D01*
X179196200Y-151114293D01*
X179197094Y-151117237D01*
X179198000Y-151126440D01*
X179198000Y-151773560D01*
X179197094Y-151782763D01*
X179196200Y-151785707D01*
X179194751Y-151788420D01*
X179192798Y-151790798D01*
X179190420Y-151792751D01*
X179187707Y-151794200D01*
X179184763Y-151795094D01*
X179175560Y-151796000D01*
X177748440Y-151796000D01*
X177739237Y-151795094D01*
X177736293Y-151794200D01*
X177733580Y-151792751D01*
X177731202Y-151790798D01*
X177729249Y-151788420D01*
X177727800Y-151785707D01*
X177726906Y-151782763D01*
X177726000Y-151773560D01*
X177726000Y-151126440D01*
X177726906Y-151117237D01*
X177727800Y-151114293D01*
X177729249Y-151111580D01*
X177731202Y-151109202D01*
X177733580Y-151107249D01*
X177736293Y-151105800D01*
X177739237Y-151104906D01*
X177748440Y-151104000D01*
X179175560Y-151104000D01*
X179184763Y-151104906D01*
G37*
G36*
X176844763Y-151104906D02*
G01*
X176847707Y-151105800D01*
X176850420Y-151107249D01*
X176852798Y-151109202D01*
X176854751Y-151111580D01*
X176856200Y-151114293D01*
X176857094Y-151117237D01*
X176858000Y-151126440D01*
X176858000Y-151773560D01*
X176857094Y-151782763D01*
X176856200Y-151785707D01*
X176854751Y-151788420D01*
X176852798Y-151790798D01*
X176850420Y-151792751D01*
X176847707Y-151794200D01*
X176844763Y-151795094D01*
X176835560Y-151796000D01*
X175408440Y-151796000D01*
X175399237Y-151795094D01*
X175396293Y-151794200D01*
X175393580Y-151792751D01*
X175391202Y-151790798D01*
X175389249Y-151788420D01*
X175387800Y-151785707D01*
X175386906Y-151782763D01*
X175386000Y-151773560D01*
X175386000Y-151126440D01*
X175386906Y-151117237D01*
X175387800Y-151114293D01*
X175389249Y-151111580D01*
X175391202Y-151109202D01*
X175393580Y-151107249D01*
X175396293Y-151105800D01*
X175399237Y-151104906D01*
X175408440Y-151104000D01*
X176835560Y-151104000D01*
X176844763Y-151104906D01*
G37*
G36*
X194940585Y-147876802D02*
G01*
X195090410Y-147906604D01*
X195372674Y-148023521D01*
X195626705Y-148193259D01*
X195842741Y-148409295D01*
X196012479Y-148663326D01*
X196129396Y-148945590D01*
X196189000Y-149245240D01*
X196189000Y-149550760D01*
X196129396Y-149850410D01*
X196012479Y-150132674D01*
X195842741Y-150386705D01*
X195626705Y-150602741D01*
X195372674Y-150772479D01*
X195090410Y-150889396D01*
X194956662Y-150916000D01*
X194790761Y-150949000D01*
X194485239Y-150949000D01*
X194319338Y-150916000D01*
X194185590Y-150889396D01*
X193903326Y-150772479D01*
X193649295Y-150602741D01*
X193433259Y-150386705D01*
X193263521Y-150132674D01*
X193146604Y-149850410D01*
X193087000Y-149550760D01*
X193087000Y-149245240D01*
X193146604Y-148945590D01*
X193263521Y-148663326D01*
X193433259Y-148409295D01*
X193649295Y-148193259D01*
X193903326Y-148023521D01*
X194185590Y-147906604D01*
X194335415Y-147876802D01*
X194485239Y-147847000D01*
X194790761Y-147847000D01*
X194940585Y-147876802D01*
G37*
G36*
X207217487Y-148146996D02*
G01*
X207454253Y-148245068D01*
X207454255Y-148245069D01*
X207667339Y-148387447D01*
X207848553Y-148568661D01*
X207978051Y-148762468D01*
X207990932Y-148781747D01*
X208089004Y-149018513D01*
X208139000Y-149269861D01*
X208139000Y-149526139D01*
X208089004Y-149777487D01*
X208058798Y-149850410D01*
X207990931Y-150014255D01*
X207848553Y-150227339D01*
X207667339Y-150408553D01*
X207454255Y-150550931D01*
X207454254Y-150550932D01*
X207454253Y-150550932D01*
X207217487Y-150649004D01*
X206966139Y-150699000D01*
X206709861Y-150699000D01*
X206458513Y-150649004D01*
X206221747Y-150550932D01*
X206221746Y-150550932D01*
X206221745Y-150550931D01*
X206008661Y-150408553D01*
X205827447Y-150227339D01*
X205685069Y-150014255D01*
X205617202Y-149850410D01*
X205586996Y-149777487D01*
X205537000Y-149526139D01*
X205537000Y-149269861D01*
X205586996Y-149018513D01*
X205685068Y-148781747D01*
X205697950Y-148762468D01*
X205827447Y-148568661D01*
X206008661Y-148387447D01*
X206221745Y-148245069D01*
X206221747Y-148245068D01*
X206458513Y-148146996D01*
X206709861Y-148097000D01*
X206966139Y-148097000D01*
X207217487Y-148146996D01*
G37*
G36*
X179347000Y-149666000D02*
G01*
X175745000Y-149666000D01*
X175745000Y-147514000D01*
X179347000Y-147514000D01*
X179347000Y-149666000D01*
G37*
G36*
X215119443Y-147521519D02*
G01*
X215185627Y-147528037D01*
X215355466Y-147579557D01*
X215511991Y-147663222D01*
X215547729Y-147692552D01*
X215649186Y-147775814D01*
X215732448Y-147877271D01*
X215761778Y-147913009D01*
X215845443Y-148069534D01*
X215896963Y-148239373D01*
X215914359Y-148416000D01*
X215896963Y-148592627D01*
X215845443Y-148762466D01*
X215761778Y-148918991D01*
X215739948Y-148945591D01*
X215649186Y-149056186D01*
X215547729Y-149139448D01*
X215511991Y-149168778D01*
X215355466Y-149252443D01*
X215185627Y-149303963D01*
X215119442Y-149310482D01*
X215053260Y-149317000D01*
X214714740Y-149317000D01*
X214648558Y-149310482D01*
X214582373Y-149303963D01*
X214412534Y-149252443D01*
X214256009Y-149168778D01*
X214220271Y-149139448D01*
X214118814Y-149056186D01*
X214028052Y-148945591D01*
X214006222Y-148918991D01*
X213922557Y-148762466D01*
X213871037Y-148592627D01*
X213853641Y-148416000D01*
X213871037Y-148239373D01*
X213922557Y-148069534D01*
X214006222Y-147913009D01*
X214035552Y-147877271D01*
X214118814Y-147775814D01*
X214220271Y-147692552D01*
X214256009Y-147663222D01*
X214412534Y-147579557D01*
X214582373Y-147528037D01*
X214648557Y-147521519D01*
X214714740Y-147515000D01*
X215053260Y-147515000D01*
X215119443Y-147521519D01*
G37*
G36*
X184689000Y-148779000D02*
G01*
X182087000Y-148779000D01*
X182087000Y-146877000D01*
X184689000Y-146877000D01*
X184689000Y-148779000D01*
G37*
G36*
X188689000Y-148779000D02*
G01*
X186087000Y-148779000D01*
X186087000Y-146877000D01*
X188689000Y-146877000D01*
X188689000Y-148779000D01*
G37*
G36*
X179347000Y-146916000D02*
G01*
X175745000Y-146916000D01*
X175745000Y-144764000D01*
X179347000Y-144764000D01*
X179347000Y-146916000D01*
G37*
G36*
X215119442Y-145021518D02*
G01*
X215185627Y-145028037D01*
X215355466Y-145079557D01*
X215511991Y-145163222D01*
X215547729Y-145192552D01*
X215649186Y-145275814D01*
X215732448Y-145377271D01*
X215761778Y-145413009D01*
X215845443Y-145569534D01*
X215896963Y-145739373D01*
X215914359Y-145916000D01*
X215896963Y-146092627D01*
X215845443Y-146262466D01*
X215761778Y-146418991D01*
X215732448Y-146454729D01*
X215649186Y-146556186D01*
X215547729Y-146639448D01*
X215511991Y-146668778D01*
X215355466Y-146752443D01*
X215185627Y-146803963D01*
X215119442Y-146810482D01*
X215053260Y-146817000D01*
X214714740Y-146817000D01*
X214648558Y-146810482D01*
X214582373Y-146803963D01*
X214412534Y-146752443D01*
X214256009Y-146668778D01*
X214220271Y-146639448D01*
X214118814Y-146556186D01*
X214035552Y-146454729D01*
X214006222Y-146418991D01*
X213922557Y-146262466D01*
X213871037Y-146092627D01*
X213853641Y-145916000D01*
X213871037Y-145739373D01*
X213922557Y-145569534D01*
X214006222Y-145413009D01*
X214035552Y-145377271D01*
X214118814Y-145275814D01*
X214220271Y-145192552D01*
X214256009Y-145163222D01*
X214412534Y-145079557D01*
X214582373Y-145028037D01*
X214648558Y-145021518D01*
X214714740Y-145015000D01*
X215053260Y-145015000D01*
X215119442Y-145021518D01*
G37*
G36*
X196463000Y-145685000D02*
G01*
X195461000Y-145685000D01*
X195461000Y-144383000D01*
X196463000Y-144383000D01*
X196463000Y-145685000D01*
G37*
G36*
X199763000Y-145685000D02*
G01*
X198761000Y-145685000D01*
X198761000Y-144383000D01*
X199763000Y-144383000D01*
X199763000Y-145685000D01*
G37*
G36*
X204845000Y-145431000D02*
G01*
X203843000Y-145431000D01*
X203843000Y-144129000D01*
X204845000Y-144129000D01*
X204845000Y-145431000D01*
G37*
G36*
X208145000Y-145431000D02*
G01*
X207143000Y-145431000D01*
X207143000Y-144129000D01*
X208145000Y-144129000D01*
X208145000Y-145431000D01*
G37*
G36*
X185433562Y-142750681D02*
G01*
X185468481Y-142761274D01*
X185500663Y-142778476D01*
X185528873Y-142801627D01*
X185552024Y-142829837D01*
X185569226Y-142862019D01*
X185579819Y-142896938D01*
X185584000Y-142939395D01*
X185584000Y-144080605D01*
X185579819Y-144123062D01*
X185569226Y-144157981D01*
X185552024Y-144190163D01*
X185528873Y-144218373D01*
X185500663Y-144241524D01*
X185468481Y-144258726D01*
X185433562Y-144269319D01*
X185391105Y-144273500D01*
X183924895Y-144273500D01*
X183882438Y-144269319D01*
X183847519Y-144258726D01*
X183815337Y-144241524D01*
X183787127Y-144218373D01*
X183763976Y-144190163D01*
X183746774Y-144157981D01*
X183736181Y-144123062D01*
X183732000Y-144080605D01*
X183732000Y-142939395D01*
X183736181Y-142896938D01*
X183746774Y-142862019D01*
X183763976Y-142829837D01*
X183787127Y-142801627D01*
X183815337Y-142778476D01*
X183847519Y-142761274D01*
X183882438Y-142750681D01*
X183924895Y-142746500D01*
X185391105Y-142746500D01*
X185433562Y-142750681D01*
G37*
G36*
X181623562Y-142750681D02*
G01*
X181658481Y-142761274D01*
X181690663Y-142778476D01*
X181718873Y-142801627D01*
X181742024Y-142829837D01*
X181759226Y-142862019D01*
X181769819Y-142896938D01*
X181774000Y-142939395D01*
X181774000Y-144080605D01*
X181769819Y-144123062D01*
X181759226Y-144157981D01*
X181742024Y-144190163D01*
X181718873Y-144218373D01*
X181690663Y-144241524D01*
X181658481Y-144258726D01*
X181623562Y-144269319D01*
X181581105Y-144273500D01*
X180114895Y-144273500D01*
X180072438Y-144269319D01*
X180037519Y-144258726D01*
X180005337Y-144241524D01*
X179977127Y-144218373D01*
X179953976Y-144190163D01*
X179936774Y-144157981D01*
X179926181Y-144123062D01*
X179922000Y-144080605D01*
X179922000Y-142939395D01*
X179926181Y-142896938D01*
X179936774Y-142862019D01*
X179953976Y-142829837D01*
X179977127Y-142801627D01*
X180005337Y-142778476D01*
X180037519Y-142761274D01*
X180072438Y-142750681D01*
X180114895Y-142746500D01*
X181581105Y-142746500D01*
X181623562Y-142750681D01*
G37*
G36*
X188989562Y-142677681D02*
G01*
X189024481Y-142688274D01*
X189056663Y-142705476D01*
X189084873Y-142728627D01*
X189108024Y-142756837D01*
X189125226Y-142789019D01*
X189135819Y-142823938D01*
X189140000Y-142866395D01*
X189140000Y-144007605D01*
X189135819Y-144050062D01*
X189125226Y-144084981D01*
X189108024Y-144117163D01*
X189084873Y-144145373D01*
X189056663Y-144168524D01*
X189024481Y-144185726D01*
X188989562Y-144196319D01*
X188947105Y-144200500D01*
X187480895Y-144200500D01*
X187438438Y-144196319D01*
X187403519Y-144185726D01*
X187371337Y-144168524D01*
X187343127Y-144145373D01*
X187319976Y-144117163D01*
X187302774Y-144084981D01*
X187292181Y-144050062D01*
X187288000Y-144007605D01*
X187288000Y-142866395D01*
X187292181Y-142823938D01*
X187302774Y-142789019D01*
X187319976Y-142756837D01*
X187343127Y-142728627D01*
X187371337Y-142705476D01*
X187403519Y-142688274D01*
X187438438Y-142677681D01*
X187480895Y-142673500D01*
X188947105Y-142673500D01*
X188989562Y-142677681D01*
G37*
G36*
X178468499Y-141718445D02*
G01*
X178505995Y-141729820D01*
X178540554Y-141748292D01*
X178570847Y-141773153D01*
X178595708Y-141803446D01*
X178614180Y-141838005D01*
X178625555Y-141875501D01*
X178630000Y-141920638D01*
X178630000Y-142559362D01*
X178625555Y-142604499D01*
X178614180Y-142641995D01*
X178595708Y-142676554D01*
X178570847Y-142706847D01*
X178540554Y-142731708D01*
X178505995Y-142750180D01*
X178468499Y-142761555D01*
X178423362Y-142766000D01*
X177684638Y-142766000D01*
X177639501Y-142761555D01*
X177602005Y-142750180D01*
X177567446Y-142731708D01*
X177537153Y-142706847D01*
X177512292Y-142676554D01*
X177493820Y-142641995D01*
X177482445Y-142604499D01*
X177478000Y-142559362D01*
X177478000Y-141920638D01*
X177482445Y-141875501D01*
X177493820Y-141838005D01*
X177512292Y-141803446D01*
X177537153Y-141773153D01*
X177567446Y-141748292D01*
X177602005Y-141729820D01*
X177639501Y-141718445D01*
X177684638Y-141714000D01*
X178423362Y-141714000D01*
X178468499Y-141718445D01*
G37*
G36*
X176718499Y-141718445D02*
G01*
X176755995Y-141729820D01*
X176790554Y-141748292D01*
X176820847Y-141773153D01*
X176845708Y-141803446D01*
X176864180Y-141838005D01*
X176875555Y-141875501D01*
X176880000Y-141920638D01*
X176880000Y-142559362D01*
X176875555Y-142604499D01*
X176864180Y-142641995D01*
X176845708Y-142676554D01*
X176820847Y-142706847D01*
X176790554Y-142731708D01*
X176755995Y-142750180D01*
X176718499Y-142761555D01*
X176673362Y-142766000D01*
X175934638Y-142766000D01*
X175889501Y-142761555D01*
X175852005Y-142750180D01*
X175817446Y-142731708D01*
X175787153Y-142706847D01*
X175762292Y-142676554D01*
X175743820Y-142641995D01*
X175732445Y-142604499D01*
X175728000Y-142559362D01*
X175728000Y-141920638D01*
X175732445Y-141875501D01*
X175743820Y-141838005D01*
X175762292Y-141803446D01*
X175787153Y-141773153D01*
X175817446Y-141748292D01*
X175852005Y-141729820D01*
X175889501Y-141718445D01*
X175934638Y-141714000D01*
X176673362Y-141714000D01*
X176718499Y-141718445D01*
G37*
G36*
X174404499Y-141718445D02*
G01*
X174441995Y-141729820D01*
X174476554Y-141748292D01*
X174506847Y-141773153D01*
X174531708Y-141803446D01*
X174550180Y-141838005D01*
X174561555Y-141875501D01*
X174566000Y-141920638D01*
X174566000Y-142559362D01*
X174561555Y-142604499D01*
X174550180Y-142641995D01*
X174531708Y-142676554D01*
X174506847Y-142706847D01*
X174476554Y-142731708D01*
X174441995Y-142750180D01*
X174404499Y-142761555D01*
X174359362Y-142766000D01*
X173620638Y-142766000D01*
X173575501Y-142761555D01*
X173538005Y-142750180D01*
X173503446Y-142731708D01*
X173473153Y-142706847D01*
X173448292Y-142676554D01*
X173429820Y-142641995D01*
X173418445Y-142604499D01*
X173414000Y-142559362D01*
X173414000Y-141920638D01*
X173418445Y-141875501D01*
X173429820Y-141838005D01*
X173448292Y-141803446D01*
X173473153Y-141773153D01*
X173503446Y-141748292D01*
X173538005Y-141729820D01*
X173575501Y-141718445D01*
X173620638Y-141714000D01*
X174359362Y-141714000D01*
X174404499Y-141718445D01*
G37*
G36*
X172654499Y-141718445D02*
G01*
X172691995Y-141729820D01*
X172726554Y-141748292D01*
X172756847Y-141773153D01*
X172781708Y-141803446D01*
X172800180Y-141838005D01*
X172811555Y-141875501D01*
X172816000Y-141920638D01*
X172816000Y-142559362D01*
X172811555Y-142604499D01*
X172800180Y-142641995D01*
X172781708Y-142676554D01*
X172756847Y-142706847D01*
X172726554Y-142731708D01*
X172691995Y-142750180D01*
X172654499Y-142761555D01*
X172609362Y-142766000D01*
X171870638Y-142766000D01*
X171825501Y-142761555D01*
X171788005Y-142750180D01*
X171753446Y-142731708D01*
X171723153Y-142706847D01*
X171698292Y-142676554D01*
X171679820Y-142641995D01*
X171668445Y-142604499D01*
X171664000Y-142559362D01*
X171664000Y-141920638D01*
X171668445Y-141875501D01*
X171679820Y-141838005D01*
X171698292Y-141803446D01*
X171723153Y-141773153D01*
X171753446Y-141748292D01*
X171788005Y-141729820D01*
X171825501Y-141718445D01*
X171870638Y-141714000D01*
X172609362Y-141714000D01*
X172654499Y-141718445D01*
G37*
G36*
X216089000Y-141968000D02*
G01*
X214187000Y-141968000D01*
X214187000Y-140516000D01*
X216089000Y-140516000D01*
X216089000Y-141968000D01*
G37*
G36*
X192489158Y-117465857D02*
G01*
X192520912Y-117475489D01*
X192550174Y-117491130D01*
X192575822Y-117512178D01*
X192596870Y-117537826D01*
X192612511Y-117567088D01*
X192622143Y-117598842D01*
X192626000Y-117638001D01*
X192626000Y-118317999D01*
X192622143Y-118357158D01*
X192612511Y-118388912D01*
X192596870Y-118418174D01*
X192575822Y-118443822D01*
X192550174Y-118464870D01*
X192520912Y-118480511D01*
X192478477Y-118493383D01*
X192455838Y-118502760D01*
X192435464Y-118516374D01*
X192418137Y-118533701D01*
X192404523Y-118554075D01*
X192395146Y-118576714D01*
X192390365Y-118600747D01*
X192390365Y-118625252D01*
X192395145Y-118649285D01*
X192404522Y-118671924D01*
X192418136Y-118692298D01*
X192435463Y-118709625D01*
X192455837Y-118723239D01*
X192478477Y-118732617D01*
X192520912Y-118745489D01*
X192550174Y-118761130D01*
X192575822Y-118782178D01*
X192596870Y-118807826D01*
X192612511Y-118837088D01*
X192622143Y-118868842D01*
X192626000Y-118908001D01*
X192626000Y-119587999D01*
X192622143Y-119627158D01*
X192612511Y-119658912D01*
X192596870Y-119688174D01*
X192575822Y-119713822D01*
X192550174Y-119734870D01*
X192520912Y-119750511D01*
X192478477Y-119763383D01*
X192455838Y-119772760D01*
X192435464Y-119786374D01*
X192418137Y-119803701D01*
X192404523Y-119824075D01*
X192395146Y-119846714D01*
X192390365Y-119870747D01*
X192390365Y-119895252D01*
X192395145Y-119919285D01*
X192404522Y-119941924D01*
X192418136Y-119962298D01*
X192435463Y-119979625D01*
X192455837Y-119993239D01*
X192478477Y-120002617D01*
X192520912Y-120015489D01*
X192550174Y-120031130D01*
X192575822Y-120052178D01*
X192596870Y-120077826D01*
X192612511Y-120107088D01*
X192622143Y-120138842D01*
X192626000Y-120178001D01*
X192626000Y-120857999D01*
X192622143Y-120897158D01*
X192612511Y-120928912D01*
X192596870Y-120958174D01*
X192575822Y-120983822D01*
X192550174Y-121004870D01*
X192520912Y-121020511D01*
X192478477Y-121033383D01*
X192455838Y-121042760D01*
X192435464Y-121056374D01*
X192418137Y-121073701D01*
X192404523Y-121094075D01*
X192395146Y-121116714D01*
X192390365Y-121140747D01*
X192390365Y-121165252D01*
X192395145Y-121189285D01*
X192404522Y-121211924D01*
X192418136Y-121232298D01*
X192435463Y-121249625D01*
X192455837Y-121263239D01*
X192478477Y-121272617D01*
X192520912Y-121285489D01*
X192550174Y-121301130D01*
X192575822Y-121322178D01*
X192596870Y-121347826D01*
X192612511Y-121377088D01*
X192622143Y-121408842D01*
X192626000Y-121448001D01*
X192626000Y-122127999D01*
X192622143Y-122167158D01*
X192612511Y-122198912D01*
X192596870Y-122228174D01*
X192575822Y-122253822D01*
X192550174Y-122274870D01*
X192520912Y-122290511D01*
X192478477Y-122303383D01*
X192455838Y-122312760D01*
X192435464Y-122326374D01*
X192418137Y-122343701D01*
X192404523Y-122364075D01*
X192395146Y-122386714D01*
X192390365Y-122410747D01*
X192390365Y-122435252D01*
X192395145Y-122459285D01*
X192404522Y-122481924D01*
X192418136Y-122502298D01*
X192435463Y-122519625D01*
X192455837Y-122533239D01*
X192478477Y-122542617D01*
X192520912Y-122555489D01*
X192550174Y-122571130D01*
X192575822Y-122592178D01*
X192596870Y-122617826D01*
X192612511Y-122647088D01*
X192622143Y-122678842D01*
X192626000Y-122718001D01*
X192626000Y-123397999D01*
X192622143Y-123437158D01*
X192612511Y-123468912D01*
X192596870Y-123498174D01*
X192575822Y-123523822D01*
X192550174Y-123544870D01*
X192520912Y-123560511D01*
X192478477Y-123573383D01*
X192455838Y-123582760D01*
X192435464Y-123596374D01*
X192418137Y-123613701D01*
X192404523Y-123634075D01*
X192395146Y-123656714D01*
X192390365Y-123680747D01*
X192390365Y-123705252D01*
X192395145Y-123729285D01*
X192404522Y-123751924D01*
X192418136Y-123772298D01*
X192435463Y-123789625D01*
X192455837Y-123803239D01*
X192478477Y-123812617D01*
X192520912Y-123825489D01*
X192550174Y-123841130D01*
X192575822Y-123862178D01*
X192596870Y-123887826D01*
X192612511Y-123917088D01*
X192622143Y-123948842D01*
X192626000Y-123988001D01*
X192626000Y-124667999D01*
X192622143Y-124707158D01*
X192612511Y-124738912D01*
X192596870Y-124768174D01*
X192575822Y-124793822D01*
X192550174Y-124814870D01*
X192520912Y-124830511D01*
X192478477Y-124843383D01*
X192455838Y-124852760D01*
X192435464Y-124866374D01*
X192418137Y-124883701D01*
X192404523Y-124904075D01*
X192395146Y-124926714D01*
X192390365Y-124950747D01*
X192390365Y-124975252D01*
X192395145Y-124999285D01*
X192404522Y-125021924D01*
X192418136Y-125042298D01*
X192435463Y-125059625D01*
X192455837Y-125073239D01*
X192478477Y-125082617D01*
X192520912Y-125095489D01*
X192550174Y-125111130D01*
X192575822Y-125132178D01*
X192596870Y-125157826D01*
X192612511Y-125187088D01*
X192622143Y-125218842D01*
X192626000Y-125258001D01*
X192626000Y-125937999D01*
X192622143Y-125977158D01*
X192612511Y-126008912D01*
X192596870Y-126038174D01*
X192575822Y-126063822D01*
X192550174Y-126084870D01*
X192520912Y-126100511D01*
X192478477Y-126113383D01*
X192455838Y-126122760D01*
X192435464Y-126136374D01*
X192418137Y-126153701D01*
X192404523Y-126174075D01*
X192395146Y-126196714D01*
X192390365Y-126220747D01*
X192390365Y-126245252D01*
X192395145Y-126269285D01*
X192404522Y-126291924D01*
X192418136Y-126312298D01*
X192435463Y-126329625D01*
X192455837Y-126343239D01*
X192478477Y-126352617D01*
X192520912Y-126365489D01*
X192550174Y-126381130D01*
X192575822Y-126402178D01*
X192596870Y-126427826D01*
X192612511Y-126457088D01*
X192622143Y-126488842D01*
X192626000Y-126528001D01*
X192626000Y-127207999D01*
X192622143Y-127247158D01*
X192612511Y-127278912D01*
X192596870Y-127308174D01*
X192575822Y-127333822D01*
X192550174Y-127354870D01*
X192520912Y-127370511D01*
X192478477Y-127383383D01*
X192455838Y-127392760D01*
X192435464Y-127406374D01*
X192418137Y-127423701D01*
X192404523Y-127444075D01*
X192395146Y-127466714D01*
X192390365Y-127490747D01*
X192390365Y-127515252D01*
X192395145Y-127539285D01*
X192404522Y-127561924D01*
X192418136Y-127582298D01*
X192435463Y-127599625D01*
X192455837Y-127613239D01*
X192478477Y-127622617D01*
X192520912Y-127635489D01*
X192550174Y-127651130D01*
X192575822Y-127672178D01*
X192596870Y-127697826D01*
X192612511Y-127727088D01*
X192622143Y-127758842D01*
X192626000Y-127798001D01*
X192626000Y-128477999D01*
X192622143Y-128517158D01*
X192612511Y-128548912D01*
X192596870Y-128578174D01*
X192575822Y-128603822D01*
X192550174Y-128624870D01*
X192520912Y-128640511D01*
X192478477Y-128653383D01*
X192455838Y-128662760D01*
X192435464Y-128676374D01*
X192418137Y-128693701D01*
X192404523Y-128714075D01*
X192395146Y-128736714D01*
X192390365Y-128760747D01*
X192390365Y-128785252D01*
X192395145Y-128809285D01*
X192404522Y-128831924D01*
X192418136Y-128852298D01*
X192435463Y-128869625D01*
X192455837Y-128883239D01*
X192478477Y-128892617D01*
X192520912Y-128905489D01*
X192550174Y-128921130D01*
X192575822Y-128942178D01*
X192596870Y-128967826D01*
X192612511Y-128997088D01*
X192622143Y-129028842D01*
X192626000Y-129068001D01*
X192626000Y-129747999D01*
X192622143Y-129787158D01*
X192612511Y-129818912D01*
X192596870Y-129848174D01*
X192575822Y-129873822D01*
X192550174Y-129894870D01*
X192520912Y-129910511D01*
X192478477Y-129923383D01*
X192455838Y-129932760D01*
X192435464Y-129946374D01*
X192418137Y-129963701D01*
X192404523Y-129984075D01*
X192395146Y-130006714D01*
X192390365Y-130030747D01*
X192390365Y-130055252D01*
X192395145Y-130079285D01*
X192404522Y-130101924D01*
X192418136Y-130122298D01*
X192435463Y-130139625D01*
X192455837Y-130153239D01*
X192478477Y-130162617D01*
X192520912Y-130175489D01*
X192550174Y-130191130D01*
X192575822Y-130212178D01*
X192596870Y-130237826D01*
X192612511Y-130267088D01*
X192622143Y-130298842D01*
X192626000Y-130338001D01*
X192626000Y-131017999D01*
X192622143Y-131057158D01*
X192612511Y-131088912D01*
X192596870Y-131118174D01*
X192575822Y-131143822D01*
X192550174Y-131164870D01*
X192520912Y-131180511D01*
X192478477Y-131193383D01*
X192455838Y-131202760D01*
X192435464Y-131216374D01*
X192418137Y-131233701D01*
X192404523Y-131254075D01*
X192395146Y-131276714D01*
X192390365Y-131300747D01*
X192390365Y-131325252D01*
X192395145Y-131349285D01*
X192404522Y-131371924D01*
X192418136Y-131392298D01*
X192435463Y-131409625D01*
X192455837Y-131423239D01*
X192478477Y-131432617D01*
X192520912Y-131445489D01*
X192550174Y-131461130D01*
X192575822Y-131482178D01*
X192596870Y-131507826D01*
X192612511Y-131537088D01*
X192622143Y-131568842D01*
X192626000Y-131608001D01*
X192626000Y-132287999D01*
X192622143Y-132327158D01*
X192612511Y-132358912D01*
X192596870Y-132388174D01*
X192575822Y-132413822D01*
X192550174Y-132434870D01*
X192520912Y-132450511D01*
X192478477Y-132463383D01*
X192455838Y-132472760D01*
X192435464Y-132486374D01*
X192418137Y-132503701D01*
X192404523Y-132524075D01*
X192395146Y-132546714D01*
X192390365Y-132570747D01*
X192390365Y-132595252D01*
X192395145Y-132619285D01*
X192404522Y-132641924D01*
X192418136Y-132662298D01*
X192435463Y-132679625D01*
X192455837Y-132693239D01*
X192478477Y-132702617D01*
X192520912Y-132715489D01*
X192550174Y-132731130D01*
X192575822Y-132752178D01*
X192596870Y-132777826D01*
X192612511Y-132807088D01*
X192622143Y-132838842D01*
X192626000Y-132878001D01*
X192626000Y-133557999D01*
X192622143Y-133597158D01*
X192612511Y-133628912D01*
X192596870Y-133658174D01*
X192575822Y-133683822D01*
X192550174Y-133704870D01*
X192520912Y-133720511D01*
X192478477Y-133733383D01*
X192455838Y-133742760D01*
X192435464Y-133756374D01*
X192418137Y-133773701D01*
X192404523Y-133794075D01*
X192395146Y-133816714D01*
X192390365Y-133840747D01*
X192390365Y-133865252D01*
X192395145Y-133889285D01*
X192404522Y-133911924D01*
X192418136Y-133932298D01*
X192435463Y-133949625D01*
X192455837Y-133963239D01*
X192478477Y-133972617D01*
X192520912Y-133985489D01*
X192550174Y-134001130D01*
X192575822Y-134022178D01*
X192596870Y-134047826D01*
X192612511Y-134077088D01*
X192622143Y-134108842D01*
X192626000Y-134148001D01*
X192626000Y-134827999D01*
X192622143Y-134867158D01*
X192612511Y-134898912D01*
X192596870Y-134928174D01*
X192575822Y-134953822D01*
X192550174Y-134974870D01*
X192520912Y-134990511D01*
X192478477Y-135003383D01*
X192455838Y-135012760D01*
X192435464Y-135026374D01*
X192418137Y-135043701D01*
X192404523Y-135064075D01*
X192395146Y-135086714D01*
X192390365Y-135110747D01*
X192390365Y-135135252D01*
X192395145Y-135159285D01*
X192404522Y-135181924D01*
X192418136Y-135202298D01*
X192435463Y-135219625D01*
X192455837Y-135233239D01*
X192478477Y-135242617D01*
X192520912Y-135255489D01*
X192550174Y-135271130D01*
X192575822Y-135292178D01*
X192596870Y-135317826D01*
X192612511Y-135347088D01*
X192622143Y-135378842D01*
X192626000Y-135418001D01*
X192626000Y-136097999D01*
X192622143Y-136137158D01*
X192612511Y-136168912D01*
X192596870Y-136198174D01*
X192575822Y-136223822D01*
X192550174Y-136244870D01*
X192520912Y-136260511D01*
X192478477Y-136273383D01*
X192455838Y-136282760D01*
X192435464Y-136296374D01*
X192418137Y-136313701D01*
X192404523Y-136334075D01*
X192395146Y-136356714D01*
X192390365Y-136380747D01*
X192390365Y-136405252D01*
X192395145Y-136429285D01*
X192404522Y-136451924D01*
X192418136Y-136472298D01*
X192435463Y-136489625D01*
X192455837Y-136503239D01*
X192478477Y-136512617D01*
X192520912Y-136525489D01*
X192550174Y-136541130D01*
X192575822Y-136562178D01*
X192596870Y-136587826D01*
X192612511Y-136617088D01*
X192622143Y-136648842D01*
X192626000Y-136688001D01*
X192626000Y-137367999D01*
X192622143Y-137407158D01*
X192612511Y-137438912D01*
X192596870Y-137468174D01*
X192575822Y-137493822D01*
X192550174Y-137514870D01*
X192520912Y-137530511D01*
X192478477Y-137543383D01*
X192455838Y-137552760D01*
X192435464Y-137566374D01*
X192418137Y-137583701D01*
X192404523Y-137604075D01*
X192395146Y-137626714D01*
X192390365Y-137650747D01*
X192390365Y-137675252D01*
X192395145Y-137699285D01*
X192404522Y-137721924D01*
X192418136Y-137742298D01*
X192435463Y-137759625D01*
X192455837Y-137773239D01*
X192478477Y-137782617D01*
X192520912Y-137795489D01*
X192550174Y-137811130D01*
X192575822Y-137832178D01*
X192596870Y-137857826D01*
X192612511Y-137887088D01*
X192622143Y-137918842D01*
X192626000Y-137958001D01*
X192626000Y-138637999D01*
X192622143Y-138677158D01*
X192612511Y-138708912D01*
X192596870Y-138738174D01*
X192575822Y-138763822D01*
X192550174Y-138784870D01*
X192520912Y-138800511D01*
X192478477Y-138813383D01*
X192455838Y-138822760D01*
X192435464Y-138836374D01*
X192418137Y-138853701D01*
X192404523Y-138874075D01*
X192395146Y-138896714D01*
X192390365Y-138920747D01*
X192390365Y-138945252D01*
X192395145Y-138969285D01*
X192404522Y-138991924D01*
X192418136Y-139012298D01*
X192435463Y-139029625D01*
X192455837Y-139043239D01*
X192478477Y-139052617D01*
X192520912Y-139065489D01*
X192550174Y-139081130D01*
X192575822Y-139102178D01*
X192596870Y-139127826D01*
X192612511Y-139157088D01*
X192622143Y-139188842D01*
X192626000Y-139228001D01*
X192626000Y-139907999D01*
X192622143Y-139947158D01*
X192612511Y-139978912D01*
X192596870Y-140008174D01*
X192575822Y-140033822D01*
X192550174Y-140054870D01*
X192520912Y-140070511D01*
X192478477Y-140083383D01*
X192455838Y-140092760D01*
X192435464Y-140106374D01*
X192418137Y-140123701D01*
X192404523Y-140144075D01*
X192395146Y-140166714D01*
X192390365Y-140190747D01*
X192390365Y-140215252D01*
X192395145Y-140239285D01*
X192404522Y-140261924D01*
X192418136Y-140282298D01*
X192435463Y-140299625D01*
X192455837Y-140313239D01*
X192478477Y-140322617D01*
X192520912Y-140335489D01*
X192550174Y-140351130D01*
X192575822Y-140372178D01*
X192596870Y-140397826D01*
X192612511Y-140427088D01*
X192622143Y-140458842D01*
X192626000Y-140498001D01*
X192626000Y-141177999D01*
X192622143Y-141217158D01*
X192612511Y-141248912D01*
X192596870Y-141278174D01*
X192575822Y-141303822D01*
X192550174Y-141324870D01*
X192520912Y-141340511D01*
X192489158Y-141350143D01*
X192449999Y-141354000D01*
X191250001Y-141354000D01*
X191210842Y-141350143D01*
X191179088Y-141340511D01*
X191149826Y-141324870D01*
X191124178Y-141303822D01*
X191103130Y-141278174D01*
X191087489Y-141248912D01*
X191077857Y-141217158D01*
X191074000Y-141177999D01*
X191074000Y-140498001D01*
X191077857Y-140458842D01*
X191087489Y-140427088D01*
X191103130Y-140397826D01*
X191124178Y-140372178D01*
X191149826Y-140351130D01*
X191179088Y-140335489D01*
X191221523Y-140322617D01*
X191244162Y-140313240D01*
X191264536Y-140299626D01*
X191281863Y-140282299D01*
X191295477Y-140261925D01*
X191304854Y-140239286D01*
X191309635Y-140215253D01*
X191309635Y-140190748D01*
X191304855Y-140166715D01*
X191295478Y-140144076D01*
X191281864Y-140123702D01*
X191264537Y-140106375D01*
X191244163Y-140092761D01*
X191221523Y-140083383D01*
X191179088Y-140070511D01*
X191149826Y-140054870D01*
X191124178Y-140033822D01*
X191103130Y-140008174D01*
X191087489Y-139978912D01*
X191077857Y-139947158D01*
X191074000Y-139907999D01*
X191074000Y-139228001D01*
X191077857Y-139188842D01*
X191087489Y-139157088D01*
X191103130Y-139127826D01*
X191124178Y-139102178D01*
X191149826Y-139081130D01*
X191179088Y-139065489D01*
X191221523Y-139052617D01*
X191244162Y-139043240D01*
X191264536Y-139029626D01*
X191281863Y-139012299D01*
X191295477Y-138991925D01*
X191304854Y-138969286D01*
X191309635Y-138945253D01*
X191309635Y-138920748D01*
X191304855Y-138896715D01*
X191295478Y-138874076D01*
X191281864Y-138853702D01*
X191264537Y-138836375D01*
X191244163Y-138822761D01*
X191221523Y-138813383D01*
X191179088Y-138800511D01*
X191149826Y-138784870D01*
X191124178Y-138763822D01*
X191103130Y-138738174D01*
X191087489Y-138708912D01*
X191077857Y-138677158D01*
X191074000Y-138637999D01*
X191074000Y-137958001D01*
X191077857Y-137918842D01*
X191087489Y-137887088D01*
X191103130Y-137857826D01*
X191124178Y-137832178D01*
X191149826Y-137811130D01*
X191179088Y-137795489D01*
X191221523Y-137782617D01*
X191244162Y-137773240D01*
X191264536Y-137759626D01*
X191281863Y-137742299D01*
X191295477Y-137721925D01*
X191304854Y-137699286D01*
X191309635Y-137675253D01*
X191309635Y-137650748D01*
X191304855Y-137626715D01*
X191295478Y-137604076D01*
X191281864Y-137583702D01*
X191264537Y-137566375D01*
X191244163Y-137552761D01*
X191221523Y-137543383D01*
X191179088Y-137530511D01*
X191149826Y-137514870D01*
X191124178Y-137493822D01*
X191103130Y-137468174D01*
X191087489Y-137438912D01*
X191077857Y-137407158D01*
X191074000Y-137367999D01*
X191074000Y-136688001D01*
X191077857Y-136648842D01*
X191087489Y-136617088D01*
X191103130Y-136587826D01*
X191124178Y-136562178D01*
X191149826Y-136541130D01*
X191179088Y-136525489D01*
X191221523Y-136512617D01*
X191244162Y-136503240D01*
X191264536Y-136489626D01*
X191281863Y-136472299D01*
X191295477Y-136451925D01*
X191304854Y-136429286D01*
X191309635Y-136405253D01*
X191309635Y-136380748D01*
X191304855Y-136356715D01*
X191295478Y-136334076D01*
X191281864Y-136313702D01*
X191264537Y-136296375D01*
X191244163Y-136282761D01*
X191221523Y-136273383D01*
X191179088Y-136260511D01*
X191149826Y-136244870D01*
X191124178Y-136223822D01*
X191103130Y-136198174D01*
X191087489Y-136168912D01*
X191077857Y-136137158D01*
X191074000Y-136097999D01*
X191074000Y-135418001D01*
X191077857Y-135378842D01*
X191087489Y-135347088D01*
X191103130Y-135317826D01*
X191124178Y-135292178D01*
X191149826Y-135271130D01*
X191179088Y-135255489D01*
X191221523Y-135242617D01*
X191244162Y-135233240D01*
X191264536Y-135219626D01*
X191281863Y-135202299D01*
X191295477Y-135181925D01*
X191304854Y-135159286D01*
X191309635Y-135135253D01*
X191309635Y-135110748D01*
X191304855Y-135086715D01*
X191295478Y-135064076D01*
X191281864Y-135043702D01*
X191264537Y-135026375D01*
X191244163Y-135012761D01*
X191221523Y-135003383D01*
X191179088Y-134990511D01*
X191149826Y-134974870D01*
X191124178Y-134953822D01*
X191103130Y-134928174D01*
X191087489Y-134898912D01*
X191077857Y-134867158D01*
X191074000Y-134827999D01*
X191074000Y-134148001D01*
X191077857Y-134108842D01*
X191087489Y-134077088D01*
X191103130Y-134047826D01*
X191124178Y-134022178D01*
X191149826Y-134001130D01*
X191179088Y-133985489D01*
X191221523Y-133972617D01*
X191244162Y-133963240D01*
X191264536Y-133949626D01*
X191281863Y-133932299D01*
X191295477Y-133911925D01*
X191304854Y-133889286D01*
X191309635Y-133865253D01*
X191309635Y-133840748D01*
X191304855Y-133816715D01*
X191295478Y-133794076D01*
X191281864Y-133773702D01*
X191264537Y-133756375D01*
X191244163Y-133742761D01*
X191221523Y-133733383D01*
X191179088Y-133720511D01*
X191149826Y-133704870D01*
X191124178Y-133683822D01*
X191103130Y-133658174D01*
X191087489Y-133628912D01*
X191077857Y-133597158D01*
X191074000Y-133557999D01*
X191074000Y-132878001D01*
X191077857Y-132838842D01*
X191087489Y-132807088D01*
X191103130Y-132777826D01*
X191124178Y-132752178D01*
X191149826Y-132731130D01*
X191179088Y-132715489D01*
X191221523Y-132702617D01*
X191244162Y-132693240D01*
X191264536Y-132679626D01*
X191281863Y-132662299D01*
X191295477Y-132641925D01*
X191304854Y-132619286D01*
X191309635Y-132595253D01*
X191309635Y-132570748D01*
X191304855Y-132546715D01*
X191295478Y-132524076D01*
X191281864Y-132503702D01*
X191264537Y-132486375D01*
X191244163Y-132472761D01*
X191221523Y-132463383D01*
X191179088Y-132450511D01*
X191149826Y-132434870D01*
X191124178Y-132413822D01*
X191103130Y-132388174D01*
X191087489Y-132358912D01*
X191077857Y-132327158D01*
X191074000Y-132287999D01*
X191074000Y-131608001D01*
X191077857Y-131568842D01*
X191087489Y-131537088D01*
X191103130Y-131507826D01*
X191124178Y-131482178D01*
X191149826Y-131461130D01*
X191179088Y-131445489D01*
X191221523Y-131432617D01*
X191244162Y-131423240D01*
X191264536Y-131409626D01*
X191281863Y-131392299D01*
X191295477Y-131371925D01*
X191304854Y-131349286D01*
X191309635Y-131325253D01*
X191309635Y-131300748D01*
X191304855Y-131276715D01*
X191295478Y-131254076D01*
X191281864Y-131233702D01*
X191264537Y-131216375D01*
X191244163Y-131202761D01*
X191221523Y-131193383D01*
X191179088Y-131180511D01*
X191149826Y-131164870D01*
X191124178Y-131143822D01*
X191103130Y-131118174D01*
X191087489Y-131088912D01*
X191077857Y-131057158D01*
X191074000Y-131017999D01*
X191074000Y-130338001D01*
X191077857Y-130298842D01*
X191087489Y-130267088D01*
X191103130Y-130237826D01*
X191124178Y-130212178D01*
X191149826Y-130191130D01*
X191179088Y-130175489D01*
X191221523Y-130162617D01*
X191244162Y-130153240D01*
X191264536Y-130139626D01*
X191281863Y-130122299D01*
X191295477Y-130101925D01*
X191304854Y-130079286D01*
X191309635Y-130055253D01*
X191309635Y-130030748D01*
X191304855Y-130006715D01*
X191295478Y-129984076D01*
X191281864Y-129963702D01*
X191264537Y-129946375D01*
X191244163Y-129932761D01*
X191221523Y-129923383D01*
X191179088Y-129910511D01*
X191149826Y-129894870D01*
X191124178Y-129873822D01*
X191103130Y-129848174D01*
X191087489Y-129818912D01*
X191077857Y-129787158D01*
X191074000Y-129747999D01*
X191074000Y-129068001D01*
X191077857Y-129028842D01*
X191087489Y-128997088D01*
X191103130Y-128967826D01*
X191124178Y-128942178D01*
X191149826Y-128921130D01*
X191179088Y-128905489D01*
X191221523Y-128892617D01*
X191244162Y-128883240D01*
X191264536Y-128869626D01*
X191281863Y-128852299D01*
X191295477Y-128831925D01*
X191304854Y-128809286D01*
X191309635Y-128785253D01*
X191309635Y-128760748D01*
X191304855Y-128736715D01*
X191295478Y-128714076D01*
X191281864Y-128693702D01*
X191264537Y-128676375D01*
X191244163Y-128662761D01*
X191221523Y-128653383D01*
X191179088Y-128640511D01*
X191149826Y-128624870D01*
X191124178Y-128603822D01*
X191103130Y-128578174D01*
X191087489Y-128548912D01*
X191077857Y-128517158D01*
X191074000Y-128477999D01*
X191074000Y-127798001D01*
X191077857Y-127758842D01*
X191087489Y-127727088D01*
X191103130Y-127697826D01*
X191124178Y-127672178D01*
X191149826Y-127651130D01*
X191179088Y-127635489D01*
X191221523Y-127622617D01*
X191244162Y-127613240D01*
X191264536Y-127599626D01*
X191281863Y-127582299D01*
X191295477Y-127561925D01*
X191304854Y-127539286D01*
X191309635Y-127515253D01*
X191309635Y-127490748D01*
X191304855Y-127466715D01*
X191295478Y-127444076D01*
X191281864Y-127423702D01*
X191264537Y-127406375D01*
X191244163Y-127392761D01*
X191221523Y-127383383D01*
X191179088Y-127370511D01*
X191149826Y-127354870D01*
X191124178Y-127333822D01*
X191103130Y-127308174D01*
X191087489Y-127278912D01*
X191077857Y-127247158D01*
X191074000Y-127207999D01*
X191074000Y-126528001D01*
X191077857Y-126488842D01*
X191087489Y-126457088D01*
X191103130Y-126427826D01*
X191124178Y-126402178D01*
X191149826Y-126381130D01*
X191179088Y-126365489D01*
X191221523Y-126352617D01*
X191244162Y-126343240D01*
X191264536Y-126329626D01*
X191281863Y-126312299D01*
X191295477Y-126291925D01*
X191304854Y-126269286D01*
X191309635Y-126245253D01*
X191309635Y-126220748D01*
X191304855Y-126196715D01*
X191295478Y-126174076D01*
X191281864Y-126153702D01*
X191264537Y-126136375D01*
X191244163Y-126122761D01*
X191221523Y-126113383D01*
X191179088Y-126100511D01*
X191149826Y-126084870D01*
X191124178Y-126063822D01*
X191103130Y-126038174D01*
X191087489Y-126008912D01*
X191077857Y-125977158D01*
X191074000Y-125937999D01*
X191074000Y-125258001D01*
X191077857Y-125218842D01*
X191087489Y-125187088D01*
X191103130Y-125157826D01*
X191124178Y-125132178D01*
X191149826Y-125111130D01*
X191179088Y-125095489D01*
X191221523Y-125082617D01*
X191244162Y-125073240D01*
X191264536Y-125059626D01*
X191281863Y-125042299D01*
X191295477Y-125021925D01*
X191304854Y-124999286D01*
X191309635Y-124975253D01*
X191309635Y-124950748D01*
X191304855Y-124926715D01*
X191295478Y-124904076D01*
X191281864Y-124883702D01*
X191264537Y-124866375D01*
X191244163Y-124852761D01*
X191221523Y-124843383D01*
X191179088Y-124830511D01*
X191149826Y-124814870D01*
X191124178Y-124793822D01*
X191103130Y-124768174D01*
X191087489Y-124738912D01*
X191077857Y-124707158D01*
X191074000Y-124667999D01*
X191074000Y-123988001D01*
X191077857Y-123948842D01*
X191087489Y-123917088D01*
X191103130Y-123887826D01*
X191124178Y-123862178D01*
X191149826Y-123841130D01*
X191179088Y-123825489D01*
X191221523Y-123812617D01*
X191244162Y-123803240D01*
X191264536Y-123789626D01*
X191281863Y-123772299D01*
X191295477Y-123751925D01*
X191304854Y-123729286D01*
X191309635Y-123705253D01*
X191309635Y-123680748D01*
X191304855Y-123656715D01*
X191295478Y-123634076D01*
X191281864Y-123613702D01*
X191264537Y-123596375D01*
X191244163Y-123582761D01*
X191221523Y-123573383D01*
X191179088Y-123560511D01*
X191149826Y-123544870D01*
X191124178Y-123523822D01*
X191103130Y-123498174D01*
X191087489Y-123468912D01*
X191077857Y-123437158D01*
X191074000Y-123397999D01*
X191074000Y-122718001D01*
X191077857Y-122678842D01*
X191087489Y-122647088D01*
X191103130Y-122617826D01*
X191124178Y-122592178D01*
X191149826Y-122571130D01*
X191179088Y-122555489D01*
X191221523Y-122542617D01*
X191244162Y-122533240D01*
X191264536Y-122519626D01*
X191281863Y-122502299D01*
X191295477Y-122481925D01*
X191304854Y-122459286D01*
X191309635Y-122435253D01*
X191309635Y-122410748D01*
X191304855Y-122386715D01*
X191295478Y-122364076D01*
X191281864Y-122343702D01*
X191264537Y-122326375D01*
X191244163Y-122312761D01*
X191221523Y-122303383D01*
X191179088Y-122290511D01*
X191149826Y-122274870D01*
X191124178Y-122253822D01*
X191103130Y-122228174D01*
X191087489Y-122198912D01*
X191077857Y-122167158D01*
X191074000Y-122127999D01*
X191074000Y-121448001D01*
X191077857Y-121408842D01*
X191087489Y-121377088D01*
X191103130Y-121347826D01*
X191124178Y-121322178D01*
X191149826Y-121301130D01*
X191179088Y-121285489D01*
X191221523Y-121272617D01*
X191244162Y-121263240D01*
X191264536Y-121249626D01*
X191281863Y-121232299D01*
X191295477Y-121211925D01*
X191304854Y-121189286D01*
X191309635Y-121165253D01*
X191309635Y-121140748D01*
X191304855Y-121116715D01*
X191295478Y-121094076D01*
X191281864Y-121073702D01*
X191264537Y-121056375D01*
X191244163Y-121042761D01*
X191221523Y-121033383D01*
X191179088Y-121020511D01*
X191149826Y-121004870D01*
X191124178Y-120983822D01*
X191103130Y-120958174D01*
X191087489Y-120928912D01*
X191077857Y-120897158D01*
X191074000Y-120857999D01*
X191074000Y-120178001D01*
X191077857Y-120138842D01*
X191087489Y-120107088D01*
X191103130Y-120077826D01*
X191124178Y-120052178D01*
X191149826Y-120031130D01*
X191179088Y-120015489D01*
X191221523Y-120002617D01*
X191244162Y-119993240D01*
X191264536Y-119979626D01*
X191281863Y-119962299D01*
X191295477Y-119941925D01*
X191304854Y-119919286D01*
X191309635Y-119895253D01*
X191309635Y-119870748D01*
X191304855Y-119846715D01*
X191295478Y-119824076D01*
X191281864Y-119803702D01*
X191264537Y-119786375D01*
X191244163Y-119772761D01*
X191221523Y-119763383D01*
X191179088Y-119750511D01*
X191149826Y-119734870D01*
X191124178Y-119713822D01*
X191103130Y-119688174D01*
X191087489Y-119658912D01*
X191077857Y-119627158D01*
X191074000Y-119587999D01*
X191074000Y-118908001D01*
X191077857Y-118868842D01*
X191087489Y-118837088D01*
X191103130Y-118807826D01*
X191124178Y-118782178D01*
X191149826Y-118761130D01*
X191179088Y-118745489D01*
X191221523Y-118732617D01*
X191244162Y-118723240D01*
X191264536Y-118709626D01*
X191281863Y-118692299D01*
X191295477Y-118671925D01*
X191304854Y-118649286D01*
X191309635Y-118625253D01*
X191309635Y-118600748D01*
X191304855Y-118576715D01*
X191295478Y-118554076D01*
X191281864Y-118533702D01*
X191264537Y-118516375D01*
X191244163Y-118502761D01*
X191221523Y-118493383D01*
X191179088Y-118480511D01*
X191149826Y-118464870D01*
X191124178Y-118443822D01*
X191103130Y-118418174D01*
X191087489Y-118388912D01*
X191077857Y-118357158D01*
X191074000Y-118317999D01*
X191074000Y-117638001D01*
X191077857Y-117598842D01*
X191087489Y-117567088D01*
X191103130Y-117537826D01*
X191124178Y-117512178D01*
X191149826Y-117491130D01*
X191179088Y-117475489D01*
X191210842Y-117465857D01*
X191250001Y-117462000D01*
X192449999Y-117462000D01*
X192489158Y-117465857D01*
G37*
G36*
X210109158Y-117465857D02*
G01*
X210140912Y-117475489D01*
X210170174Y-117491130D01*
X210195822Y-117512178D01*
X210216870Y-117537826D01*
X210232511Y-117567088D01*
X210242143Y-117598842D01*
X210246000Y-117638001D01*
X210246000Y-118317999D01*
X210242143Y-118357158D01*
X210232511Y-118388912D01*
X210216870Y-118418174D01*
X210195822Y-118443822D01*
X210170174Y-118464870D01*
X210140912Y-118480511D01*
X210098477Y-118493383D01*
X210075838Y-118502760D01*
X210055464Y-118516374D01*
X210038137Y-118533701D01*
X210024523Y-118554075D01*
X210015146Y-118576714D01*
X210010365Y-118600747D01*
X210010365Y-118625252D01*
X210015145Y-118649285D01*
X210024522Y-118671924D01*
X210038136Y-118692298D01*
X210055463Y-118709625D01*
X210075837Y-118723239D01*
X210098477Y-118732617D01*
X210140912Y-118745489D01*
X210170174Y-118761130D01*
X210195822Y-118782178D01*
X210216870Y-118807826D01*
X210232511Y-118837088D01*
X210242143Y-118868842D01*
X210246000Y-118908001D01*
X210246000Y-119587999D01*
X210242143Y-119627158D01*
X210232511Y-119658912D01*
X210216870Y-119688174D01*
X210195822Y-119713822D01*
X210170174Y-119734870D01*
X210140912Y-119750511D01*
X210098477Y-119763383D01*
X210075838Y-119772760D01*
X210055464Y-119786374D01*
X210038137Y-119803701D01*
X210024523Y-119824075D01*
X210015146Y-119846714D01*
X210010365Y-119870747D01*
X210010365Y-119895252D01*
X210015145Y-119919285D01*
X210024522Y-119941924D01*
X210038136Y-119962298D01*
X210055463Y-119979625D01*
X210075837Y-119993239D01*
X210098477Y-120002617D01*
X210140912Y-120015489D01*
X210170174Y-120031130D01*
X210195822Y-120052178D01*
X210216870Y-120077826D01*
X210232511Y-120107088D01*
X210242143Y-120138842D01*
X210246000Y-120178001D01*
X210246000Y-120857999D01*
X210242143Y-120897158D01*
X210232511Y-120928912D01*
X210216870Y-120958174D01*
X210195822Y-120983822D01*
X210170174Y-121004870D01*
X210140912Y-121020511D01*
X210098477Y-121033383D01*
X210075838Y-121042760D01*
X210055464Y-121056374D01*
X210038137Y-121073701D01*
X210024523Y-121094075D01*
X210015146Y-121116714D01*
X210010365Y-121140747D01*
X210010365Y-121165252D01*
X210015145Y-121189285D01*
X210024522Y-121211924D01*
X210038136Y-121232298D01*
X210055463Y-121249625D01*
X210075837Y-121263239D01*
X210098477Y-121272617D01*
X210140912Y-121285489D01*
X210170174Y-121301130D01*
X210195822Y-121322178D01*
X210216870Y-121347826D01*
X210232511Y-121377088D01*
X210242143Y-121408842D01*
X210246000Y-121448001D01*
X210246000Y-122127999D01*
X210242143Y-122167158D01*
X210232511Y-122198912D01*
X210216870Y-122228174D01*
X210195822Y-122253822D01*
X210170174Y-122274870D01*
X210140912Y-122290511D01*
X210098477Y-122303383D01*
X210075838Y-122312760D01*
X210055464Y-122326374D01*
X210038137Y-122343701D01*
X210024523Y-122364075D01*
X210015146Y-122386714D01*
X210010365Y-122410747D01*
X210010365Y-122435252D01*
X210015145Y-122459285D01*
X210024522Y-122481924D01*
X210038136Y-122502298D01*
X210055463Y-122519625D01*
X210075837Y-122533239D01*
X210098477Y-122542617D01*
X210140912Y-122555489D01*
X210170174Y-122571130D01*
X210195822Y-122592178D01*
X210216870Y-122617826D01*
X210232511Y-122647088D01*
X210242143Y-122678842D01*
X210246000Y-122718001D01*
X210246000Y-123397999D01*
X210242143Y-123437158D01*
X210232511Y-123468912D01*
X210216870Y-123498174D01*
X210195822Y-123523822D01*
X210170174Y-123544870D01*
X210140912Y-123560511D01*
X210098477Y-123573383D01*
X210075838Y-123582760D01*
X210055464Y-123596374D01*
X210038137Y-123613701D01*
X210024523Y-123634075D01*
X210015146Y-123656714D01*
X210010365Y-123680747D01*
X210010365Y-123705252D01*
X210015145Y-123729285D01*
X210024522Y-123751924D01*
X210038136Y-123772298D01*
X210055463Y-123789625D01*
X210075837Y-123803239D01*
X210098477Y-123812617D01*
X210140912Y-123825489D01*
X210170174Y-123841130D01*
X210195822Y-123862178D01*
X210216870Y-123887826D01*
X210232511Y-123917088D01*
X210242143Y-123948842D01*
X210246000Y-123988001D01*
X210246000Y-124667999D01*
X210242143Y-124707158D01*
X210232511Y-124738912D01*
X210216870Y-124768174D01*
X210195822Y-124793822D01*
X210170174Y-124814870D01*
X210140912Y-124830511D01*
X210098477Y-124843383D01*
X210075838Y-124852760D01*
X210055464Y-124866374D01*
X210038137Y-124883701D01*
X210024523Y-124904075D01*
X210015146Y-124926714D01*
X210010365Y-124950747D01*
X210010365Y-124975252D01*
X210015145Y-124999285D01*
X210024522Y-125021924D01*
X210038136Y-125042298D01*
X210055463Y-125059625D01*
X210075837Y-125073239D01*
X210098477Y-125082617D01*
X210140912Y-125095489D01*
X210170174Y-125111130D01*
X210195822Y-125132178D01*
X210216870Y-125157826D01*
X210232511Y-125187088D01*
X210242143Y-125218842D01*
X210246000Y-125258001D01*
X210246000Y-125937999D01*
X210242143Y-125977158D01*
X210232511Y-126008912D01*
X210216870Y-126038174D01*
X210195822Y-126063822D01*
X210170174Y-126084870D01*
X210140912Y-126100511D01*
X210098477Y-126113383D01*
X210075838Y-126122760D01*
X210055464Y-126136374D01*
X210038137Y-126153701D01*
X210024523Y-126174075D01*
X210015146Y-126196714D01*
X210010365Y-126220747D01*
X210010365Y-126245252D01*
X210015145Y-126269285D01*
X210024522Y-126291924D01*
X210038136Y-126312298D01*
X210055463Y-126329625D01*
X210075837Y-126343239D01*
X210098477Y-126352617D01*
X210140912Y-126365489D01*
X210170174Y-126381130D01*
X210195822Y-126402178D01*
X210216870Y-126427826D01*
X210232511Y-126457088D01*
X210242143Y-126488842D01*
X210246000Y-126528001D01*
X210246000Y-127207999D01*
X210242143Y-127247158D01*
X210232511Y-127278912D01*
X210216870Y-127308174D01*
X210195822Y-127333822D01*
X210170174Y-127354870D01*
X210140912Y-127370511D01*
X210098477Y-127383383D01*
X210075838Y-127392760D01*
X210055464Y-127406374D01*
X210038137Y-127423701D01*
X210024523Y-127444075D01*
X210015146Y-127466714D01*
X210010365Y-127490747D01*
X210010365Y-127515252D01*
X210015145Y-127539285D01*
X210024522Y-127561924D01*
X210038136Y-127582298D01*
X210055463Y-127599625D01*
X210075837Y-127613239D01*
X210098477Y-127622617D01*
X210140912Y-127635489D01*
X210170174Y-127651130D01*
X210195822Y-127672178D01*
X210216870Y-127697826D01*
X210232511Y-127727088D01*
X210242143Y-127758842D01*
X210246000Y-127798001D01*
X210246000Y-128477999D01*
X210242143Y-128517158D01*
X210232511Y-128548912D01*
X210216870Y-128578174D01*
X210195822Y-128603822D01*
X210170174Y-128624870D01*
X210140912Y-128640511D01*
X210098477Y-128653383D01*
X210075838Y-128662760D01*
X210055464Y-128676374D01*
X210038137Y-128693701D01*
X210024523Y-128714075D01*
X210015146Y-128736714D01*
X210010365Y-128760747D01*
X210010365Y-128785252D01*
X210015145Y-128809285D01*
X210024522Y-128831924D01*
X210038136Y-128852298D01*
X210055463Y-128869625D01*
X210075837Y-128883239D01*
X210098477Y-128892617D01*
X210140912Y-128905489D01*
X210170174Y-128921130D01*
X210195822Y-128942178D01*
X210216870Y-128967826D01*
X210232511Y-128997088D01*
X210242143Y-129028842D01*
X210246000Y-129068001D01*
X210246000Y-129747999D01*
X210242143Y-129787158D01*
X210232511Y-129818912D01*
X210216870Y-129848174D01*
X210195822Y-129873822D01*
X210170174Y-129894870D01*
X210140912Y-129910511D01*
X210098477Y-129923383D01*
X210075838Y-129932760D01*
X210055464Y-129946374D01*
X210038137Y-129963701D01*
X210024523Y-129984075D01*
X210015146Y-130006714D01*
X210010365Y-130030747D01*
X210010365Y-130055252D01*
X210015145Y-130079285D01*
X210024522Y-130101924D01*
X210038136Y-130122298D01*
X210055463Y-130139625D01*
X210075837Y-130153239D01*
X210098477Y-130162617D01*
X210140912Y-130175489D01*
X210170174Y-130191130D01*
X210195822Y-130212178D01*
X210216870Y-130237826D01*
X210232511Y-130267088D01*
X210242143Y-130298842D01*
X210246000Y-130338001D01*
X210246000Y-131017999D01*
X210242143Y-131057158D01*
X210232511Y-131088912D01*
X210216870Y-131118174D01*
X210195822Y-131143822D01*
X210170174Y-131164870D01*
X210140912Y-131180511D01*
X210098477Y-131193383D01*
X210075838Y-131202760D01*
X210055464Y-131216374D01*
X210038137Y-131233701D01*
X210024523Y-131254075D01*
X210015146Y-131276714D01*
X210010365Y-131300747D01*
X210010365Y-131325252D01*
X210015145Y-131349285D01*
X210024522Y-131371924D01*
X210038136Y-131392298D01*
X210055463Y-131409625D01*
X210075837Y-131423239D01*
X210098477Y-131432617D01*
X210140912Y-131445489D01*
X210170174Y-131461130D01*
X210195822Y-131482178D01*
X210216870Y-131507826D01*
X210232511Y-131537088D01*
X210242143Y-131568842D01*
X210246000Y-131608001D01*
X210246000Y-132287999D01*
X210242143Y-132327158D01*
X210232511Y-132358912D01*
X210216870Y-132388174D01*
X210195822Y-132413822D01*
X210170174Y-132434870D01*
X210140912Y-132450511D01*
X210098477Y-132463383D01*
X210075838Y-132472760D01*
X210055464Y-132486374D01*
X210038137Y-132503701D01*
X210024523Y-132524075D01*
X210015146Y-132546714D01*
X210010365Y-132570747D01*
X210010365Y-132595252D01*
X210015145Y-132619285D01*
X210024522Y-132641924D01*
X210038136Y-132662298D01*
X210055463Y-132679625D01*
X210075837Y-132693239D01*
X210098477Y-132702617D01*
X210140912Y-132715489D01*
X210170174Y-132731130D01*
X210195822Y-132752178D01*
X210216870Y-132777826D01*
X210232511Y-132807088D01*
X210242143Y-132838842D01*
X210246000Y-132878001D01*
X210246000Y-133557999D01*
X210242143Y-133597158D01*
X210232511Y-133628912D01*
X210216870Y-133658174D01*
X210195822Y-133683822D01*
X210170174Y-133704870D01*
X210140912Y-133720511D01*
X210098477Y-133733383D01*
X210075838Y-133742760D01*
X210055464Y-133756374D01*
X210038137Y-133773701D01*
X210024523Y-133794075D01*
X210015146Y-133816714D01*
X210010365Y-133840747D01*
X210010365Y-133865252D01*
X210015145Y-133889285D01*
X210024522Y-133911924D01*
X210038136Y-133932298D01*
X210055463Y-133949625D01*
X210075837Y-133963239D01*
X210098477Y-133972617D01*
X210140912Y-133985489D01*
X210170174Y-134001130D01*
X210195822Y-134022178D01*
X210216870Y-134047826D01*
X210232511Y-134077088D01*
X210242143Y-134108842D01*
X210246000Y-134148001D01*
X210246000Y-134827999D01*
X210242143Y-134867158D01*
X210232511Y-134898912D01*
X210216870Y-134928174D01*
X210195822Y-134953822D01*
X210170174Y-134974870D01*
X210140912Y-134990511D01*
X210098477Y-135003383D01*
X210075838Y-135012760D01*
X210055464Y-135026374D01*
X210038137Y-135043701D01*
X210024523Y-135064075D01*
X210015146Y-135086714D01*
X210010365Y-135110747D01*
X210010365Y-135135252D01*
X210015145Y-135159285D01*
X210024522Y-135181924D01*
X210038136Y-135202298D01*
X210055463Y-135219625D01*
X210075837Y-135233239D01*
X210098477Y-135242617D01*
X210140912Y-135255489D01*
X210170174Y-135271130D01*
X210195822Y-135292178D01*
X210216870Y-135317826D01*
X210232511Y-135347088D01*
X210242143Y-135378842D01*
X210246000Y-135418001D01*
X210246000Y-136097999D01*
X210242143Y-136137158D01*
X210232511Y-136168912D01*
X210216870Y-136198174D01*
X210195822Y-136223822D01*
X210170174Y-136244870D01*
X210140912Y-136260511D01*
X210098477Y-136273383D01*
X210075838Y-136282760D01*
X210055464Y-136296374D01*
X210038137Y-136313701D01*
X210024523Y-136334075D01*
X210015146Y-136356714D01*
X210010365Y-136380747D01*
X210010365Y-136405252D01*
X210015145Y-136429285D01*
X210024522Y-136451924D01*
X210038136Y-136472298D01*
X210055463Y-136489625D01*
X210075837Y-136503239D01*
X210098477Y-136512617D01*
X210140912Y-136525489D01*
X210170174Y-136541130D01*
X210195822Y-136562178D01*
X210216870Y-136587826D01*
X210232511Y-136617088D01*
X210242143Y-136648842D01*
X210246000Y-136688001D01*
X210246000Y-137367999D01*
X210242143Y-137407158D01*
X210232511Y-137438912D01*
X210216870Y-137468174D01*
X210195822Y-137493822D01*
X210170174Y-137514870D01*
X210140912Y-137530511D01*
X210098477Y-137543383D01*
X210075838Y-137552760D01*
X210055464Y-137566374D01*
X210038137Y-137583701D01*
X210024523Y-137604075D01*
X210015146Y-137626714D01*
X210010365Y-137650747D01*
X210010365Y-137675252D01*
X210015145Y-137699285D01*
X210024522Y-137721924D01*
X210038136Y-137742298D01*
X210055463Y-137759625D01*
X210075837Y-137773239D01*
X210098477Y-137782617D01*
X210140912Y-137795489D01*
X210170174Y-137811130D01*
X210195822Y-137832178D01*
X210216870Y-137857826D01*
X210232511Y-137887088D01*
X210242143Y-137918842D01*
X210246000Y-137958001D01*
X210246000Y-138637999D01*
X210242143Y-138677158D01*
X210232511Y-138708912D01*
X210216870Y-138738174D01*
X210195822Y-138763822D01*
X210170174Y-138784870D01*
X210140912Y-138800511D01*
X210098477Y-138813383D01*
X210075838Y-138822760D01*
X210055464Y-138836374D01*
X210038137Y-138853701D01*
X210024523Y-138874075D01*
X210015146Y-138896714D01*
X210010365Y-138920747D01*
X210010365Y-138945252D01*
X210015145Y-138969285D01*
X210024522Y-138991924D01*
X210038136Y-139012298D01*
X210055463Y-139029625D01*
X210075837Y-139043239D01*
X210098477Y-139052617D01*
X210140912Y-139065489D01*
X210170174Y-139081130D01*
X210195822Y-139102178D01*
X210216870Y-139127826D01*
X210232511Y-139157088D01*
X210242143Y-139188842D01*
X210246000Y-139228001D01*
X210246000Y-139907999D01*
X210242143Y-139947158D01*
X210232511Y-139978912D01*
X210216870Y-140008174D01*
X210195822Y-140033822D01*
X210170174Y-140054870D01*
X210140912Y-140070511D01*
X210098477Y-140083383D01*
X210075838Y-140092760D01*
X210055464Y-140106374D01*
X210038137Y-140123701D01*
X210024523Y-140144075D01*
X210015146Y-140166714D01*
X210010365Y-140190747D01*
X210010365Y-140215252D01*
X210015145Y-140239285D01*
X210024522Y-140261924D01*
X210038136Y-140282298D01*
X210055463Y-140299625D01*
X210075837Y-140313239D01*
X210098477Y-140322617D01*
X210140912Y-140335489D01*
X210170174Y-140351130D01*
X210195822Y-140372178D01*
X210216870Y-140397826D01*
X210232511Y-140427088D01*
X210242143Y-140458842D01*
X210246000Y-140498001D01*
X210246000Y-141177999D01*
X210242143Y-141217158D01*
X210232511Y-141248912D01*
X210216870Y-141278174D01*
X210195822Y-141303822D01*
X210170174Y-141324870D01*
X210140912Y-141340511D01*
X210109158Y-141350143D01*
X210069999Y-141354000D01*
X208870001Y-141354000D01*
X208830842Y-141350143D01*
X208799088Y-141340511D01*
X208769826Y-141324870D01*
X208744178Y-141303822D01*
X208723130Y-141278174D01*
X208707489Y-141248912D01*
X208697857Y-141217158D01*
X208694000Y-141177999D01*
X208694000Y-140498001D01*
X208697857Y-140458842D01*
X208707489Y-140427088D01*
X208723130Y-140397826D01*
X208744178Y-140372178D01*
X208769826Y-140351130D01*
X208799088Y-140335489D01*
X208841523Y-140322617D01*
X208864162Y-140313240D01*
X208884536Y-140299626D01*
X208901863Y-140282299D01*
X208915477Y-140261925D01*
X208924854Y-140239286D01*
X208929635Y-140215253D01*
X208929635Y-140190748D01*
X208924855Y-140166715D01*
X208915478Y-140144076D01*
X208901864Y-140123702D01*
X208884537Y-140106375D01*
X208864163Y-140092761D01*
X208841523Y-140083383D01*
X208799088Y-140070511D01*
X208769826Y-140054870D01*
X208744178Y-140033822D01*
X208723130Y-140008174D01*
X208707489Y-139978912D01*
X208697857Y-139947158D01*
X208694000Y-139907999D01*
X208694000Y-139228001D01*
X208697857Y-139188842D01*
X208707489Y-139157088D01*
X208723130Y-139127826D01*
X208744178Y-139102178D01*
X208769826Y-139081130D01*
X208799088Y-139065489D01*
X208841523Y-139052617D01*
X208864162Y-139043240D01*
X208884536Y-139029626D01*
X208901863Y-139012299D01*
X208915477Y-138991925D01*
X208924854Y-138969286D01*
X208929635Y-138945253D01*
X208929635Y-138920748D01*
X208924855Y-138896715D01*
X208915478Y-138874076D01*
X208901864Y-138853702D01*
X208884537Y-138836375D01*
X208864163Y-138822761D01*
X208841523Y-138813383D01*
X208799088Y-138800511D01*
X208769826Y-138784870D01*
X208744178Y-138763822D01*
X208723130Y-138738174D01*
X208707489Y-138708912D01*
X208697857Y-138677158D01*
X208694000Y-138637999D01*
X208694000Y-137958001D01*
X208697857Y-137918842D01*
X208707489Y-137887088D01*
X208723130Y-137857826D01*
X208744178Y-137832178D01*
X208769826Y-137811130D01*
X208799088Y-137795489D01*
X208841523Y-137782617D01*
X208864162Y-137773240D01*
X208884536Y-137759626D01*
X208901863Y-137742299D01*
X208915477Y-137721925D01*
X208924854Y-137699286D01*
X208929635Y-137675253D01*
X208929635Y-137650748D01*
X208924855Y-137626715D01*
X208915478Y-137604076D01*
X208901864Y-137583702D01*
X208884537Y-137566375D01*
X208864163Y-137552761D01*
X208841523Y-137543383D01*
X208799088Y-137530511D01*
X208769826Y-137514870D01*
X208744178Y-137493822D01*
X208723130Y-137468174D01*
X208707489Y-137438912D01*
X208697857Y-137407158D01*
X208694000Y-137367999D01*
X208694000Y-136688001D01*
X208697857Y-136648842D01*
X208707489Y-136617088D01*
X208723130Y-136587826D01*
X208744178Y-136562178D01*
X208769826Y-136541130D01*
X208799088Y-136525489D01*
X208841523Y-136512617D01*
X208864162Y-136503240D01*
X208884536Y-136489626D01*
X208901863Y-136472299D01*
X208915477Y-136451925D01*
X208924854Y-136429286D01*
X208929635Y-136405253D01*
X208929635Y-136380748D01*
X208924855Y-136356715D01*
X208915478Y-136334076D01*
X208901864Y-136313702D01*
X208884537Y-136296375D01*
X208864163Y-136282761D01*
X208841523Y-136273383D01*
X208799088Y-136260511D01*
X208769826Y-136244870D01*
X208744178Y-136223822D01*
X208723130Y-136198174D01*
X208707489Y-136168912D01*
X208697857Y-136137158D01*
X208694000Y-136097999D01*
X208694000Y-135418001D01*
X208697857Y-135378842D01*
X208707489Y-135347088D01*
X208723130Y-135317826D01*
X208744178Y-135292178D01*
X208769826Y-135271130D01*
X208799088Y-135255489D01*
X208841523Y-135242617D01*
X208864162Y-135233240D01*
X208884536Y-135219626D01*
X208901863Y-135202299D01*
X208915477Y-135181925D01*
X208924854Y-135159286D01*
X208929635Y-135135253D01*
X208929635Y-135110748D01*
X208924855Y-135086715D01*
X208915478Y-135064076D01*
X208901864Y-135043702D01*
X208884537Y-135026375D01*
X208864163Y-135012761D01*
X208841523Y-135003383D01*
X208799088Y-134990511D01*
X208769826Y-134974870D01*
X208744178Y-134953822D01*
X208723130Y-134928174D01*
X208707489Y-134898912D01*
X208697857Y-134867158D01*
X208694000Y-134827999D01*
X208694000Y-134148001D01*
X208697857Y-134108842D01*
X208707489Y-134077088D01*
X208723130Y-134047826D01*
X208744178Y-134022178D01*
X208769826Y-134001130D01*
X208799088Y-133985489D01*
X208841523Y-133972617D01*
X208864162Y-133963240D01*
X208884536Y-133949626D01*
X208901863Y-133932299D01*
X208915477Y-133911925D01*
X208924854Y-133889286D01*
X208929635Y-133865253D01*
X208929635Y-133840748D01*
X208924855Y-133816715D01*
X208915478Y-133794076D01*
X208901864Y-133773702D01*
X208884537Y-133756375D01*
X208864163Y-133742761D01*
X208841523Y-133733383D01*
X208799088Y-133720511D01*
X208769826Y-133704870D01*
X208744178Y-133683822D01*
X208723130Y-133658174D01*
X208707489Y-133628912D01*
X208697857Y-133597158D01*
X208694000Y-133557999D01*
X208694000Y-132878001D01*
X208697857Y-132838842D01*
X208707489Y-132807088D01*
X208723130Y-132777826D01*
X208744178Y-132752178D01*
X208769826Y-132731130D01*
X208799088Y-132715489D01*
X208841523Y-132702617D01*
X208864162Y-132693240D01*
X208884536Y-132679626D01*
X208901863Y-132662299D01*
X208915477Y-132641925D01*
X208924854Y-132619286D01*
X208929635Y-132595253D01*
X208929635Y-132570748D01*
X208924855Y-132546715D01*
X208915478Y-132524076D01*
X208901864Y-132503702D01*
X208884537Y-132486375D01*
X208864163Y-132472761D01*
X208841523Y-132463383D01*
X208799088Y-132450511D01*
X208769826Y-132434870D01*
X208744178Y-132413822D01*
X208723130Y-132388174D01*
X208707489Y-132358912D01*
X208697857Y-132327158D01*
X208694000Y-132287999D01*
X208694000Y-131608001D01*
X208697857Y-131568842D01*
X208707489Y-131537088D01*
X208723130Y-131507826D01*
X208744178Y-131482178D01*
X208769826Y-131461130D01*
X208799088Y-131445489D01*
X208841523Y-131432617D01*
X208864162Y-131423240D01*
X208884536Y-131409626D01*
X208901863Y-131392299D01*
X208915477Y-131371925D01*
X208924854Y-131349286D01*
X208929635Y-131325253D01*
X208929635Y-131300748D01*
X208924855Y-131276715D01*
X208915478Y-131254076D01*
X208901864Y-131233702D01*
X208884537Y-131216375D01*
X208864163Y-131202761D01*
X208841523Y-131193383D01*
X208799088Y-131180511D01*
X208769826Y-131164870D01*
X208744178Y-131143822D01*
X208723130Y-131118174D01*
X208707489Y-131088912D01*
X208697857Y-131057158D01*
X208694000Y-131017999D01*
X208694000Y-130338001D01*
X208697857Y-130298842D01*
X208707489Y-130267088D01*
X208723130Y-130237826D01*
X208744178Y-130212178D01*
X208769826Y-130191130D01*
X208799088Y-130175489D01*
X208841523Y-130162617D01*
X208864162Y-130153240D01*
X208884536Y-130139626D01*
X208901863Y-130122299D01*
X208915477Y-130101925D01*
X208924854Y-130079286D01*
X208929635Y-130055253D01*
X208929635Y-130030748D01*
X208924855Y-130006715D01*
X208915478Y-129984076D01*
X208901864Y-129963702D01*
X208884537Y-129946375D01*
X208864163Y-129932761D01*
X208841523Y-129923383D01*
X208799088Y-129910511D01*
X208769826Y-129894870D01*
X208744178Y-129873822D01*
X208723130Y-129848174D01*
X208707489Y-129818912D01*
X208697857Y-129787158D01*
X208694000Y-129747999D01*
X208694000Y-129068001D01*
X208697857Y-129028842D01*
X208707489Y-128997088D01*
X208723130Y-128967826D01*
X208744178Y-128942178D01*
X208769826Y-128921130D01*
X208799088Y-128905489D01*
X208841523Y-128892617D01*
X208864162Y-128883240D01*
X208884536Y-128869626D01*
X208901863Y-128852299D01*
X208915477Y-128831925D01*
X208924854Y-128809286D01*
X208929635Y-128785253D01*
X208929635Y-128760748D01*
X208924855Y-128736715D01*
X208915478Y-128714076D01*
X208901864Y-128693702D01*
X208884537Y-128676375D01*
X208864163Y-128662761D01*
X208841523Y-128653383D01*
X208799088Y-128640511D01*
X208769826Y-128624870D01*
X208744178Y-128603822D01*
X208723130Y-128578174D01*
X208707489Y-128548912D01*
X208697857Y-128517158D01*
X208694000Y-128477999D01*
X208694000Y-127798001D01*
X208697857Y-127758842D01*
X208707489Y-127727088D01*
X208723130Y-127697826D01*
X208744178Y-127672178D01*
X208769826Y-127651130D01*
X208799088Y-127635489D01*
X208841523Y-127622617D01*
X208864162Y-127613240D01*
X208884536Y-127599626D01*
X208901863Y-127582299D01*
X208915477Y-127561925D01*
X208924854Y-127539286D01*
X208929635Y-127515253D01*
X208929635Y-127490748D01*
X208924855Y-127466715D01*
X208915478Y-127444076D01*
X208901864Y-127423702D01*
X208884537Y-127406375D01*
X208864163Y-127392761D01*
X208841523Y-127383383D01*
X208799088Y-127370511D01*
X208769826Y-127354870D01*
X208744178Y-127333822D01*
X208723130Y-127308174D01*
X208707489Y-127278912D01*
X208697857Y-127247158D01*
X208694000Y-127207999D01*
X208694000Y-126528001D01*
X208697857Y-126488842D01*
X208707489Y-126457088D01*
X208723130Y-126427826D01*
X208744178Y-126402178D01*
X208769826Y-126381130D01*
X208799088Y-126365489D01*
X208841523Y-126352617D01*
X208864162Y-126343240D01*
X208884536Y-126329626D01*
X208901863Y-126312299D01*
X208915477Y-126291925D01*
X208924854Y-126269286D01*
X208929635Y-126245253D01*
X208929635Y-126220748D01*
X208924855Y-126196715D01*
X208915478Y-126174076D01*
X208901864Y-126153702D01*
X208884537Y-126136375D01*
X208864163Y-126122761D01*
X208841523Y-126113383D01*
X208799088Y-126100511D01*
X208769826Y-126084870D01*
X208744178Y-126063822D01*
X208723130Y-126038174D01*
X208707489Y-126008912D01*
X208697857Y-125977158D01*
X208694000Y-125937999D01*
X208694000Y-125258001D01*
X208697857Y-125218842D01*
X208707489Y-125187088D01*
X208723130Y-125157826D01*
X208744178Y-125132178D01*
X208769826Y-125111130D01*
X208799088Y-125095489D01*
X208841523Y-125082617D01*
X208864162Y-125073240D01*
X208884536Y-125059626D01*
X208901863Y-125042299D01*
X208915477Y-125021925D01*
X208924854Y-124999286D01*
X208929635Y-124975253D01*
X208929635Y-124950748D01*
X208924855Y-124926715D01*
X208915478Y-124904076D01*
X208901864Y-124883702D01*
X208884537Y-124866375D01*
X208864163Y-124852761D01*
X208841523Y-124843383D01*
X208799088Y-124830511D01*
X208769826Y-124814870D01*
X208744178Y-124793822D01*
X208723130Y-124768174D01*
X208707489Y-124738912D01*
X208697857Y-124707158D01*
X208694000Y-124667999D01*
X208694000Y-123988001D01*
X208697857Y-123948842D01*
X208707489Y-123917088D01*
X208723130Y-123887826D01*
X208744178Y-123862178D01*
X208769826Y-123841130D01*
X208799088Y-123825489D01*
X208841523Y-123812617D01*
X208864162Y-123803240D01*
X208884536Y-123789626D01*
X208901863Y-123772299D01*
X208915477Y-123751925D01*
X208924854Y-123729286D01*
X208929635Y-123705253D01*
X208929635Y-123680748D01*
X208924855Y-123656715D01*
X208915478Y-123634076D01*
X208901864Y-123613702D01*
X208884537Y-123596375D01*
X208864163Y-123582761D01*
X208841523Y-123573383D01*
X208799088Y-123560511D01*
X208769826Y-123544870D01*
X208744178Y-123523822D01*
X208723130Y-123498174D01*
X208707489Y-123468912D01*
X208697857Y-123437158D01*
X208694000Y-123397999D01*
X208694000Y-122718001D01*
X208697857Y-122678842D01*
X208707489Y-122647088D01*
X208723130Y-122617826D01*
X208744178Y-122592178D01*
X208769826Y-122571130D01*
X208799088Y-122555489D01*
X208841523Y-122542617D01*
X208864162Y-122533240D01*
X208884536Y-122519626D01*
X208901863Y-122502299D01*
X208915477Y-122481925D01*
X208924854Y-122459286D01*
X208929635Y-122435253D01*
X208929635Y-122410748D01*
X208924855Y-122386715D01*
X208915478Y-122364076D01*
X208901864Y-122343702D01*
X208884537Y-122326375D01*
X208864163Y-122312761D01*
X208841523Y-122303383D01*
X208799088Y-122290511D01*
X208769826Y-122274870D01*
X208744178Y-122253822D01*
X208723130Y-122228174D01*
X208707489Y-122198912D01*
X208697857Y-122167158D01*
X208694000Y-122127999D01*
X208694000Y-121448001D01*
X208697857Y-121408842D01*
X208707489Y-121377088D01*
X208723130Y-121347826D01*
X208744178Y-121322178D01*
X208769826Y-121301130D01*
X208799088Y-121285489D01*
X208841523Y-121272617D01*
X208864162Y-121263240D01*
X208884536Y-121249626D01*
X208901863Y-121232299D01*
X208915477Y-121211925D01*
X208924854Y-121189286D01*
X208929635Y-121165253D01*
X208929635Y-121140748D01*
X208924855Y-121116715D01*
X208915478Y-121094076D01*
X208901864Y-121073702D01*
X208884537Y-121056375D01*
X208864163Y-121042761D01*
X208841523Y-121033383D01*
X208799088Y-121020511D01*
X208769826Y-121004870D01*
X208744178Y-120983822D01*
X208723130Y-120958174D01*
X208707489Y-120928912D01*
X208697857Y-120897158D01*
X208694000Y-120857999D01*
X208694000Y-120178001D01*
X208697857Y-120138842D01*
X208707489Y-120107088D01*
X208723130Y-120077826D01*
X208744178Y-120052178D01*
X208769826Y-120031130D01*
X208799088Y-120015489D01*
X208841523Y-120002617D01*
X208864162Y-119993240D01*
X208884536Y-119979626D01*
X208901863Y-119962299D01*
X208915477Y-119941925D01*
X208924854Y-119919286D01*
X208929635Y-119895253D01*
X208929635Y-119870748D01*
X208924855Y-119846715D01*
X208915478Y-119824076D01*
X208901864Y-119803702D01*
X208884537Y-119786375D01*
X208864163Y-119772761D01*
X208841523Y-119763383D01*
X208799088Y-119750511D01*
X208769826Y-119734870D01*
X208744178Y-119713822D01*
X208723130Y-119688174D01*
X208707489Y-119658912D01*
X208697857Y-119627158D01*
X208694000Y-119587999D01*
X208694000Y-118908001D01*
X208697857Y-118868842D01*
X208707489Y-118837088D01*
X208723130Y-118807826D01*
X208744178Y-118782178D01*
X208769826Y-118761130D01*
X208799088Y-118745489D01*
X208841523Y-118732617D01*
X208864162Y-118723240D01*
X208884536Y-118709626D01*
X208901863Y-118692299D01*
X208915477Y-118671925D01*
X208924854Y-118649286D01*
X208929635Y-118625253D01*
X208929635Y-118600748D01*
X208924855Y-118576715D01*
X208915478Y-118554076D01*
X208901864Y-118533702D01*
X208884537Y-118516375D01*
X208864163Y-118502761D01*
X208841523Y-118493383D01*
X208799088Y-118480511D01*
X208769826Y-118464870D01*
X208744178Y-118443822D01*
X208723130Y-118418174D01*
X208707489Y-118388912D01*
X208697857Y-118357158D01*
X208694000Y-118317999D01*
X208694000Y-117638001D01*
X208697857Y-117598842D01*
X208707489Y-117567088D01*
X208723130Y-117537826D01*
X208744178Y-117512178D01*
X208769826Y-117491130D01*
X208799088Y-117475489D01*
X208830842Y-117465857D01*
X208870001Y-117462000D01*
X210069999Y-117462000D01*
X210109158Y-117465857D01*
G37*
G36*
X181623562Y-139775681D02*
G01*
X181658481Y-139786274D01*
X181690663Y-139803476D01*
X181718873Y-139826627D01*
X181742024Y-139854837D01*
X181759226Y-139887019D01*
X181769819Y-139921938D01*
X181774000Y-139964395D01*
X181774000Y-141105605D01*
X181769819Y-141148062D01*
X181759226Y-141182981D01*
X181742024Y-141215163D01*
X181718873Y-141243373D01*
X181690663Y-141266524D01*
X181658481Y-141283726D01*
X181623562Y-141294319D01*
X181581105Y-141298500D01*
X180114895Y-141298500D01*
X180072438Y-141294319D01*
X180037519Y-141283726D01*
X180005337Y-141266524D01*
X179977127Y-141243373D01*
X179953976Y-141215163D01*
X179936774Y-141182981D01*
X179926181Y-141148062D01*
X179922000Y-141105605D01*
X179922000Y-139964395D01*
X179926181Y-139921938D01*
X179936774Y-139887019D01*
X179953976Y-139854837D01*
X179977127Y-139826627D01*
X180005337Y-139803476D01*
X180037519Y-139786274D01*
X180072438Y-139775681D01*
X180114895Y-139771500D01*
X181581105Y-139771500D01*
X181623562Y-139775681D01*
G37*
G36*
X185433562Y-139775681D02*
G01*
X185468481Y-139786274D01*
X185500663Y-139803476D01*
X185528873Y-139826627D01*
X185552024Y-139854837D01*
X185569226Y-139887019D01*
X185579819Y-139921938D01*
X185584000Y-139964395D01*
X185584000Y-141105605D01*
X185579819Y-141148062D01*
X185569226Y-141182981D01*
X185552024Y-141215163D01*
X185528873Y-141243373D01*
X185500663Y-141266524D01*
X185468481Y-141283726D01*
X185433562Y-141294319D01*
X185391105Y-141298500D01*
X183924895Y-141298500D01*
X183882438Y-141294319D01*
X183847519Y-141283726D01*
X183815337Y-141266524D01*
X183787127Y-141243373D01*
X183763976Y-141215163D01*
X183746774Y-141182981D01*
X183736181Y-141148062D01*
X183732000Y-141105605D01*
X183732000Y-139964395D01*
X183736181Y-139921938D01*
X183746774Y-139887019D01*
X183763976Y-139854837D01*
X183787127Y-139826627D01*
X183815337Y-139803476D01*
X183847519Y-139786274D01*
X183882438Y-139775681D01*
X183924895Y-139771500D01*
X185391105Y-139771500D01*
X185433562Y-139775681D01*
G37*
G36*
X188989562Y-139702681D02*
G01*
X189024481Y-139713274D01*
X189056663Y-139730476D01*
X189084873Y-139753627D01*
X189108024Y-139781837D01*
X189125226Y-139814019D01*
X189135819Y-139848938D01*
X189140000Y-139891395D01*
X189140000Y-141032605D01*
X189135819Y-141075062D01*
X189125226Y-141109981D01*
X189108024Y-141142163D01*
X189084873Y-141170373D01*
X189056663Y-141193524D01*
X189024481Y-141210726D01*
X188989562Y-141221319D01*
X188947105Y-141225500D01*
X187480895Y-141225500D01*
X187438438Y-141221319D01*
X187403519Y-141210726D01*
X187371337Y-141193524D01*
X187343127Y-141170373D01*
X187319976Y-141142163D01*
X187302774Y-141109981D01*
X187292181Y-141075062D01*
X187288000Y-141032605D01*
X187288000Y-139891395D01*
X187292181Y-139848938D01*
X187302774Y-139814019D01*
X187319976Y-139781837D01*
X187343127Y-139753627D01*
X187371337Y-139730476D01*
X187403519Y-139713274D01*
X187438438Y-139702681D01*
X187480895Y-139698500D01*
X188947105Y-139698500D01*
X188989562Y-139702681D01*
G37*
G36*
X215269552Y-138758331D02*
G01*
X215351627Y-138792328D01*
X215351629Y-138792329D01*
X215388813Y-138817175D01*
X215425495Y-138841685D01*
X215488315Y-138904505D01*
X215499168Y-138920748D01*
X215531601Y-138969286D01*
X215537672Y-138978373D01*
X215571669Y-139060448D01*
X215589000Y-139147579D01*
X215589000Y-139236421D01*
X215571669Y-139323552D01*
X215537672Y-139405627D01*
X215537671Y-139405629D01*
X215488314Y-139479496D01*
X215425496Y-139542314D01*
X215351629Y-139591671D01*
X215351628Y-139591672D01*
X215351627Y-139591672D01*
X215269552Y-139625669D01*
X215182421Y-139643000D01*
X215093579Y-139643000D01*
X215006448Y-139625669D01*
X214924373Y-139591672D01*
X214924372Y-139591672D01*
X214924371Y-139591671D01*
X214850504Y-139542314D01*
X214787686Y-139479496D01*
X214738329Y-139405629D01*
X214738328Y-139405627D01*
X214704331Y-139323552D01*
X214687000Y-139236421D01*
X214687000Y-139147579D01*
X214704331Y-139060448D01*
X214738328Y-138978373D01*
X214744400Y-138969286D01*
X214776832Y-138920748D01*
X214787685Y-138904505D01*
X214850505Y-138841685D01*
X214887187Y-138817175D01*
X214924371Y-138792329D01*
X214924373Y-138792328D01*
X215006448Y-138758331D01*
X215093579Y-138741000D01*
X215182421Y-138741000D01*
X215269552Y-138758331D01*
G37*
G36*
X176718499Y-137400445D02*
G01*
X176755995Y-137411820D01*
X176790554Y-137430292D01*
X176820847Y-137455153D01*
X176845708Y-137485446D01*
X176864180Y-137520005D01*
X176875555Y-137557501D01*
X176880000Y-137602638D01*
X176880000Y-138241362D01*
X176875555Y-138286499D01*
X176864180Y-138323995D01*
X176845708Y-138358554D01*
X176820847Y-138388847D01*
X176790554Y-138413708D01*
X176755995Y-138432180D01*
X176718499Y-138443555D01*
X176673362Y-138448000D01*
X175934638Y-138448000D01*
X175889501Y-138443555D01*
X175852005Y-138432180D01*
X175817446Y-138413708D01*
X175787153Y-138388847D01*
X175762292Y-138358554D01*
X175743820Y-138323995D01*
X175732445Y-138286499D01*
X175728000Y-138241362D01*
X175728000Y-137602638D01*
X175732445Y-137557501D01*
X175743820Y-137520005D01*
X175762292Y-137485446D01*
X175787153Y-137455153D01*
X175817446Y-137430292D01*
X175852005Y-137411820D01*
X175889501Y-137400445D01*
X175934638Y-137396000D01*
X176673362Y-137396000D01*
X176718499Y-137400445D01*
G37*
G36*
X178468499Y-137400445D02*
G01*
X178505995Y-137411820D01*
X178540554Y-137430292D01*
X178570847Y-137455153D01*
X178595708Y-137485446D01*
X178614180Y-137520005D01*
X178625555Y-137557501D01*
X178630000Y-137602638D01*
X178630000Y-138241362D01*
X178625555Y-138286499D01*
X178614180Y-138323995D01*
X178595708Y-138358554D01*
X178570847Y-138388847D01*
X178540554Y-138413708D01*
X178505995Y-138432180D01*
X178468499Y-138443555D01*
X178423362Y-138448000D01*
X177684638Y-138448000D01*
X177639501Y-138443555D01*
X177602005Y-138432180D01*
X177567446Y-138413708D01*
X177537153Y-138388847D01*
X177512292Y-138358554D01*
X177493820Y-138323995D01*
X177482445Y-138286499D01*
X177478000Y-138241362D01*
X177478000Y-137602638D01*
X177482445Y-137557501D01*
X177493820Y-137520005D01*
X177512292Y-137485446D01*
X177537153Y-137455153D01*
X177567446Y-137430292D01*
X177602005Y-137411820D01*
X177639501Y-137400445D01*
X177684638Y-137396000D01*
X178423362Y-137396000D01*
X178468499Y-137400445D01*
G37*
G36*
X174263499Y-137400445D02*
G01*
X174300995Y-137411820D01*
X174335554Y-137430292D01*
X174365847Y-137455153D01*
X174390708Y-137485446D01*
X174409180Y-137520005D01*
X174420555Y-137557501D01*
X174425000Y-137602638D01*
X174425000Y-138241362D01*
X174420555Y-138286499D01*
X174409180Y-138323995D01*
X174390708Y-138358554D01*
X174365847Y-138388847D01*
X174335554Y-138413708D01*
X174300995Y-138432180D01*
X174263499Y-138443555D01*
X174218362Y-138448000D01*
X173479638Y-138448000D01*
X173434501Y-138443555D01*
X173397005Y-138432180D01*
X173362446Y-138413708D01*
X173332153Y-138388847D01*
X173307292Y-138358554D01*
X173288820Y-138323995D01*
X173277445Y-138286499D01*
X173273000Y-138241362D01*
X173273000Y-137602638D01*
X173277445Y-137557501D01*
X173288820Y-137520005D01*
X173307292Y-137485446D01*
X173332153Y-137455153D01*
X173362446Y-137430292D01*
X173397005Y-137411820D01*
X173434501Y-137400445D01*
X173479638Y-137396000D01*
X174218362Y-137396000D01*
X174263499Y-137400445D01*
G37*
G36*
X172513499Y-137400445D02*
G01*
X172550995Y-137411820D01*
X172585554Y-137430292D01*
X172615847Y-137455153D01*
X172640708Y-137485446D01*
X172659180Y-137520005D01*
X172670555Y-137557501D01*
X172675000Y-137602638D01*
X172675000Y-138241362D01*
X172670555Y-138286499D01*
X172659180Y-138323995D01*
X172640708Y-138358554D01*
X172615847Y-138388847D01*
X172585554Y-138413708D01*
X172550995Y-138432180D01*
X172513499Y-138443555D01*
X172468362Y-138448000D01*
X171729638Y-138448000D01*
X171684501Y-138443555D01*
X171647005Y-138432180D01*
X171612446Y-138413708D01*
X171582153Y-138388847D01*
X171557292Y-138358554D01*
X171538820Y-138323995D01*
X171527445Y-138286499D01*
X171523000Y-138241362D01*
X171523000Y-137602638D01*
X171527445Y-137557501D01*
X171538820Y-137520005D01*
X171557292Y-137485446D01*
X171582153Y-137455153D01*
X171612446Y-137430292D01*
X171647005Y-137411820D01*
X171684501Y-137400445D01*
X171729638Y-137396000D01*
X172468362Y-137396000D01*
X172513499Y-137400445D01*
G37*
G36*
X181623562Y-136908681D02*
G01*
X181658481Y-136919274D01*
X181690663Y-136936476D01*
X181718873Y-136959627D01*
X181742024Y-136987837D01*
X181759226Y-137020019D01*
X181769819Y-137054938D01*
X181774000Y-137097395D01*
X181774000Y-138238605D01*
X181769819Y-138281062D01*
X181759226Y-138315981D01*
X181742024Y-138348163D01*
X181718873Y-138376373D01*
X181690663Y-138399524D01*
X181658481Y-138416726D01*
X181623562Y-138427319D01*
X181581105Y-138431500D01*
X180114895Y-138431500D01*
X180072438Y-138427319D01*
X180037519Y-138416726D01*
X180005337Y-138399524D01*
X179977127Y-138376373D01*
X179953976Y-138348163D01*
X179936774Y-138315981D01*
X179926181Y-138281062D01*
X179922000Y-138238605D01*
X179922000Y-137097395D01*
X179926181Y-137054938D01*
X179936774Y-137020019D01*
X179953976Y-136987837D01*
X179977127Y-136959627D01*
X180005337Y-136936476D01*
X180037519Y-136919274D01*
X180072438Y-136908681D01*
X180114895Y-136904500D01*
X181581105Y-136904500D01*
X181623562Y-136908681D01*
G37*
G36*
X188989562Y-136908681D02*
G01*
X189024481Y-136919274D01*
X189056663Y-136936476D01*
X189084873Y-136959627D01*
X189108024Y-136987837D01*
X189125226Y-137020019D01*
X189135819Y-137054938D01*
X189140000Y-137097395D01*
X189140000Y-138238605D01*
X189135819Y-138281062D01*
X189125226Y-138315981D01*
X189108024Y-138348163D01*
X189084873Y-138376373D01*
X189056663Y-138399524D01*
X189024481Y-138416726D01*
X188989562Y-138427319D01*
X188947105Y-138431500D01*
X187480895Y-138431500D01*
X187438438Y-138427319D01*
X187403519Y-138416726D01*
X187371337Y-138399524D01*
X187343127Y-138376373D01*
X187319976Y-138348163D01*
X187302774Y-138315981D01*
X187292181Y-138281062D01*
X187288000Y-138238605D01*
X187288000Y-137097395D01*
X187292181Y-137054938D01*
X187302774Y-137020019D01*
X187319976Y-136987837D01*
X187343127Y-136959627D01*
X187371337Y-136936476D01*
X187403519Y-136919274D01*
X187438438Y-136908681D01*
X187480895Y-136904500D01*
X188947105Y-136904500D01*
X188989562Y-136908681D01*
G37*
G36*
X185179562Y-136835681D02*
G01*
X185214481Y-136846274D01*
X185246663Y-136863476D01*
X185274873Y-136886627D01*
X185298024Y-136914837D01*
X185315226Y-136947019D01*
X185325819Y-136981938D01*
X185330000Y-137024395D01*
X185330000Y-138165605D01*
X185325819Y-138208062D01*
X185315226Y-138242981D01*
X185298024Y-138275163D01*
X185274873Y-138303373D01*
X185246663Y-138326524D01*
X185214481Y-138343726D01*
X185179562Y-138354319D01*
X185137105Y-138358500D01*
X183670895Y-138358500D01*
X183628438Y-138354319D01*
X183593519Y-138343726D01*
X183561337Y-138326524D01*
X183533127Y-138303373D01*
X183509976Y-138275163D01*
X183492774Y-138242981D01*
X183482181Y-138208062D01*
X183478000Y-138165605D01*
X183478000Y-137024395D01*
X183482181Y-136981938D01*
X183492774Y-136947019D01*
X183509976Y-136914837D01*
X183533127Y-136886627D01*
X183561337Y-136863476D01*
X183593519Y-136846274D01*
X183628438Y-136835681D01*
X183670895Y-136831500D01*
X185137105Y-136831500D01*
X185179562Y-136835681D01*
G37*
G36*
X216089000Y-137868000D02*
G01*
X214187000Y-137868000D01*
X214187000Y-136416000D01*
X216089000Y-136416000D01*
X216089000Y-137868000D01*
G37*
G36*
X181623562Y-133933681D02*
G01*
X181658481Y-133944274D01*
X181690663Y-133961476D01*
X181718873Y-133984627D01*
X181742024Y-134012837D01*
X181759226Y-134045019D01*
X181769819Y-134079938D01*
X181774000Y-134122395D01*
X181774000Y-135263605D01*
X181769819Y-135306062D01*
X181759226Y-135340981D01*
X181742024Y-135373163D01*
X181718873Y-135401373D01*
X181690663Y-135424524D01*
X181658481Y-135441726D01*
X181623562Y-135452319D01*
X181581105Y-135456500D01*
X180114895Y-135456500D01*
X180072438Y-135452319D01*
X180037519Y-135441726D01*
X180005337Y-135424524D01*
X179977127Y-135401373D01*
X179953976Y-135373163D01*
X179936774Y-135340981D01*
X179926181Y-135306062D01*
X179922000Y-135263605D01*
X179922000Y-134122395D01*
X179926181Y-134079938D01*
X179936774Y-134045019D01*
X179953976Y-134012837D01*
X179977127Y-133984627D01*
X180005337Y-133961476D01*
X180037519Y-133944274D01*
X180072438Y-133933681D01*
X180114895Y-133929500D01*
X181581105Y-133929500D01*
X181623562Y-133933681D01*
G37*
G36*
X188989562Y-133933681D02*
G01*
X189024481Y-133944274D01*
X189056663Y-133961476D01*
X189084873Y-133984627D01*
X189108024Y-134012837D01*
X189125226Y-134045019D01*
X189135819Y-134079938D01*
X189140000Y-134122395D01*
X189140000Y-135263605D01*
X189135819Y-135306062D01*
X189125226Y-135340981D01*
X189108024Y-135373163D01*
X189084873Y-135401373D01*
X189056663Y-135424524D01*
X189024481Y-135441726D01*
X188989562Y-135452319D01*
X188947105Y-135456500D01*
X187480895Y-135456500D01*
X187438438Y-135452319D01*
X187403519Y-135441726D01*
X187371337Y-135424524D01*
X187343127Y-135401373D01*
X187319976Y-135373163D01*
X187302774Y-135340981D01*
X187292181Y-135306062D01*
X187288000Y-135263605D01*
X187288000Y-134122395D01*
X187292181Y-134079938D01*
X187302774Y-134045019D01*
X187319976Y-134012837D01*
X187343127Y-133984627D01*
X187371337Y-133961476D01*
X187403519Y-133944274D01*
X187438438Y-133933681D01*
X187480895Y-133929500D01*
X188947105Y-133929500D01*
X188989562Y-133933681D01*
G37*
G36*
X185179562Y-133860681D02*
G01*
X185214481Y-133871274D01*
X185246663Y-133888476D01*
X185274873Y-133911627D01*
X185298024Y-133939837D01*
X185315226Y-133972019D01*
X185325819Y-134006938D01*
X185330000Y-134049395D01*
X185330000Y-135190605D01*
X185325819Y-135233062D01*
X185315226Y-135267981D01*
X185298024Y-135300163D01*
X185274873Y-135328373D01*
X185246663Y-135351524D01*
X185214481Y-135368726D01*
X185179562Y-135379319D01*
X185137105Y-135383500D01*
X183670895Y-135383500D01*
X183628438Y-135379319D01*
X183593519Y-135368726D01*
X183561337Y-135351524D01*
X183533127Y-135328373D01*
X183509976Y-135300163D01*
X183492774Y-135267981D01*
X183482181Y-135233062D01*
X183478000Y-135190605D01*
X183478000Y-134049395D01*
X183482181Y-134006938D01*
X183492774Y-133972019D01*
X183509976Y-133939837D01*
X183533127Y-133911627D01*
X183561337Y-133888476D01*
X183593519Y-133871274D01*
X183628438Y-133860681D01*
X183670895Y-133856500D01*
X185137105Y-133856500D01*
X185179562Y-133860681D01*
G37*
G36*
X174404499Y-133336445D02*
G01*
X174441995Y-133347820D01*
X174476554Y-133366292D01*
X174506847Y-133391153D01*
X174531708Y-133421446D01*
X174550180Y-133456005D01*
X174561555Y-133493501D01*
X174566000Y-133538638D01*
X174566000Y-134177362D01*
X174561555Y-134222499D01*
X174550180Y-134259995D01*
X174531708Y-134294554D01*
X174506847Y-134324847D01*
X174476554Y-134349708D01*
X174441995Y-134368180D01*
X174404499Y-134379555D01*
X174359362Y-134384000D01*
X173620638Y-134384000D01*
X173575501Y-134379555D01*
X173538005Y-134368180D01*
X173503446Y-134349708D01*
X173473153Y-134324847D01*
X173448292Y-134294554D01*
X173429820Y-134259995D01*
X173418445Y-134222499D01*
X173414000Y-134177362D01*
X173414000Y-133538638D01*
X173418445Y-133493501D01*
X173429820Y-133456005D01*
X173448292Y-133421446D01*
X173473153Y-133391153D01*
X173503446Y-133366292D01*
X173538005Y-133347820D01*
X173575501Y-133336445D01*
X173620638Y-133332000D01*
X174359362Y-133332000D01*
X174404499Y-133336445D01*
G37*
G36*
X172654499Y-133336445D02*
G01*
X172691995Y-133347820D01*
X172726554Y-133366292D01*
X172756847Y-133391153D01*
X172781708Y-133421446D01*
X172800180Y-133456005D01*
X172811555Y-133493501D01*
X172816000Y-133538638D01*
X172816000Y-134177362D01*
X172811555Y-134222499D01*
X172800180Y-134259995D01*
X172781708Y-134294554D01*
X172756847Y-134324847D01*
X172726554Y-134349708D01*
X172691995Y-134368180D01*
X172654499Y-134379555D01*
X172609362Y-134384000D01*
X171870638Y-134384000D01*
X171825501Y-134379555D01*
X171788005Y-134368180D01*
X171753446Y-134349708D01*
X171723153Y-134324847D01*
X171698292Y-134294554D01*
X171679820Y-134259995D01*
X171668445Y-134222499D01*
X171664000Y-134177362D01*
X171664000Y-133538638D01*
X171668445Y-133493501D01*
X171679820Y-133456005D01*
X171698292Y-133421446D01*
X171723153Y-133391153D01*
X171753446Y-133366292D01*
X171788005Y-133347820D01*
X171825501Y-133336445D01*
X171870638Y-133332000D01*
X172609362Y-133332000D01*
X172654499Y-133336445D01*
G37*
G36*
X176718499Y-133336445D02*
G01*
X176755995Y-133347820D01*
X176790554Y-133366292D01*
X176820847Y-133391153D01*
X176845708Y-133421446D01*
X176864180Y-133456005D01*
X176875555Y-133493501D01*
X176880000Y-133538638D01*
X176880000Y-134177362D01*
X176875555Y-134222499D01*
X176864180Y-134259995D01*
X176845708Y-134294554D01*
X176820847Y-134324847D01*
X176790554Y-134349708D01*
X176755995Y-134368180D01*
X176718499Y-134379555D01*
X176673362Y-134384000D01*
X175934638Y-134384000D01*
X175889501Y-134379555D01*
X175852005Y-134368180D01*
X175817446Y-134349708D01*
X175787153Y-134324847D01*
X175762292Y-134294554D01*
X175743820Y-134259995D01*
X175732445Y-134222499D01*
X175728000Y-134177362D01*
X175728000Y-133538638D01*
X175732445Y-133493501D01*
X175743820Y-133456005D01*
X175762292Y-133421446D01*
X175787153Y-133391153D01*
X175817446Y-133366292D01*
X175852005Y-133347820D01*
X175889501Y-133336445D01*
X175934638Y-133332000D01*
X176673362Y-133332000D01*
X176718499Y-133336445D01*
G37*
G36*
X178468499Y-133336445D02*
G01*
X178505995Y-133347820D01*
X178540554Y-133366292D01*
X178570847Y-133391153D01*
X178595708Y-133421446D01*
X178614180Y-133456005D01*
X178625555Y-133493501D01*
X178630000Y-133538638D01*
X178630000Y-134177362D01*
X178625555Y-134222499D01*
X178614180Y-134259995D01*
X178595708Y-134294554D01*
X178570847Y-134324847D01*
X178540554Y-134349708D01*
X178505995Y-134368180D01*
X178468499Y-134379555D01*
X178423362Y-134384000D01*
X177684638Y-134384000D01*
X177639501Y-134379555D01*
X177602005Y-134368180D01*
X177567446Y-134349708D01*
X177537153Y-134324847D01*
X177512292Y-134294554D01*
X177493820Y-134259995D01*
X177482445Y-134222499D01*
X177478000Y-134177362D01*
X177478000Y-133538638D01*
X177482445Y-133493501D01*
X177493820Y-133456005D01*
X177512292Y-133421446D01*
X177537153Y-133391153D01*
X177567446Y-133366292D01*
X177602005Y-133347820D01*
X177639501Y-133336445D01*
X177684638Y-133332000D01*
X178423362Y-133332000D01*
X178468499Y-133336445D01*
G37*
G36*
X215881442Y-131867518D02*
G01*
X215947627Y-131874037D01*
X216117466Y-131925557D01*
X216273991Y-132009222D01*
X216280590Y-132014638D01*
X216411186Y-132121814D01*
X216494448Y-132223271D01*
X216523778Y-132259009D01*
X216607443Y-132415534D01*
X216658963Y-132585373D01*
X216676359Y-132762000D01*
X216658963Y-132938627D01*
X216607443Y-133108466D01*
X216523778Y-133264991D01*
X216494448Y-133300729D01*
X216411186Y-133402186D01*
X216345606Y-133456005D01*
X216273991Y-133514778D01*
X216117466Y-133598443D01*
X215947627Y-133649963D01*
X215881443Y-133656481D01*
X215815260Y-133663000D01*
X215476740Y-133663000D01*
X215410557Y-133656481D01*
X215344373Y-133649963D01*
X215174534Y-133598443D01*
X215018009Y-133514778D01*
X214946394Y-133456005D01*
X214880814Y-133402186D01*
X214797552Y-133300729D01*
X214768222Y-133264991D01*
X214684557Y-133108466D01*
X214633037Y-132938627D01*
X214615641Y-132762000D01*
X214633037Y-132585373D01*
X214684557Y-132415534D01*
X214768222Y-132259009D01*
X214797552Y-132223271D01*
X214880814Y-132121814D01*
X215011410Y-132014638D01*
X215018009Y-132009222D01*
X215174534Y-131925557D01*
X215344373Y-131874037D01*
X215410558Y-131867518D01*
X215476740Y-131861000D01*
X215815260Y-131861000D01*
X215881442Y-131867518D01*
G37*
G36*
X188989562Y-131574681D02*
G01*
X189024481Y-131585274D01*
X189056663Y-131602476D01*
X189084873Y-131625627D01*
X189108024Y-131653837D01*
X189125226Y-131686019D01*
X189135819Y-131720938D01*
X189140000Y-131763395D01*
X189140000Y-132904605D01*
X189135819Y-132947062D01*
X189125226Y-132981981D01*
X189108024Y-133014163D01*
X189084873Y-133042373D01*
X189056663Y-133065524D01*
X189024481Y-133082726D01*
X188989562Y-133093319D01*
X188947105Y-133097500D01*
X187480895Y-133097500D01*
X187438438Y-133093319D01*
X187403519Y-133082726D01*
X187371337Y-133065524D01*
X187343127Y-133042373D01*
X187319976Y-133014163D01*
X187302774Y-132981981D01*
X187292181Y-132947062D01*
X187288000Y-132904605D01*
X187288000Y-131763395D01*
X187292181Y-131720938D01*
X187302774Y-131686019D01*
X187319976Y-131653837D01*
X187343127Y-131625627D01*
X187371337Y-131602476D01*
X187403519Y-131585274D01*
X187438438Y-131574681D01*
X187480895Y-131570500D01*
X188947105Y-131570500D01*
X188989562Y-131574681D01*
G37*
G36*
X182814499Y-131812445D02*
G01*
X182851995Y-131823820D01*
X182886554Y-131842292D01*
X182916847Y-131867153D01*
X182941708Y-131897446D01*
X182960180Y-131932005D01*
X182971555Y-131969501D01*
X182976000Y-132014638D01*
X182976000Y-132653362D01*
X182971555Y-132698499D01*
X182960180Y-132735995D01*
X182941708Y-132770554D01*
X182916847Y-132800847D01*
X182886554Y-132825708D01*
X182851995Y-132844180D01*
X182814499Y-132855555D01*
X182769362Y-132860000D01*
X182030638Y-132860000D01*
X181985501Y-132855555D01*
X181948005Y-132844180D01*
X181913446Y-132825708D01*
X181883153Y-132800847D01*
X181858292Y-132770554D01*
X181839820Y-132735995D01*
X181828445Y-132698499D01*
X181824000Y-132653362D01*
X181824000Y-132014638D01*
X181828445Y-131969501D01*
X181839820Y-131932005D01*
X181858292Y-131897446D01*
X181883153Y-131867153D01*
X181913446Y-131842292D01*
X181948005Y-131823820D01*
X181985501Y-131812445D01*
X182030638Y-131808000D01*
X182769362Y-131808000D01*
X182814499Y-131812445D01*
G37*
G36*
X184564499Y-131812445D02*
G01*
X184601995Y-131823820D01*
X184636554Y-131842292D01*
X184666847Y-131867153D01*
X184691708Y-131897446D01*
X184710180Y-131932005D01*
X184721555Y-131969501D01*
X184726000Y-132014638D01*
X184726000Y-132653362D01*
X184721555Y-132698499D01*
X184710180Y-132735995D01*
X184691708Y-132770554D01*
X184666847Y-132800847D01*
X184636554Y-132825708D01*
X184601995Y-132844180D01*
X184564499Y-132855555D01*
X184519362Y-132860000D01*
X183780638Y-132860000D01*
X183735501Y-132855555D01*
X183698005Y-132844180D01*
X183663446Y-132825708D01*
X183633153Y-132800847D01*
X183608292Y-132770554D01*
X183589820Y-132735995D01*
X183578445Y-132698499D01*
X183574000Y-132653362D01*
X183574000Y-132014638D01*
X183578445Y-131969501D01*
X183589820Y-131932005D01*
X183608292Y-131897446D01*
X183633153Y-131867153D01*
X183663446Y-131842292D01*
X183698005Y-131823820D01*
X183735501Y-131812445D01*
X183780638Y-131808000D01*
X184519362Y-131808000D01*
X184564499Y-131812445D01*
G37*
G36*
X215881442Y-129367518D02*
G01*
X215947627Y-129374037D01*
X216117466Y-129425557D01*
X216273991Y-129509222D01*
X216309729Y-129538552D01*
X216411186Y-129621814D01*
X216494448Y-129723271D01*
X216523778Y-129759009D01*
X216607443Y-129915534D01*
X216658963Y-130085373D01*
X216676359Y-130262000D01*
X216658963Y-130438627D01*
X216607443Y-130608466D01*
X216523778Y-130764991D01*
X216494448Y-130800729D01*
X216411186Y-130902186D01*
X216309729Y-130985448D01*
X216273991Y-131014778D01*
X216117466Y-131098443D01*
X215947627Y-131149963D01*
X215906658Y-131153998D01*
X215815260Y-131163000D01*
X215476740Y-131163000D01*
X215385342Y-131153998D01*
X215344373Y-131149963D01*
X215174534Y-131098443D01*
X215018009Y-131014778D01*
X214982271Y-130985448D01*
X214880814Y-130902186D01*
X214797552Y-130800729D01*
X214768222Y-130764991D01*
X214684557Y-130608466D01*
X214633037Y-130438627D01*
X214615641Y-130262000D01*
X214633037Y-130085373D01*
X214684557Y-129915534D01*
X214768222Y-129759009D01*
X214797552Y-129723271D01*
X214880814Y-129621814D01*
X214982271Y-129538552D01*
X215018009Y-129509222D01*
X215174534Y-129425557D01*
X215344373Y-129374037D01*
X215410558Y-129367518D01*
X215476740Y-129361000D01*
X215815260Y-129361000D01*
X215881442Y-129367518D01*
G37*
G36*
X188989562Y-128599681D02*
G01*
X189024481Y-128610274D01*
X189056663Y-128627476D01*
X189084873Y-128650627D01*
X189108024Y-128678837D01*
X189125226Y-128711019D01*
X189135819Y-128745938D01*
X189140000Y-128788395D01*
X189140000Y-129929605D01*
X189135819Y-129972062D01*
X189125226Y-130006981D01*
X189108024Y-130039163D01*
X189084873Y-130067373D01*
X189056663Y-130090524D01*
X189024481Y-130107726D01*
X188989562Y-130118319D01*
X188947105Y-130122500D01*
X187480895Y-130122500D01*
X187438438Y-130118319D01*
X187403519Y-130107726D01*
X187371337Y-130090524D01*
X187343127Y-130067373D01*
X187319976Y-130039163D01*
X187302774Y-130006981D01*
X187292181Y-129972062D01*
X187288000Y-129929605D01*
X187288000Y-128788395D01*
X187292181Y-128745938D01*
X187302774Y-128711019D01*
X187319976Y-128678837D01*
X187343127Y-128650627D01*
X187371337Y-128627476D01*
X187403519Y-128610274D01*
X187438438Y-128599681D01*
X187480895Y-128595500D01*
X188947105Y-128595500D01*
X188989562Y-128599681D01*
G37*
G36*
X174179890Y-128374017D02*
G01*
X174298364Y-128423091D01*
X174404988Y-128494335D01*
X174495665Y-128585012D01*
X174555102Y-128673965D01*
X174566910Y-128691638D01*
X174615983Y-128810110D01*
X174635866Y-128910068D01*
X174641000Y-128935882D01*
X174641000Y-129064118D01*
X174615983Y-129189890D01*
X174566909Y-129308364D01*
X174495665Y-129414988D01*
X174404988Y-129505665D01*
X174298364Y-129576909D01*
X174298363Y-129576910D01*
X174298362Y-129576910D01*
X174179890Y-129625983D01*
X174054119Y-129651000D01*
X173925881Y-129651000D01*
X173800110Y-129625983D01*
X173681638Y-129576910D01*
X173681637Y-129576910D01*
X173681636Y-129576909D01*
X173575012Y-129505665D01*
X173484335Y-129414988D01*
X173413091Y-129308364D01*
X173364017Y-129189890D01*
X173339000Y-129064118D01*
X173339000Y-128935882D01*
X173344135Y-128910068D01*
X173364017Y-128810110D01*
X173413090Y-128691638D01*
X173424899Y-128673965D01*
X173484335Y-128585012D01*
X173575012Y-128494335D01*
X173681636Y-128423091D01*
X173800110Y-128374017D01*
X173925881Y-128349000D01*
X174054119Y-128349000D01*
X174179890Y-128374017D01*
G37*
G36*
X216529600Y-126864989D02*
G01*
X216562652Y-126875015D01*
X216593103Y-126891292D01*
X216619799Y-126913201D01*
X216641708Y-126939897D01*
X216657985Y-126970348D01*
X216668011Y-127003400D01*
X216672000Y-127043903D01*
X216672000Y-128480097D01*
X216668011Y-128520600D01*
X216657985Y-128553652D01*
X216641708Y-128584103D01*
X216619799Y-128610799D01*
X216593103Y-128632708D01*
X216562652Y-128648985D01*
X216529600Y-128659011D01*
X216489097Y-128663000D01*
X214802903Y-128663000D01*
X214762400Y-128659011D01*
X214729348Y-128648985D01*
X214698897Y-128632708D01*
X214672201Y-128610799D01*
X214650292Y-128584103D01*
X214634015Y-128553652D01*
X214623989Y-128520600D01*
X214620000Y-128480097D01*
X214620000Y-127043903D01*
X214623989Y-127003400D01*
X214634015Y-126970348D01*
X214650292Y-126939897D01*
X214672201Y-126913201D01*
X214698897Y-126891292D01*
X214729348Y-126875015D01*
X214762400Y-126864989D01*
X214802903Y-126861000D01*
X216489097Y-126861000D01*
X216529600Y-126864989D01*
G37*
G36*
X179921000Y-128613000D02*
G01*
X178219000Y-128613000D01*
X178219000Y-126911000D01*
X179921000Y-126911000D01*
X179921000Y-128613000D01*
G37*
G36*
X181818228Y-126943703D02*
G01*
X181973100Y-127007853D01*
X182112481Y-127100985D01*
X182231015Y-127219519D01*
X182324147Y-127358900D01*
X182388297Y-127513772D01*
X182421000Y-127678184D01*
X182421000Y-127845816D01*
X182388297Y-128010228D01*
X182324147Y-128165100D01*
X182231015Y-128304481D01*
X182112481Y-128423015D01*
X181973100Y-128516147D01*
X181818228Y-128580297D01*
X181653816Y-128613000D01*
X181486184Y-128613000D01*
X181321772Y-128580297D01*
X181166900Y-128516147D01*
X181027519Y-128423015D01*
X180908985Y-128304481D01*
X180815853Y-128165100D01*
X180751703Y-128010228D01*
X180719000Y-127845816D01*
X180719000Y-127678184D01*
X180751703Y-127513772D01*
X180815853Y-127358900D01*
X180908985Y-127219519D01*
X181027519Y-127100985D01*
X181166900Y-127007853D01*
X181321772Y-126943703D01*
X181486184Y-126911000D01*
X181653816Y-126911000D01*
X181818228Y-126943703D01*
G37*
G36*
X201331000Y-127819000D02*
G01*
X197229000Y-127819000D01*
X197229000Y-123717000D01*
X201331000Y-123717000D01*
X201331000Y-127819000D01*
G37*
G36*
X188989562Y-126240681D02*
G01*
X189024481Y-126251274D01*
X189056663Y-126268476D01*
X189084873Y-126291627D01*
X189108024Y-126319837D01*
X189125226Y-126352019D01*
X189135819Y-126386938D01*
X189140000Y-126429395D01*
X189140000Y-127570605D01*
X189135819Y-127613062D01*
X189125226Y-127647981D01*
X189108024Y-127680163D01*
X189084873Y-127708373D01*
X189056663Y-127731524D01*
X189024481Y-127748726D01*
X188989562Y-127759319D01*
X188947105Y-127763500D01*
X187480895Y-127763500D01*
X187438438Y-127759319D01*
X187403519Y-127748726D01*
X187371337Y-127731524D01*
X187343127Y-127708373D01*
X187319976Y-127680163D01*
X187302774Y-127647981D01*
X187292181Y-127613062D01*
X187288000Y-127570605D01*
X187288000Y-126429395D01*
X187292181Y-126386938D01*
X187302774Y-126352019D01*
X187319976Y-126319837D01*
X187343127Y-126291627D01*
X187371337Y-126268476D01*
X187403519Y-126251274D01*
X187438438Y-126240681D01*
X187480895Y-126236500D01*
X188947105Y-126236500D01*
X188989562Y-126240681D01*
G37*
G36*
X174641000Y-127651000D02*
G01*
X173339000Y-127651000D01*
X173339000Y-126349000D01*
X174641000Y-126349000D01*
X174641000Y-127651000D01*
G37*
G36*
X188989562Y-123265681D02*
G01*
X189024481Y-123276274D01*
X189056663Y-123293476D01*
X189084873Y-123316627D01*
X189108024Y-123344837D01*
X189125226Y-123377019D01*
X189135819Y-123411938D01*
X189140000Y-123454395D01*
X189140000Y-124595605D01*
X189135819Y-124638062D01*
X189125226Y-124672981D01*
X189108024Y-124705163D01*
X189084873Y-124733373D01*
X189056663Y-124756524D01*
X189024481Y-124773726D01*
X188989562Y-124784319D01*
X188947105Y-124788500D01*
X187480895Y-124788500D01*
X187438438Y-124784319D01*
X187403519Y-124773726D01*
X187371337Y-124756524D01*
X187343127Y-124733373D01*
X187319976Y-124705163D01*
X187302774Y-124672981D01*
X187292181Y-124638062D01*
X187288000Y-124595605D01*
X187288000Y-123454395D01*
X187292181Y-123411938D01*
X187302774Y-123377019D01*
X187319976Y-123344837D01*
X187343127Y-123316627D01*
X187371337Y-123293476D01*
X187403519Y-123276274D01*
X187438438Y-123265681D01*
X187480895Y-123261500D01*
X188947105Y-123261500D01*
X188989562Y-123265681D01*
G37*
G36*
X179513000Y-123916000D02*
G01*
X177611000Y-123916000D01*
X177611000Y-122464000D01*
X179513000Y-122464000D01*
X179513000Y-123916000D01*
G37*
G36*
X184925562Y-120833681D02*
G01*
X184960481Y-120844274D01*
X184992663Y-120861476D01*
X185020873Y-120884627D01*
X185044024Y-120912837D01*
X185061226Y-120945019D01*
X185071819Y-120979938D01*
X185076000Y-121022395D01*
X185076000Y-122163605D01*
X185071819Y-122206062D01*
X185061226Y-122240981D01*
X185044024Y-122273163D01*
X185020873Y-122301373D01*
X184992663Y-122324524D01*
X184960481Y-122341726D01*
X184925562Y-122352319D01*
X184883105Y-122356500D01*
X183416895Y-122356500D01*
X183374438Y-122352319D01*
X183339519Y-122341726D01*
X183307337Y-122324524D01*
X183279127Y-122301373D01*
X183255976Y-122273163D01*
X183238774Y-122240981D01*
X183228181Y-122206062D01*
X183224000Y-122163605D01*
X183224000Y-121022395D01*
X183228181Y-120979938D01*
X183238774Y-120945019D01*
X183255976Y-120912837D01*
X183279127Y-120884627D01*
X183307337Y-120861476D01*
X183339519Y-120844274D01*
X183374438Y-120833681D01*
X183416895Y-120829500D01*
X184883105Y-120829500D01*
X184925562Y-120833681D01*
G37*
G36*
X215664622Y-118868842D02*
G01*
X215844410Y-118904604D01*
X216126674Y-119021521D01*
X216380705Y-119191259D01*
X216596741Y-119407295D01*
X216766479Y-119661326D01*
X216883396Y-119943590D01*
X216943000Y-120243240D01*
X216943000Y-120548760D01*
X216883396Y-120848410D01*
X216766479Y-121130674D01*
X216596741Y-121384705D01*
X216380705Y-121600741D01*
X216126674Y-121770479D01*
X215844410Y-121887396D01*
X215694585Y-121917198D01*
X215544761Y-121947000D01*
X215239239Y-121947000D01*
X215089415Y-121917198D01*
X214939590Y-121887396D01*
X214657326Y-121770479D01*
X214403295Y-121600741D01*
X214187259Y-121384705D01*
X214017521Y-121130674D01*
X213900604Y-120848410D01*
X213841000Y-120548760D01*
X213841000Y-120243240D01*
X213900604Y-119943590D01*
X214017521Y-119661326D01*
X214187259Y-119407295D01*
X214403295Y-119191259D01*
X214657326Y-119021521D01*
X214939590Y-118904604D01*
X215119378Y-118868842D01*
X215239239Y-118845000D01*
X215544761Y-118845000D01*
X215664622Y-118868842D01*
G37*
G36*
X172992622Y-118868842D02*
G01*
X173172410Y-118904604D01*
X173454674Y-119021521D01*
X173708705Y-119191259D01*
X173924741Y-119407295D01*
X174094479Y-119661326D01*
X174211396Y-119943590D01*
X174271000Y-120243240D01*
X174271000Y-120548760D01*
X174211396Y-120848410D01*
X174094479Y-121130674D01*
X173924741Y-121384705D01*
X173708705Y-121600741D01*
X173454674Y-121770479D01*
X173172410Y-121887396D01*
X173022585Y-121917198D01*
X172872761Y-121947000D01*
X172567239Y-121947000D01*
X172417415Y-121917198D01*
X172267590Y-121887396D01*
X171985326Y-121770479D01*
X171731295Y-121600741D01*
X171515259Y-121384705D01*
X171345521Y-121130674D01*
X171228604Y-120848410D01*
X171169000Y-120548760D01*
X171169000Y-120243240D01*
X171228604Y-119943590D01*
X171345521Y-119661326D01*
X171515259Y-119407295D01*
X171731295Y-119191259D01*
X171985326Y-119021521D01*
X172267590Y-118904604D01*
X172447378Y-118868842D01*
X172567239Y-118845000D01*
X172872761Y-118845000D01*
X172992622Y-118868842D01*
G37*
G36*
X178693552Y-120706331D02*
G01*
X178775627Y-120740328D01*
X178775629Y-120740329D01*
X178812813Y-120765175D01*
X178849495Y-120789685D01*
X178912315Y-120852505D01*
X178961672Y-120926373D01*
X178995669Y-121008448D01*
X179013000Y-121095579D01*
X179013000Y-121184421D01*
X178995669Y-121271552D01*
X178961672Y-121353627D01*
X178924779Y-121408842D01*
X178912314Y-121427496D01*
X178849496Y-121490314D01*
X178775629Y-121539671D01*
X178775628Y-121539672D01*
X178775627Y-121539672D01*
X178693552Y-121573669D01*
X178606421Y-121591000D01*
X178517579Y-121591000D01*
X178430448Y-121573669D01*
X178348373Y-121539672D01*
X178348372Y-121539672D01*
X178348371Y-121539671D01*
X178274504Y-121490314D01*
X178211686Y-121427496D01*
X178199222Y-121408842D01*
X178162328Y-121353627D01*
X178128331Y-121271552D01*
X178111000Y-121184421D01*
X178111000Y-121095579D01*
X178128331Y-121008448D01*
X178162328Y-120926373D01*
X178211685Y-120852505D01*
X178274505Y-120789685D01*
X178311187Y-120765175D01*
X178348371Y-120740329D01*
X178348373Y-120740328D01*
X178430448Y-120706331D01*
X178517579Y-120689000D01*
X178606421Y-120689000D01*
X178693552Y-120706331D01*
G37*
G36*
X189086499Y-119316445D02*
G01*
X189123995Y-119327820D01*
X189158554Y-119346292D01*
X189188847Y-119371153D01*
X189213708Y-119401446D01*
X189232180Y-119436005D01*
X189243555Y-119473501D01*
X189248000Y-119518638D01*
X189248000Y-120257362D01*
X189243555Y-120302499D01*
X189232180Y-120339995D01*
X189213708Y-120374554D01*
X189188847Y-120404847D01*
X189158554Y-120429708D01*
X189123995Y-120448180D01*
X189086499Y-120459555D01*
X189041362Y-120464000D01*
X188402638Y-120464000D01*
X188357501Y-120459555D01*
X188320005Y-120448180D01*
X188285446Y-120429708D01*
X188255153Y-120404847D01*
X188230292Y-120374554D01*
X188211820Y-120339995D01*
X188200445Y-120302499D01*
X188196000Y-120257362D01*
X188196000Y-119518638D01*
X188200445Y-119473501D01*
X188211820Y-119436005D01*
X188230292Y-119401446D01*
X188255153Y-119371153D01*
X188285446Y-119346292D01*
X188320005Y-119327820D01*
X188357501Y-119316445D01*
X188402638Y-119312000D01*
X189041362Y-119312000D01*
X189086499Y-119316445D01*
G37*
G36*
X179513000Y-119816000D02*
G01*
X177611000Y-119816000D01*
X177611000Y-118364000D01*
X179513000Y-118364000D01*
X179513000Y-119816000D01*
G37*
G36*
X184925562Y-117858681D02*
G01*
X184960481Y-117869274D01*
X184992663Y-117886476D01*
X185020873Y-117909627D01*
X185044024Y-117937837D01*
X185061226Y-117970019D01*
X185071819Y-118004938D01*
X185076000Y-118047395D01*
X185076000Y-119188605D01*
X185071819Y-119231062D01*
X185061226Y-119265981D01*
X185044024Y-119298163D01*
X185020873Y-119326373D01*
X184992663Y-119349524D01*
X184960481Y-119366726D01*
X184925562Y-119377319D01*
X184883105Y-119381500D01*
X183416895Y-119381500D01*
X183374438Y-119377319D01*
X183339519Y-119366726D01*
X183307337Y-119349524D01*
X183279127Y-119326373D01*
X183255976Y-119298163D01*
X183238774Y-119265981D01*
X183228181Y-119231062D01*
X183224000Y-119188605D01*
X183224000Y-118047395D01*
X183228181Y-118004938D01*
X183238774Y-117970019D01*
X183255976Y-117937837D01*
X183279127Y-117909627D01*
X183307337Y-117886476D01*
X183339519Y-117869274D01*
X183374438Y-117858681D01*
X183416895Y-117854500D01*
X184883105Y-117854500D01*
X184925562Y-117858681D01*
G37*
G36*
X189086499Y-117566445D02*
G01*
X189123995Y-117577820D01*
X189158554Y-117596292D01*
X189188847Y-117621153D01*
X189213708Y-117651446D01*
X189232180Y-117686005D01*
X189243555Y-117723501D01*
X189248000Y-117768638D01*
X189248000Y-118507362D01*
X189243555Y-118552499D01*
X189232180Y-118589995D01*
X189213708Y-118624554D01*
X189188847Y-118654847D01*
X189158554Y-118679708D01*
X189123995Y-118698180D01*
X189086499Y-118709555D01*
X189041362Y-118714000D01*
X188402638Y-118714000D01*
X188357501Y-118709555D01*
X188320005Y-118698180D01*
X188285446Y-118679708D01*
X188255153Y-118654847D01*
X188230292Y-118624554D01*
X188211820Y-118589995D01*
X188200445Y-118552499D01*
X188196000Y-118507362D01*
X188196000Y-117768638D01*
X188200445Y-117723501D01*
X188211820Y-117686005D01*
X188230292Y-117651446D01*
X188255153Y-117621153D01*
X188285446Y-117596292D01*
X188320005Y-117577820D01*
X188357501Y-117566445D01*
X188402638Y-117562000D01*
X189041362Y-117562000D01*
X189086499Y-117566445D01*
G37*
M02*
