G04 #@! TF.GenerationSoftware,KiCad,Pcbnew,5.1.5+dfsg1-2build2*
G04 #@! TF.CreationDate,2021-12-30T00:51:53-05:00*
G04 #@! TF.ProjectId,schematics,73636865-6d61-4746-9963-732e6b696361,rev?*
G04 #@! TF.SameCoordinates,Original*
G04 #@! TF.FileFunction,Copper,L2,Bot*
G04 #@! TF.FilePolarity,Positive*
%FSLAX46Y46*%
G04 Gerber Fmt 4.6, Leading zero omitted, Abs format (unit mm)*
G04 Created by KiCad (PCBNEW 5.1.5+dfsg1-2build2) date 2021-12-30 00:51:53*
%MOMM*%
%LPD*%
G04 APERTURE LIST*
%ADD10O,1.700000X2.000000*%
%ADD11C,0.100000*%
%ADD12C,1.200000*%
%ADD13R,1.200000X1.200000*%
%ADD14R,1.600000X1.600000*%
%ADD15C,1.600000*%
%ADD16O,2.000000X1.700000*%
%ADD17C,3.000000*%
%ADD18C,2.500000*%
%ADD19O,1.950000X1.700000*%
%ADD20O,1.700000X1.950000*%
%ADD21C,0.800000*%
%ADD22C,0.400000*%
%ADD23C,0.250000*%
G04 APERTURE END LIST*
D10*
X182586000Y-169418000D03*
G04 #@! TA.AperFunction,ComponentPad*
D11*
G36*
X180710504Y-168419204D02*
G01*
X180734773Y-168422804D01*
X180758571Y-168428765D01*
X180781671Y-168437030D01*
X180803849Y-168447520D01*
X180824893Y-168460133D01*
X180844598Y-168474747D01*
X180862777Y-168491223D01*
X180879253Y-168509402D01*
X180893867Y-168529107D01*
X180906480Y-168550151D01*
X180916970Y-168572329D01*
X180925235Y-168595429D01*
X180931196Y-168619227D01*
X180934796Y-168643496D01*
X180936000Y-168668000D01*
X180936000Y-170168000D01*
X180934796Y-170192504D01*
X180931196Y-170216773D01*
X180925235Y-170240571D01*
X180916970Y-170263671D01*
X180906480Y-170285849D01*
X180893867Y-170306893D01*
X180879253Y-170326598D01*
X180862777Y-170344777D01*
X180844598Y-170361253D01*
X180824893Y-170375867D01*
X180803849Y-170388480D01*
X180781671Y-170398970D01*
X180758571Y-170407235D01*
X180734773Y-170413196D01*
X180710504Y-170416796D01*
X180686000Y-170418000D01*
X179486000Y-170418000D01*
X179461496Y-170416796D01*
X179437227Y-170413196D01*
X179413429Y-170407235D01*
X179390329Y-170398970D01*
X179368151Y-170388480D01*
X179347107Y-170375867D01*
X179327402Y-170361253D01*
X179309223Y-170344777D01*
X179292747Y-170326598D01*
X179278133Y-170306893D01*
X179265520Y-170285849D01*
X179255030Y-170263671D01*
X179246765Y-170240571D01*
X179240804Y-170216773D01*
X179237204Y-170192504D01*
X179236000Y-170168000D01*
X179236000Y-168668000D01*
X179237204Y-168643496D01*
X179240804Y-168619227D01*
X179246765Y-168595429D01*
X179255030Y-168572329D01*
X179265520Y-168550151D01*
X179278133Y-168529107D01*
X179292747Y-168509402D01*
X179309223Y-168491223D01*
X179327402Y-168474747D01*
X179347107Y-168460133D01*
X179368151Y-168447520D01*
X179390329Y-168437030D01*
X179413429Y-168428765D01*
X179437227Y-168422804D01*
X179461496Y-168419204D01*
X179486000Y-168418000D01*
X180686000Y-168418000D01*
X180710504Y-168419204D01*
G37*
G04 #@! TD.AperFunction*
D12*
X173990000Y-129000000D03*
D13*
X173990000Y-127000000D03*
D14*
X179070000Y-127762000D03*
D15*
X181570000Y-127762000D03*
X177506000Y-162306000D03*
D14*
X175006000Y-162306000D03*
G04 #@! TA.AperFunction,ComponentPad*
D11*
G36*
X215658504Y-161711204D02*
G01*
X215682773Y-161714804D01*
X215706571Y-161720765D01*
X215729671Y-161729030D01*
X215751849Y-161739520D01*
X215772893Y-161752133D01*
X215792598Y-161766747D01*
X215810777Y-161783223D01*
X215827253Y-161801402D01*
X215841867Y-161821107D01*
X215854480Y-161842151D01*
X215864970Y-161864329D01*
X215873235Y-161887429D01*
X215879196Y-161911227D01*
X215882796Y-161935496D01*
X215884000Y-161960000D01*
X215884000Y-163160000D01*
X215882796Y-163184504D01*
X215879196Y-163208773D01*
X215873235Y-163232571D01*
X215864970Y-163255671D01*
X215854480Y-163277849D01*
X215841867Y-163298893D01*
X215827253Y-163318598D01*
X215810777Y-163336777D01*
X215792598Y-163353253D01*
X215772893Y-163367867D01*
X215751849Y-163380480D01*
X215729671Y-163390970D01*
X215706571Y-163399235D01*
X215682773Y-163405196D01*
X215658504Y-163408796D01*
X215634000Y-163410000D01*
X214134000Y-163410000D01*
X214109496Y-163408796D01*
X214085227Y-163405196D01*
X214061429Y-163399235D01*
X214038329Y-163390970D01*
X214016151Y-163380480D01*
X213995107Y-163367867D01*
X213975402Y-163353253D01*
X213957223Y-163336777D01*
X213940747Y-163318598D01*
X213926133Y-163298893D01*
X213913520Y-163277849D01*
X213903030Y-163255671D01*
X213894765Y-163232571D01*
X213888804Y-163208773D01*
X213885204Y-163184504D01*
X213884000Y-163160000D01*
X213884000Y-161960000D01*
X213885204Y-161935496D01*
X213888804Y-161911227D01*
X213894765Y-161887429D01*
X213903030Y-161864329D01*
X213913520Y-161842151D01*
X213926133Y-161821107D01*
X213940747Y-161801402D01*
X213957223Y-161783223D01*
X213975402Y-161766747D01*
X213995107Y-161752133D01*
X214016151Y-161739520D01*
X214038329Y-161729030D01*
X214061429Y-161720765D01*
X214085227Y-161714804D01*
X214109496Y-161711204D01*
X214134000Y-161710000D01*
X215634000Y-161710000D01*
X215658504Y-161711204D01*
G37*
G04 #@! TD.AperFunction*
D16*
X214884000Y-160060000D03*
D17*
X208788000Y-155448000D03*
D18*
X206838000Y-161398000D03*
D17*
X194588000Y-161448000D03*
X194638000Y-149398000D03*
D18*
X206838000Y-149398000D03*
D19*
X215646000Y-132762000D03*
X215646000Y-130262000D03*
G04 #@! TA.AperFunction,ComponentPad*
D11*
G36*
X216395504Y-126913204D02*
G01*
X216419773Y-126916804D01*
X216443571Y-126922765D01*
X216466671Y-126931030D01*
X216488849Y-126941520D01*
X216509893Y-126954133D01*
X216529598Y-126968747D01*
X216547777Y-126985223D01*
X216564253Y-127003402D01*
X216578867Y-127023107D01*
X216591480Y-127044151D01*
X216601970Y-127066329D01*
X216610235Y-127089429D01*
X216616196Y-127113227D01*
X216619796Y-127137496D01*
X216621000Y-127162000D01*
X216621000Y-128362000D01*
X216619796Y-128386504D01*
X216616196Y-128410773D01*
X216610235Y-128434571D01*
X216601970Y-128457671D01*
X216591480Y-128479849D01*
X216578867Y-128500893D01*
X216564253Y-128520598D01*
X216547777Y-128538777D01*
X216529598Y-128555253D01*
X216509893Y-128569867D01*
X216488849Y-128582480D01*
X216466671Y-128592970D01*
X216443571Y-128601235D01*
X216419773Y-128607196D01*
X216395504Y-128610796D01*
X216371000Y-128612000D01*
X214921000Y-128612000D01*
X214896496Y-128610796D01*
X214872227Y-128607196D01*
X214848429Y-128601235D01*
X214825329Y-128592970D01*
X214803151Y-128582480D01*
X214782107Y-128569867D01*
X214762402Y-128555253D01*
X214744223Y-128538777D01*
X214727747Y-128520598D01*
X214713133Y-128500893D01*
X214700520Y-128479849D01*
X214690030Y-128457671D01*
X214681765Y-128434571D01*
X214675804Y-128410773D01*
X214672204Y-128386504D01*
X214671000Y-128362000D01*
X214671000Y-127162000D01*
X214672204Y-127137496D01*
X214675804Y-127113227D01*
X214681765Y-127089429D01*
X214690030Y-127066329D01*
X214700520Y-127044151D01*
X214713133Y-127023107D01*
X214727747Y-127003402D01*
X214744223Y-126985223D01*
X214762402Y-126968747D01*
X214782107Y-126954133D01*
X214803151Y-126941520D01*
X214825329Y-126931030D01*
X214848429Y-126922765D01*
X214872227Y-126916804D01*
X214896496Y-126913204D01*
X214921000Y-126912000D01*
X216371000Y-126912000D01*
X216395504Y-126913204D01*
G37*
G04 #@! TD.AperFunction*
D20*
X207492000Y-169418000D03*
X204992000Y-169418000D03*
X202492000Y-169418000D03*
X199992000Y-169418000D03*
X197492000Y-169418000D03*
X194992000Y-169418000D03*
X192492000Y-169418000D03*
G04 #@! TA.AperFunction,ComponentPad*
D11*
G36*
X190616504Y-168444204D02*
G01*
X190640773Y-168447804D01*
X190664571Y-168453765D01*
X190687671Y-168462030D01*
X190709849Y-168472520D01*
X190730893Y-168485133D01*
X190750598Y-168499747D01*
X190768777Y-168516223D01*
X190785253Y-168534402D01*
X190799867Y-168554107D01*
X190812480Y-168575151D01*
X190822970Y-168597329D01*
X190831235Y-168620429D01*
X190837196Y-168644227D01*
X190840796Y-168668496D01*
X190842000Y-168693000D01*
X190842000Y-170143000D01*
X190840796Y-170167504D01*
X190837196Y-170191773D01*
X190831235Y-170215571D01*
X190822970Y-170238671D01*
X190812480Y-170260849D01*
X190799867Y-170281893D01*
X190785253Y-170301598D01*
X190768777Y-170319777D01*
X190750598Y-170336253D01*
X190730893Y-170350867D01*
X190709849Y-170363480D01*
X190687671Y-170373970D01*
X190664571Y-170382235D01*
X190640773Y-170388196D01*
X190616504Y-170391796D01*
X190592000Y-170393000D01*
X189392000Y-170393000D01*
X189367496Y-170391796D01*
X189343227Y-170388196D01*
X189319429Y-170382235D01*
X189296329Y-170373970D01*
X189274151Y-170363480D01*
X189253107Y-170350867D01*
X189233402Y-170336253D01*
X189215223Y-170319777D01*
X189198747Y-170301598D01*
X189184133Y-170281893D01*
X189171520Y-170260849D01*
X189161030Y-170238671D01*
X189152765Y-170215571D01*
X189146804Y-170191773D01*
X189143204Y-170167504D01*
X189142000Y-170143000D01*
X189142000Y-168693000D01*
X189143204Y-168668496D01*
X189146804Y-168644227D01*
X189152765Y-168620429D01*
X189161030Y-168597329D01*
X189171520Y-168575151D01*
X189184133Y-168554107D01*
X189198747Y-168534402D01*
X189215223Y-168516223D01*
X189233402Y-168499747D01*
X189253107Y-168485133D01*
X189274151Y-168472520D01*
X189296329Y-168462030D01*
X189319429Y-168453765D01*
X189343227Y-168447804D01*
X189367496Y-168444204D01*
X189392000Y-168443000D01*
X190592000Y-168443000D01*
X190616504Y-168444204D01*
G37*
G04 #@! TD.AperFunction*
D19*
X214884000Y-145916000D03*
X214884000Y-148416000D03*
X214884000Y-150916000D03*
G04 #@! TA.AperFunction,ComponentPad*
D11*
G36*
X215633504Y-152567204D02*
G01*
X215657773Y-152570804D01*
X215681571Y-152576765D01*
X215704671Y-152585030D01*
X215726849Y-152595520D01*
X215747893Y-152608133D01*
X215767598Y-152622747D01*
X215785777Y-152639223D01*
X215802253Y-152657402D01*
X215816867Y-152677107D01*
X215829480Y-152698151D01*
X215839970Y-152720329D01*
X215848235Y-152743429D01*
X215854196Y-152767227D01*
X215857796Y-152791496D01*
X215859000Y-152816000D01*
X215859000Y-154016000D01*
X215857796Y-154040504D01*
X215854196Y-154064773D01*
X215848235Y-154088571D01*
X215839970Y-154111671D01*
X215829480Y-154133849D01*
X215816867Y-154154893D01*
X215802253Y-154174598D01*
X215785777Y-154192777D01*
X215767598Y-154209253D01*
X215747893Y-154223867D01*
X215726849Y-154236480D01*
X215704671Y-154246970D01*
X215681571Y-154255235D01*
X215657773Y-154261196D01*
X215633504Y-154264796D01*
X215609000Y-154266000D01*
X214159000Y-154266000D01*
X214134496Y-154264796D01*
X214110227Y-154261196D01*
X214086429Y-154255235D01*
X214063329Y-154246970D01*
X214041151Y-154236480D01*
X214020107Y-154223867D01*
X214000402Y-154209253D01*
X213982223Y-154192777D01*
X213965747Y-154174598D01*
X213951133Y-154154893D01*
X213938520Y-154133849D01*
X213928030Y-154111671D01*
X213919765Y-154088571D01*
X213913804Y-154064773D01*
X213910204Y-154040504D01*
X213909000Y-154016000D01*
X213909000Y-152816000D01*
X213910204Y-152791496D01*
X213913804Y-152767227D01*
X213919765Y-152743429D01*
X213928030Y-152720329D01*
X213938520Y-152698151D01*
X213951133Y-152677107D01*
X213965747Y-152657402D01*
X213982223Y-152639223D01*
X214000402Y-152622747D01*
X214020107Y-152608133D01*
X214041151Y-152595520D01*
X214063329Y-152585030D01*
X214086429Y-152576765D01*
X214110227Y-152570804D01*
X214134496Y-152567204D01*
X214159000Y-152566000D01*
X215609000Y-152566000D01*
X215633504Y-152567204D01*
G37*
G04 #@! TD.AperFunction*
D21*
X173736000Y-154686000D03*
X180086000Y-154940000D03*
X171450000Y-157988000D03*
X208280000Y-147066000D03*
X171958000Y-136144000D03*
X176276000Y-135890000D03*
X171958000Y-140716000D03*
X186436000Y-118110000D03*
X181610000Y-119888000D03*
X178816000Y-139700000D03*
X205740000Y-134112000D03*
X191770000Y-143002000D03*
X207264000Y-135890000D03*
X190246000Y-126746000D03*
X186182000Y-133096000D03*
X190246000Y-135128000D03*
X186182000Y-137668000D03*
X189992000Y-143764000D03*
X189738000Y-122428000D03*
X207264000Y-119380000D03*
X207264000Y-127000000D03*
X207264000Y-128270000D03*
X207264000Y-129540000D03*
X207264000Y-133350000D03*
D22*
X207748202Y-171196000D02*
X207518000Y-171196000D01*
X212090000Y-166854202D02*
X207748202Y-171196000D01*
X212090000Y-155235000D02*
X212090000Y-166854202D01*
X213909000Y-153416000D02*
X212090000Y-155235000D01*
X214884000Y-153416000D02*
X213909000Y-153416000D01*
D23*
X207500715Y-171196000D02*
X207518000Y-171196000D01*
D22*
X189992000Y-170393000D02*
X189992000Y-169418000D01*
X190795000Y-171196000D02*
X189992000Y-170393000D01*
X207500715Y-171196000D02*
X190795000Y-171196000D01*
D23*
X171958000Y-140716000D02*
X171958000Y-136144000D01*
X176022000Y-136144000D02*
X176276000Y-135890000D01*
X171958000Y-136144000D02*
X176022000Y-136144000D01*
X176276000Y-133056000D02*
X181570000Y-127762000D01*
X176276000Y-135890000D02*
X176276000Y-133056000D01*
X183388000Y-118110000D02*
X181610000Y-119888000D01*
X186436000Y-118110000D02*
X183388000Y-118110000D01*
X178816000Y-138430000D02*
X176276000Y-135890000D01*
X178816000Y-139700000D02*
X178816000Y-138430000D01*
X208280000Y-147066000D02*
X208280000Y-135128000D01*
X208280000Y-135128000D02*
X207772000Y-134620000D01*
X207772000Y-134620000D02*
X207264000Y-134112000D01*
X207264000Y-134112000D02*
X205740000Y-134112000D01*
X205740000Y-134112000D02*
X205740000Y-134112000D01*
X196850000Y-143002000D02*
X205740000Y-134112000D01*
X191770000Y-143002000D02*
X196850000Y-143002000D01*
X181570000Y-119928000D02*
X181610000Y-119888000D01*
X181570000Y-127762000D02*
X181570000Y-119928000D01*
X171450000Y-156972000D02*
X173736000Y-154686000D01*
X171450000Y-157988000D02*
X171450000Y-156972000D01*
X179832000Y-154686000D02*
X180086000Y-154940000D01*
X173736000Y-154686000D02*
X179832000Y-154686000D01*
X206838000Y-136316000D02*
X206838000Y-149398000D01*
X207264000Y-135890000D02*
X206838000Y-136316000D01*
X190246000Y-129032000D02*
X190246000Y-126746000D01*
X186182000Y-133096000D02*
X190246000Y-129032000D01*
X188722000Y-135128000D02*
X186182000Y-137668000D01*
X190246000Y-135128000D02*
X188722000Y-135128000D01*
X191770000Y-124460000D02*
X189738000Y-122428000D01*
X191770000Y-136144000D02*
X191770000Y-124460000D01*
X189992000Y-137922000D02*
X191770000Y-136144000D01*
X189992000Y-143764000D02*
X189992000Y-137922000D01*
X202492000Y-169418000D02*
X202492000Y-161998000D01*
X202492000Y-161998000D02*
X206248000Y-158242000D01*
X206248000Y-153924000D02*
X210427980Y-149744020D01*
X206248000Y-158242000D02*
X206248000Y-153924000D01*
X210427980Y-149744020D02*
X210427980Y-134413392D01*
X206864001Y-119779999D02*
X207264000Y-119380000D01*
X206051990Y-120592010D02*
X206864001Y-119779999D01*
X206051990Y-130037402D02*
X206051990Y-120592010D01*
X210427980Y-134413392D02*
X206051990Y-130037402D01*
X207264000Y-127000000D02*
X208280000Y-125984000D01*
X208280000Y-119322998D02*
X207321002Y-118364000D01*
X208280000Y-125984000D02*
X208280000Y-119322998D01*
X207321002Y-118364000D02*
X207206998Y-118364000D01*
X202041990Y-166143010D02*
X202041991Y-161811599D01*
X199992000Y-168193000D02*
X202041990Y-166143010D01*
X199992000Y-169418000D02*
X199992000Y-168193000D01*
X205797990Y-158055600D02*
X205797991Y-153737599D01*
X202041991Y-161811599D02*
X205797990Y-158055600D01*
X205797991Y-153737599D02*
X209977970Y-149557620D01*
X209977970Y-149557620D02*
X209977970Y-134990968D01*
X209977970Y-134990968D02*
X209977970Y-134599792D01*
X209977970Y-134599792D02*
X205601980Y-130223802D01*
X205486000Y-119380000D02*
X205486000Y-120396000D01*
X207321002Y-118364000D02*
X206502000Y-118364000D01*
X206502000Y-118364000D02*
X205486000Y-119380000D01*
X205601980Y-130223802D02*
X205486000Y-120396000D01*
X204992000Y-168193000D02*
X210877990Y-162307010D01*
X204992000Y-169418000D02*
X204992000Y-168193000D01*
X210877990Y-134226992D02*
X206502000Y-129851002D01*
X210877990Y-162307010D02*
X210877990Y-134226992D01*
X206502000Y-129032000D02*
X207264000Y-128270000D01*
X206502000Y-129851002D02*
X206502000Y-129032000D01*
X208592000Y-169418000D02*
X211328000Y-166682000D01*
X207492000Y-169418000D02*
X208592000Y-169418000D01*
X211328000Y-166682000D02*
X211328000Y-131318000D01*
X209550000Y-129540000D02*
X207264000Y-129540000D01*
X211328000Y-131318000D02*
X209550000Y-129540000D01*
X192492000Y-168193000D02*
X193553000Y-167132000D01*
X192492000Y-169418000D02*
X192492000Y-168193000D01*
X205347982Y-157869198D02*
X201591982Y-161625200D01*
X209527960Y-135105960D02*
X209527960Y-149371220D01*
X201591982Y-165946018D02*
X200406000Y-167132000D01*
X208171999Y-133749999D02*
X209527960Y-135105960D01*
X205347982Y-153551198D02*
X205347982Y-157869198D01*
X207663999Y-133749999D02*
X208171999Y-133749999D01*
X200406000Y-167132000D02*
X197104000Y-167132000D01*
X207264000Y-133350000D02*
X207663999Y-133749999D01*
X201591982Y-161625200D02*
X201591982Y-165946018D01*
X197104000Y-167132000D02*
X197612000Y-167132000D01*
X193553000Y-167132000D02*
X197104000Y-167132000D01*
X209527960Y-149371220D02*
X205347982Y-153551198D01*
M02*
