G04 #@! TF.GenerationSoftware,KiCad,Pcbnew,5.1.5+dfsg1-2build2*
G04 #@! TF.CreationDate,2021-12-30T00:51:53-05:00*
G04 #@! TF.ProjectId,schematics,73636865-6d61-4746-9963-732e6b696361,rev?*
G04 #@! TF.SameCoordinates,Original*
G04 #@! TF.FileFunction,Paste,Top*
G04 #@! TF.FilePolarity,Positive*
%FSLAX46Y46*%
G04 Gerber Fmt 4.6, Leading zero omitted, Abs format (unit mm)*
G04 Created by KiCad (PCBNEW 5.1.5+dfsg1-2build2) date 2021-12-30 00:51:53*
%MOMM*%
%LPD*%
G04 APERTURE LIST*
%ADD10C,0.010000*%
%ADD11R,2.500000X1.800000*%
%ADD12C,0.100000*%
%ADD13R,3.500000X2.050000*%
%ADD14R,1.800000X1.350000*%
%ADD15R,1.500000X2.000000*%
%ADD16R,3.800000X2.000000*%
%ADD17R,0.900000X1.200000*%
G04 APERTURE END LIST*
D10*
G36*
X198011530Y-124503000D02*
G01*
X200545000Y-124503000D01*
X200545000Y-127034044D01*
X198011530Y-127034044D01*
X198011530Y-124503000D01*
G37*
X198011530Y-124503000D02*
X200545000Y-124503000D01*
X200545000Y-127034044D01*
X198011530Y-127034044D01*
X198011530Y-124503000D01*
D11*
X187388000Y-147828000D03*
X183388000Y-147828000D03*
D12*
G36*
X188863504Y-136956704D02*
G01*
X188887773Y-136960304D01*
X188911571Y-136966265D01*
X188934671Y-136974530D01*
X188956849Y-136985020D01*
X188977893Y-136997633D01*
X188997598Y-137012247D01*
X189015777Y-137028723D01*
X189032253Y-137046902D01*
X189046867Y-137066607D01*
X189059480Y-137087651D01*
X189069970Y-137109829D01*
X189078235Y-137132929D01*
X189084196Y-137156727D01*
X189087796Y-137180996D01*
X189089000Y-137205500D01*
X189089000Y-138130500D01*
X189087796Y-138155004D01*
X189084196Y-138179273D01*
X189078235Y-138203071D01*
X189069970Y-138226171D01*
X189059480Y-138248349D01*
X189046867Y-138269393D01*
X189032253Y-138289098D01*
X189015777Y-138307277D01*
X188997598Y-138323753D01*
X188977893Y-138338367D01*
X188956849Y-138350980D01*
X188934671Y-138361470D01*
X188911571Y-138369735D01*
X188887773Y-138375696D01*
X188863504Y-138379296D01*
X188839000Y-138380500D01*
X187589000Y-138380500D01*
X187564496Y-138379296D01*
X187540227Y-138375696D01*
X187516429Y-138369735D01*
X187493329Y-138361470D01*
X187471151Y-138350980D01*
X187450107Y-138338367D01*
X187430402Y-138323753D01*
X187412223Y-138307277D01*
X187395747Y-138289098D01*
X187381133Y-138269393D01*
X187368520Y-138248349D01*
X187358030Y-138226171D01*
X187349765Y-138203071D01*
X187343804Y-138179273D01*
X187340204Y-138155004D01*
X187339000Y-138130500D01*
X187339000Y-137205500D01*
X187340204Y-137180996D01*
X187343804Y-137156727D01*
X187349765Y-137132929D01*
X187358030Y-137109829D01*
X187368520Y-137087651D01*
X187381133Y-137066607D01*
X187395747Y-137046902D01*
X187412223Y-137028723D01*
X187430402Y-137012247D01*
X187450107Y-136997633D01*
X187471151Y-136985020D01*
X187493329Y-136974530D01*
X187516429Y-136966265D01*
X187540227Y-136960304D01*
X187564496Y-136956704D01*
X187589000Y-136955500D01*
X188839000Y-136955500D01*
X188863504Y-136956704D01*
G37*
G36*
X188863504Y-133981704D02*
G01*
X188887773Y-133985304D01*
X188911571Y-133991265D01*
X188934671Y-133999530D01*
X188956849Y-134010020D01*
X188977893Y-134022633D01*
X188997598Y-134037247D01*
X189015777Y-134053723D01*
X189032253Y-134071902D01*
X189046867Y-134091607D01*
X189059480Y-134112651D01*
X189069970Y-134134829D01*
X189078235Y-134157929D01*
X189084196Y-134181727D01*
X189087796Y-134205996D01*
X189089000Y-134230500D01*
X189089000Y-135155500D01*
X189087796Y-135180004D01*
X189084196Y-135204273D01*
X189078235Y-135228071D01*
X189069970Y-135251171D01*
X189059480Y-135273349D01*
X189046867Y-135294393D01*
X189032253Y-135314098D01*
X189015777Y-135332277D01*
X188997598Y-135348753D01*
X188977893Y-135363367D01*
X188956849Y-135375980D01*
X188934671Y-135386470D01*
X188911571Y-135394735D01*
X188887773Y-135400696D01*
X188863504Y-135404296D01*
X188839000Y-135405500D01*
X187589000Y-135405500D01*
X187564496Y-135404296D01*
X187540227Y-135400696D01*
X187516429Y-135394735D01*
X187493329Y-135386470D01*
X187471151Y-135375980D01*
X187450107Y-135363367D01*
X187430402Y-135348753D01*
X187412223Y-135332277D01*
X187395747Y-135314098D01*
X187381133Y-135294393D01*
X187368520Y-135273349D01*
X187358030Y-135251171D01*
X187349765Y-135228071D01*
X187343804Y-135204273D01*
X187340204Y-135180004D01*
X187339000Y-135155500D01*
X187339000Y-134230500D01*
X187340204Y-134205996D01*
X187343804Y-134181727D01*
X187349765Y-134157929D01*
X187358030Y-134134829D01*
X187368520Y-134112651D01*
X187381133Y-134091607D01*
X187395747Y-134071902D01*
X187412223Y-134053723D01*
X187430402Y-134037247D01*
X187450107Y-134022633D01*
X187471151Y-134010020D01*
X187493329Y-133999530D01*
X187516429Y-133991265D01*
X187540227Y-133985304D01*
X187564496Y-133981704D01*
X187589000Y-133980500D01*
X188839000Y-133980500D01*
X188863504Y-133981704D01*
G37*
G36*
X184460779Y-131860144D02*
G01*
X184483834Y-131863563D01*
X184506443Y-131869227D01*
X184528387Y-131877079D01*
X184549457Y-131887044D01*
X184569448Y-131899026D01*
X184588168Y-131912910D01*
X184605438Y-131928562D01*
X184621090Y-131945832D01*
X184634974Y-131964552D01*
X184646956Y-131984543D01*
X184656921Y-132005613D01*
X184664773Y-132027557D01*
X184670437Y-132050166D01*
X184673856Y-132073221D01*
X184675000Y-132096500D01*
X184675000Y-132571500D01*
X184673856Y-132594779D01*
X184670437Y-132617834D01*
X184664773Y-132640443D01*
X184656921Y-132662387D01*
X184646956Y-132683457D01*
X184634974Y-132703448D01*
X184621090Y-132722168D01*
X184605438Y-132739438D01*
X184588168Y-132755090D01*
X184569448Y-132768974D01*
X184549457Y-132780956D01*
X184528387Y-132790921D01*
X184506443Y-132798773D01*
X184483834Y-132804437D01*
X184460779Y-132807856D01*
X184437500Y-132809000D01*
X183862500Y-132809000D01*
X183839221Y-132807856D01*
X183816166Y-132804437D01*
X183793557Y-132798773D01*
X183771613Y-132790921D01*
X183750543Y-132780956D01*
X183730552Y-132768974D01*
X183711832Y-132755090D01*
X183694562Y-132739438D01*
X183678910Y-132722168D01*
X183665026Y-132703448D01*
X183653044Y-132683457D01*
X183643079Y-132662387D01*
X183635227Y-132640443D01*
X183629563Y-132617834D01*
X183626144Y-132594779D01*
X183625000Y-132571500D01*
X183625000Y-132096500D01*
X183626144Y-132073221D01*
X183629563Y-132050166D01*
X183635227Y-132027557D01*
X183643079Y-132005613D01*
X183653044Y-131984543D01*
X183665026Y-131964552D01*
X183678910Y-131945832D01*
X183694562Y-131928562D01*
X183711832Y-131912910D01*
X183730552Y-131899026D01*
X183750543Y-131887044D01*
X183771613Y-131877079D01*
X183793557Y-131869227D01*
X183816166Y-131863563D01*
X183839221Y-131860144D01*
X183862500Y-131859000D01*
X184437500Y-131859000D01*
X184460779Y-131860144D01*
G37*
G36*
X182710779Y-131860144D02*
G01*
X182733834Y-131863563D01*
X182756443Y-131869227D01*
X182778387Y-131877079D01*
X182799457Y-131887044D01*
X182819448Y-131899026D01*
X182838168Y-131912910D01*
X182855438Y-131928562D01*
X182871090Y-131945832D01*
X182884974Y-131964552D01*
X182896956Y-131984543D01*
X182906921Y-132005613D01*
X182914773Y-132027557D01*
X182920437Y-132050166D01*
X182923856Y-132073221D01*
X182925000Y-132096500D01*
X182925000Y-132571500D01*
X182923856Y-132594779D01*
X182920437Y-132617834D01*
X182914773Y-132640443D01*
X182906921Y-132662387D01*
X182896956Y-132683457D01*
X182884974Y-132703448D01*
X182871090Y-132722168D01*
X182855438Y-132739438D01*
X182838168Y-132755090D01*
X182819448Y-132768974D01*
X182799457Y-132780956D01*
X182778387Y-132790921D01*
X182756443Y-132798773D01*
X182733834Y-132804437D01*
X182710779Y-132807856D01*
X182687500Y-132809000D01*
X182112500Y-132809000D01*
X182089221Y-132807856D01*
X182066166Y-132804437D01*
X182043557Y-132798773D01*
X182021613Y-132790921D01*
X182000543Y-132780956D01*
X181980552Y-132768974D01*
X181961832Y-132755090D01*
X181944562Y-132739438D01*
X181928910Y-132722168D01*
X181915026Y-132703448D01*
X181903044Y-132683457D01*
X181893079Y-132662387D01*
X181885227Y-132640443D01*
X181879563Y-132617834D01*
X181876144Y-132594779D01*
X181875000Y-132571500D01*
X181875000Y-132096500D01*
X181876144Y-132073221D01*
X181879563Y-132050166D01*
X181885227Y-132027557D01*
X181893079Y-132005613D01*
X181903044Y-131984543D01*
X181915026Y-131964552D01*
X181928910Y-131945832D01*
X181944562Y-131928562D01*
X181961832Y-131912910D01*
X181980552Y-131899026D01*
X182000543Y-131887044D01*
X182021613Y-131877079D01*
X182043557Y-131869227D01*
X182066166Y-131863563D01*
X182089221Y-131860144D01*
X182112500Y-131859000D01*
X182687500Y-131859000D01*
X182710779Y-131860144D01*
G37*
G36*
X188982779Y-119364144D02*
G01*
X189005834Y-119367563D01*
X189028443Y-119373227D01*
X189050387Y-119381079D01*
X189071457Y-119391044D01*
X189091448Y-119403026D01*
X189110168Y-119416910D01*
X189127438Y-119432562D01*
X189143090Y-119449832D01*
X189156974Y-119468552D01*
X189168956Y-119488543D01*
X189178921Y-119509613D01*
X189186773Y-119531557D01*
X189192437Y-119554166D01*
X189195856Y-119577221D01*
X189197000Y-119600500D01*
X189197000Y-120175500D01*
X189195856Y-120198779D01*
X189192437Y-120221834D01*
X189186773Y-120244443D01*
X189178921Y-120266387D01*
X189168956Y-120287457D01*
X189156974Y-120307448D01*
X189143090Y-120326168D01*
X189127438Y-120343438D01*
X189110168Y-120359090D01*
X189091448Y-120372974D01*
X189071457Y-120384956D01*
X189050387Y-120394921D01*
X189028443Y-120402773D01*
X189005834Y-120408437D01*
X188982779Y-120411856D01*
X188959500Y-120413000D01*
X188484500Y-120413000D01*
X188461221Y-120411856D01*
X188438166Y-120408437D01*
X188415557Y-120402773D01*
X188393613Y-120394921D01*
X188372543Y-120384956D01*
X188352552Y-120372974D01*
X188333832Y-120359090D01*
X188316562Y-120343438D01*
X188300910Y-120326168D01*
X188287026Y-120307448D01*
X188275044Y-120287457D01*
X188265079Y-120266387D01*
X188257227Y-120244443D01*
X188251563Y-120221834D01*
X188248144Y-120198779D01*
X188247000Y-120175500D01*
X188247000Y-119600500D01*
X188248144Y-119577221D01*
X188251563Y-119554166D01*
X188257227Y-119531557D01*
X188265079Y-119509613D01*
X188275044Y-119488543D01*
X188287026Y-119468552D01*
X188300910Y-119449832D01*
X188316562Y-119432562D01*
X188333832Y-119416910D01*
X188352552Y-119403026D01*
X188372543Y-119391044D01*
X188393613Y-119381079D01*
X188415557Y-119373227D01*
X188438166Y-119367563D01*
X188461221Y-119364144D01*
X188484500Y-119363000D01*
X188959500Y-119363000D01*
X188982779Y-119364144D01*
G37*
G36*
X188982779Y-117614144D02*
G01*
X189005834Y-117617563D01*
X189028443Y-117623227D01*
X189050387Y-117631079D01*
X189071457Y-117641044D01*
X189091448Y-117653026D01*
X189110168Y-117666910D01*
X189127438Y-117682562D01*
X189143090Y-117699832D01*
X189156974Y-117718552D01*
X189168956Y-117738543D01*
X189178921Y-117759613D01*
X189186773Y-117781557D01*
X189192437Y-117804166D01*
X189195856Y-117827221D01*
X189197000Y-117850500D01*
X189197000Y-118425500D01*
X189195856Y-118448779D01*
X189192437Y-118471834D01*
X189186773Y-118494443D01*
X189178921Y-118516387D01*
X189168956Y-118537457D01*
X189156974Y-118557448D01*
X189143090Y-118576168D01*
X189127438Y-118593438D01*
X189110168Y-118609090D01*
X189091448Y-118622974D01*
X189071457Y-118634956D01*
X189050387Y-118644921D01*
X189028443Y-118652773D01*
X189005834Y-118658437D01*
X188982779Y-118661856D01*
X188959500Y-118663000D01*
X188484500Y-118663000D01*
X188461221Y-118661856D01*
X188438166Y-118658437D01*
X188415557Y-118652773D01*
X188393613Y-118644921D01*
X188372543Y-118634956D01*
X188352552Y-118622974D01*
X188333832Y-118609090D01*
X188316562Y-118593438D01*
X188300910Y-118576168D01*
X188287026Y-118557448D01*
X188275044Y-118537457D01*
X188265079Y-118516387D01*
X188257227Y-118494443D01*
X188251563Y-118471834D01*
X188248144Y-118448779D01*
X188247000Y-118425500D01*
X188247000Y-117850500D01*
X188248144Y-117827221D01*
X188251563Y-117804166D01*
X188257227Y-117781557D01*
X188265079Y-117759613D01*
X188275044Y-117738543D01*
X188287026Y-117718552D01*
X188300910Y-117699832D01*
X188316562Y-117682562D01*
X188333832Y-117666910D01*
X188352552Y-117653026D01*
X188372543Y-117641044D01*
X188393613Y-117631079D01*
X188415557Y-117623227D01*
X188438166Y-117617563D01*
X188461221Y-117614144D01*
X188484500Y-117613000D01*
X188959500Y-117613000D01*
X188982779Y-117614144D01*
G37*
G36*
X191036779Y-164626144D02*
G01*
X191059834Y-164629563D01*
X191082443Y-164635227D01*
X191104387Y-164643079D01*
X191125457Y-164653044D01*
X191145448Y-164665026D01*
X191164168Y-164678910D01*
X191181438Y-164694562D01*
X191197090Y-164711832D01*
X191210974Y-164730552D01*
X191222956Y-164750543D01*
X191232921Y-164771613D01*
X191240773Y-164793557D01*
X191246437Y-164816166D01*
X191249856Y-164839221D01*
X191251000Y-164862500D01*
X191251000Y-165337500D01*
X191249856Y-165360779D01*
X191246437Y-165383834D01*
X191240773Y-165406443D01*
X191232921Y-165428387D01*
X191222956Y-165449457D01*
X191210974Y-165469448D01*
X191197090Y-165488168D01*
X191181438Y-165505438D01*
X191164168Y-165521090D01*
X191145448Y-165534974D01*
X191125457Y-165546956D01*
X191104387Y-165556921D01*
X191082443Y-165564773D01*
X191059834Y-165570437D01*
X191036779Y-165573856D01*
X191013500Y-165575000D01*
X190438500Y-165575000D01*
X190415221Y-165573856D01*
X190392166Y-165570437D01*
X190369557Y-165564773D01*
X190347613Y-165556921D01*
X190326543Y-165546956D01*
X190306552Y-165534974D01*
X190287832Y-165521090D01*
X190270562Y-165505438D01*
X190254910Y-165488168D01*
X190241026Y-165469448D01*
X190229044Y-165449457D01*
X190219079Y-165428387D01*
X190211227Y-165406443D01*
X190205563Y-165383834D01*
X190202144Y-165360779D01*
X190201000Y-165337500D01*
X190201000Y-164862500D01*
X190202144Y-164839221D01*
X190205563Y-164816166D01*
X190211227Y-164793557D01*
X190219079Y-164771613D01*
X190229044Y-164750543D01*
X190241026Y-164730552D01*
X190254910Y-164711832D01*
X190270562Y-164694562D01*
X190287832Y-164678910D01*
X190306552Y-164665026D01*
X190326543Y-164653044D01*
X190347613Y-164643079D01*
X190369557Y-164635227D01*
X190392166Y-164629563D01*
X190415221Y-164626144D01*
X190438500Y-164625000D01*
X191013500Y-164625000D01*
X191036779Y-164626144D01*
G37*
G36*
X189286779Y-164626144D02*
G01*
X189309834Y-164629563D01*
X189332443Y-164635227D01*
X189354387Y-164643079D01*
X189375457Y-164653044D01*
X189395448Y-164665026D01*
X189414168Y-164678910D01*
X189431438Y-164694562D01*
X189447090Y-164711832D01*
X189460974Y-164730552D01*
X189472956Y-164750543D01*
X189482921Y-164771613D01*
X189490773Y-164793557D01*
X189496437Y-164816166D01*
X189499856Y-164839221D01*
X189501000Y-164862500D01*
X189501000Y-165337500D01*
X189499856Y-165360779D01*
X189496437Y-165383834D01*
X189490773Y-165406443D01*
X189482921Y-165428387D01*
X189472956Y-165449457D01*
X189460974Y-165469448D01*
X189447090Y-165488168D01*
X189431438Y-165505438D01*
X189414168Y-165521090D01*
X189395448Y-165534974D01*
X189375457Y-165546956D01*
X189354387Y-165556921D01*
X189332443Y-165564773D01*
X189309834Y-165570437D01*
X189286779Y-165573856D01*
X189263500Y-165575000D01*
X188688500Y-165575000D01*
X188665221Y-165573856D01*
X188642166Y-165570437D01*
X188619557Y-165564773D01*
X188597613Y-165556921D01*
X188576543Y-165546956D01*
X188556552Y-165534974D01*
X188537832Y-165521090D01*
X188520562Y-165505438D01*
X188504910Y-165488168D01*
X188491026Y-165469448D01*
X188479044Y-165449457D01*
X188469079Y-165428387D01*
X188461227Y-165406443D01*
X188455563Y-165383834D01*
X188452144Y-165360779D01*
X188451000Y-165337500D01*
X188451000Y-164862500D01*
X188452144Y-164839221D01*
X188455563Y-164816166D01*
X188461227Y-164793557D01*
X188469079Y-164771613D01*
X188479044Y-164750543D01*
X188491026Y-164730552D01*
X188504910Y-164711832D01*
X188520562Y-164694562D01*
X188537832Y-164678910D01*
X188556552Y-164665026D01*
X188576543Y-164653044D01*
X188597613Y-164643079D01*
X188619557Y-164635227D01*
X188642166Y-164629563D01*
X188665221Y-164626144D01*
X188688500Y-164625000D01*
X189263500Y-164625000D01*
X189286779Y-164626144D01*
G37*
G36*
X172980779Y-151396144D02*
G01*
X173003834Y-151399563D01*
X173026443Y-151405227D01*
X173048387Y-151413079D01*
X173069457Y-151423044D01*
X173089448Y-151435026D01*
X173108168Y-151448910D01*
X173125438Y-151464562D01*
X173141090Y-151481832D01*
X173154974Y-151500552D01*
X173166956Y-151520543D01*
X173176921Y-151541613D01*
X173184773Y-151563557D01*
X173190437Y-151586166D01*
X173193856Y-151609221D01*
X173195000Y-151632500D01*
X173195000Y-152207500D01*
X173193856Y-152230779D01*
X173190437Y-152253834D01*
X173184773Y-152276443D01*
X173176921Y-152298387D01*
X173166956Y-152319457D01*
X173154974Y-152339448D01*
X173141090Y-152358168D01*
X173125438Y-152375438D01*
X173108168Y-152391090D01*
X173089448Y-152404974D01*
X173069457Y-152416956D01*
X173048387Y-152426921D01*
X173026443Y-152434773D01*
X173003834Y-152440437D01*
X172980779Y-152443856D01*
X172957500Y-152445000D01*
X172482500Y-152445000D01*
X172459221Y-152443856D01*
X172436166Y-152440437D01*
X172413557Y-152434773D01*
X172391613Y-152426921D01*
X172370543Y-152416956D01*
X172350552Y-152404974D01*
X172331832Y-152391090D01*
X172314562Y-152375438D01*
X172298910Y-152358168D01*
X172285026Y-152339448D01*
X172273044Y-152319457D01*
X172263079Y-152298387D01*
X172255227Y-152276443D01*
X172249563Y-152253834D01*
X172246144Y-152230779D01*
X172245000Y-152207500D01*
X172245000Y-151632500D01*
X172246144Y-151609221D01*
X172249563Y-151586166D01*
X172255227Y-151563557D01*
X172263079Y-151541613D01*
X172273044Y-151520543D01*
X172285026Y-151500552D01*
X172298910Y-151481832D01*
X172314562Y-151464562D01*
X172331832Y-151448910D01*
X172350552Y-151435026D01*
X172370543Y-151423044D01*
X172391613Y-151413079D01*
X172413557Y-151405227D01*
X172436166Y-151399563D01*
X172459221Y-151396144D01*
X172482500Y-151395000D01*
X172957500Y-151395000D01*
X172980779Y-151396144D01*
G37*
G36*
X172980779Y-153146144D02*
G01*
X173003834Y-153149563D01*
X173026443Y-153155227D01*
X173048387Y-153163079D01*
X173069457Y-153173044D01*
X173089448Y-153185026D01*
X173108168Y-153198910D01*
X173125438Y-153214562D01*
X173141090Y-153231832D01*
X173154974Y-153250552D01*
X173166956Y-153270543D01*
X173176921Y-153291613D01*
X173184773Y-153313557D01*
X173190437Y-153336166D01*
X173193856Y-153359221D01*
X173195000Y-153382500D01*
X173195000Y-153957500D01*
X173193856Y-153980779D01*
X173190437Y-154003834D01*
X173184773Y-154026443D01*
X173176921Y-154048387D01*
X173166956Y-154069457D01*
X173154974Y-154089448D01*
X173141090Y-154108168D01*
X173125438Y-154125438D01*
X173108168Y-154141090D01*
X173089448Y-154154974D01*
X173069457Y-154166956D01*
X173048387Y-154176921D01*
X173026443Y-154184773D01*
X173003834Y-154190437D01*
X172980779Y-154193856D01*
X172957500Y-154195000D01*
X172482500Y-154195000D01*
X172459221Y-154193856D01*
X172436166Y-154190437D01*
X172413557Y-154184773D01*
X172391613Y-154176921D01*
X172370543Y-154166956D01*
X172350552Y-154154974D01*
X172331832Y-154141090D01*
X172314562Y-154125438D01*
X172298910Y-154108168D01*
X172285026Y-154089448D01*
X172273044Y-154069457D01*
X172263079Y-154048387D01*
X172255227Y-154026443D01*
X172249563Y-154003834D01*
X172246144Y-153980779D01*
X172245000Y-153957500D01*
X172245000Y-153382500D01*
X172246144Y-153359221D01*
X172249563Y-153336166D01*
X172255227Y-153313557D01*
X172263079Y-153291613D01*
X172273044Y-153270543D01*
X172285026Y-153250552D01*
X172298910Y-153231832D01*
X172314562Y-153214562D01*
X172331832Y-153198910D01*
X172350552Y-153185026D01*
X172370543Y-153173044D01*
X172391613Y-153163079D01*
X172413557Y-153155227D01*
X172436166Y-153149563D01*
X172459221Y-153146144D01*
X172482500Y-153145000D01*
X172957500Y-153145000D01*
X172980779Y-153146144D01*
G37*
G36*
X173234779Y-156081144D02*
G01*
X173257834Y-156084563D01*
X173280443Y-156090227D01*
X173302387Y-156098079D01*
X173323457Y-156108044D01*
X173343448Y-156120026D01*
X173362168Y-156133910D01*
X173379438Y-156149562D01*
X173395090Y-156166832D01*
X173408974Y-156185552D01*
X173420956Y-156205543D01*
X173430921Y-156226613D01*
X173438773Y-156248557D01*
X173444437Y-156271166D01*
X173447856Y-156294221D01*
X173449000Y-156317500D01*
X173449000Y-156892500D01*
X173447856Y-156915779D01*
X173444437Y-156938834D01*
X173438773Y-156961443D01*
X173430921Y-156983387D01*
X173420956Y-157004457D01*
X173408974Y-157024448D01*
X173395090Y-157043168D01*
X173379438Y-157060438D01*
X173362168Y-157076090D01*
X173343448Y-157089974D01*
X173323457Y-157101956D01*
X173302387Y-157111921D01*
X173280443Y-157119773D01*
X173257834Y-157125437D01*
X173234779Y-157128856D01*
X173211500Y-157130000D01*
X172736500Y-157130000D01*
X172713221Y-157128856D01*
X172690166Y-157125437D01*
X172667557Y-157119773D01*
X172645613Y-157111921D01*
X172624543Y-157101956D01*
X172604552Y-157089974D01*
X172585832Y-157076090D01*
X172568562Y-157060438D01*
X172552910Y-157043168D01*
X172539026Y-157024448D01*
X172527044Y-157004457D01*
X172517079Y-156983387D01*
X172509227Y-156961443D01*
X172503563Y-156938834D01*
X172500144Y-156915779D01*
X172499000Y-156892500D01*
X172499000Y-156317500D01*
X172500144Y-156294221D01*
X172503563Y-156271166D01*
X172509227Y-156248557D01*
X172517079Y-156226613D01*
X172527044Y-156205543D01*
X172539026Y-156185552D01*
X172552910Y-156166832D01*
X172568562Y-156149562D01*
X172585832Y-156133910D01*
X172604552Y-156120026D01*
X172624543Y-156108044D01*
X172645613Y-156098079D01*
X172667557Y-156090227D01*
X172690166Y-156084563D01*
X172713221Y-156081144D01*
X172736500Y-156080000D01*
X173211500Y-156080000D01*
X173234779Y-156081144D01*
G37*
G36*
X173234779Y-157831144D02*
G01*
X173257834Y-157834563D01*
X173280443Y-157840227D01*
X173302387Y-157848079D01*
X173323457Y-157858044D01*
X173343448Y-157870026D01*
X173362168Y-157883910D01*
X173379438Y-157899562D01*
X173395090Y-157916832D01*
X173408974Y-157935552D01*
X173420956Y-157955543D01*
X173430921Y-157976613D01*
X173438773Y-157998557D01*
X173444437Y-158021166D01*
X173447856Y-158044221D01*
X173449000Y-158067500D01*
X173449000Y-158642500D01*
X173447856Y-158665779D01*
X173444437Y-158688834D01*
X173438773Y-158711443D01*
X173430921Y-158733387D01*
X173420956Y-158754457D01*
X173408974Y-158774448D01*
X173395090Y-158793168D01*
X173379438Y-158810438D01*
X173362168Y-158826090D01*
X173343448Y-158839974D01*
X173323457Y-158851956D01*
X173302387Y-158861921D01*
X173280443Y-158869773D01*
X173257834Y-158875437D01*
X173234779Y-158878856D01*
X173211500Y-158880000D01*
X172736500Y-158880000D01*
X172713221Y-158878856D01*
X172690166Y-158875437D01*
X172667557Y-158869773D01*
X172645613Y-158861921D01*
X172624543Y-158851956D01*
X172604552Y-158839974D01*
X172585832Y-158826090D01*
X172568562Y-158810438D01*
X172552910Y-158793168D01*
X172539026Y-158774448D01*
X172527044Y-158754457D01*
X172517079Y-158733387D01*
X172509227Y-158711443D01*
X172503563Y-158688834D01*
X172500144Y-158665779D01*
X172499000Y-158642500D01*
X172499000Y-158067500D01*
X172500144Y-158044221D01*
X172503563Y-158021166D01*
X172509227Y-157998557D01*
X172517079Y-157976613D01*
X172527044Y-157955543D01*
X172539026Y-157935552D01*
X172552910Y-157916832D01*
X172568562Y-157899562D01*
X172585832Y-157883910D01*
X172604552Y-157870026D01*
X172624543Y-157858044D01*
X172645613Y-157848079D01*
X172667557Y-157840227D01*
X172690166Y-157834563D01*
X172713221Y-157831144D01*
X172736500Y-157830000D01*
X173211500Y-157830000D01*
X173234779Y-157831144D01*
G37*
G36*
X174300779Y-133384144D02*
G01*
X174323834Y-133387563D01*
X174346443Y-133393227D01*
X174368387Y-133401079D01*
X174389457Y-133411044D01*
X174409448Y-133423026D01*
X174428168Y-133436910D01*
X174445438Y-133452562D01*
X174461090Y-133469832D01*
X174474974Y-133488552D01*
X174486956Y-133508543D01*
X174496921Y-133529613D01*
X174504773Y-133551557D01*
X174510437Y-133574166D01*
X174513856Y-133597221D01*
X174515000Y-133620500D01*
X174515000Y-134095500D01*
X174513856Y-134118779D01*
X174510437Y-134141834D01*
X174504773Y-134164443D01*
X174496921Y-134186387D01*
X174486956Y-134207457D01*
X174474974Y-134227448D01*
X174461090Y-134246168D01*
X174445438Y-134263438D01*
X174428168Y-134279090D01*
X174409448Y-134292974D01*
X174389457Y-134304956D01*
X174368387Y-134314921D01*
X174346443Y-134322773D01*
X174323834Y-134328437D01*
X174300779Y-134331856D01*
X174277500Y-134333000D01*
X173702500Y-134333000D01*
X173679221Y-134331856D01*
X173656166Y-134328437D01*
X173633557Y-134322773D01*
X173611613Y-134314921D01*
X173590543Y-134304956D01*
X173570552Y-134292974D01*
X173551832Y-134279090D01*
X173534562Y-134263438D01*
X173518910Y-134246168D01*
X173505026Y-134227448D01*
X173493044Y-134207457D01*
X173483079Y-134186387D01*
X173475227Y-134164443D01*
X173469563Y-134141834D01*
X173466144Y-134118779D01*
X173465000Y-134095500D01*
X173465000Y-133620500D01*
X173466144Y-133597221D01*
X173469563Y-133574166D01*
X173475227Y-133551557D01*
X173483079Y-133529613D01*
X173493044Y-133508543D01*
X173505026Y-133488552D01*
X173518910Y-133469832D01*
X173534562Y-133452562D01*
X173551832Y-133436910D01*
X173570552Y-133423026D01*
X173590543Y-133411044D01*
X173611613Y-133401079D01*
X173633557Y-133393227D01*
X173656166Y-133387563D01*
X173679221Y-133384144D01*
X173702500Y-133383000D01*
X174277500Y-133383000D01*
X174300779Y-133384144D01*
G37*
G36*
X172550779Y-133384144D02*
G01*
X172573834Y-133387563D01*
X172596443Y-133393227D01*
X172618387Y-133401079D01*
X172639457Y-133411044D01*
X172659448Y-133423026D01*
X172678168Y-133436910D01*
X172695438Y-133452562D01*
X172711090Y-133469832D01*
X172724974Y-133488552D01*
X172736956Y-133508543D01*
X172746921Y-133529613D01*
X172754773Y-133551557D01*
X172760437Y-133574166D01*
X172763856Y-133597221D01*
X172765000Y-133620500D01*
X172765000Y-134095500D01*
X172763856Y-134118779D01*
X172760437Y-134141834D01*
X172754773Y-134164443D01*
X172746921Y-134186387D01*
X172736956Y-134207457D01*
X172724974Y-134227448D01*
X172711090Y-134246168D01*
X172695438Y-134263438D01*
X172678168Y-134279090D01*
X172659448Y-134292974D01*
X172639457Y-134304956D01*
X172618387Y-134314921D01*
X172596443Y-134322773D01*
X172573834Y-134328437D01*
X172550779Y-134331856D01*
X172527500Y-134333000D01*
X171952500Y-134333000D01*
X171929221Y-134331856D01*
X171906166Y-134328437D01*
X171883557Y-134322773D01*
X171861613Y-134314921D01*
X171840543Y-134304956D01*
X171820552Y-134292974D01*
X171801832Y-134279090D01*
X171784562Y-134263438D01*
X171768910Y-134246168D01*
X171755026Y-134227448D01*
X171743044Y-134207457D01*
X171733079Y-134186387D01*
X171725227Y-134164443D01*
X171719563Y-134141834D01*
X171716144Y-134118779D01*
X171715000Y-134095500D01*
X171715000Y-133620500D01*
X171716144Y-133597221D01*
X171719563Y-133574166D01*
X171725227Y-133551557D01*
X171733079Y-133529613D01*
X171743044Y-133508543D01*
X171755026Y-133488552D01*
X171768910Y-133469832D01*
X171784562Y-133452562D01*
X171801832Y-133436910D01*
X171820552Y-133423026D01*
X171840543Y-133411044D01*
X171861613Y-133401079D01*
X171883557Y-133393227D01*
X171906166Y-133387563D01*
X171929221Y-133384144D01*
X171952500Y-133383000D01*
X172527500Y-133383000D01*
X172550779Y-133384144D01*
G37*
G36*
X172409779Y-137448144D02*
G01*
X172432834Y-137451563D01*
X172455443Y-137457227D01*
X172477387Y-137465079D01*
X172498457Y-137475044D01*
X172518448Y-137487026D01*
X172537168Y-137500910D01*
X172554438Y-137516562D01*
X172570090Y-137533832D01*
X172583974Y-137552552D01*
X172595956Y-137572543D01*
X172605921Y-137593613D01*
X172613773Y-137615557D01*
X172619437Y-137638166D01*
X172622856Y-137661221D01*
X172624000Y-137684500D01*
X172624000Y-138159500D01*
X172622856Y-138182779D01*
X172619437Y-138205834D01*
X172613773Y-138228443D01*
X172605921Y-138250387D01*
X172595956Y-138271457D01*
X172583974Y-138291448D01*
X172570090Y-138310168D01*
X172554438Y-138327438D01*
X172537168Y-138343090D01*
X172518448Y-138356974D01*
X172498457Y-138368956D01*
X172477387Y-138378921D01*
X172455443Y-138386773D01*
X172432834Y-138392437D01*
X172409779Y-138395856D01*
X172386500Y-138397000D01*
X171811500Y-138397000D01*
X171788221Y-138395856D01*
X171765166Y-138392437D01*
X171742557Y-138386773D01*
X171720613Y-138378921D01*
X171699543Y-138368956D01*
X171679552Y-138356974D01*
X171660832Y-138343090D01*
X171643562Y-138327438D01*
X171627910Y-138310168D01*
X171614026Y-138291448D01*
X171602044Y-138271457D01*
X171592079Y-138250387D01*
X171584227Y-138228443D01*
X171578563Y-138205834D01*
X171575144Y-138182779D01*
X171574000Y-138159500D01*
X171574000Y-137684500D01*
X171575144Y-137661221D01*
X171578563Y-137638166D01*
X171584227Y-137615557D01*
X171592079Y-137593613D01*
X171602044Y-137572543D01*
X171614026Y-137552552D01*
X171627910Y-137533832D01*
X171643562Y-137516562D01*
X171660832Y-137500910D01*
X171679552Y-137487026D01*
X171699543Y-137475044D01*
X171720613Y-137465079D01*
X171742557Y-137457227D01*
X171765166Y-137451563D01*
X171788221Y-137448144D01*
X171811500Y-137447000D01*
X172386500Y-137447000D01*
X172409779Y-137448144D01*
G37*
G36*
X174159779Y-137448144D02*
G01*
X174182834Y-137451563D01*
X174205443Y-137457227D01*
X174227387Y-137465079D01*
X174248457Y-137475044D01*
X174268448Y-137487026D01*
X174287168Y-137500910D01*
X174304438Y-137516562D01*
X174320090Y-137533832D01*
X174333974Y-137552552D01*
X174345956Y-137572543D01*
X174355921Y-137593613D01*
X174363773Y-137615557D01*
X174369437Y-137638166D01*
X174372856Y-137661221D01*
X174374000Y-137684500D01*
X174374000Y-138159500D01*
X174372856Y-138182779D01*
X174369437Y-138205834D01*
X174363773Y-138228443D01*
X174355921Y-138250387D01*
X174345956Y-138271457D01*
X174333974Y-138291448D01*
X174320090Y-138310168D01*
X174304438Y-138327438D01*
X174287168Y-138343090D01*
X174268448Y-138356974D01*
X174248457Y-138368956D01*
X174227387Y-138378921D01*
X174205443Y-138386773D01*
X174182834Y-138392437D01*
X174159779Y-138395856D01*
X174136500Y-138397000D01*
X173561500Y-138397000D01*
X173538221Y-138395856D01*
X173515166Y-138392437D01*
X173492557Y-138386773D01*
X173470613Y-138378921D01*
X173449543Y-138368956D01*
X173429552Y-138356974D01*
X173410832Y-138343090D01*
X173393562Y-138327438D01*
X173377910Y-138310168D01*
X173364026Y-138291448D01*
X173352044Y-138271457D01*
X173342079Y-138250387D01*
X173334227Y-138228443D01*
X173328563Y-138205834D01*
X173325144Y-138182779D01*
X173324000Y-138159500D01*
X173324000Y-137684500D01*
X173325144Y-137661221D01*
X173328563Y-137638166D01*
X173334227Y-137615557D01*
X173342079Y-137593613D01*
X173352044Y-137572543D01*
X173364026Y-137552552D01*
X173377910Y-137533832D01*
X173393562Y-137516562D01*
X173410832Y-137500910D01*
X173429552Y-137487026D01*
X173449543Y-137475044D01*
X173470613Y-137465079D01*
X173492557Y-137457227D01*
X173515166Y-137451563D01*
X173538221Y-137448144D01*
X173561500Y-137447000D01*
X174136500Y-137447000D01*
X174159779Y-137448144D01*
G37*
G36*
X172550779Y-141766144D02*
G01*
X172573834Y-141769563D01*
X172596443Y-141775227D01*
X172618387Y-141783079D01*
X172639457Y-141793044D01*
X172659448Y-141805026D01*
X172678168Y-141818910D01*
X172695438Y-141834562D01*
X172711090Y-141851832D01*
X172724974Y-141870552D01*
X172736956Y-141890543D01*
X172746921Y-141911613D01*
X172754773Y-141933557D01*
X172760437Y-141956166D01*
X172763856Y-141979221D01*
X172765000Y-142002500D01*
X172765000Y-142477500D01*
X172763856Y-142500779D01*
X172760437Y-142523834D01*
X172754773Y-142546443D01*
X172746921Y-142568387D01*
X172736956Y-142589457D01*
X172724974Y-142609448D01*
X172711090Y-142628168D01*
X172695438Y-142645438D01*
X172678168Y-142661090D01*
X172659448Y-142674974D01*
X172639457Y-142686956D01*
X172618387Y-142696921D01*
X172596443Y-142704773D01*
X172573834Y-142710437D01*
X172550779Y-142713856D01*
X172527500Y-142715000D01*
X171952500Y-142715000D01*
X171929221Y-142713856D01*
X171906166Y-142710437D01*
X171883557Y-142704773D01*
X171861613Y-142696921D01*
X171840543Y-142686956D01*
X171820552Y-142674974D01*
X171801832Y-142661090D01*
X171784562Y-142645438D01*
X171768910Y-142628168D01*
X171755026Y-142609448D01*
X171743044Y-142589457D01*
X171733079Y-142568387D01*
X171725227Y-142546443D01*
X171719563Y-142523834D01*
X171716144Y-142500779D01*
X171715000Y-142477500D01*
X171715000Y-142002500D01*
X171716144Y-141979221D01*
X171719563Y-141956166D01*
X171725227Y-141933557D01*
X171733079Y-141911613D01*
X171743044Y-141890543D01*
X171755026Y-141870552D01*
X171768910Y-141851832D01*
X171784562Y-141834562D01*
X171801832Y-141818910D01*
X171820552Y-141805026D01*
X171840543Y-141793044D01*
X171861613Y-141783079D01*
X171883557Y-141775227D01*
X171906166Y-141769563D01*
X171929221Y-141766144D01*
X171952500Y-141765000D01*
X172527500Y-141765000D01*
X172550779Y-141766144D01*
G37*
G36*
X174300779Y-141766144D02*
G01*
X174323834Y-141769563D01*
X174346443Y-141775227D01*
X174368387Y-141783079D01*
X174389457Y-141793044D01*
X174409448Y-141805026D01*
X174428168Y-141818910D01*
X174445438Y-141834562D01*
X174461090Y-141851832D01*
X174474974Y-141870552D01*
X174486956Y-141890543D01*
X174496921Y-141911613D01*
X174504773Y-141933557D01*
X174510437Y-141956166D01*
X174513856Y-141979221D01*
X174515000Y-142002500D01*
X174515000Y-142477500D01*
X174513856Y-142500779D01*
X174510437Y-142523834D01*
X174504773Y-142546443D01*
X174496921Y-142568387D01*
X174486956Y-142589457D01*
X174474974Y-142609448D01*
X174461090Y-142628168D01*
X174445438Y-142645438D01*
X174428168Y-142661090D01*
X174409448Y-142674974D01*
X174389457Y-142686956D01*
X174368387Y-142696921D01*
X174346443Y-142704773D01*
X174323834Y-142710437D01*
X174300779Y-142713856D01*
X174277500Y-142715000D01*
X173702500Y-142715000D01*
X173679221Y-142713856D01*
X173656166Y-142710437D01*
X173633557Y-142704773D01*
X173611613Y-142696921D01*
X173590543Y-142686956D01*
X173570552Y-142674974D01*
X173551832Y-142661090D01*
X173534562Y-142645438D01*
X173518910Y-142628168D01*
X173505026Y-142609448D01*
X173493044Y-142589457D01*
X173483079Y-142568387D01*
X173475227Y-142546443D01*
X173469563Y-142523834D01*
X173466144Y-142500779D01*
X173465000Y-142477500D01*
X173465000Y-142002500D01*
X173466144Y-141979221D01*
X173469563Y-141956166D01*
X173475227Y-141933557D01*
X173483079Y-141911613D01*
X173493044Y-141890543D01*
X173505026Y-141870552D01*
X173518910Y-141851832D01*
X173534562Y-141834562D01*
X173551832Y-141818910D01*
X173570552Y-141805026D01*
X173590543Y-141793044D01*
X173611613Y-141783079D01*
X173633557Y-141775227D01*
X173656166Y-141769563D01*
X173679221Y-141766144D01*
X173702500Y-141765000D01*
X174277500Y-141765000D01*
X174300779Y-141766144D01*
G37*
G36*
X176614779Y-133384144D02*
G01*
X176637834Y-133387563D01*
X176660443Y-133393227D01*
X176682387Y-133401079D01*
X176703457Y-133411044D01*
X176723448Y-133423026D01*
X176742168Y-133436910D01*
X176759438Y-133452562D01*
X176775090Y-133469832D01*
X176788974Y-133488552D01*
X176800956Y-133508543D01*
X176810921Y-133529613D01*
X176818773Y-133551557D01*
X176824437Y-133574166D01*
X176827856Y-133597221D01*
X176829000Y-133620500D01*
X176829000Y-134095500D01*
X176827856Y-134118779D01*
X176824437Y-134141834D01*
X176818773Y-134164443D01*
X176810921Y-134186387D01*
X176800956Y-134207457D01*
X176788974Y-134227448D01*
X176775090Y-134246168D01*
X176759438Y-134263438D01*
X176742168Y-134279090D01*
X176723448Y-134292974D01*
X176703457Y-134304956D01*
X176682387Y-134314921D01*
X176660443Y-134322773D01*
X176637834Y-134328437D01*
X176614779Y-134331856D01*
X176591500Y-134333000D01*
X176016500Y-134333000D01*
X175993221Y-134331856D01*
X175970166Y-134328437D01*
X175947557Y-134322773D01*
X175925613Y-134314921D01*
X175904543Y-134304956D01*
X175884552Y-134292974D01*
X175865832Y-134279090D01*
X175848562Y-134263438D01*
X175832910Y-134246168D01*
X175819026Y-134227448D01*
X175807044Y-134207457D01*
X175797079Y-134186387D01*
X175789227Y-134164443D01*
X175783563Y-134141834D01*
X175780144Y-134118779D01*
X175779000Y-134095500D01*
X175779000Y-133620500D01*
X175780144Y-133597221D01*
X175783563Y-133574166D01*
X175789227Y-133551557D01*
X175797079Y-133529613D01*
X175807044Y-133508543D01*
X175819026Y-133488552D01*
X175832910Y-133469832D01*
X175848562Y-133452562D01*
X175865832Y-133436910D01*
X175884552Y-133423026D01*
X175904543Y-133411044D01*
X175925613Y-133401079D01*
X175947557Y-133393227D01*
X175970166Y-133387563D01*
X175993221Y-133384144D01*
X176016500Y-133383000D01*
X176591500Y-133383000D01*
X176614779Y-133384144D01*
G37*
G36*
X178364779Y-133384144D02*
G01*
X178387834Y-133387563D01*
X178410443Y-133393227D01*
X178432387Y-133401079D01*
X178453457Y-133411044D01*
X178473448Y-133423026D01*
X178492168Y-133436910D01*
X178509438Y-133452562D01*
X178525090Y-133469832D01*
X178538974Y-133488552D01*
X178550956Y-133508543D01*
X178560921Y-133529613D01*
X178568773Y-133551557D01*
X178574437Y-133574166D01*
X178577856Y-133597221D01*
X178579000Y-133620500D01*
X178579000Y-134095500D01*
X178577856Y-134118779D01*
X178574437Y-134141834D01*
X178568773Y-134164443D01*
X178560921Y-134186387D01*
X178550956Y-134207457D01*
X178538974Y-134227448D01*
X178525090Y-134246168D01*
X178509438Y-134263438D01*
X178492168Y-134279090D01*
X178473448Y-134292974D01*
X178453457Y-134304956D01*
X178432387Y-134314921D01*
X178410443Y-134322773D01*
X178387834Y-134328437D01*
X178364779Y-134331856D01*
X178341500Y-134333000D01*
X177766500Y-134333000D01*
X177743221Y-134331856D01*
X177720166Y-134328437D01*
X177697557Y-134322773D01*
X177675613Y-134314921D01*
X177654543Y-134304956D01*
X177634552Y-134292974D01*
X177615832Y-134279090D01*
X177598562Y-134263438D01*
X177582910Y-134246168D01*
X177569026Y-134227448D01*
X177557044Y-134207457D01*
X177547079Y-134186387D01*
X177539227Y-134164443D01*
X177533563Y-134141834D01*
X177530144Y-134118779D01*
X177529000Y-134095500D01*
X177529000Y-133620500D01*
X177530144Y-133597221D01*
X177533563Y-133574166D01*
X177539227Y-133551557D01*
X177547079Y-133529613D01*
X177557044Y-133508543D01*
X177569026Y-133488552D01*
X177582910Y-133469832D01*
X177598562Y-133452562D01*
X177615832Y-133436910D01*
X177634552Y-133423026D01*
X177654543Y-133411044D01*
X177675613Y-133401079D01*
X177697557Y-133393227D01*
X177720166Y-133387563D01*
X177743221Y-133384144D01*
X177766500Y-133383000D01*
X178341500Y-133383000D01*
X178364779Y-133384144D01*
G37*
G36*
X178364779Y-137448144D02*
G01*
X178387834Y-137451563D01*
X178410443Y-137457227D01*
X178432387Y-137465079D01*
X178453457Y-137475044D01*
X178473448Y-137487026D01*
X178492168Y-137500910D01*
X178509438Y-137516562D01*
X178525090Y-137533832D01*
X178538974Y-137552552D01*
X178550956Y-137572543D01*
X178560921Y-137593613D01*
X178568773Y-137615557D01*
X178574437Y-137638166D01*
X178577856Y-137661221D01*
X178579000Y-137684500D01*
X178579000Y-138159500D01*
X178577856Y-138182779D01*
X178574437Y-138205834D01*
X178568773Y-138228443D01*
X178560921Y-138250387D01*
X178550956Y-138271457D01*
X178538974Y-138291448D01*
X178525090Y-138310168D01*
X178509438Y-138327438D01*
X178492168Y-138343090D01*
X178473448Y-138356974D01*
X178453457Y-138368956D01*
X178432387Y-138378921D01*
X178410443Y-138386773D01*
X178387834Y-138392437D01*
X178364779Y-138395856D01*
X178341500Y-138397000D01*
X177766500Y-138397000D01*
X177743221Y-138395856D01*
X177720166Y-138392437D01*
X177697557Y-138386773D01*
X177675613Y-138378921D01*
X177654543Y-138368956D01*
X177634552Y-138356974D01*
X177615832Y-138343090D01*
X177598562Y-138327438D01*
X177582910Y-138310168D01*
X177569026Y-138291448D01*
X177557044Y-138271457D01*
X177547079Y-138250387D01*
X177539227Y-138228443D01*
X177533563Y-138205834D01*
X177530144Y-138182779D01*
X177529000Y-138159500D01*
X177529000Y-137684500D01*
X177530144Y-137661221D01*
X177533563Y-137638166D01*
X177539227Y-137615557D01*
X177547079Y-137593613D01*
X177557044Y-137572543D01*
X177569026Y-137552552D01*
X177582910Y-137533832D01*
X177598562Y-137516562D01*
X177615832Y-137500910D01*
X177634552Y-137487026D01*
X177654543Y-137475044D01*
X177675613Y-137465079D01*
X177697557Y-137457227D01*
X177720166Y-137451563D01*
X177743221Y-137448144D01*
X177766500Y-137447000D01*
X178341500Y-137447000D01*
X178364779Y-137448144D01*
G37*
G36*
X176614779Y-137448144D02*
G01*
X176637834Y-137451563D01*
X176660443Y-137457227D01*
X176682387Y-137465079D01*
X176703457Y-137475044D01*
X176723448Y-137487026D01*
X176742168Y-137500910D01*
X176759438Y-137516562D01*
X176775090Y-137533832D01*
X176788974Y-137552552D01*
X176800956Y-137572543D01*
X176810921Y-137593613D01*
X176818773Y-137615557D01*
X176824437Y-137638166D01*
X176827856Y-137661221D01*
X176829000Y-137684500D01*
X176829000Y-138159500D01*
X176827856Y-138182779D01*
X176824437Y-138205834D01*
X176818773Y-138228443D01*
X176810921Y-138250387D01*
X176800956Y-138271457D01*
X176788974Y-138291448D01*
X176775090Y-138310168D01*
X176759438Y-138327438D01*
X176742168Y-138343090D01*
X176723448Y-138356974D01*
X176703457Y-138368956D01*
X176682387Y-138378921D01*
X176660443Y-138386773D01*
X176637834Y-138392437D01*
X176614779Y-138395856D01*
X176591500Y-138397000D01*
X176016500Y-138397000D01*
X175993221Y-138395856D01*
X175970166Y-138392437D01*
X175947557Y-138386773D01*
X175925613Y-138378921D01*
X175904543Y-138368956D01*
X175884552Y-138356974D01*
X175865832Y-138343090D01*
X175848562Y-138327438D01*
X175832910Y-138310168D01*
X175819026Y-138291448D01*
X175807044Y-138271457D01*
X175797079Y-138250387D01*
X175789227Y-138228443D01*
X175783563Y-138205834D01*
X175780144Y-138182779D01*
X175779000Y-138159500D01*
X175779000Y-137684500D01*
X175780144Y-137661221D01*
X175783563Y-137638166D01*
X175789227Y-137615557D01*
X175797079Y-137593613D01*
X175807044Y-137572543D01*
X175819026Y-137552552D01*
X175832910Y-137533832D01*
X175848562Y-137516562D01*
X175865832Y-137500910D01*
X175884552Y-137487026D01*
X175904543Y-137475044D01*
X175925613Y-137465079D01*
X175947557Y-137457227D01*
X175970166Y-137451563D01*
X175993221Y-137448144D01*
X176016500Y-137447000D01*
X176591500Y-137447000D01*
X176614779Y-137448144D01*
G37*
G36*
X178364779Y-141766144D02*
G01*
X178387834Y-141769563D01*
X178410443Y-141775227D01*
X178432387Y-141783079D01*
X178453457Y-141793044D01*
X178473448Y-141805026D01*
X178492168Y-141818910D01*
X178509438Y-141834562D01*
X178525090Y-141851832D01*
X178538974Y-141870552D01*
X178550956Y-141890543D01*
X178560921Y-141911613D01*
X178568773Y-141933557D01*
X178574437Y-141956166D01*
X178577856Y-141979221D01*
X178579000Y-142002500D01*
X178579000Y-142477500D01*
X178577856Y-142500779D01*
X178574437Y-142523834D01*
X178568773Y-142546443D01*
X178560921Y-142568387D01*
X178550956Y-142589457D01*
X178538974Y-142609448D01*
X178525090Y-142628168D01*
X178509438Y-142645438D01*
X178492168Y-142661090D01*
X178473448Y-142674974D01*
X178453457Y-142686956D01*
X178432387Y-142696921D01*
X178410443Y-142704773D01*
X178387834Y-142710437D01*
X178364779Y-142713856D01*
X178341500Y-142715000D01*
X177766500Y-142715000D01*
X177743221Y-142713856D01*
X177720166Y-142710437D01*
X177697557Y-142704773D01*
X177675613Y-142696921D01*
X177654543Y-142686956D01*
X177634552Y-142674974D01*
X177615832Y-142661090D01*
X177598562Y-142645438D01*
X177582910Y-142628168D01*
X177569026Y-142609448D01*
X177557044Y-142589457D01*
X177547079Y-142568387D01*
X177539227Y-142546443D01*
X177533563Y-142523834D01*
X177530144Y-142500779D01*
X177529000Y-142477500D01*
X177529000Y-142002500D01*
X177530144Y-141979221D01*
X177533563Y-141956166D01*
X177539227Y-141933557D01*
X177547079Y-141911613D01*
X177557044Y-141890543D01*
X177569026Y-141870552D01*
X177582910Y-141851832D01*
X177598562Y-141834562D01*
X177615832Y-141818910D01*
X177634552Y-141805026D01*
X177654543Y-141793044D01*
X177675613Y-141783079D01*
X177697557Y-141775227D01*
X177720166Y-141769563D01*
X177743221Y-141766144D01*
X177766500Y-141765000D01*
X178341500Y-141765000D01*
X178364779Y-141766144D01*
G37*
G36*
X176614779Y-141766144D02*
G01*
X176637834Y-141769563D01*
X176660443Y-141775227D01*
X176682387Y-141783079D01*
X176703457Y-141793044D01*
X176723448Y-141805026D01*
X176742168Y-141818910D01*
X176759438Y-141834562D01*
X176775090Y-141851832D01*
X176788974Y-141870552D01*
X176800956Y-141890543D01*
X176810921Y-141911613D01*
X176818773Y-141933557D01*
X176824437Y-141956166D01*
X176827856Y-141979221D01*
X176829000Y-142002500D01*
X176829000Y-142477500D01*
X176827856Y-142500779D01*
X176824437Y-142523834D01*
X176818773Y-142546443D01*
X176810921Y-142568387D01*
X176800956Y-142589457D01*
X176788974Y-142609448D01*
X176775090Y-142628168D01*
X176759438Y-142645438D01*
X176742168Y-142661090D01*
X176723448Y-142674974D01*
X176703457Y-142686956D01*
X176682387Y-142696921D01*
X176660443Y-142704773D01*
X176637834Y-142710437D01*
X176614779Y-142713856D01*
X176591500Y-142715000D01*
X176016500Y-142715000D01*
X175993221Y-142713856D01*
X175970166Y-142710437D01*
X175947557Y-142704773D01*
X175925613Y-142696921D01*
X175904543Y-142686956D01*
X175884552Y-142674974D01*
X175865832Y-142661090D01*
X175848562Y-142645438D01*
X175832910Y-142628168D01*
X175819026Y-142609448D01*
X175807044Y-142589457D01*
X175797079Y-142568387D01*
X175789227Y-142546443D01*
X175783563Y-142523834D01*
X175780144Y-142500779D01*
X175779000Y-142477500D01*
X175779000Y-142002500D01*
X175780144Y-141979221D01*
X175783563Y-141956166D01*
X175789227Y-141933557D01*
X175797079Y-141911613D01*
X175807044Y-141890543D01*
X175819026Y-141870552D01*
X175832910Y-141851832D01*
X175848562Y-141834562D01*
X175865832Y-141818910D01*
X175884552Y-141805026D01*
X175904543Y-141793044D01*
X175925613Y-141783079D01*
X175947557Y-141775227D01*
X175970166Y-141769563D01*
X175993221Y-141766144D01*
X176016500Y-141765000D01*
X176591500Y-141765000D01*
X176614779Y-141766144D01*
G37*
D13*
X177546000Y-148590000D03*
X177546000Y-145840000D03*
D12*
G36*
X184799504Y-120881704D02*
G01*
X184823773Y-120885304D01*
X184847571Y-120891265D01*
X184870671Y-120899530D01*
X184892849Y-120910020D01*
X184913893Y-120922633D01*
X184933598Y-120937247D01*
X184951777Y-120953723D01*
X184968253Y-120971902D01*
X184982867Y-120991607D01*
X184995480Y-121012651D01*
X185005970Y-121034829D01*
X185014235Y-121057929D01*
X185020196Y-121081727D01*
X185023796Y-121105996D01*
X185025000Y-121130500D01*
X185025000Y-122055500D01*
X185023796Y-122080004D01*
X185020196Y-122104273D01*
X185014235Y-122128071D01*
X185005970Y-122151171D01*
X184995480Y-122173349D01*
X184982867Y-122194393D01*
X184968253Y-122214098D01*
X184951777Y-122232277D01*
X184933598Y-122248753D01*
X184913893Y-122263367D01*
X184892849Y-122275980D01*
X184870671Y-122286470D01*
X184847571Y-122294735D01*
X184823773Y-122300696D01*
X184799504Y-122304296D01*
X184775000Y-122305500D01*
X183525000Y-122305500D01*
X183500496Y-122304296D01*
X183476227Y-122300696D01*
X183452429Y-122294735D01*
X183429329Y-122286470D01*
X183407151Y-122275980D01*
X183386107Y-122263367D01*
X183366402Y-122248753D01*
X183348223Y-122232277D01*
X183331747Y-122214098D01*
X183317133Y-122194393D01*
X183304520Y-122173349D01*
X183294030Y-122151171D01*
X183285765Y-122128071D01*
X183279804Y-122104273D01*
X183276204Y-122080004D01*
X183275000Y-122055500D01*
X183275000Y-121130500D01*
X183276204Y-121105996D01*
X183279804Y-121081727D01*
X183285765Y-121057929D01*
X183294030Y-121034829D01*
X183304520Y-121012651D01*
X183317133Y-120991607D01*
X183331747Y-120971902D01*
X183348223Y-120953723D01*
X183366402Y-120937247D01*
X183386107Y-120922633D01*
X183407151Y-120910020D01*
X183429329Y-120899530D01*
X183452429Y-120891265D01*
X183476227Y-120885304D01*
X183500496Y-120881704D01*
X183525000Y-120880500D01*
X184775000Y-120880500D01*
X184799504Y-120881704D01*
G37*
G36*
X184799504Y-117906704D02*
G01*
X184823773Y-117910304D01*
X184847571Y-117916265D01*
X184870671Y-117924530D01*
X184892849Y-117935020D01*
X184913893Y-117947633D01*
X184933598Y-117962247D01*
X184951777Y-117978723D01*
X184968253Y-117996902D01*
X184982867Y-118016607D01*
X184995480Y-118037651D01*
X185005970Y-118059829D01*
X185014235Y-118082929D01*
X185020196Y-118106727D01*
X185023796Y-118130996D01*
X185025000Y-118155500D01*
X185025000Y-119080500D01*
X185023796Y-119105004D01*
X185020196Y-119129273D01*
X185014235Y-119153071D01*
X185005970Y-119176171D01*
X184995480Y-119198349D01*
X184982867Y-119219393D01*
X184968253Y-119239098D01*
X184951777Y-119257277D01*
X184933598Y-119273753D01*
X184913893Y-119288367D01*
X184892849Y-119300980D01*
X184870671Y-119311470D01*
X184847571Y-119319735D01*
X184823773Y-119325696D01*
X184799504Y-119329296D01*
X184775000Y-119330500D01*
X183525000Y-119330500D01*
X183500496Y-119329296D01*
X183476227Y-119325696D01*
X183452429Y-119319735D01*
X183429329Y-119311470D01*
X183407151Y-119300980D01*
X183386107Y-119288367D01*
X183366402Y-119273753D01*
X183348223Y-119257277D01*
X183331747Y-119239098D01*
X183317133Y-119219393D01*
X183304520Y-119198349D01*
X183294030Y-119176171D01*
X183285765Y-119153071D01*
X183279804Y-119129273D01*
X183276204Y-119105004D01*
X183275000Y-119080500D01*
X183275000Y-118155500D01*
X183276204Y-118130996D01*
X183279804Y-118106727D01*
X183285765Y-118082929D01*
X183294030Y-118059829D01*
X183304520Y-118037651D01*
X183317133Y-118016607D01*
X183331747Y-117996902D01*
X183348223Y-117978723D01*
X183366402Y-117962247D01*
X183386107Y-117947633D01*
X183407151Y-117935020D01*
X183429329Y-117924530D01*
X183452429Y-117916265D01*
X183476227Y-117910304D01*
X183500496Y-117906704D01*
X183525000Y-117905500D01*
X184775000Y-117905500D01*
X184799504Y-117906704D01*
G37*
G36*
X188863504Y-131622704D02*
G01*
X188887773Y-131626304D01*
X188911571Y-131632265D01*
X188934671Y-131640530D01*
X188956849Y-131651020D01*
X188977893Y-131663633D01*
X188997598Y-131678247D01*
X189015777Y-131694723D01*
X189032253Y-131712902D01*
X189046867Y-131732607D01*
X189059480Y-131753651D01*
X189069970Y-131775829D01*
X189078235Y-131798929D01*
X189084196Y-131822727D01*
X189087796Y-131846996D01*
X189089000Y-131871500D01*
X189089000Y-132796500D01*
X189087796Y-132821004D01*
X189084196Y-132845273D01*
X189078235Y-132869071D01*
X189069970Y-132892171D01*
X189059480Y-132914349D01*
X189046867Y-132935393D01*
X189032253Y-132955098D01*
X189015777Y-132973277D01*
X188997598Y-132989753D01*
X188977893Y-133004367D01*
X188956849Y-133016980D01*
X188934671Y-133027470D01*
X188911571Y-133035735D01*
X188887773Y-133041696D01*
X188863504Y-133045296D01*
X188839000Y-133046500D01*
X187589000Y-133046500D01*
X187564496Y-133045296D01*
X187540227Y-133041696D01*
X187516429Y-133035735D01*
X187493329Y-133027470D01*
X187471151Y-133016980D01*
X187450107Y-133004367D01*
X187430402Y-132989753D01*
X187412223Y-132973277D01*
X187395747Y-132955098D01*
X187381133Y-132935393D01*
X187368520Y-132914349D01*
X187358030Y-132892171D01*
X187349765Y-132869071D01*
X187343804Y-132845273D01*
X187340204Y-132821004D01*
X187339000Y-132796500D01*
X187339000Y-131871500D01*
X187340204Y-131846996D01*
X187343804Y-131822727D01*
X187349765Y-131798929D01*
X187358030Y-131775829D01*
X187368520Y-131753651D01*
X187381133Y-131732607D01*
X187395747Y-131712902D01*
X187412223Y-131694723D01*
X187430402Y-131678247D01*
X187450107Y-131663633D01*
X187471151Y-131651020D01*
X187493329Y-131640530D01*
X187516429Y-131632265D01*
X187540227Y-131626304D01*
X187564496Y-131622704D01*
X187589000Y-131621500D01*
X188839000Y-131621500D01*
X188863504Y-131622704D01*
G37*
G36*
X188863504Y-128647704D02*
G01*
X188887773Y-128651304D01*
X188911571Y-128657265D01*
X188934671Y-128665530D01*
X188956849Y-128676020D01*
X188977893Y-128688633D01*
X188997598Y-128703247D01*
X189015777Y-128719723D01*
X189032253Y-128737902D01*
X189046867Y-128757607D01*
X189059480Y-128778651D01*
X189069970Y-128800829D01*
X189078235Y-128823929D01*
X189084196Y-128847727D01*
X189087796Y-128871996D01*
X189089000Y-128896500D01*
X189089000Y-129821500D01*
X189087796Y-129846004D01*
X189084196Y-129870273D01*
X189078235Y-129894071D01*
X189069970Y-129917171D01*
X189059480Y-129939349D01*
X189046867Y-129960393D01*
X189032253Y-129980098D01*
X189015777Y-129998277D01*
X188997598Y-130014753D01*
X188977893Y-130029367D01*
X188956849Y-130041980D01*
X188934671Y-130052470D01*
X188911571Y-130060735D01*
X188887773Y-130066696D01*
X188863504Y-130070296D01*
X188839000Y-130071500D01*
X187589000Y-130071500D01*
X187564496Y-130070296D01*
X187540227Y-130066696D01*
X187516429Y-130060735D01*
X187493329Y-130052470D01*
X187471151Y-130041980D01*
X187450107Y-130029367D01*
X187430402Y-130014753D01*
X187412223Y-129998277D01*
X187395747Y-129980098D01*
X187381133Y-129960393D01*
X187368520Y-129939349D01*
X187358030Y-129917171D01*
X187349765Y-129894071D01*
X187343804Y-129870273D01*
X187340204Y-129846004D01*
X187339000Y-129821500D01*
X187339000Y-128896500D01*
X187340204Y-128871996D01*
X187343804Y-128847727D01*
X187349765Y-128823929D01*
X187358030Y-128800829D01*
X187368520Y-128778651D01*
X187381133Y-128757607D01*
X187395747Y-128737902D01*
X187412223Y-128719723D01*
X187430402Y-128703247D01*
X187450107Y-128688633D01*
X187471151Y-128676020D01*
X187493329Y-128665530D01*
X187516429Y-128657265D01*
X187540227Y-128651304D01*
X187564496Y-128647704D01*
X187589000Y-128646500D01*
X188839000Y-128646500D01*
X188863504Y-128647704D01*
G37*
G36*
X188863504Y-123313704D02*
G01*
X188887773Y-123317304D01*
X188911571Y-123323265D01*
X188934671Y-123331530D01*
X188956849Y-123342020D01*
X188977893Y-123354633D01*
X188997598Y-123369247D01*
X189015777Y-123385723D01*
X189032253Y-123403902D01*
X189046867Y-123423607D01*
X189059480Y-123444651D01*
X189069970Y-123466829D01*
X189078235Y-123489929D01*
X189084196Y-123513727D01*
X189087796Y-123537996D01*
X189089000Y-123562500D01*
X189089000Y-124487500D01*
X189087796Y-124512004D01*
X189084196Y-124536273D01*
X189078235Y-124560071D01*
X189069970Y-124583171D01*
X189059480Y-124605349D01*
X189046867Y-124626393D01*
X189032253Y-124646098D01*
X189015777Y-124664277D01*
X188997598Y-124680753D01*
X188977893Y-124695367D01*
X188956849Y-124707980D01*
X188934671Y-124718470D01*
X188911571Y-124726735D01*
X188887773Y-124732696D01*
X188863504Y-124736296D01*
X188839000Y-124737500D01*
X187589000Y-124737500D01*
X187564496Y-124736296D01*
X187540227Y-124732696D01*
X187516429Y-124726735D01*
X187493329Y-124718470D01*
X187471151Y-124707980D01*
X187450107Y-124695367D01*
X187430402Y-124680753D01*
X187412223Y-124664277D01*
X187395747Y-124646098D01*
X187381133Y-124626393D01*
X187368520Y-124605349D01*
X187358030Y-124583171D01*
X187349765Y-124560071D01*
X187343804Y-124536273D01*
X187340204Y-124512004D01*
X187339000Y-124487500D01*
X187339000Y-123562500D01*
X187340204Y-123537996D01*
X187343804Y-123513727D01*
X187349765Y-123489929D01*
X187358030Y-123466829D01*
X187368520Y-123444651D01*
X187381133Y-123423607D01*
X187395747Y-123403902D01*
X187412223Y-123385723D01*
X187430402Y-123369247D01*
X187450107Y-123354633D01*
X187471151Y-123342020D01*
X187493329Y-123331530D01*
X187516429Y-123323265D01*
X187540227Y-123317304D01*
X187564496Y-123313704D01*
X187589000Y-123312500D01*
X188839000Y-123312500D01*
X188863504Y-123313704D01*
G37*
G36*
X188863504Y-126288704D02*
G01*
X188887773Y-126292304D01*
X188911571Y-126298265D01*
X188934671Y-126306530D01*
X188956849Y-126317020D01*
X188977893Y-126329633D01*
X188997598Y-126344247D01*
X189015777Y-126360723D01*
X189032253Y-126378902D01*
X189046867Y-126398607D01*
X189059480Y-126419651D01*
X189069970Y-126441829D01*
X189078235Y-126464929D01*
X189084196Y-126488727D01*
X189087796Y-126512996D01*
X189089000Y-126537500D01*
X189089000Y-127462500D01*
X189087796Y-127487004D01*
X189084196Y-127511273D01*
X189078235Y-127535071D01*
X189069970Y-127558171D01*
X189059480Y-127580349D01*
X189046867Y-127601393D01*
X189032253Y-127621098D01*
X189015777Y-127639277D01*
X188997598Y-127655753D01*
X188977893Y-127670367D01*
X188956849Y-127682980D01*
X188934671Y-127693470D01*
X188911571Y-127701735D01*
X188887773Y-127707696D01*
X188863504Y-127711296D01*
X188839000Y-127712500D01*
X187589000Y-127712500D01*
X187564496Y-127711296D01*
X187540227Y-127707696D01*
X187516429Y-127701735D01*
X187493329Y-127693470D01*
X187471151Y-127682980D01*
X187450107Y-127670367D01*
X187430402Y-127655753D01*
X187412223Y-127639277D01*
X187395747Y-127621098D01*
X187381133Y-127601393D01*
X187368520Y-127580349D01*
X187358030Y-127558171D01*
X187349765Y-127535071D01*
X187343804Y-127511273D01*
X187340204Y-127487004D01*
X187339000Y-127462500D01*
X187339000Y-126537500D01*
X187340204Y-126512996D01*
X187343804Y-126488727D01*
X187349765Y-126464929D01*
X187358030Y-126441829D01*
X187368520Y-126419651D01*
X187381133Y-126398607D01*
X187395747Y-126378902D01*
X187412223Y-126360723D01*
X187430402Y-126344247D01*
X187450107Y-126329633D01*
X187471151Y-126317020D01*
X187493329Y-126306530D01*
X187516429Y-126298265D01*
X187540227Y-126292304D01*
X187564496Y-126288704D01*
X187589000Y-126287500D01*
X188839000Y-126287500D01*
X188863504Y-126288704D01*
G37*
G36*
X181497504Y-136956704D02*
G01*
X181521773Y-136960304D01*
X181545571Y-136966265D01*
X181568671Y-136974530D01*
X181590849Y-136985020D01*
X181611893Y-136997633D01*
X181631598Y-137012247D01*
X181649777Y-137028723D01*
X181666253Y-137046902D01*
X181680867Y-137066607D01*
X181693480Y-137087651D01*
X181703970Y-137109829D01*
X181712235Y-137132929D01*
X181718196Y-137156727D01*
X181721796Y-137180996D01*
X181723000Y-137205500D01*
X181723000Y-138130500D01*
X181721796Y-138155004D01*
X181718196Y-138179273D01*
X181712235Y-138203071D01*
X181703970Y-138226171D01*
X181693480Y-138248349D01*
X181680867Y-138269393D01*
X181666253Y-138289098D01*
X181649777Y-138307277D01*
X181631598Y-138323753D01*
X181611893Y-138338367D01*
X181590849Y-138350980D01*
X181568671Y-138361470D01*
X181545571Y-138369735D01*
X181521773Y-138375696D01*
X181497504Y-138379296D01*
X181473000Y-138380500D01*
X180223000Y-138380500D01*
X180198496Y-138379296D01*
X180174227Y-138375696D01*
X180150429Y-138369735D01*
X180127329Y-138361470D01*
X180105151Y-138350980D01*
X180084107Y-138338367D01*
X180064402Y-138323753D01*
X180046223Y-138307277D01*
X180029747Y-138289098D01*
X180015133Y-138269393D01*
X180002520Y-138248349D01*
X179992030Y-138226171D01*
X179983765Y-138203071D01*
X179977804Y-138179273D01*
X179974204Y-138155004D01*
X179973000Y-138130500D01*
X179973000Y-137205500D01*
X179974204Y-137180996D01*
X179977804Y-137156727D01*
X179983765Y-137132929D01*
X179992030Y-137109829D01*
X180002520Y-137087651D01*
X180015133Y-137066607D01*
X180029747Y-137046902D01*
X180046223Y-137028723D01*
X180064402Y-137012247D01*
X180084107Y-136997633D01*
X180105151Y-136985020D01*
X180127329Y-136974530D01*
X180150429Y-136966265D01*
X180174227Y-136960304D01*
X180198496Y-136956704D01*
X180223000Y-136955500D01*
X181473000Y-136955500D01*
X181497504Y-136956704D01*
G37*
G36*
X181497504Y-133981704D02*
G01*
X181521773Y-133985304D01*
X181545571Y-133991265D01*
X181568671Y-133999530D01*
X181590849Y-134010020D01*
X181611893Y-134022633D01*
X181631598Y-134037247D01*
X181649777Y-134053723D01*
X181666253Y-134071902D01*
X181680867Y-134091607D01*
X181693480Y-134112651D01*
X181703970Y-134134829D01*
X181712235Y-134157929D01*
X181718196Y-134181727D01*
X181721796Y-134205996D01*
X181723000Y-134230500D01*
X181723000Y-135155500D01*
X181721796Y-135180004D01*
X181718196Y-135204273D01*
X181712235Y-135228071D01*
X181703970Y-135251171D01*
X181693480Y-135273349D01*
X181680867Y-135294393D01*
X181666253Y-135314098D01*
X181649777Y-135332277D01*
X181631598Y-135348753D01*
X181611893Y-135363367D01*
X181590849Y-135375980D01*
X181568671Y-135386470D01*
X181545571Y-135394735D01*
X181521773Y-135400696D01*
X181497504Y-135404296D01*
X181473000Y-135405500D01*
X180223000Y-135405500D01*
X180198496Y-135404296D01*
X180174227Y-135400696D01*
X180150429Y-135394735D01*
X180127329Y-135386470D01*
X180105151Y-135375980D01*
X180084107Y-135363367D01*
X180064402Y-135348753D01*
X180046223Y-135332277D01*
X180029747Y-135314098D01*
X180015133Y-135294393D01*
X180002520Y-135273349D01*
X179992030Y-135251171D01*
X179983765Y-135228071D01*
X179977804Y-135204273D01*
X179974204Y-135180004D01*
X179973000Y-135155500D01*
X179973000Y-134230500D01*
X179974204Y-134205996D01*
X179977804Y-134181727D01*
X179983765Y-134157929D01*
X179992030Y-134134829D01*
X180002520Y-134112651D01*
X180015133Y-134091607D01*
X180029747Y-134071902D01*
X180046223Y-134053723D01*
X180064402Y-134037247D01*
X180084107Y-134022633D01*
X180105151Y-134010020D01*
X180127329Y-133999530D01*
X180150429Y-133991265D01*
X180174227Y-133985304D01*
X180198496Y-133981704D01*
X180223000Y-133980500D01*
X181473000Y-133980500D01*
X181497504Y-133981704D01*
G37*
G36*
X185053504Y-136883704D02*
G01*
X185077773Y-136887304D01*
X185101571Y-136893265D01*
X185124671Y-136901530D01*
X185146849Y-136912020D01*
X185167893Y-136924633D01*
X185187598Y-136939247D01*
X185205777Y-136955723D01*
X185222253Y-136973902D01*
X185236867Y-136993607D01*
X185249480Y-137014651D01*
X185259970Y-137036829D01*
X185268235Y-137059929D01*
X185274196Y-137083727D01*
X185277796Y-137107996D01*
X185279000Y-137132500D01*
X185279000Y-138057500D01*
X185277796Y-138082004D01*
X185274196Y-138106273D01*
X185268235Y-138130071D01*
X185259970Y-138153171D01*
X185249480Y-138175349D01*
X185236867Y-138196393D01*
X185222253Y-138216098D01*
X185205777Y-138234277D01*
X185187598Y-138250753D01*
X185167893Y-138265367D01*
X185146849Y-138277980D01*
X185124671Y-138288470D01*
X185101571Y-138296735D01*
X185077773Y-138302696D01*
X185053504Y-138306296D01*
X185029000Y-138307500D01*
X183779000Y-138307500D01*
X183754496Y-138306296D01*
X183730227Y-138302696D01*
X183706429Y-138296735D01*
X183683329Y-138288470D01*
X183661151Y-138277980D01*
X183640107Y-138265367D01*
X183620402Y-138250753D01*
X183602223Y-138234277D01*
X183585747Y-138216098D01*
X183571133Y-138196393D01*
X183558520Y-138175349D01*
X183548030Y-138153171D01*
X183539765Y-138130071D01*
X183533804Y-138106273D01*
X183530204Y-138082004D01*
X183529000Y-138057500D01*
X183529000Y-137132500D01*
X183530204Y-137107996D01*
X183533804Y-137083727D01*
X183539765Y-137059929D01*
X183548030Y-137036829D01*
X183558520Y-137014651D01*
X183571133Y-136993607D01*
X183585747Y-136973902D01*
X183602223Y-136955723D01*
X183620402Y-136939247D01*
X183640107Y-136924633D01*
X183661151Y-136912020D01*
X183683329Y-136901530D01*
X183706429Y-136893265D01*
X183730227Y-136887304D01*
X183754496Y-136883704D01*
X183779000Y-136882500D01*
X185029000Y-136882500D01*
X185053504Y-136883704D01*
G37*
G36*
X185053504Y-133908704D02*
G01*
X185077773Y-133912304D01*
X185101571Y-133918265D01*
X185124671Y-133926530D01*
X185146849Y-133937020D01*
X185167893Y-133949633D01*
X185187598Y-133964247D01*
X185205777Y-133980723D01*
X185222253Y-133998902D01*
X185236867Y-134018607D01*
X185249480Y-134039651D01*
X185259970Y-134061829D01*
X185268235Y-134084929D01*
X185274196Y-134108727D01*
X185277796Y-134132996D01*
X185279000Y-134157500D01*
X185279000Y-135082500D01*
X185277796Y-135107004D01*
X185274196Y-135131273D01*
X185268235Y-135155071D01*
X185259970Y-135178171D01*
X185249480Y-135200349D01*
X185236867Y-135221393D01*
X185222253Y-135241098D01*
X185205777Y-135259277D01*
X185187598Y-135275753D01*
X185167893Y-135290367D01*
X185146849Y-135302980D01*
X185124671Y-135313470D01*
X185101571Y-135321735D01*
X185077773Y-135327696D01*
X185053504Y-135331296D01*
X185029000Y-135332500D01*
X183779000Y-135332500D01*
X183754496Y-135331296D01*
X183730227Y-135327696D01*
X183706429Y-135321735D01*
X183683329Y-135313470D01*
X183661151Y-135302980D01*
X183640107Y-135290367D01*
X183620402Y-135275753D01*
X183602223Y-135259277D01*
X183585747Y-135241098D01*
X183571133Y-135221393D01*
X183558520Y-135200349D01*
X183548030Y-135178171D01*
X183539765Y-135155071D01*
X183533804Y-135131273D01*
X183530204Y-135107004D01*
X183529000Y-135082500D01*
X183529000Y-134157500D01*
X183530204Y-134132996D01*
X183533804Y-134108727D01*
X183539765Y-134084929D01*
X183548030Y-134061829D01*
X183558520Y-134039651D01*
X183571133Y-134018607D01*
X183585747Y-133998902D01*
X183602223Y-133980723D01*
X183620402Y-133964247D01*
X183640107Y-133949633D01*
X183661151Y-133937020D01*
X183683329Y-133926530D01*
X183706429Y-133918265D01*
X183730227Y-133912304D01*
X183754496Y-133908704D01*
X183779000Y-133907500D01*
X185029000Y-133907500D01*
X185053504Y-133908704D01*
G37*
G36*
X181497504Y-139823704D02*
G01*
X181521773Y-139827304D01*
X181545571Y-139833265D01*
X181568671Y-139841530D01*
X181590849Y-139852020D01*
X181611893Y-139864633D01*
X181631598Y-139879247D01*
X181649777Y-139895723D01*
X181666253Y-139913902D01*
X181680867Y-139933607D01*
X181693480Y-139954651D01*
X181703970Y-139976829D01*
X181712235Y-139999929D01*
X181718196Y-140023727D01*
X181721796Y-140047996D01*
X181723000Y-140072500D01*
X181723000Y-140997500D01*
X181721796Y-141022004D01*
X181718196Y-141046273D01*
X181712235Y-141070071D01*
X181703970Y-141093171D01*
X181693480Y-141115349D01*
X181680867Y-141136393D01*
X181666253Y-141156098D01*
X181649777Y-141174277D01*
X181631598Y-141190753D01*
X181611893Y-141205367D01*
X181590849Y-141217980D01*
X181568671Y-141228470D01*
X181545571Y-141236735D01*
X181521773Y-141242696D01*
X181497504Y-141246296D01*
X181473000Y-141247500D01*
X180223000Y-141247500D01*
X180198496Y-141246296D01*
X180174227Y-141242696D01*
X180150429Y-141236735D01*
X180127329Y-141228470D01*
X180105151Y-141217980D01*
X180084107Y-141205367D01*
X180064402Y-141190753D01*
X180046223Y-141174277D01*
X180029747Y-141156098D01*
X180015133Y-141136393D01*
X180002520Y-141115349D01*
X179992030Y-141093171D01*
X179983765Y-141070071D01*
X179977804Y-141046273D01*
X179974204Y-141022004D01*
X179973000Y-140997500D01*
X179973000Y-140072500D01*
X179974204Y-140047996D01*
X179977804Y-140023727D01*
X179983765Y-139999929D01*
X179992030Y-139976829D01*
X180002520Y-139954651D01*
X180015133Y-139933607D01*
X180029747Y-139913902D01*
X180046223Y-139895723D01*
X180064402Y-139879247D01*
X180084107Y-139864633D01*
X180105151Y-139852020D01*
X180127329Y-139841530D01*
X180150429Y-139833265D01*
X180174227Y-139827304D01*
X180198496Y-139823704D01*
X180223000Y-139822500D01*
X181473000Y-139822500D01*
X181497504Y-139823704D01*
G37*
G36*
X181497504Y-142798704D02*
G01*
X181521773Y-142802304D01*
X181545571Y-142808265D01*
X181568671Y-142816530D01*
X181590849Y-142827020D01*
X181611893Y-142839633D01*
X181631598Y-142854247D01*
X181649777Y-142870723D01*
X181666253Y-142888902D01*
X181680867Y-142908607D01*
X181693480Y-142929651D01*
X181703970Y-142951829D01*
X181712235Y-142974929D01*
X181718196Y-142998727D01*
X181721796Y-143022996D01*
X181723000Y-143047500D01*
X181723000Y-143972500D01*
X181721796Y-143997004D01*
X181718196Y-144021273D01*
X181712235Y-144045071D01*
X181703970Y-144068171D01*
X181693480Y-144090349D01*
X181680867Y-144111393D01*
X181666253Y-144131098D01*
X181649777Y-144149277D01*
X181631598Y-144165753D01*
X181611893Y-144180367D01*
X181590849Y-144192980D01*
X181568671Y-144203470D01*
X181545571Y-144211735D01*
X181521773Y-144217696D01*
X181497504Y-144221296D01*
X181473000Y-144222500D01*
X180223000Y-144222500D01*
X180198496Y-144221296D01*
X180174227Y-144217696D01*
X180150429Y-144211735D01*
X180127329Y-144203470D01*
X180105151Y-144192980D01*
X180084107Y-144180367D01*
X180064402Y-144165753D01*
X180046223Y-144149277D01*
X180029747Y-144131098D01*
X180015133Y-144111393D01*
X180002520Y-144090349D01*
X179992030Y-144068171D01*
X179983765Y-144045071D01*
X179977804Y-144021273D01*
X179974204Y-143997004D01*
X179973000Y-143972500D01*
X179973000Y-143047500D01*
X179974204Y-143022996D01*
X179977804Y-142998727D01*
X179983765Y-142974929D01*
X179992030Y-142951829D01*
X180002520Y-142929651D01*
X180015133Y-142908607D01*
X180029747Y-142888902D01*
X180046223Y-142870723D01*
X180064402Y-142854247D01*
X180084107Y-142839633D01*
X180105151Y-142827020D01*
X180127329Y-142816530D01*
X180150429Y-142808265D01*
X180174227Y-142802304D01*
X180198496Y-142798704D01*
X180223000Y-142797500D01*
X181473000Y-142797500D01*
X181497504Y-142798704D01*
G37*
G36*
X185307504Y-139823704D02*
G01*
X185331773Y-139827304D01*
X185355571Y-139833265D01*
X185378671Y-139841530D01*
X185400849Y-139852020D01*
X185421893Y-139864633D01*
X185441598Y-139879247D01*
X185459777Y-139895723D01*
X185476253Y-139913902D01*
X185490867Y-139933607D01*
X185503480Y-139954651D01*
X185513970Y-139976829D01*
X185522235Y-139999929D01*
X185528196Y-140023727D01*
X185531796Y-140047996D01*
X185533000Y-140072500D01*
X185533000Y-140997500D01*
X185531796Y-141022004D01*
X185528196Y-141046273D01*
X185522235Y-141070071D01*
X185513970Y-141093171D01*
X185503480Y-141115349D01*
X185490867Y-141136393D01*
X185476253Y-141156098D01*
X185459777Y-141174277D01*
X185441598Y-141190753D01*
X185421893Y-141205367D01*
X185400849Y-141217980D01*
X185378671Y-141228470D01*
X185355571Y-141236735D01*
X185331773Y-141242696D01*
X185307504Y-141246296D01*
X185283000Y-141247500D01*
X184033000Y-141247500D01*
X184008496Y-141246296D01*
X183984227Y-141242696D01*
X183960429Y-141236735D01*
X183937329Y-141228470D01*
X183915151Y-141217980D01*
X183894107Y-141205367D01*
X183874402Y-141190753D01*
X183856223Y-141174277D01*
X183839747Y-141156098D01*
X183825133Y-141136393D01*
X183812520Y-141115349D01*
X183802030Y-141093171D01*
X183793765Y-141070071D01*
X183787804Y-141046273D01*
X183784204Y-141022004D01*
X183783000Y-140997500D01*
X183783000Y-140072500D01*
X183784204Y-140047996D01*
X183787804Y-140023727D01*
X183793765Y-139999929D01*
X183802030Y-139976829D01*
X183812520Y-139954651D01*
X183825133Y-139933607D01*
X183839747Y-139913902D01*
X183856223Y-139895723D01*
X183874402Y-139879247D01*
X183894107Y-139864633D01*
X183915151Y-139852020D01*
X183937329Y-139841530D01*
X183960429Y-139833265D01*
X183984227Y-139827304D01*
X184008496Y-139823704D01*
X184033000Y-139822500D01*
X185283000Y-139822500D01*
X185307504Y-139823704D01*
G37*
G36*
X185307504Y-142798704D02*
G01*
X185331773Y-142802304D01*
X185355571Y-142808265D01*
X185378671Y-142816530D01*
X185400849Y-142827020D01*
X185421893Y-142839633D01*
X185441598Y-142854247D01*
X185459777Y-142870723D01*
X185476253Y-142888902D01*
X185490867Y-142908607D01*
X185503480Y-142929651D01*
X185513970Y-142951829D01*
X185522235Y-142974929D01*
X185528196Y-142998727D01*
X185531796Y-143022996D01*
X185533000Y-143047500D01*
X185533000Y-143972500D01*
X185531796Y-143997004D01*
X185528196Y-144021273D01*
X185522235Y-144045071D01*
X185513970Y-144068171D01*
X185503480Y-144090349D01*
X185490867Y-144111393D01*
X185476253Y-144131098D01*
X185459777Y-144149277D01*
X185441598Y-144165753D01*
X185421893Y-144180367D01*
X185400849Y-144192980D01*
X185378671Y-144203470D01*
X185355571Y-144211735D01*
X185331773Y-144217696D01*
X185307504Y-144221296D01*
X185283000Y-144222500D01*
X184033000Y-144222500D01*
X184008496Y-144221296D01*
X183984227Y-144217696D01*
X183960429Y-144211735D01*
X183937329Y-144203470D01*
X183915151Y-144192980D01*
X183894107Y-144180367D01*
X183874402Y-144165753D01*
X183856223Y-144149277D01*
X183839747Y-144131098D01*
X183825133Y-144111393D01*
X183812520Y-144090349D01*
X183802030Y-144068171D01*
X183793765Y-144045071D01*
X183787804Y-144021273D01*
X183784204Y-143997004D01*
X183783000Y-143972500D01*
X183783000Y-143047500D01*
X183784204Y-143022996D01*
X183787804Y-142998727D01*
X183793765Y-142974929D01*
X183802030Y-142951829D01*
X183812520Y-142929651D01*
X183825133Y-142908607D01*
X183839747Y-142888902D01*
X183856223Y-142870723D01*
X183874402Y-142854247D01*
X183894107Y-142839633D01*
X183915151Y-142827020D01*
X183937329Y-142816530D01*
X183960429Y-142808265D01*
X183984227Y-142802304D01*
X184008496Y-142798704D01*
X184033000Y-142797500D01*
X185283000Y-142797500D01*
X185307504Y-142798704D01*
G37*
G36*
X188863504Y-142725704D02*
G01*
X188887773Y-142729304D01*
X188911571Y-142735265D01*
X188934671Y-142743530D01*
X188956849Y-142754020D01*
X188977893Y-142766633D01*
X188997598Y-142781247D01*
X189015777Y-142797723D01*
X189032253Y-142815902D01*
X189046867Y-142835607D01*
X189059480Y-142856651D01*
X189069970Y-142878829D01*
X189078235Y-142901929D01*
X189084196Y-142925727D01*
X189087796Y-142949996D01*
X189089000Y-142974500D01*
X189089000Y-143899500D01*
X189087796Y-143924004D01*
X189084196Y-143948273D01*
X189078235Y-143972071D01*
X189069970Y-143995171D01*
X189059480Y-144017349D01*
X189046867Y-144038393D01*
X189032253Y-144058098D01*
X189015777Y-144076277D01*
X188997598Y-144092753D01*
X188977893Y-144107367D01*
X188956849Y-144119980D01*
X188934671Y-144130470D01*
X188911571Y-144138735D01*
X188887773Y-144144696D01*
X188863504Y-144148296D01*
X188839000Y-144149500D01*
X187589000Y-144149500D01*
X187564496Y-144148296D01*
X187540227Y-144144696D01*
X187516429Y-144138735D01*
X187493329Y-144130470D01*
X187471151Y-144119980D01*
X187450107Y-144107367D01*
X187430402Y-144092753D01*
X187412223Y-144076277D01*
X187395747Y-144058098D01*
X187381133Y-144038393D01*
X187368520Y-144017349D01*
X187358030Y-143995171D01*
X187349765Y-143972071D01*
X187343804Y-143948273D01*
X187340204Y-143924004D01*
X187339000Y-143899500D01*
X187339000Y-142974500D01*
X187340204Y-142949996D01*
X187343804Y-142925727D01*
X187349765Y-142901929D01*
X187358030Y-142878829D01*
X187368520Y-142856651D01*
X187381133Y-142835607D01*
X187395747Y-142815902D01*
X187412223Y-142797723D01*
X187430402Y-142781247D01*
X187450107Y-142766633D01*
X187471151Y-142754020D01*
X187493329Y-142743530D01*
X187516429Y-142735265D01*
X187540227Y-142729304D01*
X187564496Y-142725704D01*
X187589000Y-142724500D01*
X188839000Y-142724500D01*
X188863504Y-142725704D01*
G37*
G36*
X188863504Y-139750704D02*
G01*
X188887773Y-139754304D01*
X188911571Y-139760265D01*
X188934671Y-139768530D01*
X188956849Y-139779020D01*
X188977893Y-139791633D01*
X188997598Y-139806247D01*
X189015777Y-139822723D01*
X189032253Y-139840902D01*
X189046867Y-139860607D01*
X189059480Y-139881651D01*
X189069970Y-139903829D01*
X189078235Y-139926929D01*
X189084196Y-139950727D01*
X189087796Y-139974996D01*
X189089000Y-139999500D01*
X189089000Y-140924500D01*
X189087796Y-140949004D01*
X189084196Y-140973273D01*
X189078235Y-140997071D01*
X189069970Y-141020171D01*
X189059480Y-141042349D01*
X189046867Y-141063393D01*
X189032253Y-141083098D01*
X189015777Y-141101277D01*
X188997598Y-141117753D01*
X188977893Y-141132367D01*
X188956849Y-141144980D01*
X188934671Y-141155470D01*
X188911571Y-141163735D01*
X188887773Y-141169696D01*
X188863504Y-141173296D01*
X188839000Y-141174500D01*
X187589000Y-141174500D01*
X187564496Y-141173296D01*
X187540227Y-141169696D01*
X187516429Y-141163735D01*
X187493329Y-141155470D01*
X187471151Y-141144980D01*
X187450107Y-141132367D01*
X187430402Y-141117753D01*
X187412223Y-141101277D01*
X187395747Y-141083098D01*
X187381133Y-141063393D01*
X187368520Y-141042349D01*
X187358030Y-141020171D01*
X187349765Y-140997071D01*
X187343804Y-140973273D01*
X187340204Y-140949004D01*
X187339000Y-140924500D01*
X187339000Y-139999500D01*
X187340204Y-139974996D01*
X187343804Y-139950727D01*
X187349765Y-139926929D01*
X187358030Y-139903829D01*
X187368520Y-139881651D01*
X187381133Y-139860607D01*
X187395747Y-139840902D01*
X187412223Y-139822723D01*
X187430402Y-139806247D01*
X187450107Y-139791633D01*
X187471151Y-139779020D01*
X187493329Y-139768530D01*
X187516429Y-139760265D01*
X187540227Y-139754304D01*
X187564496Y-139750704D01*
X187589000Y-139749500D01*
X188839000Y-139749500D01*
X188863504Y-139750704D01*
G37*
G36*
X176545504Y-155844204D02*
G01*
X176569773Y-155847804D01*
X176593571Y-155853765D01*
X176616671Y-155862030D01*
X176638849Y-155872520D01*
X176659893Y-155885133D01*
X176679598Y-155899747D01*
X176697777Y-155916223D01*
X176714253Y-155934402D01*
X176728867Y-155954107D01*
X176741480Y-155975151D01*
X176751970Y-155997329D01*
X176760235Y-156020429D01*
X176766196Y-156044227D01*
X176769796Y-156068496D01*
X176771000Y-156093000D01*
X176771000Y-157343000D01*
X176769796Y-157367504D01*
X176766196Y-157391773D01*
X176760235Y-157415571D01*
X176751970Y-157438671D01*
X176741480Y-157460849D01*
X176728867Y-157481893D01*
X176714253Y-157501598D01*
X176697777Y-157519777D01*
X176679598Y-157536253D01*
X176659893Y-157550867D01*
X176638849Y-157563480D01*
X176616671Y-157573970D01*
X176593571Y-157582235D01*
X176569773Y-157588196D01*
X176545504Y-157591796D01*
X176521000Y-157593000D01*
X175596000Y-157593000D01*
X175571496Y-157591796D01*
X175547227Y-157588196D01*
X175523429Y-157582235D01*
X175500329Y-157573970D01*
X175478151Y-157563480D01*
X175457107Y-157550867D01*
X175437402Y-157536253D01*
X175419223Y-157519777D01*
X175402747Y-157501598D01*
X175388133Y-157481893D01*
X175375520Y-157460849D01*
X175365030Y-157438671D01*
X175356765Y-157415571D01*
X175350804Y-157391773D01*
X175347204Y-157367504D01*
X175346000Y-157343000D01*
X175346000Y-156093000D01*
X175347204Y-156068496D01*
X175350804Y-156044227D01*
X175356765Y-156020429D01*
X175365030Y-155997329D01*
X175375520Y-155975151D01*
X175388133Y-155954107D01*
X175402747Y-155934402D01*
X175419223Y-155916223D01*
X175437402Y-155899747D01*
X175457107Y-155885133D01*
X175478151Y-155872520D01*
X175500329Y-155862030D01*
X175523429Y-155853765D01*
X175547227Y-155847804D01*
X175571496Y-155844204D01*
X175596000Y-155843000D01*
X176521000Y-155843000D01*
X176545504Y-155844204D01*
G37*
G36*
X179520504Y-155844204D02*
G01*
X179544773Y-155847804D01*
X179568571Y-155853765D01*
X179591671Y-155862030D01*
X179613849Y-155872520D01*
X179634893Y-155885133D01*
X179654598Y-155899747D01*
X179672777Y-155916223D01*
X179689253Y-155934402D01*
X179703867Y-155954107D01*
X179716480Y-155975151D01*
X179726970Y-155997329D01*
X179735235Y-156020429D01*
X179741196Y-156044227D01*
X179744796Y-156068496D01*
X179746000Y-156093000D01*
X179746000Y-157343000D01*
X179744796Y-157367504D01*
X179741196Y-157391773D01*
X179735235Y-157415571D01*
X179726970Y-157438671D01*
X179716480Y-157460849D01*
X179703867Y-157481893D01*
X179689253Y-157501598D01*
X179672777Y-157519777D01*
X179654598Y-157536253D01*
X179634893Y-157550867D01*
X179613849Y-157563480D01*
X179591671Y-157573970D01*
X179568571Y-157582235D01*
X179544773Y-157588196D01*
X179520504Y-157591796D01*
X179496000Y-157593000D01*
X178571000Y-157593000D01*
X178546496Y-157591796D01*
X178522227Y-157588196D01*
X178498429Y-157582235D01*
X178475329Y-157573970D01*
X178453151Y-157563480D01*
X178432107Y-157550867D01*
X178412402Y-157536253D01*
X178394223Y-157519777D01*
X178377747Y-157501598D01*
X178363133Y-157481893D01*
X178350520Y-157460849D01*
X178340030Y-157438671D01*
X178331765Y-157415571D01*
X178325804Y-157391773D01*
X178322204Y-157367504D01*
X178321000Y-157343000D01*
X178321000Y-156093000D01*
X178322204Y-156068496D01*
X178325804Y-156044227D01*
X178331765Y-156020429D01*
X178340030Y-155997329D01*
X178350520Y-155975151D01*
X178363133Y-155954107D01*
X178377747Y-155934402D01*
X178394223Y-155916223D01*
X178412402Y-155899747D01*
X178432107Y-155885133D01*
X178453151Y-155872520D01*
X178475329Y-155862030D01*
X178498429Y-155853765D01*
X178522227Y-155847804D01*
X178546496Y-155844204D01*
X178571000Y-155843000D01*
X179496000Y-155843000D01*
X179520504Y-155844204D01*
G37*
G36*
X183021504Y-153901704D02*
G01*
X183045773Y-153905304D01*
X183069571Y-153911265D01*
X183092671Y-153919530D01*
X183114849Y-153930020D01*
X183135893Y-153942633D01*
X183155598Y-153957247D01*
X183173777Y-153973723D01*
X183190253Y-153991902D01*
X183204867Y-154011607D01*
X183217480Y-154032651D01*
X183227970Y-154054829D01*
X183236235Y-154077929D01*
X183242196Y-154101727D01*
X183245796Y-154125996D01*
X183247000Y-154150500D01*
X183247000Y-155075500D01*
X183245796Y-155100004D01*
X183242196Y-155124273D01*
X183236235Y-155148071D01*
X183227970Y-155171171D01*
X183217480Y-155193349D01*
X183204867Y-155214393D01*
X183190253Y-155234098D01*
X183173777Y-155252277D01*
X183155598Y-155268753D01*
X183135893Y-155283367D01*
X183114849Y-155295980D01*
X183092671Y-155306470D01*
X183069571Y-155314735D01*
X183045773Y-155320696D01*
X183021504Y-155324296D01*
X182997000Y-155325500D01*
X181747000Y-155325500D01*
X181722496Y-155324296D01*
X181698227Y-155320696D01*
X181674429Y-155314735D01*
X181651329Y-155306470D01*
X181629151Y-155295980D01*
X181608107Y-155283367D01*
X181588402Y-155268753D01*
X181570223Y-155252277D01*
X181553747Y-155234098D01*
X181539133Y-155214393D01*
X181526520Y-155193349D01*
X181516030Y-155171171D01*
X181507765Y-155148071D01*
X181501804Y-155124273D01*
X181498204Y-155100004D01*
X181497000Y-155075500D01*
X181497000Y-154150500D01*
X181498204Y-154125996D01*
X181501804Y-154101727D01*
X181507765Y-154077929D01*
X181516030Y-154054829D01*
X181526520Y-154032651D01*
X181539133Y-154011607D01*
X181553747Y-153991902D01*
X181570223Y-153973723D01*
X181588402Y-153957247D01*
X181608107Y-153942633D01*
X181629151Y-153930020D01*
X181651329Y-153919530D01*
X181674429Y-153911265D01*
X181698227Y-153905304D01*
X181722496Y-153901704D01*
X181747000Y-153900500D01*
X182997000Y-153900500D01*
X183021504Y-153901704D01*
G37*
G36*
X183021504Y-150926704D02*
G01*
X183045773Y-150930304D01*
X183069571Y-150936265D01*
X183092671Y-150944530D01*
X183114849Y-150955020D01*
X183135893Y-150967633D01*
X183155598Y-150982247D01*
X183173777Y-150998723D01*
X183190253Y-151016902D01*
X183204867Y-151036607D01*
X183217480Y-151057651D01*
X183227970Y-151079829D01*
X183236235Y-151102929D01*
X183242196Y-151126727D01*
X183245796Y-151150996D01*
X183247000Y-151175500D01*
X183247000Y-152100500D01*
X183245796Y-152125004D01*
X183242196Y-152149273D01*
X183236235Y-152173071D01*
X183227970Y-152196171D01*
X183217480Y-152218349D01*
X183204867Y-152239393D01*
X183190253Y-152259098D01*
X183173777Y-152277277D01*
X183155598Y-152293753D01*
X183135893Y-152308367D01*
X183114849Y-152320980D01*
X183092671Y-152331470D01*
X183069571Y-152339735D01*
X183045773Y-152345696D01*
X183021504Y-152349296D01*
X182997000Y-152350500D01*
X181747000Y-152350500D01*
X181722496Y-152349296D01*
X181698227Y-152345696D01*
X181674429Y-152339735D01*
X181651329Y-152331470D01*
X181629151Y-152320980D01*
X181608107Y-152308367D01*
X181588402Y-152293753D01*
X181570223Y-152277277D01*
X181553747Y-152259098D01*
X181539133Y-152239393D01*
X181526520Y-152218349D01*
X181516030Y-152196171D01*
X181507765Y-152173071D01*
X181501804Y-152149273D01*
X181498204Y-152125004D01*
X181497000Y-152100500D01*
X181497000Y-151175500D01*
X181498204Y-151150996D01*
X181501804Y-151126727D01*
X181507765Y-151102929D01*
X181516030Y-151079829D01*
X181526520Y-151057651D01*
X181539133Y-151036607D01*
X181553747Y-151016902D01*
X181570223Y-150998723D01*
X181588402Y-150982247D01*
X181608107Y-150967633D01*
X181629151Y-150955020D01*
X181651329Y-150944530D01*
X181674429Y-150936265D01*
X181698227Y-150930304D01*
X181722496Y-150926704D01*
X181747000Y-150925500D01*
X182997000Y-150925500D01*
X183021504Y-150926704D01*
G37*
G36*
X188101504Y-150926704D02*
G01*
X188125773Y-150930304D01*
X188149571Y-150936265D01*
X188172671Y-150944530D01*
X188194849Y-150955020D01*
X188215893Y-150967633D01*
X188235598Y-150982247D01*
X188253777Y-150998723D01*
X188270253Y-151016902D01*
X188284867Y-151036607D01*
X188297480Y-151057651D01*
X188307970Y-151079829D01*
X188316235Y-151102929D01*
X188322196Y-151126727D01*
X188325796Y-151150996D01*
X188327000Y-151175500D01*
X188327000Y-152100500D01*
X188325796Y-152125004D01*
X188322196Y-152149273D01*
X188316235Y-152173071D01*
X188307970Y-152196171D01*
X188297480Y-152218349D01*
X188284867Y-152239393D01*
X188270253Y-152259098D01*
X188253777Y-152277277D01*
X188235598Y-152293753D01*
X188215893Y-152308367D01*
X188194849Y-152320980D01*
X188172671Y-152331470D01*
X188149571Y-152339735D01*
X188125773Y-152345696D01*
X188101504Y-152349296D01*
X188077000Y-152350500D01*
X186827000Y-152350500D01*
X186802496Y-152349296D01*
X186778227Y-152345696D01*
X186754429Y-152339735D01*
X186731329Y-152331470D01*
X186709151Y-152320980D01*
X186688107Y-152308367D01*
X186668402Y-152293753D01*
X186650223Y-152277277D01*
X186633747Y-152259098D01*
X186619133Y-152239393D01*
X186606520Y-152218349D01*
X186596030Y-152196171D01*
X186587765Y-152173071D01*
X186581804Y-152149273D01*
X186578204Y-152125004D01*
X186577000Y-152100500D01*
X186577000Y-151175500D01*
X186578204Y-151150996D01*
X186581804Y-151126727D01*
X186587765Y-151102929D01*
X186596030Y-151079829D01*
X186606520Y-151057651D01*
X186619133Y-151036607D01*
X186633747Y-151016902D01*
X186650223Y-150998723D01*
X186668402Y-150982247D01*
X186688107Y-150967633D01*
X186709151Y-150955020D01*
X186731329Y-150944530D01*
X186754429Y-150936265D01*
X186778227Y-150930304D01*
X186802496Y-150926704D01*
X186827000Y-150925500D01*
X188077000Y-150925500D01*
X188101504Y-150926704D01*
G37*
G36*
X188101504Y-153901704D02*
G01*
X188125773Y-153905304D01*
X188149571Y-153911265D01*
X188172671Y-153919530D01*
X188194849Y-153930020D01*
X188215893Y-153942633D01*
X188235598Y-153957247D01*
X188253777Y-153973723D01*
X188270253Y-153991902D01*
X188284867Y-154011607D01*
X188297480Y-154032651D01*
X188307970Y-154054829D01*
X188316235Y-154077929D01*
X188322196Y-154101727D01*
X188325796Y-154125996D01*
X188327000Y-154150500D01*
X188327000Y-155075500D01*
X188325796Y-155100004D01*
X188322196Y-155124273D01*
X188316235Y-155148071D01*
X188307970Y-155171171D01*
X188297480Y-155193349D01*
X188284867Y-155214393D01*
X188270253Y-155234098D01*
X188253777Y-155252277D01*
X188235598Y-155268753D01*
X188215893Y-155283367D01*
X188194849Y-155295980D01*
X188172671Y-155306470D01*
X188149571Y-155314735D01*
X188125773Y-155320696D01*
X188101504Y-155324296D01*
X188077000Y-155325500D01*
X186827000Y-155325500D01*
X186802496Y-155324296D01*
X186778227Y-155320696D01*
X186754429Y-155314735D01*
X186731329Y-155306470D01*
X186709151Y-155295980D01*
X186688107Y-155283367D01*
X186668402Y-155268753D01*
X186650223Y-155252277D01*
X186633747Y-155234098D01*
X186619133Y-155214393D01*
X186606520Y-155193349D01*
X186596030Y-155171171D01*
X186587765Y-155148071D01*
X186581804Y-155124273D01*
X186578204Y-155100004D01*
X186577000Y-155075500D01*
X186577000Y-154150500D01*
X186578204Y-154125996D01*
X186581804Y-154101727D01*
X186587765Y-154077929D01*
X186596030Y-154054829D01*
X186606520Y-154032651D01*
X186619133Y-154011607D01*
X186633747Y-153991902D01*
X186650223Y-153973723D01*
X186668402Y-153957247D01*
X186688107Y-153942633D01*
X186709151Y-153930020D01*
X186731329Y-153919530D01*
X186754429Y-153911265D01*
X186778227Y-153905304D01*
X186802496Y-153901704D01*
X186827000Y-153900500D01*
X188077000Y-153900500D01*
X188101504Y-153901704D01*
G37*
D14*
X215138000Y-141242000D03*
X215138000Y-137142000D03*
D12*
G36*
X192382066Y-117514030D02*
G01*
X192402830Y-117517110D01*
X192423192Y-117522210D01*
X192442956Y-117529282D01*
X192461932Y-117538257D01*
X192479936Y-117549049D01*
X192496797Y-117561553D01*
X192512350Y-117575650D01*
X192526447Y-117591203D01*
X192538951Y-117608064D01*
X192549743Y-117626068D01*
X192558718Y-117645044D01*
X192565790Y-117664808D01*
X192570890Y-117685170D01*
X192573970Y-117705934D01*
X192575000Y-117726900D01*
X192575000Y-118229100D01*
X192573970Y-118250066D01*
X192570890Y-118270830D01*
X192565790Y-118291192D01*
X192558718Y-118310956D01*
X192549743Y-118329932D01*
X192538951Y-118347936D01*
X192526447Y-118364797D01*
X192512350Y-118380350D01*
X192496797Y-118394447D01*
X192479936Y-118406951D01*
X192461932Y-118417743D01*
X192442956Y-118426718D01*
X192423192Y-118433790D01*
X192402830Y-118438890D01*
X192382066Y-118441970D01*
X192361100Y-118443000D01*
X191338900Y-118443000D01*
X191317934Y-118441970D01*
X191297170Y-118438890D01*
X191276808Y-118433790D01*
X191257044Y-118426718D01*
X191238068Y-118417743D01*
X191220064Y-118406951D01*
X191203203Y-118394447D01*
X191187650Y-118380350D01*
X191173553Y-118364797D01*
X191161049Y-118347936D01*
X191150257Y-118329932D01*
X191141282Y-118310956D01*
X191134210Y-118291192D01*
X191129110Y-118270830D01*
X191126030Y-118250066D01*
X191125000Y-118229100D01*
X191125000Y-117726900D01*
X191126030Y-117705934D01*
X191129110Y-117685170D01*
X191134210Y-117664808D01*
X191141282Y-117645044D01*
X191150257Y-117626068D01*
X191161049Y-117608064D01*
X191173553Y-117591203D01*
X191187650Y-117575650D01*
X191203203Y-117561553D01*
X191220064Y-117549049D01*
X191238068Y-117538257D01*
X191257044Y-117529282D01*
X191276808Y-117522210D01*
X191297170Y-117517110D01*
X191317934Y-117514030D01*
X191338900Y-117513000D01*
X192361100Y-117513000D01*
X192382066Y-117514030D01*
G37*
G36*
X192382066Y-118784030D02*
G01*
X192402830Y-118787110D01*
X192423192Y-118792210D01*
X192442956Y-118799282D01*
X192461932Y-118808257D01*
X192479936Y-118819049D01*
X192496797Y-118831553D01*
X192512350Y-118845650D01*
X192526447Y-118861203D01*
X192538951Y-118878064D01*
X192549743Y-118896068D01*
X192558718Y-118915044D01*
X192565790Y-118934808D01*
X192570890Y-118955170D01*
X192573970Y-118975934D01*
X192575000Y-118996900D01*
X192575000Y-119499100D01*
X192573970Y-119520066D01*
X192570890Y-119540830D01*
X192565790Y-119561192D01*
X192558718Y-119580956D01*
X192549743Y-119599932D01*
X192538951Y-119617936D01*
X192526447Y-119634797D01*
X192512350Y-119650350D01*
X192496797Y-119664447D01*
X192479936Y-119676951D01*
X192461932Y-119687743D01*
X192442956Y-119696718D01*
X192423192Y-119703790D01*
X192402830Y-119708890D01*
X192382066Y-119711970D01*
X192361100Y-119713000D01*
X191338900Y-119713000D01*
X191317934Y-119711970D01*
X191297170Y-119708890D01*
X191276808Y-119703790D01*
X191257044Y-119696718D01*
X191238068Y-119687743D01*
X191220064Y-119676951D01*
X191203203Y-119664447D01*
X191187650Y-119650350D01*
X191173553Y-119634797D01*
X191161049Y-119617936D01*
X191150257Y-119599932D01*
X191141282Y-119580956D01*
X191134210Y-119561192D01*
X191129110Y-119540830D01*
X191126030Y-119520066D01*
X191125000Y-119499100D01*
X191125000Y-118996900D01*
X191126030Y-118975934D01*
X191129110Y-118955170D01*
X191134210Y-118934808D01*
X191141282Y-118915044D01*
X191150257Y-118896068D01*
X191161049Y-118878064D01*
X191173553Y-118861203D01*
X191187650Y-118845650D01*
X191203203Y-118831553D01*
X191220064Y-118819049D01*
X191238068Y-118808257D01*
X191257044Y-118799282D01*
X191276808Y-118792210D01*
X191297170Y-118787110D01*
X191317934Y-118784030D01*
X191338900Y-118783000D01*
X192361100Y-118783000D01*
X192382066Y-118784030D01*
G37*
G36*
X192382066Y-120054030D02*
G01*
X192402830Y-120057110D01*
X192423192Y-120062210D01*
X192442956Y-120069282D01*
X192461932Y-120078257D01*
X192479936Y-120089049D01*
X192496797Y-120101553D01*
X192512350Y-120115650D01*
X192526447Y-120131203D01*
X192538951Y-120148064D01*
X192549743Y-120166068D01*
X192558718Y-120185044D01*
X192565790Y-120204808D01*
X192570890Y-120225170D01*
X192573970Y-120245934D01*
X192575000Y-120266900D01*
X192575000Y-120769100D01*
X192573970Y-120790066D01*
X192570890Y-120810830D01*
X192565790Y-120831192D01*
X192558718Y-120850956D01*
X192549743Y-120869932D01*
X192538951Y-120887936D01*
X192526447Y-120904797D01*
X192512350Y-120920350D01*
X192496797Y-120934447D01*
X192479936Y-120946951D01*
X192461932Y-120957743D01*
X192442956Y-120966718D01*
X192423192Y-120973790D01*
X192402830Y-120978890D01*
X192382066Y-120981970D01*
X192361100Y-120983000D01*
X191338900Y-120983000D01*
X191317934Y-120981970D01*
X191297170Y-120978890D01*
X191276808Y-120973790D01*
X191257044Y-120966718D01*
X191238068Y-120957743D01*
X191220064Y-120946951D01*
X191203203Y-120934447D01*
X191187650Y-120920350D01*
X191173553Y-120904797D01*
X191161049Y-120887936D01*
X191150257Y-120869932D01*
X191141282Y-120850956D01*
X191134210Y-120831192D01*
X191129110Y-120810830D01*
X191126030Y-120790066D01*
X191125000Y-120769100D01*
X191125000Y-120266900D01*
X191126030Y-120245934D01*
X191129110Y-120225170D01*
X191134210Y-120204808D01*
X191141282Y-120185044D01*
X191150257Y-120166068D01*
X191161049Y-120148064D01*
X191173553Y-120131203D01*
X191187650Y-120115650D01*
X191203203Y-120101553D01*
X191220064Y-120089049D01*
X191238068Y-120078257D01*
X191257044Y-120069282D01*
X191276808Y-120062210D01*
X191297170Y-120057110D01*
X191317934Y-120054030D01*
X191338900Y-120053000D01*
X192361100Y-120053000D01*
X192382066Y-120054030D01*
G37*
G36*
X192382066Y-121324030D02*
G01*
X192402830Y-121327110D01*
X192423192Y-121332210D01*
X192442956Y-121339282D01*
X192461932Y-121348257D01*
X192479936Y-121359049D01*
X192496797Y-121371553D01*
X192512350Y-121385650D01*
X192526447Y-121401203D01*
X192538951Y-121418064D01*
X192549743Y-121436068D01*
X192558718Y-121455044D01*
X192565790Y-121474808D01*
X192570890Y-121495170D01*
X192573970Y-121515934D01*
X192575000Y-121536900D01*
X192575000Y-122039100D01*
X192573970Y-122060066D01*
X192570890Y-122080830D01*
X192565790Y-122101192D01*
X192558718Y-122120956D01*
X192549743Y-122139932D01*
X192538951Y-122157936D01*
X192526447Y-122174797D01*
X192512350Y-122190350D01*
X192496797Y-122204447D01*
X192479936Y-122216951D01*
X192461932Y-122227743D01*
X192442956Y-122236718D01*
X192423192Y-122243790D01*
X192402830Y-122248890D01*
X192382066Y-122251970D01*
X192361100Y-122253000D01*
X191338900Y-122253000D01*
X191317934Y-122251970D01*
X191297170Y-122248890D01*
X191276808Y-122243790D01*
X191257044Y-122236718D01*
X191238068Y-122227743D01*
X191220064Y-122216951D01*
X191203203Y-122204447D01*
X191187650Y-122190350D01*
X191173553Y-122174797D01*
X191161049Y-122157936D01*
X191150257Y-122139932D01*
X191141282Y-122120956D01*
X191134210Y-122101192D01*
X191129110Y-122080830D01*
X191126030Y-122060066D01*
X191125000Y-122039100D01*
X191125000Y-121536900D01*
X191126030Y-121515934D01*
X191129110Y-121495170D01*
X191134210Y-121474808D01*
X191141282Y-121455044D01*
X191150257Y-121436068D01*
X191161049Y-121418064D01*
X191173553Y-121401203D01*
X191187650Y-121385650D01*
X191203203Y-121371553D01*
X191220064Y-121359049D01*
X191238068Y-121348257D01*
X191257044Y-121339282D01*
X191276808Y-121332210D01*
X191297170Y-121327110D01*
X191317934Y-121324030D01*
X191338900Y-121323000D01*
X192361100Y-121323000D01*
X192382066Y-121324030D01*
G37*
G36*
X192382066Y-122594030D02*
G01*
X192402830Y-122597110D01*
X192423192Y-122602210D01*
X192442956Y-122609282D01*
X192461932Y-122618257D01*
X192479936Y-122629049D01*
X192496797Y-122641553D01*
X192512350Y-122655650D01*
X192526447Y-122671203D01*
X192538951Y-122688064D01*
X192549743Y-122706068D01*
X192558718Y-122725044D01*
X192565790Y-122744808D01*
X192570890Y-122765170D01*
X192573970Y-122785934D01*
X192575000Y-122806900D01*
X192575000Y-123309100D01*
X192573970Y-123330066D01*
X192570890Y-123350830D01*
X192565790Y-123371192D01*
X192558718Y-123390956D01*
X192549743Y-123409932D01*
X192538951Y-123427936D01*
X192526447Y-123444797D01*
X192512350Y-123460350D01*
X192496797Y-123474447D01*
X192479936Y-123486951D01*
X192461932Y-123497743D01*
X192442956Y-123506718D01*
X192423192Y-123513790D01*
X192402830Y-123518890D01*
X192382066Y-123521970D01*
X192361100Y-123523000D01*
X191338900Y-123523000D01*
X191317934Y-123521970D01*
X191297170Y-123518890D01*
X191276808Y-123513790D01*
X191257044Y-123506718D01*
X191238068Y-123497743D01*
X191220064Y-123486951D01*
X191203203Y-123474447D01*
X191187650Y-123460350D01*
X191173553Y-123444797D01*
X191161049Y-123427936D01*
X191150257Y-123409932D01*
X191141282Y-123390956D01*
X191134210Y-123371192D01*
X191129110Y-123350830D01*
X191126030Y-123330066D01*
X191125000Y-123309100D01*
X191125000Y-122806900D01*
X191126030Y-122785934D01*
X191129110Y-122765170D01*
X191134210Y-122744808D01*
X191141282Y-122725044D01*
X191150257Y-122706068D01*
X191161049Y-122688064D01*
X191173553Y-122671203D01*
X191187650Y-122655650D01*
X191203203Y-122641553D01*
X191220064Y-122629049D01*
X191238068Y-122618257D01*
X191257044Y-122609282D01*
X191276808Y-122602210D01*
X191297170Y-122597110D01*
X191317934Y-122594030D01*
X191338900Y-122593000D01*
X192361100Y-122593000D01*
X192382066Y-122594030D01*
G37*
G36*
X192382066Y-123864030D02*
G01*
X192402830Y-123867110D01*
X192423192Y-123872210D01*
X192442956Y-123879282D01*
X192461932Y-123888257D01*
X192479936Y-123899049D01*
X192496797Y-123911553D01*
X192512350Y-123925650D01*
X192526447Y-123941203D01*
X192538951Y-123958064D01*
X192549743Y-123976068D01*
X192558718Y-123995044D01*
X192565790Y-124014808D01*
X192570890Y-124035170D01*
X192573970Y-124055934D01*
X192575000Y-124076900D01*
X192575000Y-124579100D01*
X192573970Y-124600066D01*
X192570890Y-124620830D01*
X192565790Y-124641192D01*
X192558718Y-124660956D01*
X192549743Y-124679932D01*
X192538951Y-124697936D01*
X192526447Y-124714797D01*
X192512350Y-124730350D01*
X192496797Y-124744447D01*
X192479936Y-124756951D01*
X192461932Y-124767743D01*
X192442956Y-124776718D01*
X192423192Y-124783790D01*
X192402830Y-124788890D01*
X192382066Y-124791970D01*
X192361100Y-124793000D01*
X191338900Y-124793000D01*
X191317934Y-124791970D01*
X191297170Y-124788890D01*
X191276808Y-124783790D01*
X191257044Y-124776718D01*
X191238068Y-124767743D01*
X191220064Y-124756951D01*
X191203203Y-124744447D01*
X191187650Y-124730350D01*
X191173553Y-124714797D01*
X191161049Y-124697936D01*
X191150257Y-124679932D01*
X191141282Y-124660956D01*
X191134210Y-124641192D01*
X191129110Y-124620830D01*
X191126030Y-124600066D01*
X191125000Y-124579100D01*
X191125000Y-124076900D01*
X191126030Y-124055934D01*
X191129110Y-124035170D01*
X191134210Y-124014808D01*
X191141282Y-123995044D01*
X191150257Y-123976068D01*
X191161049Y-123958064D01*
X191173553Y-123941203D01*
X191187650Y-123925650D01*
X191203203Y-123911553D01*
X191220064Y-123899049D01*
X191238068Y-123888257D01*
X191257044Y-123879282D01*
X191276808Y-123872210D01*
X191297170Y-123867110D01*
X191317934Y-123864030D01*
X191338900Y-123863000D01*
X192361100Y-123863000D01*
X192382066Y-123864030D01*
G37*
G36*
X192382066Y-125134030D02*
G01*
X192402830Y-125137110D01*
X192423192Y-125142210D01*
X192442956Y-125149282D01*
X192461932Y-125158257D01*
X192479936Y-125169049D01*
X192496797Y-125181553D01*
X192512350Y-125195650D01*
X192526447Y-125211203D01*
X192538951Y-125228064D01*
X192549743Y-125246068D01*
X192558718Y-125265044D01*
X192565790Y-125284808D01*
X192570890Y-125305170D01*
X192573970Y-125325934D01*
X192575000Y-125346900D01*
X192575000Y-125849100D01*
X192573970Y-125870066D01*
X192570890Y-125890830D01*
X192565790Y-125911192D01*
X192558718Y-125930956D01*
X192549743Y-125949932D01*
X192538951Y-125967936D01*
X192526447Y-125984797D01*
X192512350Y-126000350D01*
X192496797Y-126014447D01*
X192479936Y-126026951D01*
X192461932Y-126037743D01*
X192442956Y-126046718D01*
X192423192Y-126053790D01*
X192402830Y-126058890D01*
X192382066Y-126061970D01*
X192361100Y-126063000D01*
X191338900Y-126063000D01*
X191317934Y-126061970D01*
X191297170Y-126058890D01*
X191276808Y-126053790D01*
X191257044Y-126046718D01*
X191238068Y-126037743D01*
X191220064Y-126026951D01*
X191203203Y-126014447D01*
X191187650Y-126000350D01*
X191173553Y-125984797D01*
X191161049Y-125967936D01*
X191150257Y-125949932D01*
X191141282Y-125930956D01*
X191134210Y-125911192D01*
X191129110Y-125890830D01*
X191126030Y-125870066D01*
X191125000Y-125849100D01*
X191125000Y-125346900D01*
X191126030Y-125325934D01*
X191129110Y-125305170D01*
X191134210Y-125284808D01*
X191141282Y-125265044D01*
X191150257Y-125246068D01*
X191161049Y-125228064D01*
X191173553Y-125211203D01*
X191187650Y-125195650D01*
X191203203Y-125181553D01*
X191220064Y-125169049D01*
X191238068Y-125158257D01*
X191257044Y-125149282D01*
X191276808Y-125142210D01*
X191297170Y-125137110D01*
X191317934Y-125134030D01*
X191338900Y-125133000D01*
X192361100Y-125133000D01*
X192382066Y-125134030D01*
G37*
G36*
X192382066Y-126404030D02*
G01*
X192402830Y-126407110D01*
X192423192Y-126412210D01*
X192442956Y-126419282D01*
X192461932Y-126428257D01*
X192479936Y-126439049D01*
X192496797Y-126451553D01*
X192512350Y-126465650D01*
X192526447Y-126481203D01*
X192538951Y-126498064D01*
X192549743Y-126516068D01*
X192558718Y-126535044D01*
X192565790Y-126554808D01*
X192570890Y-126575170D01*
X192573970Y-126595934D01*
X192575000Y-126616900D01*
X192575000Y-127119100D01*
X192573970Y-127140066D01*
X192570890Y-127160830D01*
X192565790Y-127181192D01*
X192558718Y-127200956D01*
X192549743Y-127219932D01*
X192538951Y-127237936D01*
X192526447Y-127254797D01*
X192512350Y-127270350D01*
X192496797Y-127284447D01*
X192479936Y-127296951D01*
X192461932Y-127307743D01*
X192442956Y-127316718D01*
X192423192Y-127323790D01*
X192402830Y-127328890D01*
X192382066Y-127331970D01*
X192361100Y-127333000D01*
X191338900Y-127333000D01*
X191317934Y-127331970D01*
X191297170Y-127328890D01*
X191276808Y-127323790D01*
X191257044Y-127316718D01*
X191238068Y-127307743D01*
X191220064Y-127296951D01*
X191203203Y-127284447D01*
X191187650Y-127270350D01*
X191173553Y-127254797D01*
X191161049Y-127237936D01*
X191150257Y-127219932D01*
X191141282Y-127200956D01*
X191134210Y-127181192D01*
X191129110Y-127160830D01*
X191126030Y-127140066D01*
X191125000Y-127119100D01*
X191125000Y-126616900D01*
X191126030Y-126595934D01*
X191129110Y-126575170D01*
X191134210Y-126554808D01*
X191141282Y-126535044D01*
X191150257Y-126516068D01*
X191161049Y-126498064D01*
X191173553Y-126481203D01*
X191187650Y-126465650D01*
X191203203Y-126451553D01*
X191220064Y-126439049D01*
X191238068Y-126428257D01*
X191257044Y-126419282D01*
X191276808Y-126412210D01*
X191297170Y-126407110D01*
X191317934Y-126404030D01*
X191338900Y-126403000D01*
X192361100Y-126403000D01*
X192382066Y-126404030D01*
G37*
G36*
X192382066Y-127674030D02*
G01*
X192402830Y-127677110D01*
X192423192Y-127682210D01*
X192442956Y-127689282D01*
X192461932Y-127698257D01*
X192479936Y-127709049D01*
X192496797Y-127721553D01*
X192512350Y-127735650D01*
X192526447Y-127751203D01*
X192538951Y-127768064D01*
X192549743Y-127786068D01*
X192558718Y-127805044D01*
X192565790Y-127824808D01*
X192570890Y-127845170D01*
X192573970Y-127865934D01*
X192575000Y-127886900D01*
X192575000Y-128389100D01*
X192573970Y-128410066D01*
X192570890Y-128430830D01*
X192565790Y-128451192D01*
X192558718Y-128470956D01*
X192549743Y-128489932D01*
X192538951Y-128507936D01*
X192526447Y-128524797D01*
X192512350Y-128540350D01*
X192496797Y-128554447D01*
X192479936Y-128566951D01*
X192461932Y-128577743D01*
X192442956Y-128586718D01*
X192423192Y-128593790D01*
X192402830Y-128598890D01*
X192382066Y-128601970D01*
X192361100Y-128603000D01*
X191338900Y-128603000D01*
X191317934Y-128601970D01*
X191297170Y-128598890D01*
X191276808Y-128593790D01*
X191257044Y-128586718D01*
X191238068Y-128577743D01*
X191220064Y-128566951D01*
X191203203Y-128554447D01*
X191187650Y-128540350D01*
X191173553Y-128524797D01*
X191161049Y-128507936D01*
X191150257Y-128489932D01*
X191141282Y-128470956D01*
X191134210Y-128451192D01*
X191129110Y-128430830D01*
X191126030Y-128410066D01*
X191125000Y-128389100D01*
X191125000Y-127886900D01*
X191126030Y-127865934D01*
X191129110Y-127845170D01*
X191134210Y-127824808D01*
X191141282Y-127805044D01*
X191150257Y-127786068D01*
X191161049Y-127768064D01*
X191173553Y-127751203D01*
X191187650Y-127735650D01*
X191203203Y-127721553D01*
X191220064Y-127709049D01*
X191238068Y-127698257D01*
X191257044Y-127689282D01*
X191276808Y-127682210D01*
X191297170Y-127677110D01*
X191317934Y-127674030D01*
X191338900Y-127673000D01*
X192361100Y-127673000D01*
X192382066Y-127674030D01*
G37*
G36*
X192382066Y-128944030D02*
G01*
X192402830Y-128947110D01*
X192423192Y-128952210D01*
X192442956Y-128959282D01*
X192461932Y-128968257D01*
X192479936Y-128979049D01*
X192496797Y-128991553D01*
X192512350Y-129005650D01*
X192526447Y-129021203D01*
X192538951Y-129038064D01*
X192549743Y-129056068D01*
X192558718Y-129075044D01*
X192565790Y-129094808D01*
X192570890Y-129115170D01*
X192573970Y-129135934D01*
X192575000Y-129156900D01*
X192575000Y-129659100D01*
X192573970Y-129680066D01*
X192570890Y-129700830D01*
X192565790Y-129721192D01*
X192558718Y-129740956D01*
X192549743Y-129759932D01*
X192538951Y-129777936D01*
X192526447Y-129794797D01*
X192512350Y-129810350D01*
X192496797Y-129824447D01*
X192479936Y-129836951D01*
X192461932Y-129847743D01*
X192442956Y-129856718D01*
X192423192Y-129863790D01*
X192402830Y-129868890D01*
X192382066Y-129871970D01*
X192361100Y-129873000D01*
X191338900Y-129873000D01*
X191317934Y-129871970D01*
X191297170Y-129868890D01*
X191276808Y-129863790D01*
X191257044Y-129856718D01*
X191238068Y-129847743D01*
X191220064Y-129836951D01*
X191203203Y-129824447D01*
X191187650Y-129810350D01*
X191173553Y-129794797D01*
X191161049Y-129777936D01*
X191150257Y-129759932D01*
X191141282Y-129740956D01*
X191134210Y-129721192D01*
X191129110Y-129700830D01*
X191126030Y-129680066D01*
X191125000Y-129659100D01*
X191125000Y-129156900D01*
X191126030Y-129135934D01*
X191129110Y-129115170D01*
X191134210Y-129094808D01*
X191141282Y-129075044D01*
X191150257Y-129056068D01*
X191161049Y-129038064D01*
X191173553Y-129021203D01*
X191187650Y-129005650D01*
X191203203Y-128991553D01*
X191220064Y-128979049D01*
X191238068Y-128968257D01*
X191257044Y-128959282D01*
X191276808Y-128952210D01*
X191297170Y-128947110D01*
X191317934Y-128944030D01*
X191338900Y-128943000D01*
X192361100Y-128943000D01*
X192382066Y-128944030D01*
G37*
G36*
X192382066Y-130214030D02*
G01*
X192402830Y-130217110D01*
X192423192Y-130222210D01*
X192442956Y-130229282D01*
X192461932Y-130238257D01*
X192479936Y-130249049D01*
X192496797Y-130261553D01*
X192512350Y-130275650D01*
X192526447Y-130291203D01*
X192538951Y-130308064D01*
X192549743Y-130326068D01*
X192558718Y-130345044D01*
X192565790Y-130364808D01*
X192570890Y-130385170D01*
X192573970Y-130405934D01*
X192575000Y-130426900D01*
X192575000Y-130929100D01*
X192573970Y-130950066D01*
X192570890Y-130970830D01*
X192565790Y-130991192D01*
X192558718Y-131010956D01*
X192549743Y-131029932D01*
X192538951Y-131047936D01*
X192526447Y-131064797D01*
X192512350Y-131080350D01*
X192496797Y-131094447D01*
X192479936Y-131106951D01*
X192461932Y-131117743D01*
X192442956Y-131126718D01*
X192423192Y-131133790D01*
X192402830Y-131138890D01*
X192382066Y-131141970D01*
X192361100Y-131143000D01*
X191338900Y-131143000D01*
X191317934Y-131141970D01*
X191297170Y-131138890D01*
X191276808Y-131133790D01*
X191257044Y-131126718D01*
X191238068Y-131117743D01*
X191220064Y-131106951D01*
X191203203Y-131094447D01*
X191187650Y-131080350D01*
X191173553Y-131064797D01*
X191161049Y-131047936D01*
X191150257Y-131029932D01*
X191141282Y-131010956D01*
X191134210Y-130991192D01*
X191129110Y-130970830D01*
X191126030Y-130950066D01*
X191125000Y-130929100D01*
X191125000Y-130426900D01*
X191126030Y-130405934D01*
X191129110Y-130385170D01*
X191134210Y-130364808D01*
X191141282Y-130345044D01*
X191150257Y-130326068D01*
X191161049Y-130308064D01*
X191173553Y-130291203D01*
X191187650Y-130275650D01*
X191203203Y-130261553D01*
X191220064Y-130249049D01*
X191238068Y-130238257D01*
X191257044Y-130229282D01*
X191276808Y-130222210D01*
X191297170Y-130217110D01*
X191317934Y-130214030D01*
X191338900Y-130213000D01*
X192361100Y-130213000D01*
X192382066Y-130214030D01*
G37*
G36*
X192382066Y-131484030D02*
G01*
X192402830Y-131487110D01*
X192423192Y-131492210D01*
X192442956Y-131499282D01*
X192461932Y-131508257D01*
X192479936Y-131519049D01*
X192496797Y-131531553D01*
X192512350Y-131545650D01*
X192526447Y-131561203D01*
X192538951Y-131578064D01*
X192549743Y-131596068D01*
X192558718Y-131615044D01*
X192565790Y-131634808D01*
X192570890Y-131655170D01*
X192573970Y-131675934D01*
X192575000Y-131696900D01*
X192575000Y-132199100D01*
X192573970Y-132220066D01*
X192570890Y-132240830D01*
X192565790Y-132261192D01*
X192558718Y-132280956D01*
X192549743Y-132299932D01*
X192538951Y-132317936D01*
X192526447Y-132334797D01*
X192512350Y-132350350D01*
X192496797Y-132364447D01*
X192479936Y-132376951D01*
X192461932Y-132387743D01*
X192442956Y-132396718D01*
X192423192Y-132403790D01*
X192402830Y-132408890D01*
X192382066Y-132411970D01*
X192361100Y-132413000D01*
X191338900Y-132413000D01*
X191317934Y-132411970D01*
X191297170Y-132408890D01*
X191276808Y-132403790D01*
X191257044Y-132396718D01*
X191238068Y-132387743D01*
X191220064Y-132376951D01*
X191203203Y-132364447D01*
X191187650Y-132350350D01*
X191173553Y-132334797D01*
X191161049Y-132317936D01*
X191150257Y-132299932D01*
X191141282Y-132280956D01*
X191134210Y-132261192D01*
X191129110Y-132240830D01*
X191126030Y-132220066D01*
X191125000Y-132199100D01*
X191125000Y-131696900D01*
X191126030Y-131675934D01*
X191129110Y-131655170D01*
X191134210Y-131634808D01*
X191141282Y-131615044D01*
X191150257Y-131596068D01*
X191161049Y-131578064D01*
X191173553Y-131561203D01*
X191187650Y-131545650D01*
X191203203Y-131531553D01*
X191220064Y-131519049D01*
X191238068Y-131508257D01*
X191257044Y-131499282D01*
X191276808Y-131492210D01*
X191297170Y-131487110D01*
X191317934Y-131484030D01*
X191338900Y-131483000D01*
X192361100Y-131483000D01*
X192382066Y-131484030D01*
G37*
G36*
X192382066Y-132754030D02*
G01*
X192402830Y-132757110D01*
X192423192Y-132762210D01*
X192442956Y-132769282D01*
X192461932Y-132778257D01*
X192479936Y-132789049D01*
X192496797Y-132801553D01*
X192512350Y-132815650D01*
X192526447Y-132831203D01*
X192538951Y-132848064D01*
X192549743Y-132866068D01*
X192558718Y-132885044D01*
X192565790Y-132904808D01*
X192570890Y-132925170D01*
X192573970Y-132945934D01*
X192575000Y-132966900D01*
X192575000Y-133469100D01*
X192573970Y-133490066D01*
X192570890Y-133510830D01*
X192565790Y-133531192D01*
X192558718Y-133550956D01*
X192549743Y-133569932D01*
X192538951Y-133587936D01*
X192526447Y-133604797D01*
X192512350Y-133620350D01*
X192496797Y-133634447D01*
X192479936Y-133646951D01*
X192461932Y-133657743D01*
X192442956Y-133666718D01*
X192423192Y-133673790D01*
X192402830Y-133678890D01*
X192382066Y-133681970D01*
X192361100Y-133683000D01*
X191338900Y-133683000D01*
X191317934Y-133681970D01*
X191297170Y-133678890D01*
X191276808Y-133673790D01*
X191257044Y-133666718D01*
X191238068Y-133657743D01*
X191220064Y-133646951D01*
X191203203Y-133634447D01*
X191187650Y-133620350D01*
X191173553Y-133604797D01*
X191161049Y-133587936D01*
X191150257Y-133569932D01*
X191141282Y-133550956D01*
X191134210Y-133531192D01*
X191129110Y-133510830D01*
X191126030Y-133490066D01*
X191125000Y-133469100D01*
X191125000Y-132966900D01*
X191126030Y-132945934D01*
X191129110Y-132925170D01*
X191134210Y-132904808D01*
X191141282Y-132885044D01*
X191150257Y-132866068D01*
X191161049Y-132848064D01*
X191173553Y-132831203D01*
X191187650Y-132815650D01*
X191203203Y-132801553D01*
X191220064Y-132789049D01*
X191238068Y-132778257D01*
X191257044Y-132769282D01*
X191276808Y-132762210D01*
X191297170Y-132757110D01*
X191317934Y-132754030D01*
X191338900Y-132753000D01*
X192361100Y-132753000D01*
X192382066Y-132754030D01*
G37*
G36*
X192382066Y-134024030D02*
G01*
X192402830Y-134027110D01*
X192423192Y-134032210D01*
X192442956Y-134039282D01*
X192461932Y-134048257D01*
X192479936Y-134059049D01*
X192496797Y-134071553D01*
X192512350Y-134085650D01*
X192526447Y-134101203D01*
X192538951Y-134118064D01*
X192549743Y-134136068D01*
X192558718Y-134155044D01*
X192565790Y-134174808D01*
X192570890Y-134195170D01*
X192573970Y-134215934D01*
X192575000Y-134236900D01*
X192575000Y-134739100D01*
X192573970Y-134760066D01*
X192570890Y-134780830D01*
X192565790Y-134801192D01*
X192558718Y-134820956D01*
X192549743Y-134839932D01*
X192538951Y-134857936D01*
X192526447Y-134874797D01*
X192512350Y-134890350D01*
X192496797Y-134904447D01*
X192479936Y-134916951D01*
X192461932Y-134927743D01*
X192442956Y-134936718D01*
X192423192Y-134943790D01*
X192402830Y-134948890D01*
X192382066Y-134951970D01*
X192361100Y-134953000D01*
X191338900Y-134953000D01*
X191317934Y-134951970D01*
X191297170Y-134948890D01*
X191276808Y-134943790D01*
X191257044Y-134936718D01*
X191238068Y-134927743D01*
X191220064Y-134916951D01*
X191203203Y-134904447D01*
X191187650Y-134890350D01*
X191173553Y-134874797D01*
X191161049Y-134857936D01*
X191150257Y-134839932D01*
X191141282Y-134820956D01*
X191134210Y-134801192D01*
X191129110Y-134780830D01*
X191126030Y-134760066D01*
X191125000Y-134739100D01*
X191125000Y-134236900D01*
X191126030Y-134215934D01*
X191129110Y-134195170D01*
X191134210Y-134174808D01*
X191141282Y-134155044D01*
X191150257Y-134136068D01*
X191161049Y-134118064D01*
X191173553Y-134101203D01*
X191187650Y-134085650D01*
X191203203Y-134071553D01*
X191220064Y-134059049D01*
X191238068Y-134048257D01*
X191257044Y-134039282D01*
X191276808Y-134032210D01*
X191297170Y-134027110D01*
X191317934Y-134024030D01*
X191338900Y-134023000D01*
X192361100Y-134023000D01*
X192382066Y-134024030D01*
G37*
G36*
X192382066Y-135294030D02*
G01*
X192402830Y-135297110D01*
X192423192Y-135302210D01*
X192442956Y-135309282D01*
X192461932Y-135318257D01*
X192479936Y-135329049D01*
X192496797Y-135341553D01*
X192512350Y-135355650D01*
X192526447Y-135371203D01*
X192538951Y-135388064D01*
X192549743Y-135406068D01*
X192558718Y-135425044D01*
X192565790Y-135444808D01*
X192570890Y-135465170D01*
X192573970Y-135485934D01*
X192575000Y-135506900D01*
X192575000Y-136009100D01*
X192573970Y-136030066D01*
X192570890Y-136050830D01*
X192565790Y-136071192D01*
X192558718Y-136090956D01*
X192549743Y-136109932D01*
X192538951Y-136127936D01*
X192526447Y-136144797D01*
X192512350Y-136160350D01*
X192496797Y-136174447D01*
X192479936Y-136186951D01*
X192461932Y-136197743D01*
X192442956Y-136206718D01*
X192423192Y-136213790D01*
X192402830Y-136218890D01*
X192382066Y-136221970D01*
X192361100Y-136223000D01*
X191338900Y-136223000D01*
X191317934Y-136221970D01*
X191297170Y-136218890D01*
X191276808Y-136213790D01*
X191257044Y-136206718D01*
X191238068Y-136197743D01*
X191220064Y-136186951D01*
X191203203Y-136174447D01*
X191187650Y-136160350D01*
X191173553Y-136144797D01*
X191161049Y-136127936D01*
X191150257Y-136109932D01*
X191141282Y-136090956D01*
X191134210Y-136071192D01*
X191129110Y-136050830D01*
X191126030Y-136030066D01*
X191125000Y-136009100D01*
X191125000Y-135506900D01*
X191126030Y-135485934D01*
X191129110Y-135465170D01*
X191134210Y-135444808D01*
X191141282Y-135425044D01*
X191150257Y-135406068D01*
X191161049Y-135388064D01*
X191173553Y-135371203D01*
X191187650Y-135355650D01*
X191203203Y-135341553D01*
X191220064Y-135329049D01*
X191238068Y-135318257D01*
X191257044Y-135309282D01*
X191276808Y-135302210D01*
X191297170Y-135297110D01*
X191317934Y-135294030D01*
X191338900Y-135293000D01*
X192361100Y-135293000D01*
X192382066Y-135294030D01*
G37*
G36*
X192382066Y-136564030D02*
G01*
X192402830Y-136567110D01*
X192423192Y-136572210D01*
X192442956Y-136579282D01*
X192461932Y-136588257D01*
X192479936Y-136599049D01*
X192496797Y-136611553D01*
X192512350Y-136625650D01*
X192526447Y-136641203D01*
X192538951Y-136658064D01*
X192549743Y-136676068D01*
X192558718Y-136695044D01*
X192565790Y-136714808D01*
X192570890Y-136735170D01*
X192573970Y-136755934D01*
X192575000Y-136776900D01*
X192575000Y-137279100D01*
X192573970Y-137300066D01*
X192570890Y-137320830D01*
X192565790Y-137341192D01*
X192558718Y-137360956D01*
X192549743Y-137379932D01*
X192538951Y-137397936D01*
X192526447Y-137414797D01*
X192512350Y-137430350D01*
X192496797Y-137444447D01*
X192479936Y-137456951D01*
X192461932Y-137467743D01*
X192442956Y-137476718D01*
X192423192Y-137483790D01*
X192402830Y-137488890D01*
X192382066Y-137491970D01*
X192361100Y-137493000D01*
X191338900Y-137493000D01*
X191317934Y-137491970D01*
X191297170Y-137488890D01*
X191276808Y-137483790D01*
X191257044Y-137476718D01*
X191238068Y-137467743D01*
X191220064Y-137456951D01*
X191203203Y-137444447D01*
X191187650Y-137430350D01*
X191173553Y-137414797D01*
X191161049Y-137397936D01*
X191150257Y-137379932D01*
X191141282Y-137360956D01*
X191134210Y-137341192D01*
X191129110Y-137320830D01*
X191126030Y-137300066D01*
X191125000Y-137279100D01*
X191125000Y-136776900D01*
X191126030Y-136755934D01*
X191129110Y-136735170D01*
X191134210Y-136714808D01*
X191141282Y-136695044D01*
X191150257Y-136676068D01*
X191161049Y-136658064D01*
X191173553Y-136641203D01*
X191187650Y-136625650D01*
X191203203Y-136611553D01*
X191220064Y-136599049D01*
X191238068Y-136588257D01*
X191257044Y-136579282D01*
X191276808Y-136572210D01*
X191297170Y-136567110D01*
X191317934Y-136564030D01*
X191338900Y-136563000D01*
X192361100Y-136563000D01*
X192382066Y-136564030D01*
G37*
G36*
X192382066Y-137834030D02*
G01*
X192402830Y-137837110D01*
X192423192Y-137842210D01*
X192442956Y-137849282D01*
X192461932Y-137858257D01*
X192479936Y-137869049D01*
X192496797Y-137881553D01*
X192512350Y-137895650D01*
X192526447Y-137911203D01*
X192538951Y-137928064D01*
X192549743Y-137946068D01*
X192558718Y-137965044D01*
X192565790Y-137984808D01*
X192570890Y-138005170D01*
X192573970Y-138025934D01*
X192575000Y-138046900D01*
X192575000Y-138549100D01*
X192573970Y-138570066D01*
X192570890Y-138590830D01*
X192565790Y-138611192D01*
X192558718Y-138630956D01*
X192549743Y-138649932D01*
X192538951Y-138667936D01*
X192526447Y-138684797D01*
X192512350Y-138700350D01*
X192496797Y-138714447D01*
X192479936Y-138726951D01*
X192461932Y-138737743D01*
X192442956Y-138746718D01*
X192423192Y-138753790D01*
X192402830Y-138758890D01*
X192382066Y-138761970D01*
X192361100Y-138763000D01*
X191338900Y-138763000D01*
X191317934Y-138761970D01*
X191297170Y-138758890D01*
X191276808Y-138753790D01*
X191257044Y-138746718D01*
X191238068Y-138737743D01*
X191220064Y-138726951D01*
X191203203Y-138714447D01*
X191187650Y-138700350D01*
X191173553Y-138684797D01*
X191161049Y-138667936D01*
X191150257Y-138649932D01*
X191141282Y-138630956D01*
X191134210Y-138611192D01*
X191129110Y-138590830D01*
X191126030Y-138570066D01*
X191125000Y-138549100D01*
X191125000Y-138046900D01*
X191126030Y-138025934D01*
X191129110Y-138005170D01*
X191134210Y-137984808D01*
X191141282Y-137965044D01*
X191150257Y-137946068D01*
X191161049Y-137928064D01*
X191173553Y-137911203D01*
X191187650Y-137895650D01*
X191203203Y-137881553D01*
X191220064Y-137869049D01*
X191238068Y-137858257D01*
X191257044Y-137849282D01*
X191276808Y-137842210D01*
X191297170Y-137837110D01*
X191317934Y-137834030D01*
X191338900Y-137833000D01*
X192361100Y-137833000D01*
X192382066Y-137834030D01*
G37*
G36*
X192382066Y-139104030D02*
G01*
X192402830Y-139107110D01*
X192423192Y-139112210D01*
X192442956Y-139119282D01*
X192461932Y-139128257D01*
X192479936Y-139139049D01*
X192496797Y-139151553D01*
X192512350Y-139165650D01*
X192526447Y-139181203D01*
X192538951Y-139198064D01*
X192549743Y-139216068D01*
X192558718Y-139235044D01*
X192565790Y-139254808D01*
X192570890Y-139275170D01*
X192573970Y-139295934D01*
X192575000Y-139316900D01*
X192575000Y-139819100D01*
X192573970Y-139840066D01*
X192570890Y-139860830D01*
X192565790Y-139881192D01*
X192558718Y-139900956D01*
X192549743Y-139919932D01*
X192538951Y-139937936D01*
X192526447Y-139954797D01*
X192512350Y-139970350D01*
X192496797Y-139984447D01*
X192479936Y-139996951D01*
X192461932Y-140007743D01*
X192442956Y-140016718D01*
X192423192Y-140023790D01*
X192402830Y-140028890D01*
X192382066Y-140031970D01*
X192361100Y-140033000D01*
X191338900Y-140033000D01*
X191317934Y-140031970D01*
X191297170Y-140028890D01*
X191276808Y-140023790D01*
X191257044Y-140016718D01*
X191238068Y-140007743D01*
X191220064Y-139996951D01*
X191203203Y-139984447D01*
X191187650Y-139970350D01*
X191173553Y-139954797D01*
X191161049Y-139937936D01*
X191150257Y-139919932D01*
X191141282Y-139900956D01*
X191134210Y-139881192D01*
X191129110Y-139860830D01*
X191126030Y-139840066D01*
X191125000Y-139819100D01*
X191125000Y-139316900D01*
X191126030Y-139295934D01*
X191129110Y-139275170D01*
X191134210Y-139254808D01*
X191141282Y-139235044D01*
X191150257Y-139216068D01*
X191161049Y-139198064D01*
X191173553Y-139181203D01*
X191187650Y-139165650D01*
X191203203Y-139151553D01*
X191220064Y-139139049D01*
X191238068Y-139128257D01*
X191257044Y-139119282D01*
X191276808Y-139112210D01*
X191297170Y-139107110D01*
X191317934Y-139104030D01*
X191338900Y-139103000D01*
X192361100Y-139103000D01*
X192382066Y-139104030D01*
G37*
G36*
X192382066Y-140374030D02*
G01*
X192402830Y-140377110D01*
X192423192Y-140382210D01*
X192442956Y-140389282D01*
X192461932Y-140398257D01*
X192479936Y-140409049D01*
X192496797Y-140421553D01*
X192512350Y-140435650D01*
X192526447Y-140451203D01*
X192538951Y-140468064D01*
X192549743Y-140486068D01*
X192558718Y-140505044D01*
X192565790Y-140524808D01*
X192570890Y-140545170D01*
X192573970Y-140565934D01*
X192575000Y-140586900D01*
X192575000Y-141089100D01*
X192573970Y-141110066D01*
X192570890Y-141130830D01*
X192565790Y-141151192D01*
X192558718Y-141170956D01*
X192549743Y-141189932D01*
X192538951Y-141207936D01*
X192526447Y-141224797D01*
X192512350Y-141240350D01*
X192496797Y-141254447D01*
X192479936Y-141266951D01*
X192461932Y-141277743D01*
X192442956Y-141286718D01*
X192423192Y-141293790D01*
X192402830Y-141298890D01*
X192382066Y-141301970D01*
X192361100Y-141303000D01*
X191338900Y-141303000D01*
X191317934Y-141301970D01*
X191297170Y-141298890D01*
X191276808Y-141293790D01*
X191257044Y-141286718D01*
X191238068Y-141277743D01*
X191220064Y-141266951D01*
X191203203Y-141254447D01*
X191187650Y-141240350D01*
X191173553Y-141224797D01*
X191161049Y-141207936D01*
X191150257Y-141189932D01*
X191141282Y-141170956D01*
X191134210Y-141151192D01*
X191129110Y-141130830D01*
X191126030Y-141110066D01*
X191125000Y-141089100D01*
X191125000Y-140586900D01*
X191126030Y-140565934D01*
X191129110Y-140545170D01*
X191134210Y-140524808D01*
X191141282Y-140505044D01*
X191150257Y-140486068D01*
X191161049Y-140468064D01*
X191173553Y-140451203D01*
X191187650Y-140435650D01*
X191203203Y-140421553D01*
X191220064Y-140409049D01*
X191238068Y-140398257D01*
X191257044Y-140389282D01*
X191276808Y-140382210D01*
X191297170Y-140377110D01*
X191317934Y-140374030D01*
X191338900Y-140373000D01*
X192361100Y-140373000D01*
X192382066Y-140374030D01*
G37*
G36*
X210002066Y-140374030D02*
G01*
X210022830Y-140377110D01*
X210043192Y-140382210D01*
X210062956Y-140389282D01*
X210081932Y-140398257D01*
X210099936Y-140409049D01*
X210116797Y-140421553D01*
X210132350Y-140435650D01*
X210146447Y-140451203D01*
X210158951Y-140468064D01*
X210169743Y-140486068D01*
X210178718Y-140505044D01*
X210185790Y-140524808D01*
X210190890Y-140545170D01*
X210193970Y-140565934D01*
X210195000Y-140586900D01*
X210195000Y-141089100D01*
X210193970Y-141110066D01*
X210190890Y-141130830D01*
X210185790Y-141151192D01*
X210178718Y-141170956D01*
X210169743Y-141189932D01*
X210158951Y-141207936D01*
X210146447Y-141224797D01*
X210132350Y-141240350D01*
X210116797Y-141254447D01*
X210099936Y-141266951D01*
X210081932Y-141277743D01*
X210062956Y-141286718D01*
X210043192Y-141293790D01*
X210022830Y-141298890D01*
X210002066Y-141301970D01*
X209981100Y-141303000D01*
X208958900Y-141303000D01*
X208937934Y-141301970D01*
X208917170Y-141298890D01*
X208896808Y-141293790D01*
X208877044Y-141286718D01*
X208858068Y-141277743D01*
X208840064Y-141266951D01*
X208823203Y-141254447D01*
X208807650Y-141240350D01*
X208793553Y-141224797D01*
X208781049Y-141207936D01*
X208770257Y-141189932D01*
X208761282Y-141170956D01*
X208754210Y-141151192D01*
X208749110Y-141130830D01*
X208746030Y-141110066D01*
X208745000Y-141089100D01*
X208745000Y-140586900D01*
X208746030Y-140565934D01*
X208749110Y-140545170D01*
X208754210Y-140524808D01*
X208761282Y-140505044D01*
X208770257Y-140486068D01*
X208781049Y-140468064D01*
X208793553Y-140451203D01*
X208807650Y-140435650D01*
X208823203Y-140421553D01*
X208840064Y-140409049D01*
X208858068Y-140398257D01*
X208877044Y-140389282D01*
X208896808Y-140382210D01*
X208917170Y-140377110D01*
X208937934Y-140374030D01*
X208958900Y-140373000D01*
X209981100Y-140373000D01*
X210002066Y-140374030D01*
G37*
G36*
X210002066Y-139104030D02*
G01*
X210022830Y-139107110D01*
X210043192Y-139112210D01*
X210062956Y-139119282D01*
X210081932Y-139128257D01*
X210099936Y-139139049D01*
X210116797Y-139151553D01*
X210132350Y-139165650D01*
X210146447Y-139181203D01*
X210158951Y-139198064D01*
X210169743Y-139216068D01*
X210178718Y-139235044D01*
X210185790Y-139254808D01*
X210190890Y-139275170D01*
X210193970Y-139295934D01*
X210195000Y-139316900D01*
X210195000Y-139819100D01*
X210193970Y-139840066D01*
X210190890Y-139860830D01*
X210185790Y-139881192D01*
X210178718Y-139900956D01*
X210169743Y-139919932D01*
X210158951Y-139937936D01*
X210146447Y-139954797D01*
X210132350Y-139970350D01*
X210116797Y-139984447D01*
X210099936Y-139996951D01*
X210081932Y-140007743D01*
X210062956Y-140016718D01*
X210043192Y-140023790D01*
X210022830Y-140028890D01*
X210002066Y-140031970D01*
X209981100Y-140033000D01*
X208958900Y-140033000D01*
X208937934Y-140031970D01*
X208917170Y-140028890D01*
X208896808Y-140023790D01*
X208877044Y-140016718D01*
X208858068Y-140007743D01*
X208840064Y-139996951D01*
X208823203Y-139984447D01*
X208807650Y-139970350D01*
X208793553Y-139954797D01*
X208781049Y-139937936D01*
X208770257Y-139919932D01*
X208761282Y-139900956D01*
X208754210Y-139881192D01*
X208749110Y-139860830D01*
X208746030Y-139840066D01*
X208745000Y-139819100D01*
X208745000Y-139316900D01*
X208746030Y-139295934D01*
X208749110Y-139275170D01*
X208754210Y-139254808D01*
X208761282Y-139235044D01*
X208770257Y-139216068D01*
X208781049Y-139198064D01*
X208793553Y-139181203D01*
X208807650Y-139165650D01*
X208823203Y-139151553D01*
X208840064Y-139139049D01*
X208858068Y-139128257D01*
X208877044Y-139119282D01*
X208896808Y-139112210D01*
X208917170Y-139107110D01*
X208937934Y-139104030D01*
X208958900Y-139103000D01*
X209981100Y-139103000D01*
X210002066Y-139104030D01*
G37*
G36*
X210002066Y-137834030D02*
G01*
X210022830Y-137837110D01*
X210043192Y-137842210D01*
X210062956Y-137849282D01*
X210081932Y-137858257D01*
X210099936Y-137869049D01*
X210116797Y-137881553D01*
X210132350Y-137895650D01*
X210146447Y-137911203D01*
X210158951Y-137928064D01*
X210169743Y-137946068D01*
X210178718Y-137965044D01*
X210185790Y-137984808D01*
X210190890Y-138005170D01*
X210193970Y-138025934D01*
X210195000Y-138046900D01*
X210195000Y-138549100D01*
X210193970Y-138570066D01*
X210190890Y-138590830D01*
X210185790Y-138611192D01*
X210178718Y-138630956D01*
X210169743Y-138649932D01*
X210158951Y-138667936D01*
X210146447Y-138684797D01*
X210132350Y-138700350D01*
X210116797Y-138714447D01*
X210099936Y-138726951D01*
X210081932Y-138737743D01*
X210062956Y-138746718D01*
X210043192Y-138753790D01*
X210022830Y-138758890D01*
X210002066Y-138761970D01*
X209981100Y-138763000D01*
X208958900Y-138763000D01*
X208937934Y-138761970D01*
X208917170Y-138758890D01*
X208896808Y-138753790D01*
X208877044Y-138746718D01*
X208858068Y-138737743D01*
X208840064Y-138726951D01*
X208823203Y-138714447D01*
X208807650Y-138700350D01*
X208793553Y-138684797D01*
X208781049Y-138667936D01*
X208770257Y-138649932D01*
X208761282Y-138630956D01*
X208754210Y-138611192D01*
X208749110Y-138590830D01*
X208746030Y-138570066D01*
X208745000Y-138549100D01*
X208745000Y-138046900D01*
X208746030Y-138025934D01*
X208749110Y-138005170D01*
X208754210Y-137984808D01*
X208761282Y-137965044D01*
X208770257Y-137946068D01*
X208781049Y-137928064D01*
X208793553Y-137911203D01*
X208807650Y-137895650D01*
X208823203Y-137881553D01*
X208840064Y-137869049D01*
X208858068Y-137858257D01*
X208877044Y-137849282D01*
X208896808Y-137842210D01*
X208917170Y-137837110D01*
X208937934Y-137834030D01*
X208958900Y-137833000D01*
X209981100Y-137833000D01*
X210002066Y-137834030D01*
G37*
G36*
X210002066Y-136564030D02*
G01*
X210022830Y-136567110D01*
X210043192Y-136572210D01*
X210062956Y-136579282D01*
X210081932Y-136588257D01*
X210099936Y-136599049D01*
X210116797Y-136611553D01*
X210132350Y-136625650D01*
X210146447Y-136641203D01*
X210158951Y-136658064D01*
X210169743Y-136676068D01*
X210178718Y-136695044D01*
X210185790Y-136714808D01*
X210190890Y-136735170D01*
X210193970Y-136755934D01*
X210195000Y-136776900D01*
X210195000Y-137279100D01*
X210193970Y-137300066D01*
X210190890Y-137320830D01*
X210185790Y-137341192D01*
X210178718Y-137360956D01*
X210169743Y-137379932D01*
X210158951Y-137397936D01*
X210146447Y-137414797D01*
X210132350Y-137430350D01*
X210116797Y-137444447D01*
X210099936Y-137456951D01*
X210081932Y-137467743D01*
X210062956Y-137476718D01*
X210043192Y-137483790D01*
X210022830Y-137488890D01*
X210002066Y-137491970D01*
X209981100Y-137493000D01*
X208958900Y-137493000D01*
X208937934Y-137491970D01*
X208917170Y-137488890D01*
X208896808Y-137483790D01*
X208877044Y-137476718D01*
X208858068Y-137467743D01*
X208840064Y-137456951D01*
X208823203Y-137444447D01*
X208807650Y-137430350D01*
X208793553Y-137414797D01*
X208781049Y-137397936D01*
X208770257Y-137379932D01*
X208761282Y-137360956D01*
X208754210Y-137341192D01*
X208749110Y-137320830D01*
X208746030Y-137300066D01*
X208745000Y-137279100D01*
X208745000Y-136776900D01*
X208746030Y-136755934D01*
X208749110Y-136735170D01*
X208754210Y-136714808D01*
X208761282Y-136695044D01*
X208770257Y-136676068D01*
X208781049Y-136658064D01*
X208793553Y-136641203D01*
X208807650Y-136625650D01*
X208823203Y-136611553D01*
X208840064Y-136599049D01*
X208858068Y-136588257D01*
X208877044Y-136579282D01*
X208896808Y-136572210D01*
X208917170Y-136567110D01*
X208937934Y-136564030D01*
X208958900Y-136563000D01*
X209981100Y-136563000D01*
X210002066Y-136564030D01*
G37*
G36*
X210002066Y-135294030D02*
G01*
X210022830Y-135297110D01*
X210043192Y-135302210D01*
X210062956Y-135309282D01*
X210081932Y-135318257D01*
X210099936Y-135329049D01*
X210116797Y-135341553D01*
X210132350Y-135355650D01*
X210146447Y-135371203D01*
X210158951Y-135388064D01*
X210169743Y-135406068D01*
X210178718Y-135425044D01*
X210185790Y-135444808D01*
X210190890Y-135465170D01*
X210193970Y-135485934D01*
X210195000Y-135506900D01*
X210195000Y-136009100D01*
X210193970Y-136030066D01*
X210190890Y-136050830D01*
X210185790Y-136071192D01*
X210178718Y-136090956D01*
X210169743Y-136109932D01*
X210158951Y-136127936D01*
X210146447Y-136144797D01*
X210132350Y-136160350D01*
X210116797Y-136174447D01*
X210099936Y-136186951D01*
X210081932Y-136197743D01*
X210062956Y-136206718D01*
X210043192Y-136213790D01*
X210022830Y-136218890D01*
X210002066Y-136221970D01*
X209981100Y-136223000D01*
X208958900Y-136223000D01*
X208937934Y-136221970D01*
X208917170Y-136218890D01*
X208896808Y-136213790D01*
X208877044Y-136206718D01*
X208858068Y-136197743D01*
X208840064Y-136186951D01*
X208823203Y-136174447D01*
X208807650Y-136160350D01*
X208793553Y-136144797D01*
X208781049Y-136127936D01*
X208770257Y-136109932D01*
X208761282Y-136090956D01*
X208754210Y-136071192D01*
X208749110Y-136050830D01*
X208746030Y-136030066D01*
X208745000Y-136009100D01*
X208745000Y-135506900D01*
X208746030Y-135485934D01*
X208749110Y-135465170D01*
X208754210Y-135444808D01*
X208761282Y-135425044D01*
X208770257Y-135406068D01*
X208781049Y-135388064D01*
X208793553Y-135371203D01*
X208807650Y-135355650D01*
X208823203Y-135341553D01*
X208840064Y-135329049D01*
X208858068Y-135318257D01*
X208877044Y-135309282D01*
X208896808Y-135302210D01*
X208917170Y-135297110D01*
X208937934Y-135294030D01*
X208958900Y-135293000D01*
X209981100Y-135293000D01*
X210002066Y-135294030D01*
G37*
G36*
X210002066Y-134024030D02*
G01*
X210022830Y-134027110D01*
X210043192Y-134032210D01*
X210062956Y-134039282D01*
X210081932Y-134048257D01*
X210099936Y-134059049D01*
X210116797Y-134071553D01*
X210132350Y-134085650D01*
X210146447Y-134101203D01*
X210158951Y-134118064D01*
X210169743Y-134136068D01*
X210178718Y-134155044D01*
X210185790Y-134174808D01*
X210190890Y-134195170D01*
X210193970Y-134215934D01*
X210195000Y-134236900D01*
X210195000Y-134739100D01*
X210193970Y-134760066D01*
X210190890Y-134780830D01*
X210185790Y-134801192D01*
X210178718Y-134820956D01*
X210169743Y-134839932D01*
X210158951Y-134857936D01*
X210146447Y-134874797D01*
X210132350Y-134890350D01*
X210116797Y-134904447D01*
X210099936Y-134916951D01*
X210081932Y-134927743D01*
X210062956Y-134936718D01*
X210043192Y-134943790D01*
X210022830Y-134948890D01*
X210002066Y-134951970D01*
X209981100Y-134953000D01*
X208958900Y-134953000D01*
X208937934Y-134951970D01*
X208917170Y-134948890D01*
X208896808Y-134943790D01*
X208877044Y-134936718D01*
X208858068Y-134927743D01*
X208840064Y-134916951D01*
X208823203Y-134904447D01*
X208807650Y-134890350D01*
X208793553Y-134874797D01*
X208781049Y-134857936D01*
X208770257Y-134839932D01*
X208761282Y-134820956D01*
X208754210Y-134801192D01*
X208749110Y-134780830D01*
X208746030Y-134760066D01*
X208745000Y-134739100D01*
X208745000Y-134236900D01*
X208746030Y-134215934D01*
X208749110Y-134195170D01*
X208754210Y-134174808D01*
X208761282Y-134155044D01*
X208770257Y-134136068D01*
X208781049Y-134118064D01*
X208793553Y-134101203D01*
X208807650Y-134085650D01*
X208823203Y-134071553D01*
X208840064Y-134059049D01*
X208858068Y-134048257D01*
X208877044Y-134039282D01*
X208896808Y-134032210D01*
X208917170Y-134027110D01*
X208937934Y-134024030D01*
X208958900Y-134023000D01*
X209981100Y-134023000D01*
X210002066Y-134024030D01*
G37*
G36*
X210002066Y-132754030D02*
G01*
X210022830Y-132757110D01*
X210043192Y-132762210D01*
X210062956Y-132769282D01*
X210081932Y-132778257D01*
X210099936Y-132789049D01*
X210116797Y-132801553D01*
X210132350Y-132815650D01*
X210146447Y-132831203D01*
X210158951Y-132848064D01*
X210169743Y-132866068D01*
X210178718Y-132885044D01*
X210185790Y-132904808D01*
X210190890Y-132925170D01*
X210193970Y-132945934D01*
X210195000Y-132966900D01*
X210195000Y-133469100D01*
X210193970Y-133490066D01*
X210190890Y-133510830D01*
X210185790Y-133531192D01*
X210178718Y-133550956D01*
X210169743Y-133569932D01*
X210158951Y-133587936D01*
X210146447Y-133604797D01*
X210132350Y-133620350D01*
X210116797Y-133634447D01*
X210099936Y-133646951D01*
X210081932Y-133657743D01*
X210062956Y-133666718D01*
X210043192Y-133673790D01*
X210022830Y-133678890D01*
X210002066Y-133681970D01*
X209981100Y-133683000D01*
X208958900Y-133683000D01*
X208937934Y-133681970D01*
X208917170Y-133678890D01*
X208896808Y-133673790D01*
X208877044Y-133666718D01*
X208858068Y-133657743D01*
X208840064Y-133646951D01*
X208823203Y-133634447D01*
X208807650Y-133620350D01*
X208793553Y-133604797D01*
X208781049Y-133587936D01*
X208770257Y-133569932D01*
X208761282Y-133550956D01*
X208754210Y-133531192D01*
X208749110Y-133510830D01*
X208746030Y-133490066D01*
X208745000Y-133469100D01*
X208745000Y-132966900D01*
X208746030Y-132945934D01*
X208749110Y-132925170D01*
X208754210Y-132904808D01*
X208761282Y-132885044D01*
X208770257Y-132866068D01*
X208781049Y-132848064D01*
X208793553Y-132831203D01*
X208807650Y-132815650D01*
X208823203Y-132801553D01*
X208840064Y-132789049D01*
X208858068Y-132778257D01*
X208877044Y-132769282D01*
X208896808Y-132762210D01*
X208917170Y-132757110D01*
X208937934Y-132754030D01*
X208958900Y-132753000D01*
X209981100Y-132753000D01*
X210002066Y-132754030D01*
G37*
G36*
X210002066Y-131484030D02*
G01*
X210022830Y-131487110D01*
X210043192Y-131492210D01*
X210062956Y-131499282D01*
X210081932Y-131508257D01*
X210099936Y-131519049D01*
X210116797Y-131531553D01*
X210132350Y-131545650D01*
X210146447Y-131561203D01*
X210158951Y-131578064D01*
X210169743Y-131596068D01*
X210178718Y-131615044D01*
X210185790Y-131634808D01*
X210190890Y-131655170D01*
X210193970Y-131675934D01*
X210195000Y-131696900D01*
X210195000Y-132199100D01*
X210193970Y-132220066D01*
X210190890Y-132240830D01*
X210185790Y-132261192D01*
X210178718Y-132280956D01*
X210169743Y-132299932D01*
X210158951Y-132317936D01*
X210146447Y-132334797D01*
X210132350Y-132350350D01*
X210116797Y-132364447D01*
X210099936Y-132376951D01*
X210081932Y-132387743D01*
X210062956Y-132396718D01*
X210043192Y-132403790D01*
X210022830Y-132408890D01*
X210002066Y-132411970D01*
X209981100Y-132413000D01*
X208958900Y-132413000D01*
X208937934Y-132411970D01*
X208917170Y-132408890D01*
X208896808Y-132403790D01*
X208877044Y-132396718D01*
X208858068Y-132387743D01*
X208840064Y-132376951D01*
X208823203Y-132364447D01*
X208807650Y-132350350D01*
X208793553Y-132334797D01*
X208781049Y-132317936D01*
X208770257Y-132299932D01*
X208761282Y-132280956D01*
X208754210Y-132261192D01*
X208749110Y-132240830D01*
X208746030Y-132220066D01*
X208745000Y-132199100D01*
X208745000Y-131696900D01*
X208746030Y-131675934D01*
X208749110Y-131655170D01*
X208754210Y-131634808D01*
X208761282Y-131615044D01*
X208770257Y-131596068D01*
X208781049Y-131578064D01*
X208793553Y-131561203D01*
X208807650Y-131545650D01*
X208823203Y-131531553D01*
X208840064Y-131519049D01*
X208858068Y-131508257D01*
X208877044Y-131499282D01*
X208896808Y-131492210D01*
X208917170Y-131487110D01*
X208937934Y-131484030D01*
X208958900Y-131483000D01*
X209981100Y-131483000D01*
X210002066Y-131484030D01*
G37*
G36*
X210002066Y-130214030D02*
G01*
X210022830Y-130217110D01*
X210043192Y-130222210D01*
X210062956Y-130229282D01*
X210081932Y-130238257D01*
X210099936Y-130249049D01*
X210116797Y-130261553D01*
X210132350Y-130275650D01*
X210146447Y-130291203D01*
X210158951Y-130308064D01*
X210169743Y-130326068D01*
X210178718Y-130345044D01*
X210185790Y-130364808D01*
X210190890Y-130385170D01*
X210193970Y-130405934D01*
X210195000Y-130426900D01*
X210195000Y-130929100D01*
X210193970Y-130950066D01*
X210190890Y-130970830D01*
X210185790Y-130991192D01*
X210178718Y-131010956D01*
X210169743Y-131029932D01*
X210158951Y-131047936D01*
X210146447Y-131064797D01*
X210132350Y-131080350D01*
X210116797Y-131094447D01*
X210099936Y-131106951D01*
X210081932Y-131117743D01*
X210062956Y-131126718D01*
X210043192Y-131133790D01*
X210022830Y-131138890D01*
X210002066Y-131141970D01*
X209981100Y-131143000D01*
X208958900Y-131143000D01*
X208937934Y-131141970D01*
X208917170Y-131138890D01*
X208896808Y-131133790D01*
X208877044Y-131126718D01*
X208858068Y-131117743D01*
X208840064Y-131106951D01*
X208823203Y-131094447D01*
X208807650Y-131080350D01*
X208793553Y-131064797D01*
X208781049Y-131047936D01*
X208770257Y-131029932D01*
X208761282Y-131010956D01*
X208754210Y-130991192D01*
X208749110Y-130970830D01*
X208746030Y-130950066D01*
X208745000Y-130929100D01*
X208745000Y-130426900D01*
X208746030Y-130405934D01*
X208749110Y-130385170D01*
X208754210Y-130364808D01*
X208761282Y-130345044D01*
X208770257Y-130326068D01*
X208781049Y-130308064D01*
X208793553Y-130291203D01*
X208807650Y-130275650D01*
X208823203Y-130261553D01*
X208840064Y-130249049D01*
X208858068Y-130238257D01*
X208877044Y-130229282D01*
X208896808Y-130222210D01*
X208917170Y-130217110D01*
X208937934Y-130214030D01*
X208958900Y-130213000D01*
X209981100Y-130213000D01*
X210002066Y-130214030D01*
G37*
G36*
X210002066Y-128944030D02*
G01*
X210022830Y-128947110D01*
X210043192Y-128952210D01*
X210062956Y-128959282D01*
X210081932Y-128968257D01*
X210099936Y-128979049D01*
X210116797Y-128991553D01*
X210132350Y-129005650D01*
X210146447Y-129021203D01*
X210158951Y-129038064D01*
X210169743Y-129056068D01*
X210178718Y-129075044D01*
X210185790Y-129094808D01*
X210190890Y-129115170D01*
X210193970Y-129135934D01*
X210195000Y-129156900D01*
X210195000Y-129659100D01*
X210193970Y-129680066D01*
X210190890Y-129700830D01*
X210185790Y-129721192D01*
X210178718Y-129740956D01*
X210169743Y-129759932D01*
X210158951Y-129777936D01*
X210146447Y-129794797D01*
X210132350Y-129810350D01*
X210116797Y-129824447D01*
X210099936Y-129836951D01*
X210081932Y-129847743D01*
X210062956Y-129856718D01*
X210043192Y-129863790D01*
X210022830Y-129868890D01*
X210002066Y-129871970D01*
X209981100Y-129873000D01*
X208958900Y-129873000D01*
X208937934Y-129871970D01*
X208917170Y-129868890D01*
X208896808Y-129863790D01*
X208877044Y-129856718D01*
X208858068Y-129847743D01*
X208840064Y-129836951D01*
X208823203Y-129824447D01*
X208807650Y-129810350D01*
X208793553Y-129794797D01*
X208781049Y-129777936D01*
X208770257Y-129759932D01*
X208761282Y-129740956D01*
X208754210Y-129721192D01*
X208749110Y-129700830D01*
X208746030Y-129680066D01*
X208745000Y-129659100D01*
X208745000Y-129156900D01*
X208746030Y-129135934D01*
X208749110Y-129115170D01*
X208754210Y-129094808D01*
X208761282Y-129075044D01*
X208770257Y-129056068D01*
X208781049Y-129038064D01*
X208793553Y-129021203D01*
X208807650Y-129005650D01*
X208823203Y-128991553D01*
X208840064Y-128979049D01*
X208858068Y-128968257D01*
X208877044Y-128959282D01*
X208896808Y-128952210D01*
X208917170Y-128947110D01*
X208937934Y-128944030D01*
X208958900Y-128943000D01*
X209981100Y-128943000D01*
X210002066Y-128944030D01*
G37*
G36*
X210002066Y-127674030D02*
G01*
X210022830Y-127677110D01*
X210043192Y-127682210D01*
X210062956Y-127689282D01*
X210081932Y-127698257D01*
X210099936Y-127709049D01*
X210116797Y-127721553D01*
X210132350Y-127735650D01*
X210146447Y-127751203D01*
X210158951Y-127768064D01*
X210169743Y-127786068D01*
X210178718Y-127805044D01*
X210185790Y-127824808D01*
X210190890Y-127845170D01*
X210193970Y-127865934D01*
X210195000Y-127886900D01*
X210195000Y-128389100D01*
X210193970Y-128410066D01*
X210190890Y-128430830D01*
X210185790Y-128451192D01*
X210178718Y-128470956D01*
X210169743Y-128489932D01*
X210158951Y-128507936D01*
X210146447Y-128524797D01*
X210132350Y-128540350D01*
X210116797Y-128554447D01*
X210099936Y-128566951D01*
X210081932Y-128577743D01*
X210062956Y-128586718D01*
X210043192Y-128593790D01*
X210022830Y-128598890D01*
X210002066Y-128601970D01*
X209981100Y-128603000D01*
X208958900Y-128603000D01*
X208937934Y-128601970D01*
X208917170Y-128598890D01*
X208896808Y-128593790D01*
X208877044Y-128586718D01*
X208858068Y-128577743D01*
X208840064Y-128566951D01*
X208823203Y-128554447D01*
X208807650Y-128540350D01*
X208793553Y-128524797D01*
X208781049Y-128507936D01*
X208770257Y-128489932D01*
X208761282Y-128470956D01*
X208754210Y-128451192D01*
X208749110Y-128430830D01*
X208746030Y-128410066D01*
X208745000Y-128389100D01*
X208745000Y-127886900D01*
X208746030Y-127865934D01*
X208749110Y-127845170D01*
X208754210Y-127824808D01*
X208761282Y-127805044D01*
X208770257Y-127786068D01*
X208781049Y-127768064D01*
X208793553Y-127751203D01*
X208807650Y-127735650D01*
X208823203Y-127721553D01*
X208840064Y-127709049D01*
X208858068Y-127698257D01*
X208877044Y-127689282D01*
X208896808Y-127682210D01*
X208917170Y-127677110D01*
X208937934Y-127674030D01*
X208958900Y-127673000D01*
X209981100Y-127673000D01*
X210002066Y-127674030D01*
G37*
G36*
X210002066Y-126404030D02*
G01*
X210022830Y-126407110D01*
X210043192Y-126412210D01*
X210062956Y-126419282D01*
X210081932Y-126428257D01*
X210099936Y-126439049D01*
X210116797Y-126451553D01*
X210132350Y-126465650D01*
X210146447Y-126481203D01*
X210158951Y-126498064D01*
X210169743Y-126516068D01*
X210178718Y-126535044D01*
X210185790Y-126554808D01*
X210190890Y-126575170D01*
X210193970Y-126595934D01*
X210195000Y-126616900D01*
X210195000Y-127119100D01*
X210193970Y-127140066D01*
X210190890Y-127160830D01*
X210185790Y-127181192D01*
X210178718Y-127200956D01*
X210169743Y-127219932D01*
X210158951Y-127237936D01*
X210146447Y-127254797D01*
X210132350Y-127270350D01*
X210116797Y-127284447D01*
X210099936Y-127296951D01*
X210081932Y-127307743D01*
X210062956Y-127316718D01*
X210043192Y-127323790D01*
X210022830Y-127328890D01*
X210002066Y-127331970D01*
X209981100Y-127333000D01*
X208958900Y-127333000D01*
X208937934Y-127331970D01*
X208917170Y-127328890D01*
X208896808Y-127323790D01*
X208877044Y-127316718D01*
X208858068Y-127307743D01*
X208840064Y-127296951D01*
X208823203Y-127284447D01*
X208807650Y-127270350D01*
X208793553Y-127254797D01*
X208781049Y-127237936D01*
X208770257Y-127219932D01*
X208761282Y-127200956D01*
X208754210Y-127181192D01*
X208749110Y-127160830D01*
X208746030Y-127140066D01*
X208745000Y-127119100D01*
X208745000Y-126616900D01*
X208746030Y-126595934D01*
X208749110Y-126575170D01*
X208754210Y-126554808D01*
X208761282Y-126535044D01*
X208770257Y-126516068D01*
X208781049Y-126498064D01*
X208793553Y-126481203D01*
X208807650Y-126465650D01*
X208823203Y-126451553D01*
X208840064Y-126439049D01*
X208858068Y-126428257D01*
X208877044Y-126419282D01*
X208896808Y-126412210D01*
X208917170Y-126407110D01*
X208937934Y-126404030D01*
X208958900Y-126403000D01*
X209981100Y-126403000D01*
X210002066Y-126404030D01*
G37*
G36*
X210002066Y-125134030D02*
G01*
X210022830Y-125137110D01*
X210043192Y-125142210D01*
X210062956Y-125149282D01*
X210081932Y-125158257D01*
X210099936Y-125169049D01*
X210116797Y-125181553D01*
X210132350Y-125195650D01*
X210146447Y-125211203D01*
X210158951Y-125228064D01*
X210169743Y-125246068D01*
X210178718Y-125265044D01*
X210185790Y-125284808D01*
X210190890Y-125305170D01*
X210193970Y-125325934D01*
X210195000Y-125346900D01*
X210195000Y-125849100D01*
X210193970Y-125870066D01*
X210190890Y-125890830D01*
X210185790Y-125911192D01*
X210178718Y-125930956D01*
X210169743Y-125949932D01*
X210158951Y-125967936D01*
X210146447Y-125984797D01*
X210132350Y-126000350D01*
X210116797Y-126014447D01*
X210099936Y-126026951D01*
X210081932Y-126037743D01*
X210062956Y-126046718D01*
X210043192Y-126053790D01*
X210022830Y-126058890D01*
X210002066Y-126061970D01*
X209981100Y-126063000D01*
X208958900Y-126063000D01*
X208937934Y-126061970D01*
X208917170Y-126058890D01*
X208896808Y-126053790D01*
X208877044Y-126046718D01*
X208858068Y-126037743D01*
X208840064Y-126026951D01*
X208823203Y-126014447D01*
X208807650Y-126000350D01*
X208793553Y-125984797D01*
X208781049Y-125967936D01*
X208770257Y-125949932D01*
X208761282Y-125930956D01*
X208754210Y-125911192D01*
X208749110Y-125890830D01*
X208746030Y-125870066D01*
X208745000Y-125849100D01*
X208745000Y-125346900D01*
X208746030Y-125325934D01*
X208749110Y-125305170D01*
X208754210Y-125284808D01*
X208761282Y-125265044D01*
X208770257Y-125246068D01*
X208781049Y-125228064D01*
X208793553Y-125211203D01*
X208807650Y-125195650D01*
X208823203Y-125181553D01*
X208840064Y-125169049D01*
X208858068Y-125158257D01*
X208877044Y-125149282D01*
X208896808Y-125142210D01*
X208917170Y-125137110D01*
X208937934Y-125134030D01*
X208958900Y-125133000D01*
X209981100Y-125133000D01*
X210002066Y-125134030D01*
G37*
G36*
X210002066Y-123864030D02*
G01*
X210022830Y-123867110D01*
X210043192Y-123872210D01*
X210062956Y-123879282D01*
X210081932Y-123888257D01*
X210099936Y-123899049D01*
X210116797Y-123911553D01*
X210132350Y-123925650D01*
X210146447Y-123941203D01*
X210158951Y-123958064D01*
X210169743Y-123976068D01*
X210178718Y-123995044D01*
X210185790Y-124014808D01*
X210190890Y-124035170D01*
X210193970Y-124055934D01*
X210195000Y-124076900D01*
X210195000Y-124579100D01*
X210193970Y-124600066D01*
X210190890Y-124620830D01*
X210185790Y-124641192D01*
X210178718Y-124660956D01*
X210169743Y-124679932D01*
X210158951Y-124697936D01*
X210146447Y-124714797D01*
X210132350Y-124730350D01*
X210116797Y-124744447D01*
X210099936Y-124756951D01*
X210081932Y-124767743D01*
X210062956Y-124776718D01*
X210043192Y-124783790D01*
X210022830Y-124788890D01*
X210002066Y-124791970D01*
X209981100Y-124793000D01*
X208958900Y-124793000D01*
X208937934Y-124791970D01*
X208917170Y-124788890D01*
X208896808Y-124783790D01*
X208877044Y-124776718D01*
X208858068Y-124767743D01*
X208840064Y-124756951D01*
X208823203Y-124744447D01*
X208807650Y-124730350D01*
X208793553Y-124714797D01*
X208781049Y-124697936D01*
X208770257Y-124679932D01*
X208761282Y-124660956D01*
X208754210Y-124641192D01*
X208749110Y-124620830D01*
X208746030Y-124600066D01*
X208745000Y-124579100D01*
X208745000Y-124076900D01*
X208746030Y-124055934D01*
X208749110Y-124035170D01*
X208754210Y-124014808D01*
X208761282Y-123995044D01*
X208770257Y-123976068D01*
X208781049Y-123958064D01*
X208793553Y-123941203D01*
X208807650Y-123925650D01*
X208823203Y-123911553D01*
X208840064Y-123899049D01*
X208858068Y-123888257D01*
X208877044Y-123879282D01*
X208896808Y-123872210D01*
X208917170Y-123867110D01*
X208937934Y-123864030D01*
X208958900Y-123863000D01*
X209981100Y-123863000D01*
X210002066Y-123864030D01*
G37*
G36*
X210002066Y-122594030D02*
G01*
X210022830Y-122597110D01*
X210043192Y-122602210D01*
X210062956Y-122609282D01*
X210081932Y-122618257D01*
X210099936Y-122629049D01*
X210116797Y-122641553D01*
X210132350Y-122655650D01*
X210146447Y-122671203D01*
X210158951Y-122688064D01*
X210169743Y-122706068D01*
X210178718Y-122725044D01*
X210185790Y-122744808D01*
X210190890Y-122765170D01*
X210193970Y-122785934D01*
X210195000Y-122806900D01*
X210195000Y-123309100D01*
X210193970Y-123330066D01*
X210190890Y-123350830D01*
X210185790Y-123371192D01*
X210178718Y-123390956D01*
X210169743Y-123409932D01*
X210158951Y-123427936D01*
X210146447Y-123444797D01*
X210132350Y-123460350D01*
X210116797Y-123474447D01*
X210099936Y-123486951D01*
X210081932Y-123497743D01*
X210062956Y-123506718D01*
X210043192Y-123513790D01*
X210022830Y-123518890D01*
X210002066Y-123521970D01*
X209981100Y-123523000D01*
X208958900Y-123523000D01*
X208937934Y-123521970D01*
X208917170Y-123518890D01*
X208896808Y-123513790D01*
X208877044Y-123506718D01*
X208858068Y-123497743D01*
X208840064Y-123486951D01*
X208823203Y-123474447D01*
X208807650Y-123460350D01*
X208793553Y-123444797D01*
X208781049Y-123427936D01*
X208770257Y-123409932D01*
X208761282Y-123390956D01*
X208754210Y-123371192D01*
X208749110Y-123350830D01*
X208746030Y-123330066D01*
X208745000Y-123309100D01*
X208745000Y-122806900D01*
X208746030Y-122785934D01*
X208749110Y-122765170D01*
X208754210Y-122744808D01*
X208761282Y-122725044D01*
X208770257Y-122706068D01*
X208781049Y-122688064D01*
X208793553Y-122671203D01*
X208807650Y-122655650D01*
X208823203Y-122641553D01*
X208840064Y-122629049D01*
X208858068Y-122618257D01*
X208877044Y-122609282D01*
X208896808Y-122602210D01*
X208917170Y-122597110D01*
X208937934Y-122594030D01*
X208958900Y-122593000D01*
X209981100Y-122593000D01*
X210002066Y-122594030D01*
G37*
G36*
X210002066Y-121324030D02*
G01*
X210022830Y-121327110D01*
X210043192Y-121332210D01*
X210062956Y-121339282D01*
X210081932Y-121348257D01*
X210099936Y-121359049D01*
X210116797Y-121371553D01*
X210132350Y-121385650D01*
X210146447Y-121401203D01*
X210158951Y-121418064D01*
X210169743Y-121436068D01*
X210178718Y-121455044D01*
X210185790Y-121474808D01*
X210190890Y-121495170D01*
X210193970Y-121515934D01*
X210195000Y-121536900D01*
X210195000Y-122039100D01*
X210193970Y-122060066D01*
X210190890Y-122080830D01*
X210185790Y-122101192D01*
X210178718Y-122120956D01*
X210169743Y-122139932D01*
X210158951Y-122157936D01*
X210146447Y-122174797D01*
X210132350Y-122190350D01*
X210116797Y-122204447D01*
X210099936Y-122216951D01*
X210081932Y-122227743D01*
X210062956Y-122236718D01*
X210043192Y-122243790D01*
X210022830Y-122248890D01*
X210002066Y-122251970D01*
X209981100Y-122253000D01*
X208958900Y-122253000D01*
X208937934Y-122251970D01*
X208917170Y-122248890D01*
X208896808Y-122243790D01*
X208877044Y-122236718D01*
X208858068Y-122227743D01*
X208840064Y-122216951D01*
X208823203Y-122204447D01*
X208807650Y-122190350D01*
X208793553Y-122174797D01*
X208781049Y-122157936D01*
X208770257Y-122139932D01*
X208761282Y-122120956D01*
X208754210Y-122101192D01*
X208749110Y-122080830D01*
X208746030Y-122060066D01*
X208745000Y-122039100D01*
X208745000Y-121536900D01*
X208746030Y-121515934D01*
X208749110Y-121495170D01*
X208754210Y-121474808D01*
X208761282Y-121455044D01*
X208770257Y-121436068D01*
X208781049Y-121418064D01*
X208793553Y-121401203D01*
X208807650Y-121385650D01*
X208823203Y-121371553D01*
X208840064Y-121359049D01*
X208858068Y-121348257D01*
X208877044Y-121339282D01*
X208896808Y-121332210D01*
X208917170Y-121327110D01*
X208937934Y-121324030D01*
X208958900Y-121323000D01*
X209981100Y-121323000D01*
X210002066Y-121324030D01*
G37*
G36*
X210002066Y-120054030D02*
G01*
X210022830Y-120057110D01*
X210043192Y-120062210D01*
X210062956Y-120069282D01*
X210081932Y-120078257D01*
X210099936Y-120089049D01*
X210116797Y-120101553D01*
X210132350Y-120115650D01*
X210146447Y-120131203D01*
X210158951Y-120148064D01*
X210169743Y-120166068D01*
X210178718Y-120185044D01*
X210185790Y-120204808D01*
X210190890Y-120225170D01*
X210193970Y-120245934D01*
X210195000Y-120266900D01*
X210195000Y-120769100D01*
X210193970Y-120790066D01*
X210190890Y-120810830D01*
X210185790Y-120831192D01*
X210178718Y-120850956D01*
X210169743Y-120869932D01*
X210158951Y-120887936D01*
X210146447Y-120904797D01*
X210132350Y-120920350D01*
X210116797Y-120934447D01*
X210099936Y-120946951D01*
X210081932Y-120957743D01*
X210062956Y-120966718D01*
X210043192Y-120973790D01*
X210022830Y-120978890D01*
X210002066Y-120981970D01*
X209981100Y-120983000D01*
X208958900Y-120983000D01*
X208937934Y-120981970D01*
X208917170Y-120978890D01*
X208896808Y-120973790D01*
X208877044Y-120966718D01*
X208858068Y-120957743D01*
X208840064Y-120946951D01*
X208823203Y-120934447D01*
X208807650Y-120920350D01*
X208793553Y-120904797D01*
X208781049Y-120887936D01*
X208770257Y-120869932D01*
X208761282Y-120850956D01*
X208754210Y-120831192D01*
X208749110Y-120810830D01*
X208746030Y-120790066D01*
X208745000Y-120769100D01*
X208745000Y-120266900D01*
X208746030Y-120245934D01*
X208749110Y-120225170D01*
X208754210Y-120204808D01*
X208761282Y-120185044D01*
X208770257Y-120166068D01*
X208781049Y-120148064D01*
X208793553Y-120131203D01*
X208807650Y-120115650D01*
X208823203Y-120101553D01*
X208840064Y-120089049D01*
X208858068Y-120078257D01*
X208877044Y-120069282D01*
X208896808Y-120062210D01*
X208917170Y-120057110D01*
X208937934Y-120054030D01*
X208958900Y-120053000D01*
X209981100Y-120053000D01*
X210002066Y-120054030D01*
G37*
G36*
X210002066Y-118784030D02*
G01*
X210022830Y-118787110D01*
X210043192Y-118792210D01*
X210062956Y-118799282D01*
X210081932Y-118808257D01*
X210099936Y-118819049D01*
X210116797Y-118831553D01*
X210132350Y-118845650D01*
X210146447Y-118861203D01*
X210158951Y-118878064D01*
X210169743Y-118896068D01*
X210178718Y-118915044D01*
X210185790Y-118934808D01*
X210190890Y-118955170D01*
X210193970Y-118975934D01*
X210195000Y-118996900D01*
X210195000Y-119499100D01*
X210193970Y-119520066D01*
X210190890Y-119540830D01*
X210185790Y-119561192D01*
X210178718Y-119580956D01*
X210169743Y-119599932D01*
X210158951Y-119617936D01*
X210146447Y-119634797D01*
X210132350Y-119650350D01*
X210116797Y-119664447D01*
X210099936Y-119676951D01*
X210081932Y-119687743D01*
X210062956Y-119696718D01*
X210043192Y-119703790D01*
X210022830Y-119708890D01*
X210002066Y-119711970D01*
X209981100Y-119713000D01*
X208958900Y-119713000D01*
X208937934Y-119711970D01*
X208917170Y-119708890D01*
X208896808Y-119703790D01*
X208877044Y-119696718D01*
X208858068Y-119687743D01*
X208840064Y-119676951D01*
X208823203Y-119664447D01*
X208807650Y-119650350D01*
X208793553Y-119634797D01*
X208781049Y-119617936D01*
X208770257Y-119599932D01*
X208761282Y-119580956D01*
X208754210Y-119561192D01*
X208749110Y-119540830D01*
X208746030Y-119520066D01*
X208745000Y-119499100D01*
X208745000Y-118996900D01*
X208746030Y-118975934D01*
X208749110Y-118955170D01*
X208754210Y-118934808D01*
X208761282Y-118915044D01*
X208770257Y-118896068D01*
X208781049Y-118878064D01*
X208793553Y-118861203D01*
X208807650Y-118845650D01*
X208823203Y-118831553D01*
X208840064Y-118819049D01*
X208858068Y-118808257D01*
X208877044Y-118799282D01*
X208896808Y-118792210D01*
X208917170Y-118787110D01*
X208937934Y-118784030D01*
X208958900Y-118783000D01*
X209981100Y-118783000D01*
X210002066Y-118784030D01*
G37*
G36*
X210002066Y-117514030D02*
G01*
X210022830Y-117517110D01*
X210043192Y-117522210D01*
X210062956Y-117529282D01*
X210081932Y-117538257D01*
X210099936Y-117549049D01*
X210116797Y-117561553D01*
X210132350Y-117575650D01*
X210146447Y-117591203D01*
X210158951Y-117608064D01*
X210169743Y-117626068D01*
X210178718Y-117645044D01*
X210185790Y-117664808D01*
X210190890Y-117685170D01*
X210193970Y-117705934D01*
X210195000Y-117726900D01*
X210195000Y-118229100D01*
X210193970Y-118250066D01*
X210190890Y-118270830D01*
X210185790Y-118291192D01*
X210178718Y-118310956D01*
X210169743Y-118329932D01*
X210158951Y-118347936D01*
X210146447Y-118364797D01*
X210132350Y-118380350D01*
X210116797Y-118394447D01*
X210099936Y-118406951D01*
X210081932Y-118417743D01*
X210062956Y-118426718D01*
X210043192Y-118433790D01*
X210022830Y-118438890D01*
X210002066Y-118441970D01*
X209981100Y-118443000D01*
X208958900Y-118443000D01*
X208937934Y-118441970D01*
X208917170Y-118438890D01*
X208896808Y-118433790D01*
X208877044Y-118426718D01*
X208858068Y-118417743D01*
X208840064Y-118406951D01*
X208823203Y-118394447D01*
X208807650Y-118380350D01*
X208793553Y-118364797D01*
X208781049Y-118347936D01*
X208770257Y-118329932D01*
X208761282Y-118310956D01*
X208754210Y-118291192D01*
X208749110Y-118270830D01*
X208746030Y-118250066D01*
X208745000Y-118229100D01*
X208745000Y-117726900D01*
X208746030Y-117705934D01*
X208749110Y-117685170D01*
X208754210Y-117664808D01*
X208761282Y-117645044D01*
X208770257Y-117626068D01*
X208781049Y-117608064D01*
X208793553Y-117591203D01*
X208807650Y-117575650D01*
X208823203Y-117561553D01*
X208840064Y-117549049D01*
X208858068Y-117538257D01*
X208877044Y-117529282D01*
X208896808Y-117522210D01*
X208917170Y-117517110D01*
X208937934Y-117514030D01*
X208958900Y-117513000D01*
X209981100Y-117513000D01*
X210002066Y-117514030D01*
G37*
G36*
X179067175Y-153055426D02*
G01*
X179075765Y-153056701D01*
X179084190Y-153058811D01*
X179092367Y-153061737D01*
X179100219Y-153065450D01*
X179107668Y-153069915D01*
X179114644Y-153075089D01*
X179121079Y-153080921D01*
X179126911Y-153087356D01*
X179132085Y-153094332D01*
X179136550Y-153101781D01*
X179140263Y-153109633D01*
X179143189Y-153117810D01*
X179145299Y-153126235D01*
X179146574Y-153134825D01*
X179147000Y-153143500D01*
X179147000Y-153556500D01*
X179146574Y-153565175D01*
X179145299Y-153573765D01*
X179143189Y-153582190D01*
X179140263Y-153590367D01*
X179136550Y-153598219D01*
X179132085Y-153605668D01*
X179126911Y-153612644D01*
X179121079Y-153619079D01*
X179114644Y-153624911D01*
X179107668Y-153630085D01*
X179100219Y-153634550D01*
X179092367Y-153638263D01*
X179084190Y-153641189D01*
X179075765Y-153643299D01*
X179067175Y-153644574D01*
X179058500Y-153645000D01*
X177865500Y-153645000D01*
X177856825Y-153644574D01*
X177848235Y-153643299D01*
X177839810Y-153641189D01*
X177831633Y-153638263D01*
X177823781Y-153634550D01*
X177816332Y-153630085D01*
X177809356Y-153624911D01*
X177802921Y-153619079D01*
X177797089Y-153612644D01*
X177791915Y-153605668D01*
X177787450Y-153598219D01*
X177783737Y-153590367D01*
X177780811Y-153582190D01*
X177778701Y-153573765D01*
X177777426Y-153565175D01*
X177777000Y-153556500D01*
X177777000Y-153143500D01*
X177777426Y-153134825D01*
X177778701Y-153126235D01*
X177780811Y-153117810D01*
X177783737Y-153109633D01*
X177787450Y-153101781D01*
X177791915Y-153094332D01*
X177797089Y-153087356D01*
X177802921Y-153080921D01*
X177809356Y-153075089D01*
X177816332Y-153069915D01*
X177823781Y-153065450D01*
X177831633Y-153061737D01*
X177839810Y-153058811D01*
X177848235Y-153056701D01*
X177856825Y-153055426D01*
X177865500Y-153055000D01*
X179058500Y-153055000D01*
X179067175Y-153055426D01*
G37*
G36*
X179067175Y-152105426D02*
G01*
X179075765Y-152106701D01*
X179084190Y-152108811D01*
X179092367Y-152111737D01*
X179100219Y-152115450D01*
X179107668Y-152119915D01*
X179114644Y-152125089D01*
X179121079Y-152130921D01*
X179126911Y-152137356D01*
X179132085Y-152144332D01*
X179136550Y-152151781D01*
X179140263Y-152159633D01*
X179143189Y-152167810D01*
X179145299Y-152176235D01*
X179146574Y-152184825D01*
X179147000Y-152193500D01*
X179147000Y-152606500D01*
X179146574Y-152615175D01*
X179145299Y-152623765D01*
X179143189Y-152632190D01*
X179140263Y-152640367D01*
X179136550Y-152648219D01*
X179132085Y-152655668D01*
X179126911Y-152662644D01*
X179121079Y-152669079D01*
X179114644Y-152674911D01*
X179107668Y-152680085D01*
X179100219Y-152684550D01*
X179092367Y-152688263D01*
X179084190Y-152691189D01*
X179075765Y-152693299D01*
X179067175Y-152694574D01*
X179058500Y-152695000D01*
X177865500Y-152695000D01*
X177856825Y-152694574D01*
X177848235Y-152693299D01*
X177839810Y-152691189D01*
X177831633Y-152688263D01*
X177823781Y-152684550D01*
X177816332Y-152680085D01*
X177809356Y-152674911D01*
X177802921Y-152669079D01*
X177797089Y-152662644D01*
X177791915Y-152655668D01*
X177787450Y-152648219D01*
X177783737Y-152640367D01*
X177780811Y-152632190D01*
X177778701Y-152623765D01*
X177777426Y-152615175D01*
X177777000Y-152606500D01*
X177777000Y-152193500D01*
X177777426Y-152184825D01*
X177778701Y-152176235D01*
X177780811Y-152167810D01*
X177783737Y-152159633D01*
X177787450Y-152151781D01*
X177791915Y-152144332D01*
X177797089Y-152137356D01*
X177802921Y-152130921D01*
X177809356Y-152125089D01*
X177816332Y-152119915D01*
X177823781Y-152115450D01*
X177831633Y-152111737D01*
X177839810Y-152108811D01*
X177848235Y-152106701D01*
X177856825Y-152105426D01*
X177865500Y-152105000D01*
X179058500Y-152105000D01*
X179067175Y-152105426D01*
G37*
G36*
X179067175Y-151155426D02*
G01*
X179075765Y-151156701D01*
X179084190Y-151158811D01*
X179092367Y-151161737D01*
X179100219Y-151165450D01*
X179107668Y-151169915D01*
X179114644Y-151175089D01*
X179121079Y-151180921D01*
X179126911Y-151187356D01*
X179132085Y-151194332D01*
X179136550Y-151201781D01*
X179140263Y-151209633D01*
X179143189Y-151217810D01*
X179145299Y-151226235D01*
X179146574Y-151234825D01*
X179147000Y-151243500D01*
X179147000Y-151656500D01*
X179146574Y-151665175D01*
X179145299Y-151673765D01*
X179143189Y-151682190D01*
X179140263Y-151690367D01*
X179136550Y-151698219D01*
X179132085Y-151705668D01*
X179126911Y-151712644D01*
X179121079Y-151719079D01*
X179114644Y-151724911D01*
X179107668Y-151730085D01*
X179100219Y-151734550D01*
X179092367Y-151738263D01*
X179084190Y-151741189D01*
X179075765Y-151743299D01*
X179067175Y-151744574D01*
X179058500Y-151745000D01*
X177865500Y-151745000D01*
X177856825Y-151744574D01*
X177848235Y-151743299D01*
X177839810Y-151741189D01*
X177831633Y-151738263D01*
X177823781Y-151734550D01*
X177816332Y-151730085D01*
X177809356Y-151724911D01*
X177802921Y-151719079D01*
X177797089Y-151712644D01*
X177791915Y-151705668D01*
X177787450Y-151698219D01*
X177783737Y-151690367D01*
X177780811Y-151682190D01*
X177778701Y-151673765D01*
X177777426Y-151665175D01*
X177777000Y-151656500D01*
X177777000Y-151243500D01*
X177777426Y-151234825D01*
X177778701Y-151226235D01*
X177780811Y-151217810D01*
X177783737Y-151209633D01*
X177787450Y-151201781D01*
X177791915Y-151194332D01*
X177797089Y-151187356D01*
X177802921Y-151180921D01*
X177809356Y-151175089D01*
X177816332Y-151169915D01*
X177823781Y-151165450D01*
X177831633Y-151161737D01*
X177839810Y-151158811D01*
X177848235Y-151156701D01*
X177856825Y-151155426D01*
X177865500Y-151155000D01*
X179058500Y-151155000D01*
X179067175Y-151155426D01*
G37*
G36*
X176727175Y-151155426D02*
G01*
X176735765Y-151156701D01*
X176744190Y-151158811D01*
X176752367Y-151161737D01*
X176760219Y-151165450D01*
X176767668Y-151169915D01*
X176774644Y-151175089D01*
X176781079Y-151180921D01*
X176786911Y-151187356D01*
X176792085Y-151194332D01*
X176796550Y-151201781D01*
X176800263Y-151209633D01*
X176803189Y-151217810D01*
X176805299Y-151226235D01*
X176806574Y-151234825D01*
X176807000Y-151243500D01*
X176807000Y-151656500D01*
X176806574Y-151665175D01*
X176805299Y-151673765D01*
X176803189Y-151682190D01*
X176800263Y-151690367D01*
X176796550Y-151698219D01*
X176792085Y-151705668D01*
X176786911Y-151712644D01*
X176781079Y-151719079D01*
X176774644Y-151724911D01*
X176767668Y-151730085D01*
X176760219Y-151734550D01*
X176752367Y-151738263D01*
X176744190Y-151741189D01*
X176735765Y-151743299D01*
X176727175Y-151744574D01*
X176718500Y-151745000D01*
X175525500Y-151745000D01*
X175516825Y-151744574D01*
X175508235Y-151743299D01*
X175499810Y-151741189D01*
X175491633Y-151738263D01*
X175483781Y-151734550D01*
X175476332Y-151730085D01*
X175469356Y-151724911D01*
X175462921Y-151719079D01*
X175457089Y-151712644D01*
X175451915Y-151705668D01*
X175447450Y-151698219D01*
X175443737Y-151690367D01*
X175440811Y-151682190D01*
X175438701Y-151673765D01*
X175437426Y-151665175D01*
X175437000Y-151656500D01*
X175437000Y-151243500D01*
X175437426Y-151234825D01*
X175438701Y-151226235D01*
X175440811Y-151217810D01*
X175443737Y-151209633D01*
X175447450Y-151201781D01*
X175451915Y-151194332D01*
X175457089Y-151187356D01*
X175462921Y-151180921D01*
X175469356Y-151175089D01*
X175476332Y-151169915D01*
X175483781Y-151165450D01*
X175491633Y-151161737D01*
X175499810Y-151158811D01*
X175508235Y-151156701D01*
X175516825Y-151155426D01*
X175525500Y-151155000D01*
X176718500Y-151155000D01*
X176727175Y-151155426D01*
G37*
G36*
X176727175Y-152105426D02*
G01*
X176735765Y-152106701D01*
X176744190Y-152108811D01*
X176752367Y-152111737D01*
X176760219Y-152115450D01*
X176767668Y-152119915D01*
X176774644Y-152125089D01*
X176781079Y-152130921D01*
X176786911Y-152137356D01*
X176792085Y-152144332D01*
X176796550Y-152151781D01*
X176800263Y-152159633D01*
X176803189Y-152167810D01*
X176805299Y-152176235D01*
X176806574Y-152184825D01*
X176807000Y-152193500D01*
X176807000Y-152606500D01*
X176806574Y-152615175D01*
X176805299Y-152623765D01*
X176803189Y-152632190D01*
X176800263Y-152640367D01*
X176796550Y-152648219D01*
X176792085Y-152655668D01*
X176786911Y-152662644D01*
X176781079Y-152669079D01*
X176774644Y-152674911D01*
X176767668Y-152680085D01*
X176760219Y-152684550D01*
X176752367Y-152688263D01*
X176744190Y-152691189D01*
X176735765Y-152693299D01*
X176727175Y-152694574D01*
X176718500Y-152695000D01*
X175525500Y-152695000D01*
X175516825Y-152694574D01*
X175508235Y-152693299D01*
X175499810Y-152691189D01*
X175491633Y-152688263D01*
X175483781Y-152684550D01*
X175476332Y-152680085D01*
X175469356Y-152674911D01*
X175462921Y-152669079D01*
X175457089Y-152662644D01*
X175451915Y-152655668D01*
X175447450Y-152648219D01*
X175443737Y-152640367D01*
X175440811Y-152632190D01*
X175438701Y-152623765D01*
X175437426Y-152615175D01*
X175437000Y-152606500D01*
X175437000Y-152193500D01*
X175437426Y-152184825D01*
X175438701Y-152176235D01*
X175440811Y-152167810D01*
X175443737Y-152159633D01*
X175447450Y-152151781D01*
X175451915Y-152144332D01*
X175457089Y-152137356D01*
X175462921Y-152130921D01*
X175469356Y-152125089D01*
X175476332Y-152119915D01*
X175483781Y-152115450D01*
X175491633Y-152111737D01*
X175499810Y-152108811D01*
X175508235Y-152106701D01*
X175516825Y-152105426D01*
X175525500Y-152105000D01*
X176718500Y-152105000D01*
X176727175Y-152105426D01*
G37*
G36*
X176727175Y-153055426D02*
G01*
X176735765Y-153056701D01*
X176744190Y-153058811D01*
X176752367Y-153061737D01*
X176760219Y-153065450D01*
X176767668Y-153069915D01*
X176774644Y-153075089D01*
X176781079Y-153080921D01*
X176786911Y-153087356D01*
X176792085Y-153094332D01*
X176796550Y-153101781D01*
X176800263Y-153109633D01*
X176803189Y-153117810D01*
X176805299Y-153126235D01*
X176806574Y-153134825D01*
X176807000Y-153143500D01*
X176807000Y-153556500D01*
X176806574Y-153565175D01*
X176805299Y-153573765D01*
X176803189Y-153582190D01*
X176800263Y-153590367D01*
X176796550Y-153598219D01*
X176792085Y-153605668D01*
X176786911Y-153612644D01*
X176781079Y-153619079D01*
X176774644Y-153624911D01*
X176767668Y-153630085D01*
X176760219Y-153634550D01*
X176752367Y-153638263D01*
X176744190Y-153641189D01*
X176735765Y-153643299D01*
X176727175Y-153644574D01*
X176718500Y-153645000D01*
X175525500Y-153645000D01*
X175516825Y-153644574D01*
X175508235Y-153643299D01*
X175499810Y-153641189D01*
X175491633Y-153638263D01*
X175483781Y-153634550D01*
X175476332Y-153630085D01*
X175469356Y-153624911D01*
X175462921Y-153619079D01*
X175457089Y-153612644D01*
X175451915Y-153605668D01*
X175447450Y-153598219D01*
X175443737Y-153590367D01*
X175440811Y-153582190D01*
X175438701Y-153573765D01*
X175437426Y-153565175D01*
X175437000Y-153556500D01*
X175437000Y-153143500D01*
X175437426Y-153134825D01*
X175438701Y-153126235D01*
X175440811Y-153117810D01*
X175443737Y-153109633D01*
X175447450Y-153101781D01*
X175451915Y-153094332D01*
X175457089Y-153087356D01*
X175462921Y-153080921D01*
X175469356Y-153075089D01*
X175476332Y-153069915D01*
X175483781Y-153065450D01*
X175491633Y-153061737D01*
X175499810Y-153058811D01*
X175508235Y-153056701D01*
X175516825Y-153055426D01*
X175525500Y-153055000D01*
X176718500Y-153055000D01*
X176727175Y-153055426D01*
G37*
D15*
X181596000Y-163932000D03*
X186196000Y-163932000D03*
X183896000Y-163932000D03*
D16*
X183896000Y-157632000D03*
D17*
X204344000Y-144780000D03*
X207644000Y-144780000D03*
X195962000Y-145034000D03*
X199262000Y-145034000D03*
D14*
X178562000Y-119090000D03*
X178562000Y-123190000D03*
M02*
