M48
; DRILL file {KiCad 5.1.5+dfsg1-2build2} date jue 30 dic 2021 00:52:44
; FORMAT={-:-/ absolute / inch / decimal}
; #@! TF.CreationDate,2021-12-30T00:52:44-05:00
; #@! TF.GenerationSoftware,Kicad,Pcbnew,5.1.5+dfsg1-2build2
; #@! TF.FileFunction,Plated,1,2,PTH
FMAT,2
INCH
T1C0.0157
T2C0.0236
T3C0.0315
T4C0.0374
T5C0.0394
T6C0.0512
%
G90
G05
T1
X6.75Y-6.22
X6.77Y-5.36
X6.77Y-5.54
X6.84Y-6.09
X6.94Y-5.35
X7.04Y-5.5
X7.09Y-6.1
X7.15Y-4.72
X7.33Y-5.24
X7.33Y-5.42
X7.34Y-4.65
X7.47Y-4.82
X7.48Y-5.66
X7.49Y-4.99
X7.49Y-5.32
X7.55Y-5.63
X8.1Y-5.28
X8.16Y-4.7
X8.16Y-5.0
X8.16Y-5.05
X8.16Y-5.1
X8.16Y-5.25
X8.16Y-5.35
X8.2Y-5.79
T2
X6.85Y-5.0
X6.85Y-5.0787
T3
X7.05Y-5.03
X7.1484Y-5.03
X6.89Y-6.39
X6.9884Y-6.39
T4
X7.48Y-6.67
X7.5784Y-6.67
X7.6769Y-6.67
X7.7753Y-6.67
X7.8737Y-6.67
X7.9721Y-6.67
X8.0706Y-6.67
X8.169Y-6.67
X8.49Y-5.03
X8.49Y-5.1284
X8.49Y-5.2269
X8.46Y-5.7447
X8.46Y-5.8431
X8.46Y-5.9416
X8.46Y-6.04
T5
X8.1432Y-5.8818
X8.1432Y-6.3543
X7.09Y-6.67
X7.1884Y-6.67
X8.46Y-6.3016
X8.46Y-6.4
T6
X7.6609Y-6.3562
X7.6629Y-5.8818
X8.22Y-6.12
T0
M30
