G04 #@! TF.GenerationSoftware,KiCad,Pcbnew,5.1.5+dfsg1-2build2*
G04 #@! TF.CreationDate,2021-12-30T00:51:53-05:00*
G04 #@! TF.ProjectId,schematics,73636865-6d61-4746-9963-732e6b696361,rev?*
G04 #@! TF.SameCoordinates,Original*
G04 #@! TF.FileFunction,Soldermask,Bot*
G04 #@! TF.FilePolarity,Negative*
%FSLAX46Y46*%
G04 Gerber Fmt 4.6, Leading zero omitted, Abs format (unit mm)*
G04 Created by KiCad (PCBNEW 5.1.5+dfsg1-2build2) date 2021-12-30 00:51:53*
%MOMM*%
%LPD*%
G04 APERTURE LIST*
%ADD10C,0.100000*%
G04 APERTURE END LIST*
D10*
G36*
X215351953Y-168387172D02*
G01*
X215590410Y-168434604D01*
X215872674Y-168551521D01*
X216126705Y-168721259D01*
X216342741Y-168937295D01*
X216512479Y-169191326D01*
X216629396Y-169473590D01*
X216689000Y-169773240D01*
X216689000Y-170078760D01*
X216629396Y-170378410D01*
X216512479Y-170660674D01*
X216342741Y-170914705D01*
X216126705Y-171130741D01*
X215872674Y-171300479D01*
X215590410Y-171417396D01*
X215440585Y-171447198D01*
X215290761Y-171477000D01*
X214985239Y-171477000D01*
X214835415Y-171447198D01*
X214685590Y-171417396D01*
X214403326Y-171300479D01*
X214149295Y-171130741D01*
X213933259Y-170914705D01*
X213763521Y-170660674D01*
X213646604Y-170378410D01*
X213587000Y-170078760D01*
X213587000Y-169773240D01*
X213646604Y-169473590D01*
X213763521Y-169191326D01*
X213933259Y-168937295D01*
X214149295Y-168721259D01*
X214403326Y-168551521D01*
X214685590Y-168434604D01*
X214924047Y-168387172D01*
X214985239Y-168375000D01*
X215290761Y-168375000D01*
X215351953Y-168387172D01*
G37*
G36*
X172933953Y-168387172D02*
G01*
X173172410Y-168434604D01*
X173454674Y-168551521D01*
X173708705Y-168721259D01*
X173924741Y-168937295D01*
X174094479Y-169191326D01*
X174211396Y-169473590D01*
X174271000Y-169773240D01*
X174271000Y-170078760D01*
X174211396Y-170378410D01*
X174094479Y-170660674D01*
X173924741Y-170914705D01*
X173708705Y-171130741D01*
X173454674Y-171300479D01*
X173172410Y-171417396D01*
X173022585Y-171447198D01*
X172872761Y-171477000D01*
X172567239Y-171477000D01*
X172417415Y-171447198D01*
X172267590Y-171417396D01*
X171985326Y-171300479D01*
X171731295Y-171130741D01*
X171515259Y-170914705D01*
X171345521Y-170660674D01*
X171228604Y-170378410D01*
X171169000Y-170078760D01*
X171169000Y-169773240D01*
X171228604Y-169473590D01*
X171345521Y-169191326D01*
X171515259Y-168937295D01*
X171731295Y-168721259D01*
X171985326Y-168551521D01*
X172267590Y-168434604D01*
X172506047Y-168387172D01*
X172567239Y-168375000D01*
X172872761Y-168375000D01*
X172933953Y-168387172D01*
G37*
G36*
X182762626Y-168380037D02*
G01*
X182932465Y-168431557D01*
X182932467Y-168431558D01*
X183088989Y-168515221D01*
X183226186Y-168627814D01*
X183302873Y-168721259D01*
X183338778Y-168765009D01*
X183422443Y-168921534D01*
X183473963Y-169091373D01*
X183487000Y-169223742D01*
X183487000Y-169612257D01*
X183473963Y-169744626D01*
X183422443Y-169914466D01*
X183338778Y-170070991D01*
X183332402Y-170078760D01*
X183226186Y-170208186D01*
X183138178Y-170280411D01*
X183088991Y-170320778D01*
X182932466Y-170404443D01*
X182762627Y-170455963D01*
X182586000Y-170473359D01*
X182409374Y-170455963D01*
X182239535Y-170404443D01*
X182083010Y-170320778D01*
X181945815Y-170208185D01*
X181833222Y-170070991D01*
X181749557Y-169914466D01*
X181698037Y-169744627D01*
X181685000Y-169612258D01*
X181685000Y-169223743D01*
X181688193Y-169191328D01*
X181698037Y-169091376D01*
X181698037Y-169091374D01*
X181749557Y-168921535D01*
X181749559Y-168921532D01*
X181833221Y-168765011D01*
X181945814Y-168627814D01*
X182059641Y-168534400D01*
X182083009Y-168515222D01*
X182229985Y-168436661D01*
X182239532Y-168431558D01*
X182239534Y-168431557D01*
X182409373Y-168380037D01*
X182586000Y-168362641D01*
X182762626Y-168380037D01*
G37*
G36*
X180844600Y-168370989D02*
G01*
X180877652Y-168381015D01*
X180908103Y-168397292D01*
X180934799Y-168419201D01*
X180956708Y-168445897D01*
X180972985Y-168476348D01*
X180983011Y-168509400D01*
X180987000Y-168549903D01*
X180987000Y-170286097D01*
X180983011Y-170326600D01*
X180972985Y-170359652D01*
X180956708Y-170390103D01*
X180934799Y-170416799D01*
X180908103Y-170438708D01*
X180877652Y-170454985D01*
X180844600Y-170465011D01*
X180804097Y-170469000D01*
X179367903Y-170469000D01*
X179327400Y-170465011D01*
X179294348Y-170454985D01*
X179263897Y-170438708D01*
X179237201Y-170416799D01*
X179215292Y-170390103D01*
X179199015Y-170359652D01*
X179188989Y-170326600D01*
X179185000Y-170286097D01*
X179185000Y-168549903D01*
X179188989Y-168509400D01*
X179199015Y-168476348D01*
X179215292Y-168445897D01*
X179237201Y-168419201D01*
X179263897Y-168397292D01*
X179294348Y-168381015D01*
X179327400Y-168370989D01*
X179367903Y-168367000D01*
X180804097Y-168367000D01*
X180844600Y-168370989D01*
G37*
G36*
X192668626Y-168405037D02*
G01*
X192838465Y-168456557D01*
X192838467Y-168456558D01*
X192994989Y-168540221D01*
X193132186Y-168652814D01*
X193188357Y-168721260D01*
X193244778Y-168790009D01*
X193328443Y-168946534D01*
X193379963Y-169116373D01*
X193379963Y-169116375D01*
X193393000Y-169248740D01*
X193393000Y-169587259D01*
X193386481Y-169653442D01*
X193379963Y-169719626D01*
X193328443Y-169889466D01*
X193244778Y-170045991D01*
X193224261Y-170070991D01*
X193132186Y-170183186D01*
X193043827Y-170255699D01*
X192994991Y-170295778D01*
X192994989Y-170295779D01*
X192840401Y-170378409D01*
X192838466Y-170379443D01*
X192668627Y-170430963D01*
X192492000Y-170448359D01*
X192315374Y-170430963D01*
X192145535Y-170379443D01*
X192143601Y-170378409D01*
X191989012Y-170295779D01*
X191989010Y-170295778D01*
X191851815Y-170183185D01*
X191739222Y-170045991D01*
X191655557Y-169889466D01*
X191604037Y-169719627D01*
X191591000Y-169587258D01*
X191591000Y-169248743D01*
X191593463Y-169223740D01*
X191604037Y-169116376D01*
X191604037Y-169116374D01*
X191655557Y-168946535D01*
X191739222Y-168790010D01*
X191759738Y-168765011D01*
X191851814Y-168652814D01*
X191953271Y-168569552D01*
X191989009Y-168540222D01*
X192145534Y-168456557D01*
X192315373Y-168405037D01*
X192492000Y-168387641D01*
X192668626Y-168405037D01*
G37*
G36*
X195168626Y-168405037D02*
G01*
X195338465Y-168456557D01*
X195338467Y-168456558D01*
X195494989Y-168540221D01*
X195632186Y-168652814D01*
X195688357Y-168721260D01*
X195744778Y-168790009D01*
X195828443Y-168946534D01*
X195879963Y-169116373D01*
X195879963Y-169116375D01*
X195893000Y-169248740D01*
X195893000Y-169587259D01*
X195886481Y-169653442D01*
X195879963Y-169719626D01*
X195828443Y-169889466D01*
X195744778Y-170045991D01*
X195724261Y-170070991D01*
X195632186Y-170183186D01*
X195543827Y-170255699D01*
X195494991Y-170295778D01*
X195494989Y-170295779D01*
X195340401Y-170378409D01*
X195338466Y-170379443D01*
X195168627Y-170430963D01*
X194992000Y-170448359D01*
X194815374Y-170430963D01*
X194645535Y-170379443D01*
X194643601Y-170378409D01*
X194489012Y-170295779D01*
X194489010Y-170295778D01*
X194351815Y-170183185D01*
X194239222Y-170045991D01*
X194155557Y-169889466D01*
X194104037Y-169719627D01*
X194091000Y-169587258D01*
X194091000Y-169248743D01*
X194093463Y-169223740D01*
X194104037Y-169116376D01*
X194104037Y-169116374D01*
X194155557Y-168946535D01*
X194239222Y-168790010D01*
X194259738Y-168765011D01*
X194351814Y-168652814D01*
X194453271Y-168569552D01*
X194489009Y-168540222D01*
X194645534Y-168456557D01*
X194815373Y-168405037D01*
X194992000Y-168387641D01*
X195168626Y-168405037D01*
G37*
G36*
X200168626Y-168405037D02*
G01*
X200338465Y-168456557D01*
X200338467Y-168456558D01*
X200494989Y-168540221D01*
X200632186Y-168652814D01*
X200688357Y-168721260D01*
X200744778Y-168790009D01*
X200828443Y-168946534D01*
X200879963Y-169116373D01*
X200879963Y-169116375D01*
X200893000Y-169248740D01*
X200893000Y-169587259D01*
X200886481Y-169653442D01*
X200879963Y-169719626D01*
X200828443Y-169889466D01*
X200744778Y-170045991D01*
X200724261Y-170070991D01*
X200632186Y-170183186D01*
X200543827Y-170255699D01*
X200494991Y-170295778D01*
X200494989Y-170295779D01*
X200340401Y-170378409D01*
X200338466Y-170379443D01*
X200168627Y-170430963D01*
X199992000Y-170448359D01*
X199815374Y-170430963D01*
X199645535Y-170379443D01*
X199643601Y-170378409D01*
X199489012Y-170295779D01*
X199489010Y-170295778D01*
X199351815Y-170183185D01*
X199239222Y-170045991D01*
X199155557Y-169889466D01*
X199104037Y-169719627D01*
X199091000Y-169587258D01*
X199091000Y-169248743D01*
X199093463Y-169223740D01*
X199104037Y-169116376D01*
X199104037Y-169116374D01*
X199155557Y-168946535D01*
X199239222Y-168790010D01*
X199259738Y-168765011D01*
X199351814Y-168652814D01*
X199453271Y-168569552D01*
X199489009Y-168540222D01*
X199645534Y-168456557D01*
X199815373Y-168405037D01*
X199992000Y-168387641D01*
X200168626Y-168405037D01*
G37*
G36*
X202668626Y-168405037D02*
G01*
X202838465Y-168456557D01*
X202838467Y-168456558D01*
X202994989Y-168540221D01*
X203132186Y-168652814D01*
X203188357Y-168721260D01*
X203244778Y-168790009D01*
X203328443Y-168946534D01*
X203379963Y-169116373D01*
X203379963Y-169116375D01*
X203393000Y-169248740D01*
X203393000Y-169587259D01*
X203386481Y-169653442D01*
X203379963Y-169719626D01*
X203328443Y-169889466D01*
X203244778Y-170045991D01*
X203224261Y-170070991D01*
X203132186Y-170183186D01*
X203043827Y-170255699D01*
X202994991Y-170295778D01*
X202994989Y-170295779D01*
X202840401Y-170378409D01*
X202838466Y-170379443D01*
X202668627Y-170430963D01*
X202492000Y-170448359D01*
X202315374Y-170430963D01*
X202145535Y-170379443D01*
X202143601Y-170378409D01*
X201989012Y-170295779D01*
X201989010Y-170295778D01*
X201851815Y-170183185D01*
X201739222Y-170045991D01*
X201655557Y-169889466D01*
X201604037Y-169719627D01*
X201591000Y-169587258D01*
X201591000Y-169248743D01*
X201593463Y-169223740D01*
X201604037Y-169116376D01*
X201604037Y-169116374D01*
X201655557Y-168946535D01*
X201739222Y-168790010D01*
X201759738Y-168765011D01*
X201851814Y-168652814D01*
X201953271Y-168569552D01*
X201989009Y-168540222D01*
X202145534Y-168456557D01*
X202315373Y-168405037D01*
X202492000Y-168387641D01*
X202668626Y-168405037D01*
G37*
G36*
X205168626Y-168405037D02*
G01*
X205338465Y-168456557D01*
X205338467Y-168456558D01*
X205494989Y-168540221D01*
X205632186Y-168652814D01*
X205688357Y-168721260D01*
X205744778Y-168790009D01*
X205828443Y-168946534D01*
X205879963Y-169116373D01*
X205879963Y-169116375D01*
X205893000Y-169248740D01*
X205893000Y-169587259D01*
X205886481Y-169653442D01*
X205879963Y-169719626D01*
X205828443Y-169889466D01*
X205744778Y-170045991D01*
X205724261Y-170070991D01*
X205632186Y-170183186D01*
X205543827Y-170255699D01*
X205494991Y-170295778D01*
X205494989Y-170295779D01*
X205340401Y-170378409D01*
X205338466Y-170379443D01*
X205168627Y-170430963D01*
X204992000Y-170448359D01*
X204815374Y-170430963D01*
X204645535Y-170379443D01*
X204643601Y-170378409D01*
X204489012Y-170295779D01*
X204489010Y-170295778D01*
X204351815Y-170183185D01*
X204239222Y-170045991D01*
X204155557Y-169889466D01*
X204104037Y-169719627D01*
X204091000Y-169587258D01*
X204091000Y-169248743D01*
X204093463Y-169223740D01*
X204104037Y-169116376D01*
X204104037Y-169116374D01*
X204155557Y-168946535D01*
X204239222Y-168790010D01*
X204259738Y-168765011D01*
X204351814Y-168652814D01*
X204453271Y-168569552D01*
X204489009Y-168540222D01*
X204645534Y-168456557D01*
X204815373Y-168405037D01*
X204992000Y-168387641D01*
X205168626Y-168405037D01*
G37*
G36*
X207668626Y-168405037D02*
G01*
X207838465Y-168456557D01*
X207838467Y-168456558D01*
X207994989Y-168540221D01*
X208132186Y-168652814D01*
X208188357Y-168721260D01*
X208244778Y-168790009D01*
X208328443Y-168946534D01*
X208379963Y-169116373D01*
X208379963Y-169116375D01*
X208393000Y-169248740D01*
X208393000Y-169587259D01*
X208386481Y-169653442D01*
X208379963Y-169719626D01*
X208328443Y-169889466D01*
X208244778Y-170045991D01*
X208224261Y-170070991D01*
X208132186Y-170183186D01*
X208043827Y-170255699D01*
X207994991Y-170295778D01*
X207994989Y-170295779D01*
X207840401Y-170378409D01*
X207838466Y-170379443D01*
X207668627Y-170430963D01*
X207492000Y-170448359D01*
X207315374Y-170430963D01*
X207145535Y-170379443D01*
X207143601Y-170378409D01*
X206989012Y-170295779D01*
X206989010Y-170295778D01*
X206851815Y-170183185D01*
X206739222Y-170045991D01*
X206655557Y-169889466D01*
X206604037Y-169719627D01*
X206591000Y-169587258D01*
X206591000Y-169248743D01*
X206593463Y-169223740D01*
X206604037Y-169116376D01*
X206604037Y-169116374D01*
X206655557Y-168946535D01*
X206739222Y-168790010D01*
X206759738Y-168765011D01*
X206851814Y-168652814D01*
X206953271Y-168569552D01*
X206989009Y-168540222D01*
X207145534Y-168456557D01*
X207315373Y-168405037D01*
X207492000Y-168387641D01*
X207668626Y-168405037D01*
G37*
G36*
X197668626Y-168405037D02*
G01*
X197838465Y-168456557D01*
X197838467Y-168456558D01*
X197994989Y-168540221D01*
X198132186Y-168652814D01*
X198188357Y-168721260D01*
X198244778Y-168790009D01*
X198328443Y-168946534D01*
X198379963Y-169116373D01*
X198379963Y-169116375D01*
X198393000Y-169248740D01*
X198393000Y-169587259D01*
X198386481Y-169653442D01*
X198379963Y-169719626D01*
X198328443Y-169889466D01*
X198244778Y-170045991D01*
X198224261Y-170070991D01*
X198132186Y-170183186D01*
X198043827Y-170255699D01*
X197994991Y-170295778D01*
X197994989Y-170295779D01*
X197840401Y-170378409D01*
X197838466Y-170379443D01*
X197668627Y-170430963D01*
X197492000Y-170448359D01*
X197315374Y-170430963D01*
X197145535Y-170379443D01*
X197143601Y-170378409D01*
X196989012Y-170295779D01*
X196989010Y-170295778D01*
X196851815Y-170183185D01*
X196739222Y-170045991D01*
X196655557Y-169889466D01*
X196604037Y-169719627D01*
X196591000Y-169587258D01*
X196591000Y-169248743D01*
X196593463Y-169223740D01*
X196604037Y-169116376D01*
X196604037Y-169116374D01*
X196655557Y-168946535D01*
X196739222Y-168790010D01*
X196759738Y-168765011D01*
X196851814Y-168652814D01*
X196953271Y-168569552D01*
X196989009Y-168540222D01*
X197145534Y-168456557D01*
X197315373Y-168405037D01*
X197492000Y-168387641D01*
X197668626Y-168405037D01*
G37*
G36*
X190750600Y-168395989D02*
G01*
X190783652Y-168406015D01*
X190814103Y-168422292D01*
X190840799Y-168444201D01*
X190862708Y-168470897D01*
X190878985Y-168501348D01*
X190889011Y-168534400D01*
X190893000Y-168574903D01*
X190893000Y-170261097D01*
X190889011Y-170301600D01*
X190878985Y-170334652D01*
X190862708Y-170365103D01*
X190840799Y-170391799D01*
X190814103Y-170413708D01*
X190783652Y-170429985D01*
X190750600Y-170440011D01*
X190710097Y-170444000D01*
X189273903Y-170444000D01*
X189233400Y-170440011D01*
X189200348Y-170429985D01*
X189169897Y-170413708D01*
X189143201Y-170391799D01*
X189121292Y-170365103D01*
X189105015Y-170334652D01*
X189094989Y-170301600D01*
X189091000Y-170261097D01*
X189091000Y-168574903D01*
X189094989Y-168534400D01*
X189105015Y-168501348D01*
X189121292Y-168470897D01*
X189143201Y-168444201D01*
X189169897Y-168422292D01*
X189200348Y-168406015D01*
X189233400Y-168395989D01*
X189273903Y-168392000D01*
X190710097Y-168392000D01*
X190750600Y-168395989D01*
G37*
G36*
X215792600Y-161662989D02*
G01*
X215825652Y-161673015D01*
X215856103Y-161689292D01*
X215882799Y-161711201D01*
X215904708Y-161737897D01*
X215920985Y-161768348D01*
X215931011Y-161801400D01*
X215935000Y-161841903D01*
X215935000Y-163278097D01*
X215931011Y-163318600D01*
X215920985Y-163351652D01*
X215904708Y-163382103D01*
X215882799Y-163408799D01*
X215856103Y-163430708D01*
X215825652Y-163446985D01*
X215792600Y-163457011D01*
X215752097Y-163461000D01*
X214015903Y-163461000D01*
X213975400Y-163457011D01*
X213942348Y-163446985D01*
X213911897Y-163430708D01*
X213885201Y-163408799D01*
X213863292Y-163382103D01*
X213847015Y-163351652D01*
X213836989Y-163318600D01*
X213833000Y-163278097D01*
X213833000Y-161841903D01*
X213836989Y-161801400D01*
X213847015Y-161768348D01*
X213863292Y-161737897D01*
X213885201Y-161711201D01*
X213911897Y-161689292D01*
X213942348Y-161673015D01*
X213975400Y-161662989D01*
X214015903Y-161659000D01*
X215752097Y-161659000D01*
X215792600Y-161662989D01*
G37*
G36*
X177754228Y-161487703D02*
G01*
X177909100Y-161551853D01*
X178048481Y-161644985D01*
X178167015Y-161763519D01*
X178260147Y-161902900D01*
X178324297Y-162057772D01*
X178357000Y-162222184D01*
X178357000Y-162389816D01*
X178324297Y-162554228D01*
X178260147Y-162709100D01*
X178167015Y-162848481D01*
X178048481Y-162967015D01*
X177909100Y-163060147D01*
X177754228Y-163124297D01*
X177589816Y-163157000D01*
X177422184Y-163157000D01*
X177257772Y-163124297D01*
X177102900Y-163060147D01*
X176963519Y-162967015D01*
X176844985Y-162848481D01*
X176751853Y-162709100D01*
X176687703Y-162554228D01*
X176655000Y-162389816D01*
X176655000Y-162222184D01*
X176687703Y-162057772D01*
X176751853Y-161902900D01*
X176844985Y-161763519D01*
X176963519Y-161644985D01*
X177102900Y-161551853D01*
X177257772Y-161487703D01*
X177422184Y-161455000D01*
X177589816Y-161455000D01*
X177754228Y-161487703D01*
G37*
G36*
X175857000Y-163157000D02*
G01*
X174155000Y-163157000D01*
X174155000Y-161455000D01*
X175857000Y-161455000D01*
X175857000Y-163157000D01*
G37*
G36*
X194890585Y-159926802D02*
G01*
X195040410Y-159956604D01*
X195322674Y-160073521D01*
X195576705Y-160243259D01*
X195792741Y-160459295D01*
X195962479Y-160713326D01*
X196079396Y-160995590D01*
X196139000Y-161295240D01*
X196139000Y-161600760D01*
X196079396Y-161900410D01*
X195962479Y-162182674D01*
X195792741Y-162436705D01*
X195576705Y-162652741D01*
X195322674Y-162822479D01*
X195040410Y-162939396D01*
X194901560Y-162967015D01*
X194740761Y-162999000D01*
X194435239Y-162999000D01*
X194274440Y-162967015D01*
X194135590Y-162939396D01*
X193853326Y-162822479D01*
X193599295Y-162652741D01*
X193383259Y-162436705D01*
X193213521Y-162182674D01*
X193096604Y-161900410D01*
X193037000Y-161600760D01*
X193037000Y-161295240D01*
X193096604Y-160995590D01*
X193213521Y-160713326D01*
X193383259Y-160459295D01*
X193599295Y-160243259D01*
X193853326Y-160073521D01*
X194135590Y-159956604D01*
X194285415Y-159926802D01*
X194435239Y-159897000D01*
X194740761Y-159897000D01*
X194890585Y-159926802D01*
G37*
G36*
X207217487Y-160146996D02*
G01*
X207449888Y-160243260D01*
X207454255Y-160245069D01*
X207667339Y-160387447D01*
X207848553Y-160568661D01*
X207990932Y-160781747D01*
X208089004Y-161018513D01*
X208139000Y-161269861D01*
X208139000Y-161526139D01*
X208089004Y-161777487D01*
X208028316Y-161924000D01*
X207990931Y-162014255D01*
X207848553Y-162227339D01*
X207667339Y-162408553D01*
X207454255Y-162550931D01*
X207454254Y-162550932D01*
X207454253Y-162550932D01*
X207217487Y-162649004D01*
X206966139Y-162699000D01*
X206709861Y-162699000D01*
X206458513Y-162649004D01*
X206221747Y-162550932D01*
X206221746Y-162550932D01*
X206221745Y-162550931D01*
X206008661Y-162408553D01*
X205827447Y-162227339D01*
X205685069Y-162014255D01*
X205647684Y-161924000D01*
X205586996Y-161777487D01*
X205537000Y-161526139D01*
X205537000Y-161269861D01*
X205586996Y-161018513D01*
X205685068Y-160781747D01*
X205827447Y-160568661D01*
X206008661Y-160387447D01*
X206221745Y-160245069D01*
X206226112Y-160243260D01*
X206458513Y-160146996D01*
X206709861Y-160097000D01*
X206966139Y-160097000D01*
X207217487Y-160146996D01*
G37*
G36*
X215144442Y-159165518D02*
G01*
X215210627Y-159172037D01*
X215380466Y-159223557D01*
X215536991Y-159307222D01*
X215572729Y-159336552D01*
X215674186Y-159419814D01*
X215757448Y-159521271D01*
X215786778Y-159557009D01*
X215870443Y-159713534D01*
X215921963Y-159883373D01*
X215939359Y-160060000D01*
X215921963Y-160236627D01*
X215870443Y-160406466D01*
X215786778Y-160562991D01*
X215757448Y-160598729D01*
X215674186Y-160700186D01*
X215574805Y-160781745D01*
X215536991Y-160812778D01*
X215380466Y-160896443D01*
X215210627Y-160947963D01*
X215144442Y-160954482D01*
X215078260Y-160961000D01*
X214689740Y-160961000D01*
X214623558Y-160954482D01*
X214557373Y-160947963D01*
X214387534Y-160896443D01*
X214231009Y-160812778D01*
X214193195Y-160781745D01*
X214093814Y-160700186D01*
X214010552Y-160598729D01*
X213981222Y-160562991D01*
X213897557Y-160406466D01*
X213846037Y-160236627D01*
X213828641Y-160060000D01*
X213846037Y-159883373D01*
X213897557Y-159713534D01*
X213981222Y-159557009D01*
X214010552Y-159521271D01*
X214093814Y-159419814D01*
X214195271Y-159336552D01*
X214231009Y-159307222D01*
X214387534Y-159223557D01*
X214557373Y-159172037D01*
X214623558Y-159165518D01*
X214689740Y-159159000D01*
X215078260Y-159159000D01*
X215144442Y-159165518D01*
G37*
G36*
X209090585Y-153926802D02*
G01*
X209240410Y-153956604D01*
X209522674Y-154073521D01*
X209776705Y-154243259D01*
X209992741Y-154459295D01*
X210162479Y-154713326D01*
X210279396Y-154995590D01*
X210339000Y-155295240D01*
X210339000Y-155600760D01*
X210279396Y-155900410D01*
X210162479Y-156182674D01*
X209992741Y-156436705D01*
X209776705Y-156652741D01*
X209522674Y-156822479D01*
X209240410Y-156939396D01*
X209090585Y-156969198D01*
X208940761Y-156999000D01*
X208635239Y-156999000D01*
X208485415Y-156969198D01*
X208335590Y-156939396D01*
X208053326Y-156822479D01*
X207799295Y-156652741D01*
X207583259Y-156436705D01*
X207413521Y-156182674D01*
X207296604Y-155900410D01*
X207237000Y-155600760D01*
X207237000Y-155295240D01*
X207296604Y-154995590D01*
X207413521Y-154713326D01*
X207583259Y-154459295D01*
X207799295Y-154243259D01*
X208053326Y-154073521D01*
X208335590Y-153956604D01*
X208485415Y-153926802D01*
X208635239Y-153897000D01*
X208940761Y-153897000D01*
X209090585Y-153926802D01*
G37*
G36*
X215767600Y-152518989D02*
G01*
X215800652Y-152529015D01*
X215831103Y-152545292D01*
X215857799Y-152567201D01*
X215879708Y-152593897D01*
X215895985Y-152624348D01*
X215906011Y-152657400D01*
X215910000Y-152697903D01*
X215910000Y-154134097D01*
X215906011Y-154174600D01*
X215895985Y-154207652D01*
X215879708Y-154238103D01*
X215857799Y-154264799D01*
X215831103Y-154286708D01*
X215800652Y-154302985D01*
X215767600Y-154313011D01*
X215727097Y-154317000D01*
X214040903Y-154317000D01*
X214000400Y-154313011D01*
X213967348Y-154302985D01*
X213936897Y-154286708D01*
X213910201Y-154264799D01*
X213888292Y-154238103D01*
X213872015Y-154207652D01*
X213861989Y-154174600D01*
X213858000Y-154134097D01*
X213858000Y-152697903D01*
X213861989Y-152657400D01*
X213872015Y-152624348D01*
X213888292Y-152593897D01*
X213910201Y-152567201D01*
X213936897Y-152545292D01*
X213967348Y-152529015D01*
X214000400Y-152518989D01*
X214040903Y-152515000D01*
X215727097Y-152515000D01*
X215767600Y-152518989D01*
G37*
G36*
X215119442Y-150021518D02*
G01*
X215185627Y-150028037D01*
X215355466Y-150079557D01*
X215511991Y-150163222D01*
X215547729Y-150192552D01*
X215649186Y-150275814D01*
X215732448Y-150377271D01*
X215761778Y-150413009D01*
X215845443Y-150569534D01*
X215896963Y-150739373D01*
X215914359Y-150916000D01*
X215896963Y-151092627D01*
X215845443Y-151262466D01*
X215761778Y-151418991D01*
X215732448Y-151454729D01*
X215649186Y-151556186D01*
X215547729Y-151639448D01*
X215511991Y-151668778D01*
X215355466Y-151752443D01*
X215185627Y-151803963D01*
X215119442Y-151810482D01*
X215053260Y-151817000D01*
X214714740Y-151817000D01*
X214648558Y-151810482D01*
X214582373Y-151803963D01*
X214412534Y-151752443D01*
X214256009Y-151668778D01*
X214220271Y-151639448D01*
X214118814Y-151556186D01*
X214035552Y-151454729D01*
X214006222Y-151418991D01*
X213922557Y-151262466D01*
X213871037Y-151092627D01*
X213853641Y-150916000D01*
X213871037Y-150739373D01*
X213922557Y-150569534D01*
X214006222Y-150413009D01*
X214035552Y-150377271D01*
X214118814Y-150275814D01*
X214220271Y-150192552D01*
X214256009Y-150163222D01*
X214412534Y-150079557D01*
X214582373Y-150028037D01*
X214648558Y-150021518D01*
X214714740Y-150015000D01*
X215053260Y-150015000D01*
X215119442Y-150021518D01*
G37*
G36*
X194940585Y-147876802D02*
G01*
X195090410Y-147906604D01*
X195372674Y-148023521D01*
X195626705Y-148193259D01*
X195842741Y-148409295D01*
X196012479Y-148663326D01*
X196129396Y-148945590D01*
X196189000Y-149245240D01*
X196189000Y-149550760D01*
X196129396Y-149850410D01*
X196012479Y-150132674D01*
X195842741Y-150386705D01*
X195626705Y-150602741D01*
X195372674Y-150772479D01*
X195090410Y-150889396D01*
X194956662Y-150916000D01*
X194790761Y-150949000D01*
X194485239Y-150949000D01*
X194319338Y-150916000D01*
X194185590Y-150889396D01*
X193903326Y-150772479D01*
X193649295Y-150602741D01*
X193433259Y-150386705D01*
X193263521Y-150132674D01*
X193146604Y-149850410D01*
X193087000Y-149550760D01*
X193087000Y-149245240D01*
X193146604Y-148945590D01*
X193263521Y-148663326D01*
X193433259Y-148409295D01*
X193649295Y-148193259D01*
X193903326Y-148023521D01*
X194185590Y-147906604D01*
X194335415Y-147876802D01*
X194485239Y-147847000D01*
X194790761Y-147847000D01*
X194940585Y-147876802D01*
G37*
G36*
X207217487Y-148146996D02*
G01*
X207454253Y-148245068D01*
X207454255Y-148245069D01*
X207667339Y-148387447D01*
X207848553Y-148568661D01*
X207978051Y-148762468D01*
X207990932Y-148781747D01*
X208089004Y-149018513D01*
X208139000Y-149269861D01*
X208139000Y-149526139D01*
X208089004Y-149777487D01*
X208058798Y-149850410D01*
X207990931Y-150014255D01*
X207848553Y-150227339D01*
X207667339Y-150408553D01*
X207454255Y-150550931D01*
X207454254Y-150550932D01*
X207454253Y-150550932D01*
X207217487Y-150649004D01*
X206966139Y-150699000D01*
X206709861Y-150699000D01*
X206458513Y-150649004D01*
X206221747Y-150550932D01*
X206221746Y-150550932D01*
X206221745Y-150550931D01*
X206008661Y-150408553D01*
X205827447Y-150227339D01*
X205685069Y-150014255D01*
X205617202Y-149850410D01*
X205586996Y-149777487D01*
X205537000Y-149526139D01*
X205537000Y-149269861D01*
X205586996Y-149018513D01*
X205685068Y-148781747D01*
X205697950Y-148762468D01*
X205827447Y-148568661D01*
X206008661Y-148387447D01*
X206221745Y-148245069D01*
X206221747Y-148245068D01*
X206458513Y-148146996D01*
X206709861Y-148097000D01*
X206966139Y-148097000D01*
X207217487Y-148146996D01*
G37*
G36*
X215119443Y-147521519D02*
G01*
X215185627Y-147528037D01*
X215355466Y-147579557D01*
X215511991Y-147663222D01*
X215547729Y-147692552D01*
X215649186Y-147775814D01*
X215732448Y-147877271D01*
X215761778Y-147913009D01*
X215845443Y-148069534D01*
X215896963Y-148239373D01*
X215914359Y-148416000D01*
X215896963Y-148592627D01*
X215845443Y-148762466D01*
X215761778Y-148918991D01*
X215739948Y-148945591D01*
X215649186Y-149056186D01*
X215547729Y-149139448D01*
X215511991Y-149168778D01*
X215355466Y-149252443D01*
X215185627Y-149303963D01*
X215119442Y-149310482D01*
X215053260Y-149317000D01*
X214714740Y-149317000D01*
X214648558Y-149310482D01*
X214582373Y-149303963D01*
X214412534Y-149252443D01*
X214256009Y-149168778D01*
X214220271Y-149139448D01*
X214118814Y-149056186D01*
X214028052Y-148945591D01*
X214006222Y-148918991D01*
X213922557Y-148762466D01*
X213871037Y-148592627D01*
X213853641Y-148416000D01*
X213871037Y-148239373D01*
X213922557Y-148069534D01*
X214006222Y-147913009D01*
X214035552Y-147877271D01*
X214118814Y-147775814D01*
X214220271Y-147692552D01*
X214256009Y-147663222D01*
X214412534Y-147579557D01*
X214582373Y-147528037D01*
X214648557Y-147521519D01*
X214714740Y-147515000D01*
X215053260Y-147515000D01*
X215119443Y-147521519D01*
G37*
G36*
X215119442Y-145021518D02*
G01*
X215185627Y-145028037D01*
X215355466Y-145079557D01*
X215511991Y-145163222D01*
X215547729Y-145192552D01*
X215649186Y-145275814D01*
X215732448Y-145377271D01*
X215761778Y-145413009D01*
X215845443Y-145569534D01*
X215896963Y-145739373D01*
X215914359Y-145916000D01*
X215896963Y-146092627D01*
X215845443Y-146262466D01*
X215761778Y-146418991D01*
X215732448Y-146454729D01*
X215649186Y-146556186D01*
X215547729Y-146639448D01*
X215511991Y-146668778D01*
X215355466Y-146752443D01*
X215185627Y-146803963D01*
X215119442Y-146810482D01*
X215053260Y-146817000D01*
X214714740Y-146817000D01*
X214648558Y-146810482D01*
X214582373Y-146803963D01*
X214412534Y-146752443D01*
X214256009Y-146668778D01*
X214220271Y-146639448D01*
X214118814Y-146556186D01*
X214035552Y-146454729D01*
X214006222Y-146418991D01*
X213922557Y-146262466D01*
X213871037Y-146092627D01*
X213853641Y-145916000D01*
X213871037Y-145739373D01*
X213922557Y-145569534D01*
X214006222Y-145413009D01*
X214035552Y-145377271D01*
X214118814Y-145275814D01*
X214220271Y-145192552D01*
X214256009Y-145163222D01*
X214412534Y-145079557D01*
X214582373Y-145028037D01*
X214648558Y-145021518D01*
X214714740Y-145015000D01*
X215053260Y-145015000D01*
X215119442Y-145021518D01*
G37*
G36*
X215269552Y-138758331D02*
G01*
X215351627Y-138792328D01*
X215351629Y-138792329D01*
X215388813Y-138817175D01*
X215425495Y-138841685D01*
X215488315Y-138904505D01*
X215537672Y-138978373D01*
X215571669Y-139060448D01*
X215589000Y-139147579D01*
X215589000Y-139236421D01*
X215571669Y-139323552D01*
X215537672Y-139405627D01*
X215537671Y-139405629D01*
X215488314Y-139479496D01*
X215425496Y-139542314D01*
X215351629Y-139591671D01*
X215351628Y-139591672D01*
X215351627Y-139591672D01*
X215269552Y-139625669D01*
X215182421Y-139643000D01*
X215093579Y-139643000D01*
X215006448Y-139625669D01*
X214924373Y-139591672D01*
X214924372Y-139591672D01*
X214924371Y-139591671D01*
X214850504Y-139542314D01*
X214787686Y-139479496D01*
X214738329Y-139405629D01*
X214738328Y-139405627D01*
X214704331Y-139323552D01*
X214687000Y-139236421D01*
X214687000Y-139147579D01*
X214704331Y-139060448D01*
X214738328Y-138978373D01*
X214787685Y-138904505D01*
X214850505Y-138841685D01*
X214887187Y-138817175D01*
X214924371Y-138792329D01*
X214924373Y-138792328D01*
X215006448Y-138758331D01*
X215093579Y-138741000D01*
X215182421Y-138741000D01*
X215269552Y-138758331D01*
G37*
G36*
X215881442Y-131867518D02*
G01*
X215947627Y-131874037D01*
X216117466Y-131925557D01*
X216273991Y-132009222D01*
X216309729Y-132038552D01*
X216411186Y-132121814D01*
X216494448Y-132223271D01*
X216523778Y-132259009D01*
X216607443Y-132415534D01*
X216658963Y-132585373D01*
X216676359Y-132762000D01*
X216658963Y-132938627D01*
X216607443Y-133108466D01*
X216523778Y-133264991D01*
X216494448Y-133300729D01*
X216411186Y-133402186D01*
X216309729Y-133485448D01*
X216273991Y-133514778D01*
X216117466Y-133598443D01*
X215947627Y-133649963D01*
X215881443Y-133656481D01*
X215815260Y-133663000D01*
X215476740Y-133663000D01*
X215410557Y-133656481D01*
X215344373Y-133649963D01*
X215174534Y-133598443D01*
X215018009Y-133514778D01*
X214982271Y-133485448D01*
X214880814Y-133402186D01*
X214797552Y-133300729D01*
X214768222Y-133264991D01*
X214684557Y-133108466D01*
X214633037Y-132938627D01*
X214615641Y-132762000D01*
X214633037Y-132585373D01*
X214684557Y-132415534D01*
X214768222Y-132259009D01*
X214797552Y-132223271D01*
X214880814Y-132121814D01*
X214982271Y-132038552D01*
X215018009Y-132009222D01*
X215174534Y-131925557D01*
X215344373Y-131874037D01*
X215410558Y-131867518D01*
X215476740Y-131861000D01*
X215815260Y-131861000D01*
X215881442Y-131867518D01*
G37*
G36*
X215881442Y-129367518D02*
G01*
X215947627Y-129374037D01*
X216117466Y-129425557D01*
X216273991Y-129509222D01*
X216309729Y-129538552D01*
X216411186Y-129621814D01*
X216494448Y-129723271D01*
X216523778Y-129759009D01*
X216607443Y-129915534D01*
X216658963Y-130085373D01*
X216676359Y-130262000D01*
X216658963Y-130438627D01*
X216607443Y-130608466D01*
X216523778Y-130764991D01*
X216494448Y-130800729D01*
X216411186Y-130902186D01*
X216309729Y-130985448D01*
X216273991Y-131014778D01*
X216117466Y-131098443D01*
X215947627Y-131149963D01*
X215881443Y-131156481D01*
X215815260Y-131163000D01*
X215476740Y-131163000D01*
X215410557Y-131156481D01*
X215344373Y-131149963D01*
X215174534Y-131098443D01*
X215018009Y-131014778D01*
X214982271Y-130985448D01*
X214880814Y-130902186D01*
X214797552Y-130800729D01*
X214768222Y-130764991D01*
X214684557Y-130608466D01*
X214633037Y-130438627D01*
X214615641Y-130262000D01*
X214633037Y-130085373D01*
X214684557Y-129915534D01*
X214768222Y-129759009D01*
X214797552Y-129723271D01*
X214880814Y-129621814D01*
X214982271Y-129538552D01*
X215018009Y-129509222D01*
X215174534Y-129425557D01*
X215344373Y-129374037D01*
X215410558Y-129367518D01*
X215476740Y-129361000D01*
X215815260Y-129361000D01*
X215881442Y-129367518D01*
G37*
G36*
X174179890Y-128374017D02*
G01*
X174298364Y-128423091D01*
X174404988Y-128494335D01*
X174495665Y-128585012D01*
X174566909Y-128691636D01*
X174615983Y-128810110D01*
X174641000Y-128935882D01*
X174641000Y-129064118D01*
X174615983Y-129189890D01*
X174566909Y-129308364D01*
X174495665Y-129414988D01*
X174404988Y-129505665D01*
X174298364Y-129576909D01*
X174298363Y-129576910D01*
X174298362Y-129576910D01*
X174179890Y-129625983D01*
X174054119Y-129651000D01*
X173925881Y-129651000D01*
X173800110Y-129625983D01*
X173681638Y-129576910D01*
X173681637Y-129576910D01*
X173681636Y-129576909D01*
X173575012Y-129505665D01*
X173484335Y-129414988D01*
X173413091Y-129308364D01*
X173364017Y-129189890D01*
X173339000Y-129064118D01*
X173339000Y-128935882D01*
X173364017Y-128810110D01*
X173413091Y-128691636D01*
X173484335Y-128585012D01*
X173575012Y-128494335D01*
X173681636Y-128423091D01*
X173800110Y-128374017D01*
X173925881Y-128349000D01*
X174054119Y-128349000D01*
X174179890Y-128374017D01*
G37*
G36*
X216529600Y-126864989D02*
G01*
X216562652Y-126875015D01*
X216593103Y-126891292D01*
X216619799Y-126913201D01*
X216641708Y-126939897D01*
X216657985Y-126970348D01*
X216668011Y-127003400D01*
X216672000Y-127043903D01*
X216672000Y-128480097D01*
X216668011Y-128520600D01*
X216657985Y-128553652D01*
X216641708Y-128584103D01*
X216619799Y-128610799D01*
X216593103Y-128632708D01*
X216562652Y-128648985D01*
X216529600Y-128659011D01*
X216489097Y-128663000D01*
X214802903Y-128663000D01*
X214762400Y-128659011D01*
X214729348Y-128648985D01*
X214698897Y-128632708D01*
X214672201Y-128610799D01*
X214650292Y-128584103D01*
X214634015Y-128553652D01*
X214623989Y-128520600D01*
X214620000Y-128480097D01*
X214620000Y-127043903D01*
X214623989Y-127003400D01*
X214634015Y-126970348D01*
X214650292Y-126939897D01*
X214672201Y-126913201D01*
X214698897Y-126891292D01*
X214729348Y-126875015D01*
X214762400Y-126864989D01*
X214802903Y-126861000D01*
X216489097Y-126861000D01*
X216529600Y-126864989D01*
G37*
G36*
X181818228Y-126943703D02*
G01*
X181973100Y-127007853D01*
X182112481Y-127100985D01*
X182231015Y-127219519D01*
X182324147Y-127358900D01*
X182388297Y-127513772D01*
X182421000Y-127678184D01*
X182421000Y-127845816D01*
X182388297Y-128010228D01*
X182324147Y-128165100D01*
X182231015Y-128304481D01*
X182112481Y-128423015D01*
X181973100Y-128516147D01*
X181818228Y-128580297D01*
X181653816Y-128613000D01*
X181486184Y-128613000D01*
X181321772Y-128580297D01*
X181166900Y-128516147D01*
X181027519Y-128423015D01*
X180908985Y-128304481D01*
X180815853Y-128165100D01*
X180751703Y-128010228D01*
X180719000Y-127845816D01*
X180719000Y-127678184D01*
X180751703Y-127513772D01*
X180815853Y-127358900D01*
X180908985Y-127219519D01*
X181027519Y-127100985D01*
X181166900Y-127007853D01*
X181321772Y-126943703D01*
X181486184Y-126911000D01*
X181653816Y-126911000D01*
X181818228Y-126943703D01*
G37*
G36*
X179921000Y-128613000D02*
G01*
X178219000Y-128613000D01*
X178219000Y-126911000D01*
X179921000Y-126911000D01*
X179921000Y-128613000D01*
G37*
G36*
X174641000Y-127651000D02*
G01*
X173339000Y-127651000D01*
X173339000Y-126349000D01*
X174641000Y-126349000D01*
X174641000Y-127651000D01*
G37*
G36*
X215694585Y-118874802D02*
G01*
X215844410Y-118904604D01*
X216126674Y-119021521D01*
X216380705Y-119191259D01*
X216596741Y-119407295D01*
X216766479Y-119661326D01*
X216883396Y-119943590D01*
X216943000Y-120243240D01*
X216943000Y-120548760D01*
X216883396Y-120848410D01*
X216766479Y-121130674D01*
X216596741Y-121384705D01*
X216380705Y-121600741D01*
X216126674Y-121770479D01*
X215844410Y-121887396D01*
X215694585Y-121917198D01*
X215544761Y-121947000D01*
X215239239Y-121947000D01*
X215089415Y-121917198D01*
X214939590Y-121887396D01*
X214657326Y-121770479D01*
X214403295Y-121600741D01*
X214187259Y-121384705D01*
X214017521Y-121130674D01*
X213900604Y-120848410D01*
X213841000Y-120548760D01*
X213841000Y-120243240D01*
X213900604Y-119943590D01*
X214017521Y-119661326D01*
X214187259Y-119407295D01*
X214403295Y-119191259D01*
X214657326Y-119021521D01*
X214939590Y-118904604D01*
X215089415Y-118874802D01*
X215239239Y-118845000D01*
X215544761Y-118845000D01*
X215694585Y-118874802D01*
G37*
G36*
X173022585Y-118874802D02*
G01*
X173172410Y-118904604D01*
X173454674Y-119021521D01*
X173708705Y-119191259D01*
X173924741Y-119407295D01*
X174094479Y-119661326D01*
X174211396Y-119943590D01*
X174271000Y-120243240D01*
X174271000Y-120548760D01*
X174211396Y-120848410D01*
X174094479Y-121130674D01*
X173924741Y-121384705D01*
X173708705Y-121600741D01*
X173454674Y-121770479D01*
X173172410Y-121887396D01*
X173022585Y-121917198D01*
X172872761Y-121947000D01*
X172567239Y-121947000D01*
X172417415Y-121917198D01*
X172267590Y-121887396D01*
X171985326Y-121770479D01*
X171731295Y-121600741D01*
X171515259Y-121384705D01*
X171345521Y-121130674D01*
X171228604Y-120848410D01*
X171169000Y-120548760D01*
X171169000Y-120243240D01*
X171228604Y-119943590D01*
X171345521Y-119661326D01*
X171515259Y-119407295D01*
X171731295Y-119191259D01*
X171985326Y-119021521D01*
X172267590Y-118904604D01*
X172417415Y-118874802D01*
X172567239Y-118845000D01*
X172872761Y-118845000D01*
X173022585Y-118874802D01*
G37*
G36*
X178693552Y-120706331D02*
G01*
X178775627Y-120740328D01*
X178775629Y-120740329D01*
X178812813Y-120765175D01*
X178849495Y-120789685D01*
X178912315Y-120852505D01*
X178961672Y-120926373D01*
X178995669Y-121008448D01*
X179013000Y-121095579D01*
X179013000Y-121184421D01*
X178995669Y-121271552D01*
X178961672Y-121353627D01*
X178961671Y-121353629D01*
X178912314Y-121427496D01*
X178849496Y-121490314D01*
X178775629Y-121539671D01*
X178775628Y-121539672D01*
X178775627Y-121539672D01*
X178693552Y-121573669D01*
X178606421Y-121591000D01*
X178517579Y-121591000D01*
X178430448Y-121573669D01*
X178348373Y-121539672D01*
X178348372Y-121539672D01*
X178348371Y-121539671D01*
X178274504Y-121490314D01*
X178211686Y-121427496D01*
X178162329Y-121353629D01*
X178162328Y-121353627D01*
X178128331Y-121271552D01*
X178111000Y-121184421D01*
X178111000Y-121095579D01*
X178128331Y-121008448D01*
X178162328Y-120926373D01*
X178211685Y-120852505D01*
X178274505Y-120789685D01*
X178311187Y-120765175D01*
X178348371Y-120740329D01*
X178348373Y-120740328D01*
X178430448Y-120706331D01*
X178517579Y-120689000D01*
X178606421Y-120689000D01*
X178693552Y-120706331D01*
G37*
M02*
